<svg id="Grupo_1067585" data-name="Grupo 1067585" xmlns="http://www.w3.org/2000/svg" xmlns:xlink="http://www.w3.org/1999/xlink" width="175.109" height="180.262" viewBox="0 0 175.109 180.262">
  <defs>
    <clipPath id="clip-path">
      <rect id="Rectángulo_375587" data-name="Rectángulo 375587" width="175.109" height="180.262" fill="none"/>
    </clipPath>
    <clipPath id="clip-path-4">
      <rect id="Rectángulo_375585" data-name="Rectángulo 375585" width="37.005" height="45.726" fill="none"/>
    </clipPath>
  </defs>
  <g id="Grupo_1067584" data-name="Grupo 1067584" transform="translate(0)" clip-path="url(#clip-path)">
    <rect id="Rectángulo_375578" data-name="Rectángulo 375578" width="186.096" height="26.351" transform="translate(144.033 155.833) rotate(-135)" fill="#ebebeb"/>
    <rect id="Rectángulo_375579" data-name="Rectángulo 375579" width="26.351" height="186.096" transform="translate(31.076 155.833) rotate(-135)" fill="#ebebeb"/>
    <rect id="Rectángulo_375580" data-name="Rectángulo 375580" width="46.274" height="6.552" transform="translate(170.475 96.434) rotate(-135)" fill="#ebebeb"/>
    <rect id="Rectángulo_375581" data-name="Rectángulo 375581" width="6.552" height="46.274" transform="translate(142.388 96.434) rotate(-135)" fill="#ebebeb"/>
    <rect id="Rectángulo_375582" data-name="Rectángulo 375582" width="46.274" height="6.552" transform="translate(32.721 96.434) rotate(-135)" fill="#ebebeb"/>
    <rect id="Rectángulo_375583" data-name="Rectángulo 375583" width="6.552" height="46.274" transform="translate(4.634 96.434) rotate(-135)" fill="#ebebeb"/>
    <g id="Grupo_1067578" data-name="Grupo 1067578">
      <g id="Grupo_1067577" data-name="Grupo 1067577" clip-path="url(#clip-path)">
        <path id="Trazado_809512" data-name="Trazado 809512" d="M294.714,344.585c1.1-2.7,2.376-5.7,1.433-8.616-.871-2.693-2.628-5.457-5.533-6.208-.829-.214-1.39-.211-1.363.771.042,1.5,1.112,3.031,1.792,4.306a29.478,29.478,0,0,1,2.208,5.118c.39,1.247.651,2.534,1.01,3.792q.063.238.14.474c.016.059.034.12.054.18-.008.026-.017.053-.026.079a.144.144,0,0,0,.018.134.126.126,0,0,0,.039.038.153.153,0,0,0,.23-.069" transform="translate(-257.133 -174.921)" fill="#288640"/>
        <path id="Trazado_809513" data-name="Trazado 809513" d="M293.916,347.636c.841-2.421,1.9-4.978.976-7.5A11.9,11.9,0,0,0,293,336.9c-.351-.444-1.394-1.773-2.059-1.625-1.2.269,1.709,4.59,1.943,5.126a12.5,12.5,0,0,1,.811,6.326q.063.238.14.474a13.979,13.979,0,0,0-.069-4.552c-.393-2.082-1.55-3.584-2.467-5.436-.2-.4-.9-1.646-.145-1.741.5-.062,1.525,1.227,1.745,1.505a11.831,11.831,0,0,1,1.806,3.059c.973,2.533-.035,5.1-.824,7.559a.138.138,0,0,0,.039.038" transform="translate(-256.565 -177.902)" fill="#fff"/>
        <path id="Trazado_809514" data-name="Trazado 809514" d="M305.758,356.212c.114.015.226.033.341.05a.019.019,0,0,0,.011,0,.077.077,0,0,0,.074-.028.123.123,0,0,0,0-.164.091.091,0,0,0-.065-.026h-.048l-.1,0a.037.037,0,0,0-.006-.009l-.028-.019c-1.633-1.15-3.447-2.029-5.073-3.2-1.55-1.122-3.025-2.351-4.661-3.349-1.031-.63-6.333-3.452-6.539-.736-.091,1.2,1.214,2.53,2.006,3.29a12.257,12.257,0,0,0,3.681,2.378c3.34,1.428,6.9,1.317,10.414,1.824" transform="translate(-267.06 -184.425)" fill="#288640"/>
        <path id="Trazado_809515" data-name="Trazado 809515" d="M295.271,357.41a14.268,14.268,0,0,1-3.645-1.784c-.388-.268-2.246-1.556-1.939-2.233.195-.439,1.11-.19,1.416-.121a12.581,12.581,0,0,1,3.542,1.853,54.776,54.776,0,0,0,7.128,3.64c.165.036.335.07.5.111.139.027.276.062.414.093.048.013.094.02.142.033l.111.026a.124.124,0,0,1,0,.164c-.107-.024-.214-.045-.321-.069.083.035.164.065.247.1,0,0-.006,0-.01,0l-.277-.044-.064-.009c-.14-.052-.279-.107-.413-.161a59.422,59.422,0,0,1-6.831-1.6m5.944,1.237c-1.439-.6-2.846-1.284-4.221-2.025-1.111-.595-2.188-1.24-3.252-1.91a12.777,12.777,0,0,0-1.862-1.039c-.5-.208-2.412-.827-1.6.573.592,1.012,2.333,1.842,3.341,2.308a20.148,20.148,0,0,0,3.492,1.2c1.355.348,2.733.607,4.1.889" transform="translate(-263.817 -187.386)" fill="#fff"/>
        <path id="Trazado_809516" data-name="Trazado 809516" d="M276.9,360.025h0a.767.767,0,0,0,.049-.1c.792-2.549,2.249-5.8,1.357-8.487-.659-1.986-2.522-4.384-4.751-4.65-2.515-.295-.886,3.845-.52,4.917a81.377,81.377,0,0,0,3.717,8.321c.013.016.021.033.033.048l.007.008c.032.037.073-.008.107-.06" transform="translate(-231.232 -184.009)" fill="#288640"/>
        <path id="Trazado_809517" data-name="Trazado 809517" d="M277.419,362.834c-.036-.177-.072-.354-.113-.532-.432-2.026-.951-4.036-1.57-6.011-.154-.5-1.628-4.237-.577-4.333.636-.055,1.4,1.279,1.663,1.713a8.2,8.2,0,0,1,1,2.523c.428,2.049-.089,4.155-.281,6.227-.016.1-.023.194-.03.292a.3.3,0,0,1,.012.058v0c-.033.05-.073.093-.1.058m.391-5.475a8.263,8.263,0,0,0-.667-2.7c-.245-.567-1.2-2.6-1.96-2.428-.4.088-.293.326-.244.8a5.39,5.39,0,0,0,.111.643c.122.521.3,1.026.469,1.53.3.889.575,1.78.831,2.683.422,1.474.781,2.963,1.092,4.464a40.216,40.216,0,0,0,.367-4.992" transform="translate(-231.855 -186.758)" fill="#fff"/>
        <path id="Trazado_809518" data-name="Trazado 809518" d="M278.667,375.283a15.767,15.767,0,0,0,9.065-1.542.122.122,0,0,0,.044-.183.114.114,0,0,0-.149-.04c-.056.028-.116.053-.174.08-3.555-.833-7.105-1.617-10.646-2.518-.834-.213-6.183-1.461-5.927.417.159,1.16,2.232,1.994,3.144,2.422a15.878,15.878,0,0,0,4.642,1.363" transform="translate(-239.832 -196.586)" fill="#288640"/>
        <path id="Trazado_809519" data-name="Trazado 809519" d="M271.2,374.242c-.253-.189-.491-.445-.176-.69.606-.471,3.1.169,3.8.312,2.9.587,5.777.905,8.706,1.229l.744.085.26-.078a.118.118,0,0,1,0,.144c-.024,0-.051,0-.076,0-.114.036-.234.073-.351.1h0a18.621,18.621,0,0,1-5.738.707,17.673,17.673,0,0,1-3.633-.5,10.257,10.257,0,0,1-3.537-1.3m12.728,1.024c.058-.013.112-.031.17-.044-.1,0-.2-.008-.307-.016a52.489,52.489,0,0,1-6.808-.759c-1.141-.211-2.265-.493-3.41-.663-.484-.072-1.851-.323-2.2-.026s.159.473.434.617c.2.1.576.24.77.316a18.378,18.378,0,0,0,11.348.575" transform="translate(-236.59 -198.127)" fill="#fff"/>
        <path id="Trazado_809520" data-name="Trazado 809520" d="M285.125,353.9l.184-.5c-.438-.17-.876-.341-1.309-.514-1.756-.712-3.508-1.436-5.247-2.194-.992-.431-1.972-.873-2.93-1.344a.89.89,0,0,0-.1-.046c-.076-.042-.154-.08-.236-.12s-.166-.085-.251-.13a22.917,22.917,0,0,1-5.9-4.115c-.575-.572-1.122-1.167-1.659-1.778-.051-.057-.1-.119-.152-.176a.358.358,0,0,1-.04-.049c-.055-.059-.105-.12-.159-.183l-.117-.139c-1.612-1.906-3.074-3.944-4.574-5.919-.428-.566-.86-1.134-1.295-1.693a.7.7,0,0,0-.078-.1,1.312,1.312,0,0,0-.093-.126c-1.912-2.492-3.854-4.966-5.7-7.5-.066-.1-.2.023-.134.115,1.215,1.7,2.39,3.433,3.577,5.158.156.23.318.459.474.689.314.457.625.908.94,1.361.631.905,1.265,1.8,1.916,2.691a76.462,76.462,0,0,0,5.766,7.342c.159.169.32.334.485.5.1.1.2.209.307.305.115.119.236.236.357.352a24.591,24.591,0,0,0,7.266,4.576c.182.081.368.164.556.243.083.035.169.076.257.114.046.017.092.039.137.06s.117.048.179.076h0c.042.015.087.037.134.054.158.068.318.131.48.2,1.751.724,3.512,1.423,5.272,2.112.56.22,1.12.45,1.681.679" transform="translate(-230.038 -173.643)" fill="#455a64"/>
        <path id="Trazado_809521" data-name="Trazado 809521" d="M314.137,322.3c-1.34-2.046-4.5-5.2-7.215-3.9a2.29,2.29,0,0,0-1.262,2.785,6.658,6.658,0,0,0,2.744,3.152c2.884,2.108,5.945,3.926,8.68,6.241.011.027.234.2.293.25s.123-.047.068-.094l-.267-.228c-.783-2.763-1.451-5.778-3.042-8.2" transform="translate(-285.779 -168.789)" fill="#288640"/>
        <path id="Trazado_809522" data-name="Trazado 809522" d="M315.006,333.841c-.012-.019-.031-.035-.043-.054a24.045,24.045,0,0,0-1.915-2.156,48.729,48.729,0,0,0-4.556-3.905c-.611-.474-3.636-2.7-1.843-3.415a3.233,3.233,0,0,1,2.4.476A9.069,9.069,0,0,1,311.838,327a16.535,16.535,0,0,1,3.084,6.292c.034.1.064.206.094.308.023.028.043.054.066.082a.464.464,0,0,1,.043.054.062.062,0,0,1,.015.039.08.08,0,0,1-.085.089.059.059,0,0,1-.048-.027m-.177-.672a19.31,19.31,0,0,0-2.455-5.277,10.218,10.218,0,0,0-2.1-2.2,8.235,8.235,0,0,0-1.144-.728,5.816,5.816,0,0,0-.93-.4c-.7-.234-1.569-.224-1.793.161-.28.475-.045.754.418,1.3a5.741,5.741,0,0,0,.5.525,17.808,17.808,0,0,0,1.4,1.157c.791.613,1.576,1.228,2.341,1.874.519.436,1.027.887,1.515,1.355a25.235,25.235,0,0,1,2.368,2.573c-.035-.114-.075-.23-.114-.345" transform="translate(-283.7 -172.035)" fill="#fff"/>
        <path id="Trazado_809523" data-name="Trazado 809523" d="M52.045,343.877c-1.522,1.235-2.958,2.572-4.377,3.923-.806.764-1.6,1.54-2.412,2.306a7.92,7.92,0,0,1-2.937,2.159s0,0-.006,0a.718.718,0,0,0-.149.078.079.079,0,0,0-.01.023.146.146,0,0,0,.171.19c.028-.008.054-.017.08-.024l.032,0a4.762,4.762,0,0,0,1.078-.179,25.555,25.555,0,0,0,2.9-.671A24.3,24.3,0,0,0,52,349.3a20.5,20.5,0,0,0,4.284-3.344c1.015-1.043,2.54-2.578,2.9-4.044.322-1.328-1.427-1.172-2.245-.985-1.854.429-3.454,1.78-4.9,2.95" transform="translate(96.103 -180.841)" fill="#288640"/>
        <path id="Trazado_809524" data-name="Trazado 809524" d="M62.223,345.708c.376.6-1.294,2.253-2,2.992a19.774,19.774,0,0,1-3.726,3.043,25.575,25.575,0,0,1-7.969,3.248c-.111.026-.226.056-.34.079-.01,0-.023,0-.032,0s-.049.015-.077.022a.146.146,0,0,1-.172-.191c.227-.088.445-.183.663-.286.2-.092.391-.185.578-.286a33.856,33.856,0,0,0,5.722-4.088c2.118-1.728,6.851-5.326,7.354-4.531M48.829,354.68c-.287.137-.578.26-.87.373.23-.058.46-.117.688-.179a28.273,28.273,0,0,0,7.052-2.829,20.237,20.237,0,0,0,3.461-2.53,18.7,18.7,0,0,0,1.6-1.653c.208-.247,1.56-1.7,1.248-2.021-.221-.225-1.723.629-1.756.644-.3.167-.6.352-.889.54-.6.386-1.18.806-1.751,1.233-1.235.932-2.421,1.934-3.626,2.905a26.733,26.733,0,0,1-5.161,3.518" transform="translate(90.35 -183.383)" fill="#fff"/>
        <path id="Trazado_809525" data-name="Trazado 809525" d="M76.661,331.754A18.471,18.471,0,0,0,74.5,339.9c-.113,1.5-.157,3.012-.235,4.515a19.941,19.941,0,0,1-.392,4.017c-.013.056-.029.115-.047.173a5.237,5.237,0,0,1-.424,1.048.075.075,0,0,0,0,.072,1.06,1.06,0,0,0-.073.1.026.026,0,0,0,.036.036c.032-.024.067-.054.1-.079l.008-.007a.079.079,0,0,0,.086-.045.242.242,0,0,0,.023-.041c.032-.026.065-.052.1-.08,2.322-1.889,3.767-5.241,4.775-7.942A15.785,15.785,0,0,0,79.47,333.2c-.14-.717-.348-2.415-1.186-2.709-.765-.268-1.314.741-1.624,1.262" transform="translate(61.01 -175.345)" fill="#288640"/>
        <path id="Trazado_809526" data-name="Trazado 809526" d="M80.537,336.871c.853.2.523,2.551.462,3.127a30.4,30.4,0,0,1-1.111,5.139,27.143,27.143,0,0,1-3.356,7.773l0,0c-.011.033-.024.063-.036.1-.033.031-.066.057-.1.082a.162.162,0,0,1-.023.041.081.081,0,0,1-.089.045c.014-.046.031-.088.04-.132.118-.34.221-.687.318-1.035.017-.059.033-.117.046-.173a58.631,58.631,0,0,0,1.233-7.417,28.049,28.049,0,0,1,1.105-5.114c.14-.423.794-2.6,1.51-2.436m-.852,1.2c-1.347,2.654-1.516,5.9-1.893,8.8a30.787,30.787,0,0,1-1.18,5.8,28.872,28.872,0,0,0,2.953-7.1,38.709,38.709,0,0,0,1.05-4.264,15.94,15.94,0,0,0,.276-2.363,6.19,6.19,0,0,0-.091-1.425c-.243-.866-.882.1-1.115.553" transform="translate(58.19 -178.749)" fill="#fff"/>
        <path id="Trazado_809527" data-name="Trazado 809527" d="M60.46,373.794a.155.155,0,0,0,.007.152c-.021,0-.038,0-.057,0a.045.045,0,0,0-.05.04.042.042,0,0,0,.034.054,25.683,25.683,0,0,0,10.5.431,13.421,13.421,0,0,0,4.079-1.535c.861-.506,2.6-1.528,2.761-2.639.328-2.235-5.77-.274-6.688.024-1.673.543-3.3,1.226-4.959,1.8-1.82.629-3.682,1.124-5.541,1.619a.129.129,0,0,0-.083.057" transform="translate(69.035 -195.927)" fill="#288640"/>
        <path id="Trazado_809528" data-name="Trazado 809528" d="M65.229,375.249c.185,0,.367-.011.55-.024a28.957,28.957,0,0,0,8.719-1.793,26.625,26.625,0,0,1,4.29-1.332c.366-.063,1.716-.4,1.45.436-.139.434-2.4,1.556-3.006,1.8a18.365,18.365,0,0,1-4.358,1.076,30.2,30.2,0,0,1-7.526.051c-.074-.008-.148-.015-.218-.024a.044.044,0,0,1,.049-.041.4.4,0,0,0,.055,0,.16.16,0,0,1,0-.152m6.378.134A21.294,21.294,0,0,0,76,374.592a15.173,15.173,0,0,0,1.667-.616,9.593,9.593,0,0,0,1.239-.636c.958-.609,1.158-.842,1.093-1.024-.043-.112-.233-.185-.985-.109a7.409,7.409,0,0,0-1.425.321c-.661.2-1.313.431-1.965.668-1.3.467-2.6.954-3.933,1.323a22.392,22.392,0,0,1-5.87.849,34.538,34.538,0,0,0,5.792.015" transform="translate(64.266 -197.383)" fill="#fff"/>
        <path id="Trazado_809529" data-name="Trazado 809529" d="M93.75,357.058a8.513,8.513,0,0,0-1.947,3.08c-.917,2.257-1.339,4.676-2.094,6.988-.113.345-.232.689-.363,1.03-.015.037-.269.407-.242.387.007,0,.125-.111.322-.295v0a34.756,34.756,0,0,0,5.057-5.631,17.457,17.457,0,0,0,1.818-3.825c.19-.64.557-2.1-.058-2.634-.663-.579-2.026.467-2.493.9" transform="translate(36.703 -188.896)" fill="#288640"/>
        <path id="Trazado_809530" data-name="Trazado 809530" d="M97.8,359.649c.884.434-1.239,4.3-1.507,4.812a24.526,24.526,0,0,1-3.676,5.2c-.16.18-.324.352-.492.526-.2.184-.314.291-.321.3-.008-.012.222-.353.241-.391.023-.057.044-.118.066-.175.106-.284.2-.569.3-.85.692-1.536,1.359-3.087,2.084-4.612a22.621,22.621,0,0,1,1.792-3.172c.157-.226,1.132-1.822,1.518-1.631m-.793.778c-2.21,2.783-3.162,6.24-4.7,9.387-.026.053-.05.1-.075.153.059-.069.123-.136.181-.2a27.875,27.875,0,0,0,3.106-4.259,26.532,26.532,0,0,0,1.461-2.864,13.388,13.388,0,0,0,.669-1.633c.069-.246.234-.93.073-1.026-.227-.141-.566.263-.713.445" transform="translate(34.004 -190.832)" fill="#fff"/>
        <path id="Trazado_809531" data-name="Trazado 809531" d="M53.361,310.114c-3.524,5.131-2.323,12.069-5.492,17.381l-.017.026c-.1.162-.2.322-.3.482a.115.115,0,0,0,.075.175.084.084,0,0,0,.086-.041c.026-.036.051-.076.074-.115a29.756,29.756,0,0,0,6.624-8.253,15.09,15.09,0,0,0,2.266-8.6c-.062-.747-.139-2.235-1.016-2.568-.927-.354-1.864.879-2.3,1.511" transform="translate(96.085 -163.72)" fill="#288640"/>
        <path id="Trazado_809532" data-name="Trazado 809532" d="M58.473,316.18c.367.144.38.7.4,1.005a9.558,9.558,0,0,1-.094,2.281,15.738,15.738,0,0,1-1.439,4.444,32.464,32.464,0,0,1-4.213,6.811c-.386.465-.788.913-1.215,1.34-.052.054-.106.1-.157.157a.118.118,0,0,1-.078-.175c.107-.153.2-.305.3-.463a.429.429,0,0,0,.026-.043,19.128,19.128,0,0,0,1.821-3.227,44.9,44.9,0,0,0,1.77-5.492c.207-.727,1.619-7.141,2.877-6.637m-.908,1.037a21.4,21.4,0,0,0-1.47,4.394c-.431,1.485-.844,2.973-1.3,4.45a21.692,21.692,0,0,1-1.366,3.417,16.867,16.867,0,0,1-1.609,2.61,23.666,23.666,0,0,0,1.908-2.338.082.082,0,0,0,.017-.032,42.58,42.58,0,0,0,2.794-4.587l.033-.058a19.653,19.653,0,0,0,1.8-4.364,11.263,11.263,0,0,0,.374-2.541c.015-.974-.072-1.762-.4-1.795-.225-.019-.565.444-.779.843" transform="translate(91.95 -167.759)" fill="#fff"/>
        <path id="Trazado_809533" data-name="Trazado 809533" d="M80.408,335.093c-.969,1.485-1.975,2.955-2.988,4.421q-.711,1.036-1.426,2.058a.324.324,0,0,1-.026.043c-.171.246-.345.5-.516.743a50.994,50.994,0,0,1-5,6.563,23.279,23.279,0,0,1-3.321,2.779c-.124.083-.245.169-.368.256l0,0c-.069.043-.136.09-.2.133a1.288,1.288,0,0,1-.113.076c-1.038.7-2.113,1.352-3.159,1.98-1.462.876-2.972,1.649-4.488,2.4a.826.826,0,0,1-.133.068c-.068.037-.138.07-.205.107l-.107.051c-.064.034-.13.065-.193.1-.489.242-.975.487-1.463.738l.276.441a33.88,33.88,0,0,0,4.6-2.13.775.775,0,0,0,.091-.052c.145-.075.292-.155.432-.238.179-.1.353-.194.528-.3q.635-.365,1.252-.734a35.725,35.725,0,0,0,6.82-4.966l.163-.166a.742.742,0,0,0,.069-.069c.041-.037.08-.077.119-.117l.183-.194c.109-.116.215-.236.318-.353l.093-.106a54.725,54.725,0,0,0,4.355-6.106c.248-.379.492-.756.735-1.136l.4-.636c.2-.322.4-.649.6-.971a.074.074,0,0,0,.017-.032c.939-1.525,1.846-3.067,2.794-4.587.042-.069-.075-.145-.121-.074" transform="translate(67.963 -177.794)" fill="#455a64"/>
      </g>
    </g>
    <g id="Grupo_1067583" data-name="Grupo 1067583">
      <g id="Grupo_1067582" data-name="Grupo 1067582" clip-path="url(#clip-path)">
        <path id="Trazado_809534" data-name="Trazado 809534" d="M149.251,337.364H199.56c.414-1.619.816-3.213,1.218-4.781.459-1.8.912-3.564,1.345-5.279.1-.383.2-.765.293-1.141q.5-1.971.975-3.839c.191-.758.383-1.5.567-2.244s.383-1.492.567-2.212c.051-.191.1-.383.146-.567.051-.21.1-.414.153-.619.064-.255.128-.5.192-.746v-.006c.07-.261.134-.516.2-.772.127-.484.249-.963.363-1.428.178-.689.351-1.364.516-2.021.07-.287.147-.574.217-.854.121-.459.236-.905.344-1.345.077-.293.147-.58.217-.861q.45-1.731.829-3.251c.07-.268.134-.529.2-.784.108-.44.217-.861.319-1.269q.1-.382.191-.746c.223-.867.428-1.658.6-2.353.051-.185.1-.363.14-.535.115-.459.223-.867.313-1.231.038-.147.07-.287.108-.414.038-.146.07-.281.1-.4.019-.089.045-.178.064-.255.031-.128.063-.242.089-.344.013-.057.025-.108.038-.153.077-.3.115-.453.115-.453h-48.97s-1.613,5.56-4.2,14.523c-.523,1.824-1.09,3.793-1.7,5.885-1.715,5.974-3.717,12.948-5.872,20.5" transform="translate(-104.93 -157.31)" fill="#37474f"/>
        <path id="Trazado_809535" data-name="Trazado 809535" d="M171.889,350.333h1.256q2.792-11.562,5.413-23.162.631-2.821,1.249-5.649c.038-.178.076-.351.115-.529a.076.076,0,0,0-.147-.038c-.019.057-.032.115-.051.172q-.851,3.032-1.69,6.076-3.184,11.533-6.146,23.13" transform="translate(-85.496 -170.278)" fill="#263238"/>
        <path id="Trazado_809536" data-name="Trazado 809536" d="M149.251,296.459l2.161,10.819,1.772,8.875,3.015,15.123.313,1.549.516,2.582.389,1.957h28.8c.408-1.626.816-3.22,1.211-4.782.459-1.8.912-3.564,1.345-5.279.1-.383.2-.765.293-1.142q.5-1.97.975-3.838c.191-.758.383-1.5.567-2.244s.383-1.492.567-2.212c.051-.191.1-.383.146-.567.051-.21.1-.414.153-.619.064-.255.128-.5.192-.746v-.006c.07-.261.134-.517.2-.772.128-.484.249-.963.363-1.428.178-.689.351-1.364.516-2.021.077-.293.147-.574.217-.854.121-.459.236-.905.345-1.346.077-.293.146-.58.216-.86q.45-1.731.829-3.252c.07-.268.134-.529.2-.784.108-.44.217-.861.319-1.269q.106-.383.192-.746c.223-.867.427-1.658.6-2.353.051-.185.1-.363.14-.536.115-.459.223-.867.313-1.23.038-.147.07-.287.108-.414.038-.146.07-.281.1-.4.019-.089.045-.178.064-.255.032-.128.064-.242.089-.344.013-.057.025-.108.038-.153.077-.3.115-.452.115-.452Z" transform="translate(-91.579 -157.31)" fill="#263238"/>
        <path id="Trazado_809537" data-name="Trazado 809537" d="M97.19,296.418v.019c.019.268.2,3.188.676,7.644.134,1.3.293,2.728.478,4.259.287,2.416.644,5.081,1.084,7.9.752,4.915,1.734,10.277,3.009,15.518.452,1.887.95,3.755,1.479,5.585l64.162.022a22.97,22.97,0,0,0,.735-5.324c-.575-7.386-4.9-35.6-4.9-35.6l-57.341-.019Z" transform="translate(-39.339 -157.288)" fill="#37474f"/>
        <path id="Trazado_809538" data-name="Trazado 809538" d="M197.2,310.012c-.009,2.263.009,4.521.076,6.774.071,2.448.208,4.89.446,7.333,0,.09.014.18.023.27q.327,3.436.792,6.859a24.092,24.092,0,0,0,1.347,6.4A6.282,6.282,0,0,0,201.3,339.7a4.409,4.409,0,0,0,1.988,1.115,3.2,3.2,0,0,0,.37.076.931.931,0,0,1,.109.009.133.133,0,0,0-.076.133c0,.759-.043,1.527.014,2.282,0,.033,0,.066.009.095.029.37.071.74.123,1.1h1.011c-.09-.436-.176-.873-.266-1.309-.166-.74-.384-1.471-.531-2.22a.127.127,0,0,0-.047-.071,3.367,3.367,0,0,0,3.33-1.935,5.867,5.867,0,0,0,.157-2.965c-.157-1.3-.3-2.6-.456-3.9-.289-2.386-.683-4.753-1.024-7.134-.053-.36-.1-.726-.152-1.081-.683-4.843-1.172-8.154-2.073-12.954-.029-.2-.067-.4-.1-.6a.118.118,0,0,0-.233.024c.019.318.043.645.071.963.119,1.836,1.826,19.652,2.306,23.172.222,1.636,1.138,4.582-1.219,5a2.375,2.375,0,0,1-1.579-.252,4.97,4.97,0,0,1-2.078-2.822,36.318,36.318,0,0,1-1.043-5.892q-.463-3.23-.8-6.465v0c-.289-2.694-1.257-10.82-1.427-12.191-.076-.631-.157-1.267-.237-1.9-.023-.133-.232-.1-.237.033" transform="translate(-125.05 -164.438)" fill="#263238"/>
        <path id="Trazado_809539" data-name="Trazado 809539" d="M147.533,326.313c-2.632-.01-10.01-.318-14.433-3.5-2.814-2.027-4.867-10.41-5.412-12.791-.027-.118-.207-.078-.211.032a25.946,25.946,0,0,0,1.061,7.964c.636,2.2,1.491,4.651,3.359,6.191,1.965,1.621,4.632,2.19,7.147,2.485a34.518,34.518,0,0,0,8.5-.112.133.133,0,1,0-.007-.266" transform="translate(-32.391 -164.467)" fill="#263238"/>
        <path id="Trazado_809540" data-name="Trazado 809540" d="M240.484,324.9c1.417-.01,5.387-.318,7.766-3.5,1.515-2.027,2.619-10.41,2.912-12.791.015-.118.112-.078.114.032a47.087,47.087,0,0,1-.571,7.964c-.342,2.2-.8,4.651-1.807,6.191a5.7,5.7,0,0,1-3.846,2.486,10.1,10.1,0,0,1-4.572-.112c-.094-.023-.1-.266,0-.266" transform="translate(-189.015 -163.716)" fill="#263238"/>
        <path id="Trazado_809541" data-name="Trazado 809541" d="M109.967,308.08c.14,3.538,3.693,24.091,4.048,31.09a19.143,19.143,0,0,1-.9,4.282H114.3a18.2,18.2,0,0,0,.853-4.2c-.468-7.043-4.6-27.646-4.878-31.178a.153.153,0,0,0-.306.007" transform="translate(8.336 -163.397)" fill="#263238"/>
        <path id="Trazado_809542" data-name="Trazado 809542" d="M241.549,128.507c-23.592,18.393-37.072,34.358-37.442,42.22-.83,17.615,3.615,22.422,6.334,21.788,17.982-4.191,31.411-37.006,40.223-56.518,8.748-19.37-2.358-12.758-9.115-7.491" transform="translate(-174.532 -65.272)" fill="#ffbe9d"/>
        <path id="Trazado_809543" data-name="Trazado 809543" d="M202.331,153.358l26.761,16.934s13.176-23.922,18.133-38.439-1.012-14.482-14.838-3.854-30.055,25.359-30.055,25.359" transform="translate(-168.809 -63.91)" fill="#59bee2"/>
        <path id="Trazado_809544" data-name="Trazado 809544" d="M248.731,146.052a6.814,6.814,0,0,1,1.471,2.1,6.751,6.751,0,0,1-2.1-1.471,6.889,6.889,0,0,1-1.471-2.1,6.841,6.841,0,0,1,2.1,1.471m-27.74,7.936a6.784,6.784,0,0,1,2.1-1.475,6.712,6.712,0,0,1-1.475,2.1,6.8,6.8,0,0,1-2.1,1.471,6.82,6.82,0,0,1,1.471-2.1m28.489-24.6a8.724,8.724,0,0,1,1.447-.133,6.844,6.844,0,0,1,2.523.446,6.845,6.845,0,0,1-2.523.446,7.4,7.4,0,0,1-2.116-.3c.228-.161.451-.313.669-.46m-12.707,25.131a6.854,6.854,0,0,1,2.523.446,7.377,7.377,0,0,1-5.052,0,6.879,6.879,0,0,1,2.529-.446m-.437-14.97a5.886,5.886,0,0,1-.408,1.845,5.415,5.415,0,0,1-.342-1.228v0c.252-.2.5-.408.75-.612" transform="translate(-181.379 -68.584)" fill="#fff"/>
        <path id="Trazado_809545" data-name="Trazado 809545" d="M241.163,182.1c10.225,7.951,20.287,13.348,22.286,14.683.095.063.186-.1.087-.155-2.03-1.207-12.953-9.055-22.278-14.7-.107-.065-.194.094-.1.17" transform="translate(-201.645 -96.531)" fill="#263238"/>
        <g id="Grupo_1067581" data-name="Grupo 1067581" transform="translate(43.114 60.655)" opacity="0.1">
          <g id="Grupo_1067580" data-name="Grupo 1067580">
            <g id="Grupo_1067579" data-name="Grupo 1067579" clip-path="url(#clip-path-4)">
              <path id="Trazado_809546" data-name="Trazado 809546" d="M202.375,164.087l17.17,10.866s13.175-23.924,18.132-38.437a28.839,28.839,0,0,0,1.7-7.289Z" transform="translate(-202.375 -129.227)"/>
            </g>
          </g>
        </g>
        <path id="Trazado_809547" data-name="Trazado 809547" d="M92.505,213.576l80.985,1.258s-22.719-79.29-39.9-93.637c-4.016-3.354-16.105-3.923-19.636,1.462-8.876,13.533-21.494,90.85-21.446,90.917" transform="translate(-41.801 -62.955)" fill="#59bee2"/>
        <path id="Trazado_809548" data-name="Trazado 809548" d="M118.931,212.514a6.682,6.682,0,0,1,1.471,2.1,6.753,6.753,0,0,1-2.1-1.471,6.843,6.843,0,0,1-1.475-2.1,6.848,6.848,0,0,1,2.1,1.475m27.4-19.054a6.667,6.667,0,0,1,1.47,2.1,6.679,6.679,0,0,1-2.1-1.471,6.84,6.84,0,0,1-1.475-2.1,6.853,6.853,0,0,1,2.1,1.475m16.094,23.475a6.7,6.7,0,0,1,1.471,2.1,6.827,6.827,0,0,1-2.1-1.475,6.735,6.735,0,0,1-1.471-2.1,6.815,6.815,0,0,1,2.1,1.471m18.162-29.874c.133.379.266.759.394,1.134a5.713,5.713,0,0,1-.8-1.328,3.8,3.8,0,0,1,.4.194M125.591,145.2A8.177,8.177,0,0,1,127,146.315a6.814,6.814,0,0,1,1.471,2.1,6.757,6.757,0,0,1-2.1-1.471,8.518,8.518,0,0,1-.949-1.148c.052-.2.109-.4.166-.6m.782,21.274a6.836,6.836,0,0,1,2.1-1.471A6.83,6.83,0,0,1,127,167.1a6.911,6.911,0,0,1-2.1,1.471,6.916,6.916,0,0,1,1.471-2.1m-11.578,27.692a4.6,4.6,0,0,1,.749-.389,5.762,5.762,0,0,1-.963,1.527q.106-.562.214-1.138m28.375-57.031a6.715,6.715,0,0,1,2.1-1.475,7.425,7.425,0,0,1-3.572,3.572,6.814,6.814,0,0,1,1.471-2.1m34.912,66.9a6.734,6.734,0,0,1,2.1-1.471,6.673,6.673,0,0,1-1.47,2.1,6.854,6.854,0,0,1-2.1,1.475,6.84,6.84,0,0,1,1.475-2.1M157.874,165.5a6.775,6.775,0,0,1,2.1-1.475,6.787,6.787,0,0,1-1.47,2.1,6.889,6.889,0,0,1-2.1,1.47,6.8,6.8,0,0,1,1.47-2.1m-29.058,35.1a6.857,6.857,0,0,1,2.523.441,6.844,6.844,0,0,1-2.523.446,6.681,6.681,0,0,1-2.529-.446,6.786,6.786,0,0,1,2.529-.441m15-21.967a6.919,6.919,0,0,1,2.524.441,6.847,6.847,0,0,1-2.524.446,6.666,6.666,0,0,1-2.523-.446,6.743,6.743,0,0,1,2.523-.441M131.1,129.746a5.511,5.511,0,0,1,.626.214,5.633,5.633,0,0,1-.878.275c.081-.171.166-.332.252-.489M174.486,170.3c.114.294.228.588.337.882H174.8a6.876,6.876,0,0,1-2.528-.445,6.452,6.452,0,0,1,2.215-.437m-11.892,29.855a6.862,6.862,0,0,1,2.523.446,7.438,7.438,0,0,1-5.047,0,6.752,6.752,0,0,1,2.524-.446m-6.973-50.3a6.844,6.844,0,0,1,2.523.446,7.362,7.362,0,0,1-5.047,0,6.862,6.862,0,0,1,2.523-.446m24.561,67.428a6.764,6.764,0,0,1,.446,2.523c0,.252-.019.5-.038.75l-.812-.014c-.023-.242-.033-.489-.038-.735a6.766,6.766,0,0,1,.441-2.523m-36.7-9.51a7.376,7.376,0,0,1,0,5.051,7.45,7.45,0,0,1,0-5.051m19.553-26.251a6.667,6.667,0,0,1,.446,2.524,6.886,6.886,0,0,1-.446,2.528,6.959,6.959,0,0,1-.441-2.528,6.744,6.744,0,0,1,.441-2.524m-36.065,1.11a7.451,7.451,0,0,1,0,5.052,6.88,6.88,0,0,1-.446-2.523,6.793,6.793,0,0,1,.446-2.529m14.719-28.807a6.767,6.767,0,0,1,.441,2.528,6.936,6.936,0,0,1-.441,2.524,6.845,6.845,0,0,1-.446-2.524,6.681,6.681,0,0,1,.446-2.528" transform="translate(-59.652 -68.847)" fill="#fff"/>
        <path id="Trazado_809549" data-name="Trazado 809549" d="M196.84,133.7a27.479,27.479,0,0,1-9.646,9.632,12.747,12.747,0,0,1-6.143,1.91,5.034,5.034,0,0,1-3.144-.882,6.589,6.589,0,0,1-1.878-2.8,14.186,14.186,0,0,1-.856-3.912,35.332,35.332,0,0,1-.1-4.594c0-.058-.077-.05-.079.009-.067,1.453-.24,2.905-.207,4.357a15.62,15.62,0,0,0,.488,3.779,8.417,8.417,0,0,0,1.565,3.15,4.6,4.6,0,0,0,2.992,1.595,11.229,11.229,0,0,0,6.612-1.383,22.843,22.843,0,0,0,5.656-4.145,26.788,26.788,0,0,0,4.853-6.647.066.066,0,1,0-.114-.064" transform="translate(-103.895 -70.579)" fill="#263238"/>
        <path id="Trazado_809550" data-name="Trazado 809550" d="M178.531,119.8c4.4,1.494,12.779-4.641,16.362-9.92.244-.363.044-4.446.036-9.418.007-3.017.085-6.377.379-9.437l-19.642,2.824a49.01,49.01,0,0,1,.728,11.929,6.919,6.919,0,0,1-.252,1.243c-.012.057-.036.125-.048.205-.617,2.348-1.812,11.126,2.437,12.574" transform="translate(-102.554 -48.3)" fill="#f7c3a9"/>
        <path id="Trazado_809551" data-name="Trazado 809551" d="M175.46,93.852s.253,1.348.61,4.534c3.584,7.585,12.365,11.833,18.7,9.887.013-3.259-.04-12.829.337-17.245Z" transform="translate(-102.35 -48.302)" fill="#263238"/>
        <path id="Trazado_809552" data-name="Trazado 809552" d="M157.456,31.43s4.439,1.24,5.868,6.98c1.447,5.815-2.265,11.333-2.265,11.333Z" transform="translate(-62.456 -16.678)" fill="#263238"/>
        <path id="Trazado_809553" data-name="Trazado 809553" d="M157.965,32.554c-1.73,6.936,2.9,26.474,7.983,30.62,7.371,6.011,18.929,6.022,23.907-2.721,4.826-8.476-1.656-33.831-7.288-37.547-8.3-5.472-22.047-.6-24.6,9.647" transform="translate(-90.407 -10.949)" fill="#ffbe9d"/>
        <path id="Trazado_809554" data-name="Trazado 809554" d="M191.854,58.928a16.889,16.889,0,0,0,1.78.146,2.889,2.889,0,0,0,1.844-.2.921.921,0,0,0,.32-1.077,2.281,2.281,0,0,0-2-1.154,3.349,3.349,0,0,0-2.354.534.981.981,0,0,0,.413,1.747" transform="translate(-110.421 -30.043)" fill="#263238"/>
        <path id="Trazado_809555" data-name="Trazado 809555" d="M171.21,54.493a16.83,16.83,0,0,1-1.671.629,2.886,2.886,0,0,1-1.826.317.92.92,0,0,1-.6-.948,2.281,2.281,0,0,1,1.609-1.659,3.351,3.351,0,0,1,2.411-.133.981.981,0,0,1,.082,1.793" transform="translate(-75.077 -27.877)" fill="#263238"/>
        <path id="Trazado_809556" data-name="Trazado 809556" d="M170.467,71.94a11.391,11.391,0,0,1,5.135-1.311c.148-.053.227-.381.223-.529l0-.01c-.01-.048-.64-2.774-.64-2.774.4.111,2.443.581,2.309.061-1.125-4.3-2.374-9.072-4.4-13.108a.123.123,0,0,0-.232.081c.917,4.171,2.562,8.152,3.549,12.327a7.906,7.906,0,0,0-2.224-.22c-.135.069.827,2.9.869,3.363a6.6,6.6,0,0,0-4.724,1.549c-.493.472-.6,1.047.136.571" transform="translate(-82.156 -28.759)" fill="#263238"/>
        <path id="Trazado_809557" data-name="Trazado 809557" d="M183.25,97.349c.375.242.774.6,1.257.542a3.523,3.523,0,0,0,1.338-.616.047.047,0,0,1,.07.055,1.8,1.8,0,0,1-1.515,1.049,1.42,1.42,0,0,1-1.264-.946c-.036-.071.059-.12.114-.084" transform="translate(-96.767 -51.613)" fill="#263238"/>
        <path id="Trazado_809558" data-name="Trazado 809558" d="M168.606,67.53c0-.051.112.041.121.094.208,1.288.663,2.728,1.9,2.928.038.006.047.071,0,.073-1.452.076-2.037-1.842-2.028-3.1" transform="translate(-74.694 -35.826)" fill="#263238"/>
        <path id="Trazado_809559" data-name="Trazado 809559" d="M166.766,67.741a1.991,1.991,0,0,0,.619.855,1.436,1.436,0,0,0,1.119.246,1.294,1.294,0,0,0,.9-.733,2.271,2.271,0,0,0,.177-1.026,4.23,4.23,0,0,0-.085-.622,2.8,2.8,0,0,0-.532-1.179,4.21,4.21,0,0,1,.145.932,5.7,5.7,0,0,1-.017.852c-.061.578-.284,1.1-.723,1.159-.455.105-.868-.195-1.161-.7a9.265,9.265,0,0,1-.7-1.671,4.094,4.094,0,0,0,.262,1.89" transform="translate(-72.621 -34.64)" fill="#263238"/>
        <path id="Trazado_809560" data-name="Trazado 809560" d="M190.667,69.789c-.022-.046-.084.084-.07.136.354,1.256.547,2.754-.494,3.458-.032.022-.013.084.028.068,1.349-.543,1.072-2.529.536-3.662" transform="translate(-105.222 -37.027)" fill="#263238"/>
        <path id="Trazado_809561" data-name="Trazado 809561" d="M193.313,70.643a1.988,1.988,0,0,1-.2,1.036,1.434,1.434,0,0,1-.912.695,1.291,1.291,0,0,1-1.125-.286,2.268,2.268,0,0,1-.593-.856,4.149,4.149,0,0,1-.184-.6,2.8,2.8,0,0,1-.014-1.294,4.209,4.209,0,0,0,.261.907,5.66,5.66,0,0,0,.374.766c.3.5.72.874,1.144.746.457-.1.705-.542.757-1.127a9.257,9.257,0,0,0-.065-1.812,4.1,4.1,0,0,1,.558,1.825" transform="translate(-107.491 -36.517)" fill="#263238"/>
        <path id="Trazado_809562" data-name="Trazado 809562" d="M175.706,39.987c3.117-.545,2.292-7.753,2.292-7.753s8.162.727,6.339-9.692c0,0,9.677,1.3,14.741-2.814,4.329-3.519,5.351-12.2.889-16.392-2.516-2.366-8.578-3.824-15.44,5.845,0,0-12.3-5.442-13.884,8.453,0,0-5.5,1.748-5.144,7.352.568,8.844,7.514,15.472,10.207,15" transform="translate(-105.422 -0.842)" fill="#263238"/>
        <path id="Trazado_809563" data-name="Trazado 809563" d="M209.062,44.625a.086.086,0,0,0-.156.074c.963,2.441,1.978,5.1.362,7.519a6.182,6.182,0,0,1-7.039,2.646c-.158-.049-.249.194-.09.241a6.737,6.737,0,0,0,7.152-2.168c2.081-2.526,1.307-5.733-.229-8.313" transform="translate(-130.288 -23.655)" fill="#263238"/>
        <path id="Trazado_809564" data-name="Trazado 809564" d="M234,56.213c-4.7-1.395-8.642-4.4-9.949-9.343a9.828,9.828,0,0,1,.465-7.082c1.04-1.991,2.964-3.011,4.6-4.418a.054.054,0,0,0-.057-.09c-10.814,5.023-5.607,19.814,4.812,21.5a.3.3,0,0,0,.131-.571" transform="translate(-163.789 -18.717)" fill="#263238"/>
        <path id="Trazado_809565" data-name="Trazado 809565" d="M180.075,2.314c-6.021-5.834-14.541.482-17.119,6.6-.009.022.026.042.038.02,2.5-4.708,8.551-10.014,14.17-7.727,6.785,2.761,6.361,14.2-.418,16.573-.2.072-.094.422.116.366,6.337-1.711,7.689-11.5,3.213-15.835" transform="translate(-84.081 0)" fill="#263238"/>
        <path id="Trazado_809566" data-name="Trazado 809566" d="M222.438,77.039S217,71.454,214.4,73.492s2.2,10.636,5.762,11.339a3.46,3.46,0,0,0,4.276-2.582Z" transform="translate(-149.612 -38.759)" fill="#ffbe9d"/>
        <path id="Trazado_809567" data-name="Trazado 809567" d="M217.589,79.164a.047.047,0,0,0,0,.093c2.51.57,4.106,2.552,5.343,4.674a1.91,1.91,0,0,0-2.9-.055c-.054.054.02.14.084.115a2.129,2.129,0,0,1,2.432.356,10.3,10.3,0,0,1,1.412,1.69c.145.192.506.018.386-.212l-.028-.052c-.43-3.011-3.448-6.833-6.721-6.609" transform="translate(-151.364 -42.002)" fill="#263238"/>
        <path id="Trazado_809568" data-name="Trazado 809568" d="M75.077,131.614c23.257,18.814,36.653,34.718,39.056,42.212,5.657,17.642-2.826,20.688-4.509,20.22C91.836,189.1,74.289,158.607,65.829,138.94c-8.4-19.524,2.587-12.714,9.248-7.326" transform="translate(29.583 -66.824)" fill="#ffbe9d"/>
        <path id="Trazado_809569" data-name="Trazado 809569" d="M125.953,156l-27.061,16.45s-12.635-23.1-17.331-37.7,1.272-14.462,14.9-3.587S125.953,156,125.953,156" transform="translate(11.617 -65.459)" fill="#59bee2"/>
        <path id="Trazado_809570" data-name="Trazado 809570" d="M124.188,165.972a6.775,6.775,0,0,1,1.438,2.016l-.062.038a7.408,7.408,0,0,1-3.472-3.529,6.816,6.816,0,0,1,2.1,1.475M97.976,141.434a6.762,6.762,0,0,1,1.471,2.1,7.386,7.386,0,0,1-3.567-3.571,6.815,6.815,0,0,1,2.1,1.47m10.445,34.281a6.845,6.845,0,0,1,2.524.446,7.377,7.377,0,0,1-5.052,0,6.868,6.868,0,0,1,2.528-.446M91.767,155.726c-.166.066-.332.128-.5.176-.061-.133-.118-.266-.175-.4a5.3,5.3,0,0,1,.673.223m16.052-.835a7.377,7.377,0,0,1,0,5.052,7.377,7.377,0,0,1,0-5.052" transform="translate(6.725 -74.269)" fill="#fff"/>
        <path id="Trazado_809571" data-name="Trazado 809571" d="M115.18,184.211c-10.366,7.766-20.524,12.981-22.546,14.28-.1.061-.184-.1-.084-.157,2.051-1.17,13.114-8.821,22.538-14.3.109-.063.192.1.092.172" transform="translate(16.464 -97.649)" fill="#263238"/>
        <path id="Trazado_809572" data-name="Trazado 809572" d="M149.149,198.54a15.186,15.186,0,0,0-1.638.791c-2.806-5.182-2.288-3.99-5.142-9.145q-2.1-3.79-4.2-7.58c-1.449-2.63-2.76-5.375-4.352-7.922a.068.068,0,0,0-.119.064c.955,2.505,2.217,4.919,3.416,7.324-.261-.37-.509-.75-.791-1.107-.632-.8-1.252-1.6-1.819-2.445-.087-.13-.3-.016-.216.116.542.808,1.022,1.641,1.5,2.489s1,1.655,1.54,2.468c.517.783,1.086,1.526,1.657,2.27.07.091.138.184.208.275.767,1.5,1.514,3.019,2.316,4.508a72.259,72.259,0,0,0,5.755,9.261,14.688,14.688,0,0,0,1.961-1.22c.075-.059,0-.156-.078-.146" transform="translate(-36.903 -92.674)" fill="#263238"/>
        <path id="Trazado_809573" data-name="Trazado 809573" d="M122.767,213.9c-7.84,1.165-25.633-3.261-51.214-21.508-3.54-2.525,5.96-31.391,9.879-28.889,4.936,3.151,32.454,20.053,33.682,21.2,10.358,9.642,12.972,28.41,7.654,29.2" transform="translate(16.44 -86.677)" fill="#ffbe9d"/>
        <path id="Trazado_809574" data-name="Trazado 809574" d="M72.349,203.9A23.867,23.867,0,0,1,76.92,207.7c.674.721,1.332,1.459,1.935,2.238a19.946,19.946,0,0,1,1.636,2.484,48.837,48.837,0,0,1,2.632,5.315,38.315,38.315,0,0,1,1.953,5.654c-.765-1.827-1.627-3.594-2.508-5.349s-1.806-3.482-2.794-5.163a26.432,26.432,0,0,0-1.59-2.427c-.594-.77-1.194-1.536-1.825-2.277a49.869,49.869,0,0,0-4.009-4.283" transform="translate(56.074 -108.192)" fill="#263238"/>
        <path id="Trazado_809575" data-name="Trazado 809575" d="M170.624,151.141c4.567,4.928,12.028,7.862,12.028,7.862l9.932-27.5s-11.643-10.016-14.876-13.7c-.939-1.07-6.084-6.471-10.741-12.028-5.285-6.308-11.633-12.248-12.619-12.378-1.9-.251-3.258,2.631-.7,7.715s9.247,14.14,9.505,14.788a4.67,4.67,0,0,1,.127.688l0,.008c-.046.307-5.168,6.555-4.232,10.086.953,3.6,8.427,21.052,11.584,24.459" transform="translate(-88.933 -49.551)" fill="#ffbe9d"/>
        <path id="Trazado_809576" data-name="Trazado 809576" d="M220.388,122.071s-3.427-13.423-5.614-15.306-13.588-15.187-15.479-15.477-3.257,2.634-.706,7.718,9.248,14.135,9.508,14.788,1.311,12.805,1.747,13.9,10.544-5.62,10.544-5.62" transform="translate(-137.834 -48.429)" fill="#ffbe9d"/>
        <path id="Trazado_809577" data-name="Trazado 809577" d="M221.505,114.236c-.691-1.353-1.438-2.674-2.179-4q-.57-.986-1.171-1.958c-.2-.324-.4-.647-.62-.966-.1-.161-.223-.319-.337-.478a5.665,5.665,0,0,0-.4-.452c-2.051-2.218-4.127-4.442-6.207-6.647-2.1-2.2-4.17-4.394-6.34-6.549a9.638,9.638,0,0,0-1.871-1.406,4.336,4.336,0,0,0-1.116-.447,1.959,1.959,0,0,0-1.25.069,1.584,1.584,0,0,0-.816.935,3.471,3.471,0,0,0-.184,1.163,8.266,8.266,0,0,0,.349,2.26,9.74,9.74,0,0,1-.134-2.249,3.247,3.247,0,0,1,.252-1.056,1.231,1.231,0,0,1,.688-.687,2.414,2.414,0,0,1,1.955.452,9.107,9.107,0,0,1,1.692,1.409c2.032,2.223,4.11,4.457,6.191,6.659,2.1,2.195,4.18,4.394,6.359,6.527a10.934,10.934,0,0,1,1.367,1.739c.43.621.843,1.256,1.261,1.887Z" transform="translate(-139.809 -48.427)" fill="#263238"/>
        <path id="Trazado_809578" data-name="Trazado 809578" d="M223.967,126.483s-3.815-14.7-6-16.581-13.588-15.187-15.479-15.477-3.257,2.633-.706,7.718,9.248,14.135,9.508,14.788,2.5,12.281,2.932,13.372,9.747-3.82,9.747-3.82" transform="translate(-142.912 -50.094)" fill="#ffbe9d"/>
        <path id="Trazado_809579" data-name="Trazado 809579" d="M224.154,118.57c-.922-1.619-1.906-3.2-2.891-4.782-.506-.782-1.019-1.562-1.548-2.332-.265-.385-.536-.767-.819-1.145a10.387,10.387,0,0,0-.935-1.08q-3.833-4.05-7.715-8.071l-3.908-3.991-.989-.988a11.627,11.627,0,0,0-1.059-.971,5.755,5.755,0,0,0-1.264-.769,2.535,2.535,0,0,0-1.563-.2,1.464,1.464,0,0,0-.739.443,1.906,1.906,0,0,0-.387.714,4.284,4.284,0,0,0-.14,1.475,12.6,12.6,0,0,0,.532,2.786,16.187,16.187,0,0,0,2.519,4.992,17.282,17.282,0,0,1-2.143-5.092,12.768,12.768,0,0,1-.4-2.7,3.788,3.788,0,0,1,.167-1.282,1.01,1.01,0,0,1,.737-.738,1.928,1.928,0,0,1,1.15.218,5.593,5.593,0,0,1,1.1.707c.669.559,1.294,1.285,1.944,1.941l3.872,4.021c2.595,2.67,5.183,5.343,7.837,7.963a9.874,9.874,0,0,1,.933.992c.29.355.573.72.851,1.091.556.741,1.1,1.5,1.635,2.253Z" transform="translate(-143.007 -49.976)" fill="#263238"/>
        <path id="Trazado_809580" data-name="Trazado 809580" d="M220.774,133.606s-6.3-11.99-8.338-13.743-9.251-11.323-11.011-11.593-3.032,2.452-.657,7.185,5.21,10.344,5.453,10.951,3.971,10.229,4.376,11.244,10.176-4.045,10.176-4.045" transform="translate(-139.289 -57.442)" fill="#ffbe9d"/>
        <path id="Trazado_809581" data-name="Trazado 809581" d="M221.941,129.288c-1.247-2.048-2.528-4.074-3.8-6.105q-.953-1.525-1.935-3.032l-.494-.754a7.265,7.265,0,0,0-.554-.738c-.388-.467-.79-.914-1.2-1.359-1.63-1.769-3.295-3.5-5.022-5.17-.863-.836-1.732-1.665-2.624-2.476-.445-.406-.9-.807-1.358-1.2a11.226,11.226,0,0,0-1.5-1.122,1.517,1.517,0,0,0-1.154-.166,1.543,1.543,0,0,0-.876.757,4.431,4.431,0,0,0-.483,1.9,7.767,7.767,0,0,0,.683,3.682c1.019,2.187,2.081,4.327,3.139,6.48,1.058,2.138,2.138,4.321,3.212,6.408.488,1.08.947,2.192,1.413,3.295.481,1.1.958,2.2,1.474,3.285-.681-2.307-1.433-4.571-2.26-6.841l-3.168-6.473c-1.037-2.155-2.088-4.316-3.075-6.482a7.119,7.119,0,0,1-.636-3.31,3.723,3.723,0,0,1,.369-1.561A.654.654,0,0,1,203.1,108a10.964,10.964,0,0,1,1.38,1.024c.456.379.9.772,1.348,1.17.889.8,1.762,1.614,2.627,2.439,1.721,1.66,3.452,3.317,5.106,5.042.413.431.823.866,1.212,1.31a13.916,13.916,0,0,1,1.052,1.421l2.033,2.964Z" transform="translate(-141.146 -56.838)" fill="#263238"/>
        <path id="Trazado_809582" data-name="Trazado 809582" d="M180.5,141.994a18.983,18.983,0,0,1-4.3-3.146l-.748-.776-1.5-1.546c-5.581-5.754-12.609-12.686-18.056-18.511a113.747,113.747,0,0,0,11.352,13.015c2.028,2.043,4.084,4.057,6.193,6.017,1.066.98,2.084,1.957,3.228,2.9a21.474,21.474,0,0,0,3.831,2.047" transform="translate(-78.57 -62.622)" fill="#263238"/>
        <path id="Trazado_809583" data-name="Trazado 809583" d="M197.286,199.563A28.915,28.915,0,0,1,186.45,191.4c-2.655-3.712-4.5-7.987-6.467-12.1l-3.8-8.412q1.374,4.417,3.132,8.7c1.8,4.273,3.649,8.594,6.437,12.35a24.561,24.561,0,0,0,11.538,7.624" transform="translate(-104.871 -90.677)" fill="#263238"/>
        <path id="Trazado_809584" data-name="Trazado 809584" d="M190.136,213.9c7.84,1.165,25.633-3.261,51.214-21.508,3.54-2.525-5.96-31.391-9.879-28.889-4.936,3.151-32.454,20.053-33.682,21.2-10.358,9.642-12.972,28.411-7.654,29.2" transform="translate(-155.004 -86.68)" fill="#ffbe9d"/>
        <path id="Trazado_809585" data-name="Trazado 809585" d="M287.973,203.9a23.866,23.866,0,0,0-4.571,3.807c-.674.721-1.332,1.459-1.935,2.238a19.944,19.944,0,0,0-1.636,2.484,48.841,48.841,0,0,0-2.632,5.315,38.3,38.3,0,0,0-1.953,5.654c.765-1.828,1.627-3.594,2.508-5.349s1.806-3.482,2.794-5.163a26.433,26.433,0,0,1,1.59-2.427c.594-.77,1.194-1.536,1.825-2.277a49.874,49.874,0,0,1,4.009-4.283" transform="translate(-242.057 -108.196)" fill="#263238"/>
        <path id="Trazado_809586" data-name="Trazado 809586" d="M158.48,151.146c-4.567,4.928-12.028,7.862-12.028,7.862l-9.932-27.5s11.643-10.016,14.876-13.7c.939-1.07,6.084-6.471,10.741-12.028,5.285-6.308,11.633-12.248,12.619-12.378,1.895-.251,3.258,2.631.7,7.715s-9.247,14.14-9.505,14.788a4.669,4.669,0,0,0-.127.688l0,.008c.046.306,5.168,6.555,4.232,10.086-.953,3.6-8.427,21.052-11.584,24.459" transform="translate(-65.831 -49.553)" fill="#ffbe9d"/>
        <path id="Trazado_809587" data-name="Trazado 809587" d="M128.1,122.077s3.427-13.423,5.614-15.306S147.3,91.584,149.189,91.294s3.257,2.634.706,7.718-9.248,14.135-9.508,14.788-1.311,12.805-1.747,13.9-10.544-5.62-10.544-5.62" transform="translate(-36.309 -48.433)" fill="#ffbe9d"/>
        <path id="Trazado_809588" data-name="Trazado 809588" d="M127.778,114.241c.691-1.353,1.438-2.674,2.179-4q.57-.986,1.171-1.958c.2-.323.4-.646.62-.966.1-.161.223-.319.337-.478a5.668,5.668,0,0,1,.4-.452c2.051-2.218,4.127-4.442,6.207-6.647,2.1-2.2,4.17-4.394,6.34-6.549a9.657,9.657,0,0,1,1.871-1.406,4.336,4.336,0,0,1,1.116-.447,1.959,1.959,0,0,1,1.25.069,1.584,1.584,0,0,1,.816.935,3.471,3.471,0,0,1,.184,1.163,8.265,8.265,0,0,1-.349,2.26,9.739,9.739,0,0,0,.134-2.249,3.247,3.247,0,0,0-.252-1.056,1.231,1.231,0,0,0-.688-.687,2.414,2.414,0,0,0-1.955.452,9.106,9.106,0,0,0-1.692,1.409c-2.032,2.223-4.11,4.457-6.191,6.659-2.1,2.195-4.18,4.394-6.359,6.527a10.935,10.935,0,0,0-1.367,1.739c-.43.621-.842,1.256-1.261,1.887Z" transform="translate(-35.134 -48.429)" fill="#263238"/>
        <path id="Trazado_809589" data-name="Trazado 809589" d="M124.078,126.489s3.815-14.7,6-16.581,13.588-15.187,15.479-15.477,3.257,2.634.706,7.718-9.248,14.135-9.508,14.788-2.5,12.281-2.932,13.372-9.747-3.82-9.747-3.82" transform="translate(-30.794 -50.097)" fill="#ffbe9d"/>
        <path id="Trazado_809590" data-name="Trazado 809590" d="M123.458,118.575c.922-1.619,1.906-3.2,2.891-4.782.506-.782,1.019-1.562,1.548-2.332.265-.385.536-.767.819-1.145a10.431,10.431,0,0,1,.935-1.08q3.833-4.05,7.715-8.071l3.908-3.991.989-.988a11.563,11.563,0,0,1,1.059-.971,5.754,5.754,0,0,1,1.264-.769,2.534,2.534,0,0,1,1.563-.2,1.465,1.465,0,0,1,.739.444,1.9,1.9,0,0,1,.387.714,4.285,4.285,0,0,1,.14,1.475,12.6,12.6,0,0,1-.532,2.786,16.187,16.187,0,0,1-2.519,4.992,17.283,17.283,0,0,0,2.143-5.092,12.768,12.768,0,0,0,.4-2.7,3.789,3.789,0,0,0-.167-1.282,1.011,1.011,0,0,0-.737-.738,1.928,1.928,0,0,0-1.15.218,5.593,5.593,0,0,0-1.1.707c-.669.559-1.294,1.285-1.944,1.941l-3.872,4.021c-2.595,2.671-5.183,5.343-7.837,7.963a9.875,9.875,0,0,0-.933.992c-.29.355-.573.72-.851,1.091-.556.741-1.1,1.5-1.635,2.254Z" transform="translate(-30.265 -49.978)" fill="#263238"/>
        <path id="Trazado_809591" data-name="Trazado 809591" d="M129.845,133.612s6.3-11.99,8.338-13.743,9.251-11.323,11.011-11.593,3.032,2.452.657,7.185-5.21,10.344-5.453,10.951-3.971,10.229-4.376,11.244-10.176-4.045-10.176-4.045" transform="translate(-36.99 -57.445)" fill="#ffbe9d"/>
        <path id="Trazado_809592" data-name="Trazado 809592" d="M129.019,129.294c1.247-2.047,2.528-4.074,3.8-6.105q.953-1.525,1.935-3.032l.494-.754a7.268,7.268,0,0,1,.554-.738c.388-.467.79-.914,1.2-1.359,1.63-1.769,3.295-3.5,5.022-5.17.863-.836,1.732-1.665,2.623-2.476.445-.406.9-.807,1.358-1.2a11.229,11.229,0,0,1,1.5-1.122,1.517,1.517,0,0,1,1.154-.166,1.543,1.543,0,0,1,.876.757,4.43,4.43,0,0,1,.483,1.9,7.767,7.767,0,0,1-.683,3.682c-1.019,2.187-2.081,4.327-3.139,6.48-1.058,2.138-2.138,4.321-3.212,6.408-.488,1.08-.947,2.192-1.413,3.295-.481,1.1-.958,2.2-1.474,3.285.681-2.307,1.433-4.571,2.26-6.841l3.168-6.473c1.037-2.155,2.088-4.316,3.075-6.482a7.119,7.119,0,0,0,.636-3.31,3.73,3.73,0,0,0-.369-1.561.654.654,0,0,0-1.006-.308,10.963,10.963,0,0,0-1.38,1.024c-.456.379-.9.772-1.348,1.17-.889.8-1.762,1.614-2.627,2.439-1.721,1.66-3.453,3.316-5.106,5.041-.413.431-.823.866-1.212,1.31a13.916,13.916,0,0,0-1.052,1.421l-2.033,2.964Z" transform="translate(-35.475 -56.841)" fill="#263238"/>
        <path id="Trazado_809593" data-name="Trazado 809593" d="M169.225,139.995c-3.8,7.988-7.143,16.711-10.78,24.756a70,70,0,0,1-4.523,8.953,27.172,27.172,0,0,1-7.133,6.921,28.49,28.49,0,0,1-5.943,3.115,26.175,26.175,0,0,0,13.768-9.543,61.256,61.256,0,0,0,4.682-9.066c3.679-8.236,6.712-16.719,9.929-25.135" transform="translate(-60.225 -74.285)" fill="#263238"/>
        <path id="Trazado_809594" data-name="Trazado 809594" d="M195.8,123.01q-3.084,3.007-6.042,6.128c-3,3.067-5.737,6.368-8.92,9.242a87.364,87.364,0,0,1-10.165,7.842,50.5,50.5,0,0,0,13.893-10.173c3.9-4.227,7.657-8.541,11.234-13.039" transform="translate(-100.798 -65.273)" fill="#263238"/>
      </g>
    </g>
  </g>
</svg>
