<svg xmlns="http://www.w3.org/2000/svg" xmlns:xlink="http://www.w3.org/1999/xlink" width="400" height="458" viewBox="0 0 400 458">
  <defs>
    <clipPath id="clip-path">
      <rect id="Rectángulo_375420" data-name="Rectángulo 375420" width="361.875" height="411.124" fill="none"/>
    </clipPath>
    <clipPath id="clip-path-6">
      <rect id="Rectángulo_375408" data-name="Rectángulo 375408" width="5.025" height="3.556" fill="none"/>
    </clipPath>
    <clipPath id="clip-path-7">
      <rect id="Rectángulo_375409" data-name="Rectángulo 375409" width="22.912" height="2.42" fill="none"/>
    </clipPath>
    <clipPath id="clip-path-8">
      <rect id="Rectángulo_375410" data-name="Rectángulo 375410" width="16.749" height="2.136" fill="none"/>
    </clipPath>
    <clipPath id="clip-path-9">
      <rect id="Rectángulo_375411" data-name="Rectángulo 375411" width="19.579" height="93.821" fill="none"/>
    </clipPath>
    <clipPath id="clip-path-11">
      <rect id="Rectángulo_375414" data-name="Rectángulo 375414" width="20.989" height="16.61" fill="none"/>
    </clipPath>
    <clipPath id="clip-path-12">
      <rect id="Rectángulo_375415" data-name="Rectángulo 375415" width="13.638" height="10.395" fill="none"/>
    </clipPath>
    <clipPath id="clip-path-13">
      <rect id="Rectángulo_375416" data-name="Rectángulo 375416" width="26.505" height="2.681" fill="none"/>
    </clipPath>
    <clipPath id="clip-path-14">
      <rect id="Rectángulo_375417" data-name="Rectángulo 375417" width="15.85" height="1.997" fill="none"/>
    </clipPath>
    <clipPath id="clip-path-15">
      <rect id="Rectángulo_375418" data-name="Rectángulo 375418" width="36.416" height="40.648" fill="none"/>
    </clipPath>
  </defs>
  <g id="Grupo_1070122" data-name="Grupo 1070122" transform="translate(-1020 -3393)">
    <g id="Grupo_1067360" data-name="Grupo 1067360" transform="translate(1020.041 3393.047)">
      <g id="Grupo_1065354" data-name="Grupo 1065354" transform="translate(8.001 67.152)">
        <g id="Grupo_171324" data-name="Grupo 171324" transform="translate(227.678)">
          <path id="Trazado_207509" data-name="Trazado 207509" d="M2664.145,1357.9a.589.589,0,0,0-.024-.107,87.963,87.963,0,0,0-25.476-39.755c-10.144-9.03-22.623-16-37.09-20.716-25.406-8.281-52.519-7.9-66.96-4.037a.679.679,0,0,0-.5.85.751.751,0,0,0,.915.471c25.407-6.793,106.162-4.328,127.7,63.57a.751.751,0,0,0,.917.468A.685.685,0,0,0,2664.145,1357.9Z" transform="translate(-2534.064 -1290.642)" fill="#f3f9ff"/>
        </g>
        <g id="Grupo_171325" data-name="Grupo 171325" transform="translate(0 79.844)">
          <path id="Trazado_207510" data-name="Trazado 207510" d="M903.885,1604.272a.827.827,0,0,0-.116.025c-17.13,4.981-31.532,13.159-42.807,24.307a91.179,91.179,0,0,0-21.7,34.437c-8.4,23.437-7.289,48.213-2.7,61.315a.766.766,0,0,0,.942.437.668.668,0,0,0,.491-.849c-8.076-23.052-7.449-96.939,66.224-118.362a.667.667,0,0,0,.488-.85A.756.756,0,0,0,903.885,1604.272Z" transform="translate(-833.026 -1604.264)" fill="#f3f9ff"/>
        </g>
      </g>
      <path id="Rectángulo_374328" data-name="Rectángulo 374328" d="M0,0H331a30,30,0,0,1,30,30V242a0,0,0,0,1,0,0H30A30,30,0,0,1,0,212V0A0,0,0,0,1,0,0Z" transform="translate(38.959 215.953)" fill="#92df98"/>
      <path id="Rectángulo_374329" data-name="Rectángulo 374329" d="M0,0H331a30,30,0,0,1,30,30V242a0,0,0,0,1,0,0H30A30,30,0,0,1,0,212V0A0,0,0,0,1,0,0Z" transform="translate(360.959 241.953) rotate(180)" fill="#92df98"/>
      <path id="Rectángulo_374327" data-name="Rectángulo 374327" d="M0,0H337a30,30,0,0,1,30,30V431a0,0,0,0,1,0,0H30A30,30,0,0,1,0,401V0A0,0,0,0,1,0,0Z" transform="translate(15.959 11.953)" fill="#edfdee"/>
    </g>
    <g id="Grupo_1067426" data-name="Grupo 1067426" transform="translate(1058.125 3426.5)">
      <g id="Grupo_1067425" data-name="Grupo 1067425" transform="translate(0 0)" clip-path="url(#clip-path)">
        <rect id="Rectángulo_375380" data-name="Rectángulo 375380" width="283.623" height="188.131" transform="translate(17.289)" fill="#e0e0e0"/>
        <g id="Grupo_1067368" data-name="Grupo 1067368">
          <g id="Grupo_1067367" data-name="Grupo 1067367" clip-path="url(#clip-path)">
            <path id="Trazado_808329" data-name="Trazado 808329" d="M18.927,384.032c-1.186-1.017-3.833-4.24-1.792-7.99.748-1.374,2.338-2.054,3.775-2.659a15.332,15.332,0,0,0,4.14-2.144c2.245-1.91,2.864-5.081,4.353-7.629,1.711-2.924,4.9-5.115,8.276-4.962,3.862.175,7.083,3.331,8.544,6.927s1.511,7.59,1.542,11.474c.016,2.147-.079,4.568-1.656,6.019-1.454,1.337-3.643,1.354-5.613,1.293l-21.107-.648" transform="translate(0.906 19.836)" fill="#f5f5f5"/>
            <path id="Trazado_808330" data-name="Trazado 808330" d="M59.957,327.7H4.449l10,59.621a6.66,6.66,0,0,0,4.739,5.308c.063.02.13.035.194.053.166.042.325.1.494.128a6.865,6.865,0,0,0,1.129.13l.009.057.27-.042H46.025a6.955,6.955,0,0,0,1.359-.136A6.683,6.683,0,0,0,53,386.994l4.821-41.08.217-1.634h-.026l1.909-16.269ZM49.485,365.734h-5.7l.575-17.3h6.6Zm2.031-17.3h5.454l-2.03,17.3h-4.9ZM35.243,384.915,34.9,369.884h8.2l-.5,15.032Zm-8.869-15.032h7.971l.346,15.032H27.542Zm.616,15.032H20.308c-.635-4.059-1.462-9.333-2.357-15.032h7.87Zm-.938-19.181-1.346-17.3h9.144l.4,17.3Zm8.749,0-.4-17.3h9.409l-.574,17.3Zm-.494-21.453-.369-16.025H44.482l-.532,16.025Zm-.551,0H24.385L23.14,328.256H33.387Zm-9.923,0H13.917c-.35-2.213-.684-4.308-.985-6.193-1.034-6.479-1.423-8.915-1.638-9.832H22.587Zm.322,4.15,1.344,17.3H17.3c-.276-1.756-.555-3.532-.835-5.309-.643-4.085-1.286-8.168-1.891-11.995Zm-7.412,17.3H11.387l-2.9-17.3h5.532c.845,5.347,1.782,11.3,2.726,17.3m.652,4.15c.817,5.2,1.62,10.33,2.355,15.032H14.6l-2.521-15.032Zm25.758,15.032.5-15.032h5.479l-1.284,15.032Zm1.35-40.635.532-16.025h7.653l-1.369,16.025ZM10.769,328.256c.22,1.159,1.233,7.464,2.591,16.025H7.788L5.1,328.256Zm41.92,56.66H48.4l1.284-15.032h4.77Zm4.768-40.635H51.871l1.369-16.025h6.1Z" transform="translate(0.246 18.125)" fill="#e0e0e0"/>
          </g>
        </g>
        <g id="Grupo_1067370" data-name="Grupo 1067370">
          <g id="Grupo_1067369" data-name="Grupo 1067369" clip-path="url(#clip-path)">
            <path id="Trazado_808331" data-name="Trazado 808331" d="M361.875,388.635c0,.152-81.015.274-180.929.274C81,388.91,0,388.787,0,388.635s81-.274,180.946-.274c99.914,0,180.929.122,180.929.274" transform="translate(0 21.48)" fill="#263238"/>
          </g>
        </g>
        <rect id="Rectángulo_375383" data-name="Rectángulo 375383" width="293.723" height="192.657" transform="translate(0.286 4.723)" fill="#fafafa"/>
        <g id="Grupo_1067393" data-name="Grupo 1067393">
          <g id="Grupo_1067392" data-name="Grupo 1067392" clip-path="url(#clip-path)">
            <path id="Trazado_808332" data-name="Trazado 808332" d="M294.009,197.147c0-1.855-.089-75.154-.228-192.657l.228.227L.309,4.776H.286L.572,4.49C.564,73,.556,138.206.549,197.147l-.263-.263,293.723.263L.286,197.41H.023v-.263C.016,138.206.008,73,0,4.49V4.2H.309l293.7.058h.228V4.49c-.139,117.5-.226,190.8-.228,192.657" transform="translate(0 0.233)" fill="#263238"/>
            <path id="Trazado_808333" data-name="Trazado 808333" d="M85.341,105.289l28.89.4c-.221,15.4-13.193,27.945-28.89,27.945h-.17Z" transform="translate(4.711 5.823)" fill="#455a64"/>
            <path id="Trazado_808334" data-name="Trazado 808334" d="M132.577,143.509a2.927,2.927,0,0,1-.617.05l-1.767.046-6.455.075h-.081l-.053-.066-9.53-12.007-7.683-9.8.149.072-8.5-.079-2.378-.052a4.587,4.587,0,0,1-.841-.059,4.666,4.666,0,0,1,.841-.058l2.378-.052,8.5-.079h.091l.058.073c2.246,2.835,4.9,6.18,7.733,9.757,3.6,4.595,6.894,8.807,9.45,12.071l-.134-.065,6.455.075,1.767.046a2.928,2.928,0,0,1,.617.05" transform="translate(5.244 6.72)" fill="#263238"/>
            <path id="Trazado_808335" data-name="Trazado 808335" d="M141.4,145.524c0,.122-4.185.222-9.347.222s-9.348-.1-9.348-.222,4.184-.222,9.348-.222,9.347.1,9.347.222" transform="translate(6.787 8.037)" fill="#263238"/>
            <path id="Trazado_808336" data-name="Trazado 808336" d="M141.4,148.8c0,.122-4.185.222-9.347.222s-9.348-.1-9.348-.222,4.184-.222,9.348-.222,9.347.1,9.347.222" transform="translate(6.787 8.218)" fill="#263238"/>
            <path id="Trazado_808337" data-name="Trazado 808337" d="M82.516,102.878l-.405,28.339c-15.7-.216-28.488-12.941-28.488-28.339,0-15.548,13.044-28.342,28.893-28.342s28.893,12.795,28.893,28.342Z" transform="translate(2.966 4.123)" fill="#1969d5"/>
            <path id="Trazado_808338" data-name="Trazado 808338" d="M71.68,93.537a1.823,1.823,0,0,1-.5.117l-1.437.23-5.19.728-.085.012-.064-.062L57.48,87.827c-3.325-3.262-6.318-6.233-8.469-8.4l-2.532-2.581a7.645,7.645,0,0,1-.885-.99,7.556,7.556,0,0,1,1.007.866l2.629,2.481c2.208,2.109,5.234,5.043,8.561,8.305,2.546,2.519,4.906,4.854,6.866,6.792l-.15-.051,5.21-.574,1.449-.132a1.833,1.833,0,0,1,.515-.01" transform="translate(2.522 4.196)" fill="#263238"/>
            <path id="Trazado_808339" data-name="Trazado 808339" d="M39.64,74.688c0,.122-4.185.222-9.347.222s-9.348-.1-9.348-.222,4.184-.222,9.348-.222,9.347.1,9.347.222" transform="translate(1.158 4.119)" fill="#263238"/>
            <path id="Trazado_808340" data-name="Trazado 808340" d="M39.64,77.968c0,.122-4.185.222-9.347.222s-9.348-.1-9.348-.222,4.184-.222,9.348-.222,9.347.1,9.347.222" transform="translate(1.158 4.3)" fill="#263238"/>
            <path id="Trazado_808341" data-name="Trazado 808341" d="M177.921,49.26l-.115-17.611a22.47,22.47,0,0,0-14.528,5.665,20.827,20.827,0,0,0-7,18.239,24.9,24.9,0,0,0,.411,2.559c.005.021.007.041.012.062h0l21.22-4.775Z" transform="translate(8.636 1.75)" fill="#92df98"/>
            <path id="Trazado_808343" data-name="Trazado 808343" d="M198.532,43.834A20.893,20.893,0,0,0,181.4,31.844q-.332-.033-.672-.059c-.142-.011-.283-.024-.427-.033q-.63-.033-1.278-.037h-.061l-.054,0v0l.115,17.612.027,4.138L200.281,58.1l.025.005a20.932,20.932,0,0,0,.472-4.566,22.863,22.863,0,0,0-2.246-9.7" transform="translate(9.896 1.754)" fill="#288640"/>
            <path id="Trazado_808345" data-name="Trazado 808345" d="M178.969,54.341l-21.22,4.775a21.751,21.751,0,0,0,42.474-.144L179,54.342" transform="translate(8.725 3.006)" fill="#74c67b"/>
            <path id="Trazado_808346" data-name="Trazado 808346" d="M258.7,51.352c0,.158-10.972.286-24.5.286s-24.505-.128-24.505-.286,10.969-.286,24.505-.286,24.5.128,24.5.286" transform="translate(11.598 2.824)" fill="#263238"/>
            <path id="Trazado_808347" data-name="Trazado 808347" d="M258.7,46.059c0,.158-10.972.286-24.5.286s-24.505-.128-24.505-.286,10.969-.286,24.505-.286,24.5.128,24.5.286" transform="translate(11.598 2.532)" fill="#263238"/>
            <path id="Trazado_808348" data-name="Trazado 808348" d="M258.7,40.765c0,.158-10.972.286-24.5.286s-24.505-.128-24.505-.286,10.969-.286,24.505-.286,24.5.128,24.5.286" transform="translate(11.598 2.239)" fill="#263238"/>
            <path id="Trazado_808349" data-name="Trazado 808349" d="M258.7,56.277c0,.158-10.972.286-24.5.286s-24.505-.128-24.505-.286,10.969-.286,24.505-.286,24.5.128,24.5.286" transform="translate(11.598 3.097)" fill="#263238"/>
            <path id="Trazado_808350" data-name="Trazado 808350" d="M243.514,61.636c0,.159-7.536.287-16.829.287s-16.831-.128-16.831-.287,7.534-.286,16.831-.286,16.829.128,16.829.286" transform="translate(11.607 3.393)" fill="#263238"/>
            <rect id="Rectángulo_375386" data-name="Rectángulo 375386" width="5.048" height="56.375" transform="translate(169.894 105.466)" fill="#1969d5"/>
            <rect id="Rectángulo_375387" data-name="Rectángulo 375387" width="5.048" height="37.227" transform="translate(179.64 124.613)" fill="#74c67b"/>
            <rect id="Rectángulo_375388" data-name="Rectángulo 375388" width="5.048" height="49.653" transform="translate(189.385 112.473)" fill="#1969d5"/>
            <rect id="Rectángulo_375389" data-name="Rectángulo 375389" width="5.048" height="54.198" transform="translate(199.131 107.643)" fill="#74c67b"/>
            <rect id="Rectángulo_375390" data-name="Rectángulo 375390" width="5.048" height="36.081" transform="translate(208.875 125.759)" fill="#1969d5"/>
            <rect id="Rectángulo_375391" data-name="Rectángulo 375391" width="5.048" height="29.005" transform="translate(218.621 132.835)" fill="#74c67b"/>
            <rect id="Rectángulo_375392" data-name="Rectángulo 375392" width="5.048" height="50.588" transform="translate(228.366 111.252)" fill="#1969d5"/>
            <rect id="Rectángulo_375393" data-name="Rectángulo 375393" width="5.048" height="41.467" transform="translate(238.112 120.373)" fill="#74c67b"/>
            <rect id="Rectángulo_375394" data-name="Rectángulo 375394" width="5.048" height="48.756" transform="translate(247.857 113.084)" fill="#1969d5"/>
            <rect id="Rectángulo_375395" data-name="Rectángulo 375395" width="5.048" height="33.217" transform="translate(257.602 128.623)" fill="#74c67b"/>
            <rect id="Rectángulo_375396" data-name="Rectángulo 375396" width="5.048" height="39.537" transform="translate(267.348 122.303)" fill="#1969d5"/>
            <path id="Trazado_808351" data-name="Trazado 808351" d="M265.676,157.089c0,.115-23.944.208-53.474.208s-53.478-.093-53.478-.208,23.939-.207,53.478-.207,53.474.093,53.474.207" transform="translate(8.779 8.677)" fill="#263238"/>
            <path id="Trazado_808352" data-name="Trazado 808352" d="M168.206,161.294a17.154,17.154,0,0,1-3.745.207,17.16,17.16,0,0,1-3.746-.207,17.041,17.041,0,0,1,3.746-.208,17.035,17.035,0,0,1,3.745.208" transform="translate(8.889 8.91)" fill="#263238"/>
            <path id="Trazado_808353" data-name="Trazado 808353" d="M180.056,161.508a24.436,24.436,0,0,1-4.477.207,24.434,24.434,0,0,1-4.478-.207,24.267,24.267,0,0,1,4.478-.208,24.27,24.27,0,0,1,4.477.208" transform="translate(9.464 8.921)" fill="#263238"/>
            <path id="Trazado_808354" data-name="Trazado 808354" d="M190.1,161.508a24.427,24.427,0,0,1-4.477.207,24.434,24.434,0,0,1-4.478-.207,24.267,24.267,0,0,1,4.478-.208,24.26,24.26,0,0,1,4.477.208" transform="translate(10.019 8.921)" fill="#263238"/>
            <path id="Trazado_808355" data-name="Trazado 808355" d="M200.142,161.508a24.426,24.426,0,0,1-4.477.207,24.434,24.434,0,0,1-4.478-.207,24.268,24.268,0,0,1,4.478-.208,24.26,24.26,0,0,1,4.477.208" transform="translate(10.574 8.921)" fill="#263238"/>
            <path id="Trazado_808356" data-name="Trazado 808356" d="M210.185,161.508a24.436,24.436,0,0,1-4.477.207,24.434,24.434,0,0,1-4.478-.207,24.267,24.267,0,0,1,4.478-.208,24.27,24.27,0,0,1,4.477.208" transform="translate(11.13 8.921)" fill="#263238"/>
            <path id="Trazado_808357" data-name="Trazado 808357" d="M220.228,161.508a24.427,24.427,0,0,1-4.477.207,24.434,24.434,0,0,1-4.478-.207,24.267,24.267,0,0,1,4.478-.208,24.26,24.26,0,0,1,4.477.208" transform="translate(11.685 8.921)" fill="#263238"/>
            <path id="Trazado_808358" data-name="Trazado 808358" d="M230.272,161.508a48.556,48.556,0,0,1-8.954,0,48.319,48.319,0,0,1,8.954,0" transform="translate(12.241 8.921)" fill="#263238"/>
            <path id="Trazado_808359" data-name="Trazado 808359" d="M240.315,161.508a48.557,48.557,0,0,1-8.954,0,48.319,48.319,0,0,1,8.954,0" transform="translate(12.796 8.921)" fill="#263238"/>
            <path id="Trazado_808360" data-name="Trazado 808360" d="M250.358,161.508a48.557,48.557,0,0,1-8.954,0,48.319,48.319,0,0,1,8.954,0" transform="translate(13.352 8.921)" fill="#263238"/>
            <path id="Trazado_808361" data-name="Trazado 808361" d="M260.4,161.508a48.556,48.556,0,0,1-8.954,0,48.319,48.319,0,0,1,8.954,0" transform="translate(13.907 8.921)" fill="#263238"/>
            <path id="Trazado_808362" data-name="Trazado 808362" d="M34.6,39.043a4.859,4.859,0,1,1-4.859-4.859A4.858,4.858,0,0,1,34.6,39.043" transform="translate(1.376 1.891)" fill="#1969d5"/>
            <path id="Trazado_808363" data-name="Trazado 808363" d="M117.079,35.171c0,.158-16.383.286-36.588.286S43.9,35.329,43.9,35.171s16.379-.286,36.591-.286,36.588.128,36.588.286" transform="translate(2.428 1.929)" fill="#1969d5"/>
            <path id="Trazado_808364" data-name="Trazado 808364" d="M73.252,40.739a4.4,4.4,0,0,1-1.133.111c-.73.035-1.786.065-3.091.092-2.61.052-6.215.083-10.2.083s-7.59-.032-10.2-.083c-1.3-.026-2.361-.057-3.09-.092a4.391,4.391,0,0,1-1.133-.111,4.415,4.415,0,0,1,1.133-.112c.729-.034,1.786-.064,3.09-.091,2.61-.052,6.216-.083,10.2-.083s7.587.032,10.2.083c1.305.026,2.361.057,3.091.091a4.424,4.424,0,0,1,1.133.112" transform="translate(2.456 2.237)" fill="#1969d5"/>
          </g>
        </g>
        <g id="Grupo_1067407" data-name="Grupo 1067407">
          <g id="Grupo_1067406" data-name="Grupo 1067406" clip-path="url(#clip-path)">
            <path id="Trazado_808365" data-name="Trazado 808365" d="M300.549,155.911c3.388-5.686,4.375-13.269,5.246-19.83.409-3.088,1.128-7.483-1.038-9.422-2.321-2.077-2.536-5.268-5.2-6.873a8.214,8.214,0,0,0-8.822.073" transform="translate(16.08 6.556)" fill="#263238"/>
            <path id="Trazado_808366" data-name="Trazado 808366" d="M292.1,175.893h0a9.139,9.139,0,0,1-9.831-8.763c-.191-4.975-.358-10-.358-10s-7.539-.706-8.086-8.166-.3-24.685-.3-24.685a26,26,0,0,1,26.274,1.69l-.464,26.257v14.126c-.051,4.738-2.513,9.182-7.237,9.545" transform="translate(15.126 6.72)" fill="#ffbe9d"/>
            <path id="Trazado_808367" data-name="Trazado 808367" d="M281.594,140.179a3.823,3.823,0,0,1,5.1-1.113,4.335,4.335,0,0,1,1.444,5.422,5.715,5.715,0,0,1-3.659,2.768,2.863,2.863,0,0,0-2.244,3.085c.214,1.872,3.328,2.576,4.736,4.125,2.186,2.411,6.986,3.432,10.217,3.814,3.179.376,2.793.406,4.643-2.206a10.025,10.025,0,0,0,1.815-6.056q.171-8.252.341-16.5a23.6,23.6,0,0,0-.377-5.921,7.946,7.946,0,0,0-3.122-4.9c-1.815-1.195-4.115-1.3-6.181-1.965-2.583-.835-4.78-2.55-7.2-3.786s-5.381-1.976-7.809-.758c-1.742.875-2.908,2.614-4.6,3.578-2.411,1.372-5.694,1.061-6.867,4.606a6.013,6.013,0,0,0,.04,3.794c1.637,4.827,7.614,6.773,11.919,4.687.085.818-.72,2.637.142,5.22.274.825.371,2.084,1.662,2.107" transform="translate(14.798 6.392)" fill="#263238"/>
            <path id="Trazado_808368" data-name="Trazado 808368" d="M282.123,143.492c.057-.047.311.395.932.356a1.734,1.734,0,0,0,1.4-1.7,1.864,1.864,0,0,0-1.28-1.856c-.614-.227-1.054-.111-1.073-.2-.033-.051.409-.337,1.181-.176a2.234,2.234,0,0,1,1.171.672,2.164,2.164,0,0,1,.551,1.585,2.06,2.06,0,0,1-1.942,2.064,1.119,1.119,0,0,1-.835-.419c-.132-.183-.132-.313-.1-.325" transform="translate(15.602 7.736)" fill="#eb996e"/>
            <path id="Trazado_808369" data-name="Trazado 808369" d="M289.48,122.068c-.018-.016.161-.286.625-.632a5,5,0,0,1,2.266-.881,6.53,6.53,0,0,1,3.571.543,8.182,8.182,0,0,1,3.292,2.943,16.7,16.7,0,0,1,2.317,7.554,19.5,19.5,0,0,1,.2,3.258,18.879,18.879,0,0,1-.583-3.208,18.036,18.036,0,0,0-2.389-7.3,7.958,7.958,0,0,0-3.051-2.789,5.99,5.99,0,0,0-6.245.512" transform="translate(16.011 6.665)" fill="#455a64"/>
            <path id="Trazado_808370" data-name="Trazado 808370" d="M269.687,129.783c0,.016-.1.019-.283-.021a2.151,2.151,0,0,1-.744-.335,2.7,2.7,0,0,1-.865-.973,2.481,2.481,0,0,1-.233-1.728,2.828,2.828,0,0,1,1.209-1.741,4.055,4.055,0,0,1,2.36-.463,3.254,3.254,0,0,0,2.252-.57,16.338,16.338,0,0,0,1.824-1.966,9.3,9.3,0,0,1,4.645-2.682,9.87,9.87,0,0,1,4.378-.1,8.453,8.453,0,0,1,2.75,1.056,3.2,3.2,0,0,1,.853.659,12.851,12.851,0,0,0-3.673-1.333,9.944,9.944,0,0,0-4.183.206,9.04,9.04,0,0,0-4.366,2.562,15.553,15.553,0,0,1-1.9,2.026,3.074,3.074,0,0,1-1.284.576,6.1,6.1,0,0,1-1.3.069,3.675,3.675,0,0,0-2.111.342,2.458,2.458,0,0,0-1.075,1.448,2.4,2.4,0,0,0,.851,2.437,5.859,5.859,0,0,0,.9.528" transform="translate(14.795 6.582)" fill="#455a64"/>
            <path id="Trazado_808371" data-name="Trazado 808371" d="M288.841,150.11c-.018-.045.376-.184.986-.594a6.169,6.169,0,0,0,2.035-2.269,5.746,5.746,0,0,0-1.013-6.615,10.773,10.773,0,0,0-2.331-1.705c-.872-.507-1.759-.977-2.57-1.53a8.692,8.692,0,0,1-2.065-1.945,9.016,9.016,0,0,1-1.746-4.416,8.185,8.185,0,0,1,.244-3.189,4.8,4.8,0,0,1,.3-.815c.083-.182.135-.27.152-.264a11.066,11.066,0,0,0-.308,4.217,8.929,8.929,0,0,0,1.762,4.158,8.34,8.34,0,0,0,1.966,1.81c.781.523,1.656.985,2.543,1.5a11.054,11.054,0,0,1,2.441,1.8,6.068,6.068,0,0,1,1.452,2.467,5.944,5.944,0,0,1-2.748,6.976,2.656,2.656,0,0,1-1.1.412" transform="translate(15.602 7.011)" fill="#455a64"/>
            <path id="Trazado_808372" data-name="Trazado 808372" d="M301.67,139.2a3.352,3.352,0,0,1-.96.214,13.929,13.929,0,0,1-2.683.081,16.614,16.614,0,0,1-8.323-2.861c-2.882-1.954-4.878-4.62-5.459-6.869a5.675,5.675,0,0,1-.112-2.7,2.159,2.159,0,0,1,.37-.918,6.6,6.6,0,0,0,.114,3.513,13.54,13.54,0,0,0,5.4,6.523,17.48,17.48,0,0,0,8.046,2.928c2.214.242,3.6-.021,3.611.092" transform="translate(15.709 6.977)" fill="#455a64"/>
            <path id="Trazado_808373" data-name="Trazado 808373" d="M301.93,133.916a13.171,13.171,0,0,1,10.284-4.659c3.888.218,7.681,2.905,8.629,6.681.716,2.843-.157,5.807-.526,8.715s-.012,6.308,2.361,8.03c1.431,1.037,3.28,1.227,5,1.645s3.552,1.277,4.141,2.942c.676,1.91-.711,4.08-2.57,4.887a9.456,9.456,0,0,1-5.969.082,5,5,0,0,1-2.212,5.98,6.611,6.611,0,0,1-6.627-.278,9.89,9.89,0,0,1-4.048-5.487c-1.276,2.247-4.635,2.72-6.786,1.29a7.114,7.114,0,0,1-2.744-6.822A13.293,13.293,0,0,1,304.3,150.1a16.9,16.9,0,0,0,2.4-3.058,3.9,3.9,0,0,0,.15-3.727,2.255,2.255,0,0,0-3.32-.667" transform="translate(16.637 7.148)" fill="#263238"/>
            <path id="Trazado_808374" data-name="Trazado 808374" d="M306.416,141.636a2.571,2.571,0,0,1-2.243-.026,5.4,5.4,0,0,1-3.256-4.248,5.558,5.558,0,0,1,.356-3.028,5.772,5.772,0,0,1,1.429-2.025,3.666,3.666,0,0,1,1.962-1.093,17.4,17.4,0,0,0-1.687,1.37,5.52,5.52,0,0,0-1.514,4.692,4.765,4.765,0,0,0,4.954,4.358" transform="translate(16.64 7.257)" fill="#e8505b"/>
            <path id="Trazado_808375" data-name="Trazado 808375" d="M281.664,155.518a3.527,3.527,0,0,1-1.7-.168,9.187,9.187,0,0,1-6.046-5.336,3.51,3.51,0,0,1-.378-1.669,10.788,10.788,0,0,1,.731,1.508,10.538,10.538,0,0,0,5.808,5.126,10.841,10.841,0,0,1,1.587.539" transform="translate(15.128 8.205)" fill="#eb996e"/>
            <path id="Trazado_808376" data-name="Trazado 808376" d="M308.828,162.315c0,.019-.129,0-.365-.054a3.655,3.655,0,0,1-.972-.433,5.3,5.3,0,0,1-2.119-3.224,6.594,6.594,0,0,1-.092-2.712,10.9,10.9,0,0,1,.985-2.936c.94-1.968,2.424-3.836,3.521-6.007a10.649,10.649,0,0,0,1.1-3.321,6.424,6.424,0,0,0-4.144-6.917,6.87,6.87,0,0,0-3.692-.23c-.875.184-1.321.431-1.343.381-.008-.017.1-.085.308-.2a5.272,5.272,0,0,1,.984-.384,6.616,6.616,0,0,1,8,4,6.818,6.818,0,0,1,.421,3.428,11.015,11.015,0,0,1-1.146,3.5c-1.138,2.245-2.627,4.089-3.559,5.985a7.984,7.984,0,0,0-.968,5.338,5.281,5.281,0,0,0,1.863,3.135,9.808,9.808,0,0,0,1.215.662" transform="translate(16.687 7.523)" fill="#455a64"/>
            <path id="Trazado_808377" data-name="Trazado 808377" d="M320.085,167.826a1.53,1.53,0,0,1-.471.027,5.257,5.257,0,0,1-1.332-.238,7.487,7.487,0,0,1-3.885-3.029,11.51,11.51,0,0,1-1.678-7.11c.1-2.79.916-5.739,1.438-8.835a20.689,20.689,0,0,0,.314-4.543,11.708,11.708,0,0,0-.955-4.079,7.438,7.438,0,0,0-5.237-4.371,10.9,10.9,0,0,0-4.8.017c-1.124.251-1.72.5-1.738.453a1.517,1.517,0,0,1,.416-.217,9.2,9.2,0,0,1,1.272-.443,10.506,10.506,0,0,1,4.941-.188,7.9,7.9,0,0,1,3.155,1.417,8.039,8.039,0,0,1,2.456,3.123,12.054,12.054,0,0,1,1.032,4.254,20.683,20.683,0,0,1-.309,4.667c-.533,3.144-1.352,6.053-1.474,8.771a11.294,11.294,0,0,0,1.5,6.871,7.515,7.515,0,0,0,3.629,3.04,11.364,11.364,0,0,0,1.734.414" transform="translate(16.689 7.47)" fill="#455a64"/>
            <path id="Trazado_808378" data-name="Trazado 808378" d="M322.084,198.308l-15.89,12.4,6.669,10.948L332,207.554Z" transform="translate(16.935 10.968)" fill="#ffbe9d"/>
            <path id="Trazado_808379" data-name="Trazado 808379" d="M282.986,159.411s.077-1.325-3.387-1.516a35.445,35.445,0,0,0-3.852-.128s-1.561-2-1.658-3.213a9.647,9.647,0,0,1,.742-3.266l3.507-.323-.952-2.381-2.472.172-6.981.838-2.779,12.223L246.1,197.382a9.181,9.181,0,0,0,3.638,13.369c4.925,2.38,11.526-2.672,13.351-7.83l10.545-39.558,3.709-2.9,5.313-.974" transform="translate(13.526 8.218)" fill="#ffbe9d"/>
            <path id="Trazado_808380" data-name="Trazado 808380" d="M239.815,392.224l25.942-149.237-.037-.01c.055-.221.109-.43.164-.647l.005-.027h0c4.414-17.5,11.22-23.115,11.22-23.115l39.7,2.491c3.375,6.068,3.8,20.625,3.8,20.625.462,1.785-8.388,146.388-8.388,146.388l-13.277-.365-7.2-136.811L253.113,392.792Z" transform="translate(13.264 12.123)" fill="#ffbe9d"/>
            <path id="Trazado_808381" data-name="Trazado 808381" d="M240.007,384.5l.051-1.349,13.657.395-.118,4.446-.844.027c-3.758.093-19.113.227-21.6-.548-2.772-.863,8.854-2.972,8.854-2.972" transform="translate(12.761 21.192)" fill="#727997"/>
            <g id="Grupo_1067396" data-name="Grupo 1067396" transform="translate(261.432 405.443)" opacity="0.6">
              <g id="Grupo_1067395" data-name="Grupo 1067395">
                <g id="Grupo_1067394" data-name="Grupo 1067394" clip-path="url(#clip-path-6)">
                  <path id="Trazado_808382" data-name="Trazado 808382" d="M247.73,387.7a4.365,4.365,0,0,1,1.818-2.649,4.833,4.833,0,0,1,3.206-.833l-.107,3.532Z" transform="translate(-247.73 -384.193)" fill="#fff"/>
                </g>
              </g>
            </g>
            <g id="Grupo_1067399" data-name="Grupo 1067399" transform="translate(243.446 406.905)" opacity="0.6">
              <g id="Grupo_1067398" data-name="Grupo 1067398">
                <g id="Grupo_1067397" data-name="Grupo 1067397" clip-path="url(#clip-path-7)">
                  <path id="Trazado_808383" data-name="Trazado 808383" d="M234.324,385.579s-4.082.977-3.6,1.61,16.008,1.042,22.873.665l-.014-.283-18.11-.333s-.362-1.607-1.152-1.659" transform="translate(-230.687 -385.579)" fill="#fff"/>
                </g>
              </g>
            </g>
            <path id="Trazado_808384" data-name="Trazado 808384" d="M253.8,387.5a1.272,1.272,0,0,1-.234.017l-.672.021-2.475.034c-2.088.015-4.976,0-8.162-.081s-6.071-.215-8.156-.337l-2.468-.16-.67-.055a1.4,1.4,0,0,1-.233-.028,1.293,1.293,0,0,1,.235,0l.672.026,2.471.112c2.085.093,4.968.209,8.154.291s6.069.113,8.158.126l2.474.015.673.008a1.4,1.4,0,0,1,.234.014" transform="translate(12.761 21.399)" fill="#263238"/>
            <path id="Trazado_808385" data-name="Trazado 808385" d="M235.287,387.443a4.981,4.981,0,0,0-.428-1.109,5.32,5.32,0,0,0-.815-.9,1.8,1.8,0,0,1,.958.825,1.606,1.606,0,0,1,.285,1.185" transform="translate(12.945 21.318)" fill="#263238"/>
            <path id="Trazado_808386" data-name="Trazado 808386" d="M239.114,385.7c-.039.022-.225-.2-.414-.5s-.311-.553-.272-.575.224.2.414.5.311.553.272.574" transform="translate(13.187 21.274)" fill="#263238"/>
            <path id="Trazado_808387" data-name="Trazado 808387" d="M240.181,385.2c-.032.031-.242-.108-.471-.31s-.387-.389-.357-.421.243.109.471.31.388.39.357.421" transform="translate(13.238 21.264)" fill="#263238"/>
            <path id="Trazado_808388" data-name="Trazado 808388" d="M240.905,384.051a3.335,3.335,0,1,1-.709-.088,1.714,1.714,0,0,1,.709.088" transform="translate(13.246 21.237)" fill="#263238"/>
            <path id="Trazado_808389" data-name="Trazado 808389" d="M241.166,383.256a1.459,1.459,0,0,1-.8.193,1.478,1.478,0,0,1-.815-.122,4.642,4.642,0,0,1,.806-.031,4.71,4.71,0,0,1,.806-.04" transform="translate(13.25 21.197)" fill="#263238"/>
            <path id="Trazado_808390" data-name="Trazado 808390" d="M238.806,384.65a2.717,2.717,0,0,1-.874-.029,5.466,5.466,0,0,1-.924-.214,2.706,2.706,0,0,1-.526-.218.445.445,0,0,1-.209-.259.31.31,0,0,1,.142-.321,1.674,1.674,0,0,1,1.968.488,1.4,1.4,0,0,1,.268.55c.031.14.026.218.016.221a2.191,2.191,0,0,0-.377-.7,1.582,1.582,0,0,0-.732-.471,1.449,1.449,0,0,0-1.044.039c-.141.092-.092.245.06.335a2.762,2.762,0,0,0,.485.208,6.376,6.376,0,0,0,.893.241c.52.1.854.11.853.135" transform="translate(13.068 21.209)" fill="#263238"/>
            <path id="Trazado_808391" data-name="Trazado 808391" d="M238.462,384.7a.756.756,0,0,1-.083-.567,1.273,1.273,0,0,1,.256-.587.886.886,0,0,1,.74-.395.322.322,0,0,1,.257.382.86.86,0,0,1-.159.359,2.506,2.506,0,0,1-.427.48,1.272,1.272,0,0,1-.51.316c-.015-.02.178-.141.427-.392a2.844,2.844,0,0,0,.38-.478c.126-.169.217-.475,0-.517a.792.792,0,0,0-.586.329,1.31,1.31,0,0,0-.264.521,2.745,2.745,0,0,0-.031.548" transform="translate(13.184 21.192)" fill="#263238"/>
            <path id="Trazado_808392" data-name="Trazado 808392" d="M252.684,384.186c0,.029-.388-.044-1,.006a4.6,4.6,0,0,0-2.217.782,4.123,4.123,0,0,0-1.425,1.763c-.224.536-.254.9-.285.9a.657.657,0,0,1,.007-.255,3.085,3.085,0,0,1,.169-.678,3.925,3.925,0,0,1,1.434-1.849,4.412,4.412,0,0,1,2.308-.767,3.8,3.8,0,0,1,.747.037.84.84,0,0,1,.266.064" transform="translate(13.703 21.243)" fill="#263238"/>
            <path id="Trazado_808393" data-name="Trazado 808393" d="M246.353,386.309a12,12,0,0,1-3.974-.07c.006-.044.892.03,1.987.047s1.983-.022,1.987.022" transform="translate(13.406 21.362)" fill="#263238"/>
            <path id="Trazado_808394" data-name="Trazado 808394" d="M248.69,386.367c.033.032-.078.173-.174.36s-.151.354-.2.349-.063-.2.05-.416.294-.325.323-.293" transform="translate(13.732 21.369)" fill="#263238"/>
            <path id="Trazado_808395" data-name="Trazado 808395" d="M249.683,385.292c.032.031-.06.159-.2.289s-.288.208-.32.177.061-.159.206-.288.287-.209.319-.178" transform="translate(13.78 21.31)" fill="#263238"/>
            <path id="Trazado_808396" data-name="Trazado 808396" d="M251.073,384.828c-.011.042-.192.036-.394.1s-.348.155-.383.126.084-.2.336-.271.456.011.441.05" transform="translate(13.843 21.28)" fill="#263238"/>
            <path id="Trazado_808397" data-name="Trazado 808397" d="M252.03,384.614c.015.04-.065.1-.179.14s-.218.036-.234,0,.065-.1.179-.14.218-.036.234,0" transform="translate(13.917 21.271)" fill="#263238"/>
            <path id="Trazado_808398" data-name="Trazado 808398" d="M302.72,162.821a26.156,26.156,0,0,1,10.508,4.138c12.553,8.136,33.544,25.343,31.8,33.311-1.483,6.784-17.856,15.02-17.856,15.02L316.541,202.5l6.519-3.728-16.025-10.66Z" transform="translate(16.743 9.006)" fill="#263238"/>
            <path id="Trazado_808399" data-name="Trazado 808399" d="M313.118,188.766l-.521,1.908-1.846,8.819-.455,12.925C319.817,224.678,319.96,235,319.96,235l-48.091,5.617c.008-9.5,3.474-21.463,3.474-21.463,2.783-4.72,2.649-18.839,2.129-19.355-3.005-2.977-3.733-5.16-1.334-8.974,0,0-14.909,15.661-16.445,17.068-5.267,4.829-10.334,3.483-12.686,1.384-6.585-5.876.175-13.455.175-13.455l25.112-28.781a12.507,12.507,0,0,1,6.526-3.979c2.676-.631,5.378-.953,5.378-.953l16.768.142a28.2,28.2,0,0,1,4.995.61,11.993,11.993,0,0,1,7.323,9.077c1.5,7.207-.165,16.829-.165,16.829" transform="translate(13.502 8.966)" fill="#263238"/>
            <path id="Trazado_808400" data-name="Trazado 808400" d="M310.178,176.445a6.745,6.745,0,0,1,.1,1.393c.022.9.005,2.2-.091,3.8a100.991,100.991,0,0,1-1.655,12.433c-.316,1.641-.646,3.222-.992,4.687l.006-.052c-.147,3.736-.3,6.966-.423,9.261-.068,1.068-.125,1.962-.172,2.689a3.94,3.94,0,0,1-.124.966,3.974,3.974,0,0,1-.056-.972c.005-.728.011-1.624.018-2.694.034-2.3.113-5.532.228-9.269v-.024l.006-.027c.33-1.453.653-3.034.967-4.667.915-4.8,1.523-9.176,1.808-12.36.145-1.591.221-2.884.265-3.777a6.775,6.775,0,0,1,.111-1.391" transform="translate(16.967 9.759)" fill="#455a64"/>
            <path id="Trazado_808401" data-name="Trazado 808401" d="M310.154,188.7a100.112,100.112,0,0,1,8.779,5.741,99.907,99.907,0,0,1,8.468,6.194,100.273,100.273,0,0,1-8.78-5.742,100.324,100.324,0,0,1-8.467-6.193" transform="translate(17.154 10.436)" fill="#455a64"/>
            <path id="Trazado_808402" data-name="Trazado 808402" d="M281.29,170.837c.014-.014.1.051.247.186a5.021,5.021,0,0,1,.6.653,7.252,7.252,0,0,1,1.3,2.98,9.835,9.835,0,0,1-.273,4.819,19.644,19.644,0,0,1-2.7,5.243,18.869,18.869,0,0,1-1.984,2.332c-.7.71-1.446,1.295-2.1,1.892-1.33,1.191-2.477,2.323-3.424,3.287s-1.695,1.767-2.213,2.321a5.256,5.256,0,0,1-.84.832,4.612,4.612,0,0,1,.678-.971c.47-.6,1.176-1.444,2.093-2.448s2.043-2.172,3.366-3.395c.662-.622,1.394-1.209,2.059-1.9a19.016,19.016,0,0,0,1.92-2.273,20.162,20.162,0,0,0,2.661-5.075,9.81,9.81,0,0,0,.374-4.595,8.628,8.628,0,0,0-1.763-3.89" transform="translate(14.928 9.449)" fill="#455a64"/>
            <path id="Trazado_808403" data-name="Trazado 808403" d="M275.389,211.459l.556-6.461h32.8l-.177,5.048Z" transform="translate(15.232 11.338)" fill="#455a64"/>
            <path id="Trazado_808404" data-name="Trazado 808404" d="M249.1,192.848c.06.082-.828.621-1.818,1.9a8.741,8.741,0,0,0,.466,11.46c1.089,1.194,2.019,1.658,1.965,1.745-.015.03-.261-.055-.67-.279a7.468,7.468,0,0,1-1.576-1.2,8.672,8.672,0,0,1-.486-11.975,7.469,7.469,0,0,1,1.473-1.321c.39-.256.628-.361.646-.332" transform="translate(13.541 10.666)" fill="#455a64"/>
            <path id="Trazado_808405" data-name="Trazado 808405" d="M309.125,379.827l3.72,8.654-16.645-.2-.351-8.821Z" transform="translate(16.363 20.988)" fill="#727997"/>
            <path id="Trazado_808406" data-name="Trazado 808406" d="M296.065,386.417a15.252,15.252,0,0,0,2.331.119c1.442.024,3.432.017,5.628-.018l5.62-.117a17.479,17.479,0,0,0,2.328-.117,15.269,15.269,0,0,0-2.331-.114c-1.442-.023-3.433-.015-5.629.02l-5.617.114a17.611,17.611,0,0,0-2.329.113" transform="translate(16.375 21.358)" fill="#263238"/>
            <path id="Trazado_808407" data-name="Trazado 808407" d="M302.647,379.63a23.378,23.378,0,0,0,.387,6.992,23.378,23.378,0,0,0-.387-6.992" transform="translate(16.732 20.997)" fill="#263238"/>
            <g id="Grupo_1067402" data-name="Grupo 1067402" transform="translate(312.44 407.514)" opacity="0.6">
              <g id="Grupo_1067401" data-name="Grupo 1067401">
                <g id="Grupo_1067400" data-name="Grupo 1067400" clip-path="url(#clip-path-8)">
                  <path id="Trazado_808408" data-name="Trazado 808408" d="M312.807,388.292l-16.636-.557-.107-1.579,15.907.136.842,1.812" transform="translate(-296.065 -386.156)" fill="#fff"/>
                </g>
              </g>
            </g>
            <path id="Trazado_808409" data-name="Trazado 808409" d="M319.484,224.031c12.522,39.521-3.622,87.5.25,133.546.38,4.524,2.216,9.937-2.015,12.512a6.9,6.9,0,0,1-3.818.933c-3.381-.111-6.205-1.865-9.222-3.07a27.406,27.406,0,0,0-18.15-.7c-4,1.246-7.958,3.447-12.1,2.821-5.495-.831-9.057-6.262-14.115-8.565-4.736-2.155-10.206-1.351-15.408-1.481l-.156-.005a11.672,11.672,0,0,1-10.779-14.781c7.558-27.686,32.63-117.624,43.728-134.043l33.178-1.413c3.057,3.695,6.986,9.213,8.6,14.249" transform="translate(12.918 11.603)" fill="#59bee2"/>
            <path id="Trazado_808410" data-name="Trazado 808410" d="M304.758,240.913a14.773,14.773,0,0,1-1.8,2.269,51.943,51.943,0,0,1-4.9,5.006,32.876,32.876,0,0,1-5.78,3.975,12.7,12.7,0,0,1-2.634,1.219c-.114-.191,3.942-2.078,8.054-5.61,2.04-1.777,3.722-3.581,4.973-4.854a15.521,15.521,0,0,1,2.091-2.005" transform="translate(16.02 13.325)" fill="#263238"/>
            <g id="Grupo_1067405" data-name="Grupo 1067405" transform="translate(286.549 269.152)" opacity="0.1">
              <g id="Grupo_1067404" data-name="Grupo 1067404">
                <g id="Grupo_1067403" data-name="Grupo 1067403" clip-path="url(#clip-path-9)">
                  <path id="Trazado_808411" data-name="Trazado 808411" d="M291.111,255.046a141.358,141.358,0,0,0-5.559,84.594c.594,2.416,1.2,5.162-.173,7.234-1.781,2.684-6.092,2.5-8.531.394s-3.412-5.42-4.023-8.583c-4.555-23.579,3.695-47.273,12.607-69.572" transform="translate(-271.531 -255.046)"/>
                </g>
              </g>
            </g>
          </g>
        </g>
        <rect id="Rectángulo_375413" data-name="Rectángulo 375413" width="62.882" height="3.058" transform="translate(92.641 283.089)" fill="#263238"/>
        <path id="Trazado_808412" data-name="Trazado 808412" d="M79.17,273.467l-11.8-44.2h49.1l10.681,44.2Z" transform="translate(3.726 12.681)" fill="#263238"/>
        <path id="Trazado_808413" data-name="Trazado 808413" d="M124.068,270.014H80.206L70,231.2h44.089Z" transform="translate(3.871 12.788)" fill="#f5f5f5"/>
        <path id="Trazado_808414" data-name="Trazado 808414" d="M70.73,233.992h44.1l-.742-2.79H70Z" transform="translate(3.871 12.788)" fill="#ebebeb"/>
        <g id="Grupo_1067424" data-name="Grupo 1067424">
          <g id="Grupo_1067423" data-name="Grupo 1067423" clip-path="url(#clip-path)">
            <path id="Trazado_808415" data-name="Trazado 808415" d="M75.2,232.549a.482.482,0,1,0,.482-.481.481.481,0,0,0-.482.481" transform="translate(4.159 12.836)" fill="#fafafa"/>
            <path id="Trazado_808416" data-name="Trazado 808416" d="M73.631,232.549a.482.482,0,1,0,.481-.481.481.481,0,0,0-.481.481" transform="translate(4.072 12.836)" fill="#fafafa"/>
            <path id="Trazado_808417" data-name="Trazado 808417" d="M72.059,232.549a.482.482,0,1,0,.481-.481.481.481,0,0,0-.481.481" transform="translate(3.986 12.836)" fill="#fafafa"/>
            <path id="Trazado_808418" data-name="Trazado 808418" d="M102.5,250.33l4.828,5.525a6.824,6.824,0,0,0,2.965-5.555c-.015-3.863-3.546-7.028-7.821-7.011s-7.782,3.209-7.766,7.073Z" transform="translate(5.238 13.456)" fill="#1969d5"/>
            <path id="Trazado_808419" data-name="Trazado 808419" d="M101.923,250.805a10.988,10.988,0,0,1,1.377,1.381c.862.926,2.095,2.275,3.57,3.926l.167.187-.207.156a8.36,8.36,0,0,1-8.142.8,7.975,7.975,0,0,1-3.348-2.693,6.861,6.861,0,0,1-1.242-3.627l-.009-.245.241,0c2.311-.012,4.224,0,5.55.019a11.851,11.851,0,0,1,2.044.1,14.321,14.321,0,0,1-2.125.164c-1.331.062-3.211.131-5.461.19l.232-.246a6.5,6.5,0,0,0,1.2,3.342,7.554,7.554,0,0,0,3.136,2.495,8.005,8.005,0,0,0,7.653-.674l-.041.343c-1.4-1.638-2.552-3.017-3.357-4a13.379,13.379,0,0,1-1.24-1.613" transform="translate(5.204 13.865)" fill="#263238"/>
            <path id="Trazado_808420" data-name="Trazado 808420" d="M98.523,246.034a.437.437,0,1,0,.436-.439.438.438,0,0,0-.436.439" transform="translate(5.449 13.584)" fill="#263238"/>
            <path id="Trazado_808421" data-name="Trazado 808421" d="M90.292,243.029a25,25,0,0,1,5.216-.3h.81l.078.079a20.5,20.5,0,0,1,3.018,3.378,20.635,20.635,0,0,1-3.4-2.992l.192.079-.7.005a24.967,24.967,0,0,1-5.219-.254" transform="translate(4.994 13.425)" fill="#263238"/>
            <path id="Trazado_808422" data-name="Trazado 808422" d="M81.027,248.676a16.287,16.287,0,0,1-.5-2.037c-.3-1.34-.714-3.3-1.195-5.7l-.053-.264.272,0,10.912-.094c-.058-.05.515.423.272.225v.005l0,.008,0,.017.006.033.012.064.025.131.05.261.1.517c.065.344.129.685.193,1.024q.19,1.015.373,1.993c.24,1.3.47,2.548.687,3.725l.055.3h-.3c-3.278-.008-6.036-.048-7.952-.087l-2.214-.059a3.138,3.138,0,0,1-.749-.06,4.989,4.989,0,0,1,.844-.066l2.263-.077c1.928-.054,4.626-.115,7.806-.149l-.244.3c-.229-1.176-.472-2.42-.724-3.718q-.188-.978-.383-1.992l-.2-1.023-.1-.517-.05-.261-.024-.131-.013-.064-.006-.033,0-.017v-.014c-.243-.2.329.27.27.223l-10.914-.008.219-.266c.414,2.32.732,4.249.95,5.617a20.837,20.837,0,0,1,.3,2.2" transform="translate(4.385 13.306)" fill="#263238"/>
            <path id="Trazado_808423" data-name="Trazado 808423" d="M97.908,254.361a.437.437,0,1,0,.436-.439.438.438,0,0,0-.436.439" transform="translate(5.415 14.044)" fill="#263238"/>
            <path id="Trazado_808424" data-name="Trazado 808424" d="M90.809,254.381a14.519,14.519,0,0,1,3.963-.29,14.586,14.586,0,0,1,3.965.259,14.539,14.539,0,0,1-3.963.291,14.528,14.528,0,0,1-3.965-.26" transform="translate(5.023 14.054)" fill="#263238"/>
            <path id="Trazado_808425" data-name="Trazado 808425" d="M81.063,257.948a9.052,9.052,0,0,1-.479-1.458c-.288-.973-.7-2.409-1.187-4.2l-.069-.253.268-.005c2.972-.054,6.925-.095,11.254-.113-.239-.184.326.252.268.208h0v.009l0,.012.006.023.012.047.024.094.049.189.1.375.19.743.37,1.456c.241.955.474,1.878.7,2.764l.081.323h-.33c-3.338-.005-6.182-.044-8.168-.084l-2.3-.062a3.148,3.148,0,0,1-.784-.066,4.937,4.937,0,0,1,.882-.073l2.35-.081c2-.056,4.778-.116,8.02-.148l-.248.322c-.231-.883-.473-1.806-.721-2.758q-.187-.717-.377-1.455l-.192-.743-.1-.375-.049-.188-.024-.1-.012-.046-.006-.024,0-.012v-.011l.267.206c-4.329.017-8.282.007-11.254-.023l.2-.259c.417,1.726.737,3.146.956,4.148a12.512,12.512,0,0,1,.309,1.614" transform="translate(4.388 13.931)" fill="#263238"/>
            <path id="Trazado_808426" data-name="Trazado 808426" d="M81.754,243.157a12.885,12.885,0,0,1,3.732-.289,12.9,12.9,0,0,1,3.735.26,12.883,12.883,0,0,1-3.733.289,12.908,12.908,0,0,1-3.734-.26" transform="translate(4.522 13.433)" fill="#263238"/>
            <path id="Trazado_808427" data-name="Trazado 808427" d="M81.842,244.315a13.031,13.031,0,0,1,3.754-.289,13.062,13.062,0,0,1,3.757.26,13.043,13.043,0,0,1-3.755.289,13.058,13.058,0,0,1-3.756-.26" transform="translate(4.527 13.497)" fill="#263238"/>
            <path id="Trazado_808428" data-name="Trazado 808428" d="M82.053,245.432a12.159,12.159,0,0,1,3.623-.289,12.148,12.148,0,0,1,3.625.261,12.2,12.2,0,0,1-3.623.289,12.2,12.2,0,0,1-3.625-.261" transform="translate(4.538 13.559)" fill="#263238"/>
            <path id="Trazado_808429" data-name="Trazado 808429" d="M81.964,254.287A11.772,11.772,0,0,1,85.521,254a11.76,11.76,0,0,1,3.56.261,11.726,11.726,0,0,1-3.557.289,11.772,11.772,0,0,1-3.56-.261" transform="translate(4.533 14.048)" fill="#263238"/>
            <path id="Trazado_808430" data-name="Trazado 808430" d="M82.383,255.568a8.623,8.623,0,0,1,3.033-.287,8.646,8.646,0,0,1,3.036.263,8.6,8.6,0,0,1-3.034.287,8.621,8.621,0,0,1-3.035-.263" transform="translate(4.557 14.119)" fill="#263238"/>
            <path id="Trazado_808431" data-name="Trazado 808431" d="M17.222,271.013v5.8h3.8V394.172h7.789V276.81H70.145V394.172h7.789V276.81h179.33V394.143h7.789V276.81h3.371v-5.8Z" transform="translate(0.953 14.99)" fill="#263238"/>
            <path id="Trazado_808432" data-name="Trazado 808432" d="M177.258,312.463a30.421,30.421,0,0,0,5.064.212,30.429,30.429,0,0,0,5.065-.212,30.36,30.36,0,0,0-5.065-.213,30.352,30.352,0,0,0-5.064.213" transform="translate(9.804 17.27)" fill="#263238"/>
            <path id="Trazado_808433" data-name="Trazado 808433" d="M107.367,313.6c-.152,0-.274-.06-.274-.135s.122-.134.274-.134.274.06.274.134-.122.135-.274.135" transform="translate(5.923 17.33)" fill="#455a64"/>
            <path id="Trazado_808434" data-name="Trazado 808434" d="M156.7,216.948l-29.093-29.557-.629-3.2c-.121-.586-.243-1.24-.356-1.982a7.873,7.873,0,0,1,.045-2.6,11.811,11.811,0,0,1,.9-3.1c.49-.856-.294-1.888-1.1-1.535s-2.217,2.678-2.521,5.871-3.028-1.043-4.047-2.569-4.388-6.1-5.091-6.151c-1.03-.079-1.294,1.037-.241,2.537,1.065,1.518,3.9,6.222,3.1,6.728l-.031-.005a3.8,3.8,0,0,0-4.019,1.993c-.734,1.41-1.552,3.41-.882,4.332a52.363,52.363,0,0,0,4.639,4.914l.974.837s25.169,36.471,30.655,37.656c3.412.738,56.157,5.113,56.157,5.113l3.979-14.532Z" transform="translate(6.221 9.52)" fill="#b78876"/>
            <path id="Trazado_808435" data-name="Trazado 808435" d="M112.5,186.418,115.19,189a3.215,3.215,0,0,0,1.014.744.966.966,0,0,0,1.334-1.271,3.193,3.193,0,0,0-.619-.957l-2.615-3.144" transform="translate(6.222 10.198)" fill="#b78876"/>
            <path id="Trazado_808436" data-name="Trazado 808436" d="M114.3,184.375c.058-.049.564.452,1.334,1.3l1.33,1.506a4.992,4.992,0,0,1,.742,1,1.424,1.424,0,0,1-.074,1.5,1.319,1.319,0,0,1-1.472.338,2.972,2.972,0,0,1-1.054-.743l-1.409-1.434a6.367,6.367,0,0,1-1.2-1.423,6.322,6.322,0,0,1,1.47,1.142l1.489,1.349a2.62,2.62,0,0,0,.88.6.8.8,0,0,0,.866-.169.912.912,0,0,0,.018-.923,4.93,4.93,0,0,0-.645-.912c-.426-.545-.838-1.07-1.24-1.582a6.357,6.357,0,0,1-1.034-1.547" transform="translate(6.222 10.197)" fill="#aa6550"/>
            <path id="Trazado_808437" data-name="Trazado 808437" d="M114.309,184.636,117,187.221a3.215,3.215,0,0,0,1.014.744.966.966,0,0,0,1.334-1.271,3.192,3.192,0,0,0-.619-.957l-2.615-3.144" transform="translate(6.322 10.099)" fill="#b78876"/>
            <path id="Trazado_808438" data-name="Trazado 808438" d="M116.114,182.592c.058-.049.564.452,1.334,1.3.43.488.872.988,1.33,1.506a4.993,4.993,0,0,1,.742,1,1.424,1.424,0,0,1-.074,1.5,1.319,1.319,0,0,1-1.472.338,2.984,2.984,0,0,1-1.054-.742l-1.409-1.435a6.367,6.367,0,0,1-1.2-1.423,6.322,6.322,0,0,1,1.47,1.142l1.489,1.349a2.62,2.62,0,0,0,.88.6.8.8,0,0,0,.866-.169.912.912,0,0,0,.018-.923,4.93,4.93,0,0,0-.645-.912c-.426-.545-.838-1.07-1.24-1.582a6.356,6.356,0,0,1-1.034-1.547" transform="translate(6.322 10.099)" fill="#aa6550"/>
            <path id="Trazado_808439" data-name="Trazado 808439" d="M116.295,183.174l2.691,2.584A3.215,3.215,0,0,0,120,186.5a.966.966,0,0,0,1.334-1.271,3.193,3.193,0,0,0-.619-.957l-2.615-3.144" transform="translate(6.432 10.018)" fill="#b78876"/>
            <path id="Trazado_808440" data-name="Trazado 808440" d="M118.1,181.131c.057-.049.562.452,1.332,1.3l1.331,1.506a4.953,4.953,0,0,1,.742,1,1.422,1.422,0,0,1-.074,1.5,1.319,1.319,0,0,1-1.472.338,2.973,2.973,0,0,1-1.054-.743L117.5,184.6a6.368,6.368,0,0,1-1.2-1.423,6.338,6.338,0,0,1,1.471,1.142l1.488,1.349a2.621,2.621,0,0,0,.88.6A.8.8,0,0,0,121,186.1a.914.914,0,0,0,.019-.923,5.032,5.032,0,0,0-.645-.912c-.426-.545-.839-1.07-1.241-1.582a6.329,6.329,0,0,1-1.033-1.547" transform="translate(6.432 10.018)" fill="#aa6550"/>
            <path id="Trazado_808441" data-name="Trazado 808441" d="M120.326,187.535c-.007-.087.667-.222,1.64.077l-.31.265a4.6,4.6,0,0,1-.069-1.849,4.7,4.7,0,0,1,1.008-2.249c.415-.484.765-.675.808-.624a9.631,9.631,0,0,0-1.274,2.961,5.474,5.474,0,0,0-.016,1.667l.057.422-.367-.156c-.842-.359-1.482-.407-1.477-.515" transform="translate(6.655 10.13)" fill="#aa6550"/>
            <path id="Trazado_808442" data-name="Trazado 808442" d="M191.871,172.872l.123,40.487-15.786.752-.638-9.7s-7.616,1.157-9.208-4.573c-1.017-3.66-.763-31.946-.763-31.946Z" transform="translate(9.158 9.286)" fill="#b78876"/>
            <path id="Trazado_808443" data-name="Trazado 808443" d="M161.918,172.215c1.17,2.419,6.741,6.846,6.741,6.846l2.517,6.746c2.186-1.712,5.121-1.614,5.676,2.228.4,2.775-3.05,3.337-3.05,3.337,2.009,3.419,3.372,6.185,6.3,9.438,3.166,3.519,4.94,3.875,8.374,3.932h3.786s7.748-6.474,6.217-23.528-16.863-12.077-20.522-16.338c-5.96-6.939-19.944-.736-16.039,7.341" transform="translate(8.918 8.953)" fill="#263238"/>
            <path id="Trazado_808444" data-name="Trazado 808444" d="M197.573,195.13a5.445,5.445,0,0,1-1.874-.085,9.75,9.75,0,0,1-4.523-2.327,24.625,24.625,0,0,1-4.573-6.047c-1.474-2.409-3.086-5.222-5.8-7.1-2.746-1.836-5.974-2.211-8.746-2.778a16.509,16.509,0,0,1-7.062-2.688,7.587,7.587,0,0,1-2.829-4.192,4.351,4.351,0,0,1-.077-1.872,6.445,6.445,0,0,0,.16,1.852,7.589,7.589,0,0,0,2.841,4.088,16.512,16.512,0,0,0,7.006,2.612c2.765.557,6.022.92,8.831,2.8,2.771,1.915,4.385,4.759,5.852,7.173a24.85,24.85,0,0,0,4.5,6.034,9.84,9.84,0,0,0,4.438,2.361,7.781,7.781,0,0,0,1.373.163c.317,0,.484.006.484.006" transform="translate(8.962 9.294)" fill="#455a64"/>
            <path id="Trazado_808445" data-name="Trazado 808445" d="M198.456,181.378s-.283-.082-.816-.247a12.337,12.337,0,0,0-2.377-.529,5.33,5.33,0,0,0-3.657.819,3,3,0,0,0-1.272,1.92,2.67,2.67,0,0,0,.737,2.416,2.042,2.042,0,0,0,1.276.507,2.694,2.694,0,0,0,1.406-.384,4.318,4.318,0,0,0,1.909-2.437,6.041,6.041,0,0,0-5.094-7.924,10.589,10.589,0,0,0-3.924.515,27.572,27.572,0,0,1-4.061.976,16.523,16.523,0,0,1-4.307.011,14.239,14.239,0,0,1-4.154-1.15,5.02,5.02,0,0,1-2.842-3,3.918,3.918,0,0,1,.966-3.824,3.373,3.373,0,0,1,3.708-.548,2.828,2.828,0,0,1,1.374,1.295,3.1,3.1,0,0,1,.292,1.815,4.13,4.13,0,0,1-1.848,2.894,5.93,5.93,0,0,1-3.12.867,9.173,9.173,0,0,1-2.958-.456,10.585,10.585,0,0,1-4.346-2.679,11.124,11.124,0,0,1-2.219-3.166,11.244,11.244,0,0,1-.786-2.318c-.094-.553-.132-.843-.132-.843s.068.286.175.834a11.906,11.906,0,0,0,.82,2.291,11.173,11.173,0,0,0,2.229,3.116,10.507,10.507,0,0,0,4.307,2.618,9.064,9.064,0,0,0,2.907.435,5.772,5.772,0,0,0,3.023-.852,3.944,3.944,0,0,0,1.755-2.765,2.712,2.712,0,0,0-1.56-2.9,3.166,3.166,0,0,0-3.478.515,3.71,3.71,0,0,0-.9,3.614,4.812,4.812,0,0,0,2.73,2.858,14.061,14.061,0,0,0,4.086,1.13,16.317,16.317,0,0,0,4.25-.011,27.727,27.727,0,0,0,4.033-.966,10.77,10.77,0,0,1,4-.517,6.236,6.236,0,0,1,5.245,8.191,4.492,4.492,0,0,1-2,2.525,2.85,2.85,0,0,1-1.5.4,2.2,2.2,0,0,1-1.375-.554,2.81,2.81,0,0,1-.769-2.555,3.122,3.122,0,0,1,1.338-2,5.394,5.394,0,0,1,3.737-.8,11.617,11.617,0,0,1,2.38.571c.531.179.8.289.8.289" transform="translate(8.972 9.176)" fill="#455a64"/>
            <path id="Trazado_808446" data-name="Trazado 808446" d="M177.866,379.208l-5.16-6.62,12.34-9.745,7.652,9.605-.727.653c-3.256,2.878-16.756,14.4-19.577,15.512-3.147,1.235,5.473-9.406,5.473-9.406" transform="translate(9.497 20.069)" fill="#727997"/>
            <g id="Grupo_1067410" data-name="Grupo 1067410" transform="translate(181.205 392.257)" opacity="0.4">
              <g id="Grupo_1067409" data-name="Grupo 1067409">
                <g id="Grupo_1067408" data-name="Grupo 1067408" clip-path="url(#clip-path-11)">
                  <path id="Trazado_808447" data-name="Trazado 808447" d="M173.8,384.1s-2.838,3.962-1.9,4.205,15.017-10.892,20.8-16.347l-.237-.26-16.315,13.127s-1.6-1.263-2.346-.726" transform="translate(-171.708 -371.699)" fill="#fff"/>
                </g>
              </g>
            </g>
            <path id="Trazado_808448" data-name="Trazado 808448" d="M192.646,371.546a1.392,1.392,0,0,1-.194.191l-.579.518-2.165,1.869c-1.839,1.565-4.409,3.694-7.3,5.981s-5.551,4.3-7.5,5.735l-2.315,1.68-.637.445a1.38,1.38,0,0,1-.23.145,1.474,1.474,0,0,1,.207-.176l.616-.474,2.278-1.728c1.924-1.458,4.571-3.489,7.459-5.776s5.47-4.4,7.33-5.936l2.2-1.823.6-.491a1.44,1.44,0,0,1,.218-.161" transform="translate(9.498 20.55)" fill="#263238"/>
            <path id="Trazado_808449" data-name="Trazado 808449" d="M176.2,384.374a4.161,4.161,0,0,0-2.708-.993,2.539,2.539,0,0,1,2.708.993" transform="translate(9.596 21.199)" fill="#263238"/>
            <path id="Trazado_808450" data-name="Trazado 808450" d="M178.2,379.869a1.655,1.655,0,0,1-.763-.166c-.4-.141-.718-.3-.7-.345a1.636,1.636,0,0,1,.763.166c.4.14.718.3.7.345" transform="translate(9.775 20.981)" fill="#263238"/>
            <path id="Trazado_808451" data-name="Trazado 808451" d="M178.744,378.6c0,.053-.3.077-.664.054s-.655-.084-.652-.137.3-.076.664-.053.655.083.652.136" transform="translate(9.813 20.932)" fill="#263238"/>
            <path id="Trazado_808452" data-name="Trazado 808452" d="M178.468,377.017c.033.041-.226.3-.578.591s-.666.483-.7.442.226-.3.578-.591.666-.483.7-.442" transform="translate(9.8 20.852)" fill="#263238"/>
            <path id="Trazado_808453" data-name="Trazado 808453" d="M178.063,376.076a2.311,2.311,0,0,1-1.373,1.264c-.026-.049.319-.283.691-.628s.636-.667.682-.636" transform="translate(9.773 20.8)" fill="#263238"/>
            <path id="Trazado_808454" data-name="Trazado 808454" d="M177.077,379.149a2.932,2.932,0,0,1-.8.622,5.878,5.878,0,0,1-.991.481,2.869,2.869,0,0,1-.639.183.542.542,0,0,1-.392-.091.4.4,0,0,1-.13-.412,1.852,1.852,0,0,1,2.133-1,1.812,1.812,0,0,1,.678.324c.138.111.2.19.189.2a2.857,2.857,0,0,0-.895-.39,1.82,1.82,0,0,0-1.025.095,1.565,1.565,0,0,0-.894.812c-.053.192.114.3.32.274a3.052,3.052,0,0,0,.6-.161,6.9,6.9,0,0,0,.985-.434c.541-.291.844-.529.863-.5" transform="translate(9.63 20.956)" fill="#263238"/>
            <path id="Trazado_808455" data-name="Trazado 808455" d="M176.8,379.441c0,.018-.282-.093-.527-.478a1.663,1.663,0,0,1-.242-.75,1.014,1.014,0,0,1,.341-.925.4.4,0,0,1,.533.173,1.091,1.091,0,0,1,.146.46,3.037,3.037,0,0,1,.005.776,1.456,1.456,0,0,1-.2.68c-.028-.008.045-.267.065-.691a3.557,3.557,0,0,0-.043-.738c-.024-.253-.188-.613-.415-.492-.213.137-.26.495-.256.749a1.676,1.676,0,0,0,.184.692,3.587,3.587,0,0,0,.409.545" transform="translate(9.736 20.865)" fill="#263238"/>
            <path id="Trazado_808456" data-name="Trazado 808456" d="M188.916,368.538c.019.03-.38.246-.885.752a4.926,4.926,0,0,0-1.195,5.129c.23.677.493,1.047.462,1.066a.922.922,0,0,1-.2-.249,4.187,4.187,0,0,1-.392-.772,4.776,4.776,0,0,1,1.228-5.271,4.12,4.12,0,0,1,.691-.519.923.923,0,0,1,.287-.136" transform="translate(10.309 20.384)" fill="#263238"/>
            <path id="Trazado_808457" data-name="Trazado 808457" d="M183.726,364.632a54.881,54.881,0,0,1,4.072,5.018,54.794,54.794,0,0,1-4.072-5.018" transform="translate(10.162 20.167)" fill="#263238"/>
            <path id="Trazado_808458" data-name="Trazado 808458" d="M185.1,375.225a12.919,12.919,0,0,1-3.578,2.884c-.03-.046.815-.634,1.8-1.43s1.74-1.493,1.779-1.454" transform="translate(10.04 20.753)" fill="#263238"/>
            <path id="Trazado_808459" data-name="Trazado 808459" d="M187.205,373.41c.054.006.069.223.133.473s.149.449.1.48-.217-.145-.288-.434,0-.528.052-.519" transform="translate(10.35 20.653)" fill="#263238"/>
            <path id="Trazado_808460" data-name="Trazado 808460" d="M187.223,371.654c.053.005.074.2.049.427s-.088.413-.14.406-.074-.2-.049-.427.089-.412.14-.406" transform="translate(10.347 20.556)" fill="#263238"/>
            <path id="Trazado_808461" data-name="Trazado 808461" d="M188.091,370.187c.024.048-.14.177-.271.384s-.185.406-.24.4-.085-.254.079-.508.414-.329.432-.281" transform="translate(10.373 20.474)" fill="#263238"/>
            <path id="Trazado_808462" data-name="Trazado 808462" d="M188.773,369.259c.045.026.024.146-.046.267s-.166.2-.21.17-.025-.147.045-.267.166-.2.211-.17" transform="translate(10.425 20.423)" fill="#263238"/>
            <g id="Grupo_1067413" data-name="Grupo 1067413" transform="translate(185.308 387.745)" opacity="0.3">
              <g id="Grupo_1067412" data-name="Grupo 1067412">
                <g id="Grupo_1067411" data-name="Grupo 1067411" clip-path="url(#clip-path-12)">
                  <path id="Trazado_808463" data-name="Trazado 808463" d="M189.234,368.282l-12.483,9.537-1.155-1.5,13.119-8.9Z" transform="translate(-175.596 -367.423)"/>
                </g>
              </g>
            </g>
            <path id="Trazado_808464" data-name="Trazado 808464" d="M124.33,385.092l.023-8.394,15.723-.057.1,12.281-.974.065c-4.338.256-22.074,1-24.978.132-3.238-.97,10.11-4.027,10.11-4.027" transform="translate(6.289 20.832)" fill="#727997"/>
            <g id="Grupo_1067416" data-name="Grupo 1067416" transform="translate(119.957 407.65)" opacity="0.4">
              <g id="Grupo_1067415" data-name="Grupo 1067415">
                <g id="Grupo_1067414" data-name="Grupo 1067414" clip-path="url(#clip-path-13)">
                  <path id="Trazado_808465" data-name="Trazado 808465" d="M117.812,386.285s-4.677,1.368-4.09,2.137,18.539.692,26.453-.034l-.026-.351-20.938.267s-.482-1.984-1.4-2.019" transform="translate(-113.67 -386.285)" fill="#fff"/>
                </g>
              </g>
            </g>
            <path id="Trazado_808466" data-name="Trazado 808466" d="M140.393,387.934a1.487,1.487,0,0,1-.27.031l-.777.05-2.857.136c-2.413.1-5.749.187-9.434.206s-7.023-.039-9.438-.112l-2.858-.107-.777-.042a1.491,1.491,0,0,1-.27-.027,1.41,1.41,0,0,1,.271-.011l.778.006,2.859.046c2.415.038,5.749.073,9.433.055s7.018-.088,9.431-.15l2.859-.075.777-.014a1.537,1.537,0,0,1,.272.007" transform="translate(6.289 21.456)" fill="#263238"/>
            <path id="Trazado_808467" data-name="Trazado 808467" d="M119,388.559a4.143,4.143,0,0,0-1.519-2.451A2.542,2.542,0,0,1,119,388.559" transform="translate(6.498 21.355)" fill="#263238"/>
            <path id="Trazado_808468" data-name="Trazado 808468" d="M123.355,386.25c-.044.029-.267-.241-.5-.6s-.382-.675-.338-.7.267.242.5.6.382.675.338.7" transform="translate(6.776 21.291)" fill="#263238"/>
            <path id="Trazado_808469" data-name="Trazado 808469" d="M124.567,385.584c-.035.039-.284-.126-.556-.367s-.463-.471-.428-.51.284.125.555.367.464.471.43.51" transform="translate(6.835 21.278)" fill="#263238"/>
            <path id="Trazado_808470" data-name="Trazado 808470" d="M125.358,384.132a3.6,3.6,0,0,1-1.643.025,3.6,3.6,0,0,1,1.643-.025" transform="translate(6.843 21.242)" fill="#263238"/>
            <path id="Trazado_808471" data-name="Trazado 808471" d="M125.626,383.137a2.307,2.307,0,0,1-1.859.148,5.132,5.132,0,0,1,.93-.068,5.065,5.065,0,0,1,.93-.08" transform="translate(6.845 21.19)" fill="#263238"/>
            <path id="Trazado_808472" data-name="Trazado 808472" d="M122.955,384.957a2.911,2.911,0,0,1-1.011,0,5.9,5.9,0,0,1-1.076-.232,2.975,2.975,0,0,1-.616-.251.542.542,0,0,1-.251-.313.4.4,0,0,1,.151-.4,1.853,1.853,0,0,1,2.293.532,1.81,1.81,0,0,1,.333.673.559.559,0,0,1,.026.272,2.833,2.833,0,0,0-.463-.859,1.814,1.814,0,0,0-.865-.557,1.567,1.567,0,0,0-1.2.087c-.16.119-.1.308.082.414a3.044,3.044,0,0,0,.569.241,7.042,7.042,0,0,0,1.042.266c.606.1.991.1.991.135" transform="translate(6.637 21.214)" fill="#263238"/>
            <path id="Trazado_808473" data-name="Trazado 808473" d="M122.56,385.035a.991.991,0,0,1-.119-.7,1.657,1.657,0,0,1,.272-.74,1.012,1.012,0,0,1,.839-.518.4.4,0,0,1,.313.465,1.1,1.1,0,0,1-.17.452,3.037,3.037,0,0,1-.474.613,1.446,1.446,0,0,1-.577.412c-.017-.024.2-.182.478-.5a3.508,3.508,0,0,0,.42-.608c.138-.214.231-.6-.022-.643-.253-.023-.51.229-.664.432a1.67,1.67,0,0,0-.283.659,3.758,3.758,0,0,0-.014.681" transform="translate(6.772 21.188)" fill="#263238"/>
            <path id="Trazado_808474" data-name="Trazado 808474" d="M138.965,383.864c0,.036-.451-.041-1.161.046a4.922,4.922,0,0,0-4.1,3.3c-.237.674-.259,1.128-.294,1.123a.956.956,0,0,1,0-.317,4.058,4.058,0,0,1,.168-.848,4.778,4.778,0,0,1,4.218-3.392,4.138,4.138,0,0,1,.865.018.888.888,0,0,1,.309.07" transform="translate(7.378 21.226)" fill="#263238"/>
            <path id="Trazado_808475" data-name="Trazado 808475" d="M137.106,377.666a54.988,54.988,0,0,1,.11,6.461,54.988,54.988,0,0,1-.11-6.461" transform="translate(7.58 20.888)" fill="#263238"/>
            <path id="Trazado_808476" data-name="Trazado 808476" d="M131.744,386.737a12.934,12.934,0,0,1-4.6.063c.005-.056,1.032,0,2.3-.017s2.29-.1,2.3-.046" transform="translate(7.032 21.389)" fill="#263238"/>
            <path id="Trazado_808477" data-name="Trazado 808477" d="M134.446,386.719c.038.038-.084.217-.188.454s-.16.445-.214.442-.082-.248.04-.52.327-.414.362-.376" transform="translate(7.411 21.389)" fill="#263238"/>
            <path id="Trazado_808478" data-name="Trazado 808478" d="M135.548,385.345c.038.037-.063.2-.225.366s-.324.27-.362.233.063-.2.226-.366.323-.27.361-.233" transform="translate(7.464 21.313)" fill="#263238"/>
            <path id="Trazado_808479" data-name="Trazado 808479" d="M137.136,384.717c-.011.054-.22.053-.451.135s-.4.206-.438.17.09-.253.377-.35.528,0,.512.045" transform="translate(7.535 21.274)" fill="#263238"/>
            <path id="Trazado_808480" data-name="Trazado 808480" d="M138.234,384.414c.019.049-.071.13-.2.182s-.252.053-.271,0,.071-.13.2-.18.252-.053.271,0" transform="translate(7.619 21.26)" fill="#263238"/>
            <g id="Grupo_1067419" data-name="Grupo 1067419" transform="translate(130.612 402.478)" opacity="0.3">
              <g id="Grupo_1067418" data-name="Grupo 1067418">
                <g id="Grupo_1067417" data-name="Grupo 1067417" clip-path="url(#clip-path-14)">
                  <path id="Trazado_808481" data-name="Trazado 808481" d="M139.617,383.365l-15.85.016.017-1.893,15.776-.1Z" transform="translate(-123.767 -381.384)"/>
                </g>
              </g>
            </g>
            <path id="Trazado_808482" data-name="Trazado 808482" d="M163.323,247.73l-6.3,18.959c-1.7,5.12-6.174,6-11.568,6H110.436v-7.857l32-4.568,7.625-19.479Z" transform="translate(6.108 13.317)" fill="#b78876"/>
            <path id="Trazado_808483" data-name="Trazado 808483" d="M107.705,262.382l-2.779-1.315s-2.994-5.789-3.684-5.557-.888,1.935.316,4.595l-3.693-1.054s-8,3.7-7.65,4.2a1.849,1.849,0,0,0,2.753.786c1.743-.892,4.027-1.938,4.027-1.938l4.313,1.232-5.561.706-5.229,4.758a2.56,2.56,0,0,0,3.2-.079L107.3,271.63l4.255.241v-7.857Z" transform="translate(4.989 14.132)" fill="#b78876"/>
            <path id="Trazado_808484" data-name="Trazado 808484" d="M93.532,268.165c.058.038.31-.364.8-.9a4.119,4.119,0,0,1,.989-.764,4.044,4.044,0,0,1,1.467-.383,20.323,20.323,0,0,0,4.077-.7,20.237,20.237,0,0,0-4.129.274,4.01,4.01,0,0,0-1.61.465,3.782,3.782,0,0,0-1.02.908,2.429,2.429,0,0,0-.572,1.093" transform="translate(5.173 14.678)" fill="#aa6550"/>
            <path id="Trazado_808485" data-name="Trazado 808485" d="M95.549,268.591c.052,0,.094-.281.475-.362s1.007-.145,1.65-.211a13.411,13.411,0,0,0,2.388-.243,4.789,4.789,0,0,0-2.43-.18,7.283,7.283,0,0,0-1.71.35.688.688,0,0,0-.413.427c-.035.146.014.223.039.218" transform="translate(5.282 14.798)" fill="#aa6550"/>
            <path id="Trazado_808486" data-name="Trazado 808486" d="M164.4,245.463l-2.693,9.124-17.094-7.739c.614-1.91,3.441-10.42,8.854-23.922a23.212,23.212,0,0,1,17.719-14.283,101.334,101.334,0,0,1,16.367-1.605c9.585.106,23.7,6.1,25.592,15.493,1.448,7.173.052,19.836.052,35.222l-1.251,29.4-49.12,1.666Z" transform="translate(7.998 11.451)" fill="#74c67b"/>
            <g id="Grupo_1067422" data-name="Grupo 1067422" transform="translate(184.728 261.856)" opacity="0.3">
              <g id="Grupo_1067421" data-name="Grupo 1067421">
                <g id="Grupo_1067420" data-name="Grupo 1067420" clip-path="url(#clip-path-15)">
                  <path id="Trazado_808487" data-name="Trazado 808487" d="M211.462,248.678c-5.977,1.222-12.115-.009-18.205-.371-3.693-.218-7.789-.618-10.71,1.652-2.315,1.8-3.248,4.826-3.916,7.682-2.548,10.885-3.011,18.183-3.584,29.348l29.568,1.793Z" transform="translate(-175.046 -248.132)"/>
                </g>
              </g>
            </g>
            <path id="Trazado_808488" data-name="Trazado 808488" d="M162.169,213.214c-.006.043.492.073,1.306.393a6.814,6.814,0,0,1,2.829,2.29,9.532,9.532,0,0,1,1.69,5.118,32.14,32.14,0,0,1-.516,6.734,112.773,112.773,0,0,1-2.745,12.041c-.4,1.473-.739,2.693-.993,3.617a8.468,8.468,0,0,0-.314,1.342,8.77,8.77,0,0,0,.474-1.295c.276-.842.666-2.063,1.123-3.582a93.557,93.557,0,0,0,2.876-12.057,31.126,31.126,0,0,0,.488-6.829,9.654,9.654,0,0,0-1.842-5.27,6.68,6.68,0,0,0-3.011-2.265,4.937,4.937,0,0,0-1.006-.229,1.122,1.122,0,0,0-.359-.008" transform="translate(8.969 11.792)" fill="#263238"/>
            <path id="Trazado_808489" data-name="Trazado 808489" d="M145.119,242.555a16.536,16.536,0,0,0,2.408,1.381c1.518.795,3.643,1.843,6.026,2.918s4.577,1.975,6.178,2.586a16.525,16.525,0,0,0,2.63.891,19.4,19.4,0,0,0-2.516-1.169c-1.569-.682-3.737-1.622-6.117-2.694s-4.518-2.076-6.068-2.8a19.723,19.723,0,0,0-2.541-1.111" transform="translate(8.026 13.415)" fill="#263238"/>
            <path id="Trazado_808490" data-name="Trazado 808490" d="M138.176,286.65a17.506,17.506,0,0,0-7.149,23.445l42.754,73.4,19.725-11.914-33.2-66.273L184.368,289.6" transform="translate(7.138 15.854)" fill="#263238"/>
            <path id="Trazado_808491" data-name="Trazado 808491" d="M190.986,283.2,132.3,285.278a17.505,17.505,0,0,0-16.885,17.767l2.437,83.823,24.683-.055-.823-79.254,49.278-1.3Z" transform="translate(6.383 15.664)" fill="#263238"/>
            <path id="Trazado_808492" data-name="Trazado 808492" d="M140.331,309a4.18,4.18,0,0,1,.071.775c.024.562.056,1.3.1,2.225.073,1.932.148,4.729.221,8.184.147,6.912.246,16.462.3,27.007.054,10.522.1,20.045.138,27.011.02,3.41.035,6.19.046,8.185,0,.923-.005,1.663-.007,2.226a4.065,4.065,0,0,1-.04.777,4.183,4.183,0,0,1-.071-.775c-.024-.562-.056-1.3-.1-2.225-.073-1.931-.148-4.728-.221-8.184-.147-6.911-.246-16.462-.3-27.012-.054-10.518-.1-20.039-.138-27.005-.02-3.41-.035-6.19-.046-8.185,0-.923.005-1.663.007-2.227a4.066,4.066,0,0,1,.04-.777" transform="translate(7.759 17.091)" fill="#455a64"/>
            <path id="Trazado_808493" data-name="Trazado 808493" d="M215.054,232.794H197.3a12.942,12.942,0,0,0-12.941,12.942v61.946H148.882a8.964,8.964,0,0,0-8.963,8.964h81c0-.018,0-.034,0-.053a7.39,7.39,0,0,0,7.08-7.381V245.736a12.943,12.943,0,0,0-12.942-12.942" transform="translate(7.739 12.876)" fill="#455a64"/>
            <path id="Trazado_808494" data-name="Trazado 808494" d="M186.933,234.73c.152,0,.274,18.205.274,40.657s-.122,40.661-.274,40.661-.274-18.2-.274-40.661.122-40.657.274-40.657" transform="translate(10.324 12.983)" fill="#263238"/>
            <path id="Trazado_808495" data-name="Trazado 808495" d="M186.243,377.269V312.283h-5.773v64.986c-3.525,6.947-11.81,11.649-21.9,15.5h51.463c-10.452-4.247-19.884-7.506-23.788-15.5" transform="translate(8.77 17.272)" fill="#455a64"/>
          </g>
        </g>
      </g>
    </g>
  </g>
</svg>
