<svg xmlns="http://www.w3.org/2000/svg" xmlns:xlink="http://www.w3.org/1999/xlink" width="85" height="85" viewBox="0 0 85 85">
  <defs>
    <clipPath id="clip-path">
      <rect id="Rect치ngulo_376010" data-name="Rect치ngulo 376010" width="75.333" height="75.333" fill="none"/>
    </clipPath>
  </defs>
  <g id="Grupo_1070132" data-name="Grupo 1070132" transform="translate(-180 -429)">
    <g id="Grupo_1070115" data-name="Grupo 1070115">
      <g id="Grupo_1063897" data-name="Grupo 1063897" transform="translate(0 -17)">
        <rect id="Rect치ngulo_373435" data-name="Rect치ngulo 373435" width="85" height="85" rx="5" transform="translate(180 446)" fill="#92df98"/>
      </g>
      <g id="g804" transform="translate(184.833 433.834)">
        <g id="g806" transform="translate(0 0)">
          <g id="Grupo_1070114" data-name="Grupo 1070114" transform="translate(0 0)">
            <g id="Grupo_1070113" data-name="Grupo 1070113" clip-path="url(#clip-path)">
              <g id="g808" transform="translate(4.16 0)">
                <g id="g814" transform="translate(44.689 19.422)">
                  <path id="path816" d="M455.163,189.389h-11.6a.893.893,0,0,1-.893-.893v-11.6a.893.893,0,0,1,.893-.893h11.6a.892.892,0,0,1,.893.893v11.6a.892.892,0,0,1-.893.893" transform="translate(-442.666 -176)" fill="#1969d5"/>
                </g>
                <g id="g822" transform="translate(43.586 18.318)">
                  <path id="Trazado_812551" data-name="Trazado 812551" d="M446.267,181.6h-11.6a2,2,0,0,1-2-2V168a2,2,0,0,1,2-2h11.6a2,2,0,0,1,2,2v2.933a1.1,1.1,0,0,1-2.207,0v-2.722H434.874v11.182h11.182v-3.311a1.1,1.1,0,0,1,2.207,0V179.6A2,2,0,0,1,446.267,181.6Z" transform="translate(-432.667 -166)"/>
                </g>
                <g id="g826" transform="translate(5.927 28.024)">
                  <path id="path828" d="M108.878,273.8l7.293-19.844H91.4L98.7,273.8Z" transform="translate(-91.405 -253.954)" fill="#fff0ad"/>
                </g>
                <g id="g830" transform="translate(5.927 28.024)">
                  <path id="path832" d="M91.4,253.954,98.7,273.8h6.2L97.6,253.954Z" transform="translate(-91.405 -253.954)" fill="#ffe177"/>
                </g>
                <g id="g834" transform="translate(4.824 26.921)">
                  <path id="Trazado_812552" data-name="Trazado 812552" d="M99.981,266H89.8a1.1,1.1,0,0,1-1.036-.723l-7.293-19.844a1.1,1.1,0,0,1,1.036-1.484h24.766a1.1,1.1,0,0,1,1.036,1.484l-7.294,19.844A1.1,1.1,0,0,1,99.981,266ZM90.572,263.8h8.639l6.482-17.636h-21.6Z" transform="translate(-81.405 -243.954)"/>
                </g>
                <g id="g838" transform="translate(14.379 55.154)">
                  <path id="path840" d="M173.654,507.062h-3.447A2.207,2.207,0,0,1,168,504.855v-2.846a2.207,2.207,0,0,1,2.207-2.207h3.447a2.207,2.207,0,0,1,2.207,2.207v2.846a2.207,2.207,0,0,1-2.207,2.207" transform="translate(-168 -499.802)" fill="#02c7dd"/>
                </g>
                <g id="g842" transform="translate(13.276 54.05)">
                  <path id="Trazado_812553" data-name="Trazado 812553" d="M164.758,499.27h-3.447A3.314,3.314,0,0,1,158,495.96v-2.846a3.314,3.314,0,0,1,3.311-3.311h3.447a3.314,3.314,0,0,1,3.311,3.311v2.846A3.314,3.314,0,0,1,164.758,499.27Zm-3.447-7.26a1.1,1.1,0,0,0-1.1,1.1v2.846a1.1,1.1,0,0,0,1.1,1.1h3.447a1.1,1.1,0,0,0,1.1-1.1v-2.846a1.1,1.1,0,0,0-1.1-1.1Z" transform="translate(-158 -489.803)"/>
                </g>
                <g id="g846" transform="translate(12.53 50.798)">
                  <path id="path848" d="M162.066,467.587H151.977a.736.736,0,0,1-.736-.736v-5.789a.736.736,0,0,1,.736-.736h10.089a.736.736,0,0,1,.736.736v5.789a.736.736,0,0,1-.736.736" transform="translate(-151.241 -460.327)" fill="#a6e7f0"/>
                </g>
                <g id="g850" transform="translate(11.427 49.694)">
                  <path id="Trazado_812554" data-name="Trazado 812554" d="M153.169,459.794H143.08a1.841,1.841,0,0,1-1.839-1.839v-5.789a1.841,1.841,0,0,1,1.839-1.839h10.089a1.841,1.841,0,0,1,1.839,1.839v5.789A1.841,1.841,0,0,1,153.169,459.794Zm-9.721-2.207H152.8v-5.053h-9.353Z" transform="translate(-141.241 -450.327)"/>
                </g>
                <g id="g854" transform="translate(1.104 7.091)">
                  <path id="path856" d="M82.107,81.467A17.207,17.207,0,1,1,64.9,64.26,17.207,17.207,0,0,1,82.107,81.467" transform="translate(-47.694 -64.26)" fill="#59bee2"/>
                </g>
                <g id="g862" transform="translate(0 5.988)">
                  <path id="Trazado_812555" data-name="Trazado 812555" d="M56,90.881a18.3,18.3,0,1,1,17.05-11.623A1.1,1.1,0,0,1,71,78.452a16.129,16.129,0,1,0-2.423,4.181,1.1,1.1,0,0,1,1.722,1.38A18.233,18.233,0,0,1,56,90.881Z" transform="translate(-37.694 -54.261)"/>
                </g>
                <g id="g866" transform="translate(8.059 22.105)">
                  <path id="Trazado_812556" data-name="Trazado 812556" d="M115.094,209.058a4.371,4.371,0,1,1,4.37-4.371,1.1,1.1,0,0,1-2.207,0,2.164,2.164,0,1,0-2.163,2.164,1.1,1.1,0,0,1,0,2.207Z" transform="translate(-110.723 -200.317)"/>
                </g>
                <g id="g870" transform="translate(19.82 22.105)">
                  <path id="Trazado_812557" data-name="Trazado 812557" d="M221.676,209.059a1.1,1.1,0,1,1,0-2.207,2.164,2.164,0,1,0-2.163-2.164,1.1,1.1,0,0,1-2.207,0,4.371,4.371,0,1,1,4.37,4.371Z" transform="translate(-217.306 -200.318)"/>
                </g>
                <g id="g874" transform="translate(11.326 28.64)">
                  <g id="Grupo_1070110" data-name="Grupo 1070110" transform="translate(0)">
                    <path id="path876" d="M150.329,269.531h11.762" transform="translate(-149.226 -268.427)" fill="#fff"/>
                    <path id="Trazado_812558" data-name="Trazado 812558" d="M153.2,261.738H141.434a1.1,1.1,0,0,1,0-2.207H153.2a1.1,1.1,0,0,1,0,2.207Z" transform="translate(-140.33 -259.531)"/>
                  </g>
                </g>
                <g id="g878" transform="translate(14.593 25.372)">
                  <g id="Grupo_1070111" data-name="Grupo 1070111">
                    <path id="path880" d="M179.935,239.925v22.724" transform="translate(-178.831 -238.821)" fill="#fff"/>
                    <path id="Trazado_812559" data-name="Trazado 812559" d="M171.039,254.857a1.1,1.1,0,0,1-1.1-1.1V231.029a1.1,1.1,0,0,1,2.207,0v22.724A1.1,1.1,0,0,1,171.039,254.857Z" transform="translate(-169.935 -229.925)"/>
                  </g>
                </g>
                <g id="g882" transform="translate(19.82 25.372)">
                  <g id="Grupo_1070112" data-name="Grupo 1070112">
                    <path id="path884" d="M227.306,239.925v22.724" transform="translate(-226.202 -238.821)" fill="#fff"/>
                    <path id="Trazado_812560" data-name="Trazado 812560" d="M218.41,254.857a1.1,1.1,0,0,1-1.1-1.1V231.029a1.1,1.1,0,0,1,2.207,0v22.724A1.1,1.1,0,0,1,218.41,254.857Z" transform="translate(-217.306 -229.925)"/>
                  </g>
                </g>
                <g id="g886" transform="translate(10.323 46.296)">
                  <path id="path888" d="M145.744,426.8H132.712a1.471,1.471,0,0,1-1.471-1.471v-4.318a1.471,1.471,0,0,1,1.471-1.471h13.032a1.471,1.471,0,0,1,1.471,1.471v4.318a1.471,1.471,0,0,1-1.471,1.471" transform="translate(-131.241 -419.536)" fill="#eaf9fa"/>
                </g>
                <g id="g890" transform="translate(9.22 45.193)">
                  <path id="Trazado_812561" data-name="Trazado 812561" d="M136.848,419h-3.384a1.1,1.1,0,0,1,0-2.207h3.384a.368.368,0,0,0,.368-.368v-4.318a.368.368,0,0,0-.368-.368H123.816a.368.368,0,0,0-.368.368v4.318a.368.368,0,0,0,.368.368h4.5a1.1,1.1,0,0,1,0,2.207h-4.5a2.578,2.578,0,0,1-2.575-2.575v-4.318a2.578,2.578,0,0,1,2.575-2.575h13.032a2.578,2.578,0,0,1,2.575,2.575v4.318A2.578,2.578,0,0,1,136.848,419Z" transform="translate(-121.241 -409.536)"/>
                </g>
                <g id="g894" transform="translate(32.2 40.519)">
                  <path id="path896" d="M358.377,384.807a5.167,5.167,0,0,1-3.292-.9.442.442,0,0,0-.7.359v7.075a.736.736,0,0,1-.736.736h-7.075a.442.442,0,0,0-.358.7,5.186,5.186,0,1,1-8.546-.013.44.44,0,0,0-.367-.686h-7.075a.736.736,0,0,1-.736-.736v-5.556a.731.731,0,0,1,.792-.734,5.282,5.282,0,0,0,.826.015,5.186,5.186,0,0,0-.321-10.363q-.245,0-.484.022a.738.738,0,0,1-.813-.731v-6.076a.736.736,0,0,1,.736-.736h5.793a.732.732,0,0,1,.734.752q0,.077,0,.155a5.186,5.186,0,0,0,10.372,0c0-.052,0-.1,0-.155a.732.732,0,0,1,.734-.752h5.793a.736.736,0,0,1,.736.736V375a.44.44,0,0,0,.686.367,5.186,5.186,0,1,1,3.305,9.443" transform="translate(-329.493 -367.186)" fill="#fe9738"/>
                </g>
                <g id="g898" transform="translate(32.2 40.519)">
                  <path id="path900" d="M358.377,384.807a5.167,5.167,0,0,1-3.292-.9.442.442,0,0,0-.7.359v7.075a.736.736,0,0,1-.736.736h-7.075a.442.442,0,0,0-.358.7,5.186,5.186,0,1,1-8.546-.013.44.44,0,0,0-.367-.686h-7.075a.736.736,0,0,1-.736-.736v-5.556a.731.731,0,0,1,.792-.734,5.282,5.282,0,0,0,.826.015,5.186,5.186,0,0,0-.321-10.363q-.245,0-.484.022a.738.738,0,0,1-.813-.731v-6.076a.736.736,0,0,1,.736-.736h5.793a.732.732,0,0,1,.734.752q0,.077,0,.155a5.186,5.186,0,0,0,10.372,0c0-.052,0-.1,0-.155a.732.732,0,0,1,.734-.752h5.793a.736.736,0,0,1,.736.736V375a.44.44,0,0,0,.686.367,5.186,5.186,0,1,1,3.305,9.443" transform="translate(-329.493 -367.186)" fill="#d4f2d7"/>
                </g>
                <g id="g910" transform="translate(31.097 39.416)">
                  <path id="Trazado_812562" data-name="Trazado 812562" d="M333.037,393.1a6.226,6.226,0,0,1-4.285-1.692,6.294,6.294,0,0,1-1.47-7.125h-5.95a1.841,1.841,0,0,1-1.839-1.839v-5.556a1.85,1.85,0,0,1,.6-1.367,1.825,1.825,0,0,1,1.4-.465,4.189,4.189,0,0,0,.653.012,4.083,4.083,0,0,0-.255-8.158c-.127,0-.256.006-.382.018a1.856,1.856,0,0,1-1.419-.475,1.837,1.837,0,0,1-.6-1.355v-6.076a1.841,1.841,0,0,1,1.839-1.839h5.793a1.85,1.85,0,0,1,1.321.559,1.816,1.816,0,0,1,.516,1.331c0,.041,0,.081,0,.122a4.083,4.083,0,0,0,8.165,0c0-.041,0-.082,0-.123a1.814,1.814,0,0,1,.516-1.329,1.851,1.851,0,0,1,1.322-.559h5.793a1.841,1.841,0,0,1,1.839,1.839v5.95a6.29,6.29,0,1,1,2.962,12.036h0a6.263,6.263,0,0,1-2.962-.513v5.949a1.841,1.841,0,0,1-1.839,1.839h-5.949a6.294,6.294,0,0,1-5.32,8.8Q333.26,393.1,333.037,393.1ZM321.7,382.08h6.707a1.544,1.544,0,0,1,1.275,2.417,4.083,4.083,0,1,0,6.729.011,1.546,1.546,0,0,1,1.268-2.427h6.707v-6.707a1.546,1.546,0,0,1,2.427-1.268,4.048,4.048,0,0,0,2.593.7h0a4.083,4.083,0,0,0,2.7-6.858,4.081,4.081,0,0,0-5.3-.576,1.544,1.544,0,0,1-2.417-1.275v-6.707H339.33a6.29,6.29,0,0,1-12.574,0H321.7v5.316a6.308,6.308,0,0,1,4.792,2,6.29,6.29,0,0,1-4.212,10.568c-.193.012-.388.014-.581.009Zm17.63-23.072h0Z" transform="translate(-319.493 -357.186)"/>
                </g>
                <g id="g914" transform="translate(27.848 1.104)">
                  <path id="path916" d="M314.074,22.014A12.013,12.013,0,1,1,302.061,10a12.013,12.013,0,0,1,12.013,12.013" transform="translate(-290.048 -10.001)" fill="#05e39c"/>
                </g>
                <g id="g918" transform="translate(27.848 1.104)">
                  <path id="path920" d="M296.253,22.014a12.017,12.017,0,0,1,8.911-11.606,12.013,12.013,0,1,0,0,23.213,12.017,12.017,0,0,1-8.911-11.606" transform="translate(-290.048 -10.001)" fill="#0ed290"/>
                </g>
                <g id="g922" transform="translate(26.744)">
                  <path id="Trazado_812563" data-name="Trazado 812563" d="M293.165,26.234a13.117,13.117,0,1,1,13.117-13.117A13.132,13.132,0,0,1,293.165,26.234Zm0-24.026a10.91,10.91,0,1,0,10.909,10.909A10.922,10.922,0,0,0,293.165,2.208Z" transform="translate(-280.048 -0.001)"/>
                </g>
                <g id="g926" transform="translate(32.674 8.663)">
                  <path id="Trazado_812564" data-name="Trazado 812564" d="M339.825,88.865h-.014a1.1,1.1,0,0,1-.83-.393l-4.937-5.863a1.1,1.1,0,0,1,1.688-1.422l4.115,4.886,6.382-7.2a1.1,1.1,0,1,1,1.652,1.464l-7.229,8.155A1.1,1.1,0,0,1,339.825,88.865Z" transform="translate(-333.784 -78.503)"/>
                </g>
              </g>
            </g>
          </g>
        </g>
      </g>
    </g>
  </g>
</svg>
