<svg id="Grupo_1067314" data-name="Grupo 1067314" xmlns="http://www.w3.org/2000/svg" xmlns:xlink="http://www.w3.org/1999/xlink" width="479.088" height="334.11" viewBox="0 0 479.088 334.11">
  <defs>
    <clipPath id="clip-path">
      <rect id="Rectángulo_375374" data-name="Rectángulo 375374" width="479.088" height="334.11" fill="none"/>
    </clipPath>
    <clipPath id="clip-path-5">
      <rect id="Rectángulo_375363" data-name="Rectángulo 375363" width="5.086" height="4.095" fill="none"/>
    </clipPath>
    <clipPath id="clip-path-6">
      <rect id="Rectángulo_375364" data-name="Rectángulo 375364" width="23.721" height="2.363" fill="none"/>
    </clipPath>
    <clipPath id="clip-path-7">
      <rect id="Rectángulo_375365" data-name="Rectángulo 375365" width="13.352" height="14.098" fill="none"/>
    </clipPath>
    <clipPath id="clip-path-9">
      <rect id="Rectángulo_375367" data-name="Rectángulo 375367" width="3.822" height="5.389" fill="none"/>
    </clipPath>
    <clipPath id="clip-path-10">
      <rect id="Rectángulo_375368" data-name="Rectángulo 375368" width="15.629" height="13.026" fill="none"/>
    </clipPath>
    <clipPath id="clip-path-11">
      <rect id="Rectángulo_375369" data-name="Rectángulo 375369" width="4.372" height="3.365" fill="none"/>
    </clipPath>
    <clipPath id="clip-path-12">
      <rect id="Rectángulo_375370" data-name="Rectángulo 375370" width="20.139" height="2.162" fill="none"/>
    </clipPath>
    <clipPath id="clip-path-13">
      <rect id="Rectángulo_375371" data-name="Rectángulo 375371" width="18.433" height="18.261" fill="none"/>
    </clipPath>
  </defs>
  <g id="Grupo_1067348" data-name="Grupo 1067348" clip-path="url(#clip-path)">
    <g id="Grupo_1067315" data-name="Grupo 1067315">
      <g id="Grupo_1067314-2" data-name="Grupo 1067314" clip-path="url(#clip-path)">
        <path id="Trazado_808094" data-name="Trazado 808094" d="M479.088,391.569c0,.12-107.256.216-239.533.216-132.323,0-239.556-.1-239.556-.216s107.233-.216,239.556-.216c132.276,0,239.533.1,239.533.216" transform="translate(0 -66.252)" fill="#263238"/>
      </g>
    </g>
    <rect id="Rectángulo_375360" data-name="Rectángulo 375360" width="305.211" height="199.837" transform="translate(92.002 0.242)" fill="#fafafa"/>
    <g id="Grupo_1067317" data-name="Grupo 1067317">
      <g id="Grupo_1067316" data-name="Grupo 1067316" clip-path="url(#clip-path)">
        <path id="Trazado_808095" data-name="Trazado 808095" d="M417.091,17.166c0,.12-68.331.216-152.6.216-84.3,0-152.616-.1-152.616-.216s68.316-.216,152.616-.216c84.271,0,152.6.1,152.6.216" transform="translate(-18.939 -2.869)" fill="#263238"/>
        <path id="Trazado_808096" data-name="Trazado 808096" d="M123.053,9A1.749,1.749,0,1,1,121.3,7.255,1.748,1.748,0,0,1,123.053,9" transform="translate(-20.24 -1.228)" fill="#263238"/>
        <path id="Trazado_808097" data-name="Trazado 808097" d="M130.663,9a1.749,1.749,0,1,1-1.749-1.749A1.748,1.748,0,0,1,130.663,9" transform="translate(-21.528 -1.228)" fill="#263238"/>
        <path id="Trazado_808098" data-name="Trazado 808098" d="M138.274,9a1.749,1.749,0,1,1-1.749-1.749A1.748,1.748,0,0,1,138.274,9" transform="translate(-22.816 -1.228)" fill="#263238"/>
        <rect id="Rectángulo_375361" data-name="Rectángulo 375361" width="104.159" height="5.749" transform="translate(193.893 24.889)" fill="#ebebeb"/>
        <path id="Trazado_808099" data-name="Trazado 808099" d="M402.9,194.036c0-1.3-.063-55.751-.163-144.992l.163.163-273.657.053h-.02l.217-.216c0,51.2-.01,100.248-.014,144.992l-.2-.2,273.677.2-273.677.2h-.2v-.2c0-44.745-.008-93.793-.013-144.992v-.216h.236L402.9,48.88h.164v.164c-.1,89.241-.161,143.691-.163,144.992" transform="translate(-21.84 -8.266)" fill="#263238"/>
        <path id="Trazado_808100" data-name="Trazado 808100" d="M169.805,193.726c-.12,0-.122-32.459-.006-72.49s.307-72.5.426-72.5.122,32.452.007,72.5-.307,72.49-.427,72.489" transform="translate(-28.731 -8.251)" fill="#263238"/>
        <path id="Trazado_808101" data-name="Trazado 808101" d="M218.68,193.868c-.12,0-.122-32.459-.006-72.49s.307-72.5.426-72.5.122,32.452.006,72.5-.307,72.489-.426,72.489" transform="translate(-37.005 -8.275)" fill="#263238"/>
        <path id="Trazado_808102" data-name="Trazado 808102" d="M267.555,194.01c-.12,0-.122-32.46-.006-72.49s.307-72.5.426-72.5.122,32.452.007,72.5-.307,72.489-.427,72.489" transform="translate(-45.279 -8.299)" fill="#263238"/>
        <path id="Trazado_808103" data-name="Trazado 808103" d="M316.431,194.151c-.12,0-.122-32.46-.006-72.49s.307-72.5.426-72.5.122,32.452.007,72.5-.307,72.489-.427,72.489" transform="translate(-53.553 -8.323)" fill="#263238"/>
        <path id="Trazado_808104" data-name="Trazado 808104" d="M365.306,194.293c-.12,0-.122-32.46-.006-72.49s.307-72.5.426-72.5.122,32.452.007,72.5-.307,72.489-.427,72.489" transform="translate(-61.827 -8.347)" fill="#263238"/>
        <path id="Trazado_808105" data-name="Trazado 808105" d="M414.182,194.435c-.12,0-.123-32.46-.007-72.49s.307-72.5.426-72.5.122,32.452.006,72.5-.307,72.489-.425,72.489" transform="translate(-70.102 -8.371)" fill="#263238"/>
        <path id="Trazado_808106" data-name="Trazado 808106" d="M403.014,91.244c0,.12-61.2.216-136.671.216-75.5,0-136.685-.1-136.685-.216s61.185-.216,136.685-.216c75.473,0,136.671.1,136.671.216" transform="translate(-21.95 -15.41)" fill="#263238"/>
        <path id="Trazado_808107" data-name="Trazado 808107" d="M403.014,135.962c0,.12-61.2.216-136.671.216-75.5,0-136.685-.1-136.685-.216s61.185-.216,136.685-.216c75.473,0,136.671.1,136.671.216" transform="translate(-21.95 -22.981)" fill="#263238"/>
        <path id="Trazado_808108" data-name="Trazado 808108" d="M403.014,180.681c0,.12-61.2.216-136.671.216-75.5,0-136.685-.1-136.685-.216s61.185-.216,136.685-.216c75.473,0,136.671.1,136.671.216" transform="translate(-21.95 -30.551)" fill="#263238"/>
        <path id="Trazado_808109" data-name="Trazado 808109" d="M132.293,184.7s-3.239,21.033.127,34.138l32.394-1.18s-6.645-20.926-2.436-31.385Z" transform="translate(-22.159 -31.269)" fill="#ebebeb"/>
        <path id="Trazado_808110" data-name="Trazado 808110" d="M132.733,183.779s.219,25.842,1.533,33.726l32.412-1.534s-2.847-25.4-1.752-32.192Z" transform="translate(-22.47 -31.112)" fill="#59bee2"/>
        <path id="Trazado_808111" data-name="Trazado 808111" d="M161.174,196.838c.007.12-4.856.509-10.862.87s-10.881.557-10.888.439,4.855-.509,10.862-.871,10.88-.557,10.887-.438" transform="translate(-23.603 -33.317)" fill="#fff"/>
        <path id="Trazado_808112" data-name="Trazado 808112" d="M161.184,203.427c.007.12-4.856.509-10.862.87s-10.881.557-10.888.439,4.855-.509,10.862-.871,10.88-.557,10.887-.438" transform="translate(-23.605 -34.432)" fill="#fff"/>
        <path id="Trazado_808113" data-name="Trazado 808113" d="M156.459,209.891a7.657,7.657,0,0,1-1.806.262c-1.119.106-2.666.224-4.377.327s-3.261.172-4.385.2a7.636,7.636,0,0,1-1.823-.044,7.7,7.7,0,0,1,1.805-.262c1.119-.106,2.667-.223,4.378-.326s3.261-.172,4.384-.2a7.676,7.676,0,0,1,1.824.043" transform="translate(-24.389 -35.523)" fill="#fff"/>
        <path id="Trazado_808114" data-name="Trazado 808114" d="M221.648,53.468s-2.66,21.892.706,35L254.2,86.839s-6.677-21.34-2.469-31.8Z" transform="translate(-37.354 -9.052)" fill="#ebebeb"/>
        <path id="Trazado_808115" data-name="Trazado 808115" d="M222,52.542s.219,25.842,1.533,33.726l32.412-1.533s-2.847-25.4-1.752-32.192Z" transform="translate(-37.583 -8.895)" fill="#59bee2"/>
        <path id="Trazado_808116" data-name="Trazado 808116" d="M250.445,65.6c.007.12-4.856.509-10.862.871s-10.881.557-10.888.439,4.855-.508,10.862-.87,10.88-.557,10.887-.439" transform="translate(-38.716 -11.1)" fill="#fff"/>
        <path id="Trazado_808117" data-name="Trazado 808117" d="M250.456,72.191c.007.12-4.856.509-10.862.87s-10.881.558-10.888.439,4.855-.509,10.862-.871,10.88-.557,10.887-.438" transform="translate(-38.718 -12.215)" fill="#fff"/>
        <path id="Trazado_808118" data-name="Trazado 808118" d="M245.731,78.655a7.655,7.655,0,0,1-1.805.262c-1.119.107-2.667.224-4.378.327s-3.261.171-4.385.2a7.636,7.636,0,0,1-1.823-.044,7.7,7.7,0,0,1,1.805-.262c1.119-.106,2.667-.223,4.378-.326s3.261-.172,4.384-.2a7.675,7.675,0,0,1,1.824.043" transform="translate(-39.502 -13.306)" fill="#fff"/>
        <path id="Trazado_808119" data-name="Trazado 808119" d="M273.013,182.957s-2.62,23.935.748,37.041l31.981-1.4s-6.853-23.611-2.644-34.071Z" transform="translate(-46.054 -30.973)" fill="#ebebeb"/>
        <path id="Trazado_808120" data-name="Trazado 808120" d="M273.364,182.031s.219,25.842,1.533,33.726l32.412-1.534s-2.847-25.4-1.752-32.192Z" transform="translate(-46.278 -30.816)" fill="#59bee2"/>
        <path id="Trazado_808121" data-name="Trazado 808121" d="M301.8,195.091c.007.12-4.856.509-10.862.87s-10.881.557-10.887.439,4.856-.509,10.862-.871,10.881-.557,10.888-.438" transform="translate(-47.411 -33.021)" fill="#fff"/>
        <path id="Trazado_808122" data-name="Trazado 808122" d="M301.815,201.68c.007.12-4.856.509-10.862.87s-10.881.557-10.888.439,4.855-.509,10.862-.871,10.88-.557,10.887-.438" transform="translate(-47.412 -34.137)" fill="#fff"/>
        <path id="Trazado_808123" data-name="Trazado 808123" d="M297.09,208.144a7.656,7.656,0,0,1-1.806.262c-1.119.106-2.666.224-4.377.327s-3.261.172-4.385.2a7.638,7.638,0,0,1-1.823-.044,7.7,7.7,0,0,1,1.805-.262c1.119-.106,2.667-.223,4.378-.326s3.261-.172,4.384-.2a7.623,7.623,0,0,1,1.824.043" transform="translate(-48.197 -35.227)" fill="#fff"/>
        <path id="Trazado_808124" data-name="Trazado 808124" d="M419.945,95.292s-3.323,20.549.044,33.655l32.477-.7s-6.645-20.926-2.436-31.385Z" transform="translate(-70.845 -16.132)" fill="#ebebeb"/>
        <path id="Trazado_808125" data-name="Trazado 808125" d="M420.4,94.366s.219,25.842,1.533,33.726l32.412-1.533s-2.847-25.4-1.752-32.193Z" transform="translate(-71.169 -15.975)" fill="#59bee2"/>
        <path id="Trazado_808126" data-name="Trazado 808126" d="M448.837,107.425c.007.12-4.856.509-10.862.87s-10.881.557-10.888.439,4.855-.508,10.862-.87,10.88-.557,10.887-.439" transform="translate(-72.302 -18.18)" fill="#fff"/>
        <path id="Trazado_808127" data-name="Trazado 808127" d="M448.847,114.014c.008.12-4.856.509-10.862.87s-10.881.558-10.888.439,4.855-.509,10.862-.871,10.88-.557,10.887-.438" transform="translate(-72.303 -19.296)" fill="#fff"/>
        <path id="Trazado_808128" data-name="Trazado 808128" d="M444.122,120.479a7.655,7.655,0,0,1-1.805.262c-1.119.106-2.667.224-4.378.326s-3.261.172-4.385.2a7.635,7.635,0,0,1-1.823-.044,7.71,7.71,0,0,1,1.805-.262c1.119-.106,2.667-.223,4.378-.326s3.261-.172,4.384-.2a7.676,7.676,0,0,1,1.824.043" transform="translate(-73.088 -20.386)" fill="#fff"/>
        <path id="Trazado_808129" data-name="Trazado 808129" d="M320.9,140.624s-3.323,20.549.044,33.655l32.477-.7s-6.645-20.926-2.436-31.385Z" transform="translate(-54.078 -23.806)" fill="#ebebeb"/>
        <path id="Trazado_808130" data-name="Trazado 808130" d="M321.356,139.7s.219,25.842,1.533,33.726l32.412-1.533s-2.847-25.4-1.752-32.192Z" transform="translate(-54.402 -23.65)" fill="#59bee2"/>
        <path id="Trazado_808131" data-name="Trazado 808131" d="M349.8,152.757c.008.12-4.856.509-10.862.87s-10.881.557-10.888.439,4.855-.509,10.862-.871,10.88-.557,10.887-.438" transform="translate(-55.535 -25.854)" fill="#fff"/>
        <path id="Trazado_808132" data-name="Trazado 808132" d="M349.807,159.346c.007.12-4.856.509-10.861.87s-10.882.558-10.888.439,4.855-.508,10.862-.87,10.88-.557,10.887-.439" transform="translate(-55.537 -26.97)" fill="#fff"/>
        <path id="Trazado_808133" data-name="Trazado 808133" d="M345.082,165.811a7.654,7.654,0,0,1-1.806.262c-1.119.106-2.666.224-4.377.327s-3.261.171-4.385.2a7.636,7.636,0,0,1-1.823-.044,7.7,7.7,0,0,1,1.805-.262c1.119-.106,2.667-.223,4.378-.327s3.261-.172,4.385-.2a7.623,7.623,0,0,1,1.824.043" transform="translate(-56.321 -28.06)" fill="#fff"/>
        <path id="Trazado_808134" data-name="Trazado 808134" d="M406.168,103.215l-17.21,8.852-8.317-1.18,4.453-7.89,18.15-6.395Z" transform="translate(-64.439 -16.354)" fill="#ebebeb"/>
        <path id="Trazado_808135" data-name="Trazado 808135" d="M379.779,109.08,384,102.294l18.645-6.773,3.746,7.365-18.078,7.221Z" transform="translate(-64.293 -16.171)" fill="#455a64"/>
        <path id="Trazado_808136" data-name="Trazado 808136" d="M402.212,100.79a11.028,11.028,0,0,1-1.808.819c-1.132.464-2.706,1.083-4.448,1.75l-4.478,1.674c-1.139.416-1.888.666-1.843.642-.142-.174,2.692-1.387,6.166-2.721a43.781,43.781,0,0,1,6.412-2.165" transform="translate(-65.96 -17.061)" fill="#fff"/>
        <path id="Trazado_808137" data-name="Trazado 808137" d="M399.58,104.811a25.888,25.888,0,0,1-8.3,3.09,190.592,190.592,0,0,1,8.3-3.09" transform="translate(-66.241 -17.742)" fill="#fff"/>
        <path id="Trazado_808138" data-name="Trazado 808138" d="M132.484,93.872s-2.988,28.938.987,35l30.059-1.854-1.6-32.15Z" transform="translate(-22.246 -15.892)" fill="#e0e0e0"/>
        <path id="Trazado_808139" data-name="Trazado 808139" d="M132.7,93.872s.213,25.175,1.494,32.855l31.574-1.494S163,100.486,164.064,93.872Z" transform="translate(-22.466 -15.892)" fill="#455a64"/>
        <path id="Trazado_808140" data-name="Trazado 808140" d="M149.984,98.151a.448.448,0,0,1,.115-.012l.341-.013a7.73,7.73,0,0,1,1.314.065,7.189,7.189,0,0,1,2.007.6,6.576,6.576,0,0,1,2.186,1.728,7.6,7.6,0,0,1,1.514,3.04,7.339,7.339,0,0,1-.331,3.9,11.473,11.473,0,0,1-.887,1.95,20.794,20.794,0,0,0-1.011,1.97,16.89,16.89,0,0,0-1.276,4.48l-.014.105-.1,0-3.118.05-3.27.051-.115,0,0-.118a9.345,9.345,0,0,0-1.517-4.316c-.379-.646-.793-1.253-1.182-1.867a18.627,18.627,0,0,1-1.109-1.809,6.091,6.091,0,0,1-.494-3.845,8.186,8.186,0,0,1,1.218-3.146,6.088,6.088,0,0,1,2.055-1.85,7.679,7.679,0,0,1,1.939-.749,8.122,8.122,0,0,1,1.289-.21c.149-.008.263-.015.338-.013a.412.412,0,0,1,.115.007.522.522,0,0,1-.114.015l-.336.035a9.5,9.5,0,0,0-1.272.249,7.817,7.817,0,0,0-1.9.774,6,6,0,0,0-1.987,1.832,8.087,8.087,0,0,0-1.163,3.088,5.909,5.909,0,0,0,.5,3.722,18.664,18.664,0,0,0,1.106,1.785c.385.6.807,1.216,1.191,1.867a9.525,9.525,0,0,1,1.558,4.427l-.12-.115,3.27-.053,3.118-.049-.115.106a17.014,17.014,0,0,1,1.3-4.548,20.719,20.719,0,0,1,1.028-1.985,11.376,11.376,0,0,0,.879-1.911,7.16,7.16,0,0,0,.347-3.795,7.475,7.475,0,0,0-1.453-2.978,6.508,6.508,0,0,0-2.117-1.717,7.288,7.288,0,0,0-1.965-.623,8.8,8.8,0,0,0-1.3-.106l-.34-.008a.435.435,0,0,1-.116-.011" transform="translate(-24.194 -16.61)" fill="#fff"/>
        <path id="Trazado_808141" data-name="Trazado 808141" d="M152.267,116.916s-.008-.033-.02-.1-.027-.167-.047-.293c-.04-.262-.1-.64-.172-1.126-.142-.98-.352-2.4-.493-4.165-.033-.442-.065-.9-.082-1.388s-.037-.986-.008-1.509a4.208,4.208,0,0,1,.356-1.579,2.392,2.392,0,0,1,1.2-1.205,1.612,1.612,0,0,1,1.719.326,1.2,1.2,0,0,1,.368.865,1.538,1.538,0,0,1-.323.9,2.055,2.055,0,0,1-.759.613,4.014,4.014,0,0,1-.938.312,11.3,11.3,0,0,1-1.993.232,11.57,11.57,0,0,1-2.005-.1,3.793,3.793,0,0,1-.95-.275,2.45,2.45,0,0,1-.8-.566,1.84,1.84,0,0,1-.458-.845,1.424,1.424,0,0,1,.112-.935,1.273,1.273,0,0,1,.66-.643,1.141,1.141,0,0,1,.9.042,1.7,1.7,0,0,1,.67.571,2.332,2.332,0,0,1,.336.786,9.6,9.6,0,0,1,.159,1.611c.054,1.039.1,2.008.15,2.892.09,1.765.161,3.195.212,4.188.022.491.04.874.052,1.138,0,.127.008.226.011.3s0,.1,0,.1,0-.034-.011-.1-.012-.169-.021-.3c-.017-.264-.04-.647-.071-1.138-.057-.992-.14-2.422-.243-4.185-.05-.885-.1-1.852-.163-2.891a9.5,9.5,0,0,0-.162-1.595,2.258,2.258,0,0,0-.324-.756,1.606,1.606,0,0,0-.636-.538,1.05,1.05,0,0,0-.827-.039,1.18,1.18,0,0,0-.61.6,1.335,1.335,0,0,0-.1.874,1.748,1.748,0,0,0,.435.8,2.852,2.852,0,0,0,1.691.81,11.571,11.571,0,0,0,1.986.095,11.231,11.231,0,0,0,1.975-.229,3.934,3.934,0,0,0,.915-.3,1.972,1.972,0,0,0,.726-.585,1.443,1.443,0,0,0,.3-.847,1.1,1.1,0,0,0-.34-.8,1.519,1.519,0,0,0-1.619-.31,2.305,2.305,0,0,0-1.16,1.159,4.14,4.14,0,0,0-.352,1.547c-.03.517-.011,1.019,0,1.5s.045.945.076,1.386c.132,1.764.332,3.183.462,4.164.066.488.118.867.154,1.13.017.126.029.223.038.294s.01.1.01.1" transform="translate(-24.858 -17.838)" fill="#fff"/>
        <path id="Trazado_808142" data-name="Trazado 808142" d="M148.366,119.408c.016.015.042.392.082,1.049q.059,1.143.14,2.736l-.026-.066,2.125,2.449-.109-.047,2.457-.139-.1.052,1.224-1.494.614-.747-.032.1c-.033-1.44-.065-2.8-.093-4.048l.134.128-4.59.05H148.86a3.657,3.657,0,0,1-.494-.018,2.275,2.275,0,0,1,.438-.042l1.3-.068,4.673-.183.13-.006,0,.133c.037,1.244.078,2.607.121,4.046l0,.054-.034.042-.613.748-1.227,1.492-.041.049-.063,0-2.458.12-.067,0-.042-.05-2.085-2.484-.026-.031V123.2q-.016-1.635-.027-2.805a8.325,8.325,0,0,1,.021-.986" transform="translate(-25.113 -20.164)" fill="#fff"/>
        <path id="Trazado_808143" data-name="Trazado 808143" d="M154.755,123.589a1.413,1.413,0,0,1-.233-.1c-.147-.066-.364-.159-.637-.253a6.22,6.22,0,0,0-4.414.135c-.267.11-.478.214-.621.291a1.406,1.406,0,0,1-.226.112,1.117,1.117,0,0,1,.208-.145,5.019,5.019,0,0,1,.612-.321,5.894,5.894,0,0,1,4.465-.136,5.116,5.116,0,0,1,.631.283,1.116,1.116,0,0,1,.216.133" transform="translate(-25.16 -20.789)" fill="#fff"/>
        <path id="Trazado_808144" data-name="Trazado 808144" d="M154.754,122.406a1.416,1.416,0,0,1-.233-.1c-.147-.066-.364-.158-.637-.252a6.214,6.214,0,0,0-4.414.135c-.267.11-.478.214-.621.291a1.4,1.4,0,0,1-.226.112,1.116,1.116,0,0,1,.208-.145,5.018,5.018,0,0,1,.612-.321,5.9,5.9,0,0,1,4.465-.136,5.169,5.169,0,0,1,.631.283,1.148,1.148,0,0,1,.216.133" transform="translate(-25.16 -20.589)" fill="#fff"/>
        <path id="Trazado_808145" data-name="Trazado 808145" d="M154.684,121.28a1.444,1.444,0,0,1-.233-.1,6.8,6.8,0,0,0-.637-.253,6.214,6.214,0,0,0-4.414.135c-.267.11-.478.214-.621.291a1.411,1.411,0,0,1-.226.112,1.118,1.118,0,0,1,.208-.145,5.019,5.019,0,0,1,.612-.321,5.9,5.9,0,0,1,4.465-.136,5.107,5.107,0,0,1,.631.283,1.114,1.114,0,0,1,.216.133" transform="translate(-25.148 -20.398)" fill="#fff"/>
        <path id="Trazado_808146" data-name="Trazado 808146" d="M227.214,177.051c.048.016-.029.386-.408.829a5.01,5.01,0,0,1-1.818,1.258,5.5,5.5,0,0,1-3.025.557c-.018-.136,1.343-.3,2.853-.954a6.717,6.717,0,0,0,1.771-1.074c.4-.35.565-.645.627-.616" transform="translate(-37.576 -29.973)" fill="#e8505b"/>
        <path id="Trazado_808147" data-name="Trazado 808147" d="M417.049,200.053c0-1.4-.067-77.908-.172-199.837l.172.172L111.863.433h-.024l.216-.217c-.007,71.057-.012,138.682-.017,199.837l-.2-.2,305.21.2-305.21.2h-.2v-.2c0-61.155-.011-128.78-.017-199.837V0h.241L417.049.044h.172V.216c-.1,121.929-.171,198.436-.172,199.837" transform="translate(-18.897)" fill="#263238"/>
        <path id="Trazado_808148" data-name="Trazado 808148" d="M428.57,202.643l-6-10.23-5.7,10.23H336.122v42.22H461.871v-42.22Z" transform="translate(-56.902 -32.574)" fill="#1969d5"/>
        <path id="Trazado_808149" data-name="Trazado 808149" d="M360.727,228.146a6.193,6.193,0,0,0,3.739-5.7,5.821,5.821,0,1,0-11.617-.152,6.184,6.184,0,0,0,3.652,5.815c-8.95,1.271-8.627,10.989-8.627,10.989l21.137.277s.565-9.817-8.285-11.231" transform="translate(-58.892 -36.596)" fill="#fafafa"/>
        <path id="Trazado_808150" data-name="Trazado 808150" d="M455.616,219.748c0,.12-16.049.216-35.843.216s-35.847-.1-35.847-.216,16.046-.216,35.847-.216,35.843.1,35.843.216" transform="translate(-64.995 -37.165)" fill="#fafafa"/>
        <path id="Trazado_808151" data-name="Trazado 808151" d="M455.616,227.5c0,.12-16.049.216-35.843.216s-35.847-.1-35.847-.216,16.046-.216,35.847-.216,35.843.1,35.843.216" transform="translate(-64.995 -38.477)" fill="#fafafa"/>
        <path id="Trazado_808152" data-name="Trazado 808152" d="M455.616,235.247c0,.12-16.049.216-35.843.216s-35.847-.1-35.847-.216,16.046-.216,35.847-.216,35.843.1,35.843.216" transform="translate(-64.995 -39.789)" fill="#fafafa"/>
        <path id="Trazado_808153" data-name="Trazado 808153" d="M419.771,242.917c0,.12-8.025.216-17.922.216s-17.923-.1-17.923-.216,8.023-.216,17.923-.216,17.922.1,17.922.216" transform="translate(-64.995 -41.087)" fill="#fafafa"/>
      </g>
    </g>
    <g id="Grupo_1067328" data-name="Grupo 1067328">
      <g id="Grupo_1067327" data-name="Grupo 1067327" clip-path="url(#clip-path)">
        <path id="Trazado_808154" data-name="Trazado 808154" d="M473.52,106.642a3.869,3.869,0,0,1-.883-3.546c-.894-.467-.975-1.26-.974-2.268a6.188,6.188,0,0,1,.872-2.863,8.3,8.3,0,0,1,3.237-3.547,4.31,4.31,0,0,1,4.6.2,5.583,5.583,0,0,1,7.995-.559,6.129,6.129,0,0,0,1.214,1.1,6.683,6.683,0,0,0,2.687.36,4.713,4.713,0,0,1,3.9,6.544,5.086,5.086,0,0,1,2.162,3.9,14.81,14.81,0,0,1-.521,4.577c-.413,1.855-.884,3.806-2.2,5.179a5.391,5.391,0,0,1-3.447,1.627,5.5,5.5,0,0,1-4.824-2.269" transform="translate(-79.848 -15.682)" fill="#263238"/>
        <path id="Trazado_808155" data-name="Trazado 808155" d="M493.46,139.679,478.568,139c-.084-1.58.722-11.356.722-11.356s-5.628-.875-5.7-6.5.906-18.55.906-18.55a19.557,19.557,0,0,1,19.653,2.471l.834.641Z" transform="translate(-80.174 -17.098)" fill="#b78876"/>
        <path id="Trazado_808156" data-name="Trazado 808156" d="M480.439,132.548a13.09,13.09,0,0,0,7.337-2.085s-1.735,4.05-7.35,3.543Z" transform="translate(-81.332 -22.086)" fill="#aa6550"/>
        <path id="Trazado_808157" data-name="Trazado 808157" d="M498.467,113.64c.1-.042,3.867-1.144,3.743,2.7s-3.96,2.93-3.963,2.819.22-5.523.22-5.523" transform="translate(-84.348 -19.208)" fill="#b78876"/>
        <path id="Trazado_808158" data-name="Trazado 808158" d="M499.717,118c.018-.012.066.049.177.1a.674.674,0,0,0,.5.027,1.66,1.66,0,0,0,.815-1.464,2.216,2.216,0,0,0-.157-.966.775.775,0,0,0-.488-.53.34.34,0,0,0-.4.171c-.056.105-.033.184-.054.189s-.081-.067-.045-.225a.429.429,0,0,1,.159-.236.506.506,0,0,1,.374-.086.943.943,0,0,1,.681.619,2.272,2.272,0,0,1,.2,1.08,1.74,1.74,0,0,1-1.031,1.63.714.714,0,0,1-.609-.121c-.116-.1-.134-.185-.121-.192" transform="translate(-84.597 -19.465)" fill="#aa6550"/>
        <path id="Trazado_808159" data-name="Trazado 808159" d="M476.177,113.382a.8.8,0,0,0,.775.811.768.768,0,0,0,.828-.724.8.8,0,0,0-.774-.812.769.769,0,0,0-.829.725" transform="translate(-80.612 -19.071)" fill="#263238"/>
        <path id="Trazado_808160" data-name="Trazado 808160" d="M475.963,112.27c.1.1.709-.346,1.573-.344s1.5.435,1.593.329c.046-.047-.056-.236-.332-.437a2.2,2.2,0,0,0-1.274-.393,2.118,2.118,0,0,0-1.253.4c-.266.2-.355.393-.306.44" transform="translate(-80.574 -18.863)" fill="#263238"/>
        <path id="Trazado_808161" data-name="Trazado 808161" d="M486.373,113.626a.8.8,0,0,0,.775.811.768.768,0,0,0,.828-.724.8.8,0,0,0-.774-.812.769.769,0,0,0-.829.725" transform="translate(-82.338 -19.113)" fill="#263238"/>
        <path id="Trazado_808162" data-name="Trazado 808162" d="M486.2,112.464c.1.1.709-.346,1.573-.343s1.5.434,1.592.328c.047-.047-.054-.236-.331-.437a2.206,2.206,0,0,0-1.275-.393,2.115,2.115,0,0,0-1.252.4c-.266.2-.356.394-.307.44" transform="translate(-82.306 -18.896)" fill="#263238"/>
        <path id="Trazado_808163" data-name="Trazado 808163" d="M481.973,118.888a5.75,5.75,0,0,0-1.405-.253c-.22-.023-.429-.066-.467-.218a1.128,1.128,0,0,1,.147-.655l.654-1.681a28.986,28.986,0,0,0,1.466-4.4,28.964,28.964,0,0,0-1.817,4.27q-.328.886-.626,1.692a1.293,1.293,0,0,0-.115.866.556.556,0,0,0,.365.323,1.492,1.492,0,0,0,.374.052,5.627,5.627,0,0,0,1.425,0" transform="translate(-81.22 -18.907)" fill="#263238"/>
        <path id="Trazado_808164" data-name="Trazado 808164" d="M484.923,121.077c-.14-.008-.143.93-.946,1.6s-1.8.563-1.81.694c-.012.059.223.183.645.194a2.34,2.34,0,0,0,1.511-.526,2.035,2.035,0,0,0,.733-1.339c.036-.393-.069-.626-.133-.62" transform="translate(-81.626 -20.497)" fill="#263238"/>
        <path id="Trazado_808165" data-name="Trazado 808165" d="M485.93,108.424c.086.235.949.124,1.963.246,1.018.1,1.836.4,1.97.188.06-.1-.083-.321-.414-.549a3.438,3.438,0,0,0-3-.331c-.372.15-.56.336-.523.447" transform="translate(-82.263 -18.245)" fill="#263238"/>
        <path id="Trazado_808166" data-name="Trazado 808166" d="M476.344,109.246c.152.2.748-.007,1.465-.017.716-.035,1.322.131,1.462-.074.061-.1-.034-.3-.3-.483a2.122,2.122,0,0,0-2.358.073c-.253.2-.336.4-.269.5" transform="translate(-80.637 -18.343)" fill="#263238"/>
        <path id="Trazado_808167" data-name="Trazado 808167" d="M495.092,105.01c-.076,1.64.29,3.466,0,5.076-.043.243-.675.893-.731,1.134-.331,1.426-.922,2.036-1.769.566a12.843,12.843,0,0,1-.662-2.775l-1.024-5.2a9,9,0,0,1-4.278,1.015,4.375,4.375,0,0,1-3.657-2.157,4.539,4.539,0,0,1-7.042.924,1.9,1.9,0,0,1-2.506.534,2.25,2.25,0,0,1-.914-2.482c.387-1.374,1.857-2.118,3.226-2.521,5.351-1.575,11.271-.341,16.083,2.483a8.166,8.166,0,0,1,1.942,1.464c.549.6,1.311,1.306,1.334,2.119" transform="translate(-79.978 -16.664)" fill="#263238"/>
        <path id="Trazado_808168" data-name="Trazado 808168" d="M492.752,166l5.754-15.648c-1.194-4.017-5.492-8.366-11.465-9.511a37.777,37.777,0,0,0-5.972-1.144l0,0a11.75,11.75,0,0,1-14.343.175l-.2-.154c-.576.069-1.341.144-2.3.257l-.187.022a14.033,14.033,0,0,0-6.586,2.623l0-.01L427.484,160.5l-17.6-13.377-8.916,6.986s23.055,23.053,25.293,23.6c1.549.38,16.927-8.014,26.243-13.216-.378,5.582-2.464,36.609-2.362,40.85h42.816L493,185.778l-.009-5.326Z" transform="translate(-67.881 -23.65)" fill="#455a64"/>
        <path id="Trazado_808169" data-name="Trazado 808169" d="M491.335,186.356s20.854,9.191,22.848,9.628c6.614,1.452,12.7-4.1,11.73-9.321-.5-2.716-12.237-34.978-12.237-34.978l-8.413,12.52,4.2,16.418L496.773,179Z" transform="translate(-83.178 -25.679)" fill="#455a64"/>
        <path id="Trazado_808170" data-name="Trazado 808170" d="M509.674,199.942a1.641,1.641,0,0,0-.336-.189l-1-.485-3.739-1.746L491.834,191.7l.086.261,2.445-4.37,1.518-2.722-.184.1,15.263,1.5,4.536.406,1.226.091a1.9,1.9,0,0,0,.428.008,1.959,1.959,0,0,0-.421-.079l-1.219-.158-4.525-.521-15.25-1.623-.124-.012-.062.109-1.52,2.721-2.438,4.375-.1.179.186.083,12.821,5.708,3.785,1.645,1.024.427a1.633,1.633,0,0,0,.364.127" transform="translate(-83.205 -31.246)" fill="#263238"/>
        <path id="Trazado_808171" data-name="Trazado 808171" d="M492.751,182.136l1.787-8.692s-21.99-.287-21.748.1,2.324,19.927,2.324,19.927,15.463-.586,14.894-.533Z" transform="translate(-80.039 -29.345)" fill="#263238"/>
        <path id="Trazado_808172" data-name="Trazado 808172" d="M494.7,179.158h0a2.045,2.045,0,0,0-1.912,1.308,4.428,4.428,0,0,1-1.3,2.083c-.956.522-2.608.937-3.477.513s-4.347-3.555-4.955-3.208-1.131,1.131-.522,1.826,3.825,2.782,3.216,3.478-7.389-2.367-8.432-2.1-1.652.911-1.043,1.33,5.216,2.156,5.477,2.765c0,0-6.955-1.825-7.216-1.391s-.7,1.131,0,1.391,6.694,1.826,7.216,2.088a12.638,12.638,0,0,0,2.681.782,28.571,28.571,0,0,1,2.8.888,6.139,6.139,0,0,0,4.326-.115l.7-.288a2.76,2.76,0,0,0,1.715-2.721l-.143-2.372.759-1.955Z" transform="translate(-80.27 -30.33)" fill="#b78876"/>
        <path id="Trazado_808173" data-name="Trazado 808173" d="M511.531,181.893c-.12,0-.216-4.994-.216-11.153s.1-11.155.216-11.155.216,4.993.216,11.155-.1,11.153-.216,11.153" transform="translate(-86.561 -27.016)" fill="#263238"/>
        <path id="Trazado_808174" data-name="Trazado 808174" d="M463.412,153.59a4.736,4.736,0,0,1,.029,1.028c-.022.748-.049,1.682-.081,2.791-.087,2.356-.238,5.608-.43,9.2s-.392,6.842-.558,9.193c-.086,1.106-.159,2.038-.219,2.785a4.665,4.665,0,0,1-.139,1.018,4.624,4.624,0,0,1-.029-1.025c.022-.748.049-1.682.081-2.79.087-2.356.238-5.611.431-9.2s.392-6.843.557-9.2c.086-1.106.159-2.037.218-2.783a4.617,4.617,0,0,1,.139-1.017" transform="translate(-78.209 -26.001)" fill="#263238"/>
        <path id="Trazado_808175" data-name="Trazado 808175" d="M503.142,159.539c0,.12-8.721.216-19.476.216s-19.478-.1-19.478-.216,8.718-.216,19.478-.216,19.476.1,19.476.216" transform="translate(-78.583 -26.972)" fill="#fff"/>
        <path id="Trazado_808176" data-name="Trazado 808176" d="M503.1,162.155c0,.12-8.854.216-19.772.216s-19.773-.1-19.773-.216,8.851-.216,19.773-.216,19.772.1,19.772.216" transform="translate(-78.476 -27.415)" fill="#fff"/>
        <path id="Trazado_808177" data-name="Trazado 808177" d="M503.625,165.508c0,.12-8.722.216-19.477.216s-19.478-.1-19.478-.216,8.719-.216,19.478-.216,19.477.1,19.477.216" transform="translate(-78.664 -27.982)" fill="#fff"/>
        <path id="Trazado_808178" data-name="Trazado 808178" d="M507.152,186.464a45.553,45.553,0,0,1-2.41,4.713,45.807,45.807,0,0,1-2.568,4.63,41.058,41.058,0,0,1,4.978-9.344" transform="translate(-85.012 -31.566)" fill="#263238"/>
        <path id="Trazado_808179" data-name="Trazado 808179" d="M509.974,187.182a39.66,39.66,0,0,1-5.332,9.251,49.573,49.573,0,0,1,2.6-4.662,49.454,49.454,0,0,1,2.728-4.589" transform="translate(-85.43 -31.688)" fill="#263238"/>
        <path id="Trazado_808180" data-name="Trazado 808180" d="M415.547,153.219a34.512,34.512,0,0,1-4.3,4.094,40.6,40.6,0,0,1-4.618,3.741,41.4,41.4,0,0,1,4.333-4.067c1.234-1.078,2.367-2.039,3.2-2.72a8.839,8.839,0,0,1,1.391-1.048" transform="translate(-68.837 -25.938)" fill="#263238"/>
        <path id="Trazado_808181" data-name="Trazado 808181" d="M418,155.054a43.391,43.391,0,0,1-4.362,4.128c-1.241,1.1-2.381,2.073-3.221,2.764A7.21,7.21,0,0,1,408.994,163a7.144,7.144,0,0,1,1.215-1.279c.788-.749,1.9-1.762,3.137-2.86s2.383-2.073,3.226-2.758A7.21,7.21,0,0,1,418,155.054" transform="translate(-69.238 -26.249)" fill="#263238"/>
        <path id="Trazado_808182" data-name="Trazado 808182" d="M469.45,385.876l-.043-7.512,14.071-.17.179,10.989-.872.067c-3.88.262-19.748,1.062-22.353.307-2.906-.843,9.017-3.68,9.017-3.68" transform="translate(-77.87 -64.025)" fill="#727997"/>
        <g id="Grupo_1067320" data-name="Grupo 1067320" transform="translate(400.684 321.016)" opacity="0.4">
          <g id="Grupo_1067319" data-name="Grupo 1067319">
            <g id="Grupo_1067318" data-name="Grupo 1067318" clip-path="url(#clip-path-5)">
              <path id="Trazado_808183" data-name="Trazado 808183" d="M482.34,390.531a4.882,4.882,0,0,1,1.759-3.022,4.746,4.746,0,0,1,3.277-1.062l.051,3.933Z" transform="translate(-482.34 -386.436)"/>
            </g>
          </g>
        </g>
        <g id="Grupo_1067323" data-name="Grupo 1067323" transform="translate(382.067 323.447)" opacity="0.4">
          <g id="Grupo_1067322" data-name="Grupo 1067322">
            <g id="Grupo_1067321" data-name="Grupo 1067321" clip-path="url(#clip-path-6)">
              <path id="Trazado_808184" data-name="Trazado 808184" d="M463.619,389.362s-4.176,1.259-3.644,1.943,16.6.479,23.674-.231l-.026-.314-18.737.4s-.447-1.772-1.267-1.8" transform="translate(-459.928 -389.362)"/>
            </g>
          </g>
        </g>
        <path id="Trazado_808185" data-name="Trazado 808185" d="M483.851,391.03a1.316,1.316,0,0,1-.242.029l-.694.051-2.555.143c-2.159.105-5.145.211-8.443.256s-6.286.019-8.447-.028l-2.559-.074-.7-.032a1.358,1.358,0,0,1-.242-.023,1.384,1.384,0,0,1,.243-.012h.7l2.559.02c2.161.016,5.145.022,8.443-.022s6.279-.132,8.439-.206l2.557-.089.7-.018a1.3,1.3,0,0,1,.243.005" transform="translate(-77.869 -66.197)" fill="#263238"/>
        <path id="Trazado_808186" data-name="Trazado 808186" d="M465.623,391.342a3.725,3.725,0,0,0-1.377-2.183,2.274,2.274,0,0,1,1.377,2.183" transform="translate(-78.592 -65.88)" fill="#263238"/>
        <path id="Trazado_808187" data-name="Trazado 808187" d="M470.714,388.951c-.04.026-.241-.214-.45-.534s-.347-.6-.308-.627.242.214.451.534.346.6.307.627" transform="translate(-79.558 -65.649)" fill="#263238"/>
        <path id="Trazado_808188" data-name="Trazado 808188" d="M472.05,388.286c-.031.035-.255-.11-.5-.325s-.419-.417-.388-.453.255.11.5.325.419.417.388.453" transform="translate(-79.763 -65.601)" fill="#263238"/>
        <path id="Trazado_808189" data-name="Trazado 808189" d="M472.779,386.822a3.233,3.233,0,1,1-.737-.067,1.658,1.658,0,0,1,.737.067" transform="translate(-79.788 -65.474)" fill="#263238"/>
        <path id="Trazado_808190" data-name="Trazado 808190" d="M473.023,385.7a2.074,2.074,0,0,1-1.664.147,4.492,4.492,0,0,1,.832-.068,4.557,4.557,0,0,1,.832-.079" transform="translate(-79.797 -65.293)" fill="#263238"/>
        <path id="Trazado_808191" data-name="Trazado 808191" d="M469.734,387.465a2.616,2.616,0,0,1-.9.006,5.256,5.256,0,0,1-.965-.2,2.608,2.608,0,0,1-.553-.22.486.486,0,0,1-.228-.277.356.356,0,0,1,.132-.363,1.657,1.657,0,0,1,2.057.459,1.612,1.612,0,0,1,.3.6.5.5,0,0,1,.027.243,2.562,2.562,0,0,0-.421-.766,1.634,1.634,0,0,0-.779-.492,1.4,1.4,0,0,0-1.077.087c-.142.108-.084.276.076.369a2.682,2.682,0,0,0,.512.211,6.085,6.085,0,0,0,.934.23c.543.09.888.086.888.114" transform="translate(-79.071 -65.384)" fill="#263238"/>
        <path id="Trazado_808192" data-name="Trazado 808192" d="M469.971,387.417a.9.9,0,0,1-.112-.626,1.477,1.477,0,0,1,.238-.664.909.909,0,0,1,.747-.471.36.36,0,0,1,.284.415.989.989,0,0,1-.149.405,2.71,2.71,0,0,1-.42.553,1.311,1.311,0,0,1-.513.372c-.016-.022.179-.164.424-.454a3.185,3.185,0,0,0,.372-.547c.121-.193.2-.537-.025-.576-.227-.018-.455.209-.592.391a1.489,1.489,0,0,0-.247.591,3.265,3.265,0,0,0-.007.61" transform="translate(-79.542 -65.288)" fill="#263238"/>
        <path id="Trazado_808193" data-name="Trazado 808193" d="M487.3,386.384c0,.032-.4-.033-1.038.05a4.409,4.409,0,0,0-3.648,2.985c-.207.606-.223,1.011-.254,1.008a.836.836,0,0,1,0-.284,3.71,3.71,0,0,1,.144-.76,4.276,4.276,0,0,1,3.75-3.068,3.623,3.623,0,0,1,.774.01.821.821,0,0,1,.277.06" transform="translate(-81.658 -65.397)" fill="#263238"/>
        <path id="Trazado_808194" data-name="Trazado 808194" d="M486.46,379.375a49.147,49.147,0,0,1,.147,5.782,49.124,49.124,0,0,1-.147-5.782" transform="translate(-82.346 -64.225)" fill="#263238"/>
        <path id="Trazado_808195" data-name="Trazado 808195" d="M479.35,389.737a11.552,11.552,0,0,1-4.111.091c0-.05.923,0,2.056-.032s2.048-.109,2.055-.06" transform="translate(-80.453 -65.976)" fill="#263238"/>
        <path id="Trazado_808196" data-name="Trazado 808196" d="M483.427,389.692c.035.034-.072.2-.164.408s-.14.4-.189.4-.076-.222.032-.465.289-.373.32-.34" transform="translate(-81.773 -65.97)" fill="#263238"/>
        <path id="Trazado_808197" data-name="Trazado 808197" d="M484.632,388.119c.034.032-.055.18-.2.33s-.288.244-.322.211.055-.18.2-.329.287-.244.322-.212" transform="translate(-81.954 -65.704)" fill="#263238"/>
        <path id="Trazado_808198" data-name="Trazado 808198" d="M486.357,387.37c-.009.048-.2.049-.4.124s-.353.188-.39.156.077-.228.334-.316.472-.007.459.036" transform="translate(-82.2 -65.565)" fill="#263238"/>
        <path id="Trazado_808199" data-name="Trazado 808199" d="M487.7,387.028c.017.044-.062.117-.179.164s-.224.049-.243.006.063-.117.179-.164.225-.05.243-.006" transform="translate(-82.492 -65.515)" fill="#263238"/>
        <path id="Trazado_808200" data-name="Trazado 808200" d="M522.839,381.693l1.342,5.633s9.212,11.965,12.053,11.38c1.862-.384-.426-3.506-3.93-12.594l-.735-3.754Z" transform="translate(-88.512 -64.617)" fill="#727997"/>
        <path id="Trazado_808201" data-name="Trazado 808201" d="M536.846,397.811a1.2,1.2,0,0,1-.492.471,1.706,1.706,0,0,1-1.764-.245,51.335,51.335,0,0,1-4.584-4.345c-1.706-1.79-3.139-3.511-4.147-4.78l-1.176-1.517-.319-.413a.753.753,0,0,0-.12-.138.775.775,0,0,0,.093.157l.294.432c.26.372.646.9,1.136,1.55a59.429,59.429,0,0,0,4.119,4.823,44.91,44.91,0,0,0,4.64,4.328,2.175,2.175,0,0,0,1.04.382,1.511,1.511,0,0,0,.818-.178,1.033,1.033,0,0,0,.387-.36.515.515,0,0,0,.074-.169" transform="translate(-88.749 -65.489)" fill="#263238"/>
        <path id="Trazado_808202" data-name="Trazado 808202" d="M537.037,395.4a1.493,1.493,0,0,0-.758-.084,3.956,3.956,0,0,0-1.736.6,3.179,3.179,0,0,0-1.262,1.334,1.648,1.648,0,0,0-.2.736c.028.007.087-.28.3-.683a3.386,3.386,0,0,1,1.245-1.246,4.371,4.371,0,0,1,1.661-.627c.454-.064.741,0,.745-.033" transform="translate(-90.245 -66.922)" fill="#263238"/>
        <path id="Trazado_808203" data-name="Trazado 808203" d="M526.723,390.88a.953.953,0,0,0,.11-.269,5.017,5.017,0,0,0,.181-.772,4.188,4.188,0,0,0-.429-2.562,3.958,3.958,0,0,0-1.862-1.81,3.078,3.078,0,0,0-.761-.234.83.83,0,0,0-.291-.018,6.407,6.407,0,0,1,1,.359,4.07,4.07,0,0,1,1.764,1.779,4.327,4.327,0,0,1,.461,2.472c-.075.653-.2,1.048-.175,1.056" transform="translate(-88.653 -65.212)" fill="#263238"/>
        <path id="Trazado_808204" data-name="Trazado 808204" d="M523.544,382.844c-.041.015.168.8.34,1.8a6.136,6.136,0,0,0,.48,1.772c.036-.014-.149-.8-.316-1.8a5.977,5.977,0,0,0-.5-1.766" transform="translate(-88.63 -64.812)" fill="#263238"/>
        <path id="Trazado_808205" data-name="Trazado 808205" d="M533.969,387.956a2.772,2.772,0,0,0-2.249.518c.025.043.486-.2,1.1-.343s1.141-.125,1.144-.175" transform="translate(-90.015 -65.666)" fill="#263238"/>
        <path id="Trazado_808206" data-name="Trazado 808206" d="M534.275,389.112a1.873,1.873,0,0,0-1.869.444c.028.04.4-.2.912-.319s.95-.076.957-.125" transform="translate(-90.131 -65.857)" fill="#263238"/>
        <path id="Trazado_808207" data-name="Trazado 808207" d="M535.153,390.553a1.511,1.511,0,0,0-1.9.432,4.341,4.341,0,0,1,.91-.4,4.284,4.284,0,0,1,1-.029" transform="translate(-90.273 -66.087)" fill="#263238"/>
        <path id="Trazado_808208" data-name="Trazado 808208" d="M532.981,387.011c.006-.027-.425-.116-1.082-.37a8.26,8.26,0,0,1-1.111-.534c-.2-.115-.407-.247-.611-.391-.187-.14-.394-.343-.386-.561s.28-.338.491-.284a1.336,1.336,0,0,1,.569.38c.339.32.629.625.864.887.47.527.733.879.753.864a1.018,1.018,0,0,0-.156-.267c-.111-.164-.281-.4-.508-.673a11.59,11.59,0,0,0-.846-.921,1.462,1.462,0,0,0-.639-.428.537.537,0,0,0-.694.434.921.921,0,0,0,.457.7,7.151,7.151,0,0,0,.632.393,7.259,7.259,0,0,0,1.146.512,6.325,6.325,0,0,0,.815.222.991.991,0,0,0,.308.037" transform="translate(-89.66 -65.125)" fill="#263238"/>
        <path id="Trazado_808209" data-name="Trazado 808209" d="M533.081,386.725c.027,0,.065-.4.169-1.029a4.3,4.3,0,0,1,.314-1.065,2.274,2.274,0,0,1,.343-.542c.141-.16.355-.3.527-.2s.2.353.17.562a2.53,2.53,0,0,1-.179.618,3.542,3.542,0,0,1-.6.927c-.427.474-.761.7-.742.725a.808.808,0,0,0,.243-.144,4.241,4.241,0,0,0,.585-.5,3.378,3.378,0,0,0,.655-.945,2.6,2.6,0,0,0,.2-.66.7.7,0,0,0-.252-.727.611.611,0,0,0-.728.232,2.374,2.374,0,0,0-.362.588,4.045,4.045,0,0,0-.291,1.111c-.041.323-.053.584-.061.765a.908.908,0,0,0,.008.282" transform="translate(-90.244 -64.956)" fill="#263238"/>
        <g id="Grupo_1067326" data-name="Grupo 1067326" transform="translate(435.019 320.002)" opacity="0.4">
          <g id="Grupo_1067325" data-name="Grupo 1067325">
            <g id="Grupo_1067324" data-name="Grupo 1067324" clip-path="url(#clip-path-7)">
              <path id="Trazado_808210" data-name="Trazado 808210" d="M524.321,387.922l-.649-2.707s2.257.418,2.843,2.108a7.091,7.091,0,0,1,.44,2.892l4.907,5.284s1.231-2.4,3.461-1.827c0,0,1.754,3.857,1.7,4.825-.059,1.062-1.179.85-1.578.669a19.849,19.849,0,0,1-4.393-3.467c-2.6-2.7-5.471-6.118-6.73-7.775" transform="translate(-523.672 -385.215)"/>
            </g>
          </g>
        </g>
        <path id="Trazado_808211" data-name="Trazado 808211" d="M459.953,214.255l6.707,141.833,18.413.439-1.45-122.981,27.549,123.21,14.791-.668-23.7-141.547Z" transform="translate(-77.866 -36.271)" fill="#263238"/>
        <path id="Trazado_808212" data-name="Trazado 808212" d="M483.009,216.558a14.019,14.019,0,0,0,.166,2.332c.152,1.435.388,3.413.672,5.595a23.328,23.328,0,0,0,.513,3.084,4.337,4.337,0,0,0,1.351,2.2,3.371,3.371,0,0,0,1.563.768,1.264,1.264,0,0,0,.637.013,3.939,3.939,0,0,1-3.208-3.081,27.285,27.285,0,0,1-.473-3.037c-.284-2.181-.563-4.154-.784-5.58a13.99,13.99,0,0,0-.437-2.3" transform="translate(-81.766 -36.661)" fill="#455a64"/>
        <path id="Trazado_808213" data-name="Trazado 808213" d="M488.138,217.495c-.049.033.121.266,0,.635a.743.743,0,0,1-.384.457.663.663,0,0,1-.837-.792.743.743,0,0,1,.435-.409c.36-.137.6.021.633-.03.047-.019-.19-.329-.706-.233a.968.968,0,0,0-.691.536.991.991,0,0,0,1.319,1.248.969.969,0,0,0,.5-.719c.067-.521-.255-.74-.272-.693" transform="translate(-82.363 -36.754)" fill="#455a64"/>
        <path id="Trazado_808214" data-name="Trazado 808214" d="M502.474,219.715a4.127,4.127,0,0,0-.274-3.927c-.1.043.181.884.25,1.955s-.086,1.943.024,1.971" transform="translate(-85.014 -36.531)" fill="#455a64"/>
        <path id="Trazado_808215" data-name="Trazado 808215" d="M499.339,219.364a4.787,4.787,0,0,0-.135-4.088,17.934,17.934,0,0,0,.14,2.042,17.948,17.948,0,0,0-.005,2.046" transform="translate(-84.506 -36.444)" fill="#455a64"/>
        <path id="Trazado_808216" data-name="Trazado 808216" d="M472.015,219.02a12.907,12.907,0,0,0-.046-2.121,12.886,12.886,0,0,0-.017-2.121,5.812,5.812,0,0,0,.062,4.242" transform="translate(-79.834 -36.36)" fill="#455a64"/>
        <path id="Trazado_808217" data-name="Trazado 808217" d="M468.541,218.683c.106-.041-.2-.974-.233-2.16s.2-2.137.091-2.171a4.557,4.557,0,0,0,.142,4.331" transform="translate(-79.214 -36.288)" fill="#455a64"/>
        <path id="Trazado_808218" data-name="Trazado 808218" d="M498.144,139.444h0" transform="translate(-84.331 -23.607)" fill="#e8505b"/>
        <path id="Trazado_808219" data-name="Trazado 808219" d="M406.072,147.909s-3.4-5.749-4.2-6.352-7.939-3.082-8.541-2.881-9.173,1.812-8.169,2.815,6.979-.2,6.979-.2l.811.389s-5.164.91-6.243,1.559c-.994.6-.63,1.818.317,1.7s5.43-1.059,5.7-.879-4.874,1.3-5.424,1.632c-.741.454-.793,1.785.149,1.7.556-.047,5.4-1.385,5.4-1.385a41.6,41.6,0,0,0-4.185,1.895c-.574.562-.1,1.4.735,1.2.572-.136,3.277-1.481,4.043-1.661,0,0,.722.18,1.4,1.622s4.267,4.3,4.267,4.3Z" transform="translate(-65.19 -23.475)" fill="#b78876"/>
        <path id="Trazado_808220" data-name="Trazado 808220" d="M385.2,141.99a3.974,3.974,0,0,0,1.573.407,9.248,9.248,0,0,0,1.772.044c.656-.084,1.372-.2,2.126-.314l1.6-.261-.1-.008a23.243,23.243,0,0,0,3.726,1.1,23.051,23.051,0,0,0-3.6-1.467l-.042-.015-.055.008-1.587.242-2.1.343a11.489,11.489,0,0,1-1.715.042c-.981-.051-1.583-.183-1.6-.122" transform="translate(-65.21 -23.951)" fill="#aa6550"/>
        <path id="Trazado_808221" data-name="Trazado 808221" d="M376,137.167s-6.2,18.8-8.278,22.6l21.1,6.449,3.836-2.448s5.124-15.141,5.775-20.225Z" transform="translate(-62.252 -23.221)" fill="#455a64"/>
        <path id="Trazado_808222" data-name="Trazado 808222" d="M394.24,168.345l-1.115,3.145,3.837-2.449Z" transform="translate(-66.552 -28.499)" fill="#263238"/>
        <path id="Trazado_808223" data-name="Trazado 808223" d="M394.536,151.643a15.054,15.054,0,0,1-2.363-.742l-5.641-1.937-5.669-1.858a15.172,15.172,0,0,1-2.332-.835,13.106,13.106,0,0,1,2.419.542c1.478.4,3.5,1,5.719,1.741s4.193,1.487,5.611,2.062a13.142,13.142,0,0,1,2.256,1.028" transform="translate(-64.082 -24.761)" fill="#fff"/>
        <path id="Trazado_808224" data-name="Trazado 808224" d="M392.5,156.817a12.2,12.2,0,0,1-2.318-.52c-1.416-.381-3.358-.954-5.483-1.652s-4.029-1.388-5.395-1.921a12.263,12.263,0,0,1-2.175-.956,13.736,13.736,0,0,1,2.278.669l5.427,1.8L390.273,156a13.611,13.611,0,0,1,2.23.813" transform="translate(-63.845 -25.692)" fill="#fff"/>
        <path id="Trazado_808225" data-name="Trazado 808225" d="M390.2,161.468a63.68,63.68,0,0,1-7.1-2.165,63.683,63.683,0,0,1-6.96-2.574,127.417,127.417,0,0,1,14.057,4.739" transform="translate(-63.677 -26.531)" fill="#fff"/>
        <path id="Trazado_808226" data-name="Trazado 808226" d="M405.688,149.643a1.713,1.713,0,0,1-2,.031c-.619-.358-1.1-.915-1.689-1.318-1.769-1.2-4.281-.869-5.99-2.154-.238-.179-.475-.475-.351-.746.115-.251.452-.285.728-.283l7.083.053" transform="translate(-66.976 -24.576)" fill="#b78876"/>
        <path id="Trazado_808227" data-name="Trazado 808227" d="M403.43,145.187a2.832,2.832,0,0,0-.765-.085c-.493-.027-1.206-.055-2.088-.08l-3.1-.066-.9-.013a1.406,1.406,0,0,0-1.036.233.6.6,0,0,0-.1.661,1.23,1.23,0,0,0,.363.452,4.631,4.631,0,0,0,.9.533,27.172,27.172,0,0,0,3.685.988,5.36,5.36,0,0,1,1.465.637c.415.273.765.608,1.12.883a2.491,2.491,0,0,0,2,.67c.522-.11.689-.4.67-.4a2.07,2.07,0,0,1-.693.242,2.415,2.415,0,0,1-1.8-.737c-.331-.278-.67-.629-1.114-.939a5.494,5.494,0,0,0-1.544-.716,31.722,31.722,0,0,1-3.624-1,4.4,4.4,0,0,1-.813-.479c-.232-.181-.349-.429-.225-.527.119-.129.444-.126.748-.121h.9l3.1-.021c.881-.012,1.6-.028,2.088-.048a2.828,2.828,0,0,0,.767-.073" transform="translate(-66.935 -24.537)" fill="#aa6550"/>
      </g>
    </g>
    <g id="Grupo_1067345" data-name="Grupo 1067345">
      <g id="Grupo_1067344" data-name="Grupo 1067344" clip-path="url(#clip-path)">
        <path id="Trazado_808228" data-name="Trazado 808228" d="M208.44,107.983a6.452,6.452,0,0,0-2.637-6.461,6.947,6.947,0,0,0-7.028-.367,7.529,7.529,0,0,0-3.879,5.937c-.238,2.779,1.018,5.435,2.093,8.008s2,5.46,1.111,8.1c-.736,2.18-2.568,3.766-4.139,5.445a11.116,11.116,0,0,0-3.11,5.348A5.067,5.067,0,0,0,193.1,139.4a3,3,0,0,1,1.177.768c.511.731-.027,1.7-.375,2.518a5.735,5.735,0,0,0-.192,3.9,6.8,6.8,0,0,0,6.828,4.409,9.558,9.558,0,0,0,7.174-4.448,16.434,16.434,0,0,0,2.412-8.308,62.239,62.239,0,0,0-.488-8.733c-.681-7.3,2.727-14.841,3.093-22.16" transform="translate(-32.293 -16.992)" fill="#263238"/>
        <path id="Trazado_808229" data-name="Trazado 808229" d="M218.673,153.02h0a7.3,7.3,0,0,0,7.856-7c.153-3.977.286-7.994.286-7.994s6.024-.565,6.461-6.526.237-19.724.237-19.724a20.771,20.771,0,0,0-20.994,1.35l.371,20.981v11.288c.04,3.786,2.008,7.337,5.783,7.627" transform="translate(-35.977 -18.546)" fill="#ffbe9d"/>
        <path id="Trazado_808230" data-name="Trazado 808230" d="M226.7,123.2a3.056,3.056,0,0,0-4.074-.89,3.466,3.466,0,0,0-1.155,4.333,4.568,4.568,0,0,0,2.925,2.211,2.289,2.289,0,0,1,1.793,2.465,7.631,7.631,0,0,1-2.093,4.152,11,11,0,0,1-6.9,3.27c-2.539.3-5.448-.229-6.926-2.316-1.075-1.519-1.152-3.5-1.19-5.364q-.137-6.593-.273-13.187a18.892,18.892,0,0,1,.3-4.731,6.35,6.35,0,0,1,2.5-3.913c1.45-.954,3.287-1.036,4.939-1.57,2.064-.668,3.818-2.038,5.75-3.025s4.3-1.579,6.239-.606c1.392.7,2.325,2.088,3.679,2.858,1.927,1.1,4.551.847,5.487,3.682a4.8,4.8,0,0,1-.032,3.031c-1.307,3.857-6.084,5.412-9.524,3.745-.068.654.575,2.108-.113,4.171-.219.66-.3,1.665-1.328,1.684" transform="translate(-35.346 -17.527)" fill="#263238"/>
        <path id="Trazado_808231" data-name="Trazado 808231" d="M209.316,137.306a17.884,17.884,0,0,1-.97-24.941" transform="translate(-34.493 -19.022)" fill="#263238"/>
        <path id="Trazado_808232" data-name="Trazado 808232" d="M214.015,139.415a.754.754,0,0,1-.3.085,3.25,3.25,0,0,1-.9.012,5.066,5.066,0,0,1-2.92-1.52,15,15,0,0,1-2.628-4.125,26.541,26.541,0,0,1-1.966-5.647,21.546,21.546,0,0,1-.505-5.964,18.935,18.935,0,0,1,.91-4.8,15.662,15.662,0,0,1,1.344-3,8.674,8.674,0,0,1,.483-.753c.118-.167.186-.25.2-.242a26.636,26.636,0,0,0-1.734,4.092,19.856,19.856,0,0,0-.8,4.732,22.074,22.074,0,0,0,.529,5.849,27.592,27.592,0,0,0,1.9,5.572,15.44,15.44,0,0,0,2.485,4.08,5.1,5.1,0,0,0,2.727,1.568,8.086,8.086,0,0,0,1.182.07" transform="translate(-34.663 -19.206)" fill="#455a64"/>
        <path id="Trazado_808233" data-name="Trazado 808233" d="M208.463,113.109c.065-.032.533.863,1.43,2.215a28.486,28.486,0,0,0,9.052,8.685c1.387.841,2.3,1.271,2.27,1.337a2.281,2.281,0,0,1-.676-.227,16.672,16.672,0,0,1-1.747-.845,24.552,24.552,0,0,1-9.159-8.786,16.977,16.977,0,0,1-.915-1.712,2.25,2.25,0,0,1-.255-.666" transform="translate(-35.29 -19.148)" fill="#455a64"/>
        <path id="Trazado_808234" data-name="Trazado 808234" d="M220.254,122.233a7.69,7.69,0,0,1-1.928-.959,22.03,22.03,0,0,1-7.29-7.324,7.679,7.679,0,0,1-.951-1.933,17.139,17.139,0,0,1,1.209,1.768,27.3,27.3,0,0,0,7.2,7.232,17.2,17.2,0,0,1,1.762,1.216" transform="translate(-35.565 -18.963)" fill="#455a64"/>
        <path id="Trazado_808235" data-name="Trazado 808235" d="M228.244,122.009a3.072,3.072,0,0,1-.825-.062,16.53,16.53,0,0,1-2.209-.455,23.034,23.034,0,0,1-12.184-8.159,16.488,16.488,0,0,1-1.261-1.869,3,3,0,0,1-.371-.739c.067-.041.674.965,1.872,2.417A25.311,25.311,0,0,0,225.3,121.2c1.8.555,2.961.733,2.948.811" transform="translate(-35.787 -18.744)" fill="#455a64"/>
        <path id="Trazado_808236" data-name="Trazado 808236" d="M201.242,145.654c-.019-.014.121-.167.263-.517a2.649,2.649,0,0,0,.068-1.612,3.92,3.92,0,0,0-1.429-2.109c-.782-.66-1.843-1.173-2.945-1.906a6.468,6.468,0,0,1-1.548-1.406,3.9,3.9,0,0,1-.792-2.147,7.27,7.27,0,0,1,1.737-4.614,25.752,25.752,0,0,0,3.158-4.323,9.787,9.787,0,0,0,.628-5.572,25.986,25.986,0,0,0-1.6-5.528,42.834,42.834,0,0,1-1.73-5.153,8.587,8.587,0,0,1-.057-4.939,3.609,3.609,0,0,1,1.465-1.766,2.684,2.684,0,0,1,2.1-.276,6.492,6.492,0,0,1,2.859,2.111c.673.773,1.257,1.444,1.748,2.006l1.09,1.28a2.938,2.938,0,0,1,.358.465,3.018,3.018,0,0,1-.423-.407l-1.151-1.225-1.8-1.956a6.343,6.343,0,0,0-2.758-1.978,2.373,2.373,0,0,0-1.849.267,3.27,3.27,0,0,0-1.3,1.609,8.3,8.3,0,0,0,.11,4.715,43.5,43.5,0,0,0,1.739,5.1,26.05,26.05,0,0,1,1.628,5.617,10.167,10.167,0,0,1-.673,5.812,25.467,25.467,0,0,1-3.225,4.385,6.934,6.934,0,0,0-1.7,4.353,3.564,3.564,0,0,0,.7,1.966,6.216,6.216,0,0,0,1.455,1.353,33.627,33.627,0,0,1,2.927,1.974,4.05,4.05,0,0,1,1.435,2.256,2.627,2.627,0,0,1-.152,1.684,1.433,1.433,0,0,1-.342.483" transform="translate(-32.987 -17.553)" fill="#455a64"/>
        <path id="Trazado_808237" data-name="Trazado 808237" d="M183.374,382.961l4.051-4.928-9.183-7.648-6,7.147.538.51c2.417,2.251,12.447,11.275,14.567,12.173,2.367,1-3.972-7.255-3.972-7.255" transform="translate(-29.159 -62.703)" fill="#809299"/>
        <g id="Grupo_1067331" data-name="Grupo 1067331" transform="translate(143.199 312.141)" opacity="0.5">
          <g id="Grupo_1067330" data-name="Grupo 1067330">
            <g id="Grupo_1067329" data-name="Grupo 1067329" clip-path="url(#clip-path-9)">
              <path id="Trazado_808238" data-name="Trazado 808238" d="M175.653,381.141a4.14,4.14,0,0,0,.458-2.933,4.024,4.024,0,0,0-1.59-2.456l-2.139,2.564Z" transform="translate(-172.382 -375.753)" fill="#fff"/>
            </g>
          </g>
        </g>
        <g id="Grupo_1067334" data-name="Grupo 1067334" transform="translate(143.081 314.636)" opacity="0.4">
          <g id="Grupo_1067333" data-name="Grupo 1067333">
            <g id="Grupo_1067332" data-name="Grupo 1067332" clip-path="url(#clip-path-10)">
              <path id="Trazado_808239" data-name="Trazado 808239" d="M186.358,388.547s2.078,3.066,1.362,3.232-11.195-8.571-15.479-12.83l.185-.193,12.136,10.3s1.244-.929,1.8-.506" transform="translate(-172.24 -378.756)" fill="#fff"/>
            </g>
          </g>
        </g>
        <path id="Trazado_808240" data-name="Trazado 808240" d="M172.295,378.6a1.1,1.1,0,0,0,.144.149l.43.405,1.608,1.463c1.367,1.225,3.277,2.893,5.426,4.689s4.133,3.379,5.582,4.5l1.725,1.322.476.351a1.145,1.145,0,0,0,.172.115,1.16,1.16,0,0,0-.155-.138l-.459-.373-1.7-1.357c-1.432-1.146-3.4-2.741-5.552-4.536s-4.068-3.45-5.452-4.655l-1.638-1.428-.449-.385a1.132,1.132,0,0,0-.163-.127" transform="translate(-29.168 -64.094)" fill="#263238"/>
        <path id="Trazado_808241" data-name="Trazado 808241" d="M186.925,391.16a4.864,4.864,0,0,1,.975-.537,4.935,4.935,0,0,1,1.1-.165,1.931,1.931,0,0,0-2.077.7" transform="translate(-31.644 -66.087)" fill="#263238"/>
        <path id="Trazado_808242" data-name="Trazado 808242" d="M185.045,386.872a1.262,1.262,0,0,0,.583-.11c.31-.1.551-.211.538-.249a1.254,1.254,0,0,0-.582.111c-.31.1-.552.21-.539.248" transform="translate(-31.326 -65.431)" fill="#263238"/>
        <path id="Trazado_808243" data-name="Trazado 808243" d="M184.545,385.71c0,.04.227.064.5.054s.5-.051.5-.091-.227-.064-.5-.053-.5.051-.5.091" transform="translate(-31.242 -65.281)" fill="#263238"/>
        <path id="Trazado_808244" data-name="Trazado 808244" d="M184.849,384.214c-.026.031.165.237.428.46s.5.38.522.35-.165-.236-.428-.46-.5-.38-.522-.35" transform="translate(-31.293 -65.043)" fill="#263238"/>
        <path id="Trazado_808245" data-name="Trazado 808245" d="M185.267,383.317a1.753,1.753,0,0,0,1.018.988c.022-.036-.236-.221-.512-.49s-.47-.52-.506-.5" transform="translate(-31.363 -64.892)" fill="#263238"/>
        <path id="Trazado_808246" data-name="Trazado 808246" d="M186.214,386.26a2.218,2.218,0,0,0,.593.488,4.446,4.446,0,0,0,.743.385,2.265,2.265,0,0,0,.483.152.416.416,0,0,0,.3-.061.3.3,0,0,0,.107-.311,1.409,1.409,0,0,0-1.6-.8,1.379,1.379,0,0,0-.521.233c-.108.081-.154.14-.148.146a2.162,2.162,0,0,1,.688-.278,1.382,1.382,0,0,1,.777.092,1.188,1.188,0,0,1,.663.634c.036.148-.092.228-.248.2a2.3,2.3,0,0,1-.449-.135,5.271,5.271,0,0,1-.739-.349c-.405-.232-.63-.419-.645-.4" transform="translate(-31.517 -65.36)" fill="#263238"/>
        <path id="Trazado_808247" data-name="Trazado 808247" d="M186.339,386.145c0,.013.216-.065.41-.353a1.265,1.265,0,0,0,.2-.565.77.77,0,0,0-.241-.71.305.305,0,0,0-.409.121.836.836,0,0,0-.12.346,2.372,2.372,0,0,0-.019.59,1.117,1.117,0,0,0,.139.52c.022-.006-.029-.2-.037-.527a2.691,2.691,0,0,1,.049-.559c.022-.193.154-.463.324-.366a.689.689,0,0,1,.18.575,1.269,1.269,0,0,1-.154.522,2.752,2.752,0,0,1-.321.405" transform="translate(-31.513 -65.089)" fill="#263238"/>
        <path id="Trazado_808248" data-name="Trazado 808248" d="M175.042,375.77c-.016.022.282.194.657.589a3.747,3.747,0,0,1,.806,3.921c-.188.51-.395.786-.372.8s.066-.058.155-.184a3.259,3.259,0,0,0,.313-.578,3.634,3.634,0,0,0-.829-4.031,3.177,3.177,0,0,0-.516-.408.712.712,0,0,0-.214-.109" transform="translate(-29.633 -63.614)" fill="#263238"/>
        <path id="Trazado_808249" data-name="Trazado 808249" d="M179.369,372.127a41.642,41.642,0,0,0-3.193,3.732,41.687,41.687,0,0,0,3.193-3.732" transform="translate(-29.825 -62.997)" fill="#263238"/>
        <path id="Trazado_808250" data-name="Trazado 808250" d="M178.608,382.322a9.806,9.806,0,0,0,2.661,2.262c.024-.035-.606-.5-1.338-1.122s-1.292-1.169-1.322-1.14" transform="translate(-30.236 -64.723)" fill="#263238"/>
        <path id="Trazado_808251" data-name="Trazado 808251" d="M176.4,380.513c-.041,0-.056.168-.111.356s-.121.338-.088.363.168-.106.228-.324.009-.4-.029-.4" transform="translate(-29.828 -64.417)" fill="#263238"/>
        <path id="Trazado_808252" data-name="Trazado 808252" d="M176.466,378.817c-.04,0-.061.148-.046.324s.059.315.1.312.061-.149.046-.324-.059-.315-.1-.312" transform="translate(-29.865 -64.13)" fill="#263238"/>
        <path id="Trazado_808253" data-name="Trazado 808253" d="M175.7,377.377c-.02.037.1.137.2.3s.133.312.174.312.071-.191-.05-.387-.308-.258-.322-.222" transform="translate(-29.743 -63.885)" fill="#263238"/>
        <path id="Trazado_808254" data-name="Trazado 808254" d="M175.043,376.466c-.035.019-.022.11.03.2s.122.153.157.134.022-.11-.03-.2-.122-.153-.157-.134" transform="translate(-29.63 -63.732)" fill="#263238"/>
        <path id="Trazado_808255" data-name="Trazado 808255" d="M233.936,386.679l-.143-6.378-11.948.191.11,9.333.742.036c3.3.13,16.789.43,18.982-.272,2.446-.785-7.742-2.909-7.742-2.909" transform="translate(-37.556 -64.381)" fill="#809299"/>
        <g id="Grupo_1067337" data-name="Grupo 1067337" transform="translate(184.357 321.917)" opacity="0.5">
          <g id="Grupo_1067336" data-name="Grupo 1067336">
            <g id="Grupo_1067335" data-name="Grupo 1067335" clip-path="url(#clip-path-11)">
              <path id="Trazado_808256" data-name="Trazado 808256" d="M226.3,390.884a4.146,4.146,0,0,0-1.565-2.523,4.027,4.027,0,0,0-2.807-.824l.051,3.34Z" transform="translate(-221.927 -387.52)" fill="#fff"/>
            </g>
          </g>
        </g>
        <g id="Grupo_1067340" data-name="Grupo 1067340" transform="translate(184.398 323.513)" opacity="0.4">
          <g id="Grupo_1067339" data-name="Grupo 1067339">
            <g id="Grupo_1067338" data-name="Grupo 1067338" clip-path="url(#clip-path-12)">
              <path id="Trazado_808257" data-name="Trazado 808257" d="M238.939,389.442s3.575.969,3.14,1.563-14.076.8-20.1.369l.015-.268L237.907,391s.337-1.515,1.033-1.555" transform="translate(-221.977 -389.442)" fill="#fff"/>
            </g>
          </g>
        </g>
        <path id="Trazado_808258" data-name="Trazado 808258" d="M221.769,391.379a1.086,1.086,0,0,0,.206.019l.59.026,2.173.06c1.836.038,4.372.057,7.172.016s5.336-.134,7.17-.225l2.17-.124.59-.044a.1.1,0,1,0,0-.029l-.591.017-2.171.078c-1.834.065-4.368.141-7.167.183s-5.334.038-7.169.027l-2.173-.014h-.591a1.1,1.1,0,0,0-.206.01" transform="translate(-37.543 -66.206)" fill="#263238"/>
        <path id="Trazado_808259" data-name="Trazado 808259" d="M241.148,391.152a3.159,3.159,0,0,1,1.117-1.886,1.931,1.931,0,0,0-1.117,1.886" transform="translate(-40.82 -65.898)" fill="#263238"/>
        <path id="Trazado_808260" data-name="Trazado 808260" d="M236.875,389.244c.034.021.2-.187.37-.464s.281-.519.246-.54-.2.187-.37.464-.28.519-.246.54" transform="translate(-40.1 -65.725)" fill="#263238"/>
        <path id="Trazado_808261" data-name="Trazado 808261" d="M235.7,388.711c.027.029.214-.1.417-.287s.346-.365.318-.394-.214.1-.417.287-.346.365-.318.394" transform="translate(-39.901 -65.689)" fill="#263238"/>
        <path id="Trazado_808262" data-name="Trazado 808262" d="M234.944,387.49a2.733,2.733,0,1,0,.624-.075,1.407,1.407,0,0,0-.624.075" transform="translate(-39.774 -65.586)" fill="#263238"/>
        <path id="Trazado_808263" data-name="Trazado 808263" d="M234.677,386.549a1.753,1.753,0,0,0,1.415.085,50.317,50.317,0,0,1-1.415-.085" transform="translate(-39.729 -65.437)" fill="#263238"/>
        <path id="Trazado_808264" data-name="Trazado 808264" d="M237.344,387.963a2.213,2.213,0,0,0,.768-.017,4.521,4.521,0,0,0,.815-.193,2.246,2.246,0,0,0,.465-.2.417.417,0,0,0,.186-.242.3.3,0,0,0-.121-.3,1.409,1.409,0,0,0-1.735.439,1.376,1.376,0,0,0-.243.517c-.029.131-.026.206-.017.208a2.13,2.13,0,0,1,.339-.66,1.39,1.39,0,0,1,.65-.437,1.194,1.194,0,0,1,.916.049c.123.088.078.232-.057.315a2.307,2.307,0,0,1-.429.191,5.328,5.328,0,0,1-.788.218c-.459.088-.752.093-.751.117" transform="translate(-40.18 -65.493)" fill="#263238"/>
        <path id="Trazado_808265" data-name="Trazado 808265" d="M237.376,387.928a.758.758,0,0,0,.081-.534,1.26,1.26,0,0,0-.218-.558.771.771,0,0,0-.645-.381.306.306,0,0,0-.231.358.836.836,0,0,0,.135.341,2.358,2.358,0,0,0,.37.459,1.1,1.1,0,0,0,.444.3c.013-.019-.154-.135-.37-.375a2.7,2.7,0,0,1-.328-.456c-.108-.161-.184-.451.007-.489.192-.021.39.167.51.318a1.253,1.253,0,0,1,.225.5,2.778,2.778,0,0,1,.021.518" transform="translate(-40.013 -65.423)" fill="#263238"/>
        <path id="Trazado_808266" data-name="Trazado 808266" d="M222,387.482c0,.027.341-.038.883.017a3.743,3.743,0,0,1,3.168,2.446c.19.509.213.853.24.85a.686.686,0,0,0,0-.241,3.136,3.136,0,0,0-.14-.643,3.632,3.632,0,0,0-3.256-2.515,3.142,3.142,0,0,0-.657.027.7.7,0,0,0-.234.057" transform="translate(-37.583 -65.582)" fill="#263238"/>
        <path id="Trazado_808267" data-name="Trazado 808267" d="M223.388,381.491a41.756,41.756,0,0,0,.013,4.911,41.756,41.756,0,0,0-.013-4.911" transform="translate(-37.806 -64.583)" fill="#263238"/>
        <path id="Trazado_808268" data-name="Trazado 808268" d="M228.979,390.133a9.814,9.814,0,0,0,3.492-.021c0-.042-.784.018-1.746.022s-1.742-.044-1.746,0" transform="translate(-38.764 -66.04)" fill="#263238"/>
        <path id="Trazado_808269" data-name="Trazado 808269" d="M226.159,390.178c-.029.03.066.165.149.342s.129.336.169.332.059-.189-.038-.394-.255-.31-.28-.281" transform="translate(-38.286 -66.053)" fill="#263238"/>
        <path id="Trazado_808270" data-name="Trazado 808270" d="M225.076,388.873c-.028.028.051.152.177.275s.25.2.277.172-.051-.152-.176-.275-.25-.2-.278-.172" transform="translate(-38.102 -65.831)" fill="#263238"/>
        <path id="Trazado_808271" data-name="Trazado 808271" d="M223.548,388.278c.009.041.168.037.344.1s.3.15.336.123-.071-.191-.291-.261-.4.006-.389.042" transform="translate(-37.844 -65.72)" fill="#263238"/>
        <path id="Trazado_808272" data-name="Trazado 808272" d="M222.461,388.018c-.014.037.056.1.155.135s.192.037.206,0-.056-.1-.155-.135-.192-.037-.206,0" transform="translate(-37.66 -65.683)" fill="#263238"/>
        <path id="Trazado_808273" data-name="Trazado 808273" d="M208.444,224.69s-3.977,16.833-2.853,20.163,8.414,5.255,8.414,5.255l-.247,46.093L173.45,346.027l14.885,12.179s43.637-49.92,47.483-58.959-2.451-75.3-2.451-75.3Z" transform="translate(-29.363 -37.912)" fill="#263238"/>
        <path id="Trazado_808274" data-name="Trazado 808274" d="M233.061,216.331l1.972,140-20.506.1L201.2,244.665c-2.022-6.67-4.336-13.576-3.915-21.506l2.748-8.05Z" transform="translate(-33.391 -36.416)" fill="#263238"/>
        <path id="Trazado_808275" data-name="Trazado 808275" d="M211.739,242.324a3.588,3.588,0,0,1,.477.414c.3.287.733.719,1.269,1.3,1.078,1.161,2.588,2.9,4.392,5.142l.028.035,0,.048c.375,6.274,1.111,15.42,2,25.578.711,8.271,1.439,15.833,1.892,21.727l0,.051-.037.049-5.708,7.646-1.585,2.08-.424.536c-.1.12-.151.179-.158.173a.845.845,0,0,1,.118-.2l.384-.565q.555-.783,1.512-2.135l5.59-7.732-.033.1c-.538-5.876-1.231-13.447-1.986-21.691-.889-10.16-1.571-19.315-1.86-25.6l.031.082c-1.769-2.26-3.242-4.026-4.281-5.216-.518-.6-.932-1.045-1.21-1.351a3.7,3.7,0,0,1-.419-.471" transform="translate(-35.845 -41.023)" fill="#455a64"/>
        <path id="Trazado_808276" data-name="Trazado 808276" d="M236.527,307.836a16.363,16.363,0,0,0-11.235-.891,4.686,4.686,0,0,1,1.6-.626,12.6,12.6,0,0,1,8.157.647,4.657,4.657,0,0,1,1.48.87" transform="translate(-38.14 -51.79)" fill="#455a64"/>
        <path id="Trazado_808277" data-name="Trazado 808277" d="M242.2,316.035c.1.072-5.673,7.814-12.882,17.29s-13.133,17.1-13.228,17.03,5.672-7.813,12.883-17.292,13.132-17.1,13.227-17.029" transform="translate(-36.582 -53.502)" fill="#455a64"/>
        <path id="Trazado_808278" data-name="Trazado 808278" d="M244.207,228.877a3.438,3.438,0,0,1-1.155,1.523,5.712,5.712,0,0,1-8.358-.881,3.427,3.427,0,0,1-.811-1.73,17.8,17.8,0,0,0,1.048,1.538,5.7,5.7,0,0,0,7.928.837,17.894,17.894,0,0,0,1.347-1.285" transform="translate(-39.593 -38.562)" fill="#455a64"/>
        <path id="Trazado_808279" data-name="Trazado 808279" d="M192.84,180.389s-3.109,22.778,0,25.666,6.1,1.929,6.1,1.929l5.92-4.951,1.165-22.643Z" transform="translate(-32.412 -30.538)" fill="#ffbe9d"/>
        <path id="Trazado_808280" data-name="Trazado 808280" d="M195.492,158.109s-4.455,5.032-5.378,24.282c0,0,12.687,2.407,12.919,1.715s-7.541-26-7.541-26" transform="translate(-32.184 -26.766)" fill="#92df98"/>
        <path id="Trazado_808281" data-name="Trazado 808281" d="M196.9,212.244l40.414.66-.63-6.084s-4.451-23.149-4.418-23.453l.7-1.475a13.455,13.455,0,0,0,.342-11.695h19.619l-.826-15.919-20.592-3.035-7.654-.606s-13.5.7-13.792.739c-5.65.683-12.222,1.116-14.625,7.162-1.285,3.232-.064,8.086,2.033,13.089l4.993,15.366c1.994,8.446-1.189,8.045-2.935,16.545-.264,1.285-2.657,7.525-2.632,8.7" transform="translate(-32.996 -25.502)" fill="#92df98"/>
        <path id="Trazado_808282" data-name="Trazado 808282" d="M250.459,155.842c0,.12-11.516.216-25.719.216s-25.72-.1-25.72-.216,11.513-.216,25.72-.216,25.719.1,25.719.216" transform="translate(-33.692 -26.346)" fill="#fafafa"/>
        <path id="Trazado_808283" data-name="Trazado 808283" d="M250.705,165.051c0,.12-12.815.216-28.62.216s-28.623-.1-28.623-.216,12.813-.216,28.623-.216,28.62.1,28.62.216" transform="translate(-32.751 -27.905)" fill="#fafafa"/>
        <path id="Trazado_808284" data-name="Trazado 808284" d="M196.328,175.53a13.281,13.281,0,0,1-4.771,0,13.28,13.28,0,0,1,4.771,0" transform="translate(-32.429 -29.679)" fill="#fafafa"/>
        <path id="Trazado_808285" data-name="Trazado 808285" d="M234.736,175.847c0,.12-8.381.216-18.718.216s-18.719-.1-18.719-.216,8.379-.216,18.719-.216,18.718.1,18.718.216" transform="translate(-33.401 -29.733)" fill="#fafafa"/>
        <path id="Trazado_808286" data-name="Trazado 808286" d="M234.525,186.644c0,.12-7.522.216-16.8.216s-16.8-.1-16.8-.216,7.52-.216,16.8-.216,16.8.1,16.8.216" transform="translate(-34.015 -31.56)" fill="#fafafa"/>
        <path id="Trazado_808287" data-name="Trazado 808287" d="M234.873,196.647c0,.12-6.818.216-15.226.216s-15.229-.1-15.229-.216,6.817-.216,15.229-.216,15.226.1,15.226.216" transform="translate(-34.606 -33.254)" fill="#fafafa"/>
        <path id="Trazado_808288" data-name="Trazado 808288" d="M236.044,204.744c0,.12-7.294.217-16.289.217s-16.289-.1-16.289-.217,7.291-.215,16.289-.215,16.289.1,16.289.215" transform="translate(-34.445 -34.625)" fill="#fafafa"/>
        <path id="Trazado_808289" data-name="Trazado 808289" d="M237.67,215.065c0,.12-8.3.216-18.531.216s-18.532-.1-18.532-.216,8.3-.216,18.532-.216,18.531.1,18.531.216" transform="translate(-33.961 -36.372)" fill="#fafafa"/>
        <path id="Trazado_808290" data-name="Trazado 808290" d="M202.315,189.439a3.179,3.179,0,0,1-.345-.766q-.341-.888-.818-2.125c-.685-1.8-1.651-4.273-2.654-7.035s-1.836-5.293-2.359-7.149c-.261-.928-.456-1.683-.567-2.211a3.121,3.121,0,0,1-.136-.829,30.51,30.51,0,0,1,1,2.952c.6,1.826,1.466,4.334,2.474,7.091s1.921,5.252,2.534,7.078c.308.912.542,1.656.69,2.175a3.163,3.163,0,0,1,.185.82" transform="translate(-33.084 -28.665)" fill="#263238"/>
        <g id="Grupo_1067343" data-name="Grupo 1067343" transform="translate(170.929 157.928)" opacity="0.2">
          <g id="Grupo_1067342" data-name="Grupo 1067342">
            <g id="Grupo_1067341" data-name="Grupo 1067341" clip-path="url(#clip-path-13)">
              <path id="Trazado_808291" data-name="Trazado 808291" d="M207.007,208.149a40.119,40.119,0,0,0,10.506-5.935,19.067,19.067,0,0,0,6.575-9.926c.179-.743.205-1.71-.469-2.068a1.306,1.306,0,0,0-1.488.375,5.076,5.076,0,0,0-.8,1.43,10.314,10.314,0,0,1-3.584,4.226,29.659,29.659,0,0,1-5.871,2.6,10.8,10.8,0,0,0-5.2,3.621c-1.2,1.779-1.307,4.448.272,5.9" transform="translate(-205.763 -190.112)"/>
            </g>
          </g>
        </g>
        <path id="Trazado_808292" data-name="Trazado 808292" d="M225.536,184.152a.93.93,0,0,1,.022.326c0,.213,0,.529-.031.933a21.629,21.629,0,0,1-.5,3.4,24.2,24.2,0,0,1-13.959,16.9,21.69,21.69,0,0,1-3.241,1.132c-.39.11-.7.162-.91.206a.964.964,0,0,1-.324.04,8.25,8.25,0,0,1,1.186-.407,27.447,27.447,0,0,0,3.163-1.25,24.985,24.985,0,0,0,13.788-16.691,27.329,27.329,0,0,0,.63-3.342,8.419,8.419,0,0,1,.176-1.242" transform="translate(-34.974 -31.175)" fill="#263238"/>
        <path id="Trazado_808293" data-name="Trazado 808293" d="M266.075,103.788s-.1-.513-.177-1.529a16.311,16.311,0,0,1,.348-4.495,17.57,17.57,0,0,1,1.009-3.173,17.749,17.749,0,0,1,1.945-3.516,18.333,18.333,0,0,1,7.68-6.294,20.251,20.251,0,0,1,5.754-1.587,22.2,22.2,0,0,1,6.581.135,24.131,24.131,0,0,1,13.027,6.915,28.582,28.582,0,0,1,4.956,6.673,26.485,26.485,0,0,1,2.8,8.389,25.043,25.043,0,0,1-.275,9.355,21.452,21.452,0,0,1-1.611,4.62,18.128,18.128,0,0,1-11.627,9.5,32.2,32.2,0,0,1-10.754,1.1,42.526,42.526,0,0,1-11.087-2,19.182,19.182,0,0,1-9.533-6.608,19.782,19.782,0,0,1-3.673-11.429,21.877,21.877,0,0,1,.849-6.163,25.325,25.325,0,0,1,2.585-5.764,27.79,27.79,0,0,1,4.042-4.974,27.3,27.3,0,0,1,5.245-3.839,24.151,24.151,0,0,1,6.175-2.3A22.5,22.5,0,0,1,287,86.453a26.385,26.385,0,0,1,21.211,15.593,22.8,22.8,0,0,1,1.237,13.978,18.114,18.114,0,0,1-2.991,6.556,16.021,16.021,0,0,1-5.55,4.693,19.712,19.712,0,0,1-7.039,2.072,25.145,25.145,0,0,1-7.394-.309,25.7,25.7,0,0,1-13.139-6.848A21,21,0,0,1,268.97,116a16.246,16.246,0,0,1-1.445-7.48,20.119,20.119,0,0,1,6.854-13.467,24.258,24.258,0,0,1,13.883-6.213,20.7,20.7,0,0,1,7.6.668,19.643,19.643,0,0,1,3.554,1.373,19.3,19.3,0,0,1,3.231,1.994,18.856,18.856,0,0,1,5.016,5.6,16.677,16.677,0,0,1,1.521,3.437c.216.59.327,1.208.486,1.813.1.617.234,1.229.274,1.852a20.086,20.086,0,0,1-3.85,13.972,21.684,21.684,0,0,1-11.937,7.84,23.394,23.394,0,0,1-14.025-.687c-8.841-3.207-15.68-11.091-17.147-20.013a19.288,19.288,0,0,1,2.233-12.872,22.546,22.546,0,0,1,9.216-8.85,27.349,27.349,0,0,1,12.087-2.987,31.505,31.505,0,0,1,11.9,2.065c7.435,2.823,13.579,8.484,16.267,15.427a23.633,23.633,0,0,1-1.758,20.5,19.257,19.257,0,0,1-7.078,6.818,23.479,23.479,0,0,1-8.933,2.783,30.415,30.415,0,0,1-16.65-3.385,36.977,36.977,0,0,1-11.772-9.074,23.859,23.859,0,0,1-5.459-11.186,18.3,18.3,0,0,1,1.116-9.866,16.487,16.487,0,0,1,4.125-6.023,13.822,13.822,0,0,1,3.788-2.433c.957-.346,1.457-.494,1.457-.494s-.121.05-.363.138-.606.209-1.077.4a14.05,14.05,0,0,0-3.747,2.456,16.466,16.466,0,0,0-4.064,6.008A18.192,18.192,0,0,0,263.2,105.9a23.707,23.707,0,0,0,5.45,11.082,36.8,36.8,0,0,0,11.722,8.991,30.182,30.182,0,0,0,16.513,3.328,23.229,23.229,0,0,0,8.82-2.764,18.959,18.959,0,0,0,6.961-6.724,23.323,23.323,0,0,0,1.707-20.218c-2.657-6.838-8.729-12.428-16.084-15.213a31.166,31.166,0,0,0-11.766-2.03,26.985,26.985,0,0,0-11.919,2.954,22.169,22.169,0,0,0-9.052,8.705,18.894,18.894,0,0,0-2.179,12.616c1.441,8.763,8.188,16.54,16.893,19.689a22.978,22.978,0,0,0,13.779.67,21.27,21.27,0,0,0,11.7-7.688,19.665,19.665,0,0,0,3.764-13.674c-.039-.61-.175-1.206-.268-1.809-.155-.59-.263-1.194-.474-1.769a16.222,16.222,0,0,0-1.484-3.351,18.4,18.4,0,0,0-4.9-5.472A20.115,20.115,0,0,0,288.3,89.274a23.824,23.824,0,0,0-13.632,6.1,19.69,19.69,0,0,0-6.714,13.17,15.792,15.792,0,0,0,1.407,7.28,20.554,20.554,0,0,0,4.277,6.055,25.269,25.269,0,0,0,12.917,6.735,24.69,24.69,0,0,0,7.267.306,19.274,19.274,0,0,0,6.89-2.024,15.59,15.59,0,0,0,5.407-4.569,17.7,17.7,0,0,0,2.923-6.4,22.389,22.389,0,0,0-1.21-13.72A25.988,25.988,0,0,0,286.966,86.85a22.042,22.042,0,0,0-6.544.342,23.766,23.766,0,0,0-6.07,2.253,26.894,26.894,0,0,0-5.166,3.776,27.411,27.411,0,0,0-3.985,4.9,25,25,0,0,0-2.548,5.67,21.479,21.479,0,0,0-.84,6.053,19.428,19.428,0,0,0,3.592,11.221,18.837,18.837,0,0,0,9.357,6.494,42.228,42.228,0,0,0,10.992,2,31.87,31.87,0,0,0,10.646-1.079,18.762,18.762,0,0,0,8.667-5.248,18.972,18.972,0,0,0,2.784-4.075,21.146,21.146,0,0,0,1.594-4.553,24.757,24.757,0,0,0,.287-9.248,27.068,27.068,0,0,0-7.66-14.933,23.925,23.925,0,0,0-12.89-6.882,22,22,0,0,0-6.524-.152,20.118,20.118,0,0,0-5.71,1.554,18.221,18.221,0,0,0-7.642,6.215,18.655,18.655,0,0,0-2.976,6.633,16.656,16.656,0,0,0-.388,4.474c.009.508.082.888.1,1.145s.033.386.033.386" transform="translate(-44.259 -13.877)" fill="#1969d5"/>
        <path id="Trazado_808294" data-name="Trazado 808294" d="M301.342,103.046c.036.114-5.405,1.924-12.152,4.042s-12.246,3.744-12.283,3.63,5.4-1.923,12.153-4.043,12.246-3.743,12.282-3.629" transform="translate(-46.878 -17.444)" fill="#1969d5"/>
        <path id="Trazado_808295" data-name="Trazado 808295" d="M303.531,107.8c.039.113-5.033,1.959-11.327,4.123s-11.431,3.827-11.47,3.715,5.032-1.959,11.328-4.124,11.429-3.827,11.468-3.714" transform="translate(-47.526 -18.248)" fill="#1969d5"/>
        <path id="Trazado_808296" data-name="Trazado 808296" d="M294.635,117.574c.13.176-2.475,1.217-5.662,2.347-1.6.566-3.061,1.051-4.125,1.38a7.442,7.442,0,0,1-1.751.447,7.6,7.6,0,0,1,1.651-.736c1.038-.4,2.48-.933,4.081-1.5s3.055-1.061,4.111-1.41,1.734-.552,1.7-.529" transform="translate(-47.926 -19.904)" fill="#1969d5"/>
        <path id="Trazado_808297" data-name="Trazado 808297" d="M301.807,122.058s-3.807-1.762-3.987-.839.069,1.3.829,1.533c.714.219,2.816.933,2.816.933Z" transform="translate(-50.408 -20.476)" fill="#ffbe9d"/>
        <path id="Trazado_808298" data-name="Trazado 808298" d="M301.572,124.146s-3.807-1.762-3.987-.839.069,1.3.829,1.533c.714.219,2.816.932,2.816.932Z" transform="translate(-50.369 -20.829)" fill="#eb996e"/>
        <path id="Trazado_808299" data-name="Trazado 808299" d="M287.1,127.841,272.67,146.784a10.189,10.189,0,0,1-7.418,4.627l-1.354.11.672,12.886,5.7-.645a11.436,11.436,0,0,0,8.613-5.636l14.68-25.369a43.193,43.193,0,0,0,2.576-5.065c.861-2.191-.062-5.472-.062-5.472l-5.83,3.671,0-3.966s-.622-.21-1.831.975c-1.04,1.02-1.312,4.941-1.312,4.941" transform="translate(-44.675 -20.638)" fill="#ffbe9d"/>
        <path id="Trazado_808300" data-name="Trazado 808300" d="M295.517,119.4l.072,13.947a1.126,1.126,0,1,0,2.251,0l0-14.087-1.328-2.157Z" transform="translate(-50.028 -19.824)" fill="#455a64"/>
        <path id="Trazado_808301" data-name="Trazado 808301" d="M296.62,117.1l-.362.839.857-.036Z" transform="translate(-50.154 -19.824)" fill="#263238"/>
        <path id="Trazado_808302" data-name="Trazado 808302" d="M297.814,119.692a1.892,1.892,0,0,1-1.153.366,2.111,2.111,0,0,1-1.192-.214c.013-.052.537.076,1.182.042s1.142-.242,1.163-.194" transform="translate(-50.02 -20.261)" fill="#263238"/>
        <path id="Trazado_808303" data-name="Trazado 808303" d="M296.84,134.958a3.867,3.867,0,0,1-.036-.588c-.011-.483-.022-1.013-.034-1.6-.013-1.5-.029-3.3-.046-5.289.007-1.987.012-3.785.017-5.289.009-.59.018-1.12.026-1.6A3.8,3.8,0,0,1,296.8,120a3.68,3.68,0,0,1,.035.587c.009.483.018,1.013.03,1.6.009,1.5.02,3.3.032,5.289s0,3.785-.005,5.289c-.007.589-.015,1.12-.021,1.6a3.912,3.912,0,0,1-.032.588" transform="translate(-50.233 -20.315)" fill="#263238"/>
      </g>
    </g>
    <g id="Grupo_1067347" data-name="Grupo 1067347">
      <g id="Grupo_1067346" data-name="Grupo 1067346" clip-path="url(#clip-path)">
        <path id="Trazado_808304" data-name="Trazado 808304" d="M79.55,313.171c6.5,2.27,14.983.242,20.544-3.82s9.563-9.88,13.111-15.784a23.435,23.435,0,0,0,3.47-8.045c.478-2.9-.227-6.161-2.475-8.054-3.495-2.941-8.85-1.449-12.818.812a44.2,44.2,0,0,0-21.833,34.89" transform="translate(-13.467 -46.696)" fill="#74c67b"/>
        <path id="Trazado_808305" data-name="Trazado 808305" d="M87.953,337.41c3.9,5.151,10.612,7.445,17.069,7.743s12.837-1.485,18.872-3.8c2.189-.84,4.585-1.992,5.336-4.213a5.355,5.355,0,0,0-1.143-4.97,11.136,11.136,0,0,0-4.357-2.969,29.755,29.755,0,0,0-19-1.028c-6.25,1.62-11.71,5.243-16.781,9.239" transform="translate(-14.89 -55.375)" fill="#74c67b"/>
        <path id="Trazado_808306" data-name="Trazado 808306" d="M78.886,279.339c5.382.107,9.456-4.607,11.892-9.407a34.864,34.864,0,0,0,3.2-21.74c-.492-2.75-1.532-5.716-3.993-7.039-2.5-1.345-5.755-.459-7.852,1.455s-3.246,4.646-4.084,7.358c-2.888,9.348-2.266,20.091.832,29.371" transform="translate(-12.899 -40.716)" fill="#74c67b"/>
        <path id="Trazado_808307" data-name="Trazado 808307" d="M56.375,311.222c9.176-15.617,10.705-34.725,5.286-52.009-.879-2.8-2.539-6.013-5.471-6.2-3.247-.206-5.283,3.415-6.18,6.543-3.146,10.975-2.477,22.633-1.782,34.028.429,7.02,2.84,13.021,8.147,17.636" transform="translate(-8.066 -42.832)" fill="#74c67b"/>
        <path id="Trazado_808308" data-name="Trazado 808308" d="M40.4,325.836A37.532,37.532,0,0,0,18.13,302.224c-2.437-.918-5.535-1.44-7.353.424-1.783,1.829-1.234,4.885-.09,7.169,1.847,3.688,4.846,6.652,7.834,9.5C21.241,321.9,24.065,324.5,27.5,326s9.752,1.886,12.894-.164" transform="translate(-1.63 -51.023)" fill="#74c67b"/>
        <path id="Trazado_808309" data-name="Trazado 808309" d="M106.566,282.52a.787.787,0,0,1-.16.143l-.494.383-1.923,1.438-1.4,1.03c-.5.388-1.025.837-1.6,1.3-1.136.95-2.478,1.97-3.829,3.256L95,292.038c-.748.687-1.469,1.464-2.248,2.233-1.579,1.519-3.109,3.29-4.754,5.121a101.1,101.1,0,0,0-16.772,27.133c-.9,2.29-1.8,4.451-2.456,6.544-.34,1.04-.712,2.032-.992,3.009l-.792,2.814c-.546,1.783-.859,3.441-1.2,4.88-.159.723-.326,1.391-.449,2.014s-.208,1.191-.3,1.708q-.27,1.5-.426,2.363c-.05.248-.09.45-.122.613a.875.875,0,0,1-.056.208.784.784,0,0,1,.012-.213c.022-.164.047-.369.08-.62q.126-.867.346-2.379c.079-.519.166-1.093.261-1.718.111-.625.267-1.3.416-2.025.319-1.449.613-3.116,1.141-4.909l.768-2.831c.272-.983.638-1.98.972-3.027.64-2.1,1.532-4.278,2.427-6.582A98.878,98.878,0,0,1,87.7,299.132c1.661-1.831,3.206-3.6,4.8-5.114.788-.767,1.516-1.539,2.274-2.223l2.189-1.951c1.368-1.274,2.728-2.283,3.881-3.216.583-.459,1.116-.9,1.626-1.278l1.421-1,1.973-1.374.519-.348a.813.813,0,0,1,.185-.106" transform="translate(-10.908 -47.828)" fill="#263238"/>
        <path id="Trazado_808310" data-name="Trazado 808310" d="M118.8,334.285a3.613,3.613,0,0,1-.63-.1c-.411-.074-1.006-.233-1.787-.362a50.238,50.238,0,0,0-6.644-.812,48.469,48.469,0,0,0-39.361,16.378,50.363,50.363,0,0,0-4.106,5.285c-.459.645-.765,1.18-1,1.523a3.573,3.573,0,0,1-.369.521,3.5,3.5,0,0,1,.294-.566c.214-.359.5-.908.937-1.57a44.785,44.785,0,0,1,4.016-5.395,47.7,47.7,0,0,1,39.61-16.482,44.754,44.754,0,0,1,6.658.953c.779.155,1.369.341,1.774.443a3.571,3.571,0,0,1,.609.189" transform="translate(-10.986 -56.302)" fill="#263238"/>
        <path id="Trazado_808311" data-name="Trazado 808311" d="M84.829,248.79a1.023,1.023,0,0,1-.036.243c-.037.182-.086.413-.146.7l-.6,2.688c-.528,2.333-1.334,5.7-2.348,9.856-2.021,8.314-4.959,19.762-8.02,32.447-1.52,6.347-2.9,12.411-4.084,17.938-1.164,5.533-2.157,10.528-2.9,14.738-.4,2.1-.694,4.012-.976,5.687s-.511,3.12-.684,4.3c-.18,1.158-.321,2.068-.424,2.721-.049.291-.089.523-.12.707a1.116,1.116,0,0,1-.056.238,1.025,1.025,0,0,1,.012-.244c.021-.185.047-.42.078-.713.083-.655.2-1.57.343-2.733.148-1.188.346-2.638.612-4.317s.537-3.6.914-5.7c.7-4.222,1.663-9.226,2.807-14.768,1.165-5.537,2.532-11.607,4.053-17.957,3.062-12.692,6.047-24.127,8.143-32.42,1.042-4.124,1.887-7.472,2.481-9.822l.682-2.669c.077-.284.14-.513.188-.691a1.019,1.019,0,0,1,.079-.233" transform="translate(-10.908 -42.118)" fill="#263238"/>
        <path id="Trazado_808312" data-name="Trazado 808312" d="M62.327,342.912a.644.644,0,0,1-.058-.189c-.035-.152-.077-.336-.128-.563q-.167-.8-.452-2.174c-.389-1.889-.9-4.631-1.492-8.03-1.176-6.794-2.572-16.23-3.43-26.725-.415-5.249-.647-10.261-.748-14.822-.076-4.561-.036-8.67.106-12.117.042-1.725.156-3.281.231-4.649s.166-2.544.256-3.5q.128-1.4.2-2.211c.026-.23.047-.419.064-.573a.658.658,0,0,1,.037-.194.669.669,0,0,1,.007.2c-.006.156-.012.346-.022.577q-.045.815-.122,2.216c-.063.961-.135,2.137-.182,3.506s-.145,2.923-.167,4.645c-.1,3.443-.111,7.546-.013,12.1.123,4.552.366,9.555.781,14.8.856,10.478,2.2,19.908,3.3,26.71.549,3.4,1.018,6.151,1.356,8.049q.236,1.383.372,2.189c.034.229.062.417.086.571a.66.66,0,0,1,.015.2" transform="translate(-9.477 -45.227)" fill="#263238"/>
        <path id="Trazado_808313" data-name="Trazado 808313" d="M56.893,352a3.038,3.038,0,0,1-.239-.539l-.6-1.571-.431-1.136-.589-1.32-.674-1.518c-.237-.537-.544-1.079-.835-1.663l-.937-1.82-1.116-1.919c-.737-1.347-1.69-2.685-2.609-4.143a98.137,98.137,0,0,0-6.912-8.832,108.642,108.642,0,0,0-7.932-7.94c-1.318-1.112-2.527-2.225-3.747-3.157l-1.737-1.385-1.649-1.216c-1.041-.789-2.019-1.45-2.882-2.027s-1.6-1.083-2.225-1.459l-1.421-.9a2.953,2.953,0,0,1-.482-.341,3.067,3.067,0,0,1,.525.265l1.466.833c.641.354,1.4.827,2.27,1.4s1.872,1.2,2.927,1.981l1.671,1.2,1.759,1.37c1.234.924,2.456,2.03,3.787,3.139a102.911,102.911,0,0,1,7.991,7.951,93.487,93.487,0,0,1,6.918,8.9c.916,1.472,1.862,2.824,2.589,4.185l1.1,1.941.916,1.842c.283.591.583,1.14.812,1.684l.646,1.538q.3.716.558,1.338l.4,1.154.529,1.6a2.977,2.977,0,0,1,.156.567" transform="translate(-3.364 -52.33)" fill="#263238"/>
        <path id="Trazado_808314" data-name="Trazado 808314" d="M107.114,304.3c0,.068-1.112.069-2.9.168a51.889,51.889,0,0,0-13.679,2.6c-1.7.562-2.732.969-2.759.906a2.734,2.734,0,0,1,.689-.374c.454-.219,1.126-.5,1.967-.821a41.265,41.265,0,0,1,13.77-2.615c.9-.012,1.629,0,2.132.041a2.743,2.743,0,0,1,.778.1" transform="translate(-14.86 -51.491)" fill="#263238"/>
        <path id="Trazado_808315" data-name="Trazado 808315" d="M117.518,343.009a26.247,26.247,0,0,0-3.777-5.7,26.288,26.288,0,0,0-5.4-4.188,6.43,6.43,0,0,1,1.865.825,16.476,16.476,0,0,1,6.631,7.14,6.448,6.448,0,0,1,.684,1.921" transform="translate(-18.34 -56.394)" fill="#263238"/>
        <path id="Trazado_808316" data-name="Trazado 808316" d="M89.6,264.051c.088.093-1.6,1.768-3.446,4.037s-3.154,4.255-3.263,4.188a25.827,25.827,0,0,1,6.709-8.225" transform="translate(-14.032 -44.701)" fill="#263238"/>
        <path id="Trazado_808317" data-name="Trazado 808317" d="M84.291,252.526a31.959,31.959,0,0,1,1.245,7.316,31.964,31.964,0,0,1-1.245-7.316" transform="translate(-14.264 -42.75)" fill="#263238"/>
        <path id="Trazado_808318" data-name="Trazado 808318" d="M62.459,288.694a45.3,45.3,0,0,1-2.687,5.652A45.27,45.27,0,0,1,56.7,299.8a45.355,45.355,0,0,1,2.687-5.652,45.284,45.284,0,0,1,3.07-5.454" transform="translate(-9.598 -48.873)" fill="#263238"/>
        <path id="Trazado_808319" data-name="Trazado 808319" d="M51.332,276.415a25.444,25.444,0,0,1,2.277,4.089,25.379,25.379,0,0,1,1.889,4.282,25.586,25.586,0,0,1-2.277-4.09,25.471,25.471,0,0,1-1.889-4.281" transform="translate(-8.688 -46.794)" fill="#263238"/>
        <path id="Trazado_808320" data-name="Trazado 808320" d="M31.575,318.232c-.029.124-1.851-.23-4.122-.386s-4.124-.072-4.135-.2a11.883,11.883,0,0,1,4.166-.232,11.863,11.863,0,0,1,4.091.817" transform="translate(-3.947 -53.727)" fill="#263238"/>
        <path id="Trazado_808321" data-name="Trazado 808321" d="M45.6,355.535,50.711,382.4a3.767,3.767,0,0,0,3.7,3.064H69.5a3.767,3.767,0,0,0,3.715-3.15l4.441-26.779Z" transform="translate(-7.72 -60.189)" fill="#263238"/>
        <path id="Trazado_808322" data-name="Trazado 808322" d="M47.263,364.267H76.124l1.533-8.732H45.6Z" transform="translate(-7.72 -60.189)" fill="#455a64"/>
        <path id="Trazado_808323" data-name="Trazado 808323" d="M47.6,366.046l.606,3.183H76.021l.442-3.183Z" transform="translate(-8.058 -61.968)" fill="#fafafa"/>
      </g>
    </g>
  </g>
</svg>
