<svg xmlns="http://www.w3.org/2000/svg" xmlns:xlink="http://www.w3.org/1999/xlink" width="1240" height="1618.633" viewBox="0 0 1240 1618.633">
  <defs>
    <clipPath id="clip-path">
      <rect id="Rectángulo_351082" data-name="Rectángulo 351082" width="20" height="148.742" fill="none" stroke="#59bee2" stroke-width="2"/>
    </clipPath>
    <clipPath id="clip-path-2">
      <rect id="Rectángulo_351082-2" data-name="Rectángulo 351082" width="20" height="171.742" transform="translate(0 -11)" fill="none" stroke="#59bee2" stroke-width="2"/>
    </clipPath>
    <clipPath id="clip-path-3">
      <rect id="Rectángulo_351082-3" data-name="Rectángulo 351082" width="20" height="140.406" transform="translate(0 -9)" fill="none" stroke="#59bee2" stroke-width="2"/>
    </clipPath>
    <clipPath id="clip-path-4">
      <rect id="Rectángulo_351082-4" data-name="Rectángulo 351082" width="20" height="132.688" fill="none" stroke="#59bee2" stroke-width="2"/>
    </clipPath>
  </defs>
  <g id="Grupo_1070131" data-name="Grupo 1070131" transform="translate(-180 -446.198)">
    <line id="Línea_1725" data-name="Línea 1725" y2="151.818" transform="translate(265.061 571.5)" fill="none" stroke="#59bee2" stroke-linecap="square" stroke-width="1.5"/>
    <line id="Línea_1735" data-name="Línea 1735" y2="574" transform="translate(615.045 571.5)" fill="none" stroke="#59bee2" stroke-linecap="square" stroke-width="1.5"/>
    <rect id="Rectángulo_370518" data-name="Rectángulo 370518" width="420" height="85.711" rx="10" transform="translate(590.333 446.198)" fill="#288640"/>
    <rect id="Rectángulo_375258" data-name="Rectángulo 375258" width="165" height="175.729" rx="5" transform="translate(180 713.953)" fill="#ffecd4"/>
    <rect id="Rectángulo_375956" data-name="Rectángulo 375956" width="210" height="133.408" rx="5" transform="translate(390 604)" fill="#fcf5e9"/>
    <rect id="Rectángulo_375958" data-name="Rectángulo 375958" width="210" height="181.729" rx="5" transform="translate(390 895.304)" fill="#fcf5e9"/>
    <rect id="Rectángulo_375957" data-name="Rectángulo 375957" width="210" height="105.998" rx="5" transform="translate(390 761.136)" fill="#fcf5e9"/>
    <rect id="Rectángulo_375962" data-name="Rectángulo 375962" width="169.245" height="106.819" rx="5" transform="translate(628.45 761.136)" fill="#fcf5e9"/>
    <rect id="Rectángulo_375964" data-name="Rectángulo 375964" width="169.245" height="77.668" rx="5" transform="translate(1001.695 761.5)" fill="#fcf5e9"/>
    <rect id="Rectángulo_375976" data-name="Rectángulo 375976" width="169.245" height="77.668" rx="5" transform="translate(1250.755 761.136)" fill="#fcf5e9"/>
    <rect id="Rectángulo_375978" data-name="Rectángulo 375978" width="169.245" height="77.668" rx="5" transform="translate(1250.755 964.804)" fill="#fcf5e9"/>
    <rect id="Rectángulo_375979" data-name="Rectángulo 375979" width="169.245" height="77.668" rx="5" transform="translate(1250.755 1063.37)" fill="#fcf5e9"/>
    <rect id="Rectángulo_375977" data-name="Rectángulo 375977" width="169.245" height="64.27" rx="5" transform="translate(1250.755 874.47)" fill="#fcf5e9"/>
    <text id="Operación_y_seguimiento_de_las_estrategias_de_entornos_saludables" data-name="Operación y seguimiento de las estrategias de entornos saludables" transform="translate(600 464.698)" fill="#fff" font-size="18" font-family="Roboto-Black, Roboto" font-weight="800"><tspan x="-187.541" y="17">Operación y seguimiento de las estrategias de </tspan><tspan x="-82.204" y="42">entornos saludables</tspan></text>
    <text id="Orientaciones_para_la_operación_de_cada_entorno_en_el_marco_de_los_componentes_y_líneas_de_acción_" data-name="Orientaciones para la operación  de cada entorno en el marco de los componentes y líneas de acción
" transform="translate(195 731.953)" fill="#12263f" font-size="16" font-family="Roboto-Bold, Roboto" font-weight="700"><tspan x="17.406" y="15">Orientaciones </tspan><tspan x="5.484" y="39" xml:space="preserve">para la operación  </tspan><tspan x="9.59" y="63">de cada entorno </tspan><tspan x="1.938" y="87">en el marco de los </tspan><tspan x="12.418" y="111">componentes y </tspan><tspan x="9.406" y="135">líneas de acción</tspan></text>
    <text id="Políticas_y_normatividad_para_la_promoción_del_desarrollo_humano_y_la_calidad_de_vida_" data-name="Políticas y normatividad para la promoción del
desarrollo humano y la calidad de vida 
" transform="translate(403 622)" fill="#12263f" font-size="16" font-family="Roboto-Regular, Roboto"><tspan x="6.766" y="15">Políticas y normatividad </tspan><tspan x="14.973" y="39">para la promoción del</tspan><tspan x="11.254" y="63">desarrollo humano y la </tspan><tspan x="38.813" y="87">calidad de vida </tspan></text>
    <text id="Gestión_de_Servicios_sociales_orientados_a_la_respuesta_integral_e_integrada_para_el_desarrollo_humano_y_la_calidad_de_vida_" data-name="Gestión de Servicios sociales orientados a la respuesta integral e integrada para el desarrollo  humano y la calidad de vida
" transform="translate(405 913.304)" fill="#12263f" font-size="16" font-family="Roboto-Regular, Roboto"><tspan x="17.551" y="15">Gestión de Servicios </tspan><tspan x="5.914" y="39">sociales orientados a la </tspan><tspan x="20.039" y="63">respuesta integral e </tspan><tspan x="30.656" y="87">integrada para el </tspan><tspan x="7.273" y="111" xml:space="preserve">desarrollo  humano y la </tspan><tspan x="36.813" y="135">calidad de vida</tspan></text>
    <text id="Ambientes_que_favorecen_el_desarrollo_humano_y_la_calidad_de_vida_" data-name="Ambientes que favorecen el desarrollo humano y la calidad de vida	
" transform="translate(401 779.136)" fill="#12263f" font-size="16" font-family="Roboto-Regular, Roboto"><tspan x="3.395" y="15">Ambientes que favorecen </tspan><tspan x="5.094" y="39">el desarrollo humano y la </tspan><tspan x="40.813" y="63">calidad de vida	</tspan></text>
    <text id="HERRAMIENTAS_PARA_LA_CARACTERIZACION_SOCIAL_Y_AMBIENTAL_" data-name="HERRAMIENTAS  PARA LA CARACTERIZACION SOCIAL Y AMBIENTAL
" transform="translate(645.45 779.136)" fill="#12263f" font-size="16" font-family="Roboto-Regular, Roboto"><tspan x="0.173" y="15" xml:space="preserve">Herramientas  para </tspan><tspan x="5.298" y="39">la caracterizacion </tspan><tspan x="3.915" y="63">social y ambiental</tspan></text>
    <text id="Herramientas_educativas_" data-name="Herramientas educativas
" transform="translate(1018.695 779.5)" fill="#12263f" font-size="16" font-family="Roboto-Regular, Roboto"><tspan x="19.876" y="15">Herramientas </tspan><tspan x="29.575" y="39">educativas</tspan></text>
    <text id="Resultados_esperados_" data-name="Resultados esperados
" transform="translate(1267.755 779.136)" fill="#12263f" font-size="16" font-family="Roboto-Regular, Roboto"><tspan x="28.318" y="15">Resultados </tspan><tspan x="30.931" y="39">esperados</tspan></text>
    <text id="Análisis_y_resultados_" data-name="Análisis y resultados
" transform="translate(1267.755 982.804)" fill="#12263f" font-size="16" font-family="Roboto-Regular, Roboto"><tspan x="34.298" y="15">Análisis y </tspan><tspan x="30.611" y="39">resultados</tspan></text>
    <text id="Acciones_de_mejora" data-name="Acciones de mejora" transform="translate(1267.755 1081.37)" fill="#12263f" font-size="16" font-family="Roboto-Regular, Roboto"><tspan x="24.517" y="15">Acciones de </tspan><tspan x="43.497" y="39">mejora</tspan></text>
    <text id="Indicadores_" data-name="Indicadores
" transform="translate(1267.755 897.47)" fill="#12263f" font-size="16" font-family="Roboto-Regular, Roboto"><tspan x="26.47" y="15">Indicadores</tspan></text>
    <line id="Línea_1585" data-name="Línea 1585" y2="39" transform="translate(800.833 532.5)" fill="none" stroke="#59bee2" stroke-width="1.5"/>
    <line id="Línea_1586" data-name="Línea 1586" x1="1023" transform="translate(265.5 571.5)" fill="none" stroke="#59bee2" stroke-width="1.5"/>
    <line id="Línea_1732" data-name="Línea 1732" x1="374" transform="translate(713.195 722.5)" fill="none" stroke="#59bee2" stroke-width="1.5"/>
    <line id="Línea_1726" data-name="Línea 1726" x1="44" transform="translate(345.5 813.5)" fill="none" stroke="#59bee2" stroke-width="1.5"/>
    <line id="Línea_1736" data-name="Línea 1736" x1="48.627" transform="translate(615.5 1145.303)" fill="none" stroke="#59bee2" stroke-width="1.5"/>
    <path id="Trazado_812040" data-name="Trazado 812040" d="M16.938,0H-3.545" transform="translate(370.5 986.168)" fill="none" stroke="#59bee2" stroke-width="1.5"/>
    <path id="Trazado_812041" data-name="Trazado 812041" d="M18.215,0H-3.218" transform="translate(370.5 1179.699)" fill="none" stroke="#59bee2" stroke-width="1.5"/>
    <path id="Trazado_812055" data-name="Trazado 812055" d="M18.215,0H-3.218" transform="translate(727.195 1271.551)" fill="none" stroke="#59bee2" stroke-width="1.5"/>
    <path id="Trazado_812059" data-name="Trazado 812059" d="M18.215,0H-3.218" transform="translate(727.195 1651.352)" fill="none" stroke="#59bee2" stroke-width="1.5"/>
    <path id="Trazado_812061" data-name="Trazado 812061" d="M18.215,0H-3.218" transform="translate(727.195 1784.647)" fill="none" stroke="#59bee2" stroke-width="1.5"/>
    <line id="Línea_1729" data-name="Línea 1729" x1="21" transform="translate(367.5 1349.998)" fill="none" stroke="#59bee2" stroke-width="1.5"/>
    <path id="Trazado_807342" data-name="Trazado 807342" d="M8.336,0V8.336H0Z" transform="translate(906.45 591.62) rotate(45)" fill="#59bee2"/>
    <path id="Trazado_812067" data-name="Trazado 812067" d="M8.336,0V8.336H0Z" transform="translate(906.45 749.711) rotate(45)" fill="#59bee2"/>
    <path id="Trazado_812064" data-name="Trazado 812064" d="M8.336,0V8.336H0Z" transform="translate(713.195 749.711) rotate(45)" fill="#59bee2"/>
    <path id="Trazado_812065" data-name="Trazado 812065" d="M8.336,0V8.336H0Z" transform="translate(1087.195 749.711) rotate(45)" fill="#59bee2"/>
    <path id="Trazado_812042" data-name="Trazado 812042" d="M8.336,0V8.336H0Z" transform="translate(906.45 850.563) rotate(-135)" fill="#59bee2"/>
    <path id="Trazado_812043" data-name="Trazado 812043" d="M8.336,0V8.336H0Z" transform="translate(928.363 848.004) rotate(-180)" fill="#59bee2"/>
    <path id="Trazado_812044" data-name="Trazado 812044" d="M8.336,8.336V0H0Z" transform="translate(884.704 839.668)" fill="#59bee2"/>
    <path id="Trazado_801737" data-name="Trazado 801737" d="M8.336,0V8.336H0Z" transform="translate(800.833 559.711) rotate(45)" fill="#59bee2"/>
    <path id="Trazado_812052" data-name="Trazado 812052" d="M8.336,0V8.336H0Z" transform="translate(653.831 1145.5) rotate(-45)" fill="#59bee2"/>
    <path id="Trazado_812045" data-name="Trazado 812045" d="M8.336,0V8.336H0Z" transform="translate(265.061 702.164) rotate(45)" fill="#59bee2"/>
    <path id="Trazado_812046" data-name="Trazado 812046" d="M8.336,0V8.336H0Z" transform="translate(378.605 670.704) rotate(-45)" fill="#59bee2"/>
    <path id="Trazado_812047" data-name="Trazado 812047" d="M8.336,0V8.336H0Z" transform="translate(378.211 813.271) rotate(-45)" fill="#59bee2"/>
    <path id="Trazado_812048" data-name="Trazado 812048" d="M8.336,0V8.336H0Z" transform="translate(378.211 986.168) rotate(-45)" fill="#59bee2"/>
    <path id="Trazado_812049" data-name="Trazado 812049" d="M8.336,0V8.336H0Z" transform="translate(378.211 1179.699) rotate(-45)" fill="#59bee2"/>
    <path id="Trazado_812054" data-name="Trazado 812054" d="M8.336,0V8.336H0Z" transform="translate(734.906 1271.551) rotate(-45)" fill="#59bee2"/>
    <g id="Grupo_1068299" data-name="Grupo 1068299" transform="translate(0 57.004)">
      <path id="Trazado_812057" data-name="Trazado 812057" d="M18.215,0H-3.218" transform="translate(727.195 1401.5)" fill="none" stroke="#59bee2" stroke-width="1.5"/>
      <path id="Trazado_812056" data-name="Trazado 812056" d="M8.336,0V8.336H0Z" transform="translate(734.906 1401.5) rotate(-45)" fill="#59bee2"/>
    </g>
    <path id="Trazado_812058" data-name="Trazado 812058" d="M8.336,0V8.336H0Z" transform="translate(734.906 1651.352) rotate(-45)" fill="#59bee2"/>
    <path id="Trazado_812060" data-name="Trazado 812060" d="M8.336,0V8.336H0Z" transform="translate(734.906 1784.647) rotate(-45)" fill="#59bee2"/>
    <path id="Trazado_812062" data-name="Trazado 812062" d="M8.336,0V8.336H0Z" transform="translate(734.906 1959.46) rotate(-45)" fill="#59bee2"/>
    <path id="Trazado_812050" data-name="Trazado 812050" d="M8.336,0V8.336H0Z" transform="translate(378.211 1349.998) rotate(-45)" fill="#59bee2"/>
    <path id="Trazado_812051" data-name="Trazado 812051" d="M8.336,0V8.336H0Z" transform="translate(378.211 1517.875) rotate(-45)" fill="#59bee2"/>
    <rect id="Rectángulo_375959" data-name="Rectángulo 375959" width="209" height="134.792" rx="5" transform="translate(390 1107.303)" fill="#fcf5e9"/>
    <rect id="Rectángulo_375961" data-name="Rectángulo 375961" width="209" height="153.885" rx="5" transform="translate(390 1440.933)" fill="#fcf5e9"/>
    <rect id="Rectángulo_375960" data-name="Rectángulo 375960" width="209" height="135.26" rx="5" transform="translate(390 1272.365)" fill="#fcf5e9"/>
    <text id="Educación_integral_para_la_promoción_del_desarrollo_humano_y_la_calidad_de_vida_" data-name="Educación integral para la promoción del desarrollo humano y la calidad de vida
" transform="translate(405 1125.303)" fill="#12263f" font-size="16" font-family="Roboto-Regular, Roboto"><tspan x="6.219" y="15">Educación integral para </tspan><tspan x="30.195" y="39">la promoción del </tspan><tspan x="8.754" y="63">desarrollo humano y la </tspan><tspan x="36.313" y="87">calidad de vida</tspan></text>
    <text id="Gestión_del_Conocimiento_para_la_promoción_del_desarrollo_humano_la_calidad_de_vida_y_desarrollo_sostenible_" data-name="Gestión del Conocimiento para la promoción del desarrollo humano, la calidad de vida y desarrollo
sostenible
" transform="translate(396 1458.933)" fill="#12263f" font-size="16" font-family="Roboto-Regular, Roboto"><tspan x="6.426" y="15">Gestión del Conocimiento </tspan><tspan x="20.973" y="39">para la promoción del </tspan><tspan x="21.449" y="63">desarrollo humano, la </tspan><tspan x="1.496" y="87">calidad de vida y desarrollo</tspan><tspan x="61.313" y="111">sostenible</tspan></text>
    <text id="Participación_social_y_comunitaria_para_el_desarrollo_humano_y_la_calidad_de_vida_" data-name="Participación social y comunitaria para el desarrollo humano y la calidad de vida
" transform="translate(400.5 1290.365)" fill="#12263f" font-size="16" font-family="Roboto-Regular, Roboto"><tspan x="18.258" y="15">Participación social y </tspan><tspan x="25.625" y="39">comunitaria para el </tspan><tspan x="13.254" y="63">desarrollo humano y la </tspan><tspan x="40.813" y="87">calidad de vida</tspan></text>
    <path id="Trazado_807294" data-name="Trazado 807294" d="M-12070.637-8735.451l-22.507.031-.11-847.171h22.875" transform="translate(12460.379 10253.295)" fill="none" stroke="#59bee2" stroke-width="1.5"/>
    <path id="Trazado_812053" data-name="Trazado 812053" d="M-12070.637-8895.208l-22.507.026-.11-687.409h22.875" transform="translate(12817.074 10854.141)" fill="none" stroke="#59bee2" stroke-width="1.5"/>
    <path id="Trazado_812063" data-name="Trazado 812063" d="M-12068.5-9124.084l-24.631.018-.122-458.523h25.034" transform="translate(12792.199 10743.141)" fill="none" stroke="#59bee2" stroke-width="1.5"/>
    <line id="Línea_1681" data-name="Línea 1681" y2="395" transform="translate(906.511 571.5)" fill="none" stroke="#59bee2" stroke-linecap="square" stroke-width="1.5"/>
    <line id="Línea_1733" data-name="Línea 1733" y2="38" transform="translate(713.073 722.5)" fill="none" stroke="#59bee2" stroke-linecap="square" stroke-width="1.5"/>
    <path id="Trazado_812066" data-name="Trazado 812066" d="M0,0-.009,37.681" transform="translate(1087.195 722.5)" fill="none" stroke="#59bee2" stroke-linecap="square" stroke-width="1.5"/>
    <line id="Línea_1730" data-name="Línea 1730" x1="149" y2="124" transform="translate(740.706 842.5)" fill="none" stroke="#59bee2" stroke-linecap="square" stroke-width="1.5"/>
    <line id="Línea_1731" data-name="Línea 1731" x2="148" y2="123" transform="translate(924.195 843.5)" fill="none" stroke="#59bee2" stroke-linecap="square" stroke-width="1.5"/>
    <g id="Grupo_1065369" data-name="Grupo 1065369" transform="translate(-198.883 55.409)">
      <rect id="Rectángulo_374270" data-name="Rectángulo 374270" width="210" height="76" rx="5" transform="translate(1000.333 548)" fill="#92df98"/>
      <text id="Herramientas_para_la_implementación_" data-name="Herramientas para la implementación
" transform="translate(1020.333 563.75)" fill="#12263f" font-size="16" font-family="Roboto-Bold, Roboto" font-weight="700"><tspan x="10.281" y="15">Herramientas para la </tspan><tspan x="27.484" y="39">implementación</tspan></text>
    </g>
    <g id="Grupo_1068289" data-name="Grupo 1068289" transform="translate(-334.89 559.303)">
      <rect id="Rectángulo_374270-2" data-name="Rectángulo 374270" width="210" height="76" rx="5" transform="translate(1000.333 548)" fill="#92df98"/>
      <text id="Articulación_entre_entornos_" data-name="Articulación entre entornos
" transform="translate(1020.333 563.75)" fill="#12263f" font-size="16" font-family="Roboto-Bold, Roboto" font-weight="700"><tspan x="21.156" y="15">Articulación entre </tspan><tspan x="53.551" y="39">entornos</tspan></text>
    </g>
    <g id="Grupo_1068288" data-name="Grupo 1068288" transform="translate(222.667 55.409)">
      <rect id="Rectángulo_374270-3" data-name="Rectángulo 374270" width="170.977" height="76" rx="5" transform="translate(1000.333 548)" fill="#92df98"/>
      <text id="Seguimiento_y_monitoreo_" data-name="Seguimiento y monitoreo
" transform="translate(1020.333 563.75)" fill="#12263f" font-size="16" font-family="Roboto-Bold, Roboto" font-weight="700"><tspan x="14.614" y="15">Seguimiento y </tspan><tspan x="29.137" y="39">monitoreo</tspan></text>
    </g>
    <rect id="Rectángulo_375965" data-name="Rectángulo 375965" width="150" height="55" rx="5" transform="translate(664.695 966.5)" fill="#c2ffc7"/>
    <rect id="Rectángulo_375966" data-name="Rectángulo 375966" width="150" height="55" rx="5" transform="translate(827.939 966.5)" fill="#c2ffc7"/>
    <rect id="Rectángulo_375975" data-name="Rectángulo 375975" width="150" height="55" rx="5" transform="translate(1001.695 966.5)" fill="#c2ffc7"/>
    <rect id="Rectángulo_375967" data-name="Rectángulo 375967" width="150" height="55" rx="5" transform="translate(746.695 1244.051)" fill="#ffecd4"/>
    <rect id="Rectángulo_375971" data-name="Rectángulo 375971" width="150" height="55" rx="5" transform="translate(746.695 1431.004)" fill="#ffecd4"/>
    <rect id="Rectángulo_375972" data-name="Rectángulo 375972" width="150" height="55" rx="5" transform="translate(746.695 1626.128)" fill="#ffecd4"/>
    <text id="Hogar" transform="translate(676.695 984.5)" fill="#12263f" font-size="16" font-family="Roboto-Regular, Roboto"><tspan x="-21.813" y="15">Hogar</tspan></text>
    <text id="Educativo" transform="translate(839.939 984.5)" fill="#12263f" font-size="16" font-family="Roboto-Regular, Roboto"><tspan x="-34.867" y="15">Educativo</tspan></text>
    <text id="Comunitario" transform="translate(1013.695 984.5)" fill="#12263f" font-size="16" font-family="Roboto-Regular, Roboto"><tspan x="-43.723" y="15">Comunitario</tspan></text>
    <text id="Entorno_hogar" data-name="Entorno hogar" transform="translate(758.695 1262.051)" fill="#12263f" font-size="16" font-family="Roboto-Regular, Roboto"><tspan x="-50.238" y="15">Entorno hogar</tspan></text>
    <text id="Entorno_educativo" data-name="Entorno educativo" transform="translate(756.695 1449.004)" fill="#12263f" font-size="16" font-family="Roboto-Regular, Roboto"><tspan x="-64.355" y="15">Entorno educativo</tspan></text>
    <text id="Entorno_laboral" data-name="Entorno laboral" transform="translate(756.695 1644.128)" fill="#12263f" font-size="16" font-family="Roboto-Regular, Roboto"><tspan x="-53.91" y="15">Entorno laboral</tspan></text>
    <rect id="Rectángulo_375968" data-name="Rectángulo 375968" width="169.245" height="77.668" rx="5" transform="translate(815.206 761.136)" fill="#fcf5e9"/>
    <text id="Herramientas_de_seguimiento_" data-name="Herramientas de seguimiento
" transform="translate(832.206 779.136)" fill="#12263f" font-size="16" font-family="Roboto-Regular, Roboto"><tspan x="9.146" y="15">Herramientas de </tspan><tspan x="24.216" y="39">seguimiento</tspan></text>
    <g id="Grupo_1068290" data-name="Grupo 1068290" transform="translate(936.695 1214.551)">
      <text id="Protección_confianza_y_seguridad_Prácticas_de_cuidado_Respeto_convivencia_sana_" data-name="Protección, confianza y seguridad
 
Prácticas de cuidado 

Respeto, convivencia sana
" transform="translate(24)" fill="#12263f" font-size="16" font-family="Roboto-Regular, Roboto"><tspan x="0" y="15">Protección, confianza y </tspan><tspan x="0" y="34">seguridad</tspan><tspan x="0" y="53"> </tspan><tspan x="0" y="72">Prácticas de cuidado </tspan><tspan x="0" y="91"></tspan><tspan x="0" y="110">Respeto, convivencia sana</tspan><tspan x="0" y="129"></tspan></text>
      <path id="Icon_awesome-check" data-name="Icon awesome-check" d="M4.411,14.072.19,9.851a.649.649,0,0,1,0-.918l.918-.918a.649.649,0,0,1,.918,0L4.87,10.858l6.09-6.09a.649.649,0,0,1,.918,0l.918.918a.649.649,0,0,1,0,.918L5.329,14.072A.649.649,0,0,1,4.411,14.072Z" transform="translate(0 -0.68)" fill="#59bee2"/>
      <path id="Icon_awesome-check-2" data-name="Icon awesome-check" d="M4.411,14.072.19,9.851a.649.649,0,0,1,0-.918l.918-.918a.649.649,0,0,1,.918,0L4.87,10.858l6.09-6.09a.649.649,0,0,1,.918,0l.918.918a.649.649,0,0,1,0,.918L5.329,14.072A.649.649,0,0,1,4.411,14.072Z" transform="translate(0 56.607)" fill="#59bee2"/>
      <path id="Icon_awesome-check-3" data-name="Icon awesome-check" d="M4.411,14.072.19,9.851a.649.649,0,0,1,0-.918l.918-.918a.649.649,0,0,1,.918,0L4.87,10.858l6.09-6.09a.649.649,0,0,1,.918,0l.918.918a.649.649,0,0,1,0,.918L5.329,14.072A.649.649,0,0,1,4.411,14.072Z" transform="translate(0 95.251)" fill="#59bee2"/>
    </g>
    <g id="Grupo_1068291" data-name="Grupo 1068291" transform="translate(936.695 1387)">
      <text id="Apropiación_de_conocimientos_Plantas_físicas_adecuadas_Inclusión_Tecnología_" data-name="Apropiación de conocimientos 

Plantas físicas adecuadas

Inclusión

Tecnología

" transform="translate(24)" fill="#12263f" font-size="16" font-family="Roboto-Regular, Roboto"><tspan x="0" y="15">Apropiación de </tspan><tspan x="0" y="34">conocimientos </tspan><tspan x="0" y="53"></tspan><tspan x="0" y="72">Plantas físicas adecuadas</tspan><tspan x="0" y="91"></tspan><tspan x="0" y="110">Inclusión</tspan><tspan x="0" y="129"></tspan><tspan x="0" y="148">Tecnología</tspan></text>
      <path id="Icon_awesome-check-4" data-name="Icon awesome-check" d="M4.411,14.072.19,9.851a.649.649,0,0,1,0-.918l.918-.918a.649.649,0,0,1,.918,0L4.87,10.858l6.09-6.09a.649.649,0,0,1,.918,0l.918.918a.649.649,0,0,1,0,.918L5.329,14.072A.649.649,0,0,1,4.411,14.072Z" transform="translate(0 -0.68)" fill="#59bee2"/>
      <path id="Icon_awesome-check-5" data-name="Icon awesome-check" d="M4.411,14.072.19,9.851a.649.649,0,0,1,0-.918l.918-.918a.649.649,0,0,1,.918,0L4.87,10.858l6.09-6.09a.649.649,0,0,1,.918,0l.918.918a.649.649,0,0,1,0,.918L5.329,14.072A.649.649,0,0,1,4.411,14.072Z" transform="translate(0 56.607)" fill="#59bee2"/>
      <path id="Icon_awesome-check-6" data-name="Icon awesome-check" d="M4.411,14.072.19,9.851a.649.649,0,0,1,0-.918l.918-.918a.649.649,0,0,1,.918,0L4.87,10.858l6.09-6.09a.649.649,0,0,1,.918,0l.918.918a.649.649,0,0,1,0,.918L5.329,14.072A.649.649,0,0,1,4.411,14.072Z" transform="translate(0 95.895)" fill="#59bee2"/>
      <path id="Icon_awesome-check-7" data-name="Icon awesome-check" d="M4.411,14.072.19,9.851a.649.649,0,0,1,0-.918l.918-.918a.649.649,0,0,1,.918,0L4.87,10.858l6.09-6.09a.649.649,0,0,1,.918,0l.918.918a.649.649,0,0,1,0,.918L5.329,14.072A.649.649,0,0,1,4.411,14.072Z" transform="translate(0 135.182)" fill="#59bee2"/>
    </g>
    <g id="Grupo_1068292" data-name="Grupo 1068292" transform="translate(936.695 1590.46)">
      <text id="Seguridad_y_salud_en_el_trabajo_Ambiente_laboral_sano_capacitación_" data-name="Seguridad y salud en el trabajo

Ambiente laboral sano

capacitación
" transform="translate(24)" fill="#12263f" font-size="16" font-family="Roboto-Regular, Roboto"><tspan x="0" y="15">Seguridad y salud en el </tspan><tspan x="0" y="34">trabajo</tspan><tspan x="0" y="53"></tspan><tspan x="0" y="72">Ambiente laboral sano</tspan><tspan x="0" y="91"></tspan><tspan x="0" y="110">Capacitación</tspan></text>
      <path id="Icon_awesome-check-8" data-name="Icon awesome-check" d="M4.411,14.072.19,9.851a.649.649,0,0,1,0-.918l.918-.918a.649.649,0,0,1,.918,0L4.87,10.858l6.09-6.09a.649.649,0,0,1,.918,0l.918.918a.649.649,0,0,1,0,.918L5.329,14.072A.649.649,0,0,1,4.411,14.072Z" transform="translate(0 -0.68)" fill="#59bee2"/>
      <path id="Icon_awesome-check-9" data-name="Icon awesome-check" d="M4.411,14.072.19,9.851a.649.649,0,0,1,0-.918l.918-.918a.649.649,0,0,1,.918,0L4.87,10.858l6.09-6.09a.649.649,0,0,1,.918,0l.918.918a.649.649,0,0,1,0,.918L5.329,14.072A.649.649,0,0,1,4.411,14.072Z" transform="translate(0 56.607)" fill="#59bee2"/>
      <path id="Icon_awesome-check-10" data-name="Icon awesome-check" d="M4.411,14.072.19,9.851a.649.649,0,0,1,0-.918l.918-.918a.649.649,0,0,1,.918,0L4.87,10.858l6.09-6.09a.649.649,0,0,1,.918,0l.918.918a.649.649,0,0,1,0,.918L5.329,14.072A.649.649,0,0,1,4.411,14.072Z" transform="translate(0 95.607)" fill="#59bee2"/>
    </g>
    <g id="Grupo_1034625" data-name="Grupo 1034625" transform="translate(909.695 1197.18)">
      <g id="Grupo_1034624" data-name="Grupo 1034624" clip-path="url(#clip-path)">
        <path id="Trazado_739441" data-name="Trazado 739441" d="M20.793.5H19.545c-5.112,0-9.255,6.175-9.255,13.793V54.95c0,4.634-1.561,8.957-4.156,11.51l-5.1,5.017,3.788,2.531c3.327,2.224,5.468,7.151,5.468,12.585V126.8c0,7.617,4.144,13.793,9.255,13.793" transform="translate(-0.793 3.362)" fill="none" stroke="#59bee2" stroke-miterlimit="10" stroke-width="2"/>
      </g>
    </g>
    <g id="Grupo_1068297" data-name="Grupo 1068297" transform="translate(909.695 1388.258)">
      <g id="Grupo_1034624-2" data-name="Grupo 1034624" transform="translate(0 2)" clip-path="url(#clip-path-2)">
        <path id="Trazado_739441-2" data-name="Trazado 739441" d="M20.793-10.82H19.545c-5.112,0-9.255,6.175-9.255,13.793V54.95c0,4.634-1.561,8.957-4.156,11.51l-5.1,5.017,3.788,2.531c3.327,2.224,5.468,7.151,5.468,12.585v51.92c0,7.617,4.144,13.793,9.255,13.793" transform="translate(-0.793 3.362)" fill="none" stroke="#59bee2" stroke-miterlimit="10" stroke-width="2"/>
      </g>
    </g>
    <g id="Grupo_1068296" data-name="Grupo 1068296" transform="translate(909.695 1588.757)">
      <g id="Grupo_1034624-3" data-name="Grupo 1034624" clip-path="url(#clip-path-3)">
        <path id="Trazado_739441-3" data-name="Trazado 739441" d="M20.793-6.5H19.545c-5.112,0-9.255,4.957-9.255,11.072V44.211a11.774,11.774,0,0,1-4.156,9.24l-5.1,4.027,3.788,2.032c3.327,1.785,5.468,5.741,5.468,10.1v41.279c0,6.115,4.144,11.072,9.255,11.072" transform="translate(-0.793 2.601)" fill="none" stroke="#59bee2" stroke-miterlimit="10" stroke-width="2"/>
      </g>
    </g>
    <rect id="Rectángulo_375973" data-name="Rectángulo 375973" width="152" height="68" rx="5" transform="translate(746.695 1777.886)" fill="#ffecd4"/>
    <text id="Entorno_comunitario" data-name="Entorno comunitario" transform="translate(756.695 1789.886)" fill="#12263f" font-size="16" font-family="Roboto-Regular, Roboto"><tspan x="-27.742" y="15">Entorno </tspan><tspan x="-42.703" y="39">comunitario</tspan></text>
    <g id="Grupo_1068293" data-name="Grupo 1068293" transform="translate(936.695 1762.886)">
      <text id="Favorecer_iniciativas_sociales_y_comunitarias_Promover_por_la_participación_de_las_personas_" data-name="Favorecer iniciativas sociales y comunitarias

Promover por la participación de las personas

" transform="translate(24)" fill="#12263f" font-size="16" font-family="Roboto-Regular, Roboto"><tspan x="0" y="15">Favorecer iniciativas </tspan><tspan x="0" y="34">sociales y comunitarias</tspan><tspan x="0" y="53"></tspan><tspan x="0" y="72">Promover por la </tspan><tspan x="0" y="91">participación de las </tspan><tspan x="0" y="110">personas</tspan></text>
      <path id="Icon_awesome-check-11" data-name="Icon awesome-check" d="M4.411,14.072.19,9.851a.649.649,0,0,1,0-.918l.918-.918a.649.649,0,0,1,.918,0L4.87,10.858l6.09-6.09a.649.649,0,0,1,.918,0l.918.918a.649.649,0,0,1,0,.918L5.329,14.072A.649.649,0,0,1,4.411,14.072Z" transform="translate(0 -0.68)" fill="#59bee2"/>
      <path id="Icon_awesome-check-12" data-name="Icon awesome-check" d="M4.411,14.072.19,9.851a.649.649,0,0,1,0-.918l.918-.918a.649.649,0,0,1,.918,0L4.87,10.858l6.09-6.09a.649.649,0,0,1,.918,0l.918.918a.649.649,0,0,1,0,.918L5.329,14.072A.649.649,0,0,1,4.411,14.072Z" transform="translate(0 56.607)" fill="#59bee2"/>
    </g>
    <g id="Grupo_1068295" data-name="Grupo 1068295" transform="translate(909.695 1752.197)">
      <g id="Grupo_1034624-4" data-name="Grupo 1034624" clip-path="url(#clip-path-4)">
        <path id="Trazado_739441-4" data-name="Trazado 739441" d="M20.793.5H19.545c-5.112,0-9.255,5.509-9.255,12.3V49.073A13.738,13.738,0,0,1,6.133,59.341l-5.1,4.475,3.788,2.258c3.327,1.984,5.468,6.379,5.468,11.226v35.87c0,6.8,4.144,12.3,9.255,12.3" transform="translate(-0.793 2.945)" fill="none" stroke="#59bee2" stroke-miterlimit="10" stroke-width="2"/>
      </g>
    </g>
    <g id="Grupo_1068294" data-name="Grupo 1068294" transform="translate(935.695 1926.46)">
      <text id="Bienestar_y_calidad_de_vida_Condiciones_sanitarias_adecuadas_Inclusión_y_respeto_por_la_vida_" data-name="Bienestar y calidad de vida

Condiciones sanitarias adecuadas

Inclusión y respeto por la vida

" transform="translate(24)" fill="#12263f" font-size="16" font-family="Roboto-Regular, Roboto"><tspan x="0" y="15">Bienestar y calidad de vida</tspan><tspan x="0" y="34"></tspan><tspan x="0" y="53">Condiciones sanitarias </tspan><tspan x="0" y="72">adecuadas</tspan><tspan x="0" y="91"></tspan><tspan x="0" y="110">Inclusión y respeto por la </tspan><tspan x="0" y="129">vida</tspan></text>
      <path id="Icon_awesome-check-13" data-name="Icon awesome-check" d="M4.411,14.072.19,9.851a.649.649,0,0,1,0-.918l.918-.918a.649.649,0,0,1,.918,0L4.87,10.858l6.09-6.09a.649.649,0,0,1,.918,0l.918.918a.649.649,0,0,1,0,.918L5.329,14.072A.649.649,0,0,1,4.411,14.072Z" transform="translate(0 -0.68)" fill="#59bee2"/>
      <path id="Icon_awesome-check-14" data-name="Icon awesome-check" d="M4.411,14.072.19,9.851a.649.649,0,0,1,0-.918l.918-.918a.649.649,0,0,1,.918,0L4.87,10.858l6.09-6.09a.649.649,0,0,1,.918,0l.918.918a.649.649,0,0,1,0,.918L5.329,14.072A.649.649,0,0,1,4.411,14.072Z" transform="translate(0 37.607)" fill="#59bee2"/>
      <path id="Icon_awesome-check-15" data-name="Icon awesome-check" d="M4.411,14.072.19,9.851a.649.649,0,0,1,0-.918l.918-.918a.649.649,0,0,1,.918,0L4.87,10.858l6.09-6.09a.649.649,0,0,1,.918,0l.918.918a.649.649,0,0,1,0,.918L5.329,14.072A.649.649,0,0,1,4.411,14.072Z" transform="translate(0 95.607)" fill="#59bee2"/>
    </g>
    <g id="Grupo_1068298" data-name="Grupo 1068298" transform="translate(908.695 1916.089)">
      <g id="Grupo_1034624-5" data-name="Grupo 1034624" clip-path="url(#clip-path)">
        <path id="Trazado_739441-5" data-name="Trazado 739441" d="M20.793.5H19.545c-5.112,0-9.255,6.175-9.255,13.793V54.95c0,4.634-1.561,8.957-4.156,11.51l-5.1,5.017,3.788,2.531c3.327,2.224,5.468,7.151,5.468,12.585V126.8c0,7.617,4.144,13.793,9.255,13.793" transform="translate(-0.793 3.362)" fill="none" stroke="#59bee2" stroke-miterlimit="10" stroke-width="2"/>
      </g>
    </g>
    <rect id="Rectángulo_375974" data-name="Rectángulo 375974" width="152" height="68" rx="5" transform="translate(746.695 1953.46)" fill="#ffecd4"/>
    <text id="Entorno_institucional" data-name="Entorno institucional" transform="translate(756.695 1965.46)" fill="#12263f" font-size="16" font-family="Roboto-Regular, Roboto"><tspan x="-27.742" y="15">Entorno </tspan><tspan x="-43.457" y="39">institucional</tspan></text>
    <g id="Grupo_1068300" data-name="Grupo 1068300" transform="translate(1201.568 794.075)">
      <path id="Trazado_812057-2" data-name="Trazado 812057" d="M44.685,0h-47.9" transform="translate(3.218 5.895)" fill="none" stroke="#59bee2" stroke-width="1.5"/>
      <path id="Trazado_812056-2" data-name="Trazado 812056" d="M8.336,0V8.336H0Z" transform="translate(37.399 5.895) rotate(-45)" fill="#59bee2"/>
    </g>
    <path id="Trazado_812057-3" data-name="Trazado 812057" d="M27.462,0H-3.218" transform="translate(1288.977 574.232) rotate(90)" fill="none" stroke="#59bee2" stroke-width="1.5"/>
    <path id="Trazado_812056-3" data-name="Trazado 812056" d="M8.336,0V8.336H0Z" transform="translate(1288.977 591.189) rotate(45)" fill="#59bee2"/>
    <g id="Grupo_1068301" data-name="Grupo 1068301" transform="translate(1201.568 899.815)">
      <path id="Trazado_812057-4" data-name="Trazado 812057" d="M44.685,0h-47.9" transform="translate(3.218 5.895)" fill="none" stroke="#59bee2" stroke-width="1.5"/>
      <path id="Trazado_812056-4" data-name="Trazado 812056" d="M8.336,0V8.336H0Z" transform="translate(37.399 5.895) rotate(-45)" fill="#59bee2"/>
    </g>
    <g id="Grupo_1068302" data-name="Grupo 1068302" transform="translate(1201.568 997.605)">
      <path id="Trazado_812057-5" data-name="Trazado 812057" d="M44.685,0h-47.9" transform="translate(3.218 5.895)" fill="none" stroke="#59bee2" stroke-width="1.5"/>
      <path id="Trazado_812056-5" data-name="Trazado 812056" d="M8.336,0V8.336H0Z" transform="translate(37.399 5.895) rotate(-45)" fill="#59bee2"/>
    </g>
    <g id="Grupo_1068303" data-name="Grupo 1068303" transform="translate(1201.568 1091.121)">
      <path id="Trazado_812057-6" data-name="Trazado 812057" d="M44.685,0h-47.9" transform="translate(3.218 5.895)" fill="none" stroke="#59bee2" stroke-linecap="square" stroke-width="1.5"/>
      <path id="Trazado_812056-6" data-name="Trazado 812056" d="M8.336,0V8.336H0Z" transform="translate(37.399 5.895) rotate(-45)" fill="#59bee2"/>
    </g>
    <line id="Línea_1738" data-name="Línea 1738" y2="457.091" transform="translate(1201.568 639.409)" fill="none" stroke="#59bee2" stroke-linecap="square" stroke-width="1.5"/>
    <path id="Trazado_812068" data-name="Trazado 812068" d="M18.215,0H-3.218" transform="translate(1204.785 639.409)" fill="none" stroke="#59bee2" stroke-width="1.5"/>
  </g>
</svg>
