<svg xmlns="http://www.w3.org/2000/svg" xmlns:xlink="http://www.w3.org/1999/xlink" width="130" height="130" viewBox="0 0 130 130">
  <defs>
    <clipPath id="clip-path">
      <circle id="Elipse_8350" data-name="Elipse 8350" cx="60" cy="60" r="60" transform="translate(-0.001 0.4)" fill="#fff"/>
    </clipPath>
    <clipPath id="clip-path-3">
      <circle id="Elipse_8339" data-name="Elipse 8339" cx="60" cy="60" r="60" transform="translate(0 0.4)" fill="#fff"/>
    </clipPath>
  </defs>
  <g id="Grupo_1070137" data-name="Grupo 1070137" transform="translate(-731 -4984)">
    <g id="Grupo_1070097" data-name="Grupo 1070097" transform="translate(0 -127)">
      <circle id="Elipse_8300" data-name="Elipse 8300" cx="60" cy="60" r="60" transform="translate(736 5116)" fill="#fff"/>
      <g id="Enmascarar_grupo_1064412" data-name="Enmascarar grupo 1064412" transform="translate(734.001 5115.6)" clip-path="url(#clip-path)">
        <g id="_16-Eco-friendly" data-name="16-Eco-friendly" transform="translate(18.593 19.041)">
          <path id="Trazado_810692" data-name="Trazado 810692" d="M93.422,4H82.5a1.365,1.365,0,0,0-1.365,1.37l0,1.361H64.758a1.369,1.369,0,0,0-.344.044l-31.43,8.187a1.365,1.365,0,0,0-1.021,1.321,6.839,6.839,0,0,0,6.831,6.831H52.635a5.52,5.52,0,0,0,5.374,4.1h9.075a10.853,10.853,0,0,0,7.225,2.731,10.664,10.664,0,0,0,6.912-2.524,1.364,1.364,0,0,0,1.348,1.158H93.422a1.365,1.365,0,0,0,1.365-1.365V5.364A1.365,1.365,0,0,0,93.422,4ZM81.134,23.412a8.1,8.1,0,0,1-12.558,1.457,1.365,1.365,0,0,0-.956-.39H58.009a2.772,2.772,0,0,1-2.792-2.368l-.022-.36a2.729,2.729,0,0,1,2.73-2.733h9.555V16.287H57.926a5.459,5.459,0,0,0-5.287,4.1H38.795A4.108,4.108,0,0,1,34.823,17.3L64.933,9.46h16.2Zm10.922,2.432H83.93L83.869,6.73h8.188Z" transform="translate(-12.849 -3.999)" fill="#12263f"/>
          <rect id="Rect치ngulo_375811" data-name="Rect치ngulo 375811" width="2" height="3" transform="translate(74.407 16.359)" fill="#12263f"/>
          <rect id="Rect치ngulo_375812" data-name="Rect치ngulo 375812" width="2" height="3" transform="translate(6.407 63.359)" fill="#12263f"/>
          <path id="Trazado_810693" data-name="Trazado 810693" d="M68.159,57.642H61.333a12.268,12.268,0,0,0-9.557,4.576V56.277h2.731a9.568,9.568,0,0,0,9.557-9.557V45.355A1.365,1.365,0,0,0,62.7,43.989H58.6a9.561,9.561,0,0,0-8.192,4.64,9.561,9.561,0,0,0-8.192-4.64h-4.1a1.365,1.365,0,0,0-1.365,1.365V46.72a9.568,9.568,0,0,0,9.557,9.557h2.731v5.942a12.268,12.268,0,0,0-9.557-4.576H32.661A1.365,1.365,0,0,0,31.3,59.008v2.731A12.3,12.3,0,0,0,43.584,74.026h5.461v5.461H46.122a5.52,5.52,0,0,0-5.374-4.1H31.673a10.853,10.853,0,0,0-7.225-2.731,10.664,10.664,0,0,0-6.912,2.524,1.364,1.364,0,0,0-1.348-1.158H5.335A1.365,1.365,0,0,0,3.97,75.392V97.236A1.365,1.365,0,0,0,5.335,98.6H16.258a1.365,1.365,0,0,0,1.365-1.37l0-1.361H34a1.367,1.367,0,0,0,.344-.044l31.43-8.187a1.365,1.365,0,0,0,1.021-1.321,6.839,6.839,0,0,0-6.831-6.831H51.776V74.026h5.461A12.3,12.3,0,0,0,69.525,61.738V59.008A1.365,1.365,0,0,0,68.159,57.642ZM6.7,95.871V76.757h8.126l.061,19.114ZM63.935,85.3,33.824,93.141h-16.2V79.189a8.1,8.1,0,0,1,12.558-1.457,1.365,1.365,0,0,0,.956.39h9.611a2.772,2.772,0,0,1,2.792,2.368l.022.36a2.729,2.729,0,0,1-2.73,2.733H31.276v2.731h9.555a5.459,5.459,0,0,0,5.287-4.1H59.963A4.108,4.108,0,0,1,63.935,85.3ZM58.6,46.72h2.731a6.834,6.834,0,0,1-6.827,6.827H51.776A6.834,6.834,0,0,1,58.6,46.72Zm-19.114,0h2.731a6.834,6.834,0,0,1,6.827,6.827H46.314a6.834,6.834,0,0,1-6.827-6.827ZM34.027,61.738V60.373h5.461a9.568,9.568,0,0,1,9.557,9.557V71.3H43.584a9.568,9.568,0,0,1-9.557-9.557Zm32.767,0A9.568,9.568,0,0,1,57.237,71.3H51.776V69.93a9.568,9.568,0,0,1,9.557-9.557h5.461Z" transform="translate(-3.97 -16.683)" fill="#12263f"/>
        </g>
      </g>
      <g id="Elipse_8307" data-name="Elipse 8307" transform="translate(736 5116)" fill="none" stroke="#67bb75" stroke-width="5">
        <circle cx="60" cy="60" r="60" stroke="none"/>
        <circle cx="60" cy="60" r="62.5" fill="none"/>
      </g>
    </g>
  </g>
</svg>
