<svg xmlns="http://www.w3.org/2000/svg" xmlns:xlink="http://www.w3.org/1999/xlink" width="130" height="130" viewBox="0 0 130 130">
  <defs>
    <clipPath id="clip-path">
      <circle id="Elipse_8351" data-name="Elipse 8351" cx="60" cy="60" r="60" transform="translate(0 0.4)" fill="#fff"/>
    </clipPath>
    <clipPath id="clip-path-2">
      <circle id="Elipse_8340" data-name="Elipse 8340" cx="60" cy="60" r="60" transform="translate(0 0.4)" fill="#12263f"/>
    </clipPath>
  </defs>
  <g id="Grupo_1070138" data-name="Grupo 1070138" transform="translate(-1145 -4984)">
    <g id="Grupo_1070099" data-name="Grupo 1070099" transform="translate(0 -127)">
      <circle id="Elipse_8301" data-name="Elipse 8301" cx="60" cy="60" r="60" transform="translate(1150 5116)" fill="#fff"/>
      <g id="Enmascarar_grupo_1064413" data-name="Enmascarar grupo 1064413" transform="translate(1150 5115.6)" clip-path="url(#clip-path)">
        <g id="Global-World" transform="translate(20 18.623)">
          <path id="Trazado_810694" data-name="Trazado 810694" d="M63.43,33.88H55.184a1.374,1.374,0,0,0-1.374,1.374V38a1.374,1.374,0,0,0,.4.971l2.346,2.346v4.929a1.374,1.374,0,0,0,1.374,1.374h2.749a1.374,1.374,0,0,0,.971-.4L64.4,44.472a1.374,1.374,0,0,0,.4-.972V35.254A1.374,1.374,0,0,0,63.43,33.88Zm-1.374,9.052-1.943,1.943h-.805V40.752a1.374,1.374,0,0,0-.4-.971l-2.346-2.346v-.805h5.5Z" transform="translate(-20.83 -13.264)" fill="#12263f"/>
          <path id="Trazado_810695" data-name="Trazado 810695" d="M78.558,65a11,11,0,1,0,0,15.55A11,11,0,0,0,78.558,65ZM76.615,78.608a8.246,8.246,0,1,1,0-11.663,8.246,8.246,0,0,1,0,11.663Z" transform="translate(-22.686 -21.924)" fill="#12263f"/>
          <path id="Trazado_810696" data-name="Trazado 810696" d="M85.183,78.162,72.549,65.528a1.414,1.414,0,0,0-1.943,0L68.278,63.2a16.477,16.477,0,0,0,2.283-8.547A34.326,34.326,0,0,0,40.341,3.986c-.482,0-.948.014-1.433.029a34.361,34.361,0,0,0,.017,68.661c.469.015.935.029,1.417.029a32.794,32.794,0,0,0,4.292-.275,33.26,33.26,0,0,0,6.291-1.411,16.662,16.662,0,0,0,3.161.3,16.492,16.492,0,0,0,8.363-2.291l2.327,2.328a1.374,1.374,0,0,0,0,1.943L77.409,85.936a2.749,2.749,0,0,0,3.887,0l3.887-3.885A2.749,2.749,0,0,0,85.183,78.162ZM71.952,38.345a31.611,31.611,0,0,1-2.17,11.479A16.377,16.377,0,0,0,56.833,38.6V37.54l2.346-2.346a1.374,1.374,0,0,0,.4-.972V25.976a1.374,1.374,0,0,0-.4-.971l-6.872-6.872a1.374,1.374,0,0,0-.972-.4h-6.3l-4.692-4.692v-6.3A31.646,31.646,0,0,1,71.952,38.345ZM42.423,43.176c-.214.214-.4.444-.6.667H33.469a1.374,1.374,0,0,0-.971.4l-5.5,5.5a1.374,1.374,0,0,0-.4.972v4.123a1.374,1.374,0,0,0,.4.971l2.749,2.749a1.374,1.374,0,0,0,.972.4h4.123v4.123a1.374,1.374,0,0,0,.4.971L37.592,66.4v3.4A31.317,31.317,0,0,1,18.3,60.951L20.7,58.558a1.374,1.374,0,0,0,.4-.972V54.032l3.72-3.72a1.374,1.374,0,0,0,.4-.972V45.217a1.374,1.374,0,0,0-.4-.971l-6.469-6.469V35.6H21.1a1.374,1.374,0,0,0,.971-.4l5.5-5.5a1.374,1.374,0,0,0,.4-.972V23.8L33.066,18.7a1.374,1.374,0,0,0,.4-.972v-5.5a1.374,1.374,0,0,0-.4-.971L30.217,8.411a31.319,31.319,0,0,1,7.375-1.524v6.719a1.374,1.374,0,0,0,.4.971l5.5,5.5a1.374,1.374,0,0,0,.972.4h6.3l6.067,6.067v7.108L54.487,36a1.374,1.374,0,0,0-.4.972v1.383a16.436,16.436,0,0,0-11.662,4.823ZM8.73,38.345A31.575,31.575,0,0,1,27.436,9.506L30.72,12.8v4.36l-5.095,5.095a1.374,1.374,0,0,0-.4.972v4.929l-4.692,4.692H16.977A1.374,1.374,0,0,0,15.6,34.222v4.123a1.374,1.374,0,0,0,.4.971l6.469,6.469v2.985l-3.72,3.72a1.374,1.374,0,0,0-.4.972v3.554l-1.924,1.924a31.464,31.464,0,0,1-7.7-20.6ZM44.284,69.707a31.437,31.437,0,0,1-3.943.241V65.833a1.374,1.374,0,0,0-.4-.971l-2.346-2.346V57.587a1.374,1.374,0,0,0-1.374-1.374H31.289l-1.943-1.943V51.284l4.692-4.692h5.785A16.461,16.461,0,0,0,46.31,69.379C45.639,69.507,44.966,69.622,44.284,69.707Zm.082-5.151a13.744,13.744,0,1,1,19.436,0A13.744,13.744,0,0,1,44.367,64.556Zm20.359,2.867c.348-.3.694-.6,1.021-.924s.628-.672.924-1.021l1.993,1.993-1.945,1.945Zm6.853,1.02,1.943,1.945-3.887,3.887-1.943-1.943ZM83.239,80.106l-3.887,3.887-7.775-7.775,3.887-3.887L83.241,80.1Z" transform="translate(-5.987 -3.986)" fill="#12263f"/>
        </g>
      </g>
      <g id="Elipse_8308" data-name="Elipse 8308" transform="translate(1150 5116)" fill="none" stroke="#67bb75" stroke-width="5">
        <circle cx="60" cy="60" r="60" stroke="none"/>
        <circle cx="60" cy="60" r="62.5" fill="none"/>
      </g>
    </g>
  </g>
</svg>
