<svg xmlns="http://www.w3.org/2000/svg" xmlns:xlink="http://www.w3.org/1999/xlink" width="505" height="317.001" viewBox="0 0 505 317.001">
  <defs>
    <clipPath id="clip-path">
      <rect id="Rectángulo_375810" data-name="Rectángulo 375810" width="448" height="306" transform="translate(946 3417)" fill="#fff" stroke="#707070" stroke-width="1"/>
    </clipPath>
    <clipPath id="clip-path-2">
      <rect id="Rectángulo_375809" data-name="Rectángulo 375809" width="472.668" height="312.663" fill="none"/>
    </clipPath>
    <clipPath id="clip-path-6">
      <rect id="Rectángulo_375782" data-name="Rectángulo 375782" width="8.909" height="24.081" fill="none"/>
    </clipPath>
    <clipPath id="clip-path-7">
      <rect id="Rectángulo_375783" data-name="Rectángulo 375783" width="91.968" height="135.135" fill="#fcfcfc"/>
    </clipPath>
    <clipPath id="clip-path-8">
      <rect id="Rectángulo_375785" data-name="Rectángulo 375785" width="8.244" height="4.698" fill="none"/>
    </clipPath>
    <clipPath id="clip-path-9">
      <rect id="Rectángulo_375786" data-name="Rectángulo 375786" width="14.763" height="14.199" fill="none"/>
    </clipPath>
    <clipPath id="clip-path-10">
      <rect id="Rectángulo_375787" data-name="Rectángulo 375787" width="15.315" height="10.703" fill="none"/>
    </clipPath>
    <clipPath id="clip-path-11">
      <rect id="Rectángulo_375788" data-name="Rectángulo 375788" width="5.284" height="12.238" fill="none"/>
    </clipPath>
    <clipPath id="clip-path-12">
      <rect id="Rectángulo_375789" data-name="Rectángulo 375789" width="11.845" height="13.452" fill="none"/>
    </clipPath>
    <clipPath id="clip-path-13">
      <rect id="Rectángulo_375790" data-name="Rectángulo 375790" width="10.559" height="7.289" fill="none"/>
    </clipPath>
    <clipPath id="clip-path-14">
      <rect id="Rectángulo_375791" data-name="Rectángulo 375791" width="300.971" height="189.724" fill="none"/>
    </clipPath>
    <clipPath id="clip-path-15">
      <rect id="Rectángulo_375792" data-name="Rectángulo 375792" width="20.47" height="8.21" fill="none"/>
    </clipPath>
    <clipPath id="clip-path-17">
      <rect id="Rectángulo_375794" data-name="Rectángulo 375794" width="6.135" height="12.159" fill="none"/>
    </clipPath>
    <clipPath id="clip-path-18">
      <rect id="Rectángulo_375795" data-name="Rectángulo 375795" width="30.772" height="11.29" fill="none"/>
    </clipPath>
    <clipPath id="clip-path-19">
      <rect id="Rectángulo_375796" data-name="Rectángulo 375796" width="25.651" height="19.412" fill="none"/>
    </clipPath>
    <clipPath id="clip-path-20">
      <rect id="Rectángulo_375797" data-name="Rectángulo 375797" width="8.999" height="8.33" fill="none"/>
    </clipPath>
    <clipPath id="clip-path-21">
      <rect id="Rectángulo_375798" data-name="Rectángulo 375798" width="19.048" height="10.018" fill="none"/>
    </clipPath>
    <clipPath id="clip-path-23">
      <rect id="Rectángulo_375800" data-name="Rectángulo 375800" width="292.491" height="273.153" fill="none"/>
    </clipPath>
    <clipPath id="clip-path-24">
      <rect id="Rectángulo_375801" data-name="Rectángulo 375801" width="21.002" height="8.706" fill="none"/>
    </clipPath>
    <clipPath id="clip-path-26">
      <rect id="Rectángulo_375803" data-name="Rectángulo 375803" width="219.649" height="177.579" fill="none"/>
    </clipPath>
    <clipPath id="clip-path-27">
      <rect id="Rectángulo_375804" data-name="Rectángulo 375804" width="16.288" height="16.269" fill="none"/>
    </clipPath>
    <clipPath id="clip-path-28">
      <rect id="Rectángulo_375805" data-name="Rectángulo 375805" width="35.83" height="35.46" fill="none"/>
    </clipPath>
    <clipPath id="clip-path-29">
      <rect id="Rectángulo_375806" data-name="Rectángulo 375806" width="9.803" height="2.272" fill="none"/>
    </clipPath>
    <clipPath id="clip-path-30">
      <rect id="Rectángulo_375807" data-name="Rectángulo 375807" width="7.478" height="8.12" fill="none"/>
    </clipPath>
  </defs>
  <g id="Grupo_1070096" data-name="Grupo 1070096" transform="translate(-915 -4537)">
    <path id="Unión_29" data-name="Unión 29" d="M41,284.6a41,41,0,0,1-41-41V75.885a41,41,0,0,1,41-41H438.089a41.338,41.338,0,0,1,6.249.473L479.088,0V243.6a41,41,0,0,1-41,41Z" transform="translate(1394.088 4854) rotate(180)" fill="#f3f9ff"/>
    <g id="Enmascarar_grupo_1064409" data-name="Enmascarar grupo 1064409" transform="translate(26 1120)" clip-path="url(#clip-path)">
      <g id="Grupo_1067956" data-name="Grupo 1067956" transform="translate(921.421 3416.864)">
        <g id="Grupo_1067955" data-name="Grupo 1067955" clip-path="url(#clip-path-2)">
          <rect id="Rectángulo_375762" data-name="Rectángulo 375762" width="472.668" height="0.236" transform="translate(0 269.969)" fill="#ebebeb"/>
          <rect id="Rectángulo_375763" data-name="Rectángulo 375763" width="31.311" height="0.236" transform="translate(393.996 285.185)" fill="#ebebeb"/>
          <rect id="Rectángulo_375764" data-name="Rectángulo 375764" width="8.218" height="0.236" transform="translate(304.896 287.75)" fill="#ebebeb"/>
          <rect id="Rectángulo_375765" data-name="Rectángulo 375765" width="18.143" height="0.236" transform="translate(374.907 276.407)" fill="#ebebeb"/>
          <rect id="Rectángulo_375766" data-name="Rectángulo 375766" width="40.832" height="0.236" transform="translate(49.591 277.995)" fill="#ebebeb"/>
          <rect id="Rectángulo_375767" data-name="Rectángulo 375767" width="5.987" height="0.236" transform="translate(98.84 277.995)" fill="#ebebeb"/>
          <rect id="Rectángulo_375768" data-name="Rectángulo 375768" width="88.555" height="0.235" transform="translate(124.284 281.987)" fill="#ebebeb"/>
          <rect id="Rectángulo_375769" data-name="Rectángulo 375769" width="6.362" height="174.094" transform="translate(134.901 96.111)" fill="#f5f5f5"/>
          <rect id="Rectángulo_375770" data-name="Rectángulo 375770" width="6.362" height="151.99" transform="translate(160.053 118.215)" fill="#f5f5f5"/>
          <rect id="Rectángulo_375771" data-name="Rectángulo 375771" width="6.362" height="129.886" transform="translate(184.978 140.319)" fill="#f5f5f5"/>
          <rect id="Rectángulo_375772" data-name="Rectángulo 375772" width="6.362" height="144.622" transform="translate(209.902 125.583)" fill="#f5f5f5"/>
          <rect id="Rectángulo_375773" data-name="Rectángulo 375773" width="6.362" height="151.99" transform="translate(234.828 118.215)" fill="#f5f5f5"/>
          <rect id="Rectángulo_375774" data-name="Rectángulo 375774" width="6.362" height="166.726" transform="translate(259.753 103.479)" fill="#f5f5f5"/>
          <rect id="Rectángulo_375775" data-name="Rectángulo 375775" width="6.362" height="159.358" transform="translate(284.677 110.847)" fill="#f5f5f5"/>
          <rect id="Rectángulo_375776" data-name="Rectángulo 375776" width="6.362" height="166.726" transform="translate(309.602 103.479)" fill="#f5f5f5"/>
          <rect id="Rectángulo_375777" data-name="Rectángulo 375777" width="6.362" height="181.462" transform="translate(334.527 88.743)" fill="#f5f5f5"/>
          <rect id="Rectángulo_375778" data-name="Rectángulo 375778" width="6.362" height="196.198" transform="translate(359.451 74.007)" fill="#f5f5f5"/>
          <rect id="Rectángulo_375779" data-name="Rectángulo 375779" width="6.362" height="210.934" transform="translate(384.376 59.272)" fill="#f5f5f5"/>
          <g id="Grupo_1067878" data-name="Grupo 1067878">
            <g id="Grupo_1067877" data-name="Grupo 1067877" clip-path="url(#clip-path-2)">
              <path id="Trazado_810558" data-name="Trazado 810558" d="M195.878,132.444a1.423,1.423,0,0,1-.991-.4L141.629,80.11a1.418,1.418,0,0,1,1.98-2.031l52.4,51.1,73.806-53.831a1.415,1.415,0,0,1,1.9.206l24.16,27.323,100.016-57.3a1.418,1.418,0,1,1,1.41,2.461L296.282,105.908a1.423,1.423,0,0,1-1.768-.291L270.444,78.4l-73.731,53.776a1.412,1.412,0,0,1-.835.272" transform="translate(-7.719 -2.481)" fill="#f0f0f0"/>
              <path id="Trazado_810559" data-name="Trazado 810559" d="M186.9,270.53,140.422,87.213l2.323-9.157h-2.421V25.7h-6.237V78.056h-2.42l2.322,9.157L87.5,270.53h6.434L134.086,112.2V271.492h6.237V112.2L180.471,270.53Z" transform="translate(-4.783 -1.405)" fill="#e0e0e0"/>
              <path id="Trazado_810560" data-name="Trazado 810560" d="M173.989,78.026A35.992,35.992,0,1,1,138,42.033a35.993,35.993,0,0,1,35.993,35.993" transform="translate(-5.576 -2.298)" fill="#e6e6e6"/>
              <path id="Trazado_810561" data-name="Trazado 810561" d="M169.024,78.331A30.722,30.722,0,1,1,138.3,47.609a30.722,30.722,0,0,1,30.721,30.722" transform="translate(-5.881 -2.603)" fill="#f5f5f5"/>
              <path id="Trazado_810562" data-name="Trazado 810562" d="M162.738,78.716a24.051,24.051,0,1,1-24.05-24.051,24.05,24.05,0,0,1,24.05,24.051" transform="translate(-6.267 -2.988)" fill="#e6e6e6"/>
              <path id="Trazado_810563" data-name="Trazado 810563" d="M158.652,78.967a19.714,19.714,0,1,1-19.713-19.713,19.713,19.713,0,0,1,19.713,19.713" transform="translate(-6.517 -3.239)" fill="#f5f5f5"/>
              <path id="Trazado_810564" data-name="Trazado 810564" d="M152.967,79.316a13.679,13.679,0,1,1-13.679-13.679,13.68,13.68,0,0,1,13.679,13.679" transform="translate(-6.866 -3.588)" fill="#e6e6e6"/>
              <path id="Trazado_810565" data-name="Trazado 810565" d="M149.333,79.539a9.822,9.822,0,1,1-9.823-9.822,9.823,9.823,0,0,1,9.823,9.822" transform="translate(-7.089 -3.811)" fill="#f5f5f5"/>
              <path id="Trazado_810566" data-name="Trazado 810566" d="M144.278,79.849a4.456,4.456,0,1,1-4.456-4.456,4.456,4.456,0,0,1,4.456,4.456" transform="translate(-7.4 -4.121)" fill="#e6e6e6"/>
              <path id="Trazado_810567" data-name="Trazado 810567" d="M90.885,48.709l.971,6.51L85.088,57.5l6.768,3.553,6.75-2.373-1.176-6.416Z" transform="translate(-4.651 -2.663)" fill="#e6e6e6"/>
              <line id="Línea_1700" data-name="Línea 1700" x1="48.431" y1="24.82" transform="translate(83.99 50.908)" fill="none" stroke="#e0e0e0" stroke-linecap="round" stroke-linejoin="round" stroke-width="2"/>
              <path id="Trazado_810568" data-name="Trazado 810568" d="M210.583,35.3a8.331,8.331,0,0,1,10.729-7.982,17.64,17.64,0,0,1,20.714-19.9,15.426,15.426,0,0,1,28.606,7.8c.086,0,.17-.013.257-.013a14.218,14.218,0,0,1,0,28.437H218.673l.01-.012a8.328,8.328,0,0,1-8.1-8.323" transform="translate(-11.511)" fill="#f0f0f0"/>
              <path id="Trazado_810569" data-name="Trazado 810569" d="M367.47,31.517a4.013,4.013,0,0,1,5.169-3.847,8.5,8.5,0,0,1,9.982-9.591A7.433,7.433,0,0,1,396.4,21.837c.042,0,.082-.006.124-.006a6.851,6.851,0,0,1,0,13.7H371.368l.006-.007a4.012,4.012,0,0,1-3.9-4.01" transform="translate(-20.088 -0.793)" fill="#f0f0f0"/>
              <path id="Trazado_810570" data-name="Trazado 810570" d="M94.723,37.132A2.7,2.7,0,0,1,98.2,34.546a5.71,5.71,0,0,1,6.709-6.447,5,5,0,0,1,9.266,2.526c.027,0,.055,0,.083,0a4.606,4.606,0,1,1,0,9.211H97.343l0,0a2.7,2.7,0,0,1-2.623-2.7" transform="translate(-5.178 -1.405)" fill="#f0f0f0"/>
            </g>
          </g>
          <g id="Grupo_1067880" data-name="Grupo 1067880">
            <g id="Grupo_1067879" data-name="Grupo 1067879" clip-path="url(#clip-path-2)">
              <path id="Trazado_810571" data-name="Trazado 810571" d="M422.691,318.8c0,5.912-82.062,10.7-183.29,10.7s-183.29-4.792-183.29-10.7,82.062-10.7,183.29-10.7,183.29,4.793,183.29,10.7" transform="translate(-3.067 -16.842)" fill="#f5f5f5"/>
            </g>
          </g>
          <g id="Grupo_1067912" data-name="Grupo 1067912">
            <g id="Grupo_1067911" data-name="Grupo 1067911" clip-path="url(#clip-path-2)">
              <path id="Trazado_810572" data-name="Trazado 810572" d="M138.385,128.29l6.482-3.7s2.494-3.852,3.242-4.027,8.975,0,8.975,0-1.246,5.324-1.371,6.376-7.979,0-7.979,0l-6.357,3.795Z" transform="translate(-7.565 -6.586)" fill="#ebb376"/>
              <path id="Trazado_810573" data-name="Trazado 810573" d="M73.963,311.064l-6.791-1.355a.535.535,0,0,0-.52.419l-1.824,6.788a.9.9,0,0,0,.694,1.067.873.873,0,0,0,.2.02c2.4-.039,4.144-.186,7.156-.186,1.855,0,7.45.194,10.012.194s2.895-2.53,1.847-2.763c-4.7-1.024-8.242-2.445-9.748-3.8a1.473,1.473,0,0,0-1.025-.388" transform="translate(-3.543 -16.93)" fill="#263238"/>
              <path id="Trazado_810574" data-name="Trazado 810574" d="M161.828,310.937h-7.412a.536.536,0,0,0-.52.419l-1.2,5.434a.9.9,0,0,0,.694,1.066.873.873,0,0,0,.2.02c2.4-.039,4.144-.186,7.155-.186,1.856,0,7.451.194,10.013.194s2.895-2.53,1.847-2.763c-4.7-1.024-8.243-2.445-9.748-3.795a1.476,1.476,0,0,0-1.025-.388" transform="translate(-8.346 -16.997)" fill="#263238"/>
              <path id="Trazado_810575" data-name="Trazado 810575" d="M87.11,178.39l31.391-7.96c7.117,15.541,33.241,79.353,39.568,132.441l-10.627,2.694s-18.806-78.294-34.583-101.135c0,0-.846,34.756-2.555,39.811-1.408,4.161-33.713,59.817-33.713,59.817l-10.49-1.19s26.323-56.812,27.927-63.887c1.094-4.824-3.7-40.233-3.7-40.233-.85-3.164-2.108-16.235-2.108-16.235s-.947-3.472-1.105-4.124" transform="translate(-3.613 -9.317)" fill="#288640"/>
              <g id="Grupo_1067883" data-name="Grupo 1067883" transform="translate(107.29 183.726)" opacity="0.2" style="isolation: isolate">
                <g id="Grupo_1067882" data-name="Grupo 1067882">
                  <g id="Grupo_1067881" data-name="Grupo 1067881" clip-path="url(#clip-path-6)">
                    <path id="Trazado_810576" data-name="Trazado 810576" d="M115.453,205.74a86.812,86.812,0,0,1,6.949,12.69c-2.168-12.233-8.909-24.081-8.909-24.081Z" transform="translate(-113.494 -194.35)"/>
                  </g>
                </g>
              </g>
              <g id="Grupo_1067886" data-name="Grupo 1067886" transform="translate(62.602 161.114)" opacity="0.3" style="isolation: isolate">
                <g id="Grupo_1067885" data-name="Grupo 1067885">
                  <g id="Grupo_1067884" data-name="Grupo 1067884" clip-path="url(#clip-path-7)">
                    <path id="Trazado_810577" data-name="Trazado 810577" d="M87.11,178.39l31.391-7.96c7.117,15.541,33.241,79.353,39.568,132.441l-10.627,2.694s-18.806-78.294-34.583-101.135c0,0-.846,34.756-2.555,39.811-1.408,4.161-33.713,59.817-33.713,59.817l-10.49-1.19s26.323-56.812,27.927-63.887c1.094-4.824-3.7-40.233-3.7-40.233-.85-3.164-2.108-16.235-2.108-16.235s-.947-3.472-1.105-4.124" transform="translate(-66.101 -170.431)" fill="#fcfcfc"/>
                  </g>
                </g>
              </g>
              <path id="Trazado_810578" data-name="Trazado 810578" d="M143.9,129.067s-14.312,9.661-18.084,10.172c-1.5.208-4.6-.3-7.808-.983-4.859-1.04-9.926-2.5-9.926-2.5l-.633-4.793-.671-5.124c1.134-.378,15.938,5.71,18.15,6.58s16.515-7.6,16.515-7.6Z" transform="translate(-5.837 -6.823)" fill="#263238"/>
              <path id="Trazado_810579" data-name="Trazado 810579" d="M98.643,176.512l.926,3.63-10.134,2.7-.945-3.762Z" transform="translate(-4.837 -9.649)"/>
              <path id="Trazado_810580" data-name="Trazado 810580" d="M115.281,172.222l.879,3.441-14.813,3.951-.926-3.621Z" transform="translate(-5.489 -9.414)"/>
              <path id="Trazado_810581" data-name="Trazado 810581" d="M122.917,174.032,118.2,175.29l-.87-3.432,4.33-1.1Z" transform="translate(-6.414 -9.335)"/>
              <rect id="Rectángulo_375784" data-name="Rectángulo 375784" width="6.029" height="4.344" transform="translate(100.677 164.417) rotate(-14.232)" fill="#fff"/>
              <path id="Trazado_810582" data-name="Trazado 810582" d="M119.155,168.3l-31.593,8.016c-1.541-4.169-3.11-8.366-4.642-12.46-1.125-3-2.231-5.937-3.309-8.782q-.411-1.092-.822-2.155c-.321-.851-.643-1.692-.955-2.515q-1.049-2.765-2.023-5.322c-.605-1.588-1.191-3.11-1.739-4.547q-.425-1.106-.822-2.155c-.558-1.456-1.078-2.817-1.56-4.065l33.172-8.413c10.947,19.086,14.293,42.4,14.293,42.4" transform="translate(-3.919 -6.882)" fill="#263238"/>
              <path id="Trazado_810583" data-name="Trazado 810583" d="M84.2,133.123c3.416,1.629,9.715-1.254,9.715-1.254s2.09-2.307.842-3.328c-2.535.329-2.373-.5-3.291-1.8a7.336,7.336,0,0,1-1.077-2.685,15.238,15.238,0,0,1-.261-1.6L80.2,118.894c2.261,3.649,5.765,10.559,4.006,14.229" transform="translate(-4.384 -6.499)" fill="#ebb376"/>
              <g id="Grupo_1067889" data-name="Grupo 1067889" transform="translate(78.842 115.652)" opacity="0.2" style="isolation: isolate">
                <g id="Grupo_1067888" data-name="Grupo 1067888">
                  <g id="Grupo_1067887" data-name="Grupo 1067887" clip-path="url(#clip-path-8)">
                    <path id="Trazado_810584" data-name="Trazado 810584" d="M83.4,122.34c1.791,4.777,6.2,4.913,8.244,4.6a7.336,7.336,0,0,1-1.077-2.685Z" transform="translate(-83.402 -122.34)"/>
                  </g>
                </g>
              </g>
              <path id="Trazado_810585" data-name="Trazado 810585" d="M96.691,103.213s2.595,7.848-1.154,11.673-6.3-11.171-6.3-11.171Z" transform="translate(-4.878 -5.642)" fill="#263238"/>
              <path id="Trazado_810586" data-name="Trazado 810586" d="M83.733,123.355a7.417,7.417,0,0,0,8.878,1.406,8.379,8.379,0,0,0,4.259-5.415c1.268-5.281.473-14.006-5.282-16.348a8.044,8.044,0,0,0-11.092,8.03c.339,5.865.263,9.329,3.237,12.327" transform="translate(-4.399 -5.597)" fill="#ebb376"/>
              <path id="Trazado_810587" data-name="Trazado 810587" d="M89.927,113.222c-.033.474.249.864.566.864s.565-.391.568-.867-.256-.866-.566-.865-.564.384-.568.868" transform="translate(-4.916 -6.142)" fill="#263238"/>
              <path id="Trazado_810588" data-name="Trazado 810588" d="M95.646,113.226c-.033.474.256.865.566.864s.565-.391.568-.867-.256-.865-.566-.864-.566.413-.568.867" transform="translate(-5.228 -6.142)" fill="#263238"/>
              <path id="Trazado_810589" data-name="Trazado 810589" d="M93.828,113.523a16.991,16.991,0,0,0,2.282,4.093,2.769,2.769,0,0,1-2.3.427Z" transform="translate(-5.128 -6.206)" fill="#d58745"/>
              <path id="Trazado_810590" data-name="Trazado 810590" d="M97.583,110.867a.294.294,0,0,1-.292-.026,2.261,2.261,0,0,0-1.993-.379.279.279,0,0,1-.2-.522h0a2.784,2.784,0,0,1,2.518.445.279.279,0,0,1,.074.388l0,.006a.439.439,0,0,1-.1.088" transform="translate(-5.189 -6.003)" fill="#263238"/>
              <path id="Trazado_810591" data-name="Trazado 810591" d="M88.79,110.929a.269.269,0,0,1-.157-.054.279.279,0,0,1,.021-.394l0,0a2.782,2.782,0,0,1,2.479-.661.279.279,0,0,1,.192.345h0a.287.287,0,0,1-.346.192,2.26,2.26,0,0,0-1.955.554.284.284,0,0,1-.238.021" transform="translate(-4.841 -5.999)" fill="#263238"/>
              <path id="Trazado_810592" data-name="Trazado 810592" d="M84.651,103.78l.563,1.089c-1.909.724-1.42,2.955-.98,3.955.937,2.136-.139,5.568-1.744,6.992,0,0-.1-.94-.881-.679s-.335,5.158,1.326,7.426c0,0-2.446-2.007-4.012-7.1-1.449-4.707-1.789-8.671-.9-10.56Z" transform="translate(-4.238 -5.673)" fill="#263238"/>
              <path id="Trazado_810593" data-name="Trazado 810593" d="M77.763,116.4a5.591,5.591,0,0,0,3.2,2.828c1.857.625,2.887-1.014,2.461-2.823-.394-1.6-1.825-3.915-3.736-3.737a2.5,2.5,0,0,0-1.927,3.731" transform="translate(-4.235 -6.159)" fill="#ebb376"/>
              <path id="Trazado_810594" data-name="Trazado 810594" d="M84.882,126.337c2.784,1.95,8.2,2.581,10.854-.951s1.8-9.184,1.8-9.184a8.807,8.807,0,0,1-1.7,3.456c-1.491-1.8-4.054-.791-4.054-.791a3.678,3.678,0,0,0-2.175-1.366c-1.237-.123-4.7.084-4.7.084-1.122-.7-1.163-3.865-1.163-3.865l-.681.564s-.977,10.1,1.807,12.052" transform="translate(-4.532 -6.217)" fill="#263238"/>
              <path id="Trazado_810595" data-name="Trazado 810595" d="M92.024,105.389s6.583-3.211,5.832-6.421-2.706.447-2.706.447.89-2.44-.85-2.782-1.165,1.111-2.1,2.048-10.113-.424-13.076,1.4-.695,8.18-.695,8.18a12.714,12.714,0,0,1,13.6-2.877" transform="translate(-4.242 -5.28)" fill="#263238"/>
              <g id="Grupo_1067892" data-name="Grupo 1067892" transform="translate(78.377 107.504)" opacity="0.2">
                <g id="Grupo_1067891" data-name="Grupo 1067891">
                  <g id="Grupo_1067890" data-name="Grupo 1067890" clip-path="url(#clip-path-9)">
                    <path id="Trazado_810596" data-name="Trazado 810596" d="M84.882,126.337c2.784,1.95,8.2,2.581,10.854-.951s1.8-9.184,1.8-9.184a8.807,8.807,0,0,1-1.7,3.456c-1.491-1.8-4.054-.791-4.054-.791a3.678,3.678,0,0,0-2.175-1.366c-1.237-.123-4.7.084-4.7.084-1.122-.7-1.163-3.865-1.163-3.865l-.681.564s-.977,10.1,1.807,12.052" transform="translate(-82.909 -113.721)" fill="#fff"/>
                  </g>
                </g>
              </g>
              <path id="Trazado_810597" data-name="Trazado 810597" d="M92.338,120.947a17.549,17.549,0,0,0-1.372,2.144c-.142-.047-.284-.095-.424-.149-1.911-.689-2.57-1.64-2.722-2.485a2.62,2.62,0,0,1,.1-1.236,2.56,2.56,0,0,1,.295-.646,9.583,9.583,0,0,0,3.47,2.128c.393.162.648.245.648.245" transform="translate(-4.799 -6.482)" fill="#263238"/>
              <path id="Trazado_810598" data-name="Trazado 810598" d="M91.7,120.7l-.421.622c-1.8-.653-2.978-1.355-3.346-2.1a2.539,2.539,0,0,1,.295-.646A9.592,9.592,0,0,0,91.7,120.7" transform="translate(-4.807 -6.482)" fill="#fff"/>
              <path id="Trazado_810599" data-name="Trazado 810599" d="M90.545,123.05c-1.911-.689-2.571-1.64-2.723-2.485a6.549,6.549,0,0,1,1.972,1.185,2.453,2.453,0,0,1,.751,1.3" transform="translate(-4.801 -6.591)" fill="#de5753"/>
              <path id="Trazado_810600" data-name="Trazado 810600" d="M95.606,132.636l-.556,4.894,10.21,21.752-1.017,2.884-3.338-1.548-7.271-22.178-5.355-3.628,3.895-2.132Z" transform="translate(-4.826 -7.251)" fill="#92df98"/>
              <path id="Trazado_810601" data-name="Trazado 810601" d="M84.51,128.986l6.759,2.793.281-4.577,4.979,1.232.423,6.968-4.795-1.961-2,4.464-8.521-5.7Z" transform="translate(-4.463 -6.953)" fill="#263238"/>
              <g id="Grupo_1067895" data-name="Grupo 1067895" transform="translate(77.174 120.248)" opacity="0.2">
                <g id="Grupo_1067894" data-name="Grupo 1067894">
                  <g id="Grupo_1067893" data-name="Grupo 1067893" clip-path="url(#clip-path-10)">
                    <path id="Trazado_810602" data-name="Trazado 810602" d="M84.51,128.986l6.759,2.793.281-4.577,4.979,1.232.423,6.968-4.795-1.961-2,4.464-8.521-5.7Z" transform="translate(-81.637 -127.201)" fill="#fff"/>
                  </g>
                </g>
              </g>
              <g id="Grupo_1067898" data-name="Grupo 1067898" transform="translate(69.331 131.284)" opacity="0.2" style="isolation: isolate">
                <g id="Grupo_1067897" data-name="Grupo 1067897">
                  <g id="Grupo_1067896" data-name="Grupo 1067896" clip-path="url(#clip-path-11)">
                    <path id="Trazado_810603" data-name="Trazado 810603" d="M77.925,151.114q-1.049-2.765-2.023-5.322c-.605-1.588-1.191-3.11-1.739-4.547q-.425-1.106-.822-2.155c.993-.463,3.356-.186,4.024.973,2.459,4.266.561,11.052.561,11.052" transform="translate(-73.34 -138.876)"/>
                  </g>
                </g>
              </g>
              <g id="Grupo_1067901" data-name="Grupo 1067901" transform="translate(73.916 143.523)" opacity="0.2" style="isolation: isolate">
                <g id="Grupo_1067900" data-name="Grupo 1067900">
                  <g id="Grupo_1067899" data-name="Grupo 1067899" clip-path="url(#clip-path-12)">
                    <path id="Trazado_810604" data-name="Trazado 810604" d="M90.035,156.624a12.639,12.639,0,0,1-6.759,8.65c-1.125-3-2.231-5.937-3.309-8.782q-.411-1.092-.822-2.155c-.321-.851-.643-1.692-.955-2.515l10.947,1.39Z" transform="translate(-78.19 -151.822)"/>
                  </g>
                </g>
              </g>
              <g id="Grupo_1067904" data-name="Grupo 1067904" transform="translate(101.614 124.143)" opacity="0.2" style="isolation: isolate">
                <g id="Grupo_1067903" data-name="Grupo 1067903">
                  <g id="Grupo_1067902" data-name="Grupo 1067902" clip-path="url(#clip-path-13)">
                    <path id="Trazado_810605" data-name="Trazado 810605" d="M118.049,138.611c-4.859-1.04-9.926-2.5-9.926-2.5l-.633-4.793s8.933.955,10.559,7.289" transform="translate(-107.49 -131.322)"/>
                  </g>
                </g>
              </g>
              <path id="Trazado_810606" data-name="Trazado 810606" d="M71.609,246.2a1.418,1.418,0,0,1-.9-2.514C86.483,230.74,86.181,210.437,85.889,190.8c-.22-14.8-.428-28.79,6.533-38.3,9.777-13.362,49.094-34.565,55.611-35.17,4.654-.466,146.81-39.973,221.326-60.8a1.418,1.418,0,0,1,.764,2.732c-8.816,2.464-215.985,60.347-221.828,60.89-5.608.521-44.526,21.642-53.584,34.021-6.4,8.748-6.2,22.27-5.987,36.587.288,19.36.614,41.3-16.216,55.122a1.408,1.408,0,0,1-.9.322" transform="translate(-3.837 -3.087)" fill="#263238"/>
              <g id="Grupo_1067907" data-name="Grupo 1067907" transform="translate(66.352 53.39)" opacity="0.4" style="isolation: isolate">
                <g id="Grupo_1067906" data-name="Grupo 1067906">
                  <g id="Grupo_1067905" data-name="Grupo 1067905" clip-path="url(#clip-path-14)">
                    <path id="Trazado_810607" data-name="Trazado 810607" d="M370.126,59.261c-1.484.416-8.6,2.4-19.436,5.426-53.459,14.917-197.537,55.019-202.4,55.463-5.606.52-44.525,21.639-53.582,34.023-6.4,8.744-6.2,22.272-5.984,36.584.284,19.36.614,41.311-16.222,55.122a1.4,1.4,0,0,1-.9.321,1.415,1.415,0,0,1-.9-2.515c15.778-12.951,15.475-33.247,15.182-52.882-.227-14.8-.435-28.795,6.532-38.3,9.775-13.367,49.091-34.571,55.6-35.176,4.386-.435,130.324-35.393,207.293-56.871q7.345-2.056,14.038-3.923a1.419,1.419,0,1,1,.766,2.732" transform="translate(-70.189 -56.477)" fill="#fff"/>
                  </g>
                </g>
              </g>
              <g id="Grupo_1067910" data-name="Grupo 1067910" transform="translate(346.853 53.39)" opacity="0.2" style="isolation: isolate">
                <g id="Grupo_1067909" data-name="Grupo 1067909">
                  <g id="Grupo_1067908" data-name="Grupo 1067908" clip-path="url(#clip-path-15)">
                    <path id="Trazado_810608" data-name="Trazado 810608" d="M386.346,59.261c-1.484.416-8.6,2.4-19.436,5.426a25.332,25.332,0,0,1,4.632-4.235q7.345-2.056,14.038-3.923a1.419,1.419,0,1,1,.766,2.732" transform="translate(-366.91 -56.477)"/>
                  </g>
                </g>
              </g>
              <path id="Trazado_810609" data-name="Trazado 810609" d="M81.908,153.806l7.436-.648s3.877-2.454,4.63-2.3,8.151,3.758,8.151,3.758-3.361,4.314-3.915,5.217-7.246-3.34-7.246-3.34l-7.362.784Z" transform="translate(-4.477 -8.246)" fill="#ebb376"/>
              <path id="Trazado_810610" data-name="Trazado 810610" d="M71.041,134.8c-3.378,2.416-12.172,22.065-11.239,25.1S88.1,156.952,88.1,156.952l-1.207-5.12H72.167l3.5-5.512s2.156-2.1.829-6.98c-.956-3.514-5.456-4.542-5.456-4.542" transform="translate(-3.265 -7.369)" fill="#263238"/>
            </g>
          </g>
          <g id="Grupo_1067929" data-name="Grupo 1067929">
            <g id="Grupo_1067928" data-name="Grupo 1067928" clip-path="url(#clip-path-2)">
              <path id="Trazado_810611" data-name="Trazado 810611" d="M372.393,136.362l-5.6-2.652s-2.8-5.431-3.664-6.293-4.85,2.5-4.85,3.084,2.91,6.077,3.664,6.4a11.616,11.616,0,0,0,3.395,0l5.335,2.584Z" transform="translate(-19.585 -6.958)" fill="#9f5b53"/>
              <path id="Trazado_810612" data-name="Trazado 810612" d="M386.85,100.476l1.122-4.021s1.776-5.235,1.589-6.451a32.233,32.233,0,0,0-1.349-4.2s-4.915,5.98-4.915,6.728,1.954,3.46,1.954,3.46l-.926,4.487Z" transform="translate(-20.953 -4.69)" fill="#9f5b53"/>
              <path id="Trazado_810613" data-name="Trazado 810613" d="M390.935,131.124s-4.231-5.266-5.483-10.161,2.525-20.83,2.525-20.83l-3.983-1.061s-4.687,16.269-4.883,22.208,8.664,23.355,8.664,23.355Z" transform="translate(-20.724 -5.416)" fill="#92df98"/>
              <g id="Grupo_1067915" data-name="Grupo 1067915" transform="translate(361.516 127.058)" opacity="0.2" style="isolation: isolate">
                <g id="Grupo_1067914" data-name="Grupo 1067914">
                  <g id="Grupo_1067913" data-name="Grupo 1067913" clip-path="url(#clip-path-17)">
                    <path id="Trazado_810614" data-name="Trazado 810614" d="M388.556,143.991l-.6,2.573s-3.046-6-5.533-12.159a15.477,15.477,0,0,1,5.585,7.478,12.439,12.439,0,0,1,.55,2.108" transform="translate(-382.421 -134.405)"/>
                  </g>
                </g>
              </g>
              <path id="Trazado_810615" data-name="Trazado 810615" d="M413.116,144.489a22.837,22.837,0,0,1-.4,3.27c-.43,2.358-1.17,5.145-2.014,8.218-.447,1.617-.9,3.347-1.376,5.171-2.108,8.2-3.253,11.462-4.81,21.925l-29.919-7.1a144.047,144.047,0,0,1,7.357-26.236c.878-2.255,1.859-4.518,2.926-6.747a68.587,68.587,0,0,1,5.817-10.016s4.836,4.423,20.041,7.073c1.841.319,2.478,1.919,2.383,4.44" transform="translate(-20.477 -7.269)" fill="#92df98"/>
              <g id="Grupo_1067918" data-name="Grupo 1067918" transform="translate(361.473 133.579)" opacity="0.2" style="isolation: isolate">
                <g id="Grupo_1067917" data-name="Grupo 1067917">
                  <g id="Grupo_1067916" data-name="Grupo 1067916" clip-path="url(#clip-path-18)">
                    <path id="Trazado_810616" data-name="Trazado 810616" d="M409.775,141.556c-.034.963,3.587,5.444,3.363,6.658-.4.275-.886.577-1.437.9-10.119,5.894-23.4,2.9-29.325,1.075.878-2.255,2.8-6.407,3.865-8.637l7.1,1.575s11.625-2.642,16.435-1.575" transform="translate(-382.376 -141.303)"/>
                  </g>
                </g>
              </g>
              <path id="Trazado_810617" data-name="Trazado 810617" d="M398.323,134.889c1.085-.413,10.013,1.808,9.35,2s-3.986,10.4-8.645,9.631-4.58-10.156-.705-11.63" transform="translate(-21.618 -7.371)" fill="#288640"/>
              <path id="Trazado_810618" data-name="Trazado 810618" d="M355.239,311.1l-5.618,1.214L346.343,299.4l5.626-1.216Z" transform="translate(-18.933 -16.3)" fill="#9f5b53"/>
              <path id="Trazado_810619" data-name="Trazado 810619" d="M347.711,310.652h6.984a.5.5,0,0,1,.49.4l1.133,5.119a.848.848,0,0,1-.654,1.006.882.882,0,0,1-.186.018c-2.26-.037-3.905-.176-6.743-.176-1.748,0-7.021.183-9.434.183s-2.727-2.384-1.74-2.6c4.432-.965,7.767-2.3,9.186-3.576a1.391,1.391,0,0,1,.965-.366" transform="translate(-18.424 -16.982)" fill="#263238"/>
              <path id="Trazado_810620" data-name="Trazado 810620" d="M346.236,311.635a1.716,1.716,0,0,1-1.1-.293.8.8,0,0,1-.285-.731.41.41,0,0,1,.234-.38c.636-.33,2.494.811,2.7.943a.122.122,0,0,1,.066.131.14.14,0,0,1-.1.117,6.934,6.934,0,0,1-1.507.212m-.856-1.192a.317.317,0,0,0-.176.037c-.036,0-.08.051-.088.161a.563.563,0,0,0,.183.49,2.794,2.794,0,0,0,2.048.1,5.593,5.593,0,0,0-1.967-.789" transform="translate(-18.851 -16.955)" fill="#407bff"/>
              <path id="Trazado_810621" data-name="Trazado 810621" d="M347.774,311.355h-.065c-.593-.322-1.741-1.587-1.624-2.194a.446.446,0,0,1,.439-.358.733.733,0,0,1,.579.175c.666.542.8,2.194.811,2.274a.146.146,0,0,1-.065.125.127.127,0,0,1-.074-.022m-1.155-2.333h-.066c-.175,0-.19.1-.2.139-.074.372.658,1.331,1.25,1.777a3.216,3.216,0,0,0-.68-1.8.461.461,0,0,0-.307-.117" transform="translate(-18.918 -16.88)" fill="#407bff"/>
              <path id="Trazado_810622" data-name="Trazado 810622" d="M402.341,186.468S397.5,209.589,386.146,215.8a12.094,12.094,0,0,1-4.2,1.42s-11.5,4.7-21.452,9.2c-6.049,2.737-11.522,5.4-13.483,6.892-5.18,3.95,7.512,65.482,7.512,65.482l-8.631.1S327.755,244.4,330.818,230.1s35.572-36.2,35.572-36.2l5.017-13.775Z" transform="translate(-18.065 -9.847)" fill="#263238"/>
              <g id="Grupo_1067921" data-name="Grupo 1067921" transform="translate(342.431 197.161)" opacity="0.2" style="isolation: isolate">
                <g id="Grupo_1067920" data-name="Grupo 1067920">
                  <g id="Grupo_1067919" data-name="Grupo 1067919" clip-path="url(#clip-path-19)">
                    <path id="Trazado_810623" data-name="Trazado 810623" d="M387.883,217.356a12.081,12.081,0,0,1-4.2,1.42s-11.5,4.7-21.452,9.2c6.4-11.763,17.812-19.412,17.812-19.412Z" transform="translate(-362.232 -208.562)"/>
                  </g>
                </g>
              </g>
              <path id="Trazado_810624" data-name="Trazado 810624" d="M431.7,311.1l-5.618,1.214L422.8,299.4l5.626-1.216Z" transform="translate(-23.112 -16.3)" fill="#9f5b53"/>
              <path id="Trazado_810625" data-name="Trazado 810625" d="M424.171,310.652h6.984a.5.5,0,0,1,.49.4l1.133,5.119a.848.848,0,0,1-.654,1.006.881.881,0,0,1-.186.018c-2.26-.037-3.905-.176-6.743-.176-1.748,0-7.021.183-9.434.183s-2.727-2.384-1.74-2.6c4.432-.965,7.767-2.3,9.186-3.576a1.391,1.391,0,0,1,.965-.366" transform="translate(-22.604 -16.982)" fill="#263238"/>
              <path id="Trazado_810626" data-name="Trazado 810626" d="M422.7,311.635a1.716,1.716,0,0,1-1.1-.293.8.8,0,0,1-.285-.731.41.41,0,0,1,.234-.38c.636-.33,2.494.811,2.7.943a.123.123,0,0,1,.065.131.14.14,0,0,1-.1.117,6.933,6.933,0,0,1-1.507.212m-.856-1.192a.317.317,0,0,0-.176.037c-.036,0-.08.051-.088.161a.563.563,0,0,0,.183.49,2.794,2.794,0,0,0,2.048.1,5.594,5.594,0,0,0-1.967-.789" transform="translate(-23.03 -16.955)" fill="#407bff"/>
              <path id="Trazado_810627" data-name="Trazado 810627" d="M424.233,311.355h-.065c-.593-.322-1.741-1.587-1.624-2.194a.446.446,0,0,1,.439-.358.733.733,0,0,1,.579.175c.666.542.8,2.194.811,2.274a.146.146,0,0,1-.065.125.127.127,0,0,1-.074-.022m-1.155-2.333h-.066c-.175,0-.19.1-.2.139-.073.372.659,1.331,1.251,1.777a3.217,3.217,0,0,0-.68-1.8.461.461,0,0,0-.307-.117" transform="translate(-23.098 -16.88)" fill="#407bff"/>
              <path id="Trazado_810628" data-name="Trazado 810628" d="M407.808,139.23c-1.411.911-7.9.582-7.9.582l-3.059,3.292-.287-5.453s-2.035-.849-1.482-1.436A5.327,5.327,0,0,0,399,134.9c1.316-1.288,1.574-3.35,1.557-5.406,0-.023,0-.051,0-.074l.008-.007,5.553-2.844,3.831-1.97c-1.771,3.911-4.352,11.215-2.135,14.627" transform="translate(-21.592 -6.811)" fill="#9f5b53"/>
              <g id="Grupo_1067924" data-name="Grupo 1067924" transform="translate(377.404 119.763)" opacity="0.2" style="isolation: isolate">
                <g id="Grupo_1067923" data-name="Grupo 1067923">
                  <g id="Grupo_1067922" data-name="Grupo 1067922" clip-path="url(#clip-path-20)">
                    <path id="Trazado_810629" data-name="Trazado 810629" d="M408.2,128.009a12.1,12.1,0,0,1-8.973,7.009c1.316-1.288,1.574-3.35,1.557-5.406a.268.268,0,0,0,.006-.08l5.553-2.844c-.008.763,2.137.612,1.858,1.322" transform="translate(-399.228 -126.688)"/>
                  </g>
                </g>
              </g>
              <path id="Trazado_810630" data-name="Trazado 810630" d="M411.79,126.495s3.607,1.928,4.808-.367-.509-2.39,1.251-3.2,4.282-1.385,3.706-3.1-2.359-1.92-.374-3.746,2.425-4.566-.546-5.081-1.837-2.8-1.99-3.814-1.816-1.605-3.622-1.228-2.559-2.294-3.672-3.129-2.66.195-3.063,1.322-1.473-.377-3.069-.561-1.213,1.482-1.711,3.043-1.464.545-2.6,1.829-1.237,10.061,10.881,18.031" transform="translate(-21.889 -5.605)" fill="#263238"/>
              <path id="Trazado_810631" data-name="Trazado 810631" d="M413.06,121.484c-2.706,4.257-4.246,7.064-7.29,8.44a9.054,9.054,0,0,1-1.271.471c-5.92,1.74-10.792-3.959-9.231-9.6a18.7,18.7,0,0,1,1.132-2.966c2.112-4.437,6.194-8.978,11.058-8.379a7.789,7.789,0,0,1,5.6,12.034" transform="translate(-21.591 -5.98)" fill="#9f5b53"/>
              <path id="Trazado_810632" data-name="Trazado 810632" d="M405.235,119.145c-.2.417-.619.614-.888.464s-.293-.6-.072-1,.626-.612.888-.465.3.592.072,1" transform="translate(-22.091 -6.456)" fill="#263238"/>
              <path id="Trazado_810633" data-name="Trazado 810633" d="M400.39,116.448c-.2.417-.626.612-.888.464s-.293-.6-.072-1,.626-.612.889-.465.284.618.071,1" transform="translate(-21.827 -6.308)" fill="#263238"/>
              <path id="Trazado_810634" data-name="Trazado 810634" d="M401.652,117.577a16.507,16.507,0,0,1-3.865,2.389,2.685,2.685,0,0,0,1.745,1.447Z" transform="translate(-21.745 -6.427)" fill="#892b29"/>
              <path id="Trazado_810635" data-name="Trazado 810635" d="M408.067,117.974a.286.286,0,0,1-.262-.111,2.2,2.2,0,0,0-1.725-.945.27.27,0,1,1-.029-.54h0a2.7,2.7,0,0,1,2.19,1.162.272.272,0,0,1-.049.38l0,0a.43.43,0,0,1-.122.05" transform="translate(-22.183 -6.362)" fill="#263238"/>
              <path id="Trazado_810636" data-name="Trazado 810636" d="M400.79,124.259h0a4.176,4.176,0,0,0,3.8-.631.146.146,0,0,0,.016-.2.138.138,0,0,0-.195-.024l-.009.008a4,4,0,0,1-3.534.569.139.139,0,0,0-.178.084l0,.015a.139.139,0,0,0,.084.178l.015,0" transform="translate(-21.903 -6.744)" fill="#263238"/>
              <path id="Trazado_810637" data-name="Trazado 810637" d="M400.021,112.344a.26.26,0,0,1-.012-.161.27.27,0,0,1,.358-.132l.006,0A2.7,2.7,0,0,1,401.915,114a.271.271,0,0,1-.234.3.278.278,0,0,1-.3-.233,2.193,2.193,0,0,0-1.246-1.526.277.277,0,0,1-.111-.2" transform="translate(-21.866 -6.124)" fill="#263238"/>
              <path id="Trazado_810638" data-name="Trazado 810638" d="M404.12,109.666c1.377.17,2.062,1.849,2.062,1.849A30.777,30.777,0,0,1,411,113.774a3.254,3.254,0,0,1,1.118,3.24c-.054.454-1.161.867-1.161.867s-2.048,4.818-2.6,6.156l.28,4.448a23.568,23.568,0,0,0,8.672-9.759c3.226-6.716-10.228-12.62-10.228-12.62Z" transform="translate(-22.091 -5.8)" fill="#263238"/>
              <path id="Trazado_810639" data-name="Trazado 810639" d="M412.935,129.042a5.421,5.421,0,0,1-4.118.445c-1.82-.546-1.717-2.42-.367-3.613,1.21-1.047,3.638-2.075,5.049-.864a2.419,2.419,0,0,1-.564,4.032" transform="translate(-22.273 -6.804)" fill="#9f5b53"/>
              <path id="Trazado_810640" data-name="Trazado 810640" d="M407.413,136.89l-7.518,2.163-3.24,4.389.885-5.374s-.811-1.24.523-3.177l-4.576.943-2.759,4.62,5.369-1.266.376,5.365,3.124-3.686,2.565,4.041,7.613-4.831Z" transform="translate(-21.359 -7.374)" fill="#74c67b"/>
              <g id="Grupo_1067927" data-name="Grupo 1067927" transform="translate(369.368 127.466)" opacity="0.2" style="isolation: isolate">
                <g id="Grupo_1067926" data-name="Grupo 1067926">
                  <g id="Grupo_1067925" data-name="Grupo 1067925" clip-path="url(#clip-path-21)">
                    <path id="Trazado_810641" data-name="Trazado 810641" d="M407.413,136.89l-7.518,2.163-3.24,4.389.885-5.374s-.811-1.24.523-3.177l-4.576.943-2.759,4.62,5.369-1.266.376,5.365,3.124-3.686,2.565,4.041,7.613-4.831Z" transform="translate(-390.727 -134.891)"/>
                  </g>
                </g>
              </g>
              <path id="Trazado_810642" data-name="Trazado 810642" d="M374.944,175.187l-1.174,4.669L404.7,186.2l.458-5.19Z" transform="translate(-20.432 -9.577)"/>
              <path id="Trazado_810643" data-name="Trazado 810643" d="M389.1,177.684c-.246-.347-7.128-1.826-7.775-1.336,0,0-1.339,4.606-1.111,5.086s6.926,1.42,7.548,1.548,1.584-4.951,1.339-5.3m-1.888,4.688c-.51-.1-6.016-.877-6.2-1.271s.913-4.18.913-4.18c.533-.4,6.188.813,6.39,1.1s-.591,4.458-1.1,4.353" transform="translate(-20.783 -9.635)" fill="#fff"/>
              <path id="Trazado_810644" data-name="Trazado 810644" d="M387.78,179.414l-1.362-.279a.508.508,0,0,0-.591.354l-.007.021a.509.509,0,0,0,.394.646l1.369.258a.509.509,0,0,0,.2-1" transform="translate(-21.09 -9.792)" fill="#fff"/>
              <path id="Trazado_810645" data-name="Trazado 810645" d="M405.054,186.835s.593,34.993-.389,45.185,24.476,66.087,24.476,66.087h-8.257s-25-40.912-30.734-53.508-9.962-42.629-9.962-42.629Z" transform="translate(-20.783 -10.213)" fill="#263238"/>
              <path id="Trazado_810646" data-name="Trazado 810646" d="M412.886,142.157c-1.278-2.889-20.875,1.394-22.645.89s-20.167-8.209-20.167-8.209l-1.592,4.127s16.5,9.461,20.1,10.942,18.049.774,21.707-.819a5.1,5.1,0,0,0,2.595-6.931" transform="translate(-20.143 -7.371)" fill="#92df98"/>
            </g>
          </g>
          <g id="Grupo_1067937" data-name="Grupo 1067937">
            <g id="Grupo_1067936" data-name="Grupo 1067936" clip-path="url(#clip-path-2)">
              <path id="Trazado_810647" data-name="Trazado 810647" d="M394.541,60.919,388.6,23.08,357.333,45.2,367.758,49.6c-10.042,23.009-42.61,90.42-98.643,140.125-71.587,63.5-171.734,94.737-172.737,95.045l5.543,18.077c4.252-1.3,105-32.682,179.74-98.978,59.553-52.827,93.044-122.5,103.553-146.894Z" transform="translate(-5.268 -1.262)" fill="#1969d5"/>
              <g id="Grupo_1067932" data-name="Grupo 1067932" transform="translate(91.11 21.817)" opacity="0.4" style="isolation: isolate">
                <g id="Grupo_1067931" data-name="Grupo 1067931">
                  <g id="Grupo_1067930" data-name="Grupo 1067930" clip-path="url(#clip-path-23)">
                    <path id="Trazado_810648" data-name="Trazado 810648" d="M388.869,54.3,388.6,23.08,357.333,45.2,367.758,49.6c-10.042,23.009-42.61,90.42-98.643,140.125-71.587,63.5-171.734,94.737-172.737,95.045l1.762,11.459c4.252-1.3,105-29.846,179.74-96.142,59.553-52.827,91.153-123.449,101.662-147.839Z" transform="translate(-96.378 -23.079)" fill="#fff"/>
                  </g>
                </g>
              </g>
              <path id="Trazado_810649" data-name="Trazado 810649" d="M398.87,64.3a1.4,1.4,0,0,1-.437-.069l-18.165-5.869a1.418,1.418,0,1,1,.872-2.7L399.3,61.533a1.418,1.418,0,0,1-.435,2.768" transform="translate(-20.734 -3.039)" fill="#263238"/>
              <g id="Grupo_1067935" data-name="Grupo 1067935" transform="translate(358.552 52.556)" opacity="0.4" style="isolation: isolate">
                <g id="Grupo_1067934" data-name="Grupo 1067934">
                  <g id="Grupo_1067933" data-name="Grupo 1067933" clip-path="url(#clip-path-24)">
                    <path id="Trazado_810650" data-name="Trazado 810650" d="M398.87,64.3a1.4,1.4,0,0,1-.437-.069l-18.165-5.869a1.418,1.418,0,1,1,.872-2.7L399.3,61.533a1.418,1.418,0,0,1-.435,2.768" transform="translate(-379.286 -55.595)" fill="#fff"/>
                  </g>
                </g>
              </g>
            </g>
          </g>
          <g id="Grupo_1067954" data-name="Grupo 1067954">
            <g id="Grupo_1067953" data-name="Grupo 1067953" clip-path="url(#clip-path-2)">
              <path id="Trazado_810651" data-name="Trazado 810651" d="M169.851,241.733a1.418,1.418,0,0,1-1.418-1.418c0-45.127,13.108-51.064,15.569-51.778l41.726-29.16c.029-.021.059-.04.09-.058L385.94,64.353a1.418,1.418,0,0,1,1.446,2.439L227.309,161.732l-41.9,29.278a1.4,1.4,0,0,1-.587.237c-.107.023-13.557,3.316-13.557,49.068a1.418,1.418,0,0,1-1.418,1.418" transform="translate(-9.207 -3.507)" fill="#263238"/>
              <g id="Grupo_1067940" data-name="Grupo 1067940" transform="translate(159.226 60.647)" opacity="0.4" style="isolation: isolate">
                <g id="Grupo_1067939" data-name="Grupo 1067939">
                  <g id="Grupo_1067938" data-name="Grupo 1067938" clip-path="url(#clip-path-26)">
                    <path id="Trazado_810652" data-name="Trazado 810652" d="M169.851,241.733a1.418,1.418,0,0,1-1.418-1.418c0-45.127,13.108-51.064,15.569-51.778l41.726-29.16c.029-.021.059-.04.09-.058L385.94,64.353a1.418,1.418,0,0,1,1.446,2.439L227.309,161.732l-41.9,29.278a1.4,1.4,0,0,1-.587.237c-.107.023-13.557,3.316-13.557,49.068a1.418,1.418,0,0,1-1.418,1.418" transform="translate(-168.433 -64.154)" fill="#fff"/>
                  </g>
                </g>
              </g>
              <path id="Trazado_810653" data-name="Trazado 810653" d="M180.335,201.877s-7.289,4.7-12.828,6.154a7.964,7.964,0,0,1-4.245.236c-4.122-1.3-1.673-9.283.785-14.322.4-.822.794-1.56,1.163-2.184l7.2,4.453s-4.367,6.23-3.866,6.6,7.232-3.365,7.6-3.488,4.188,2.552,4.188,2.552" transform="translate(-8.804 -10.483)" fill="#59bee2"/>
              <g id="Grupo_1067943" data-name="Grupo 1067943" transform="translate(155.243 181.279)" opacity="0.2" style="isolation: isolate">
                <g id="Grupo_1067942" data-name="Grupo 1067942">
                  <g id="Grupo_1067941" data-name="Grupo 1067941" clip-path="url(#clip-path-27)">
                    <path id="Trazado_810654" data-name="Trazado 810654" d="M180.508,201.877s-7.289,4.7-12.828,6.154a88.237,88.237,0,0,1-3.46-14.085c.4-.822.794-1.56,1.163-2.184l7.2,4.453s-4.367,6.23-3.866,6.6,7.232-3.365,7.6-3.488,4.188,2.552,4.188,2.552" transform="translate(-164.22 -191.762)"/>
                  </g>
                </g>
              </g>
              <path id="Trazado_810655" data-name="Trazado 810655" d="M219.022,172.985l4.272-3.813a14.145,14.145,0,0,1,1.373-3.052c.458-.381,8.238-.992,8.238-.992s.153,4.119-.458,5.187-6.97,1.526-6.97,1.526l-3.4,3.279Z" transform="translate(-11.973 -9.027)" fill="#eec1bb"/>
              <path id="Trazado_810656" data-name="Trazado 810656" d="M240.474,265.854c-1.219,17.545-4.481,42.446-4.481,42.446l-4.2.926s-3.876-20.845-3.261-40.186a92.566,92.566,0,0,1,1.191-12.582s-14.539-5.587-24.635-10.588c-4.821-2.382-8.631-4.642-9.359-6.1-2.25-4.49,7.979-15.04,7.979-15.04.321.255,6.494,4.188,13.679,8.848,9.538,6.182,20.854,13.651,22.707,15.513,1.078,1.087.983,8.007.378,16.761" transform="translate(-10.682 -12.285)" fill="#eec1bb"/>
              <g id="Grupo_1067946" data-name="Grupo 1067946" transform="translate(194.408 221.295)" opacity="0.2" style="isolation: isolate">
                <g id="Grupo_1067945" data-name="Grupo 1067945">
                  <g id="Grupo_1067944" data-name="Grupo 1067944" clip-path="url(#clip-path-28)">
                    <path id="Trazado_810657" data-name="Trazado 810657" d="M241.034,266.366a71.044,71.044,0,0,1-11.94,3.186,92.566,92.566,0,0,1,1.191-12.582s-14.539-5.587-24.635-10.588l12.3-12.289c9.538,6.182,20.854,13.651,22.707,15.513,1.078,1.087.983,8.007.378,16.761" transform="translate(-205.65 -234.092)"/>
                  </g>
                </g>
              </g>
              <path id="Trazado_810658" data-name="Trazado 810658" d="M208.461,221.654s40.338,23.186,45.823,28.422,37.131,54.182,37.131,54.182L288.75,306.8s-26.287-22.563-36.762-44.011l-43.527-21.009Z" transform="translate(-11.395 -12.117)" fill="#eec1bb"/>
              <path id="Trazado_810659" data-name="Trazado 810659" d="M175.708,175.174a1.146,1.146,0,0,0,.206.111,8.662,8.662,0,0,0,3.218,1.052c3.288.29,5.4-.45,6.621-2.089l.008,0c1.686-2.439,1.648-6.338.721-10.918a17.516,17.516,0,0,0-1.763-5.254c-.009-.014-.017-.067-.026-.08-.037-.054-.07-.131-.107-.184a6.366,6.366,0,0,0-5.171-3.2,12.908,12.908,0,0,0-2.774.075c-9.02,1.166-8.556,16.311-.934,20.491" transform="translate(-9.289 -8.449)" fill="#eec1bb"/>
              <g id="Grupo_1067949" data-name="Grupo 1067949" transform="translate(166.626 165.546)" opacity="0.2" style="isolation: isolate">
                <g id="Grupo_1067948" data-name="Grupo 1067948">
                  <g id="Grupo_1067947" data-name="Grupo 1067947" clip-path="url(#clip-path-29)">
                    <path id="Trazado_810660" data-name="Trazado 810660" d="M176.261,176.408a8.444,8.444,0,0,0,3.2.926c3.288.289,5.388-.555,6.6-2.216a9.063,9.063,0,0,1-5.779.33,4.731,4.731,0,0,0-4.024.96" transform="translate(-176.261 -175.119)"/>
                  </g>
                </g>
              </g>
              <path id="Trazado_810661" data-name="Trazado 810661" d="M175.584,183.712c-.787,2.531,2.461,3.878,2.461,3.878,5.672-1.85,6.943-4.666,6.943-4.666-4.348-2.781-2.432-9.389-2.432-9.389l-.968.374-6.623.7s1.5,3.625,1.669,4.437c0,.007.006.015.006.022.858,4.24-1.055,4.647-1.055,4.647" transform="translate(-9.564 -9.486)" fill="#ebb376"/>
              <path id="Trazado_810662" data-name="Trazado 810662" d="M184.43,157.895a9.562,9.562,0,0,1-4.227,9.8s-1.653,6.921-5.424,7.543c-5.141.847-10.713-5.857-9.971-13.584.962-10.019,15.539-12.86,19.622-3.756" transform="translate(-9.006 -8.33)" fill="#263238"/>
              <path id="Trazado_810663" data-name="Trazado 810663" d="M183.82,166.084c-.14-.985-1.164-2.529-2.664-2.09-1.552.454-1.884,4.485,2.134,4.813.577.047.822-.667.53-2.723" transform="translate(-9.844 -8.961)" fill="#ebb376"/>
              <path id="Trazado_810664" data-name="Trazado 810664" d="M294.089,305.669l-4.35,3.353a.5.5,0,0,0-.146.609l2.216,4.722a.844.844,0,0,0,1.126.4.859.859,0,0,0,.159-.1c1.758-1.4,1.817-1.621,4.053-3.345,1.377-1.062,5.644-4.12,7.545-5.585s.7-3.536-.21-3.109c-4.078,1.931-7.518,2.9-9.409,2.761a1.377,1.377,0,0,0-.983.3" transform="translate(-15.828 -16.539)" fill="#263238"/>
              <path id="Trazado_810665" data-name="Trazado 810665" d="M295.343,305.616a.136.136,0,0,1-.151-.03.123.123,0,0,1-.028-.144c.081-.228.852-2.255,1.553-2.382a.406.406,0,0,1,.415.158.8.8,0,0,1,.22.75,1.712,1.712,0,0,1-.693.9,6.826,6.826,0,0,1-1.316.748m.2-.389a2.78,2.78,0,0,0,1.551-1.324.56.56,0,0,0-.153-.5c-.073-.082-.138-.1-.167-.074a.318.318,0,0,0-.161.078,5.558,5.558,0,0,0-1.07,1.817" transform="translate(-16.134 -16.566)" fill="#407bff"/>
              <path id="Trazado_810666" data-name="Trazado 810666" d="M295.29,305.643a.145.145,0,0,1-.128-.058c-.043-.068-.938-1.455-.742-2.285a.728.728,0,0,1,.349-.49.445.445,0,0,1,.563.016c.461.407.324,2.1.053,2.715l-.051.04a.127.127,0,0,1-.044.061m-.633-2.323a3.211,3.211,0,0,0,.557,1.831,3.148,3.148,0,0,0-.094-2.16c-.028-.025-.1-.1-.24.01l-.052.04a.467.467,0,0,0-.171.279" transform="translate(-16.093 -16.548)" fill="#407bff"/>
              <path id="Trazado_810667" data-name="Trazado 810667" d="M238.717,310.139l-5.491.11a.5.5,0,0,0-.479.4l-1.026,5.114a.844.844,0,0,0,.671.987.817.817,0,0,0,.186.015c2.246-.081,2.425-.223,5.247-.28,1.739-.035,6.987.043,9.388-.006s2.666-2.426,1.679-2.624c-4.427-.872-7.771-2.137-9.208-3.375a1.38,1.38,0,0,0-.967-.344" transform="translate(-12.666 -16.954)" fill="#263238"/>
              <path id="Trazado_810668" data-name="Trazado 810668" d="M239.63,310.749a.14.14,0,0,1-.1-.114.125.125,0,0,1,.063-.132c.2-.134,2.026-1.306,2.665-.992a.407.407,0,0,1,.241.373.8.8,0,0,1-.269.734,1.713,1.713,0,0,1-1.093.313,6.815,6.815,0,0,1-1.5-.181m.389-.2a2.781,2.781,0,0,0,2.034-.143.56.56,0,0,0,.173-.491c-.009-.11-.055-.16-.091-.159a.313.313,0,0,0-.176-.032,5.56,5.56,0,0,0-1.941.824" transform="translate(-13.093 -16.916)" fill="#407bff"/>
              <path id="Trazado_810669" data-name="Trazado 810669" d="M239.593,310.706a.145.145,0,0,1-.067-.122c.006-.08.111-1.727.762-2.278a.724.724,0,0,1,.571-.186.442.442,0,0,1,.443.348c.129.6-.988,1.882-1.571,2.214h-.065a.124.124,0,0,1-.073.024m.873-2.244a3.208,3.208,0,0,0-.641,1.8c.58-.456,1.288-1.423,1.209-1.792-.009-.036-.025-.138-.2-.134h-.065a.465.465,0,0,0-.3.123" transform="translate(-13.094 -16.843)" fill="#407bff"/>
              <path id="Trazado_810670" data-name="Trazado 810670" d="M204.984,213l-20.013,8.4C176.7,200.838,165.45,190.95,165.45,190.95c8.016-9.614,22.82-14.038,22.82-14.038a26.308,26.308,0,0,1,5.587,6.277,56.26,56.26,0,0,1,4.349,8.12A114.4,114.4,0,0,1,204.984,213" transform="translate(-9.044 -9.671)" fill="#59bee2"/>
              <path id="Trazado_810671" data-name="Trazado 810671" d="M183.717,161.894s6.29-6.41.261-10.629-12,1.417-12,1.417-14.3,3.6-11.16,13.1,5.143,10.293.65,15.223-9.063,12.216-4.379,16.8,20.854-.331,25.71-7.363-3.986-21.94.913-28.541" transform="translate(-8.48 -8.183)" fill="#263238"/>
              <path id="Trazado_810672" data-name="Trazado 810672" d="M204.477,208.562l-21.723,7.46s4.8,23.679,8.293,27.636,26.813,22.3,30.111,20.858,25.166-20.858,25.166-20.858L209.3,218.269Z" transform="translate(-9.99 -11.401)" fill="#263238"/>
              <path id="Trazado_810673" data-name="Trazado 810673" d="M202.332,213.054l4.618-1.531-1.14-2.3-4.378,1.542Z" transform="translate(-11.011 -11.437)"/>
              <path id="Trazado_810674" data-name="Trazado 810674" d="M187.488,215.671l-4.733,1.667.625,2.016,4.634-1.537Z" transform="translate(-9.99 -11.79)"/>
              <path id="Trazado_810675" data-name="Trazado 810675" d="M189.337,217.241l11.365-3.77-.842-2.287-11.146,3.925Z" transform="translate(-10.316 -11.544)"/>
              <g id="Grupo_1067952" data-name="Grupo 1067952" transform="translate(181.684 173.518)" opacity="0.2" style="isolation: isolate">
                <g id="Grupo_1067951" data-name="Grupo 1067951">
                  <g id="Grupo_1067950" data-name="Grupo 1067950" clip-path="url(#clip-path-30)">
                    <path id="Trazado_810676" data-name="Trazado 810676" d="M199.668,191.672c-4.783-.558-7.478-7.752-7.478-7.752a26.161,26.161,0,0,1,3.129-.369,56.26,56.26,0,0,1,4.349,8.12" transform="translate(-192.19 -183.552)"/>
                  </g>
                </g>
              </g>
              <path id="Trazado_810677" data-name="Trazado 810677" d="M189.575,176.591c5.2-.771,16.831,3.442,17.839,3.392s12.33-8.911,12.33-8.911l2.928,2.58s-11.819,12.191-14.25,12.322-15.146-.817-15.146-.817-3.1-1.11-3.7-3.914a9.742,9.742,0,0,1,0-4.652" transform="translate(-10.349 -9.352)" fill="#59bee2"/>
            </g>
          </g>
        </g>
      </g>
    </g>
  </g>
</svg>
