<svg xmlns="http://www.w3.org/2000/svg" xmlns:xlink="http://www.w3.org/1999/xlink" width="342.91" height="295.401" viewBox="0 0 342.91 295.401">
  <defs>
    <clipPath id="clip-path">
      <rect id="Rectángulo_375829" data-name="Rectángulo 375829" width="274.915" height="279.091" fill="none"/>
    </clipPath>
    <clipPath id="clip-path-5">
      <rect id="Rectángulo_375817" data-name="Rectángulo 375817" width="49.805" height="59.191" fill="none"/>
    </clipPath>
    <clipPath id="clip-path-6">
      <rect id="Rectángulo_375818" data-name="Rectángulo 375818" width="27.715" height="27.716" fill="none"/>
    </clipPath>
    <clipPath id="clip-path-8">
      <rect id="Rectángulo_375822" data-name="Rectángulo 375822" width="66.362" height="78.869" fill="none"/>
    </clipPath>
    <clipPath id="clip-path-9">
      <rect id="Rectángulo_375823" data-name="Rectángulo 375823" width="36.929" height="36.929" fill="none"/>
    </clipPath>
    <clipPath id="clip-path-11">
      <rect id="Rectángulo_375825" data-name="Rectángulo 375825" width="12.584" height="13.146" fill="none"/>
    </clipPath>
    <clipPath id="clip-path-12">
      <rect id="Rectángulo_375826" data-name="Rectángulo 375826" width="4.251" height="11.549" fill="none"/>
    </clipPath>
    <clipPath id="clip-path-13">
      <rect id="Rectángulo_375827" data-name="Rectángulo 375827" width="10.687" height="15.82" fill="none"/>
    </clipPath>
  </defs>
  <g id="Grupo_1070121" data-name="Grupo 1070121" transform="translate(-1075.503 -7014)">
    <g id="Grupo_1064539" data-name="Grupo 1064539" transform="translate(1123.125 7064.062)">
      <g id="Grupo_171324" data-name="Grupo 171324" transform="translate(161.524 38.432)">
        <path id="Trazado_207509" data-name="Trazado 207509" d="M2610.547,1330.185a.354.354,0,0,0-.014-.063,51.724,51.724,0,0,0-14.979-23.374,60.806,60.806,0,0,0-21.807-12.18c-14.938-4.869-30.88-4.643-39.371-2.374a.4.4,0,0,0-.294.5.442.442,0,0,0,.538.277c14.938-3.994,62.419-2.545,75.081,37.377a.442.442,0,0,0,.539.275A.4.4,0,0,0,2610.547,1330.185Z" transform="translate(-2534.064 -1290.642)" fill="#f3f9ff"/>
      </g>
      <g id="Grupo_171325" data-name="Grupo 171325" transform="translate(20.578 73.669)">
        <path id="Trazado_207510" data-name="Trazado 207510" d="M874.689,1604.268a.518.518,0,0,0-.068.015,58.4,58.4,0,0,0-25.169,14.292,53.61,53.61,0,0,0-12.757,20.247c-4.94,13.78-4.286,28.347-1.587,36.051a.451.451,0,0,0,.554.257.393.393,0,0,0,.289-.5c-4.748-13.554-4.38-57,38.938-69.593a.392.392,0,0,0,.287-.5A.445.445,0,0,0,874.689,1604.268Z" transform="translate(-833.026 -1604.264)" fill="#f3f9ff"/>
      </g>
      <g id="Grupo_171327" data-name="Grupo 171327" transform="translate(0 0)">
        <g id="Grupo_171326" data-name="Grupo 171326">
          <path id="Trazado_207511" data-name="Trazado 207511" d="M917.9,1178.129c-5.2-37.759,26.231-113.7-48.166-172.7-23.026-18.261-35.387-3.081-60.1-31.32-18.778-21.462-32.981-35.175-57.018-37.4-28.951-2.677-70.946.969-82.487,36.634-5.274,16.3-7.83,30.361-7.983,47.319-.39,43.336-27.622,47.1-34.48,76.108-11.022,46.63,13.372,83.227,28.467,84.078C670.24,1181.641,900.857,1181.977,917.9,1178.129Z" transform="translate(-624.903 -936.014)" fill="#f3f9ff"/>
        </g>
      </g>
    </g>
    <g id="Grupo_1068026" data-name="Grupo 1068026" transform="translate(1075.503 7014)">
      <g id="Grupo_1068025" data-name="Grupo 1068025" clip-path="url(#clip-path)">
        <g id="Grupo_1067995" data-name="Grupo 1067995">
          <g id="Grupo_1067994" data-name="Grupo 1067994" clip-path="url(#clip-path)">
            <path id="Trazado_810707" data-name="Trazado 810707" d="M332.277.181l-17.7,8.876a3.588,3.588,0,0,0-2.182,3.3v8.277a38.424,38.424,0,0,0,6.31,21.194c3.188,4.857,7.415,11.065,14.449,14.614h3.175c7.83-2.388,13.675-8.754,17.249-14.2a38.42,38.42,0,0,0,6.31-21.194V12.359a3.588,3.588,0,0,0-2.182-3.3L337.552.468a12.306,12.306,0,0,0-5.275-.287" transform="translate(-123.403 0)" fill="#e0e0e0"/>
            <path id="Trazado_810708" data-name="Trazado 810708" d="M329.491.586l-20.158,8.59a3.587,3.587,0,0,0-2.182,3.3v8.278a38.759,38.759,0,0,0,23.935,35.808c7.829-2.388,13.675-8.754,17.248-14.2a38.425,38.425,0,0,0,6.31-21.194V12.477a3.588,3.588,0,0,0-2.182-3.3L332.3.586a3.588,3.588,0,0,0-2.813,0" transform="translate(-121.33 -0.118)" fill="#f5f5f5"/>
            <path id="Trazado_810709" data-name="Trazado 810709" d="M375.889,31.091a1.763,1.763,0,0,1,.039.381c.012.284.028.647.048,1.1.019.476.047,1.06.014,1.737s-.006,1.451-.105,2.3c-.081.849-.138,1.784-.313,2.774-.08.495-.143,1.012-.246,1.536s-.228,1.062-.346,1.613a39.749,39.749,0,0,1-2.324,6.96,40.944,40.944,0,0,1-3.616,6.388c-.672.908-1.292,1.785-1.957,2.539-.326.381-.623.766-.942,1.105l-.92.974c-.572.635-1.159,1.139-1.649,1.606s-.936.845-1.309,1.142l-.855.688a1.729,1.729,0,0,1-.311.223,1.79,1.79,0,0,1,.271-.272l.815-.732c.359-.311.795-.7,1.268-1.177s1.05-.99,1.607-1.632l.9-.982c.312-.342.6-.727.923-1.11.652-.756,1.259-1.633,1.92-2.539a42.3,42.3,0,0,0,3.566-6.351,40.958,40.958,0,0,0,2.33-6.9l.356-1.6c.107-.52.174-1.032.26-1.523.185-.981.254-1.909.349-2.753.113-.842.1-1.613.151-2.286s.039-1.255.039-1.73c0-.448.008-.811.011-1.1a1.746,1.746,0,0,1,.025-.384" transform="translate(-142.64 -12.281)" fill="#e0e0e0"/>
            <path id="Trazado_810710" data-name="Trazado 810710" d="M336.371,47.949l-11.564-9.193,3.208-4.035,7.754,6.165,11.323-12.671,3.843,3.434Z" transform="translate(-128.304 -11.145)" fill="#fff"/>
            <path id="Trazado_810711" data-name="Trazado 810711" d="M15.371,360.762a18.143,18.143,0,0,0-7.763-2.672,5.175,5.175,0,0,0-3.672.675.756.756,0,0,0-.378.671.82.82,0,0,0,.359.459,11.1,11.1,0,0,0,11.454.868" transform="translate(-1.402 -141.428)" fill="#e0e0e0"/>
            <path id="Trazado_810712" data-name="Trazado 810712" d="M17.373,354.234a37.886,37.886,0,0,1-5.014-4.412,12.682,12.682,0,0,1-3.143-5.814,2.345,2.345,0,0,1,.248-1.945c4,3.121,7.137,7.158,7.91,12.17" transform="translate(-3.603 -135.121)" fill="#e0e0e0"/>
            <path id="Trazado_810713" data-name="Trazado 810713" d="M22.855,354.65a18.14,18.14,0,0,1,.093-6.583,8.9,8.9,0,0,1,3.507-5.432,7.769,7.769,0,0,1-.093,5.161,25.059,25.059,0,0,1-3.477,7.321" transform="translate(-8.927 -135.346)" fill="#e0e0e0"/>
            <path id="Trazado_810714" data-name="Trazado 810714" d="M23.107,374.1a11.475,11.475,0,0,0-6.226,3.151,11.782,11.782,0,0,0-3.561,6.113c2.333-.144,4.312-1.789,5.747-3.634s2.43-3.868,4.007-5.594" transform="translate(-5.262 -147.775)" fill="#e0e0e0"/>
            <path id="Trazado_810715" data-name="Trazado 810715" d="M30.205,366.471a15.354,15.354,0,0,1,1.773-14.524,18.492,18.492,0,0,1-1.773,14.524" transform="translate(-11.509 -139.025)" fill="#e0e0e0"/>
            <path id="Trazado_810716" data-name="Trazado 810716" d="M32.424,386.13a11.1,11.1,0,0,0-10.617,6.112c-.131.263-.247.6-.071.832a.79.79,0,0,0,.7.207,9.241,9.241,0,0,0,5.477-2.828,52.343,52.343,0,0,1,4.554-4.329" transform="translate(-8.551 -152.52)" fill="#e0e0e0"/>
            <path id="Trazado_810717" data-name="Trazado 810717" d="M38.608,375.985a19.773,19.773,0,0,1-.2-11.045,5.385,5.385,0,0,1,2.357-3.585.463.463,0,0,1,.361-.064.476.476,0,0,1,.228.264,6.653,6.653,0,0,1,.555,3.169,19.834,19.834,0,0,1-.5,3.208c-.414,1.96-.635,4.067-1.71,5.758a11.64,11.64,0,0,0-.684,1.265c-.2.43-.205.581-.392.923" transform="translate(-14.9 -142.709)" fill="#e0e0e0"/>
            <path id="Trazado_810718" data-name="Trazado 810718" d="M61.59,381.019a14.24,14.24,0,0,1,2.5-11.709c.179-.234.416-.483.709-.456.448.042.564.639.544,1.088a21.162,21.162,0,0,1-3.75,11.077" transform="translate(-24.179 -145.702)" fill="#e0e0e0"/>
            <path id="Trazado_810719" data-name="Trazado 810719" d="M63.881,387.717a17.034,17.034,0,0,0,13.977-2.843,11.32,11.32,0,0,0-7.567-.929,10.8,10.8,0,0,0-6.41,3.771" transform="translate(-25.234 -151.555)" fill="#e0e0e0"/>
            <path id="Trazado_810720" data-name="Trazado 810720" d="M65.6,381.321a16.153,16.153,0,0,1,12.685-7.335,7.815,7.815,0,0,1-4.149,4.587,23.037,23.037,0,0,1-6.089,1.781,4.292,4.292,0,0,0-2.447.967" transform="translate(-25.914 -147.731)" fill="#e0e0e0"/>
            <path id="Trazado_810721" data-name="Trazado 810721" d="M61.08,355.837a36.853,36.853,0,0,0,1.623-7.429,12.369,12.369,0,0,0-1.48-7.348,16.176,16.176,0,0,0-.217,15.032" transform="translate(-23.408 -134.724)" fill="#e0e0e0"/>
            <path id="Trazado_810722" data-name="Trazado 810722" d="M75.93,352.073c2.871-5.217,8.727-9.384,14.653-9.968-2.286,5.692-8.52,10.09-14.653,9.968" transform="translate(-29.994 -135.137)" fill="#e0e0e0"/>
            <path id="Trazado_810723" data-name="Trazado 810723" d="M72.945,359.712c4.281.652,7.928,3.386,11.928,5.044a5.347,5.347,0,0,0,2.7.517,2.111,2.111,0,0,0,1.322-3.735,5.774,5.774,0,0,0-1.959-1.188,21.766,21.766,0,0,0-13.62-.759" transform="translate(-28.814 -141.754)" fill="#e0e0e0"/>
            <path id="Trazado_810724" data-name="Trazado 810724" d="M68.85,365.1a5.059,5.059,0,0,1,2.068,1.433,22.3,22.3,0,0,0,9.046,4.647c.345.086.8.12.97-.192.149-.273-.039-.6-.234-.846a12.455,12.455,0,0,0-5.462-3.707c-2.088-.777-3.9-1.715-6.388-1.514" transform="translate(-27.197 -144.138)" fill="#e0e0e0"/>
            <path id="Trazado_810725" data-name="Trazado 810725" d="M64.229,334.958a17.12,17.12,0,0,0,13.125,4.465.9.9,0,0,0,.6-.215c.33-.359-.066-.914-.451-1.214a15.119,15.119,0,0,0-13.271-3.037" transform="translate(-25.372 -132.131)" fill="#e0e0e0"/>
            <path id="Trazado_810726" data-name="Trazado 810726" d="M69.708,330.928a18.294,18.294,0,0,1,16.377-2.7,13,13,0,0,1-7.8,3.427,24.714,24.714,0,0,1-8.573-.724" transform="translate(-27.536 -129.314)" fill="#e0e0e0"/>
            <path id="Trazado_810727" data-name="Trazado 810727" d="M66.087,311.918c-.379-3.851-.133-6.892-.4-10.761-.021-.309-.088-.681-.377-.793-.4-.155-.738.34-.871.751a12.337,12.337,0,0,0,1.643,10.719" transform="translate(-25.231 -118.637)" fill="#e0e0e0"/>
            <path id="Trazado_810728" data-name="Trazado 810728" d="M67.073,312.278a22.646,22.646,0,0,0,6.38-6.2c1.26-1.724,2.323-3.79,2.036-5.906a6.107,6.107,0,0,0-4.6,2.286,12.848,12.848,0,0,0-2.346,4.72c-.511,1.695-.868,3.436-1.468,5.1" transform="translate(-26.495 -118.572)" fill="#e0e0e0"/>
            <path id="Trazado_810729" data-name="Trazado 810729" d="M77.381,311.007a51.447,51.447,0,0,0,15.7-9.258,8.013,8.013,0,0,0-5.9.454,18.594,18.594,0,0,0-9.884,8.763" transform="translate(-30.534 -119.042)" fill="#e0e0e0"/>
            <path id="Trazado_810730" data-name="Trazado 810730" d="M69.986,320.7a31.907,31.907,0,0,0,8.718.042,36.982,36.982,0,0,0,8.139-2.7.954.954,0,0,0,.553-.42.635.635,0,0,0-.2-.7,1.681,1.681,0,0,0-.694-.326,15.072,15.072,0,0,0-8.8.526,40.8,40.8,0,0,0-7.723,3.578" transform="translate(-27.646 -124.889)" fill="#e0e0e0"/>
            <path id="Trazado_810731" data-name="Trazado 810731" d="M41.682,327.143a15.422,15.422,0,0,1-.141-12.763,9.745,9.745,0,0,1,1.13,6.346c-.22,2.181-.884,4.425-.927,6.616" transform="translate(-15.891 -124.185)" fill="#e0e0e0"/>
            <path id="Trazado_810732" data-name="Trazado 810732" d="M20.935,328.89a17.8,17.8,0,0,0-13.228,5.635,12.365,12.365,0,0,0,7.243-1.343,36.875,36.875,0,0,0,6.208-4.154" transform="translate(-3.044 -129.916)" fill="#e0e0e0"/>
            <path id="Trazado_810733" data-name="Trazado 810733" d="M12.668,325.8c-2.415-.2-4.739-.495-7.061.217a8.471,8.471,0,0,0-5.383,4.564,12.76,12.76,0,0,0,6.62-1.251,38.074,38.074,0,0,0,5.824-3.53" transform="translate(-0.088 -128.606)" fill="#e0e0e0"/>
            <path id="Trazado_810734" data-name="Trazado 810734" d="M24.546,323.669a22.267,22.267,0,0,0-6.934-3.463c-2.53-.59-5.462-.154-7.226,1.753,2.048,1.2,4.533,1.344,6.907,1.342s5.285-.029,7.524.764" transform="translate(-4.103 -126.39)" fill="#e0e0e0"/>
            <path id="Trazado_810735" data-name="Trazado 810735" d="M31.06,316.364c-3.715-3.647-5.123-10.2-3.628-15.187a23.142,23.142,0,0,1,3.628,15.187" transform="translate(-10.604 -118.97)" fill="#e0e0e0"/>
            <path id="Trazado_810736" data-name="Trazado 810736" d="M50.7,301.371c.7-1.629,1.193-3.338,1.822-5a14.343,14.343,0,0,1,2.6-4.605,6.842,6.842,0,0,1,4.6-2.385A18.528,18.528,0,0,1,50.787,301.4" transform="translate(-20.026 -114.312)" fill="#e0e0e0"/>
            <path id="Trazado_810737" data-name="Trazado 810737" d="M41.367,308.482c-1.159-1.6-2.5-3.762-4.071-4.953a6.81,6.81,0,0,0-5.538-1.454,12.9,12.9,0,0,0,9.609,6.407" transform="translate(-12.545 -119.269)" fill="#e0e0e0"/>
            <path id="Trazado_810738" data-name="Trazado 810738" d="M46.968,301.6a27.557,27.557,0,0,1-1.832-5.934,9.257,9.257,0,0,1,.929-6.035c2.039,3.855,2.7,7.992,1.007,12.013" transform="translate(-17.776 -114.409)" fill="#e0e0e0"/>
            <path id="Trazado_810739" data-name="Trazado 810739" d="M50.727,284.3c1.155-3.821,4.654-6.634,8.431-7.925a3.146,3.146,0,0,1,1.478-.221,1.282,1.282,0,0,1,1.09.909c.138.65-.4,1.232-.9,1.664A28.7,28.7,0,0,1,50.727,284.3" transform="translate(-20.038 -109.076)" fill="#e0e0e0"/>
            <path id="Trazado_810740" data-name="Trazado 810740" d="M50.757,276.082a27.388,27.388,0,0,1,1.1-7.3,9.226,9.226,0,0,1,4.592-5.545c.382,2.488-.716,4.963-2.039,7.1s-2.92,4.162-3.715,6.55" transform="translate(-20.026 -103.984)" fill="#e0e0e0"/>
            <path id="Trazado_810741" data-name="Trazado 810741" d="M46.018,278.525c-.955-2.785-1.053-6.321-2.721-8.748-1.166-1.7-3.032-2.851-4.036-4.647a7.067,7.067,0,0,0,.235,5.275,15.263,15.263,0,0,0,3.085,4.416c1.234,1.318,2.29,2.309,3.438,3.7" transform="translate(-15.348 -104.731)" fill="#e0e0e0"/>
            <path id="Trazado_810742" data-name="Trazado 810742" d="M50.633,368.644c-.074,0-.139-18.577-.143-41.487s.051-41.49.125-41.49.139,18.572.143,41.49-.051,41.487-.125,41.487" transform="translate(-19.944 -112.843)" fill="#e0e0e0"/>
            <path id="Trazado_810743" data-name="Trazado 810743" d="M66.945,330.842a4.02,4.02,0,0,1-.7.263l-1.923.648c-1.621.552-3.847,1.352-6.263,2.342-2.393,1.027-4.649,1.86-5.934,2.973a4.363,4.363,0,0,0-1.192,1.577c-.184.436-.217.7-.241.7a.545.545,0,0,1,.008-.195,2.983,2.983,0,0,1,.136-.541A4.192,4.192,0,0,1,52,336.926a10.448,10.448,0,0,1,2.575-1.6c1.03-.48,2.171-.982,3.384-1.48,2.424-.993,4.667-1.767,6.306-2.274.819-.255,1.488-.444,1.951-.568a4.019,4.019,0,0,1,.728-.162" transform="translate(-20.022 -130.687)" fill="#e0e0e0"/>
            <path id="Trazado_810744" data-name="Trazado 810744" d="M73.1,309.24a1.15,1.15,0,0,1-.2.209l-.6.56-2.225,2.021-7.407,6.595c-2.891,2.574-5.39,5.033-7.121,6.885-.868.924-1.55,1.69-2.016,2.225l-.538.615a1.146,1.146,0,0,1-.2.2,1.134,1.134,0,0,1,.159-.238c.113-.149.276-.372.5-.648.442-.557,1.1-1.343,1.957-2.287a94.01,94.01,0,0,1,7.082-6.956c2.9-2.568,5.542-4.874,7.46-6.537l2.282-1.958.629-.522a1.178,1.178,0,0,1,.232-.168" transform="translate(-20.857 -122.155)" fill="#e0e0e0"/>
            <path id="Trazado_810745" data-name="Trazado 810745" d="M63.962,324.88c-.076-.034.528-1.428,1.13-3.192s.893-3.252.97-3.239a10.906,10.906,0,0,1-.716,3.325,21.689,21.689,0,0,1-.9,2.232,3.491,3.491,0,0,1-.485.874" transform="translate(-25.263 -125.793)" fill="#e0e0e0"/>
            <path id="Trazado_810746" data-name="Trazado 810746" d="M43.725,338.807a3.31,3.31,0,0,1-.446-.517l-1.141-1.463c-.959-1.24-2.284-2.95-3.77-4.822s-2.852-3.552-3.841-4.767l-1.166-1.444a3.24,3.24,0,0,1-.4-.551,3.373,3.373,0,0,1,.482.483c.3.322.719.8,1.232,1.39,1.027,1.185,2.418,2.847,3.906,4.722s2.791,3.605,3.712,4.875c.46.635.827,1.152,1.073,1.515a3.3,3.3,0,0,1,.362.579" transform="translate(-13.019 -128.476)" fill="#e0e0e0"/>
            <path id="Trazado_810747" data-name="Trazado 810747" d="M43.666,336.444a6.549,6.549,0,0,1-1.491-2.791,7.982,7.982,0,0,1-.338-2.815l.119.01c-.053.215-.092.329-.113.325s-.022-.123,0-.344l.119.01a12.793,12.793,0,0,0,.476,2.738,20.849,20.849,0,0,0,1.234,2.868" transform="translate(-16.519 -130.683)" fill="#e0e0e0"/>
            <path id="Trazado_810748" data-name="Trazado 810748" d="M32.026,329.811a4.822,4.822,0,0,0-1.041-.6,6.965,6.965,0,0,0-2.891-.23,17.835,17.835,0,0,0-2.911.47,8.84,8.84,0,0,1-1.2.287,4.185,4.185,0,0,1,1.146-.47,13.3,13.3,0,0,1,2.942-.555,6.31,6.31,0,0,1,2.982.321,1.845,1.845,0,0,1,.97.781" transform="translate(-9.475 -129.83)" fill="#e0e0e0"/>
            <path id="Trazado_810749" data-name="Trazado 810749" d="M28.1,327.125c-.021.042-.606-.243-1.595-.581a16.056,16.056,0,0,0-8.038-.613c-1.028.184-1.65.376-1.664.332a1.524,1.524,0,0,1,.423-.18,9.855,9.855,0,0,1,1.2-.338,14.183,14.183,0,0,1,8.14.621,9.936,9.936,0,0,1,1.139.517,1.529,1.529,0,0,1,.391.243" transform="translate(-6.637 -128.545)" fill="#e0e0e0"/>
            <path id="Trazado_810750" data-name="Trazado 810750" d="M49.342,313.128a65.738,65.738,0,0,1-2.066-8.147,33.148,33.148,0,0,1,1.163,4.041,33.034,33.034,0,0,1,.9,4.107" transform="translate(-18.671 -120.472)" fill="#e0e0e0"/>
            <path id="Trazado_810751" data-name="Trazado 810751" d="M48.737,315.587a19.714,19.714,0,0,0-1.289-2.419,10.647,10.647,0,0,0-1.9-1.958,1.771,1.771,0,0,1,.733.378,5.885,5.885,0,0,1,1.385,1.427,5.378,5.378,0,0,1,1.07,2.573" transform="translate(-17.992 -122.931)" fill="#e0e0e0"/>
            <path id="Trazado_810752" data-name="Trazado 810752" d="M39.615,388.75c-.029,0-.083-.447-.293-1.235a17.625,17.625,0,0,0-1.241-3.216,44.524,44.524,0,0,0-6.586-9.279c-1.471-1.68-2.9-3.265-4.108-4.782A33.552,33.552,0,0,1,24.449,366a20.419,20.419,0,0,1-1.483-3.144c-.136-.387-.236-.69-.291-.9a1.5,1.5,0,0,1-.076-.321c.024-.008.159.425.465,1.182a22.986,22.986,0,0,0,1.549,3.086,35.624,35.624,0,0,0,2.966,4.177c1.216,1.5,2.644,3.078,4.118,4.761a42.2,42.2,0,0,1,6.556,9.373,16.064,16.064,0,0,1,1.171,3.274,8.964,8.964,0,0,1,.165.932,1.537,1.537,0,0,1,.027.329" transform="translate(-8.926 -142.852)" fill="#e0e0e0"/>
            <path id="Trazado_810753" data-name="Trazado 810753" d="M65.4,379.065a6.773,6.773,0,0,1-.77.431,16.807,16.807,0,0,0-1.993,1.318,22.979,22.979,0,0,0-2.62,2.388c-.918.972-1.865,2.1-2.833,3.307-1.931,2.424-3.738,4.569-4.821,6.282-.549.849-.949,1.566-1.211,2.068a6.691,6.691,0,0,1-.423.774.726.726,0,0,1,.071-.218c.057-.138.135-.345.258-.6a19.57,19.57,0,0,1,1.144-2.123,69.189,69.189,0,0,1,4.772-6.349c.969-1.211,1.926-2.341,2.863-3.31a21.216,21.216,0,0,1,2.683-2.37,13.983,13.983,0,0,1,2.059-1.259c.255-.128.463-.206.6-.266a.732.732,0,0,1,.217-.073" transform="translate(-20.037 -149.736)" fill="#e0e0e0"/>
            <path id="Trazado_810754" data-name="Trazado 810754" d="M68.829,387.938a11.177,11.177,0,0,1-1.625.236,21.408,21.408,0,0,0-3.854.759,11.585,11.585,0,0,0-3.451,1.811c-.8.615-1.171,1.123-1.208,1.093a1.262,1.262,0,0,1,.241-.374,6.108,6.108,0,0,1,.847-.866,10.43,10.43,0,0,1,3.488-1.919,17.365,17.365,0,0,1,3.917-.693,8.907,8.907,0,0,1,1.644-.047" transform="translate(-23.184 -153.234)" fill="#e0e0e0"/>
            <path id="Trazado_810755" data-name="Trazado 810755" d="M59.473,389.826c-.085-.048.647-1.166,1.215-2.671.533-1.519.658-2.849.754-2.834a2.578,2.578,0,0,1-.027.872,9.343,9.343,0,0,1-.474,2.054A9.968,9.968,0,0,1,60,389.131a2.621,2.621,0,0,1-.526.7" transform="translate(-23.49 -151.813)" fill="#e0e0e0"/>
            <path id="Trazado_810756" data-name="Trazado 810756" d="M70.15,355.212a1.225,1.225,0,0,1-.26.139l-.763.347c-.335.143-.741.326-1.2.567s-1,.48-1.553.815l-.886.5c-.307.177-.612.387-.935.589-.653.4-1.308.885-2.007,1.384a34.426,34.426,0,0,0-7.73,8c-.474.715-.94,1.386-1.313,2.053-.192.33-.391.642-.557.955l-.473.9c-.316.569-.541,1.113-.762,1.579s-.393.878-.525,1.217l-.321.775a1.257,1.257,0,0,1-.129.265,1.173,1.173,0,0,1,.078-.283c.073-.209.163-.472.274-.794.117-.346.272-.765.485-1.239s.423-1.027.73-1.6l.461-.917c.163-.318.359-.633.547-.969.368-.676.83-1.356,1.3-2.081a33.175,33.175,0,0,1,7.786-8.057c.708-.5,1.371-.981,2.035-1.373.328-.2.637-.407.949-.58l.9-.492c.567-.326,1.111-.56,1.579-.785s.88-.4,1.221-.528l.785-.3a1.225,1.225,0,0,1,.28-.088" transform="translate(-20.041 -140.314)" fill="#e0e0e0"/>
            <path id="Trazado_810757" data-name="Trazado 810757" d="M63.635,366.8a1.865,1.865,0,0,1,.638-.95,4.029,4.029,0,0,1,2.572-.987,7.037,7.037,0,0,1,2.707.529,3.871,3.871,0,0,1,1.023.5,6.263,6.263,0,0,1-1.085-.318,8.178,8.178,0,0,0-2.636-.44A4.188,4.188,0,0,0,64.4,366a7.564,7.564,0,0,0-.762.807" transform="translate(-25.136 -144.128)" fill="#e0e0e0"/>
            <path id="Trazado_810758" data-name="Trazado 810758" d="M60.765,367.859A6.865,6.865,0,0,0,61.331,363a1.566,1.566,0,0,1,.3.692,4.907,4.907,0,0,1-.416,3.56c-.226.411-.427.623-.453.6" transform="translate(-24.001 -143.391)" fill="#e0e0e0"/>
            <path id="Trazado_810759" data-name="Trazado 810759" d="M29.52,410.854c.4,7.1,2.54,14.319,5.83,21.618H49.659a62.157,62.157,0,0,0,5.484-21.618Z" transform="translate(-11.661 -162.294)" fill="#e0e0e0"/>
            <path id="Trazado_810760" data-name="Trazado 810760" d="M54.3,429.754c0,.074-4.712.134-10.522.134s-10.522-.06-10.522-.134,4.71-.134,10.522-.134,10.522.06,10.522.134" transform="translate(-13.136 -169.707)" fill="#fafafa"/>
            <path id="Trazado_810761" data-name="Trazado 810761" d="M54.63,434.005c0,.074-4.417.134-9.864.134s-9.865-.06-9.865-.134,4.416-.134,9.865-.134,9.864.06,9.864.134" transform="translate(-13.786 -171.386)" fill="#fafafa"/>
            <path id="Trazado_810762" data-name="Trazado 810762" d="M39.45,418.558a40.509,40.509,0,0,1,0,6.592,40.51,40.51,0,0,1,0-6.592" transform="translate(-15.53 -165.337)" fill="#fafafa"/>
            <path id="Trazado_810763" data-name="Trazado 810763" d="M52.123,418.558a43.442,43.442,0,0,1,0,6.827,43.44,43.44,0,0,1,0-6.827" transform="translate(-20.537 -165.337)" fill="#fafafa"/>
            <path id="Trazado_810764" data-name="Trazado 810764" d="M64.019,418.463a45.187,45.187,0,0,1,0,6.963,45.188,45.188,0,0,1,0-6.963" transform="translate(-25.236 -165.3)" fill="#fafafa"/>
            <path id="Trazado_810765" data-name="Trazado 810765" d="M55.006,418.47c0,.074-5.526.134-12.34.134s-12.342-.06-12.342-.134,5.524-.134,12.342-.134,12.34.06,12.34.134" transform="translate(-11.978 -165.25)" fill="#fafafa"/>
            <path id="Trazado_810766" data-name="Trazado 810766" d="M428.209,299.913a7.315,7.315,0,0,0,4.359-6.767,6.875,6.875,0,1,0-13.721-.064,7.3,7.3,0,0,0,4.372,6.831c-10.558,1.591-10.079,13.065-10.079,13.065l24.966.115s.569-11.6-9.9-13.18" transform="translate(-163.196 -112.894)" fill="#ebebeb"/>
            <path id="Trazado_810767" data-name="Trazado 810767" d="M244.992,27.212a4.792,4.792,0,0,0,3.782-3.674,4.5,4.5,0,1,0-8.747-2.07,4.785,4.785,0,0,0,1.78,5.006c-6.973-.546-8.364,6.847-8.364,6.847l15.915,3.765s2.079-7.318-4.366-9.875" transform="translate(-92.214 -7.001)" fill="#ebebeb"/>
            <path id="Trazado_810768" data-name="Trazado 810768" d="M433.75,129.6a4.6,4.6,0,0,0,2.1-4.6,4.319,4.319,0,1,0-8.536,1.194,4.587,4.587,0,0,0,3.332,3.854c-6.421,1.938-5.092,9.029-5.092,9.029l15.532-2.172s-.688-7.263-7.337-7.305" transform="translate(-168.056 -47.8)" fill="#f5f5f5"/>
            <path id="Trazado_810769" data-name="Trazado 810769" d="M21.656,129.488l-8.391-6.671,2.328-2.928,5.627,4.473,8.216-9.195,2.789,2.493Z" transform="translate(-5.24 -45.493)" fill="#f5f5f5"/>
          </g>
        </g>
        <g id="Grupo_1067997" data-name="Grupo 1067997">
          <g id="Grupo_1067996" data-name="Grupo 1067996" clip-path="url(#clip-path)">
            <path id="Trazado_810770" data-name="Trazado 810770" d="M270.619,446.842c0,.087-60.585.157-135.3.157C60.572,447,0,446.929,0,446.842s60.572-.157,135.316-.157c74.718,0,135.3.07,135.3.157" transform="translate(0 -176.448)" fill="#263238"/>
          </g>
        </g>
        <g id="Grupo_1068005" data-name="Grupo 1068005">
          <g id="Grupo_1068004" data-name="Grupo 1068004" clip-path="url(#clip-path)">
            <path id="Trazado_810771" data-name="Trazado 810771" d="M32.45,154.691,13.892,164a3.763,3.763,0,0,0-2.287,3.462v8.681a40.287,40.287,0,0,0,6.617,22.226c3.343,5.093,7.776,11.6,15.152,15.325H36.7c8.211-2.5,14.341-9.179,18.088-14.889a40.292,40.292,0,0,0,6.617-22.226v-9.117A3.764,3.764,0,0,0,59.122,164l-21.139-9.007c-.943-.4-4.589-.7-5.532-.3" transform="translate(-4.584 -61.031)" fill="#59bee2"/>
            <g id="Grupo_1068000" data-name="Grupo 1068000" transform="translate(7.021 99.076)" opacity="0.3">
              <g id="Grupo_1067999" data-name="Grupo 1067999" transform="translate(0 -6)">
                <g id="Grupo_1067998" data-name="Grupo 1067998" clip-path="url(#clip-path-5)">
                  <path id="Trazado_810772" data-name="Trazado 810772" d="M32.45,154.691,13.892,164a3.763,3.763,0,0,0-2.287,3.462v8.681a40.287,40.287,0,0,0,6.617,22.226c3.343,5.093,7.776,11.6,15.152,15.325H36.7c8.211-2.5,14.341-9.179,18.088-14.889a40.292,40.292,0,0,0,6.617-22.226v-9.117A3.764,3.764,0,0,0,59.122,164l-21.139-9.007c-.943-.4-4.589-.7-5.532-.3" transform="translate(-11.605 -154.502)"/>
                </g>
              </g>
            </g>
            <path id="Trazado_810773" data-name="Trazado 810773" d="M29.528,155.116,8.389,164.124A3.762,3.762,0,0,0,6.1,167.586v8.68a40.645,40.645,0,0,0,25.1,37.551c8.211-2.5,14.341-9.18,18.088-14.89A40.286,40.286,0,0,0,55.906,176.7v-9.117a3.763,3.763,0,0,0-2.287-3.462l-21.14-9.008a3.761,3.761,0,0,0-2.95,0" transform="translate(-2.41 -61.154)" fill="#59bee2"/>
            <g id="Grupo_1068003" data-name="Grupo 1068003" transform="translate(14.736 106.561)" opacity="0.3">
              <g id="Grupo_1068002" data-name="Grupo 1068002">
                <g id="Grupo_1068001" data-name="Grupo 1068001" clip-path="url(#clip-path-6)">
                  <path id="Trazado_810774" data-name="Trazado 810774" d="M52.073,190a13.857,13.857,0,1,1-13.858-13.858A13.858,13.858,0,0,1,52.073,190" transform="translate(-24.357 -176.138)"/>
                </g>
              </g>
            </g>
            <path id="Trazado_810775" data-name="Trazado 810775" d="M49.259,187.042a5.753,5.753,0,1,1-5.753-5.753,5.753,5.753,0,0,1,5.753,5.753" transform="translate(-14.913 -71.612)" fill="#fff"/>
            <path id="Trazado_810776" data-name="Trazado 810776" d="M29.9,209.8a11.247,11.247,0,0,1,10.3-6.39A12.232,12.232,0,0,1,50.91,209.8,12.921,12.921,0,0,1,40,214.627,13.17,13.17,0,0,1,29.9,209.8" transform="translate(-11.809 -80.351)" fill="#fff"/>
            <path id="Trazado_810777" data-name="Trazado 810777" d="M51.97,189.918a1.243,1.243,0,0,1-.028-.224c-.011-.163-.028-.381-.049-.657-.01-.146-.021-.307-.031-.483s-.059-.369-.091-.578a10.173,10.173,0,0,0-.294-1.426,13.249,13.249,0,0,0-1.542-3.663,13.731,13.731,0,0,0-16.493-5.847,12.593,12.593,0,0,0-3.468,1.868,12.532,12.532,0,0,0-2.9,2.911,13.264,13.264,0,0,0-1.958,3.775,13.584,13.584,0,0,0,0,8.646,13.277,13.277,0,0,0,1.958,3.776,12.525,12.525,0,0,0,2.9,2.912,12.584,12.584,0,0,0,3.468,1.868,13.766,13.766,0,0,0,16.494-5.848,13.224,13.224,0,0,0,1.541-3.663,10.172,10.172,0,0,0,.294-1.426c.032-.209.07-.4.091-.578s.022-.338.031-.483c.021-.276.038-.493.049-.656a1.243,1.243,0,0,1,.028-.224,1.265,1.265,0,0,1,0,.224c0,.165-.01.383-.018.661-.005.147-.01.309-.017.487s-.049.372-.076.583a9.813,9.813,0,0,1-.268,1.443,13.086,13.086,0,0,1-1.509,3.722,13.953,13.953,0,0,1-9.392,6.62,14.018,14.018,0,0,1-7.352-.589,12.864,12.864,0,0,1-3.548-1.9,12.822,12.822,0,0,1-2.967-2.971,13.564,13.564,0,0,1-2.007-3.86,13.866,13.866,0,0,1,0-8.845,13.546,13.546,0,0,1,2.007-3.859,12.829,12.829,0,0,1,2.966-2.97,12.869,12.869,0,0,1,3.548-1.9,14.013,14.013,0,0,1,7.351-.589,13.946,13.946,0,0,1,9.392,6.619A13.113,13.113,0,0,1,51.6,186.52a9.865,9.865,0,0,1,.268,1.443c.027.211.061.4.076.583s.011.341.017.488c.008.277.014.5.018.661a1.265,1.265,0,0,1,0,.224" transform="translate(-9.519 -69.5)" fill="#263238"/>
            <path id="Trazado_810778" data-name="Trazado 810778" d="M78.185,187.106a2.031,2.031,0,0,1,.038.4c.013.3.029.677.05,1.15.019.5.048,1.111.013,1.821q-.016.535-.033,1.138c0,.4-.03.828-.078,1.273-.086.891-.145,1.871-.329,2.908-.084.519-.15,1.061-.258,1.61s-.24,1.113-.364,1.692a41.642,41.642,0,0,1-2.437,7.3,42.962,42.962,0,0,1-3.791,6.7c-.7.952-1.353,1.872-2.05,2.663-.342.4-.653.8-.987,1.159l-.965,1.021c-.6.665-1.214,1.195-1.727,1.685s-.981.886-1.371,1.2l-.9.723a1.924,1.924,0,0,1-.325.235,1.989,1.989,0,0,1,.286-.284l.855-.767c.378-.325.835-.728,1.331-1.234s1.1-1.039,1.687-1.71q.451-.494.944-1.03c.327-.358.632-.763.967-1.164.684-.793,1.321-1.713,2.014-2.663a44.265,44.265,0,0,0,3.741-6.66,42.913,42.913,0,0,0,2.443-7.236q.192-.86.374-1.678c.112-.545.182-1.082.272-1.6.194-1.029.266-2,.365-2.887.056-.442.088-.865.1-1.266s.039-.776.057-1.131c.051-.707.041-1.316.04-1.815,0-.472.007-.854.01-1.149a1.883,1.883,0,0,1,.025-.4" transform="translate(-24.757 -73.91)" fill="#263238"/>
          </g>
        </g>
        <g id="Grupo_1068013" data-name="Grupo 1068013">
          <g id="Grupo_1068012" data-name="Grupo 1068012" clip-path="url(#clip-path)">
            <path id="Trazado_810779" data-name="Trazado 810779" d="M233.483,294.7H90.433a7.133,7.133,0,0,1-7.01-7.251V68.79a7.134,7.134,0,0,1,7.01-7.251H233.483a7.134,7.134,0,0,1,7.011,7.251V287.452a7.134,7.134,0,0,1-7.011,7.251" transform="translate(-32.953 -24.309)" fill="#263238"/>
            <path id="Trazado_810780" data-name="Trazado 810780" d="M217.432,78.884H185.353a2.315,2.315,0,0,1,0-4.628h32.079a2.315,2.315,0,0,1,0,4.628" transform="translate(-72.334 -29.332)" fill="#455a64"/>
            <rect id="Rectángulo_375820" data-name="Rectángulo 375820" width="147.166" height="194.721" transform="translate(55.286 53.865)" fill="#fff"/>
            <rect id="Rectángulo_375821" data-name="Rectángulo 375821" width="6.278" height="194.721" transform="translate(196.174 53.865)" fill="#f5f5f5"/>
            <path id="Trazado_810781" data-name="Trazado 810781" d="M328.174,173.99h0a1.957,1.957,0,0,1-1.957-1.957V128.96a1.957,1.957,0,1,1,3.914,0v43.073a1.957,1.957,0,0,1-1.957,1.957" transform="translate(-128.861 -50.168)" fill="#e0e0e0"/>
            <path id="Trazado_810782" data-name="Trazado 810782" d="M230.029,158.206H121.517a3.121,3.121,0,1,1,0-6.242H230.029a3.121,3.121,0,1,1,0,6.242" transform="translate(-46.768 -60.028)" fill="#e0e0e0"/>
            <path id="Trazado_810783" data-name="Trazado 810783" d="M228.724,120.56h-68.26a3.121,3.121,0,1,1,0-6.242h68.26a3.121,3.121,0,0,1,0,6.242" transform="translate(-62.153 -45.157)" fill="#74c67b"/>
            <path id="Trazado_810784" data-name="Trazado 810784" d="M224.682,178.973h-77.7a3.121,3.121,0,0,1,0-6.242h77.7a3.121,3.121,0,1,1,0,6.242" transform="translate(-56.829 -68.232)" fill="#e0e0e0"/>
            <path id="Trazado_810785" data-name="Trazado 810785" d="M178.4,269.5H118.622a3.121,3.121,0,0,1,0-6.242H178.4a3.121,3.121,0,1,1,0,6.242" transform="translate(-45.625 -103.993)" fill="#e0e0e0"/>
            <path id="Trazado_810786" data-name="Trazado 810786" d="M227.133,247.9H118.621a3.121,3.121,0,1,1,0-6.242H227.133a3.121,3.121,0,1,1,0,6.242" transform="translate(-45.624 -95.458)" fill="#e0e0e0"/>
            <path id="Trazado_810787" data-name="Trazado 810787" d="M235.968,317.494h-94.98a3.121,3.121,0,1,1,0-6.242h94.98a3.121,3.121,0,0,1,0,6.242" transform="translate(-54.46 -122.95)" fill="#e0e0e0"/>
            <path id="Trazado_810788" data-name="Trazado 810788" d="M227.133,339.545H118.621a3.121,3.121,0,1,1,0-6.242H227.133a3.121,3.121,0,1,1,0,6.242" transform="translate(-45.624 -131.66)" fill="#e0e0e0"/>
            <path id="Trazado_810789" data-name="Trazado 810789" d="M227.133,361.94H118.621a3.121,3.121,0,1,1,0-6.242H227.133a3.121,3.121,0,1,1,0,6.242" transform="translate(-45.624 -140.507)" fill="#e0e0e0"/>
            <path id="Trazado_810790" data-name="Trazado 810790" d="M124.5,314.294a3.242,3.242,0,1,1-3.242-3.242,3.242,3.242,0,0,1,3.242,3.242" transform="translate(-46.617 -122.871)" fill="#74c67b"/>
            <path id="Trazado_810791" data-name="Trazado 810791" d="M235.968,227.747h-94.98a3.121,3.121,0,1,1,0-6.242h94.98a3.121,3.121,0,0,1,0,6.242" transform="translate(-54.46 -87.498)" fill="#e0e0e0"/>
            <path id="Trazado_810792" data-name="Trazado 810792" d="M124.5,224.548a3.242,3.242,0,1,1-3.242-3.242,3.242,3.242,0,0,1,3.242,3.242" transform="translate(-46.617 -87.42)" fill="#74c67b"/>
            <path id="Trazado_810793" data-name="Trazado 810793" d="M275.863,392.334H251.514a4.974,4.974,0,0,1,0-9.948h24.349a4.974,4.974,0,0,1,0,9.948" transform="translate(-97.387 -151.049)" fill="#74c67b"/>
            <path id="Trazado_810794" data-name="Trazado 810794" d="M75.426,1.713,50.7,14.116a5.012,5.012,0,0,0-3.049,4.612V30.3A53.687,53.687,0,0,0,56.468,59.91C60.922,66.7,66.83,75.371,76.658,80.33h4.436C92.036,76.993,100.2,68.1,105.2,60.49a53.679,53.679,0,0,0,8.817-29.615V18.729a5.013,5.013,0,0,0-3.048-4.612L82.8,2.114c-1.256-.535-6.115-.936-7.371-.4" transform="translate(-18.823 -0.577)" fill="#59bee2"/>
            <g id="Grupo_1068008" data-name="Grupo 1068008" transform="translate(29.498 1.136)" opacity="0.3">
              <g id="Grupo_1068007" data-name="Grupo 1068007">
                <g id="Grupo_1068006" data-name="Grupo 1068006" clip-path="url(#clip-path-8)">
                  <path id="Trazado_810795" data-name="Trazado 810795" d="M75.426,1.713,50.7,14.116a5.012,5.012,0,0,0-3.049,4.612V30.3A53.687,53.687,0,0,0,56.468,59.91C60.922,66.7,66.83,75.371,76.658,80.33h4.436C92.036,76.993,100.2,68.1,105.2,60.49a53.679,53.679,0,0,0,8.817-29.615V18.729a5.013,5.013,0,0,0-3.048-4.612L82.8,2.114c-1.256-.535-6.115-.936-7.371-.4" transform="translate(-47.651 -1.46)"/>
                </g>
              </g>
            </g>
            <path id="Trazado_810796" data-name="Trazado 810796" d="M71.533,2.279l-28.167,12a5.015,5.015,0,0,0-3.049,4.612V30.46A54.156,54.156,0,0,0,73.761,80.494c10.941-3.336,19.108-12.232,24.1-19.839a53.681,53.681,0,0,0,8.818-29.615V18.893a5.014,5.014,0,0,0-3.049-4.612l-28.167-12a5.015,5.015,0,0,0-3.931,0" transform="translate(-15.926 -0.742)" fill="#59bee2"/>
            <g id="Grupo_1068011" data-name="Grupo 1068011" transform="translate(39.108 18.325)" opacity="0.3">
              <g id="Grupo_1068010" data-name="Grupo 1068010">
                <g id="Grupo_1068009" data-name="Grupo 1068009" clip-path="url(#clip-path-9)">
                  <path id="Trazado_810797" data-name="Trazado 810797" d="M101.572,48.755A18.464,18.464,0,1,1,83.107,30.29a18.465,18.465,0,0,1,18.465,18.465" transform="translate(-64.643 -30.29)"/>
                </g>
              </g>
            </g>
            <path id="Trazado_810798" data-name="Trazado 810798" d="M97.823,44.819a7.666,7.666,0,1,1-7.666-7.666,7.666,7.666,0,0,1,7.666,7.666" transform="translate(-32.586 -14.676)" fill="#fff"/>
            <path id="Trazado_810799" data-name="Trazado 810799" d="M72.022,75.145A14.986,14.986,0,0,1,85.739,66.63a16.3,16.3,0,0,1,14.282,8.515s-4.527,6.689-14.543,6.43a17.548,17.548,0,0,1-13.457-6.43" transform="translate(-28.45 -26.32)" fill="#fff"/>
            <path id="Trazado_810800" data-name="Trazado 810800" d="M101.435,48.651a1.612,1.612,0,0,1-.036-.3c-.016-.218-.038-.508-.065-.875q-.019-.291-.043-.644c-.026-.236-.078-.491-.121-.77a13.368,13.368,0,0,0-.391-1.9,17.61,17.61,0,0,0-2.054-4.88A18.3,18.3,0,0,0,76.747,31.49a16.825,16.825,0,0,0-4.621,2.489,16.7,16.7,0,0,0-3.859,3.879,17.665,17.665,0,0,0-2.609,5.03,18.1,18.1,0,0,0,0,11.521,17.691,17.691,0,0,0,2.609,5.032,16.725,16.725,0,0,0,3.86,3.88,16.8,16.8,0,0,0,4.621,2.49,18.346,18.346,0,0,0,21.978-7.792,17.661,17.661,0,0,0,2.054-4.88,13.538,13.538,0,0,0,.391-1.9c.042-.278.094-.534.12-.77s.03-.45.043-.644c.027-.367.049-.657.065-.875a1.612,1.612,0,0,1,.036-.3,1.6,1.6,0,0,1,.007.3c-.006.219-.014.51-.024.88-.007.2-.015.413-.023.649s-.065.5-.1.777a13.141,13.141,0,0,1-.356,1.923,17.5,17.5,0,0,1-2.01,4.96,18.591,18.591,0,0,1-12.515,8.82,18.667,18.667,0,0,1-9.8-.784,17.145,17.145,0,0,1-4.728-2.531,17.083,17.083,0,0,1-3.953-3.959,18.079,18.079,0,0,1-2.674-5.144,18.48,18.48,0,0,1,0-11.785,18.067,18.067,0,0,1,2.673-5.142,21.168,21.168,0,0,1,1.832-2.161,20.924,20.924,0,0,1,2.12-1.8,17.15,17.15,0,0,1,4.727-2.53,18.675,18.675,0,0,1,9.8-.785,18.593,18.593,0,0,1,12.515,8.819,17.449,17.449,0,0,1,2.011,4.961,13.069,13.069,0,0,1,.357,1.923c.036.281.082.539.1.777s.016.453.023.649c.01.37.018.661.024.88a1.6,1.6,0,0,1-.007.3" transform="translate(-25.398 -11.861)" fill="#263238"/>
            <path id="Trazado_810801" data-name="Trazado 810801" d="M136.366,44.9a2.573,2.573,0,0,1,.051.532c.017.394.039.9.067,1.532.025.666.064,1.481.018,2.427q-.021.713-.045,1.516-.008.806-.1,1.7c-.114,1.186-.194,2.493-.439,3.875-.113.692-.2,1.413-.344,2.146s-.319,1.483-.484,2.254a55.513,55.513,0,0,1-3.248,9.723,57.275,57.275,0,0,1-5.051,8.924c-.938,1.269-1.8,2.495-2.732,3.548-.456.533-.871,1.07-1.316,1.545l-1.285,1.361c-.8.887-1.618,1.592-2.3,2.246s-1.307,1.18-1.828,1.6l-1.193.963a2.571,2.571,0,0,1-.433.313,2.574,2.574,0,0,1,.38-.379l1.14-1.021c.5-.434,1.112-.971,1.773-1.644s1.467-1.384,2.248-2.279l1.258-1.372c.437-.478.842-1.017,1.29-1.551.911-1.056,1.76-2.282,2.683-3.548a59.04,59.04,0,0,0,4.985-8.875,57.216,57.216,0,0,0,3.255-9.641l.5-2.235c.149-.727.243-1.443.362-2.13.258-1.371.355-2.668.487-3.846.074-.589.117-1.152.132-1.686s.053-1.035.077-1.508c.068-.941.054-1.754.054-2.418,0-.629.009-1.137.012-1.531a2.589,2.589,0,0,1,.033-.535" transform="translate(-45.703 -17.737)" fill="#263238"/>
          </g>
        </g>
        <g id="Grupo_1068024" data-name="Grupo 1068024">
          <g id="Grupo_1068023" data-name="Grupo 1068023" clip-path="url(#clip-path)">
            <path id="Trazado_810802" data-name="Trazado 810802" d="M391.013,108.939v24.517c.053,4.24.676,10.893-6.032,10.671-5.8-.632-7.345-6.127-7.39-10.084-.021-1.877-.043-3.442-.057-3.635,0,0-6.355-.518-6.891-6.795-.259-3.033-.284-9.324-.241-15.016A11.734,11.734,0,0,1,381.284,96.99l.606-.044c6.564-.1,9.21,5.429,9.124,11.993" transform="translate(-146.308 -38.295)" fill="#ffc09d"/>
            <path id="Trazado_810803" data-name="Trazado 810803" d="M382.2,150.288a15.215,15.215,0,0,0,8-3.016s-1.661,4.735-7.971,4.626Z" transform="translate(-150.976 -58.175)" fill="#ff9b6c"/>
            <path id="Trazado_810804" data-name="Trazado 810804" d="M388.139,119.732c.125.127.849-.456,1.9-.485,1.05-.044,1.837.488,1.947.352.054-.06-.076-.292-.418-.533a2.635,2.635,0,0,0-1.563-.443,2.545,2.545,0,0,0-1.509.549c-.316.264-.419.5-.358.56" transform="translate(-153.315 -46.857)" fill="#263238"/>
            <path id="Trazado_810805" data-name="Trazado 810805" d="M388.123,124.833a.851.851,0,0,0,.881.8.813.813,0,0,0,.819-.829.85.85,0,0,0-.88-.8.814.814,0,0,0-.82.829" transform="translate(-153.315 -48.984)" fill="#263238"/>
            <path id="Trazado_810806" data-name="Trazado 810806" d="M382.154,127.275a6.414,6.414,0,0,0-1.589-.168c-.248-.008-.485-.039-.539-.2a1.261,1.261,0,0,1,.111-.743q.282-.92.592-1.93a32.4,32.4,0,0,0,1.278-5.03,32.444,32.444,0,0,0-1.681,4.915q-.293,1.015-.56,1.94a1.434,1.434,0,0,0-.057.977.62.62,0,0,0,.432.33,1.656,1.656,0,0,0,.423.028,6.3,6.3,0,0,0,1.589-.114" transform="translate(-149.964 -47.085)" fill="#263238"/>
            <path id="Trazado_810807" data-name="Trazado 810807" d="M388.885,112.546c.1.234.943.057,1.952.109,1.009.03,1.837.274,1.953.05.051-.107-.105-.322-.448-.53a3.3,3.3,0,0,0-2.975-.121c-.356.179-.526.381-.482.492" transform="translate(-153.613 -44.146)" fill="#263238"/>
            <path id="Trazado_810808" data-name="Trazado 810808" d="M372.375,115.131c.11.19.931-.021,1.925-.051.995-.049,1.82.1,1.925-.1.046-.095-.118-.265-.465-.416a3.473,3.473,0,0,0-1.471-.243,3.587,3.587,0,0,0-1.462.361c-.342.178-.5.362-.453.453" transform="translate(-147.091 -45.156)" fill="#263238"/>
            <path id="Trazado_810809" data-name="Trazado 810809" d="M356.615,100.5a1.018,1.018,0,0,1,.477-.593,3.127,3.127,0,0,1,1.6-.261,9.067,9.067,0,0,0,4.721-1.434,21.075,21.075,0,0,1,2.2-2.662A15.982,15.982,0,0,1,370.7,91.6a14.578,14.578,0,0,1,7.781-.612,5.89,5.89,0,0,1,4.448,4.582,4.532,4.532,0,0,1,4.556-.427l.037-.016c1.661.592,2.605,2.347,3.1,4.041s.7,3.506,1.6,5.024c.188.318.41.7.247,1.028a.7.7,0,0,1-.734.319,2.06,2.06,0,0,1-.773-.35q.279.665.556,1.331a3.932,3.932,0,0,1-1.807-.12,38.559,38.559,0,0,1-1.182,4.467,2.559,2.559,0,0,0-1.758.433c-.582.523-.842,1.508-1.809,1.134-.492-.19-.941-1.223-1.106-1.724a24.5,24.5,0,0,1-1.061-10.369,7.88,7.88,0,0,0-2.431-1.755l.074.067c-1.754-.609-3.738-1.209-5.4-.385-1.291.639-2.05,1.979-3.015,3.048a9.854,9.854,0,0,1-7.024,3.244c-.093,1.768.056,4.266-.037,6.033l-1.486-2.831v.015c-.122-.208-.223-.416-.32-.626l-.033-.064v-.008a10.983,10.983,0,0,0-.5-1.005l-.017.015a1.1,1.1,0,0,1-1.613-1.477,2.482,2.482,0,0,1,.534-.537,1.746,1.746,0,0,1-1.664.431,1.37,1.37,0,0,1-.969-1.355,1.166,1.166,0,0,1,.695-.935,3.934,3.934,0,0,1-2.238-.493c-.442-.252-.876-.667-.726-1.223" transform="translate(-140.857 -35.829)" fill="#263238"/>
            <path id="Trazado_810810" data-name="Trazado 810810" d="M396.868,99.936a5.413,5.413,0,0,1,.63.576,4.5,4.5,0,0,1,.964,2.085,7.906,7.906,0,0,1,.16,1.6c0,.578-.044,1.2-.088,1.85a16.655,16.655,0,0,0-.047,2.059,7.206,7.206,0,0,0,.142,1.087,2.264,2.264,0,0,0,.443,1.054.949.949,0,0,0,.886.3,1.407,1.407,0,0,0,.8-.451,3.248,3.248,0,0,0,.6-1.6l-.131.016a5.272,5.272,0,0,0,.763,1.315,1.876,1.876,0,0,0,1.221.665,1.21,1.21,0,0,0,.647-.114,1.041,1.041,0,0,0,.44-.433,1.075,1.075,0,0,0,.134-.557.78.78,0,0,0-.2-.488l-.066.059a4.045,4.045,0,0,0,1.349,1.012,3.551,3.551,0,0,0,.418.162.649.649,0,0,0,.149.037.777.777,0,0,0-.142-.06c-.093-.039-.232-.094-.405-.183a4.169,4.169,0,0,1-1.3-1.027l-.067.059a.8.8,0,0,1,.042.933.936.936,0,0,1-.4.384,1.093,1.093,0,0,1-.587.1,1.751,1.751,0,0,1-1.134-.632,5.189,5.189,0,0,1-.736-1.287l-.09-.2-.042.217a3.149,3.149,0,0,1-.576,1.526,1.273,1.273,0,0,1-.713.4.8.8,0,0,1-.753-.253,2.141,2.141,0,0,1-.41-.986,7.244,7.244,0,0,1-.14-1.064,16.811,16.811,0,0,1,.039-2.041c.041-.652.082-1.275.074-1.86a7.885,7.885,0,0,0-.18-1.617,4.441,4.441,0,0,0-1.023-2.1,2.547,2.547,0,0,0-.672-.538" transform="translate(-156.769 -39.476)" fill="#455a64"/>
            <path id="Trazado_810811" data-name="Trazado 810811" d="M364.762,103.744s.016.016.05.043l.157.114a2.123,2.123,0,0,0,.266.171,3.233,3.233,0,0,0,.382.2,5.565,5.565,0,0,0,2.687.483,7.11,7.11,0,0,0,3.789-1.4,12.319,12.319,0,0,0,3.255-3.752c.457-.76.829-1.54,1.24-2.26a8.306,8.306,0,0,1,1.4-1.911,4.283,4.283,0,0,1,1.809-1.1,3.068,3.068,0,0,1,.954-.11,3.364,3.364,0,0,1,.874.168,3.629,3.629,0,0,1,2.018,1.707,4.384,4.384,0,0,1,.324.941.229.229,0,0,0-.005-.066c-.008-.052-.018-.115-.03-.192a3.111,3.111,0,0,0-.238-.709,3.575,3.575,0,0,0-.7-.953,3.678,3.678,0,0,0-1.332-.827,3.47,3.47,0,0,0-.9-.183,3.183,3.183,0,0,0-.993.106,4.394,4.394,0,0,0-1.871,1.118,8.379,8.379,0,0,0-1.434,1.938c-.416.725-.788,1.5-1.24,2.255a12.326,12.326,0,0,1-3.209,3.718,7.074,7.074,0,0,1-3.716,1.405,5.653,5.653,0,0,1-2.658-.432,8.9,8.9,0,0,1-.878-.477" transform="translate(-144.087 -37.175)" fill="#455a64"/>
            <path id="Trazado_810812" data-name="Trazado 810812" d="M363.818,105.473a.956.956,0,0,0,.225.157,4.891,4.891,0,0,0,.667.339,6.507,6.507,0,0,0,1.056.347,6.826,6.826,0,0,0,2.709.087,6.464,6.464,0,0,0,1.076-.278,4.856,4.856,0,0,0,.687-.3,1,1,0,0,0,.235-.142c-.012-.025-.359.154-.954.339a7.45,7.45,0,0,1-1.065.244,7.345,7.345,0,0,1-2.658-.085,7.417,7.417,0,0,1-1.047-.311c-.582-.223-.917-.423-.93-.4" transform="translate(-143.714 -41.663)" fill="#455a64"/>
            <path id="Trazado_810813" data-name="Trazado 810813" d="M372.292,119.732c.125.127.849-.456,1.9-.485,1.05-.044,1.837.488,1.947.352.054-.06-.075-.292-.418-.533a2.635,2.635,0,0,0-1.563-.443,2.541,2.541,0,0,0-1.509.549c-.316.264-.419.5-.358.56" transform="translate(-147.055 -46.857)" fill="#263238"/>
            <path id="Trazado_810814" data-name="Trazado 810814" d="M374.075,124.833a.851.851,0,0,0,.881.8.814.814,0,0,0,.819-.829.851.851,0,0,0-.88-.8.814.814,0,0,0-.82.829" transform="translate(-147.765 -48.984)" fill="#263238"/>
            <path id="Trazado_810815" data-name="Trazado 810815" d="M404.211,124.32c.1-.054,4.219-1.59,4.395,2.71s-4.177,3.59-4.19,3.467-.205-6.177-.205-6.177" transform="translate(-159.67 -48.986)" fill="#ffc09d"/>
            <path id="Trazado_810816" data-name="Trazado 810816" d="M406.609,129.707c.018-.015.077.05.206.1a.749.749,0,0,0,.56-.011,1.855,1.855,0,0,0,.79-1.7,2.481,2.481,0,0,0-.254-1.064.866.866,0,0,0-.587-.552.38.38,0,0,0-.433.223c-.053.123-.022.208-.045.215s-.095-.068-.068-.247a.479.479,0,0,1,.158-.276.568.568,0,0,1,.41-.126,1.053,1.053,0,0,1,.809.635,2.55,2.55,0,0,1,.309,1.188,1.947,1.947,0,0,1-1.017,1.9.8.8,0,0,1-.69-.086c-.137-.1-.164-.2-.149-.2" transform="translate(-160.616 -49.879)" fill="#ff9b6c"/>
            <path id="Trazado_810817" data-name="Trazado 810817" d="M386.8,134.023c.036.007.036.253-.113.616a2.6,2.6,0,0,1-.99,1.147,2.4,2.4,0,0,1-1.465.394c-.4-.035-.609-.166-.6-.2.015-.048.243,0,.6-.024a2.753,2.753,0,0,0,1.294-.437,3.091,3.091,0,0,0,.961-.983c.186-.307.262-.527.311-.515" transform="translate(-151.541 -52.941)" fill="#263238"/>
            <path id="Trazado_810818" data-name="Trazado 810818" d="M417.354,415.187l1.285,14.541,4.545,11.227a1.476,1.476,0,0,1-1.023,1.961,1.661,1.661,0,0,1-1.433-.244c-2.6-1.889-11.951-8.831-12.056-9.735-.135-1.171-2.52-15.469-2.52-15.469Z" transform="translate(-160.437 -164.006)" fill="#455a64"/>
            <path id="Trazado_810819" data-name="Trazado 810819" d="M423.637,453.425l-13.745-11.636.134,1.077c.093.589.1.909.515,1.277a131.464,131.464,0,0,0,11.517,9.283,1.868,1.868,0,0,0,1.578,0" transform="translate(-161.914 -174.514)" fill="#263238"/>
            <path id="Trazado_810820" data-name="Trazado 810820" d="M413.5,434.228a.878.878,0,0,1,.394,1.149.954.954,0,0,1-1.208.378.925.925,0,0,1-.411-1.218,1,1,0,0,1,1.3-.262" transform="translate(-162.813 -171.488)" fill="#fff"/>
            <path id="Trazado_810821" data-name="Trazado 810821" d="M425.582,449.882c.092.031.354-.763,1.226-1.264a5.087,5.087,0,0,1,1.741-.5c.01-.037-.2-.13-.565-.142a2.6,2.6,0,0,0-1.358.368,2.385,2.385,0,0,0-.938.994c-.146.316-.146.533-.107.541" transform="translate(-168.103 -176.959)" fill="#263238"/>
            <path id="Trazado_810822" data-name="Trazado 810822" d="M427.769,453.344a13.142,13.142,0,0,1,1.3-.76,13.528,13.528,0,0,1,1.486-.333,1.86,1.86,0,0,0-1.618.038c-.88.34-1.25,1.025-1.165,1.056" transform="translate(-168.971 -178.588)" fill="#263238"/>
            <path id="Trazado_810823" data-name="Trazado 810823" d="M421.745,445.983a15.861,15.861,0,0,1,1.917-1.3,16.651,16.651,0,0,1,2.233-.73,3.719,3.719,0,0,0-2.39.446,3.406,3.406,0,0,0-1.76,1.585" transform="translate(-166.594 -175.346)" fill="#263238"/>
            <path id="Trazado_810824" data-name="Trazado 810824" d="M420.452,439.534c.051.083.866-.337,1.972-.486s2.013.015,2.036-.079a3.247,3.247,0,0,0-2.087-.238,3.151,3.151,0,0,0-1.921.8" transform="translate(-166.084 -173.287)" fill="#263238"/>
            <path id="Trazado_810825" data-name="Trazado 810825" d="M419.639,432.471a5.344,5.344,0,0,1,4.139-.278c.022-.033-.168-.2-.545-.356a3.617,3.617,0,0,0-1.581-.243,3.576,3.576,0,0,0-1.528.451c-.35.207-.512.4-.486.425" transform="translate(-165.763 -170.484)" fill="#263238"/>
            <path id="Trazado_810826" data-name="Trazado 810826" d="M421.24,429.029a1.178,1.178,0,0,0-.041-.551,3.712,3.712,0,0,0-.626-1.391,1.771,1.771,0,0,0-.863-.73.663.663,0,0,0-.7.2.933.933,0,0,0-.17.679,2.21,2.21,0,0,0,2.179,1.749,2.609,2.609,0,0,0,2.4-1.529.8.8,0,0,0-.037-.708.648.648,0,0,0-.687-.245,2.233,2.233,0,0,0-.961.6,4.267,4.267,0,0,0-.926,1.232,1.251,1.251,0,0,0-.181.525,6.835,6.835,0,0,1,1.273-1.593,2.1,2.1,0,0,1,.851-.5.344.344,0,0,1,.376.132.55.55,0,0,1,0,.466,2.333,2.333,0,0,1-2.1,1.3,1.922,1.922,0,0,1-1.872-1.46.673.673,0,0,1,.1-.479.359.359,0,0,1,.385-.119,1.609,1.609,0,0,1,.742.606,5.477,5.477,0,0,1,.864,1.811" transform="translate(-165.446 -168.406)" fill="#263238"/>
            <path id="Trazado_810827" data-name="Trazado 810827" d="M355.835,416.345l.573,12.314s-13.123,4.683-13.253,6.968l25.44-.186-.055-19.222Z" transform="translate(-135.552 -164.414)" fill="#455a64"/>
            <path id="Trazado_810828" data-name="Trazado 810828" d="M377.243,434.948a.975.975,0,0,1,.728,1.11,1,1,0,0,1-1.163.687,1.027,1.027,0,0,1-.764-1.178,1.056,1.056,0,0,1,1.295-.589" transform="translate(-148.529 -171.796)" fill="#e0e0e0"/>
            <path id="Trazado_810829" data-name="Trazado 810829" d="M368.588,446.728l-.086-1.937-24.359.9s-1.129.472-1,1.221Z" transform="translate(-135.545 -175.7)" fill="#263238"/>
            <path id="Trazado_810830" data-name="Trazado 810830" d="M364.378,436.513c0,.117.627.165,1.241.536s.944.86,1.058.813c.114-.024-.077-.721-.829-1.157s-1.5-.3-1.47-.191" transform="translate(-143.935 -172.386)" fill="#263238"/>
            <path id="Trazado_810831" data-name="Trazado 810831" d="M359.981,438.3c-.027.113.512.308.938.8.441.479.552,1.012.676,1.007.117.018.2-.667-.345-1.268s-1.267-.649-1.269-.537" transform="translate(-142.198 -173.117)" fill="#263238"/>
            <path id="Trazado_810832" data-name="Trazado 810832" d="M356.858,442c.113.024.281-.561-.043-1.2s-.907-.888-.959-.789c-.069.1.311.437.569.964s.31,1.013.434,1.024" transform="translate(-140.566 -173.805)" fill="#263238"/>
            <path id="Trazado_810833" data-name="Trazado 810833" d="M364.707,431.645c.053.106.621-.059,1.324-.019s1.252.244,1.316.143c.071-.085-.466-.513-1.294-.549s-1.407.334-1.345.425" transform="translate(-144.064 -170.338)" fill="#263238"/>
            <path id="Trazado_810834" data-name="Trazado 810834" d="M356.8,268.221c.014.713,2.955,99.127,2.955,99.127h15.725l3.186-84.186s3.719,44.017,3.719,44.968,3.282,39.692,3.282,39.692l14.579-1.118-.956-88.635-1.781-13Z" transform="translate(-140.94 -104.708)" fill="#263238"/>
            <path id="Trazado_810835" data-name="Trazado 810835" d="M393.627,282.916a3.01,3.01,0,0,1-.638.252c-.417.143-1.025.342-1.776.58l-.143.045-.01-.139c-.087-1.184-.186-2.767-.278-4.5-.1-1.881-.174-3.585-.211-4.818-.019-.617-.028-1.116-.028-1.462a1.782,1.782,0,0,1,.032-.538,1.8,1.8,0,0,1,.089.532c.037.344.08.842.127,1.457.094,1.232.2,2.934.3,4.814.092,1.736.162,3.32.2,4.506l-.153-.094c.76-.214,1.378-.382,1.808-.493a3.107,3.107,0,0,1,.679-.142" transform="translate(-154.271 -107.577)" fill="#455a64"/>
            <path id="Trazado_810836" data-name="Trazado 810836" d="M393.208,272.733c-.01-.013.051-.079.209-.129a1.024,1.024,0,0,1,.695.057.815.815,0,0,1,.526.809,1.016,1.016,0,0,1-.837.871,1.176,1.176,0,0,1-1.159-.494.834.834,0,0,1,.013-.935,1.033,1.033,0,0,1,.52-.409c.154-.051.247-.043.25-.027.024.041-.354.113-.575.527a.663.663,0,0,0,.037.711.907.907,0,0,0,.853.353.771.771,0,0,0,.612-.623.606.606,0,0,0-.347-.612,1.309,1.309,0,0,0-.8-.1" transform="translate(-155.046 -107.628)" fill="#455a64"/>
            <path id="Trazado_810837" data-name="Trazado 810837" d="M405.4,273.313c-.085.008-.2-.419-.266-.953s-.042-.973.044-.981.2.419.266.953.042.973-.044.981" transform="translate(-160.021 -107.199)" fill="#455a64"/>
            <path id="Trazado_810838" data-name="Trazado 810838" d="M407.3,273.087c-.086,0-.158-.454-.161-1.015s.064-1.016.15-1.016.158.454.161,1.015-.064,1.016-.15,1.016" transform="translate(-160.825 -107.071)" fill="#455a64"/>
            <path id="Trazado_810839" data-name="Trazado 810839" d="M375.841,274.024c-.085.008-.218-.5-.3-1.142s-.073-1.165.013-1.172.218.5.3,1.142.073,1.164-.013,1.172" transform="translate(-148.324 -107.329)" fill="#455a64"/>
            <path id="Trazado_810840" data-name="Trazado 810840" d="M378,274.112a1.721,1.721,0,0,1-.384-1.2,1.693,1.693,0,0,1,.273-1.221c.088.019,0,.554.037,1.209s.159,1.184.073,1.209" transform="translate(-149.164 -107.323)" fill="#455a64"/>
            <path id="Trazado_810841" data-name="Trazado 810841" d="M365.5,273.518a1.322,1.322,0,0,1-.053.434,8.1,8.1,0,0,1-.316,1.154,11.971,11.971,0,0,1-1.947,3.507,13.317,13.317,0,0,1-3.071,2.794,10.043,10.043,0,0,1-1.117.645,1.777,1.777,0,0,1-.441.186c-.025-.038.57-.353,1.437-.972a15.038,15.038,0,0,0,2.964-2.8,13.689,13.689,0,0,0,1.987-3.418c.37-.935.508-1.541.557-1.532" transform="translate(-141.634 -108.044)" fill="#455a64"/>
            <path id="Trazado_810842" data-name="Trazado 810842" d="M420.365,280.611a1.616,1.616,0,0,1-.477.07,7.891,7.891,0,0,1-1.316-.023,8.986,8.986,0,0,1-4.028-1.4,7.66,7.66,0,0,1-2.684-3.027,5.884,5.884,0,0,1-.411-1.117,1.169,1.169,0,0,1-.065-.428c.05-.012.184.592.657,1.471a8.152,8.152,0,0,0,2.67,2.9,9.471,9.471,0,0,0,3.887,1.427c1.08.145,1.765.082,1.768.128" transform="translate(-162.501 -108.505)" fill="#455a64"/>
            <path id="Trazado_810843" data-name="Trazado 810843" d="M376.335,365.053c-.02.067-2.626-.5-5.821-1.258s-5.769-1.433-5.749-1.5,2.626.5,5.821,1.258,5.769,1.433,5.749,1.5" transform="translate(-144.088 -143.11)" fill="#455a64"/>
            <path id="Trazado_810844" data-name="Trazado 810844" d="M419.065,360.935c.038.06-2.231,1.245-5.065,2.646s-5.164,2.488-5.2,2.427,2.23-1.244,5.065-2.646,5.164-2.488,5.2-2.427" transform="translate(-161.482 -142.574)" fill="#455a64"/>
            <path id="Trazado_810845" data-name="Trazado 810845" d="M338.945,213.369l2.15,2.688v-4.625h6.773s.752,10.591.591,12.849a18.3,18.3,0,0,1-.829,3.455,3.976,3.976,0,0,1-6.565,1.644,22.856,22.856,0,0,1-2.12-2.357c-3.01-3.871-8.011-13.3-8.011-13.3l5.216-3.151Z" transform="translate(-130.724 -83.18)" fill="#ffc09d"/>
            <path id="Trazado_810846" data-name="Trazado 810846" d="M343.467,214.372a7.668,7.668,0,0,0,.885,1.182c.57.708,1.362,1.684,2.267,2.74s1.759,1.984,2.423,2.615a4.873,4.873,0,0,0,1.151.932,11.273,11.273,0,0,0-.99-1.09c-.616-.664-1.438-1.612-2.342-2.664a33.3,33.3,0,0,0-3.394-3.714" transform="translate(-135.674 -84.679)" fill="#ff9b6c"/>
            <path id="Trazado_810847" data-name="Trazado 810847" d="M369.717,159.081l7.143-2.8,13.158-.745,6.184,2.352-8.475,4.706-7.307-.269Z" transform="translate(-146.044 -61.439)" fill="#ffc09d"/>
            <path id="Trazado_810848" data-name="Trazado 810848" d="M350.96,226.3c.646.111,43.758,1.943,43.758,1.943L393.2,189.476l-.124-7.611-2.449-23.057s-6.444-2.216-9.732-3.274c0,0-3.46,3.607-10.04,3.51-6.432-.1-7.776-1.546-7.776-1.546l-8.993,3.448s-6.395,2.293-7.5,5.122c-1.071,2.754-3.033,18.483-3.033,18.483h9.322l-.177,27.787Z" transform="translate(-135.712 -61.439)" fill="#1969d5"/>
            <g id="Grupo_1068016" data-name="Grupo 1068016" transform="translate(242.354 112.638)" opacity="0.2">
              <g id="Grupo_1068015" data-name="Grupo 1068015">
                <g id="Grupo_1068014" data-name="Grupo 1068014" clip-path="url(#clip-path-11)">
                  <path id="Trazado_810849" data-name="Trazado 810849" d="M400.6,186.669l1.337,9.772,6.467,2.888,4.781-4.074v-9.072Z" transform="translate(-400.596 -186.183)"/>
                </g>
              </g>
            </g>
            <path id="Trazado_810850" data-name="Trazado 810850" d="M413.277,191.472c0,.081-2.688.147-6,.147s-6-.066-6-.147,2.687-.147,6-.147,6,.066,6,.147" transform="translate(-158.509 -75.577)" fill="#263238"/>
            <path id="Trazado_810851" data-name="Trazado 810851" d="M350.988,179.622a1.243,1.243,0,0,1,.069.257l.172.749a24.738,24.738,0,0,0,.858,2.75c.43,1.158,1.036,2.516,1.778,4.042.7,1.555,1.337,3.344,2,5.283l.007.02v.022c-.015,2.322-.032,4.864-.05,7.519-.062,5.928-.119,11.293-.16,15.209-.034,1.924-.061,3.491-.081,4.608q-.023.785-.036,1.252a2.536,2.536,0,0,1-.032.436,2.637,2.637,0,0,1-.025-.438q-.005-.468-.016-1.254c0-1.117,0-2.685-.008-4.61.02-3.916.048-9.28.079-15.207.024-2.655.047-5.2.068-7.517l.007.042c-.651-1.934-1.275-3.73-1.953-5.272a43.356,43.356,0,0,1-1.728-4.079,21.032,21.032,0,0,1-.791-2.787c-.064-.331-.11-.586-.132-.76a1.26,1.26,0,0,1-.025-.265" transform="translate(-138.645 -70.954)" fill="#263238"/>
            <path id="Trazado_810852" data-name="Trazado 810852" d="M425.912,172.126a4.962,4.962,0,0,1-.008.828c-.022.582-.05,1.339-.084,2.25-.077,1.95-.18,4.551-.293,7.425-.13,2.875-.248,5.476-.336,7.425-.053.911-.1,1.667-.129,2.249a4.728,4.728,0,0,1-.085.823,4.691,4.691,0,0,1-.024-.828c.01-.583.024-1.34.041-2.252.047-1.9.134-4.528.254-7.429s.252-5.525.375-7.424c.062-.949.122-1.717.173-2.247a4.508,4.508,0,0,1,.117-.82" transform="translate(-167.863 -67.993)" fill="#263238"/>
            <g id="Grupo_1068019" data-name="Grupo 1068019" transform="translate(212.349 110.077)" opacity="0.3">
              <g id="Grupo_1068018" data-name="Grupo 1068018">
                <g id="Grupo_1068017" data-name="Grupo 1068017" clip-path="url(#clip-path-12)">
                  <path id="Trazado_810853" data-name="Trazado 810853" d="M351.017,181.95A16.2,16.2,0,0,0,355.25,193.5c-.877-4-3.067-7.721-4.233-11.549" transform="translate(-350.999 -181.95)"/>
                </g>
              </g>
            </g>
            <g id="Grupo_1068022" data-name="Grupo 1068022" transform="translate(231.302 132.632)" opacity="0.3">
              <g id="Grupo_1068021" data-name="Grupo 1068021">
                <g id="Grupo_1068020" data-name="Grupo 1068020" clip-path="url(#clip-path-13)">
                  <path id="Trazado_810854" data-name="Trazado 810854" d="M382.328,235.053a8.069,8.069,0,0,0,5.174-2.879,24.479,24.479,0,0,0,3.475-5.031,19.833,19.833,0,0,0,2.038-7.911,37.3,37.3,0,0,1-10.686,15.821" transform="translate(-382.328 -219.233)"/>
                </g>
              </g>
            </g>
            <path id="Trazado_810855" data-name="Trazado 810855" d="M392.571,214.379a.828.828,0,0,1-.036.248c-.042.192-.094.423-.155.7-.065.3-.159.674-.29,1.1s-.26.911-.453,1.433a33.373,33.373,0,0,1-1.488,3.621,38.286,38.286,0,0,1-2.372,4.167,37.4,37.4,0,0,1-2.924,3.8,31.291,31.291,0,0,1-2.779,2.758c-.41.378-.812.684-1.158.96s-.65.505-.909.679l-.592.4a.854.854,0,0,1-.218.125c-.005-.008.059-.067.185-.171l.56-.445c.248-.186.544-.422.876-.713s.725-.6,1.125-.985a34.763,34.763,0,0,0,2.718-2.781,40.278,40.278,0,0,0,2.885-3.786,41.214,41.214,0,0,0,2.373-4.125,37.182,37.182,0,0,0,1.532-3.574c.2-.515.351-1,.49-1.413s.253-.78.335-1.079l.206-.685a.856.856,0,0,1,.09-.235" transform="translate(-149.789 -84.683)" fill="#263238"/>
            <path id="Trazado_810856" data-name="Trazado 810856" d="M386.193,194.326a2.083,2.083,0,0,1-.05.4l-.2,1.125c-.083.49-.2,1.087-.374,1.77s-.334,1.472-.6,2.32l-.4,1.337c-.14.465-.32.937-.488,1.431-.324.995-.759,2.023-1.2,3.113a51.757,51.757,0,0,1-7.955,13c-.771.888-1.489,1.743-2.227,2.484-.364.374-.7.75-1.052,1.085l-1.012.96c-.633.624-1.259,1.129-1.791,1.592s-1.008.841-1.406,1.138l-.912.688a2.177,2.177,0,0,1-.33.225,2.175,2.175,0,0,1,.3-.27l.878-.729c.387-.309.854-.695,1.372-1.171s1.136-.986,1.757-1.617l.995-.969c.345-.339.678-.716,1.036-1.092.727-.745,1.436-1.6,2.2-2.49a53.641,53.641,0,0,0,7.917-12.936c.443-1.082.884-2.1,1.217-3.088.172-.491.356-.959.5-1.419l.41-1.327c.28-.841.456-1.623.64-2.3s.319-1.269.419-1.754l.249-1.114a2.1,2.1,0,0,1,.106-.385" transform="translate(-144.656 -76.762)" fill="#263238"/>
            <path id="Trazado_810857" data-name="Trazado 810857" d="M328.478,172.8c2.658,4.039,13.417,20.4,16.6,25.237a.747.747,0,0,1-.721,1.151l-19.114-2.4a.748.748,0,0,1-.51-.3l-18.257-24.936a.748.748,0,0,1,.659-1.188l19.667,1.455a2.2,2.2,0,0,1,1.678.985" transform="translate(-121.005 -67.294)" fill="#e0e0e0"/>
            <path id="Trazado_810858" data-name="Trazado 810858" d="M328.394,172.717a1.289,1.289,0,0,0-.152-.229,2.139,2.139,0,0,0-.618-.521,2.685,2.685,0,0,0-1.273-.309l-1.779-.146-11.337-.889-3.758-.289-2-.152c-.177-.01-.326-.033-.528-.033a.851.851,0,0,0-.55.229.878.878,0,0,0-.145,1.123l5.315,7.289,12.191,16.671c.278.374.525.727.825,1.116a.9.9,0,0,0,.339.23,1.491,1.491,0,0,0,.371.073l.675.085,2.674.336,5.229.656,9.885,1.234c.205.022.375.054.607.067a.875.875,0,0,0,.633-.264.9.9,0,0,0,.262-.628,1.055,1.055,0,0,0-.23-.613l-1.261-1.909-2.411-3.652-4.332-6.551-6.291-9.473-1.724-2.566-.455-.663a1.715,1.715,0,0,0-.164-.22,1.707,1.707,0,0,0,.137.238l.429.681,1.674,2.6,6.206,9.529,4.3,6.572,2.4,3.66,1.254,1.914a.751.751,0,0,1,.181.454.616.616,0,0,1-.179.425.585.585,0,0,1-.425.176c-.162-.009-.382-.045-.572-.067l-9.883-1.252-5.228-.66-2.674-.337-.675-.085a1.256,1.256,0,0,1-.3-.054.6.6,0,0,1-.221-.149l-.8-1.088-12.212-16.656-5.329-7.259a.614.614,0,0,1,.1-.788.589.589,0,0,1,.385-.162c.142,0,.334.021.5.03l2,.143,3.759.268,11.345.788,1.781.117a2.659,2.659,0,0,1,1.249.271,2.534,2.534,0,0,1,.8.694" transform="translate(-120.92 -67.211)" fill="#263238"/>
            <path id="Trazado_810859" data-name="Trazado 810859" d="M306.569,172.321a2.219,2.219,0,0,0,.4.06l1.16.117,4.32.384,14.689,1.2-.117-.068c.919,1.366,1.868,2.784,2.82,4.249,3.876,5.958,7.262,11.436,9.82,15.332,1.272,1.953,2.329,3.516,3.064,4.591l.863,1.228a3.205,3.205,0,0,0,.319.416,3.262,3.262,0,0,0-.266-.451l-.812-1.261-2.978-4.644c-2.508-3.926-5.862-9.42-9.742-15.384-.953-1.466-1.9-2.886-2.828-4.251l-.042-.062-.075-.005-14.7-1.091-4.327-.29-1.164-.064a2.174,2.174,0,0,0-.405,0" transform="translate(-121.1 -68.067)" fill="#263238"/>
            <path id="Trazado_810860" data-name="Trazado 810860" d="M326.153,178.217h0l-.008,0Z" transform="translate(-128.833 -70.398)" fill="#fff"/>
            <path id="Trazado_810861" data-name="Trazado 810861" d="M325.37,178.5a.385.385,0,0,1,.472-.285,1.021,1.021,0,0,1,.513.288.511.511,0,0,1,.093.655c-.191.236-.583.149-.813-.049a.669.669,0,0,1-.266-.609" transform="translate(-128.523 -70.394)" fill="#fff"/>
            <path id="Trazado_810862" data-name="Trazado 810862" d="M332.77,200.677s.754-1.8-1.16-2.03a66.209,66.209,0,0,0-6.94,0s-2.748.29-2.168,2.263c0,0-1.624,1.45-.754,3.016s1.218,1.1,1.218,1.1-.232,1.914,1.218,2.2c0,0,1.572,1.856,3.02,1.741s7.6-3.075,8-3.655.987-.91.638-1.557c0,0,.754-1.7-.87-1.955,0,0-.116-1.418-2.2-1.128" transform="translate(-126.994 -78.428)" fill="#ffc09d"/>
            <path id="Trazado_810863" data-name="Trazado 810863" d="M325.716,202.631a5.247,5.247,0,0,0,1.293.093c.8.017,1.9.018,3.119,0a18.5,18.5,0,0,0,3.133-.186c.826-.191,1.149-.676,1.111-.686a3.292,3.292,0,0,1-1.157.466c-.76.127-1.875.049-3.091.088-1.218.018-2.32.053-3.117.094a5.256,5.256,0,0,0-1.29.133" transform="translate(-128.663 -79.733)" fill="#ff9b6c"/>
            <path id="Trazado_810864" data-name="Trazado 810864" d="M327.982,206.014a.964.964,0,0,0,.416.143,4.444,4.444,0,0,0,1.2.074,8.453,8.453,0,0,0,1.745-.316c.642-.177,1.325-.424,2.046-.646a9.142,9.142,0,0,1,2.059-.425,3.164,3.164,0,0,0,1.754-.355,1,1,0,0,0,.419-.6.828.828,0,0,0-.073-.543c-.151-.277-.357-.293-.351-.277-.016.025.148.083.238.327a.749.749,0,0,1-.359.9,3.144,3.144,0,0,1-1.643.248,8.563,8.563,0,0,0-2.136.413l-2.035.668a9.685,9.685,0,0,1-1.682.374,10.951,10.951,0,0,1-1.592.007" transform="translate(-129.558 -80.216)" fill="#ff9b6c"/>
            <path id="Trazado_810865" data-name="Trazado 810865" d="M331.38,210.171a5.159,5.159,0,0,0,1.292-.25c.786-.2,1.863-.506,3.039-.891s2.226-.774,2.978-1.079a5.2,5.2,0,0,0,1.189-.562c-.033-.085-1.922.573-4.266,1.338s-4.255,1.356-4.232,1.443" transform="translate(-130.9 -81.919)" fill="#ff9b6c"/>
            <path id="Trazado_810866" data-name="Trazado 810866" d="M330.565,213.987a2.823,2.823,0,0,0,1.071-.123,12.832,12.832,0,0,0,2.45-.862c.922-.419,1.726-.848,2.309-1.157a3.878,3.878,0,0,0,.918-.555,20.135,20.135,0,0,0-3.358,1.422c-1.81.868-3.4,1.193-3.39,1.276" transform="translate(-130.579 -83.459)" fill="#ff9b6c"/>
            <path id="Trazado_810867" data-name="Trazado 810867" d="M411.584,180.071s-3.908,15.658-8.792,21.438c-4.729,5.6-12.141,3.024-14.707-4.217s-7.139-23.783-7.139-23.783l5.616-4.294,9.7,18.8,4.373-12.819Z" transform="translate(-150.48 -66.843)" fill="#ffc09d"/>
            <path id="Trazado_810868" data-name="Trazado 810868" d="M376.584,164.788l-4.118-5.969a10.75,10.75,0,0,1-1.754-.544c-.467-.273-.926-2.644-.917-3.107s-.8-1.545-.471-1.849,1.431-.327,1.372-.772c-.013-.095-.819-1.084-.18-1.81a3.411,3.411,0,0,1,1.161-.493l-.067-2.278s1.231-2.689,2.487-1.716c0,0,4.74,3.641,5.217,4.223s2.3,8.164,2.625,9.587" transform="translate(-145.858 -57.687)" fill="#ffc09d"/>
            <path id="Trazado_810869" data-name="Trazado 810869" d="M381.85,159.972a2.109,2.109,0,0,0-.064-.4c-.062-.288-.142-.667-.244-1.14-.221-.989-.553-2.418-1-4.179-.227-.88-.477-1.844-.793-2.871-.083-.256-.165-.517-.274-.78a1.754,1.754,0,0,0-.559-.687c-.431-.38-.886-.753-1.355-1.133-.938-.759-1.934-1.543-2.972-2.35a3.467,3.467,0,0,0-.868-.572,1.19,1.19,0,0,0-1.069.254,4.881,4.881,0,0,0-1.263,1.706l-.015.028v.036c.006.22.013.458.02.7.016.533.031,1.061.047,1.581l.111-.146a5.551,5.551,0,0,0-.835.281,1.215,1.215,0,0,0-.4.264,1.14,1.14,0,0,0-.229.421,1.414,1.414,0,0,0,.072.906,2.682,2.682,0,0,0,.186.391l.1.179.021.038c-.005-.007,0-.024,0-.008a.063.063,0,0,1-.007.039c-.012.051-.123.122-.234.166s-.241.085-.368.125-.258.077-.39.129a.765.765,0,0,0-.4.277.651.651,0,0,0-.01.485,2.993,2.993,0,0,0,.139.382c.1.241.218.469.3.7a.967.967,0,0,1,.072.319,3.192,3.192,0,0,0,.037.389c.036.249.082.491.131.73a9.694,9.694,0,0,0,.387,1.376,1.746,1.746,0,0,0,.362.635,2.113,2.113,0,0,0,.642.282c.417.13.823.232,1.219.324l-.066-.045,3.05,4.335.846,1.174a3.058,3.058,0,0,0,.313.4,3.023,3.023,0,0,0-.261-.434l-.8-1.208-2.97-4.39-.023-.034-.043-.011c-.388-.095-.793-.2-1.2-.332a2.078,2.078,0,0,1-.555-.24,1.607,1.607,0,0,1-.289-.541,9.507,9.507,0,0,1-.364-1.341c-.047-.234-.09-.472-.123-.712a3.234,3.234,0,0,1-.032-.353,1.227,1.227,0,0,0-.085-.412c-.092-.248-.206-.477-.3-.71a2.71,2.71,0,0,1-.125-.347.423.423,0,0,1-.013-.28.616.616,0,0,1,.253-.151c.115-.045.241-.081.369-.12s.26-.077.4-.132a.663.663,0,0,0,.389-.32.344.344,0,0,0,.027-.16.224.224,0,0,0-.027-.106l-.028-.051-.1-.175a2.465,2.465,0,0,1-.167-.353,1.127,1.127,0,0,1-.063-.724.849.849,0,0,1,.171-.312,1,1,0,0,1,.3-.189,5.239,5.239,0,0,1,.786-.263l.114-.03,0-.116c-.015-.52-.03-1.048-.045-1.581-.007-.239-.014-.477-.021-.7l-.013.065a4.646,4.646,0,0,1,1.171-1.6.9.9,0,0,1,.812-.211,3.427,3.427,0,0,1,.777.523c1.04.8,2.039,1.58,2.979,2.332.47.376.926.745,1.354,1.116a1.52,1.52,0,0,1,.5.594c.1.246.188.505.273.756.323,1.015.585,1.975.824,2.85.456,1.733.826,3.143,1.091,4.153l.3,1.127a2.2,2.2,0,0,0,.12.389" transform="translate(-145.768 -57.599)" fill="#ff9b6c"/>
            <path id="Trazado_810870" data-name="Trazado 810870" d="M373.265,152.909c0,.05.481.012,1.229.084a8.814,8.814,0,0,1,1.3.3,5.968,5.968,0,0,0,1.676.014,3.164,3.164,0,0,1,2.64.857,3.4,3.4,0,0,1,.637,1.013,1.564,1.564,0,0,0-.486-1.154,3.073,3.073,0,0,0-1.134-.8,3.451,3.451,0,0,0-1.678-.211,6.431,6.431,0,0,1-1.6.013,7.107,7.107,0,0,0-1.333-.238,3.259,3.259,0,0,0-1.244.122" transform="translate(-147.446 -60.352)" fill="#ff9b6c"/>
            <path id="Trazado_810871" data-name="Trazado 810871" d="M375.969,151.974c.07.036.261-.241.236-.635s-.246-.646-.31-.6,0,.3.019.62-.022.586.055.618" transform="translate(-148.473 -59.542)" fill="#ff9b6c"/>
            <path id="Trazado_810872" data-name="Trazado 810872" d="M371.4,156.454a10.35,10.35,0,0,0,3.57-.28,3.537,3.537,0,0,1,1.312-.166,1.425,1.425,0,0,1,.85.561,8.476,8.476,0,0,1,.469.906,1.594,1.594,0,0,0-.3-1.024,1.572,1.572,0,0,0-.966-.707,3.435,3.435,0,0,0-1.428.145c-1.913.417-3.511.479-3.508.565" transform="translate(-146.709 -61.507)" fill="#ff9b6c"/>
            <path id="Trazado_810873" data-name="Trazado 810873" d="M370.359,159.985a1.919,1.919,0,0,0,.878,0c.539-.06,1.263-.246,2.052-.4a4.643,4.643,0,0,1,1.1-.111,1.329,1.329,0,0,1,.8.288,1.268,1.268,0,0,1,.388.7c.016,0,.057-.079.049-.241a1,1,0,0,0-.3-.606,1.454,1.454,0,0,0-.914-.4,4.206,4.206,0,0,0-1.182.091c-.812.16-1.516.374-2.034.485a4.229,4.229,0,0,0-.842.2" transform="translate(-146.298 -62.885)" fill="#ff9b6c"/>
            <path id="Trazado_810874" data-name="Trazado 810874" d="M372.69,163.318c-.05.037.352.459,1.091.457l-.146-.126c.014.129.029.253.044.381a4.147,4.147,0,0,0,.338,1.5A4.168,4.168,0,0,0,373.97,164c-.018-.126-.035-.249-.053-.378l-.019-.134-.128.007a4.976,4.976,0,0,1-1.081-.174" transform="translate(-147.217 -64.509)" fill="#ff9b6c"/>
            <path id="Trazado_810875" data-name="Trazado 810875" d="M415.366,160.947s8.005,1.94,7.988,12.555c-.017,10.574-2.418,15.859-2.418,15.859l-14.757-8.031,3.293-8.266Z" transform="translate(-160.448 -63.577)" fill="#1969d5"/>
            <path id="Trazado_810876" data-name="Trazado 810876" d="M420.811,190.814a1.419,1.419,0,0,1-.307-.134l-.856-.435-3.145-1.658-10.522-5.669-.12-.064.048-.126c.254-.661.521-1.361.792-2.069.944-2.45,1.841-4.782,2.66-6.909.412-1.059.8-2.067,1.169-3.012a18.236,18.236,0,0,1,1.168-2.577,8,8,0,0,1,2.663-3.081,3.235,3.235,0,0,1,1.038-.416,1.967,1.967,0,0,1,.289-.037c.065,0,.1,0,.1,0a3.937,3.937,0,0,0-1.361.553,8.152,8.152,0,0,0-2.534,3.084,18.563,18.563,0,0,0-1.119,2.561c-.359.949-.741,1.959-1.142,3.022l-2.637,6.917c-.271.708-.54,1.407-.794,2.068l-.071-.189,10.474,5.758,3.1,1.741.83.483a1.508,1.508,0,0,1,.28.185" transform="translate(-160.322 -65.03)" fill="#263238"/>
          </g>
        </g>
      </g>
    </g>
  </g>
</svg>
