<svg xmlns="http://www.w3.org/2000/svg" width="67.217" height="67.222" viewBox="0 0 67.217 67.222">
  <g id="lupa" transform="translate(-0.019 0)">
    <path id="Trazado_812069" data-name="Trazado 812069" d="M315.9,315.884a1.9,1.9,0,0,1-2.757,0l-5.4-5.356a1.977,1.977,0,1,1,2.8-2.8l5.356,5.4A1.9,1.9,0,0,1,315.9,315.884Z" transform="translate(-266.816 -266.815)" fill="#08469c"/>
    <path id="Trazado_812070" data-name="Trazado 812070" d="M315.9,319.793a1.9,1.9,0,0,1-2.757,0l-5.4-5.356a1.949,1.949,0,0,1,0-2.8Z" transform="translate(-266.816 -270.725)" fill="#1969d5"/>
    <path id="Trazado_812071" data-name="Trazado 812071" d="M349.508,341.144,335.9,327.53a1.949,1.949,0,0,0-2.8,0l-2.757,2.8-2.8,2.757a1.95,1.95,0,0,0,0,2.8l13.609,13.614a5.9,5.9,0,1,0,8.349-8.349Z" transform="translate(-284.014 -284.014)" fill="#0a4eaf"/>
    <path id="Trazado_812072" data-name="Trazado 812072" d="M349.507,371.906a5.872,5.872,0,0,1-8.35,0l-13.609-13.614a1.95,1.95,0,0,1,0-2.8l2.8-2.757Z" transform="translate(-284.013 -306.427)" fill="#1969d5"/>
    <path id="Trazado_812073" data-name="Trazado 812073" d="M43.692,7.518a25.566,25.566,0,1,0,0,36.155A25.5,25.5,0,0,0,43.692,7.518Z" transform="translate(0 0)" fill="#1969d5"/>
    <path id="Trazado_812074" data-name="Trazado 812074" d="M43.692,93.413A25.566,25.566,0,0,1,7.537,57.258Z" transform="translate(0 -49.74)" fill="#136ef1"/>
    <path id="Trazado_812075" data-name="Trazado 812075" d="M51.642,29.961A21.667,21.667,0,1,0,73.3,51.623,21.711,21.711,0,0,0,51.642,29.961Z" transform="translate(-26.027 -26.027)" fill="#f6f6f6"/>
    <path id="Trazado_812076" data-name="Trazado 812076" d="M29.98,93.579A21.667,21.667,0,0,0,66.962,108.9L36.321,78.258A21.71,21.71,0,0,0,29.98,93.579Z" transform="translate(-26.027 -67.983)" fill="#b7e0f6" opacity="0.46"/>
  </g>
</svg>
