<svg xmlns="http://www.w3.org/2000/svg" width="83.081" height="83.081" viewBox="0 0 83.081 83.081">
  <g id="configuraciones_2_" data-name="configuraciones (2)" transform="translate(-15.124 -15.124)">
    <path id="Trazado_812077" data-name="Trazado 812077" d="M139.9,92h-.192a6.229,6.229,0,0,1-4.425-10.72,3.179,3.179,0,0,0-.025-4.471l-8.991-8.991a3.45,3.45,0,0,0-4.632.134,5.955,5.955,0,0,1-6.681,1.295,6.493,6.493,0,0,1-3.878-6.07A3.177,3.177,0,0,0,107.9,60H95.182A3.548,3.548,0,0,0,92,63.584a5.957,5.957,0,0,1-3.812,5.638A6.222,6.222,0,0,1,81.283,67.8a3.176,3.176,0,0,0-4.471.025l-8.991,8.991a3.348,3.348,0,0,0,.134,4.632,5.962,5.962,0,0,1,1.3,6.678A6.5,6.5,0,0,1,63.179,92,3.177,3.177,0,0,0,60,95.182V107.9a3.347,3.347,0,0,0,3.372,3.179A6.23,6.23,0,0,1,67.8,121.8a3.179,3.179,0,0,0,.025,4.471l8.991,8.991a3.45,3.45,0,0,0,4.632-.134,5.933,5.933,0,0,1,6.681-1.295A6.494,6.494,0,0,1,92,139.9a3.177,3.177,0,0,0,3.179,3.179H107.9a3.347,3.347,0,0,0,3.179-3.372,6.23,6.23,0,0,1,10.72-4.425,3.176,3.176,0,0,0,4.471-.025l8.991-8.991a3.348,3.348,0,0,0-.134-4.632,6.069,6.069,0,0,1-1.3-6.672,6.538,6.538,0,0,1,6.08-3.887,3.177,3.177,0,0,0,3.179-3.179V95.182A3.177,3.177,0,0,0,139.9,92Zm-38.361,28.612a19.075,19.075,0,1,1,19.075-19.075A19.075,19.075,0,0,1,101.541,120.615Z" transform="translate(-44.876 -44.876)" fill="#d9e9f1"/>
    <path id="Trazado_812078" data-name="Trazado 812078" d="M265.537,139.71a6.23,6.23,0,0,1,10.72-4.425,3.176,3.176,0,0,0,4.471-.025l8.991-8.991a3.348,3.348,0,0,0-.134-4.632,6.069,6.069,0,0,1-1.3-6.672,6.538,6.538,0,0,1,6.08-3.887,3.177,3.177,0,0,0,3.179-3.179V95.182A3.177,3.177,0,0,0,294.361,92h-.192a6.229,6.229,0,0,1-4.425-10.72,3.179,3.179,0,0,0-.025-4.471l-8.991-8.991a3.45,3.45,0,0,0-4.632.134,5.955,5.955,0,0,1-6.681,1.295,6.493,6.493,0,0,1-3.878-6.07A3.177,3.177,0,0,0,262.358,60H256V82.466a19.075,19.075,0,0,1,0,38.149v22.466h6.358A3.347,3.347,0,0,0,265.537,139.71Z" transform="translate(-199.335 -44.876)" fill="#59bee2" opacity="0.55"/>
    <path id="Trazado_812079" data-name="Trazado 812079" d="M173.254,151a22.254,22.254,0,1,0,22.254,22.254A22.281,22.281,0,0,0,173.254,151Zm0,38.149a15.9,15.9,0,1,1,15.9-15.9A15.914,15.914,0,0,1,173.254,189.149Z" transform="translate(-116.589 -116.589)" fill="#59bee2"/>
    <path id="Trazado_812080" data-name="Trazado 812080" d="M278.254,173.254A22.281,22.281,0,0,0,256,151v6.358a15.9,15.9,0,0,1,0,31.791v6.358A22.281,22.281,0,0,0,278.254,173.254Z" transform="translate(-199.335 -116.589)" fill="#1969d5"/>
  </g>
</svg>
