<svg xmlns="http://www.w3.org/2000/svg" width="101.948" height="103.267" viewBox="0 0 101.948 103.267">
  <g id="bombilla" transform="translate(-3.213)">
    <path id="Trazado_812081" data-name="Trazado 812081" d="M221.915,460.583V463.2a6.271,6.271,0,0,1-.037.683,6.158,6.158,0,0,1-6.118,5.472h-9.438a6.158,6.158,0,0,1-6.118-5.472,6.264,6.264,0,0,1-.037-.683v-2.616a6.533,6.533,0,0,0,2.667.564h16.413A6.533,6.533,0,0,0,221.915,460.583Z" transform="translate(-156.546 -366.087)" fill="#12263f"/>
    <g id="Grupo_1068305" data-name="Grupo 1068305" transform="translate(3.213 0)">
      <path id="Trazado_812082" data-name="Trazado 812082" d="M245.706,13.451a1.538,1.538,0,0,1-1.539-1.539V1.539a1.539,1.539,0,1,1,3.077,0V11.913A1.539,1.539,0,0,1,245.706,13.451Z" transform="translate(-194.732 0)" fill="#ffe607"/>
      <path id="Trazado_812083" data-name="Trazado 812083" d="M82.661,80.987a1.535,1.535,0,0,1-1.088-.451L74.237,73.2a1.539,1.539,0,1,1,2.176-2.176l7.335,7.336a1.539,1.539,0,0,1-1.088,2.627Z" transform="translate(-59.307 -56.095)" fill="#ffe607"/>
      <path id="Trazado_812084" data-name="Trazado 812084" d="M15.126,244.031H4.752a1.539,1.539,0,0,1,0-3.078H15.126a1.539,1.539,0,0,1,0,3.078Z" transform="translate(-3.213 -191.518)" fill="#ffe607"/>
      <path id="Trazado_812085" data-name="Trazado 812085" d="M75.325,385.993a1.539,1.539,0,0,1-1.088-2.627l7.335-7.335a1.539,1.539,0,1,1,2.176,2.176l-7.335,7.335A1.534,1.534,0,0,1,75.325,385.993Z" transform="translate(-59.307 -298.524)" fill="#ffe607"/>
      <path id="Trazado_812086" data-name="Trazado 812086" d="M387.666,385.993a1.535,1.535,0,0,1-1.088-.451l-7.335-7.335a1.539,1.539,0,0,1,2.176-2.176l7.335,7.335a1.539,1.539,0,0,1-1.088,2.627Z" transform="translate(-301.736 -298.524)" fill="#ffe607"/>
      <path id="Trazado_812087" data-name="Trazado 812087" d="M446.47,244.031H436.1a1.539,1.539,0,0,1,0-3.078H446.47a1.539,1.539,0,1,1,0,3.078Z" transform="translate(-346.06 -191.518)" fill="#ffe607"/>
      <path id="Trazado_812088" data-name="Trazado 812088" d="M380.33,80.987a1.539,1.539,0,0,1-1.088-2.627l7.335-7.336a1.539,1.539,0,0,1,2.176,2.176l-7.335,7.336A1.534,1.534,0,0,1,380.33,80.987Z" transform="translate(-301.736 -56.095)" fill="#ffe607"/>
    </g>
    <path id="Trazado_812089" data-name="Trazado 812089" d="M211.041,453.333s-10.059,1.851-10.874,1.487v2.616a6.268,6.268,0,0,0,.037.683,6.158,6.158,0,0,0,6.118,5.472h2.667a6.159,6.159,0,0,1-5.8-4.1.618.618,0,0,1,.579-.829h15.481a6.532,6.532,0,0,0,2.63-.548,6.272,6.272,0,0,0,.037-.683V454.82C221.1,455.184,211.041,453.333,211.041,453.333Z" transform="translate(-156.546 -360.325)" fill="#fff"/>
    <path id="Trazado_812090" data-name="Trazado 812090" d="M210.266,385.233A6.56,6.56,0,0,1,203.7,391.8H187.287a6.56,6.56,0,0,1-6.565-6.565s-.1-9.589-.115-9.84v-.008l14.887-2.052,14.717,2.052Z" transform="translate(-140.999 -296.738)" fill="#12263f"/>
    <path id="Trazado_812091" data-name="Trazado 812091" d="M190.775,399.746h-3.488a6.56,6.56,0,0,1-6.565-6.565s-.1-9.589-.115-9.84v-.008h3.488v.008c.018.25.115,9.84.115,9.84a6.56,6.56,0,0,0,6.565,6.565Z" transform="translate(-140.999 -304.686)" fill="#fff"/>
    <path id="Trazado_812092" data-name="Trazado 812092" d="M298.937,418.91h-5.232a1.539,1.539,0,0,1,0-3.077h5.215l.008,1.539Z" transform="translate(-229.671 -330.518)" fill="#fff"/>
    <path id="Trazado_812093" data-name="Trazado 812093" d="M199.694,417.372a1.539,1.539,0,0,1-1.539,1.539H181.022l-.035-3.077h17.168A1.539,1.539,0,0,1,199.694,417.372Z" transform="translate(-141.301 -330.518)" fill="#fff"/>
    <path id="Trazado_812094" data-name="Trazado 812094" d="M139.875,90.488h0c-15.845-.244-29.17,13.566-28.885,29.3a29.43,29.43,0,0,0,8.328,20.588c3.034,3.121,5.661,6.005,5.952,10.195l29.6.049c.166-4.313,2.618-7.226,5.673-10.416a29.426,29.426,0,0,0,8.161-20.416A29.079,29.079,0,0,0,139.875,90.488Z" transform="translate(-85.661 -71.92)" fill="#ffe607"/>
    <path id="Trazado_812095" data-name="Trazado 812095" d="M154.871,150.612v.006l-29.6-.049c-.291-4.189-2.917-7.074-5.952-10.195a29.43,29.43,0,0,1-8.328-20.588c-.285-15.73,13.04-29.54,28.885-29.3q.766,0,1.524.041c-14.967.868-27.195,14.179-26.922,29.255a29.43,29.43,0,0,0,8.328,20.588c3.034,3.121,5.661,6.005,5.952,10.195Z" transform="translate(-85.66 -71.923)" fill="#c8b829"/>
    <path id="Trazado_812096" data-name="Trazado 812096" d="M194.368,216.044a3.384,3.384,0,0,1-2.547,1.307l-.127,0a3.385,3.385,0,0,1-2.511-1.115L179.54,205.57a3.385,3.385,0,0,1,5.023-4.54L191.5,208.7l11.064-14.249a3.385,3.385,0,1,1,5.347,4.152Z" transform="translate(-139.456 -153.517)" fill="#fff"/>
  </g>
</svg>
