<svg xmlns="http://www.w3.org/2000/svg" xmlns:xlink="http://www.w3.org/1999/xlink" width="505.001" height="409.811" viewBox="0 0 505.001 409.811">
  <defs>
    <clipPath id="clip-path">
      <rect id="Rectángulo_375757" data-name="Rectángulo 375757" width="443" height="348" transform="translate(0.339 0.686)" fill="#fff" stroke="#707070" stroke-width="1"/>
    </clipPath>
    <clipPath id="clip-path-2">
      <rect id="Rectángulo_375756" data-name="Rectángulo 375756" width="411.732" height="389.618" fill="none"/>
    </clipPath>
    <clipPath id="clip-path-6">
      <rect id="Rectángulo_375750" data-name="Rectángulo 375750" width="272.105" height="352.513" fill="none"/>
    </clipPath>
    <clipPath id="clip-path-7">
      <rect id="Rectángulo_375751" data-name="Rectángulo 375751" width="209.62" height="130.696" fill="none"/>
    </clipPath>
    <clipPath id="clip-path-9">
      <rect id="Rectángulo_375753" data-name="Rectángulo 375753" width="32.841" height="9.693" fill="none"/>
    </clipPath>
  </defs>
  <g id="Grupo_1070094" data-name="Grupo 1070094" transform="translate(-940.912 -3260.112)">
    <path id="Unión_27" data-name="Unión 27" d="M41,299.992a41,41,0,0,1-41-41V77.773a41,41,0,0,1,41-41H464a41.456,41.456,0,0,1,4.608.256L505,0V77.5c0,.091,0,.181,0,.272v181.22a41,41,0,0,1-41,41Z" transform="translate(1445.913 3669.924) rotate(180)" fill="#f3f9ff"/>
    <g id="Enmascarar_grupo_1064407" data-name="Enmascarar grupo 1064407" transform="translate(971.573 3259.426)" clip-path="url(#clip-path)">
      <g id="Grupo_1067867" data-name="Grupo 1067867" transform="translate(-38.387 0.087)">
        <g id="Enmascarar_grupo_1067866" data-name="Enmascarar grupo 1067866" transform="translate(53.636)" clip-path="url(#clip-path-2)">
          <g id="Grupo_1067848" data-name="Grupo 1067848">
            <g id="Grupo_1067847" data-name="Grupo 1067847" clip-path="url(#clip-path-2)">
              <path id="Trazado_810431" data-name="Trazado 810431" d="M292.855,429.484c-15.533-8.343-20.7-26.084-21.806-42.367-.185-2.718-.792-5.545.306-8.05s4.067-4.428,6.716-3.527c2.2.747,3.354,3,4.729,4.824a16.526,16.526,0,0,0,7.257,5.436c1.892.724,4.176,1.059,5.854-.049,2.3-1.522,2.258-4.777,1.961-7.47q-.83-7.528-1.66-15.055a24.206,24.206,0,0,1,.018-8.083,8.456,8.456,0,0,1,4.894-6.173c2.6-.972,6.059.191,6.9,2.774a23.976,23.976,0,0,1,.427,3.347,2.872,2.872,0,0,0,2.007,2.5c1.154.209,2.2-.662,2.958-1.53,2.62-3,4.225-6.688,5.7-10.349s2.9-7.4,5.22-10.616,5.723-5.916,9.725-6.518,8.539,1.372,9.95,5.063-.5,7.776-2.7,11.09a61.225,61.225,0,0,1-11.826,13.18,5.009,5.009,0,0,0-1.952,2.46c-.425,1.855,1.536,3.469,3.448,3.883,2.165.47,4.416.045,6.633.083s4.688.739,5.723,2.646c1.437,2.645-.667,5.759-2.835,7.875a54.038,54.038,0,0,1-14.995,10.317c-1.993.922-4.1,1.765-5.626,3.316s-2.279,4.069-1.074,5.871,3.853,2.165,5.979,1.573,3.947-1.9,5.934-2.845c3.718-1.766,8.732-1.985,11.539.979a8.3,8.3,0,0,1,1.728,7.449,19.42,19.42,0,0,1-3.571,7.065,53.717,53.717,0,0,1-21.466,17.743c-8.652,3.832-16.871,5.429-26.1,3.155" transform="translate(-23.467 -40.914)" fill="#ebebeb"/>
              <path id="Trazado_810432" data-name="Trazado 810432" d="M298.587,419.16a234.44,234.44,0,0,1,7.3-26.944q1.16-3.53,2.292-6.969c.758-2.286,1.51-4.552,2.388-6.726a118.94,118.94,0,0,1,5.792-12.212c2.038-3.8,4.117-7.332,6.085-10.623s3.881-6.319,5.737-9.01a96.78,96.78,0,0,1,9.742-12.064c1.261-1.333,2.276-2.337,2.973-3.007l.8-.759a2.121,2.121,0,0,1,.284-.246,1.892,1.892,0,0,1-.247.282l-.76.793c-.672.694-1.662,1.718-2.9,3.068a102.33,102.33,0,0,0-9.584,12.13c-1.833,2.7-3.714,5.731-5.671,9.023s-4.013,6.833-6.035,10.628a120.041,120.041,0,0,0-5.741,12.176c-.87,2.162-1.613,4.41-2.371,6.7s-1.516,4.614-2.29,6.965a240.409,240.409,0,0,0-7.33,26.881" transform="translate(-25.884 -41.179)" fill="#e0e0e0"/>
              <path id="Trazado_810433" data-name="Trazado 810433" d="M311.187,381.139a5.343,5.343,0,0,1-.394-1.123c-.225-.73-.513-1.8-.85-3.12-.676-2.645-1.478-6.328-2.347-10.391s-1.724-7.728-2.439-10.355c-.354-1.315-.652-2.377-.868-3.107a5.243,5.243,0,0,1-.279-1.155,5.184,5.184,0,0,1,.47,1.1c.276.714.628,1.765,1.028,3.072.809,2.612,1.725,6.277,2.595,10.347.847,4.012,1.613,7.642,2.2,10.415.273,1.251.5,2.3.689,3.152a5.165,5.165,0,0,1,.2,1.171" transform="translate(-26.353 -43.831)" fill="#e0e0e0"/>
              <path id="Trazado_810434" data-name="Trazado 810434" d="M347.337,373.973a8.082,8.082,0,0,1-1.425.3c-.919.167-2.25.4-3.884.744-3.274.657-7.765,1.718-12.665,3.1s-9.277,2.822-12.413,3.948c-1.573.552-2.832,1.032-3.705,1.359a7.982,7.982,0,0,1-1.375.466,7.885,7.885,0,0,1,1.3-.647c.85-.382,2.092-.913,3.652-1.511,3.11-1.214,7.485-2.708,12.4-4.1s9.436-2.391,12.74-2.96c1.649-.3,2.994-.482,3.925-.588a8,8,0,0,1,1.455-.109" transform="translate(-27.035 -46.58)" fill="#e0e0e0"/>
              <path id="Trazado_810435" data-name="Trazado 810435" d="M296.84,424.935a1.8,1.8,0,0,1-.291-.4l-.748-1.194c-.645-1.04-1.537-2.568-2.613-4.47-2.154-3.8-4.958-9.144-7.97-15.079s-5.762-11.3-7.831-15.136c-1.012-1.866-1.845-3.4-2.464-4.542l-.664-1.24a1.768,1.768,0,0,1-.2-.449,1.844,1.844,0,0,1,.292.4l.747,1.193c.645,1.04,1.536,2.569,2.613,4.47,2.154,3.8,4.958,9.145,7.97,15.082s5.761,11.294,7.83,15.135c1.013,1.865,1.845,3.4,2.464,4.541.266.5.484.9.663,1.24a1.768,1.768,0,0,1,.2.449" transform="translate(-23.757 -47.635)" fill="#e0e0e0"/>
              <path id="Trazado_810436" data-name="Trazado 810436" d="M345.487,408.813a1.956,1.956,0,0,1-.457.234l-1.349.58-4.977,2.087c-4.2,1.764-9.976,4.263-16.354,7.032s-12.183,5.222-16.424,6.9c-2.121.841-3.843,1.5-5.043,1.94l-1.385.494a2.013,2.013,0,0,1-.5.14,1.975,1.975,0,0,1,.457-.235l1.349-.58,4.976-2.087c4.2-1.762,9.978-4.263,16.356-7.033s12.181-5.22,16.422-6.9c2.121-.84,3.843-1.5,5.044-1.94l1.385-.493a2,2,0,0,1,.5-.14" transform="translate(-25.92 -50.921)" fill="#e0e0e0"/>
              <path id="Trazado_810437" data-name="Trazado 810437" d="M51.437,164.385l-.019,0L34.556,161.45v-.018l-.449-9.9a42.274,42.274,0,0,1-9.365-5.778l-9.6,3.71-.011-.016-9.761-13.5.013-.014,6.979-7.3A38.825,38.825,0,0,1,10.008,118.2L.482,114.321l0-.018L3.544,98.139h.019l10.323-.431a40.124,40.124,0,0,1,6.027-8.977l-3.869-9.2.016-.011,14.086-9.357.015.011,7.613,6.691A43.587,43.587,0,0,1,48.66,74.61l4.051-9.132.019,0,16.862,2.932v.018l.449,9.894A42.2,42.2,0,0,1,79.41,84.1l9.6-3.709.011.015,9.761,13.5-.013.013-6.98,7.3a38.773,38.773,0,0,1,2.355,10.436l9.525,3.883,0,.018L100.6,131.724h-.019l-10.323.431a40.114,40.114,0,0,1-6.026,8.977l3.868,9.2-.016.01L74,159.7l-.014-.012L66.376,153a43.537,43.537,0,0,1-10.887,2.256ZM34.6,161.411l16.806,2.921,4.049-9.123h.015a43.543,43.543,0,0,0,10.9-2.259l.013-.005.011.01,7.609,6.687,14.039-9.326-3.865-9.192.009-.01a40.053,40.053,0,0,0,6.036-8.99l.005-.012h.015l10.319-.43,3.048-16.11-9.517-3.88v-.014a38.758,38.758,0,0,0-2.357-10.452l-.005-.013.01-.01,6.976-7.292L88.989,80.451,79.4,84.157l-.01-.01a42.191,42.191,0,0,0-9.381-5.785L70,78.357v-.014l-.448-9.89L52.741,65.531l-4.048,9.123h-.015a43.51,43.51,0,0,0-10.9,2.26l-.014,0-.011-.009-7.61-6.688L16.1,79.548l3.865,9.191-.009.011a40.109,40.109,0,0,0-6.036,8.99l-.005.012H13.9l-10.319.43L.536,114.293l9.518,3.88v.014a38.721,38.721,0,0,0,2.358,10.451l0,.013-.009.01-6.977,7.292,9.73,13.458,9.589-3.706.011.009a42.169,42.169,0,0,0,9.379,5.786l.013.006v.014Zm18.151-29.274a19.364,19.364,0,0,1-3.319-.288,18.352,18.352,0,0,1-11.833-7.3,16.936,16.936,0,0,1-2.98-13.185,17.466,17.466,0,0,1,7.621-11.342l.013.019-.013-.019A18.9,18.9,0,0,1,56,97.164a18.354,18.354,0,0,1,11.832,7.3,16.931,16.931,0,0,1,2.98,13.184,17.467,17.467,0,0,1-7.62,11.342,18.812,18.812,0,0,1-10.436,3.144m-.077-35.215a18.771,18.771,0,0,0-10.408,3.135,17.419,17.419,0,0,0-7.6,11.313,16.886,16.886,0,0,0,2.972,13.15,18.305,18.305,0,0,0,11.8,7.285,18.841,18.841,0,0,0,13.719-2.849,17.419,17.419,0,0,0,7.6-11.312,16.894,16.894,0,0,0-2.971-13.151,18.312,18.312,0,0,0-11.8-7.284,19.259,19.259,0,0,0-3.311-.287" transform="translate(-0.042 -8.156)" fill="#e0e0e0"/>
              <path id="Trazado_810438" data-name="Trazado 810438" d="M45.435,104.47a13.991,13.991,0,0,1,3.94-2.18,19.027,19.027,0,0,1,12.3-.415,18.687,18.687,0,0,1,7.419,4.247,17.88,17.88,0,0,1,5.006,8.209,17.342,17.342,0,0,1-.375,10.493,18.214,18.214,0,0,1-7.072,9,19.494,19.494,0,0,1-11.273,3.19,18.335,18.335,0,0,1-5.564-.97A17.988,17.988,0,0,1,45,133.663a18.2,18.2,0,0,1-6.262-7.376,17.192,17.192,0,0,1,3.184-19.046,13.8,13.8,0,0,1,3.513-2.771c.081.1-1.323.925-3.2,3.029a17.165,17.165,0,0,0-4.292,10.67,16.566,16.566,0,0,0,1.6,7.776,17.461,17.461,0,0,0,6.026,6.96,17.091,17.091,0,0,0,4.581,2.224,17.465,17.465,0,0,0,5.269.895,18.521,18.521,0,0,0,10.645-3.032,17.313,17.313,0,0,0,6.7-8.488,16.522,16.522,0,0,0,.413-9.934,17.138,17.138,0,0,0-4.682-7.853,18.086,18.086,0,0,0-7.034-4.163,19.052,19.052,0,0,0-11.931.105c-2.716.949-4.018,1.919-4.084,1.811" transform="translate(-3.222 -12.587)" fill="#ebebeb"/>
              <path id="Trazado_810439" data-name="Trazado 810439" d="M37.726,76.86a3.946,3.946,0,0,1-.5-.39L35.754,75.23,29.988,70.28l.209.013L16.183,79.717l.1-.306,3.906,9.18.07.165-.121.138a39.973,39.973,0,0,0-5.961,8.944l-.088.18-.21.01-10.337.46.353-.3c-.95,5.086-1.957,10.484-3.016,16.151l-.246-.435,9.529,3.863.243.1.021.252a38.58,38.58,0,0,0,2.353,10.342l.094.247-.186.2L5.7,136.224l.04-.56c3.067,4.233,6.376,8.8,9.767,13.477l-.586-.168,9.59-3.717.281-.108.23.187a41.954,41.954,0,0,0,9.276,5.712l.279.124.014.3c.142,3.1.3,6.49.456,9.91l-.424-.466,16.846,2.921-.574.3c1.279-2.884,2.658-5.994,4.048-9.127l.124-.282.318-.024a43.115,43.115,0,0,0,10.762-2.23l.009,0,.3-.1.232.2,7.623,6.7-.655-.043,14.073-9.344-.187.6q-1.949-4.643-3.862-9.2L83.57,141l.2-.228a39.547,39.547,0,0,0,5.97-8.882l.132-.268.308-.012,10.338-.423-.472.394q1.574-8.265,3.072-16.142l.287.51-9.517-3.894-.263-.108-.022-.272a38.477,38.477,0,0,0-2.317-10.344l-.093-.249.185-.194,7-7.3-.037.522c-3.419-4.751-6.648-9.237-9.722-13.505l.482.137-9.6,3.685-.214.081-.173-.142a42.021,42.021,0,0,0-9.287-5.764l-.191-.087-.007-.2c-.151-3.6-.287-6.845-.416-9.909l.256.28-16.831-3,.258-.134-4.11,9.1-.042.091-.1.007a45.1,45.1,0,0,0-8.265,1.362l-1.994.559a4.284,4.284,0,0,1-.663.179,5.522,5.522,0,0,1,.636-.258c.431-.152,1.083-.381,1.973-.639a42.147,42.147,0,0,1,8.286-1.525l-.142.1,3.988-9.153.072-.165.187.032,16.858,2.857.243.041.013.24c.149,3.063.307,6.307.483,9.906l-.2-.285a42.588,42.588,0,0,1,9.483,5.813l-.386-.06,9.583-3.73.3-.116.184.255c3.092,4.257,6.338,8.731,9.779,13.468l.2.275-.237.249-6.976,7.318.093-.443a39.233,39.233,0,0,1,2.4,10.569l-.286-.38,9.527,3.87.356.145-.069.366q-1.481,7.875-3.038,16.148l-.07.378-.4.017-10.337.439.438-.281a40.541,40.541,0,0,1-6.106,9.109l.085-.506,3.872,9.194.155.369-.342.229-14.068,9.35-.345.229-.31-.272-7.624-6.7.534.1-.01,0A44.11,44.11,0,0,1,55.472,155.7l.441-.3-4.051,9.126-.163.369-.412-.072-16.842-2.935-.406-.071-.017-.395c-.153-3.419-.3-6.806-.443-9.909l.292.42a42.882,42.882,0,0,1-9.492-5.865l.511.079-9.6,3.7-.364.14-.222-.308-9.733-13.5-.214-.3.253-.264,7-7.3-.092.441A39.247,39.247,0,0,1,9.555,118.19l.263.349L.3,114.639l-.3-.125.058-.311L3.153,98.065l.054-.284.3-.011,10.339-.4-.3.19a40.473,40.473,0,0,1,6.116-9.046l-.052.3c-1.378-3.318-2.668-6.419-3.828-9.21l-.079-.192.175-.115,14.126-9.268.112-.074.1.087,5.6,5.033,1.435,1.315a5.01,5.01,0,0,1,.48.471" transform="translate(0 -8.123)" fill="#ebebeb"/>
              <path id="Trazado_810440" data-name="Trazado 810440" d="M89.243,9.854A22.258,22.258,0,0,1,94.23,6.861l.3-5.221L103.433.2l2.073,4.837A22.868,22.868,0,0,1,111.242,6.3l4.064-3.485,7.355,5.016-2.1,4.822a21.1,21.1,0,0,1,3.123,4.782l5.446.291,1.5,8.531-5.046,1.987a20.447,20.447,0,0,1-1.315,5.5l3.635,3.9-5.231,7.049-5.031-2.014a22.308,22.308,0,0,1-4.988,2.993l-.3,5.221-8.9,1.437-2.073-4.837a22.908,22.908,0,0,1-5.735-1.261l-4.065,3.485L84.221,44.7l2.1-4.823A21.06,21.06,0,0,1,83.2,35.092L77.753,34.8l-1.5-8.53L81.3,24.282a20.478,20.478,0,0,1,1.314-5.5l-3.635-3.9,5.232-7.05ZM95.79,20.562A9.038,9.038,0,0,0,98.066,33.5a9.953,9.953,0,0,0,13.5-2.182,9.036,9.036,0,0,0-2.277-12.942,9.953,9.953,0,0,0-13.5,2.182" transform="translate(-6.61 -0.025)" fill="#e0e0e0"/>
              <path id="Trazado_810441" data-name="Trazado 810441" d="M97.459,22.878a7.084,7.084,0,0,1,1.547-1.757A9.859,9.859,0,0,1,105.03,18.8a10.137,10.137,0,0,1,4.472.833,9.829,9.829,0,0,1,4.016,3.212,8.8,8.8,0,0,1,1.275,2.45,8.6,8.6,0,0,1,.5,2.817,9.278,9.278,0,0,1-1.827,5.675,9.949,9.949,0,0,1-4.994,3.517,10.335,10.335,0,0,1-5.775.122,10.01,10.01,0,0,1-4.483-2.583,9.282,9.282,0,0,1-2.287-3.778,8.88,8.88,0,0,1,.31-6.214,6.976,6.976,0,0,1,1.224-1.977c.058.035-.483.685-1.023,2.052a8.891,8.891,0,0,0-.136,6.027,8.992,8.992,0,0,0,2.244,3.582,9.6,9.6,0,0,0,4.288,2.417,9.853,9.853,0,0,0,5.467-.144,9.446,9.446,0,0,0,4.713-3.329,8.817,8.817,0,0,0,1.735-5.359,8.122,8.122,0,0,0-.458-2.667,8.348,8.348,0,0,0-1.192-2.33,9.43,9.43,0,0,0-3.788-3.09,9.955,9.955,0,0,0-10.163,1.241c-1.17.937-1.634,1.641-1.687,1.6" transform="translate(-8.279 -2.341)" fill="#e0e0e0"/>
              <path id="Trazado_810442" data-name="Trazado 810442" d="M89.221,9.829a2.238,2.238,0,0,1-.321-.108l-.961-.362L84.155,7.893l.106-.03-5.189,7.079-.009-.169,3.651,3.883.067.07-.035.089a20.419,20.419,0,0,0-1.286,5.458l-.01.105-.1.04-5.041,2,.121-.207c.479,2.685.986,5.535,1.521,8.527l-.2-.174,5.447.281.139.007.058.122a20.966,20.966,0,0,0,3.1,4.725l.092.106-.056.13-2.093,4.825-.085-.285,7.36,5.007-.322.017,4.062-3.488.119-.1.15.054a22.781,22.781,0,0,0,5.666,1.241l.162.014.062.144,2.077,4.836-.3-.158,8.9-1.441-.229.246c.095-1.649.2-3.429.3-5.221l.009-.161.153-.067a22.069,22.069,0,0,0,4.92-2.952l0,0,.131-.1.153.062,5.031,2.014-.332.09,5.233-7.047.019.328-3.633-3.9-.11-.117.058-.148a20.213,20.213,0,0,0,1.3-5.429l.016-.156.151-.06L130.506,26l-.16.277q-.764-4.369-1.491-8.531l.237.2-5.446-.3-.151-.008-.062-.131a20.9,20.9,0,0,0-3.081-4.733l-.093-.108.057-.129c.723-1.652,1.425-3.254,2.109-4.818l.079.265-7.343-5.029.265-.014-4.073,3.474-.09.078-.112-.041a22.845,22.845,0,0,0-5.683-1.265l-.111-.01-.041-.1L103.261.236l.179.1-8.907,1.4.1-.11C94.5,3.706,94.39,5.415,94.3,6.841l0,.052-.048.021A23.185,23.185,0,0,0,90.4,9.007l-.884.619a2.322,2.322,0,0,1-.3.2,2.781,2.781,0,0,1,.267-.237c.185-.15.466-.375.859-.656a21.614,21.614,0,0,1,3.824-2.178l-.052.074c.073-1.425.162-3.137.269-5.223l0-.1.1-.016L103.385.022,103.514,0l.05.116,2.09,4.83-.152-.107a23.112,23.112,0,0,1,5.789,1.255l-.2.036,4.056-3.494.126-.108.139.095,7.364,5,.151.1-.071.164q-1.019,2.349-2.092,4.825l-.037-.235a21.365,21.365,0,0,1,3.164,4.83l-.213-.14,5.447.285.2.011.034.193q.737,4.159,1.51,8.529l.036.2-.2.077-5.044,1.991.165-.214a20.7,20.7,0,0,1-1.327,5.564l-.052-.265,3.637,3.895.146.157-.127.172-5.231,7.051-.128.172-.2-.082-5.031-2.014.284-.04,0,0a22.584,22.584,0,0,1-5.046,3.027l.163-.228c-.105,1.793-.209,3.573-.305,5.221l-.013.211-.217.035-8.9,1.434-.215.035-.082-.193-2.07-4.839.224.158a23.282,23.282,0,0,1-5.8-1.28l.269-.048-4.069,3.481L91.571,50l-.167-.115-7.348-5.024-.162-.11.077-.174,2.109-4.819.037.235a21.346,21.346,0,0,1-3.147-4.837l.2.129-5.447-.3-.174-.011-.028-.165c-.52-2.994-1.014-5.846-1.48-8.534l-.026-.15.146-.057,5.052-1.974-.111.145a20.629,20.629,0,0,1,1.343-5.535l.031.158-3.619-3.911-.076-.081.066-.087,5.274-7.02.042-.056.065.027,3.714,1.536.957.405a2.907,2.907,0,0,1,.326.151" transform="translate(-6.589)" fill="#e0e0e0"/>
              <path id="Trazado_810443" data-name="Trazado 810443" d="M403.94,94.817a22.258,22.258,0,0,1,4.987-2.992l.3-5.222,8.9-1.437L420.2,90a22.905,22.905,0,0,1,5.736,1.26L430,87.777l7.355,5.016-2.1,4.822a21.1,21.1,0,0,1,3.123,4.782l5.446.291,1.5,8.531-5.046,1.987a20.449,20.449,0,0,1-1.315,5.5l3.635,3.9-5.231,7.049-5.031-2.014a22.284,22.284,0,0,1-4.988,2.993l-.3,5.221-8.9,1.437-2.073-4.837a22.909,22.909,0,0,1-5.735-1.261l-4.065,3.485-7.354-5.015,2.1-4.823a21.059,21.059,0,0,1-3.123-4.781l-5.447-.292-1.5-8.53L396,109.245a20.48,20.48,0,0,1,1.314-5.5l-3.635-3.9,5.232-7.05Zm6.547,10.708a9.038,9.038,0,0,0,2.276,12.943,9.953,9.953,0,0,0,13.5-2.182,9.036,9.036,0,0,0-2.277-12.942,9.952,9.952,0,0,0-13.5,2.182" transform="translate(-33.89 -10.608)" fill="#e0e0e0"/>
              <path id="Trazado_810444" data-name="Trazado 810444" d="M412.156,107.841a7.085,7.085,0,0,1,1.547-1.757,9.857,9.857,0,0,1,6.024-2.317,10.137,10.137,0,0,1,4.472.833,9.83,9.83,0,0,1,4.016,3.212,8.794,8.794,0,0,1,1.275,2.45,8.6,8.6,0,0,1,.5,2.817,9.272,9.272,0,0,1-1.827,5.675,9.948,9.948,0,0,1-4.994,3.517,10.356,10.356,0,0,1-5.775.122,10.01,10.01,0,0,1-4.483-2.583,9.283,9.283,0,0,1-2.287-3.778,8.88,8.88,0,0,1,.31-6.214,6.977,6.977,0,0,1,1.224-1.977c.058.034-.483.685-1.023,2.052a8.891,8.891,0,0,0-.136,6.027,9,9,0,0,0,2.244,3.582,9.6,9.6,0,0,0,4.288,2.417,9.853,9.853,0,0,0,5.467-.144,9.451,9.451,0,0,0,4.713-3.329,8.817,8.817,0,0,0,1.735-5.359,8.121,8.121,0,0,0-.458-2.667,8.348,8.348,0,0,0-1.192-2.33,9.417,9.417,0,0,0-3.788-3.09,9.955,9.955,0,0,0-10.163,1.241c-1.17.937-1.634,1.641-1.687,1.6" transform="translate(-35.559 -12.924)" fill="#e0e0e0"/>
              <path id="Trazado_810445" data-name="Trazado 810445" d="M403.919,94.793a2.282,2.282,0,0,1-.321-.108l-.961-.362-3.784-1.465.106-.03-5.189,7.078-.009-.168,3.651,3.883.066.07-.035.089a20.419,20.419,0,0,0-1.286,5.457l-.01.105-.1.04-5.04,2,.121-.207c.479,2.685.987,5.535,1.521,8.527l-.2-.174,5.447.281.139.007.058.122a20.969,20.969,0,0,0,3.1,4.725l.092.106-.056.13-2.093,4.825-.085-.285,7.36,5.007-.322.017,4.062-3.488.119-.1.15.054a22.781,22.781,0,0,0,5.666,1.241l.162.014.062.144c.65,1.515,1.361,3.166,2.077,4.836l-.3-.158,8.9-1.441-.229.245c.095-1.648.2-3.428.3-5.22l.009-.161.153-.067a22.066,22.066,0,0,0,4.92-2.952l0,0,.131-.1.153.061,5.031,2.015-.332.09,5.233-7.047.019.328-3.633-3.9-.11-.118.058-.147a20.242,20.242,0,0,0,1.3-5.429l.015-.155.151-.06,5.047-1.984-.16.277q-.764-4.369-1.491-8.531l.237.2-5.446-.3-.151-.008-.062-.131a20.9,20.9,0,0,0-3.081-4.733l-.093-.108.057-.129c.723-1.652,1.425-3.254,2.109-4.818l.079.265-7.343-5.029.265-.014-4.073,3.474-.09.078-.112-.041a22.847,22.847,0,0,0-5.682-1.265l-.112-.011-.041-.1L417.959,85.2l.179.1-8.907,1.4.1-.11c-.135,2.084-.247,3.794-.339,5.219l0,.052-.048.021a23.185,23.185,0,0,0-3.844,2.094l-.884.619a2.319,2.319,0,0,1-.3.2,2.78,2.78,0,0,1,.267-.237c.185-.15.467-.375.859-.656a21.615,21.615,0,0,1,3.824-2.178l-.052.074c.073-1.426.162-3.137.269-5.223l0-.1.1-.016,8.893-1.476.129-.021.05.116c.647,1.493,1.331,3.075,2.091,4.83L420.2,89.8a23.112,23.112,0,0,1,5.789,1.255l-.2.036,4.056-3.494.126-.108.139.095,7.364,5,.151.1-.071.164q-1.019,2.349-2.092,4.825l-.036-.235a21.364,21.364,0,0,1,3.164,4.83l-.213-.14,5.447.285.2.011.035.193,1.509,8.529.036.2-.2.077-5.044,1.991.165-.214a20.7,20.7,0,0,1-1.327,5.564l-.052-.265,3.637,3.895.146.157-.127.172-5.23,7.05-.129.173-.2-.082-5.031-2.014.284-.04,0,0a22.617,22.617,0,0,1-5.046,3.027l.163-.228c-.105,1.793-.209,3.573-.305,5.221l-.013.211-.217.035-8.9,1.434-.215.035-.082-.193-2.07-4.839.224.158a23.282,23.282,0,0,1-5.8-1.28l.269-.048-4.069,3.481-.154.132-.167-.115-7.348-5.024-.162-.11.077-.174,2.109-4.819.036.235a21.346,21.346,0,0,1-3.147-4.837l.2.129-5.447-.3-.174-.011-.028-.165c-.52-2.994-1.014-5.846-1.48-8.534l-.026-.15.146-.057,5.052-1.974-.111.145a20.627,20.627,0,0,1,1.344-5.535l.031.158c-1.3-1.409-2.523-2.725-3.618-3.911l-.075-.081.065-.087,5.274-7.02.042-.056.065.027,3.714,1.536.957.405a2.908,2.908,0,0,1,.326.151" transform="translate(-33.869 -10.583)" fill="#e0e0e0"/>
              <path id="Trazado_810446" data-name="Trazado 810446" d="M30.782,19.225a13.332,13.332,0,0,1,2.985-1.791l.183-3.125,5.327-.861,1.241,2.9a13.709,13.709,0,0,1,3.433.754l2.433-2.085,4.4,3L49.529,20.9A12.591,12.591,0,0,1,51.4,23.762l3.261.174.9,5.106-3.02,1.19a12.237,12.237,0,0,1-.787,3.291l2.176,2.332-3.132,4.22L47.781,38.87a13.326,13.326,0,0,1-2.986,1.791l-.183,3.125-5.327.861-1.24-2.9A13.7,13.7,0,0,1,34.611,41l-2.433,2.086-4.4-3,1.258-2.887a12.607,12.607,0,0,1-1.87-2.862L23.9,34.158l-.9-5.106,3.02-1.19a12.264,12.264,0,0,1,.787-3.291l-2.176-2.332,3.132-4.22Zm3.919,6.41a5.41,5.41,0,0,0,1.363,7.748,5.959,5.959,0,0,0,8.082-1.306,5.41,5.41,0,0,0-1.363-7.748A5.957,5.957,0,0,0,34.7,25.635" transform="translate(-1.994 -1.675)" fill="#f5f5f5"/>
              <path id="Trazado_810447" data-name="Trazado 810447" d="M35.7,27.021a4.243,4.243,0,0,1,.926-1.051,5.9,5.9,0,0,1,3.606-1.388,6.064,6.064,0,0,1,2.677.5A5.88,5.88,0,0,1,45.313,27a5.271,5.271,0,0,1,.764,1.467,5.157,5.157,0,0,1,.3,1.686,5.552,5.552,0,0,1-1.093,3.4,5.958,5.958,0,0,1-2.99,2.105,6.2,6.2,0,0,1-3.456.073,5.98,5.98,0,0,1-2.683-1.547,5.541,5.541,0,0,1-1.369-2.26,5.317,5.317,0,0,1,.185-3.72,4.168,4.168,0,0,1,.732-1.184c.035.021-.29.411-.613,1.228A5.359,5.359,0,0,0,36.35,34a5.75,5.75,0,0,0,2.567,1.447,5.9,5.9,0,0,0,3.272-.087,5.659,5.659,0,0,0,2.821-1.993,5.277,5.277,0,0,0,1.038-3.207,4.894,4.894,0,0,0-.274-1.6,5.007,5.007,0,0,0-.714-1.394,5.635,5.635,0,0,0-2.267-1.85,5.959,5.959,0,0,0-6.084.743c-.7.56-.978.982-1.01.957" transform="translate(-2.994 -3.061)" fill="#f5f5f5"/>
              <path id="Trazado_810448" data-name="Trazado 810448" d="M30.769,19.21a1.375,1.375,0,0,1-.193-.064L30,18.929l-2.266-.878.064-.018-3.106,4.237-.006-.1,2.186,2.324.039.042-.021.053a12.228,12.228,0,0,0-.77,3.266l-.005.063-.061.025-3.018,1.2.072-.124.911,5.1-.122-.1,3.261.168.083,0,.035.073a12.588,12.588,0,0,0,1.854,2.829l.056.063-.033.078c-.389.895-.817,1.882-1.254,2.888l-.05-.171,4.406,3-.193.011,2.431-2.088.071-.061.09.032a13.612,13.612,0,0,0,3.392.743l.1.008.037.087c.389.907.815,1.9,1.243,2.9l-.177-.095,5.326-.863-.137.147c.058-.987.119-2.052.182-3.125l.005-.1.091-.039a13.194,13.194,0,0,0,2.945-1.768l0,0,.079-.061.092.037,3.011,1.206-.2.054,3.134-4.219.011.2-2.175-2.333-.066-.071.035-.088a12.109,12.109,0,0,0,.78-3.25l.009-.094.09-.035,3.021-1.187-.1.165q-.456-2.616-.892-5.107l.142.122-3.261-.178-.09-.005-.037-.079a12.526,12.526,0,0,0-1.844-2.833l-.056-.064.033-.077,1.263-2.885.047.158L46.3,15.1l.159-.008-2.439,2.079-.054.046-.068-.025a13.7,13.7,0,0,0-3.4-.757l-.067-.006-.025-.058-1.231-2.9.108.058-5.332.838.062-.067c-.081,1.248-.147,2.272-.2,3.124l0,.031-.029.013a13.925,13.925,0,0,0-2.3,1.253l-.529.371a1.34,1.34,0,0,1-.177.121,1.913,1.913,0,0,1,.16-.142c.111-.089.279-.224.514-.392a12.9,12.9,0,0,1,2.289-1.3l-.031.043c.044-.853.1-1.877.161-3.126l0-.057.059-.01,5.324-.883.077-.012.031.069c.386.895.8,1.841,1.25,2.892l-.09-.065a13.828,13.828,0,0,1,3.464.752L43.859,17l2.428-2.091.076-.065.083.057,4.408,2.993.09.061-.043.1-1.252,2.888-.022-.141a12.792,12.792,0,0,1,1.893,2.892l-.127-.084,3.261.171.122.006.02.116q.441,2.491.9,5.106l.021.12-.117.046L52.584,30.36l.1-.129a12.359,12.359,0,0,1-.795,3.331l-.031-.158q1.078,1.154,2.177,2.331l.088.094-.077.1-3.13,4.22-.078.1-.121-.05L47.7,39l.17-.025,0,0a13.557,13.557,0,0,1-3.02,1.812l.1-.137c-.063,1.073-.125,2.139-.183,3.125l-.007.127-.13.02-5.328.859-.129.021-.048-.116c-.428-1-.851-1.989-1.239-2.9l.133.095a13.945,13.945,0,0,1-3.473-.766L34.7,41.1l-2.436,2.084-.092.079-.1-.068-4.4-3.007-.1-.067.046-.1,1.262-2.885.022.14a12.766,12.766,0,0,1-1.883-2.9l.117.077-3.261-.18-.1-.006-.017-.1c-.311-1.793-.606-3.5-.886-5.109l-.016-.089.088-.034,3.024-1.182-.067.088a12.331,12.331,0,0,1,.8-3.314l.019.095-2.166-2.34-.045-.049.039-.053c1.285-1.711,2.348-3.126,3.157-4.2l.025-.033.038.016L30,18.876l.573.243a1.6,1.6,0,0,1,.2.09" transform="translate(-1.982 -1.66)" fill="#f5f5f5"/>
              <path id="Trazado_810449" data-name="Trazado 810449" d="M414.838,158.725a13.322,13.322,0,0,1,2.986-1.791l.182-3.125,5.327-.861,1.241,2.9a13.75,13.75,0,0,1,3.433.755l2.433-2.085,4.4,3-1.258,2.887a12.592,12.592,0,0,1,1.869,2.862l3.26.174.9,5.106-3.02,1.19a12.239,12.239,0,0,1-.787,3.291l2.176,2.332-3.132,4.22-3.012-1.205a13.33,13.33,0,0,1-2.986,1.791l-.182,3.125-5.328.861-1.24-2.9a13.694,13.694,0,0,1-3.433-.755l-2.433,2.086-4.4-3,1.258-2.887a12.609,12.609,0,0,1-1.869-2.862l-3.261-.174-.9-5.106,3.02-1.19a12.264,12.264,0,0,1,.787-3.291l-2.176-2.332,3.132-4.22Zm3.919,6.41a5.41,5.41,0,0,0,1.363,7.748,5.958,5.958,0,0,0,8.082-1.307,5.409,5.409,0,0,0-1.363-7.747,5.959,5.959,0,0,0-8.082,1.306" transform="translate(-35.287 -19.051)" fill="#ebebeb"/>
              <path id="Trazado_810450" data-name="Trazado 810450" d="M419.756,166.521a4.244,4.244,0,0,1,.926-1.051,5.9,5.9,0,0,1,3.606-1.388,6.064,6.064,0,0,1,2.677.5,5.879,5.879,0,0,1,2.4,1.922,5.271,5.271,0,0,1,.764,1.467,5.151,5.151,0,0,1,.3,1.686,5.552,5.552,0,0,1-1.093,3.4,5.954,5.954,0,0,1-2.99,2.105,6.2,6.2,0,0,1-3.456.073,5.985,5.985,0,0,1-2.683-1.547,5.541,5.541,0,0,1-1.369-2.26,5.316,5.316,0,0,1,.185-3.72,4.167,4.167,0,0,1,.732-1.184c.035.021-.29.411-.613,1.228a5.359,5.359,0,0,0,1.262,5.753,5.75,5.75,0,0,0,2.567,1.447,5.9,5.9,0,0,0,3.272-.087,5.658,5.658,0,0,0,2.821-1.993,5.279,5.279,0,0,0,1.038-3.207,4.9,4.9,0,0,0-.274-1.6,5.008,5.008,0,0,0-.714-1.394,5.63,5.63,0,0,0-2.267-1.85,5.953,5.953,0,0,0-6.084.743c-.7.56-.978.982-1.01.957" transform="translate(-36.286 -20.437)" fill="#f5f5f5"/>
              <path id="Trazado_810451" data-name="Trazado 810451" d="M414.825,158.71a1.324,1.324,0,0,1-.193-.065l-.575-.216-2.265-.878.064-.018-3.106,4.237-.006-.1,2.187,2.324.039.042-.021.053a12.222,12.222,0,0,0-.77,3.266l-.005.063-.061.025-3.018,1.2.072-.123.911,5.1-.122-.1,3.26.168.083,0,.035.073a12.587,12.587,0,0,0,1.854,2.829l.056.063-.033.077-1.254,2.889-.05-.171,4.406,3-.193.01,2.431-2.089.071-.06.09.032a13.612,13.612,0,0,0,3.392.743l.1.008.037.087c.389.907.815,1.9,1.243,2.9l-.177-.095,5.326-.863-.137.147c.058-.987.119-2.052.182-3.125l.005-.1.091-.039a13.227,13.227,0,0,0,2.945-1.768l0,0,.079-.061.092.037,3.011,1.205-.2.055,3.133-4.219.011.2-2.175-2.333-.066-.071.035-.088a12.115,12.115,0,0,0,.78-3.25l.009-.094.09-.035,3.021-1.187-.1.165q-.456-2.616-.892-5.107l.142.122-3.261-.178-.09-.005-.037-.079a12.523,12.523,0,0,0-1.844-2.833l-.056-.064.033-.077,1.263-2.885.047.158-4.4-3.011.159-.008-2.439,2.079-.055.046-.067-.025a13.706,13.706,0,0,0-3.4-.757l-.067-.006-.025-.058-1.231-2.9.108.058-5.332.838.062-.067c-.081,1.248-.147,2.272-.2,3.124l0,.031-.029.013a13.922,13.922,0,0,0-2.3,1.253l-.529.371a1.339,1.339,0,0,1-.177.121,1.593,1.593,0,0,1,.16-.142c.11-.089.279-.224.514-.392a12.941,12.941,0,0,1,2.289-1.3l-.031.044c.044-.853.1-1.878.161-3.126l0-.057.059-.01,5.324-.883.077-.012.031.069c.386.895.8,1.841,1.25,2.892l-.09-.065a13.827,13.827,0,0,1,3.464.752l-.121.022,2.428-2.091.075-.065.084.056,4.408,2.994.09.061-.043.1-1.252,2.889-.022-.141a12.806,12.806,0,0,1,1.893,2.891l-.127-.083,3.261.171.122.006.02.116q.441,2.491.9,5.106l.021.12-.117.046-3.019,1.192.1-.129a12.357,12.357,0,0,1-.795,3.331l-.031-.158,2.177,2.331.088.094-.076.1-3.131,4.22-.078.1-.122-.05-3.012-1.2.17-.024,0,0a13.554,13.554,0,0,1-3.02,1.812l.1-.137c-.063,1.073-.125,2.139-.183,3.125l-.007.127-.13.02-5.328.859-.129.021-.048-.116c-.428-1-.851-1.989-1.239-2.9l.133.095a13.945,13.945,0,0,1-3.473-.766l.161-.029-2.436,2.084-.092.079-.1-.068-4.4-3.007-.1-.067.046-.1,1.262-2.885.022.14a12.808,12.808,0,0,1-1.884-2.9l.118.077-3.261-.18-.1-.006-.017-.1c-.31-1.792-.606-3.5-.886-5.108l-.016-.089.088-.034,3.024-1.182-.067.088a12.332,12.332,0,0,1,.8-3.314l.019.095-2.166-2.341-.045-.048.039-.053c1.285-1.711,2.348-3.126,3.157-4.2l.025-.033.038.016,2.224.919.573.243a1.619,1.619,0,0,1,.2.09" transform="translate(-35.274 -19.036)" fill="#f5f5f5"/>
            </g>
          </g>
          <g id="Grupo_1067850" data-name="Grupo 1067850">
            <g id="Grupo_1067849" data-name="Grupo 1067849" clip-path="url(#clip-path-2)">
              <path id="Trazado_810453" data-name="Trazado 810453" d="M81.07,423.861a7.205,7.205,0,0,1,2.093-7.162,10.52,10.52,0,0,1,7.43-2.659,4.425,4.425,0,0,1,3.4,1.255,3.056,3.056,0,0,1,.234,3.2,6.531,6.531,0,0,1-2.343,2.467c-3.29,2.227-6.9,3.8-10.813,2.9" transform="translate(-7.004 -51.572)" fill="#e8505b"/>
              <path id="Trazado_810454" data-name="Trazado 810454" d="M76.431,438.487a5.031,5.031,0,0,1,.087-.925c.087-.653.2-1.5.335-2.51a25.129,25.129,0,0,1,2.222-8.077,16.127,16.127,0,0,1,5.6-6.364,11.488,11.488,0,0,1,2.365-1.155,7.01,7.01,0,0,1,.687-.206.718.718,0,0,1,.248-.046,17.873,17.873,0,0,0-3.166,1.6,16.629,16.629,0,0,0-5.427,6.315,27.092,27.092,0,0,0-2.291,7.968c-.18,1.054-.325,1.908-.441,2.495a4.888,4.888,0,0,1-.219.906" transform="translate(-6.625 -52.215)" fill="#263238"/>
              <path id="Trazado_810455" data-name="Trazado 810455" d="M74.167,396.748a1.8,1.8,0,0,1,.07.4c.036.3.081.678.137,1.149.113,1,.258,2.446.419,4.235.325,3.579.7,8.529.99,14s.427,10.438.479,14.03c.026,1.8.034,3.249.026,4.254-.007.475-.012.858-.016,1.156a1.766,1.766,0,0,1-.029.4,1.894,1.894,0,0,1-.039-.4c-.013-.3-.028-.682-.048-1.156-.033-1.044-.078-2.486-.133-4.25-.112-3.589-.292-8.546-.578-14.019s-.626-10.42-.89-14c-.129-1.76-.234-3.2-.311-4.242-.03-.474-.055-.856-.073-1.155a1.754,1.754,0,0,1,0-.4" transform="translate(-6.429 -49.418)" fill="#263238"/>
              <path id="Trazado_810456" data-name="Trazado 810456" d="M72.363,426.976a17.535,17.535,0,0,0-10.578-12.16c-1.348-.534-3.085-.839-4.112.154s-.69,2.666-.087,3.94a15.544,15.544,0,0,0,14.7,8.438" transform="translate(-4.942 -51.607)" fill="#e8505b"/>
              <path id="Trazado_810457" data-name="Trazado 810457" d="M63.2,419.7a4.751,4.751,0,0,1,.854.306,8.859,8.859,0,0,1,.97.432c.365.194.8.377,1.24.658a16.105,16.105,0,0,1,1.429.919,17.555,17.555,0,0,1,1.533,1.2,19.535,19.535,0,0,1,2.97,3.273,18.571,18.571,0,0,1,2.054,3.868,15.933,15.933,0,0,1,.567,1.817,13.452,13.452,0,0,1,.328,1.62,12.393,12.393,0,0,1,.143,1.353,7.675,7.675,0,0,1,.026,1.025,4.218,4.218,0,0,1-.052.872c-.077,0-.014-1.247-.355-3.214a14.412,14.412,0,0,0-.364-1.589,16.8,16.8,0,0,0-.587-1.779,19.367,19.367,0,0,0-2.042-3.789,20.333,20.333,0,0,0-2.9-3.235,18.767,18.767,0,0,0-1.491-1.2c-.473-.371-.955-.662-1.387-.939-1.754-1.072-2.967-1.527-2.936-1.592" transform="translate(-5.478 -52.277)" fill="#263238"/>
            </g>
          </g>
          <g id="Grupo_1067858" data-name="Grupo 1067858">
            <g id="Grupo_1067857" data-name="Grupo 1067857" clip-path="url(#clip-path-2)">
              <path id="Trazado_810458" data-name="Trazado 810458" d="M65.346,167.62S50.423,42.15,184.727,39.331s120.092,126.88,114.407,144.5-32.709,68.642-35.552,91.9.869,93.2,2.7,116.062H128.064l.525-69.1S78.137,330.45,68.9,308.6s-8.527-64.144-8.527-64.144-27.714,0-29.845-4.229,34.819-72.6,34.819-72.6" transform="translate(-2.639 -4.893)" fill="#e8505b"/>
              <path id="Trazado_810459" data-name="Trazado 810459" d="M65.346,167.62S50.423,42.15,184.727,39.331s120.092,126.88,114.407,144.5-32.709,68.642-35.552,91.9.869,93.2,2.7,116.062H128.064l.525-69.1S78.137,330.45,68.9,308.6s-8.527-64.144-8.527-64.144-27.714,0-29.845-4.229,34.819-72.6,34.819-72.6" transform="translate(-2.639 -4.893)" fill="#59bee2"/>
              <g id="Grupo_1067853" data-name="Grupo 1067853" transform="translate(27.798 34.392)" opacity="0.7">
                <g id="Grupo_1067852" data-name="Grupo 1067852">
                  <g id="Grupo_1067851" data-name="Grupo 1067851" clip-path="url(#clip-path-6)">
                    <path id="Trazado_810460" data-name="Trazado 810460" d="M65.346,167.62S50.423,42.15,184.727,39.331s120.092,126.88,114.407,144.5-32.709,68.642-35.552,91.9.869,93.2,2.7,116.062H128.064l.525-69.1S78.137,330.45,68.9,308.6s-8.527-64.144-8.527-64.144-27.714,0-29.845-4.229,34.819-72.6,34.819-72.6" transform="translate(-30.437 -39.285)" fill="#fff"/>
                  </g>
                </g>
              </g>
              <path id="Trazado_810461" data-name="Trazado 810461" d="M140.266,95.075c-7.687-1.843-17.843-5.7-26.106,1.389-4.224,3.624-6.593,11.638-6.875,17.141A28.01,28.01,0,0,0,86.508,124.94a18.8,18.8,0,0,0-3.9,11.416A11.952,11.952,0,0,0,88.554,146.5a18.216,18.216,0,0,0-1.062,19.376,18.9,18.9,0,0,0,17.42,9.141,20.93,20.93,0,0,0,7.3,19.191,21.8,21.8,0,0,0,20.519,3.633c6.656,9.444,21.9,11.509,30.908,4.184,1.123-.914,2.239-1.986,3.677-2.231a7.342,7.342,0,0,1,3.7.682c6.009,2.213,12.425,4.135,18.759,3.129s12.479-5.784,12.92-12.075a49.381,49.381,0,0,0,22.545,5.566c9,.034,19.495-3.912,21.411-12.557a18.229,18.229,0,0,0,18.933,1.641,17.592,17.592,0,0,0,9.349-16.26c7.635,1.423,14.134-6.055,16.176-13.421,1.983-7.156,1.428-15.193-2.6-21.464s-11.834-10.34-19.261-9.017A18.343,18.343,0,0,0,270.6,107a19,19,0,0,0-16.658-9.782A17.179,17.179,0,0,0,242.4,86.138,17.551,17.551,0,0,0,226.646,89.5a29.45,29.45,0,0,0-46.064-4.829c-6.1-5.153-17.132-7.965-24.791-5.536s-13.638,8.25-15.525,15.937" transform="translate(-7.16 -9.435)" fill="#59bee2"/>
              <g id="Grupo_1067856" data-name="Grupo 1067856" transform="translate(75.436 66.309)" opacity="0.3">
                <g id="Grupo_1067855" data-name="Grupo 1067855" transform="translate(0)">
                  <g id="Grupo_1067854" data-name="Grupo 1067854" clip-path="url(#clip-path-7)">
                    <path id="Trazado_810462" data-name="Trazado 810462" d="M140.266,95.075c-7.687-1.843-17.843-5.7-26.106,1.389-4.224,3.624-6.593,11.638-6.875,17.141A28.01,28.01,0,0,0,86.508,124.94a18.8,18.8,0,0,0-3.9,11.416A11.952,11.952,0,0,0,88.554,146.5a18.216,18.216,0,0,0-1.062,19.376,18.9,18.9,0,0,0,17.42,9.141,20.93,20.93,0,0,0,7.3,19.191,21.8,21.8,0,0,0,20.519,3.633c6.656,9.444,21.9,11.509,30.908,4.184,1.123-.914,2.239-1.986,3.677-2.231a7.342,7.342,0,0,1,3.7.682c6.009,2.213,12.425,4.135,18.759,3.129s12.479-5.784,12.92-12.075a49.381,49.381,0,0,0,22.545,5.566c9,.034,19.495-3.912,21.411-12.557a18.229,18.229,0,0,0,18.933,1.641,17.592,17.592,0,0,0,9.349-16.26c7.635,1.423,14.134-6.055,16.176-13.421,1.983-7.156,1.428-15.193-2.6-21.464s-11.834-10.34-19.261-9.017A18.343,18.343,0,0,0,270.6,107a19,19,0,0,0-16.658-9.782A17.179,17.179,0,0,0,242.4,86.138,17.551,17.551,0,0,0,226.646,89.5a29.45,29.45,0,0,0-46.064-4.829c-6.1-5.153-17.132-7.965-24.791-5.536s-13.638,8.25-15.525,15.937" transform="translate(-82.596 -75.743)" fill="#fff"/>
                  </g>
                </g>
              </g>
              <path id="Trazado_810463" data-name="Trazado 810463" d="M135.716,116.133a8.774,8.774,0,0,0-7.663,3.514c-1.741,2.095-2.8,5.262-3.2,8.885a22.777,22.777,0,0,0-.054,5.746,9.416,9.416,0,0,0,2.575,5.58l.324.315-.455.072a17.867,17.867,0,0,0-10.564,5.945,16.49,16.49,0,0,0-3.009,5.075,16.9,16.9,0,0,0-1,5.508,17.163,17.163,0,0,0,2.792,9.717l.159.242-.288.067a8.757,8.757,0,0,0-3.879,2.106,11.9,11.9,0,0,0-2.407,3.158,17.479,17.479,0,0,0-1.755,6.167c-.2,1.778-.233,3.188-.271,4.148-.017.452-.031.814-.042,1.1a1.655,1.655,0,0,1-.035.376,1.594,1.594,0,0,1-.032-.376c-.005-.282-.013-.644-.022-1.1a40.4,40.4,0,0,1,.155-4.171,17.352,17.352,0,0,1,1.691-6.291,12.169,12.169,0,0,1,2.447-3.278,9.135,9.135,0,0,1,4.05-2.233l-.129.308a17.479,17.479,0,0,1-2.913-9.943,17.24,17.24,0,0,1,1.017-5.658,16.849,16.849,0,0,1,3.091-5.223,18.278,18.278,0,0,1,10.871-6.092l-.132.386a9.809,9.809,0,0,1-2.68-5.846,22.989,22.989,0,0,1,.092-5.847c.427-3.656,1.544-6.889,3.368-9.018a9.609,9.609,0,0,1,5.526-3.339,5.656,5.656,0,0,1,2.371,0" transform="translate(-9.266 -14.451)" fill="#1969d5"/>
              <path id="Trazado_810464" data-name="Trazado 810464" d="M157.232,176.1a8.252,8.252,0,0,1-1.368.6,39.557,39.557,0,0,1-3.872,1.317,19.39,19.39,0,0,1-6.056.812,11.891,11.891,0,0,1-3.569-.71,12.772,12.772,0,0,1-3.367-1.9,13.548,13.548,0,0,1-4.729-5.551,10.18,10.18,0,0,1-.472-5.839,9.578,9.578,0,0,1,1.586-3.647,6.489,6.489,0,0,1,.7-.839c.174-.179.272-.267.285-.257.043.035-.331.409-.827,1.2a10.255,10.255,0,0,0-.85,9.226,13.39,13.39,0,0,0,4.61,5.335,11.652,11.652,0,0,0,6.655,2.547,19.846,19.846,0,0,0,5.937-.7c1.663-.422,2.983-.868,3.9-1.165a9.65,9.65,0,0,1,1.436-.431" transform="translate(-11.579 -19.941)" fill="#1969d5"/>
              <path id="Trazado_810465" data-name="Trazado 810465" d="M240.781,159.92a1.245,1.245,0,0,1-.027.249c-.03.184-.069.425-.119.73-.111.642-.274,1.592-.531,2.819a37.992,37.992,0,0,1-1.163,4.454,19.091,19.091,0,0,1-8.536,10.755,26.377,26.377,0,0,1-8.47,3.5,21.188,21.188,0,0,1-5.061.474,24.27,24.27,0,0,1-5.284-.826,36.723,36.723,0,0,1-10.279-4.682l.364-.151c-.648,3.649-1.316,7.58-3.32,11.193a15.537,15.537,0,0,1-1.807,2.541,13.338,13.338,0,0,1-2.416,2.1,16.89,16.89,0,0,1-6.109,2.356,24.056,24.056,0,0,1-11.38-.61,23.115,23.115,0,0,1-9.268-5.291l.4-.131a10.612,10.612,0,0,1-2.536,5.338,13.732,13.732,0,0,1-4.655,3.456,17.2,17.2,0,0,1-10.79.814,27.082,27.082,0,0,1-8.861-3.8,16.218,16.218,0,0,1-5.565-5.92,10.22,10.22,0,0,1-1.069-3.316,9.742,9.742,0,0,1,.107-3.075,9.259,9.259,0,0,1,2.157-4.377,6.636,6.636,0,0,1,2.564-1.773,5.411,5.411,0,0,1,1.05-.3c.009.025-.363.1-1.017.37a6.723,6.723,0,0,0-2.474,1.8,9.158,9.158,0,0,0-2.049,4.317,9.388,9.388,0,0,0,1,6.222,15.983,15.983,0,0,0,5.5,5.765,26.827,26.827,0,0,0,8.748,3.7,16.792,16.792,0,0,0,10.506-.82,13.287,13.287,0,0,0,4.49-3.351,10.179,10.179,0,0,0,2.421-5.118l.07-.447.334.316a22.679,22.679,0,0,0,9.078,5.167,23.583,23.583,0,0,0,11.135.593,16.421,16.421,0,0,0,5.926-2.28,12.88,12.88,0,0,0,2.323-2.016,15.127,15.127,0,0,0,1.75-2.457c1.955-3.511,2.634-7.4,3.286-11.041l.062-.346.3.194a36.424,36.424,0,0,0,10.136,4.65,23.925,23.925,0,0,0,5.181.828,20.77,20.77,0,0,0,4.959-.446,26.118,26.118,0,0,0,8.365-3.41,18.969,18.969,0,0,0,8.51-10.54,40.043,40.043,0,0,0,1.225-4.417c.281-1.219.469-2.165.606-2.8.066-.3.118-.541.158-.723a1.208,1.208,0,0,1,.067-.242" transform="translate(-11.636 -19.919)" fill="#1969d5"/>
              <path id="Trazado_810466" data-name="Trazado 810466" d="M255.248,128.349a3.024,3.024,0,0,1,.623.049c.2.026.456.052.752.1l1.008.235a15.794,15.794,0,0,1,5.789,2.989,21.943,21.943,0,0,1,5.917,7.431,27.576,27.576,0,0,1,1.945,5.229,11.957,11.957,0,0,1,.411,2.94,26.171,26.171,0,0,1-.278,3.026,15.609,15.609,0,0,1-1.962,5.67,14.344,14.344,0,0,1-3.893,4.132,25.485,25.485,0,0,1-8.766,4.118,24.958,24.958,0,0,1-6.553.622c-.777-.024-1.38-.065-1.786-.106a2.957,2.957,0,0,1-.618-.084,3.111,3.111,0,0,1,.624-.011c.408.01,1.009.021,1.783.016a26.685,26.685,0,0,0,6.464-.763,25.635,25.635,0,0,0,8.574-4.141,13.976,13.976,0,0,0,3.75-4.017,15.3,15.3,0,0,0,1.891-5.508c.911-4-.554-7.777-2-10.933a21.971,21.971,0,0,0-5.729-7.362,16.245,16.245,0,0,0-5.619-3.068l-.984-.275-.737-.143a3.052,3.052,0,0,1-.606-.144" transform="translate(-21.484 -15.986)" fill="#1969d5"/>
              <path id="Trazado_810467" data-name="Trazado 810467" d="M289.184,144.094a4.321,4.321,0,0,1,.554,1.059,9.985,9.985,0,0,1,.685,3.169,11.37,11.37,0,0,1-.762,4.749,10.965,10.965,0,0,1-3.544,4.8,12.945,12.945,0,0,1-2.742,1.584,11.7,11.7,0,0,1-2.845.86,9.648,9.648,0,0,1-5-.387,8.312,8.312,0,0,1-2.839-1.761,6.165,6.165,0,0,1-.61-.657c-.132-.157-.194-.244-.18-.255a8.79,8.79,0,0,1,.922.775,8.951,8.951,0,0,0,2.828,1.58,9.54,9.54,0,0,0,4.791.272,11.555,11.555,0,0,0,2.726-.853,12.846,12.846,0,0,0,2.635-1.533,10.767,10.767,0,0,0,3.425-4.579,11.507,11.507,0,0,0,.839-4.582,13.981,13.981,0,0,0-.888-4.241" transform="translate(-23.57 -17.948)" fill="#1969d5"/>
              <path id="Trazado_810468" data-name="Trazado 810468" d="M261.442,100.775a13.427,13.427,0,0,0-1.756-.281,9.2,9.2,0,0,0-2.159.137,10.791,10.791,0,0,0-2.785.973,13.018,13.018,0,0,0-5.581,5.621c-1.517,2.75-2.374,6.248-3.153,10.141l-.075.374-.213-.323a22.439,22.439,0,0,0-20.3-9.785,22.7,22.7,0,0,0-12.786,5.352,17.655,17.655,0,0,0-4.542,5.723,9.816,9.816,0,0,0-.785,7.236l.436,1.356-.855-1.158a19.872,19.872,0,0,0-14.376-7.674c-.729-.089-1.466-.048-2.2-.065a20.782,20.782,0,0,0-2.207.211,17.724,17.724,0,0,0-4.293,1.178,19.259,19.259,0,0,0-3.887,2.221,21.046,21.046,0,0,0-3.244,3.1,20.6,20.6,0,0,0-3.819,7.067,18.6,18.6,0,0,0-.605,7.735l.053.377-.374-.12a21.534,21.534,0,0,0-9.4-1.033,13.519,13.519,0,0,0-8.024,3.917,10.386,10.386,0,0,0-2.825,7.782,11.5,11.5,0,0,0,3.173,7.361,13.782,13.782,0,0,0,6.831,3.946,23.873,23.873,0,0,0,7.648.422,20.48,20.48,0,0,0,6.927-1.781,10.975,10.975,0,0,0,4.838-4.237l.118-.2.162.172a12.313,12.313,0,0,0,5.987,3.445,12.188,12.188,0,0,0,6.235-.076,10.053,10.053,0,0,0,4.586-2.757,11.214,11.214,0,0,0,2.318-3.793,10.34,10.34,0,0,0,.39-6.029,14.691,14.691,0,0,0-.729-2.016s.094.16.256.486a7.946,7.946,0,0,1,.568,1.507,10.294,10.294,0,0,1-.306,6.111,11.343,11.343,0,0,1-2.324,3.882,10.271,10.271,0,0,1-4.679,2.858,12.463,12.463,0,0,1-6.39.115,12.633,12.633,0,0,1-6.169-3.513l.279-.03a11.3,11.3,0,0,1-4.972,4.4,20.8,20.8,0,0,1-7.056,1.842,24.237,24.237,0,0,1-7.791-.411,14.213,14.213,0,0,1-7.053-4.054,11.927,11.927,0,0,1-3.3-7.623,10.826,10.826,0,0,1,2.934-8.108,13.991,13.991,0,0,1,8.307-4.071,22.018,22.018,0,0,1,9.624,1.045l-.321.256a19.027,19.027,0,0,1,.616-7.933,21.068,21.068,0,0,1,3.906-7.235,21.6,21.6,0,0,1,3.327-3.176,19.715,19.715,0,0,1,3.995-2.282,18.236,18.236,0,0,1,4.416-1.211,21.23,21.23,0,0,1,2.266-.214,22.565,22.565,0,0,1,2.26.067,20.336,20.336,0,0,1,14.722,7.882l-.419.2a10.236,10.236,0,0,1,.818-7.555,18.088,18.088,0,0,1,4.663-5.857,23.118,23.118,0,0,1,13.048-5.426,22.753,22.753,0,0,1,20.6,10.016l-.287.051c.8-3.89,1.685-7.417,3.243-10.192a13.157,13.157,0,0,1,5.721-5.655,10.821,10.821,0,0,1,2.839-.952,9.054,9.054,0,0,1,2.189-.1,6.866,6.866,0,0,1,1.317.233c.29.081.434.132.434.132" transform="translate(-13.108 -12.503)" fill="#1969d5"/>
              <path id="Trazado_810469" data-name="Trazado 810469" d="M246.847,143.543a7.582,7.582,0,0,1-.148,1.446,25.044,25.044,0,0,1-.865,3.881,10.871,10.871,0,0,1-3.144,5.065,13.294,13.294,0,0,1-6.99,2.659,14.688,14.688,0,0,1-7.454-.993,11.233,11.233,0,0,1-4.724-3.771,9.4,9.4,0,0,1-1.617-3.663,6.49,6.49,0,0,1-.123-1.076,1.061,1.061,0,0,1,.016-.377c.048,0,.072.516.3,1.415a9.96,9.96,0,0,0,1.715,3.507,11.144,11.144,0,0,0,4.621,3.563,14.471,14.471,0,0,0,7.211.92,13.056,13.056,0,0,0,6.746-2.515,10.805,10.805,0,0,0,3.111-4.838,31.582,31.582,0,0,0,1.009-3.809,8.869,8.869,0,0,1,.339-1.415" transform="translate(-19.225 -17.88)" fill="#1969d5"/>
              <path id="Trazado_810470" data-name="Trazado 810470" d="M238.429,90.5a8.361,8.361,0,0,1-1.087.468c-.711.289-1.746.716-3.02,1.314a18.774,18.774,0,0,0-4.273,2.525,5.458,5.458,0,0,0-1.634,2.354,3.63,3.63,0,0,0,.186,2.983l-.392.24a13.039,13.039,0,0,0-7.12-4.24,31.082,31.082,0,0,0-9.451-1.122,15.149,15.149,0,0,0-7.248,2.434,15.6,15.6,0,0,0-3.793,3.466c-.743.96-1.068,1.551-1.111,1.529a1.855,1.855,0,0,1,.207-.443,10.679,10.679,0,0,1,.746-1.193,14.678,14.678,0,0,1,3.749-3.635,15.235,15.235,0,0,1,7.413-2.6,23.257,23.257,0,0,1,4.692.157,36.418,36.418,0,0,1,4.933.945,13.365,13.365,0,0,1,7.359,4.436l-.392.24A4.029,4.029,0,0,1,228,97.034a5.826,5.826,0,0,1,1.782-2.5,18.233,18.233,0,0,1,4.416-2.493c1.3-.567,2.356-.956,3.087-1.2a6.3,6.3,0,0,1,1.143-.332" transform="translate(-17.293 -11.273)" fill="#1969d5"/>
              <path id="Trazado_810471" data-name="Trazado 810471" d="M151.584,124.767a7.326,7.326,0,0,1-1.211-1.835,10.636,10.636,0,0,1-.97-5.888,10.8,10.8,0,0,1,1.3-4.015,9.771,9.771,0,0,1,3.469-3.549,11.548,11.548,0,0,1,5.4-1.63,10.907,10.907,0,0,1,5.967,1.377l-.33.335a11.234,11.234,0,0,1-1.952-5.126,17.369,17.369,0,0,1,3.5-12.558,16.707,16.707,0,0,1,16.662-6.23,13.4,13.4,0,0,1,1.97.573,3.953,3.953,0,0,1,.653.285c-.019.052-.924-.345-2.662-.676a16.787,16.787,0,0,0-7.4.323,16.244,16.244,0,0,0-8.852,5.983,17.054,17.054,0,0,0-3.377,12.239,10.83,10.83,0,0,0,1.862,4.918l.637.884-.965-.549a10.46,10.46,0,0,0-5.688-1.33,11.157,11.157,0,0,0-5.192,1.532,9.448,9.448,0,0,0-3.363,3.377,10.616,10.616,0,0,0-1.316,3.873,10.775,10.775,0,0,0,.808,5.783c.578,1.276,1.1,1.873,1.051,1.9" transform="translate(-12.945 -10.625)" fill="#1969d5"/>
              <path id="Trazado_810472" data-name="Trazado 810472" d="M100.489,143.4c0-.016.1-.01.282.017a3.1,3.1,0,0,1,.775.227,4.71,4.71,0,0,1,2.17,1.936,5.286,5.286,0,0,1,.6,4.166,7.5,7.5,0,0,1-3.166,4.165,11.651,11.651,0,0,1-5.083,1.7,17.841,17.841,0,0,1-4.387.016,7.047,7.047,0,0,1-2.791-.952,2.529,2.529,0,0,1-.811-.692,7.785,7.785,0,0,0,3.649,1.311,18.906,18.906,0,0,0,4.28-.117,11.533,11.533,0,0,0,4.86-1.656,7.2,7.2,0,0,0,3.007-3.885,5.039,5.039,0,0,0-.461-3.89,4.75,4.75,0,0,0-1.949-1.933c-.6-.3-.983-.364-.972-.411" transform="translate(-7.635 -17.86)" fill="#1969d5"/>
              <path id="Trazado_810473" data-name="Trazado 810473" d="M139.877,216.01a3.022,3.022,0,0,1-.733-.483,10.6,10.6,0,0,1-1.635-1.716,14.616,14.616,0,0,1-2.839-7.11,13.817,13.817,0,0,1,.13-4.228,13.205,13.205,0,0,1,1.1-3.286,6.28,6.28,0,0,1,1.839-2.618,6.081,6.081,0,0,1-.469.711,13.329,13.329,0,0,0-1.047,2.04,13.8,13.8,0,0,0-1.059,7.326,15.438,15.438,0,0,0,2.633,6.971,21.764,21.764,0,0,0,2.081,2.393" transform="translate(-11.665 -24.484)" fill="#1969d5"/>
              <path id="Trazado_810474" data-name="Trazado 810474" d="M175.79,206.007a4.43,4.43,0,0,1,.6,1.789,10.1,10.1,0,0,1-.256,4.536,10.224,10.224,0,0,1-2.221,4.013,4.629,4.629,0,0,1-1.489,1.225c-.056-.062.5-.535,1.215-1.437a11.466,11.466,0,0,0,2.4-8.29c-.121-1.126-.336-1.81-.255-1.834" transform="translate(-14.947 -25.66)" fill="#e8505b"/>
              <path id="Trazado_810475" data-name="Trazado 810475" d="M214.667,193.839a3.039,3.039,0,0,1,.388.844,15.279,15.279,0,0,1,.664,2.43,17.912,17.912,0,0,1-.384,8.249,18.158,18.158,0,0,1-4.112,7.258,15.635,15.635,0,0,1-1.89,1.741,3.231,3.231,0,0,1-.791.524c-.059-.067,1.025-.87,2.414-2.484a19.355,19.355,0,0,0,3.9-7.166,19.161,19.161,0,0,0,.515-8.069c-.311-2.07-.79-3.3-.7-3.328" transform="translate(-18.078 -24.144)" fill="#1969d5"/>
              <path id="Trazado_810476" data-name="Trazado 810476" d="M259.72,179.492c.03-.016.183.2.435.616a16.145,16.145,0,0,1,.936,1.813,23.309,23.309,0,0,1,1.735,13.112,16.152,16.152,0,0,1-.432,1.98,2.168,2.168,0,0,1-.259.7c-.081-.018.155-1.046.342-2.724a27.031,27.031,0,0,0-1.712-12.943c-.62-1.58-1.119-2.518-1.045-2.555" transform="translate(-22.514 -22.357)" fill="#1969d5"/>
              <path id="Trazado_810477" data-name="Trazado 810477" d="M188.294,64.615a19.935,19.935,0,0,0-5.619-3.412,23.531,23.531,0,0,0-6.421-2.143c-6-.856-11.8,2.321-15.8,6.049s-7.039,8.183-11.722,11.346l12.115-.192c3.636-.058,7.384-.135,10.711-1.327,4.236-1.517,7.457-5.262,12.059-5.676a26.278,26.278,0,0,1,7.5.9,9.461,9.461,0,0,0-2.822-5.542m-12.25,4.572a1.827,1.827,0,0,1-1.082.229,3.763,3.763,0,0,0-.939-.036c-.728.139-1.108.926-1.721,1.336a1.656,1.656,0,0,1-1.724.081,1.3,1.3,0,0,1-.561-1.553,1.921,1.921,0,0,1,.5-.646,5.408,5.408,0,0,1,1.824-1.1,3.092,3.092,0,0,1,2.908-.439c.62.177,1.3.573,1.329,1.207a1.067,1.067,0,0,1-.532.917" transform="translate(-12.893 -7.339)" fill="#288640"/>
              <path id="Trazado_810478" data-name="Trazado 810478" d="M164.771,69.936c-.008-.018.268-.135.746-.435s1.161-.777,2-1.435c.866-.642,1.81-1.523,3.05-2.448a13.6,13.6,0,0,1,4.781-2.169,12.514,12.514,0,0,1,3.078-.336,15.615,15.615,0,0,1,3.322.456A20.055,20.055,0,0,1,188.4,66.59a20.955,20.955,0,0,1,5.57,5.67,33.613,33.613,0,0,1,3.794,7.526c1.977,5.422,2.918,10.812,4.014,15.632l2.781,12.857,1.833,8.676q.3,1.493.474,2.364c.045.248.08.45.11.617a.648.648,0,0,1,.021.214.73.73,0,0,1-.07-.2c-.044-.165-.1-.364-.16-.608q-.207-.863-.564-2.345l-1.988-8.644c-.824-3.667-1.8-8.014-2.886-12.837-1.121-4.82-2.075-10.2-4.034-15.563-1.949-5.323-4.95-10.165-9.163-13a19.755,19.755,0,0,0-6.483-2.995,13.043,13.043,0,0,0-6.216-.174,13.478,13.478,0,0,0-4.7,2.056c-1.221.877-2.216,1.762-3.1,2.378a19.932,19.932,0,0,1-2.072,1.371,5.959,5.959,0,0,1-.585.285.771.771,0,0,1-.213.068" transform="translate(-14.283 -7.861)" fill="#263238"/>
              <path id="Trazado_810479" data-name="Trazado 810479" d="M224.2,84.726a7.426,7.426,0,0,0,.469,6.4c1.188,1.812,3.315,2.756,5.273,3.729a53.3,53.3,0,0,1,8.55,5.309c.58-1.176.137-2.571-.343-3.79q-.625-1.589-1.322-3.149c-1.178-2.642-2.581-5.309-4.894-7.088s-5.3-3.015-7.733-1.407" transform="translate(-19.392 -10.46)" fill="#288640"/>
              <path id="Trazado_810480" data-name="Trazado 810480" d="M229.551,90.029c-.034.022-.332-.4-.937-1.1A15.911,15.911,0,0,0,225.72,86.3a12.231,12.231,0,0,0-5.373-2.161,10.177,10.177,0,0,0-6.845,1.389,13.651,13.651,0,0,0-4.479,5.316,41.184,41.184,0,0,0-2.274,5.274,16.312,16.312,0,0,0-.847,3.745c-.082.9-.057,1.411-.1,1.413a1.047,1.047,0,0,1-.066-.365,8.1,8.1,0,0,1-.028-1.059,14.419,14.419,0,0,1,.7-3.834,37.322,37.322,0,0,1,2.2-5.369,13.8,13.8,0,0,1,4.612-5.517,10.525,10.525,0,0,1,7.189-1.428,12.275,12.275,0,0,1,5.517,2.326,14.181,14.181,0,0,1,2.835,2.791,9.709,9.709,0,0,1,.612.88c.128.209.187.323.173.332" transform="translate(-17.832 -10.41)" fill="#263238"/>
              <path id="Trazado_810481" data-name="Trazado 810481" d="M146.8,136a4.443,4.443,0,0,0-6.719.968,8.146,8.146,0,0,0-.716,2.859,5.663,5.663,0,0,0,.016,2.194,8.845,8.845,0,0,1,.323,1.073,3.265,3.265,0,0,1-.172,1.336,7.2,7.2,0,0,0-.4,2.173,2.134,2.134,0,0,0,1.031,1.857,2.436,2.436,0,0,1,.8.438,1.33,1.33,0,0,1,.227.864l.1,3.567a5.326,5.326,0,0,0,2.239-5.314,9.755,9.755,0,0,1-.346-1.823c0-1.359,1.1-2.571.986-3.925-.1-1.266-1.228-2.242-1.5-3.484a2.756,2.756,0,0,1,.955-2.67,2.872,2.872,0,0,1,2.851-.395" transform="translate(-12.061 -16.8)" fill="#288640"/>
              <path id="Trazado_810482" data-name="Trazado 810482" d="M201.321,91.543a4.994,4.994,0,0,0-8.375.709,9.925,9.925,0,0,1-1.284,2.5c-1.182,1.237-3.377,1.041-4.569,2.269a3.7,3.7,0,0,0-.822,1.521,7.372,7.372,0,0,0,.842,6.07c.832,1.293,2.094,2.379,2.456,3.867.469,1.923-.638,4.25.643,5.776a10.809,10.809,0,0,0,2.609-11.411,3.475,3.475,0,0,1-.365-1.514c.165-1.773,2.909-1.872,4.038-3.264.823-1.015.6-2.463.65-3.759s.785-2.871,2.1-2.808c.882.042,1.923.793,2.509.143" transform="translate(-16.12 -11.16)" fill="#288640"/>
              <path id="Trazado_810483" data-name="Trazado 810483" d="M226.722,137.883c-.4.648-.8,1.508-.333,2.112.211.271.555.414.779.675.521.608.2,1.517-.073,2.266s-.36,1.783.36,2.144a4.245,4.245,0,0,0,1.4.129,2.186,2.186,0,0,1,1.687,1.609,6.235,6.235,0,0,1,.074,2.428c1.364-.661,1.744-2.38,1.815-3.872a2.661,2.661,0,0,0-.516-2.057c-.215-.215-.5-.36-.692-.591-.5-.594-.263-1.475-.061-2.221s.254-1.713-.418-2.112c-.448-.264-1.107-.184-1.414-.6-.441-.6.5-1.425-.183-1.731" transform="translate(-19.607 -16.948)" fill="#288640"/>
              <path id="Trazado_810484" data-name="Trazado 810484" d="M258.109,144.17a15.864,15.864,0,0,0-11.463-10.026,8.444,8.444,0,0,0-6.438.807l-.426.153c-.3,2.728-.541,5.718,1.029,7.986,2.5,3.606,8.246,3.59,11.067,6.955,2.081,2.481,1.981,6.088,3.458,8.957a15.463,15.463,0,0,0,2.772-14.832m-12.5-2.634A1.8,1.8,0,0,1,243.8,142.8a2.188,2.188,0,0,1-1.838-1.334,2.719,2.719,0,0,1,.147-2.288l.09.168a2.222,2.222,0,0,1,2.849.385,2.006,2.006,0,0,1,.564,1.806" transform="translate(-20.767 -16.675)" fill="#288640"/>
              <path id="Trazado_810485" data-name="Trazado 810485" d="M250.587,145.375a2.159,2.159,0,0,1-.319-.418l-.844-1.236a28.451,28.451,0,0,0-3.45-4.266,19.942,19.942,0,0,0-7.054-4.117,15.3,15.3,0,0,0-4.763-.943,10.185,10.185,0,0,0-5,1.166c-3.161,1.675-5.3,4.43-7.024,6.923a43.486,43.486,0,0,0-3.912,7.082,46.67,46.67,0,0,0-1.868,5.113c-.369,1.231-.54,1.922-.581,1.913a2,2,0,0,1,.071-.513c.058-.334.169-.822.322-1.448a38.647,38.647,0,0,1,1.729-5.191,41.424,41.424,0,0,1,3.853-7.194c1.719-2.528,3.875-5.352,7.173-7.1a10.64,10.64,0,0,1,5.245-1.213,15.585,15.585,0,0,1,4.914,1,19.8,19.8,0,0,1,7.146,4.294,25.46,25.46,0,0,1,3.362,4.4c.344.552.6.987.765,1.286a2.06,2.06,0,0,1,.233.467" transform="translate(-18.704 -16.681)" fill="#263238"/>
              <path id="Trazado_810486" data-name="Trazado 810486" d="M177.041,169.194c.078.048.148.107.225.157.085-.025.169-.053.255-.076Z" transform="translate(-15.347 -21.075)" fill="#455a64"/>
              <path id="Trazado_810487" data-name="Trazado 810487" d="M181.109,190.231c-.127-1.463-.442-2.908-.5-4.375-.11-2.9.792-5.786.491-8.67a10.81,10.81,0,0,0-4.831-7.812,15.013,15.013,0,0,0-9.422,8.052,14.589,14.589,0,0,0,.277,12.506c.881,1.728,2.139,3.368,2.287,5.3.147,1.907-.826,3.71-1.144,5.6-.65,3.851,1.442,7.581,3.458,10.946a6.64,6.64,0,0,1,1.628-5.2c1.158-1.484,2.639-2.694,3.868-4.12a16.686,16.686,0,0,0,3.886-12.219m-3.652-5.3a2.249,2.249,0,0,1-.856.763,1.112,1.112,0,0,1-1.11-.074,1.661,1.661,0,0,1-.447-.656,10.158,10.158,0,0,1-.481-1.148,5.142,5.142,0,0,1,.989-4.866l-.018-.05a2.137,2.137,0,0,1,1.763.754,3.877,3.877,0,0,1,1.038,2.6,4.482,4.482,0,0,1-.879,2.675" transform="translate(-14.353 -21.097)" fill="#288640"/>
              <path id="Trazado_810488" data-name="Trazado 810488" d="M172.428,182.444a2.208,2.208,0,0,1,.033-.545c.038-.355.1-.877.2-1.548a51.624,51.624,0,0,1,1.135-5.64,29.23,29.23,0,0,1,3.289-7.924,18.7,18.7,0,0,1,7.779-7.243,12.76,12.76,0,0,1,17.193,5.233,33.952,33.952,0,0,1,2.555,5.2c.252.633.439,1.128.558,1.465a2.27,2.27,0,0,1,.158.524,2.378,2.378,0,0,1-.252-.489c-.168-.375-.382-.848-.643-1.43a39.256,39.256,0,0,0-2.675-5.094,13.684,13.684,0,0,0-6.34-5.554,13.385,13.385,0,0,0-10.336.574,18.484,18.484,0,0,0-7.6,7.04,30,30,0,0,0-3.342,7.784c-.657,2.328-1.026,4.255-1.283,5.584-.121.623-.218,1.13-.295,1.532a2.245,2.245,0,0,1-.132.531" transform="translate(-14.947 -19.7)" fill="#263238"/>
              <path id="Trazado_810489" data-name="Trazado 810489" d="M122.322,122.479a18.889,18.889,0,0,0-13.178,10.4,18.337,18.337,0,0,0,.791,16.589c1.564-2.143,2.377-4.714,3.628-7.046s3.17-4.573,5.8-5.1c2.2-.443,4.359-.45,6.543-.953a10.029,10.029,0,0,0,5.88-3.8c1.558-2,3.606-3.114,5.164-5.116-3.078-4.444-9.271-6.064-14.626-4.965m-6.532,12.256a1.3,1.3,0,0,1-.42.509,1.089,1.089,0,0,1-1.325-.165,1.316,1.316,0,0,1-.279-1.328.816.816,0,0,1,.829-.624l-.139.221a.814.814,0,0,1,1.282-.028,1.334,1.334,0,0,1,.051,1.416m11.146-2.165a4.379,4.379,0,0,1-2.687,1.5A9.287,9.287,0,0,1,121.1,134a2.647,2.647,0,0,1-1.328-.491,1.389,1.389,0,0,1-.34-1.623.559.559,0,0,1,.2-.248.7.7,0,0,1,.385-.063,4.719,4.719,0,0,0,2.489-.294,5.588,5.588,0,0,0,1.4-1.5,2.558,2.558,0,0,1,1.219-.889.576.576,0,0,1-.186-.042l.406,0a1.218,1.218,0,0,1,.265,0,2.486,2.486,0,0,1,.446-.076,1.451,1.451,0,0,1,1.255.87,2.8,2.8,0,0,1-.384,2.923" transform="translate(-9.322 -15.214)" fill="#288640"/>
              <path id="Trazado_810490" data-name="Trazado 810490" d="M119.141,130.194c-.011-.012.1-.115.321-.3a11.553,11.553,0,0,1,1-.768,16.573,16.573,0,0,1,4.2-2.053,18.545,18.545,0,0,1,6.928-.9,17.628,17.628,0,0,1,8.155,2.455,19.974,19.974,0,0,1,6.04,5.814,33.02,33.02,0,0,1,3.195,5.959c.736,1.771,1.233,3.236,1.548,4.256.164.508.27.908.345,1.178a1.412,1.412,0,0,1,.086.421,11.7,11.7,0,0,1-.616-1.542c-.37-1-.916-2.443-1.689-4.185a34.952,34.952,0,0,0-3.25-5.844,19.969,19.969,0,0,0-5.923-5.655,17.476,17.476,0,0,0-7.92-2.42,18.733,18.733,0,0,0-6.789.782,21.491,21.491,0,0,0-5.631,2.8" transform="translate(-10.328 -15.712)" fill="#263238"/>
              <path id="Trazado_810491" data-name="Trazado 810491" d="M275.035,106.87a12.192,12.192,0,0,0,8.9,1.468c2.523-.564,4.982-1.946,7.534-1.52,1.965.328,3.676,1.709,5.668,1.784,2.736.1,5-2.255,7.722-2.528a10.5,10.5,0,0,1,5.348,1.413c.485-1.907-.966-3.715-2.316-5.164-2.719-2.92-5.686-5.988-9.611-6.879-4.329-.984-8.781.913-13.223.912a15.059,15.059,0,0,0-3.118.109,10.064,10.064,0,0,0-4.388,2.717,8.232,8.232,0,0,0-2.7,3.473c-.4,1.31-.11,2.742-.46,4.065" transform="translate(-23.786 -11.853)" fill="#288640"/>
              <path id="Trazado_810492" data-name="Trazado 810492" d="M299.7,102.656c-.017.047-.7-.206-1.975-.515a25.674,25.674,0,0,0-5.492-.737,28.6,28.6,0,0,0-8.137.955,31.919,31.919,0,0,0-9.117,4.011A45.906,45.906,0,0,0,262.3,118.928a21.943,21.943,0,0,0-2.617,4.685c-.448,1.183-.556,1.88-.6,1.871a1.889,1.889,0,0,1,.051-.509,10.557,10.557,0,0,1,.367-1.422,20.065,20.065,0,0,1,2.5-4.81,44.269,44.269,0,0,1,12.7-12.771,31.657,31.657,0,0,1,9.272-4.038,28.022,28.022,0,0,1,8.27-.868,23.456,23.456,0,0,1,5.53.9,14.059,14.059,0,0,1,1.439.482,2.147,2.147,0,0,1,.484.211" transform="translate(-22.458 -12.585)" fill="#263238"/>
            </g>
          </g>
          <g id="Grupo_1067863" data-name="Grupo 1067863">
            <g id="Grupo_1067862" data-name="Grupo 1067862" clip-path="url(#clip-path-2)">
              <path id="Trazado_810493" data-name="Trazado 810493" d="M381.885,340.937l4.458,16.044s-15.516,9.732-14.994,12.774l32.765-7.168-5.875-25.272Z" transform="translate(-32.19 -42.016)" fill="#727997"/>
              <path id="Trazado_810494" data-name="Trazado 810494" d="M398.376,355.691a1.342,1.342,0,0,1,1.274,1.262,1.293,1.293,0,0,1-1.293,1.22,1.414,1.414,0,0,1-1.342-1.342,1.36,1.36,0,0,1,1.492-1.128" transform="translate(-34.416 -44.303)" fill="#e0e0e0"/>
              <g id="Grupo_1067861" data-name="Grupo 1067861" transform="translate(339.083 318.047)" opacity="0.6">
                <g id="Grupo_1067860" data-name="Grupo 1067860">
                  <g id="Grupo_1067859" data-name="Grupo 1067859" clip-path="url(#clip-path-9)">
                    <path id="Trazado_810495" data-name="Trazado 810495" d="M404.108,365.824l-.7-2.525-31.155,7.817s-1.314.927-.915,1.876Z" transform="translate(-371.267 -363.299)" fill="#fff"/>
                  </g>
                </g>
              </g>
              <path id="Trazado_810496" data-name="Trazado 810496" d="M387.144,359.686c.042.152.859.046,1.763.368.913.3,1.478.874,1.61.781.141-.062-.316-.927-1.418-1.3s-2.023.015-1.954.148" transform="translate(-33.56 -44.764)" fill="#263238"/>
              <path id="Trazado_810497" data-name="Trazado 810497" d="M383.737,362.127c0,.157.753.266,1.452.8.712.509,1.017,1.181,1.174,1.14.156-.009.054-.931-.827-1.574s-1.831-.509-1.8-.362" transform="translate(-33.265 -45.091)" fill="#263238"/>
              <path id="Trazado_810498" data-name="Trazado 810498" d="M382.447,366.8c.153,0,.194-.814-.417-1.564s-1.438-.92-1.476-.777c-.06.145.532.49,1.024,1.114.507.611.707,1.247.87,1.228" transform="translate(-32.989 -45.39)" fill="#263238"/>
              <path id="Trazado_810499" data-name="Trazado 810499" d="M386.494,355.291c.1.125.784-.247,1.7-.386.915-.157,1.688-.02,1.741-.17.066-.13-.756-.548-1.836-.37s-1.715.823-1.607.926" transform="translate(-33.503 -44.134)" fill="#263238"/>
              <path id="Trazado_810500" data-name="Trazado 810500" d="M340.806,123.989l-16.3,54.913,12.8,2.393,8.453-27.681Z" transform="translate(-28.131 -15.444)" fill="#f5f5f5"/>
              <path id="Trazado_810501" data-name="Trazado 810501" d="M340.776,123.989c.286,1.641,2.1,12.048,5.162,29.594l.008.044-.014.045c-2.442,8.033-5.322,17.506-8.417,27.69l-.063.208-.222-.042-5.5-1.027-7.3-1.367-.264-.05.074-.248c4.61-15.536,8.8-29.325,11.783-39.146l4.753-15.7L336.119,140c-2.874,9.9-6.83,23.568-11.4,38.97l-.19-.3,7.3,1.364,5.5,1.029-.286.166c3.123-10.176,6.027-19.642,8.489-27.669l-.005.088-4.747-29.658" transform="translate(-28.101 -15.444)" fill="#e0e0e0"/>
              <path id="Trazado_810502" data-name="Trazado 810502" d="M419.494,230.665s-1.172,4.6-8.078,5.5c-20.812,2.693-33.168,17.8-33.168,17.8l5.38-16.836,20.037-13.385,12.826,3.855Z" transform="translate(-32.789 -27.869)" fill="#e0e0e0"/>
              <path id="Trazado_810503" data-name="Trazado 810503" d="M388.515,261.6c-3.471-13.306-5.952-20.446-5.952-20.446s.4-56.676,0-61.384c-.956-11.382-7.646-24.428-8.514-26.092l-32.983,7.414,2.113,15.776,8.308,69.285,28.548,79.276,19.607-2.929s-7.658-47.594-11.129-60.9" transform="translate(-29.566 -19.142)" fill="#263238"/>
              <path id="Trazado_810504" data-name="Trazado 810504" d="M356.95,82.434l1.21.262L370.4,85.345s2.6,29.938,3.037,33.681-4.989,11.228-4.989,11.228,4.989,2.911,6.337,6.653,0,10.12,0,10.12l-7.434,6.353A26.024,26.024,0,0,1,356.7,158.83l-15.5,3.848s-1.795-32.667-6.542-45.751c-3.163-8.716,5.511-27.5,5.511-27.5l10.688-6.99" transform="translate(-28.951 -10.268)" fill="#74c67b"/>
              <path id="Trazado_810505" data-name="Trazado 810505" d="M349.487,117.482a61.77,61.77,0,0,1-7.643.6,61.82,61.82,0,0,1-7.668.126,61.64,61.64,0,0,1,7.643-.6,61.9,61.9,0,0,1,7.667-.125" transform="translate(-28.969 -14.625)" fill="#fff"/>
              <path id="Trazado_810506" data-name="Trazado 810506" d="M352.121,136.4a96.861,96.861,0,0,1-13.54,1.216,96.878,96.878,0,0,1,13.54-1.216" transform="translate(-29.351 -16.984)" fill="#fff"/>
              <path id="Trazado_810507" data-name="Trazado 810507" d="M355.251,157.6a7.134,7.134,0,0,1-1.926.876,24.326,24.326,0,0,1-5,1.186,24.6,24.6,0,0,1-5.147.123,7.274,7.274,0,0,1-2.1-.358,59.306,59.306,0,0,0,7.181-.237,59.062,59.062,0,0,0,6.989-1.59" transform="translate(-29.567 -19.629)" fill="#fff"/>
              <path id="Trazado_810508" data-name="Trazado 810508" d="M336.408,66.173a8.492,8.492,0,0,1-4.158-5.052c-.767-2.077-1.122-4.284-1.975-6.331-.637-1.526.063-3.959-1.365-4.866-1.788-1.135-1.769-4.145-1.079-5.649.752-1.636,2.79-2.853,2.929-3.371.363-1.361-.872-2.836-.414-4.171a3.536,3.536,0,0,1,3.745-2.723,10.773,10.773,0,0,1,5.525-3.936c2.891-.717,7.151-1.248,9.724.2s4.462,2.421,5.294,5.169" transform="translate(-28.381 -3.657)" fill="#263238"/>
              <path id="Trazado_810509" data-name="Trazado 810509" d="M359.288,40.207a2.857,2.857,0,0,1,2.619,2.859l-1.751,38c-.073,4.488-6.917,7.009-11.929,6.9-5.062-.113-5.225-2.492-5.288-6.762-.106-7.132-.1-9.81-.1-9.769,0,0-6.394-1.031-7.7-9.034-.649-3.979-.426-10.5-.063-15.831.327-4.8,3.657-10.679,8.645-10.162Z" transform="translate(-29.016 -4.53)" fill="#d38d6e"/>
              <path id="Trazado_810510" data-name="Trazado 810510" d="M336.892,54.114a1.046,1.046,0,0,0,1.03,1.037,1.01,1.01,0,0,0,1.105-.923A1.047,1.047,0,0,0,338,53.191a1.011,1.011,0,0,0-1.107.924" transform="translate(-29.204 -6.625)" fill="#263238"/>
              <path id="Trazado_810511" data-name="Trazado 810511" d="M336.715,51.74c.132.134.944-.439,2.1-.434,1.151-.01,1.995.559,2.12.425.061-.06-.073-.3-.44-.559a3.028,3.028,0,0,0-1.7-.505,2.9,2.9,0,0,0-1.669.513c-.354.259-.475.5-.41.561" transform="translate(-29.187 -6.311)" fill="#263238"/>
              <path id="Trazado_810512" data-name="Trazado 810512" d="M349.084,54.114a1.046,1.046,0,0,0,1.029,1.037,1.009,1.009,0,0,0,1.105-.923,1.046,1.046,0,0,0-1.028-1.038,1.011,1.011,0,0,0-1.106.924" transform="translate(-30.261 -6.625)" fill="#263238"/>
              <path id="Trazado_810513" data-name="Trazado 810513" d="M349.109,52c.132.134.946-.439,2.1-.434,1.15-.011,1.994.559,2.119.425.062-.06-.071-.3-.44-.559a3.027,3.027,0,0,0-1.7-.505,2.908,2.908,0,0,0-1.67.513c-.353.259-.475.5-.41.561" transform="translate(-30.262 -6.344)" fill="#263238"/>
              <path id="Trazado_810514" data-name="Trazado 810514" d="M344.236,60.188a7.875,7.875,0,0,0-1.87-.327c-.294-.03-.573-.087-.622-.278a1.392,1.392,0,0,1,.2-.835l.875-2.145a35.837,35.837,0,0,0,1.966-5.611,36.206,36.206,0,0,0-2.433,5.446q-.438,1.129-.837,2.157a1.571,1.571,0,0,0-.155,1.106.728.728,0,0,0,.482.413,2.063,2.063,0,0,0,.5.068,7.815,7.815,0,0,0,1.9.006" transform="translate(-29.587 -6.351)" fill="#263238"/>
              <path id="Trazado_810515" data-name="Trazado 810515" d="M343.61,76.013a21.985,21.985,0,0,0,11.183-2.834s-2.832,5.64-11.183,4.874Z" transform="translate(-29.786 -9.115)" fill="#b26746"/>
              <path id="Trazado_810516" data-name="Trazado 810516" d="M345.03,64.431a2.117,2.117,0,0,1,1.862-.734,1.917,1.917,0,0,1,1.306.675,1.111,1.111,0,0,1,.089,1.316,1.433,1.433,0,0,1-1.511.363,4.415,4.415,0,0,1-1.47-.846,1.253,1.253,0,0,1-.328-.327.357.357,0,0,1,0-.411" transform="translate(-29.9 -7.932)" fill="#b26746"/>
              <path id="Trazado_810517" data-name="Trazado 810517" d="M347.874,62.377c-.187-.011-.193,1.187-1.265,2.035s-2.4.713-2.412.882c-.017.075.3.233.859.249a3.2,3.2,0,0,0,2.014-.667,2.571,2.571,0,0,0,.98-1.707c.049-.5-.09-.8-.175-.791" transform="translate(-29.837 -7.77)" fill="#263238"/>
              <path id="Trazado_810518" data-name="Trazado 810518" d="M348.627,47.843c.113.3,1.263.16,2.614.32,1.354.133,2.443.515,2.623.246.08-.129-.11-.411-.549-.7a4.746,4.746,0,0,0-3.99-.431c-.5.19-.746.425-.7.568" transform="translate(-30.221 -5.857)" fill="#263238"/>
              <path id="Trazado_810519" data-name="Trazado 810519" d="M336.462,48.292c.2.252,1-.006,1.95-.017.954-.042,1.762.172,1.948-.09.082-.127-.045-.378-.4-.616a2.925,2.925,0,0,0-3.141.087c-.338.256-.449.515-.36.636" transform="translate(-29.164 -5.873)" fill="#263238"/>
              <path id="Trazado_810520" data-name="Trazado 810520" d="M354.178,35.39a5.463,5.463,0,0,1-2.045,4.219,5.978,5.978,0,0,1-4.691,1.186c-1.275-.223-2.672-.841-3.777-.19-1.161.685-1.208,2.362-2.238,3.218-1.471,1.224-3.81.076-5.678.607-1.442.41-2.344,1.732-3.3,2.843s-2.393,2.168-3.835,1.758a15.592,15.592,0,0,1,.572-3.688,5.46,5.46,0,0,1,2.186-3.005c.6-.374,1.29-.6,1.844-1.029,1.2-.926,1.475-2.539,2.214-3.832a6.275,6.275,0,0,1,4.767-3.032c1.641-.161,3.333.311,4.933-.075,1.183-.286,2.217-1.022,3.415-1.24,2.334-.425,4.5,1.18,6.2,2.779" transform="translate(-28.486 -4.118)" fill="#263238"/>
              <path id="Trazado_810521" data-name="Trazado 810521" d="M360.285,52.813a.886.886,0,0,1-.354,1.694c-2.8.608-3.174-4.641-2.547-6.142a15.963,15.963,0,0,1-2.815-2.835,10.907,10.907,0,0,1-1.29-5.434c-1.01.057-5.315-1.305-4.856-1.431,1.047-.287,3.187-.937,3.748-1.806a6.453,6.453,0,0,1,5.562-3.064,5.209,5.209,0,0,1,4.752,4,7.618,7.618,0,0,1,6.523,4.025,8.124,8.124,0,0,1-.236,7.843,4.047,4.047,0,0,0-.853,1.933c-.013.89.675,1.6,1.16,2.331a7.3,7.3,0,0,1,.2,6.951c-1.024,2.187-1.743,2.955-3.2,3.392-2.847.857.455,6.476-4.282,6.476" transform="translate(-30.201 -4.209)" fill="#263238"/>
              <path id="Trazado_810522" data-name="Trazado 810522" d="M361.265,57.708a2.438,2.438,0,0,1,3.562-1.986c.844.468,1.491,1.409,1.414,3.216-.208,4.818-5.212,3.625-5.215,3.487,0-.086.134-2.725.239-4.718" transform="translate(-31.296 -6.905)" fill="#d38d6e"/>
              <path id="Trazado_810523" data-name="Trazado 810523" d="M362.792,60.868c.023-.015.085.062.23.133a.908.908,0,0,0,.654.039,2.066,2.066,0,0,0,1.083-1.824A2.682,2.682,0,0,0,364.566,58a.985.985,0,0,0-.631-.67.453.453,0,0,0-.527.209c-.073.132-.045.229-.072.236s-.1-.085-.056-.282a.54.54,0,0,1,.211-.294.682.682,0,0,1,.49-.1,1.215,1.215,0,0,1,.883.783,2.754,2.754,0,0,1,.246,1.355,2.182,2.182,0,0,1-1.367,2.03.97.97,0,0,1-.8-.159c-.151-.125-.172-.234-.154-.242" transform="translate(-31.449 -7.111)" fill="#b26746"/>
              <path id="Trazado_810524" data-name="Trazado 810524" d="M368.117,52.109c-.027-.018.161-.27.4-.77a5.1,5.1,0,0,0,.454-2.245,4.649,4.649,0,0,0-1.3-3.067A5.148,5.148,0,0,0,366,44.863a6.171,6.171,0,0,0-2.171-.46c-1.55-.07-3.067.16-4.463,0a7.079,7.079,0,0,1-3.414-1.311,6.567,6.567,0,0,1-1.67-1.755,2.577,2.577,0,0,1-.384-.788,8.5,8.5,0,0,0,2.214,2.335,7.009,7.009,0,0,0,3.292,1.186c1.339.134,2.835-.1,4.447-.035a6.454,6.454,0,0,1,2.305.5,5.4,5.4,0,0,1,1.769,1.267,4.792,4.792,0,0,1,.72,5.6,2.308,2.308,0,0,1-.528.708" transform="translate(-30.678 -5.051)" fill="#455a64"/>
              <path id="Trazado_810525" data-name="Trazado 810525" d="M368.134,41.354a4.524,4.524,0,0,0-2.06-.578,7.014,7.014,0,0,0-2.309.375c-.849.266-1.754.67-2.77.976a6.57,6.57,0,0,1-2.994.249,6.275,6.275,0,0,1-2.288-.851,5.348,5.348,0,0,1-1.237-1.044A1.4,1.4,0,0,1,354.15,40a10.569,10.569,0,0,0,1.705,1.31,6.236,6.236,0,0,0,5.029.474c.982-.3,1.9-.691,2.776-.948a6.779,6.779,0,0,1,2.429-.312,3.681,3.681,0,0,1,1.586.455c.334.2.472.366.459.379" transform="translate(-30.7 -4.982)" fill="#455a64"/>
              <path id="Trazado_810526" data-name="Trazado 810526" d="M332.492,36.739a3.536,3.536,0,0,0,.574.77,3.382,3.382,0,0,0,2.45.793A6.012,6.012,0,0,0,338.98,36.6a17.1,17.1,0,0,1,3.9-3.026,4.831,4.831,0,0,1,2.623-.388,5.984,5.984,0,0,1,2.3.845,8.11,8.11,0,0,1,2.743,2.932,17.436,17.436,0,0,1,1.138,2.412,4.583,4.583,0,0,1,.311.921,5.05,5.05,0,0,1-.448-.867,23.1,23.1,0,0,0-1.233-2.337,8.112,8.112,0,0,0-2.7-2.776,5.71,5.71,0,0,0-2.165-.777,4.488,4.488,0,0,0-2.413.365,17.687,17.687,0,0,0-3.832,2.948,6.179,6.179,0,0,1-3.686,1.711,3.437,3.437,0,0,1-2.567-.952,1.99,1.99,0,0,1-.4-.619c-.054-.16-.075-.244-.062-.249" transform="translate(-28.822 -4.128)" fill="#455a64"/>
              <path id="Trazado_810527" data-name="Trazado 810527" d="M351.5,31.752a3.02,3.02,0,0,1,1.01.881,6.794,6.794,0,0,1,1.408,2.859,6.624,6.624,0,0,1-.055,3.162,2.876,2.876,0,0,1-.542,1.2,11.181,11.181,0,0,1,.279-1.256,7.636,7.636,0,0,0-.054-3.031,7.769,7.769,0,0,0-1.253-2.781,11.8,11.8,0,0,1-.795-1.035" transform="translate(-30.471 -3.955)" fill="#455a64"/>
              <path id="Trazado_810528" data-name="Trazado 810528" d="M259.213,24.908s-6.882,2.849-6.315,7.971a48.49,48.49,0,0,0,2.243,9.78s-10.806-7.877-21.374-4.7L233.7,40.3s7.589-.849,14.082,2.558,15,15.789,15,15.789l21.35-9.183-5.048-7.892s.706-7.48.827-9.569c.185-3.2-3.91-15.527-20.693-7.1m17.961,5.185c.221,1.823-1.385,4.558-1.385,4.558l-2.244-5.015L256.6,35.244s-3.056-4.849,3.145-8.02c3.64-1.862,7.621-2.042,10.22-2.161a7.3,7.3,0,0,1,6.262,2.8,4.8,4.8,0,0,1,.948,2.233" transform="translate(-20.258 -2.742)" fill="#1969d5"/>
              <path id="Trazado_810529" data-name="Trazado 810529" d="M282.587,21.486l-9.244-.4L265.76,24.24s.346,1.135,1.068,1.056a31.177,31.177,0,0,0,4.257-1.156l-2.418,2.026-.1,1.494s2.389,2.788,2.8,2.489a4,4,0,0,0,.831-1.294l1.662,2.29h2.6l1.188-1.538,1.26.979s3.238,2.816,5.1,2.166c1.076-.376,3.049,4.268,3.049,4.268l7.02-4.268-4.7-5.57Z" transform="translate(-23.038 -2.627)" fill="#d38d6e"/>
              <path id="Trazado_810530" data-name="Trazado 810530" d="M279.857,24.7a5.617,5.617,0,0,1-1.606.214l-1.734.1a3.3,3.3,0,0,0-.943.149,7.264,7.264,0,0,0-.905.513c-.626.4-1.2.8-1.714,1.188-.538.393-.946.714-.793,1.131.258.869.676,1.343.607,1.386-.034.035-.562-.344-.947-1.3a.936.936,0,0,1,.141-.9,4.168,4.168,0,0,1,.7-.662,18.11,18.11,0,0,1,1.73-1.246,6.731,6.731,0,0,1,1.008-.553,3.553,3.553,0,0,1,1.081-.15h1.759a5.443,5.443,0,0,1,1.614.123" transform="translate(-23.558 -3.061)" fill="#b26746"/>
              <path id="Trazado_810531" data-name="Trazado 810531" d="M277.247,32c-.069-.039.174-.468.568-1.128.1-.165.2-.348.294-.541a1.07,1.07,0,0,0,.095-.266c0-.025,0,.011,0,0a.477.477,0,0,0-.028-.057.531.531,0,0,0-.079-.105,1.169,1.169,0,0,0-1.326-.035l-.384.186-.293.142-.069-.325c-.064-.3-.127-.589-.189-.881-.077-.264-.215-.47-.357-.5l-.63-.128.58-.253c.579-.252,1.067-.451,1.413-.577a2.379,2.379,0,0,1,.425-.128c.121-.013.178.04.167.058a3.2,3.2,0,0,0-.482.281c-.314.189-.775.44-1.333.73l-.05-.381a1.042,1.042,0,0,1,.716.756l.234.968-.363-.182c.129-.067.264-.137.408-.2a2.211,2.211,0,0,1,.973-.221,1.3,1.3,0,0,1,.9.4.909.909,0,0,1,.139.207.854.854,0,0,1,.047.113.462.462,0,0,1,.008.185,1.289,1.289,0,0,1-.16.387,5.524,5.524,0,0,1-.366.545c-.481.629-.815.973-.865.946" transform="translate(-23.826 -3.414)" fill="#b26746"/>
              <path id="Trazado_810532" data-name="Trazado 810532" d="M279.225,22.52a29.321,29.321,0,0,1-5.074.237l.17-.065c-.162.143-.33.278-.5.413-1.238.954-2.4,1.754-3.243,2.327a6.516,6.516,0,0,1-1.425.858,31.6,31.6,0,0,1,4.354-3.555c.17-.131.334-.264.478-.387l.076-.066h.094a29.32,29.32,0,0,1,5.074.237" transform="translate(-23.331 -2.776)" fill="#b26746"/>
              <path id="Trazado_810533" data-name="Trazado 810533" d="M228.808,42.96a19.248,19.248,0,0,0-16.761,10.113,6.815,6.815,0,0,0-.893,4.43,3.366,3.366,0,0,0,3.335,2.72,4.263,4.263,0,0,0,2.706-1.673c2.122-2.488,2.947-5.727,4.2-8.708s3.282-6.016,6.5-6.905" transform="translate(-18.296 -5.348)" fill="#fff"/>
              <path id="Trazado_810534" data-name="Trazado 810534" d="M230.268,57.879a21.651,21.651,0,0,0-1.115-2.833,20.538,20.538,0,0,1-1.4-5.057l-.444.392A11.616,11.616,0,0,0,225.061,59a5.12,5.12,0,0,0,.69,2.075,2.644,2.644,0,0,0,1.81,1.224,2.6,2.6,0,0,0,2.535-1.458,4.223,4.223,0,0,0,.172-2.964" transform="translate(-19.5 -6.227)" fill="#fff"/>
              <path id="Trazado_810535" data-name="Trazado 810535" d="M220.069,67.193a12.023,12.023,0,0,0-3.047,2.417,3.816,3.816,0,0,0-.846,3.565,2.544,2.544,0,0,0,3.136,1.576c1.381-.552,1.681-2.32,1.434-3.735s-.831-2.855-.444-4.241" transform="translate(-18.726 -8.317)" fill="#fff"/>
              <path id="Trazado_810536" data-name="Trazado 810536" d="M374.172,138.673l-.067-.111.067.111L367.5,122.689l2.115-7.684-3.228-35.794-8.555-4.937-.41-3.186-2.345.376-3.884,3.426v0L318.84,61.1l-21.129-27.91-10.02,5.773,19.4,35.256,36.632,20.038-.078.243c.333.182,16.17,126.16,22.947,126.544s18.393-16.126,32.013-16.511c8.865-.249,11.957,1.29,13.038,2.4-4.713-8.6-36.731-67.026-37.472-68.258" transform="translate(-24.939 -4.134)" fill="#f5f5f5"/>
              <path id="Trazado_810537" data-name="Trazado 810537" d="M374.142,138.632s.239.4.683,1.191,1.1,1.978,1.962,3.52c1.718,3.107,4.245,7.676,7.5,13.559l27.49,49.907.565,1.026-.857-.828a8.016,8.016,0,0,0-3.81-1.718,27.451,27.451,0,0,0-4.393-.561,28.556,28.556,0,0,0-9.087.629,31.672,31.672,0,0,0-8.539,3.957c-2.708,1.709-5.294,3.69-7.913,5.717-1.312,1.011-2.633,2.036-4.011,3.019a23.327,23.327,0,0,1-4.445,2.61,6.474,6.474,0,0,1-2.627.551,1.084,1.084,0,0,1-.728-.282,2.989,2.989,0,0,1-.456-.522,8.035,8.035,0,0,1-.648-1.142A35.341,35.341,0,0,1,363.1,214.4c-1.886-6.638-3.25-13.579-4.616-20.688-2.673-14.232-5.038-29.214-7.37-44.742s-4.56-31.612-6.811-48.076q-.223-1.607-.445-3.21l-.227-1.6-.118-.8-.062-.4-.033-.2L343.4,94.6l-.008-.039s-.009-.034,0,0a.181.181,0,0,0,.1.1l-.113-.277.078-.243.114.277L306.943,74.383l-.062-.034-.033-.06-19.392-35.26-.1-.187.189-.109,10.023-5.768.18-.1.122.163,21.115,27.92-.085-.066,32.341,13.814-.255.193v0l-.019-.1.075-.066,3.887-3.422.039-.035.053-.009,2.345-.372.183-.029.022.175c.148,1.156.278,2.175.407,3.186l-.083-.122,8.55,4.945-.011-.006.09.127c1.277,14.412,2.344,26.464,3.171,35.8l0,.017,0,.018c-.878,3.161-1.534,5.527-2.132,7.679l0-.053c2.137,5.166,3.767,9.105,4.878,11.79s1.68,4.1,1.715,4.224l0,.019-.009-.017c-.061-.1-.062-.1-.067-.111l0,0,.066.112-.068-.11,0,0c0,.007.005.009.069.111l-.005,0c-.064-.114-.668-1.522-1.8-4.192l-4.957-11.761-.011-.026.008-.028c.588-2.155,1.234-4.523,2.1-7.688l0,.035c-.857-9.332-1.962-21.38-3.283-35.79l.09.126v0l-.012-.007-8.561-4.929-.072-.042-.01-.081c-.131-1.009-.263-2.028-.414-3.185l.2.146-2.345.377.091-.043-3.881,3.428.057-.162v0l.066.329-.32-.136L318.725,61.245l-.051-.022-.033-.044L297.5,33.28l.3.06-10.018,5.775.086-.3,19.413,35.25-.1-.095,36.634,20.034.174.095-.059.183-.078.243-.114-.277a.322.322,0,0,1,.12.148l.014.051.014.06.019.1.035.2.063.4.118.8.228,1.6q.222,1.6.445,3.212c2.251,16.464,4.483,32.545,6.8,48.071s4.681,30.507,7.339,44.731c1.359,7.1,2.717,14.045,4.588,20.653a35.056,35.056,0,0,0,1.7,4.8,7.7,7.7,0,0,0,.61,1.081c.236.325.509.654.84.623a6.034,6.034,0,0,0,2.445-.516,22.937,22.937,0,0,0,4.359-2.556c1.369-.973,2.689-1.994,4-3,2.622-2.023,5.22-4.01,7.952-5.73A32.081,32.081,0,0,1,394.087,205a19.767,19.767,0,0,1,4.636-.689c1.541-.037,3.069-.025,4.578.06a27.854,27.854,0,0,1,4.455.577,8.322,8.322,0,0,1,3.989,1.825l-.29.2L384.111,157c-3.216-5.9-5.715-10.486-7.413-13.6l-1.917-3.545c-.43-.8-.638-1.216-.638-1.216" transform="translate(-24.91 -4.093)" fill="#e0e0e0"/>
              <path id="Trazado_810538" data-name="Trazado 810538" d="M361.512,107.788a3.545,3.545,0,0,1-2.117-.265,43.883,43.883,0,0,1-4.724-1.9c-1.8-.83-3.4-1.618-4.573-2.174a10.731,10.731,0,0,1-1.866-.964,8.1,8.1,0,0,1,2.012.657c1.212.481,2.847,1.224,4.641,2.051s3.429,1.541,4.632,2.015a12.612,12.612,0,0,0,1.994.581" transform="translate(-30.187 -12.764)" fill="#263238"/>
              <path id="Trazado_810539" data-name="Trazado 810539" d="M370.637,93.412a21.815,21.815,0,0,0-.524-2.781,10.135,10.135,0,0,0-4.038-5.375,48.649,48.649,0,0,0-6.262-3.3,12.722,12.722,0,0,1-2.58-1.447c.037-.06,1.049.432,2.732,1.142a37.6,37.6,0,0,1,6.4,3.215,9.88,9.88,0,0,1,4.086,5.674,8.107,8.107,0,0,1,.27,2.1,2.02,2.02,0,0,1-.085.771" transform="translate(-30.967 -10.028)" fill="#263238"/>
              <path id="Trazado_810540" data-name="Trazado 810540" d="M372.943,142.906a12.844,12.844,0,0,1,.49-3.943,12.972,12.972,0,0,1,1.22-3.8,21.208,21.208,0,0,1-.733,3.895,21.288,21.288,0,0,1-.976,3.844" transform="translate(-32.325 -16.836)" fill="#263238"/>
              <path id="Trazado_810541" data-name="Trazado 810541" d="M378.189,163.7a4.7,4.7,0,0,1-1.319,1.459,11.1,11.1,0,0,1-4.311,2.159,11.409,11.409,0,0,1-4.862.17,5,5,0,0,1-1.9-.642c.029-.078.753.158,1.955.308a12.965,12.965,0,0,0,4.678-.3,12.66,12.66,0,0,0,4.218-1.961c.968-.7,1.475-1.25,1.54-1.2" transform="translate(-31.71 -20.389)" fill="#263238"/>
              <path id="Trazado_810542" data-name="Trazado 810542" d="M406.341,216.539a6.66,6.66,0,0,1-1.274.2c-.412.053-.918.1-1.508.123s-1.261.078-2,.057a39.094,39.094,0,0,1-5.211-.351,43.651,43.651,0,0,1-6.242-1.353,43.134,43.134,0,0,1-5.926-2.321,37.772,37.772,0,0,1-4.48-2.576c-.622-.391-1.141-.8-1.609-1.148s-.856-.66-1.162-.929a6.214,6.214,0,0,1-.927-.861c.062-.071,1.435,1.1,3.9,2.658a42.625,42.625,0,0,0,4.487,2.462,46.612,46.612,0,0,0,5.871,2.259,47.115,47.115,0,0,0,6.159,1.374,44,44,0,0,0,5.148.447c2.948.075,4.773-.13,4.782-.037" transform="translate(-32.594 -25.83)" fill="#263238"/>
              <path id="Trazado_810543" data-name="Trazado 810543" d="M420.241,231.354a1.346,1.346,0,0,1-.338-.235,8.324,8.324,0,0,0-.942-.676,12.089,12.089,0,0,0-3.985-1.532,24.091,24.091,0,0,0-6.387-.4,30.081,30.081,0,0,0-7.7,1.444c-5.334,1.711-9.3,4.928-12.111,7.171l-3.3,2.744a9.791,9.791,0,0,1-1.24.975,9.566,9.566,0,0,1,1.11-1.112c.739-.691,1.816-1.683,3.195-2.862a55.165,55.165,0,0,1,5.076-3.891,28.918,28.918,0,0,1,7.1-3.476,29.488,29.488,0,0,1,7.833-1.431,23.324,23.324,0,0,1,6.493.507,11.373,11.373,0,0,1,4.015,1.707,6.042,6.042,0,0,1,.9.757c.189.19.282.294.269.306" transform="translate(-33.309 -28.405)" fill="#263238"/>
              <path id="Trazado_810544" data-name="Trazado 810544" d="M383.987,180.712c.015.009-.027.1-.122.263a5.082,5.082,0,0,1-.475.688,7.842,7.842,0,0,1-2.423,1.954,8.655,8.655,0,0,1-4.588.966,9.133,9.133,0,0,1-5.228-2.272,12.776,12.776,0,0,1-3.3-4.514,21.36,21.36,0,0,1-1.347-4.295c-.259-1.25-.406-2.268-.5-2.973a4.623,4.623,0,0,1-.087-1.1,4.809,4.809,0,0,1,.278,1.072c.15.694.35,1.7.65,2.93a23.193,23.193,0,0,0,1.424,4.191,12.755,12.755,0,0,0,3.208,4.335,8.835,8.835,0,0,0,4.935,2.189,8.519,8.519,0,0,0,4.386-.826,9.739,9.739,0,0,0,3.185-2.607" transform="translate(-31.72 -21.104)" fill="#263238"/>
              <path id="Trazado_810545" data-name="Trazado 810545" d="M313.732,198.808,296.407,411.89l11.254-.19,19.484-213.026Z" transform="translate(-25.695 -24.747)" fill="#455a64"/>
              <path id="Trazado_810546" data-name="Trazado 810546" d="M332.714,198.632l-13.193.172,65.653,212.842h12.948Z" transform="translate(-27.698 -24.741)" fill="#455a64"/>
              <path id="Trazado_810547" data-name="Trazado 810547" d="M316.283,310.816h36.355l3.039,8.3h-41.87Z" transform="translate(-27.203 -38.715)" fill="#455a64"/>
              <path id="Trazado_810548" data-name="Trazado 810548" d="M324.662,192.235l-10.723,1.137-6.546,3.937s-.128,1.28,1.733,1.071l3.689-1.491-2.918,3.065s.705,1.23,2.31.369a8.992,8.992,0,0,0,2.6-2.153l6.449-.432s-4.877,4.491-3.978,5.66,1.476.923,2.182.492,1.091-1.907,2.7-2.4,4.252-1.928,7.123-3.232c2.468-1.12,4.974-9.139,4.974-9.139l-8.238-1.541Z" transform="translate(-26.647 -23.365)" fill="#d38d6e"/>
              <path id="Trazado_810549" data-name="Trazado 810549" d="M320.632,195.892a40.393,40.393,0,0,1-6.1,1.121l-.09.013.142-.069a37.584,37.584,0,0,1-4.451,4.029,37.106,37.106,0,0,1,4.094-4.362l.058-.058.082-.011.089-.013a40.531,40.531,0,0,1,6.174-.649" transform="translate(-26.884 -24.396)" fill="#b26746"/>
            </g>
          </g>
          <path id="Trazado_810550" data-name="Trazado 810550" d="M390.167,441.923c0,.134-86.335.241-192.81.241-106.512,0-192.829-.107-192.829-.241s86.316-.241,192.829-.241c106.475,0,192.81.108,192.81.241" transform="translate(-0.393 -51.007)" fill="#263238"/>
        </g>
        <path id="Trazado_810551" data-name="Trazado 810551" d="M390.167,441.923c0,.134-86.335.241-192.81.241-106.512,0-192.829-.107-192.829-.241s86.316-.241,192.829-.241c106.475,0,192.81.108,192.81.241" transform="translate(-4.529 -93.518)" fill="#263238"/>
      </g>
    </g>
  </g>
</svg>
