<svg xmlns="http://www.w3.org/2000/svg" width="85" height="85" viewBox="0 0 85 85">
  <g id="Grupo_1070131" data-name="Grupo 1070131" transform="translate(-180 -429)">
    <g id="Grupo_1070109" data-name="Grupo 1070109">
      <g id="Grupo_1063897" data-name="Grupo 1063897" transform="translate(0 -17)">
        <rect id="Rectángulo_373435" data-name="Rectángulo 373435" width="85" height="85" rx="5" transform="translate(180 446)" fill="#92df98"/>
      </g>
      <g id="Grupo_1070108" data-name="Grupo 1070108" transform="translate(172.4 421.4)">
        <path id="Trazado_812528" data-name="Trazado 812528" d="M310.732,75.366a11.367,11.367,0,1,0-17.989,9.227,2.252,2.252,0,0,1,.939,1.831v4.855h11.367V86.424a2.244,2.244,0,0,1,.929-1.825,11.333,11.333,0,0,0,4.755-9.233Z" transform="translate(-233.352 -41.179)" fill="#59bee2"/>
        <path id="Trazado_812530" data-name="Trazado 812530" d="M46.733,339.367a11.367,11.367,0,1,1-22.733,0,9.6,9.6,0,0,1,.125-1.625,11.357,11.357,0,0,1,22.483,0A9.6,9.6,0,0,1,46.733,339.367Z" transform="translate(-6.863 -267.67)" fill="#ffdbac"/>
        <path id="Trazado_812531" data-name="Trazado 812531" d="M79.952,382.624a22.769,22.769,0,0,1-16.5,13.492,11.349,11.349,0,0,0,17.127-9.786,9.6,9.6,0,0,0-.125-1.625,11.219,11.219,0,0,0-.506-2.081Z" transform="translate(-40.713 -314.533)" fill="#f2d0a3"/>
        <g id="Grupo_1070107" data-name="Grupo 1070107" transform="translate(17.262 50.1)">
          <path id="Trazado_812532" data-name="Trazado 812532" d="M36.122,328a11.368,11.368,0,0,0-11.242,9.741,14.761,14.761,0,0,1,22.483,0A11.368,11.368,0,0,0,36.122,328Z" transform="translate(-24.88 -317.77)" fill="#526273"/>
          <path id="Trazado_812533" data-name="Trazado 812533" d="M331.367,260.547h-9.093a2.273,2.273,0,1,1,0-4.547h9.093a2.273,2.273,0,1,1,0,4.547Z" transform="translate(-278.068 -256)" fill="#526273"/>
          <path id="Trazado_812534" data-name="Trazado 812534" d="M337.291,292.547h-7.217A2.075,2.075,0,0,1,328,290.471v-.4A2.075,2.075,0,0,1,330.076,288h7.217a2.075,2.075,0,0,1,2.074,2.076v.4A2.075,2.075,0,0,1,337.291,292.547Z" transform="translate(-284.932 -283.453)" fill="#526273"/>
          <path id="Trazado_812535" data-name="Trazado 812535" d="M347.41,324.547a3.41,3.41,0,0,1-3.41-3.41V320h6.82v1.137A3.41,3.41,0,0,1,347.41,324.547Z" transform="translate(-298.658 -310.907)" fill="#526273"/>
        </g>
        <path id="Trazado_812536" data-name="Trazado 812536" d="M28.5,345.007a12.518,12.518,0,0,0,12.5-12.5,10.682,10.682,0,0,0-.136-1.785,12.493,12.493,0,0,0-24.728-.032A10.718,10.718,0,0,0,16,332.5,12.518,12.518,0,0,0,28.5,345.007Zm0-22.733a10.253,10.253,0,0,1,8.69,4.881,15.784,15.784,0,0,0-17.389.006A10.263,10.263,0,0,1,28.5,322.273Zm-10.158,9.113a13.583,13.583,0,0,1,20.318,0,8.774,8.774,0,0,1,.07,1.116,10.23,10.23,0,1,1-20.46,0A8.754,8.754,0,0,1,18.345,331.386Z" transform="translate(0 -260.807)"/>
        <path id="Trazado_812537" data-name="Trazado 812537" d="M115.41,403.41a3.414,3.414,0,0,0,3.41-3.41h-2.273a1.137,1.137,0,1,1-2.273,0H112A3.414,3.414,0,0,0,115.41,403.41Z" transform="translate(-82.36 -329.44)"/>
        <path id="Trazado_812538" data-name="Trazado 812538" d="M51.41,403.41A3.414,3.414,0,0,0,54.82,400H52.547a1.137,1.137,0,1,1-2.273,0H48A3.414,3.414,0,0,0,51.41,403.41Z" transform="translate(-27.453 -329.44)"/>
        <path id="Trazado_812539" data-name="Trazado 812539" d="M88,448h4.547v2.273H88Z" transform="translate(-61.77 -370.62)"/>
        <path id="Trazado_812540" data-name="Trazado 812540" d="M360,16h2.273v3.41H360Z" transform="translate(-295.123)"/>
        <path id="Trazado_812541" data-name="Trazado 812541" d="M472,128h3.41v2.273H472Z" transform="translate(-391.21 -96.087)"/>
        <path id="Trazado_812542" data-name="Trazado 812542" d="M240,128h3.41v2.273H240Z" transform="translate(-192.173 -96.087)"/>
        <path id="Trazado_812543" data-name="Trazado 812543" d="M271.8,41.467l1.607-1.607,2.411,2.411-1.607,1.607Z" transform="translate(-219.453 -20.47)"/>
        <path id="Trazado_812544" data-name="Trazado 812544" d="M280.059,67.277a12.41,12.41,0,0,0,5.157,11.4,1.122,1.122,0,0,1,.465.909v4.6a3.387,3.387,0,0,0,.393,5.364,3.182,3.182,0,0,0-.393,1.508v.4a3.206,3.206,0,0,0,2.273,3.057v.156a4.547,4.547,0,1,0,9.093,0v-.157a3.205,3.205,0,0,0,2.273-3.056v-.4a3.182,3.182,0,0,0-.393-1.508,3.386,3.386,0,0,0,.393-5.363V79.586a1.107,1.107,0,0,1,.455-.9,12.5,12.5,0,1,0-19.717-11.408ZM292.5,96.945a2.276,2.276,0,0,1-2.273-2.273h4.547A2.276,2.276,0,0,1,292.5,96.945Zm4.547-5.486a.941.941,0,0,1-.939.939h-7.216a.941.941,0,0,1-.939-.939v-.4a.941.941,0,0,1,.939-.939h7.216a.941.941,0,0,1,.939.939Zm0-3.608h-9.093a1.137,1.137,0,0,1,0-2.273h9.093a1.137,1.137,0,0,1,0,2.273ZM299.322,60.9a10.218,10.218,0,0,1-.871,15.934,3.384,3.384,0,0,0-1.4,2.748v3.718h-9.093V79.587a3.4,3.4,0,0,0-1.413-2.756A10.225,10.225,0,1,1,299.322,60.9Z" transform="translate(-226.488 -34.342)"/>
        <path id="Trazado_812545" data-name="Trazado 812545" d="M435.828,42.289l2.411-2.411,1.607,1.607L437.435,43.9Z" transform="translate(-360.177 -20.485)"/>
        <path id="Trazado_812546" data-name="Trazado 812546" d="M333.683,90.273a3.41,3.41,0,1,1,0,6.82,1.136,1.136,0,0,0-1.137,1.137v5.683h2.273V99.252A5.683,5.683,0,1,0,328,93.683h2.273A3.414,3.414,0,0,1,333.683,90.273Z" transform="translate(-267.67 -61.77)"/>
        <path id="Trazado_812547" data-name="Trazado 812547" d="M360,216h2.273v2.273H360Z" transform="translate(-295.123 -171.583)"/>
        <path id="Trazado_812548" data-name="Trazado 812548" d="M96,288h2.273v2.273H96Z" transform="translate(-68.633 -233.353)"/>
        <path id="Trazado_812549" data-name="Trazado 812549" d="M96,223.957h2.273a5.69,5.69,0,0,1,5.683-5.683h7.957a5.69,5.69,0,0,1,5.683,5.683v21.6a7.967,7.967,0,0,0,7.957,7.957h2.273a7.967,7.967,0,0,0,7.957-7.957V243.28H133.51v2.273a5.69,5.69,0,0,1-5.683,5.683h-2.273a5.69,5.69,0,0,1-5.683-5.683v-21.6A7.967,7.967,0,0,0,111.913,216h-7.957A7.967,7.967,0,0,0,96,223.957Z" transform="translate(-68.633 -171.583)"/>
        <path id="Trazado_812550" data-name="Trazado 812550" d="M360,376h2.273v2.273H360Z" transform="translate(-295.123 -308.85)"/>
      </g>
    </g>
  </g>
</svg>
