<svg xmlns="http://www.w3.org/2000/svg" xmlns:xlink="http://www.w3.org/1999/xlink" width="1233" height="1238.232" viewBox="0 0 1233 1238.232">
  <defs>
    <clipPath id="clip-path">
      <rect id="Rectángulo_351082" data-name="Rectángulo 351082" width="23" height="413.479" transform="translate(-3)" fill="none" stroke="#59bee2" stroke-width="2"/>
    </clipPath>
    <clipPath id="clip-path-3">
      <rect id="Rectángulo_351082-3" data-name="Rectángulo 351082" width="23" height="486.479" transform="translate(-3)" fill="none" stroke="#59bee2" stroke-width="2"/>
    </clipPath>
  </defs>
  <g id="Grupo_1070131" data-name="Grupo 1070131" transform="translate(-180 -3490.278)">
    <path id="Trazado_807274" data-name="Trazado 807274" d="M0,0V260.553" transform="translate(206.553 3657.778)" fill="none" stroke="#59bee2" stroke-linecap="square" stroke-width="1.5"/>
    <path id="Trazado_810136" data-name="Trazado 810136" d="M0,0V648.611" transform="translate(553.793 3587.995)" fill="none" stroke="#59bee2" stroke-width="1.5"/>
    <path id="Trazado_810137" data-name="Trazado 810137" d="M0,0V648.828" transform="translate(1000 3587.778)" fill="none" stroke="#59bee2" stroke-width="1.5"/>
    <path id="Trazado_810132" data-name="Trazado 810132" d="M0,0V260.553" transform="translate(606.553 3657.778)" fill="none" stroke="#59bee2" stroke-linecap="square" stroke-width="1.5"/>
    <path id="Trazado_810133" data-name="Trazado 810133" d="M0,0V260.553" transform="translate(1060.26 3657.778)" fill="none" stroke="#59bee2" stroke-linecap="square" stroke-width="1.5"/>
    <path id="Trazado_810134" data-name="Trazado 810134" d="M0,0V251.053" transform="translate(381.26 4264.106)" fill="none" stroke="#59bee2" stroke-linecap="square" stroke-width="1.5"/>
    <path id="Trazado_810135" data-name="Trazado 810135" d="M0,0V233.053" transform="translate(804.553 4264.106)" fill="none" stroke="#59bee2" stroke-linecap="square" stroke-width="1.5"/>
    <path id="Trazado_812566" data-name="Trazado 812566" d="M10,0H410a10,10,0,0,1,10,10V49a10,10,0,0,1-10,10H10A10,10,0,0,1,0,49V10A10,10,0,0,1,10,0Z" transform="translate(590 3490.278)" fill="#288640"/>
    <path id="Trazado_812581" data-name="Trazado 812581" d="M5,0H151.895a5,5,0,0,1,5,5V50.293a5,5,0,0,1-5,5H5a5,5,0,0,1-5-5V5A5,5,0,0,1,5,0Z" transform="translate(180 4003.39) rotate(-90)" fill="#effaf0"/>
    <path id="Trazado_812582" data-name="Trazado 812582" d="M5,0H151.895a5,5,0,0,1,5,5V50.293a5,5,0,0,1-5,5H5a5,5,0,0,1-5-5V5A5,5,0,0,1,5,0Z" transform="translate(580 4003.39) rotate(-90)" fill="#effaf0"/>
    <path id="Trazado_812583" data-name="Trazado 812583" d="M5,0H151.895a5,5,0,0,1,5,5V50.293a5,5,0,0,1-5,5H5a5,5,0,0,1-5-5V5A5,5,0,0,1,5,0Z" transform="translate(1033.707 4003.39) rotate(-90)" fill="#effaf0"/>
    <path id="Trazado_812594" data-name="Trazado 812594" d="M5,0H151.895a5,5,0,0,1,5,5V50.293a5,5,0,0,1-5,5H5a5,5,0,0,1-5-5V5A5,5,0,0,1,5,0Z" transform="translate(354.707 4600.218) rotate(-90)" fill="#effaf0"/>
    <path id="Trazado_812593" data-name="Trazado 812593" d="M5,0H151.895a5,5,0,0,1,5,5V50.293a5,5,0,0,1-5,5H5a5,5,0,0,1-5-5V5A5,5,0,0,1,5,0Z" transform="translate(778 4582.218) rotate(-90)" fill="#effaf0"/>
    <path id="Trazado_812567" data-name="Trazado 812567" d="M127.049,14.609h-4.228L122.083,17h-3.3L123.48,4.2h2.9L131.109,17H127.8Zm-3.489-2.382h2.751l-1.38-4.438Zm14.1-2.057-.976-.07a1.752,1.752,0,0,0-1.793.879V17h-2.962V7.49H134.7l.1,1.222a2.294,2.294,0,0,1,2.083-1.4,2.888,2.888,0,0,1,.826.105Zm4.957-5.045V7.49h1.564V9.547h-1.564V13.9a1.111,1.111,0,0,0,.193.747,1.037,1.037,0,0,0,.765.211,4.345,4.345,0,0,0,.738-.053v2.118a5.466,5.466,0,0,1-1.67.255,3.1,3.1,0,0,1-2.259-.721,2.954,2.954,0,0,1-.729-2.188V9.547h-1.213V7.49h1.213V5.126ZM148.468,17H145.5V7.49h2.971ZM145.321,5.038A1.322,1.322,0,0,1,145.778,4a1.943,1.943,0,0,1,2.373,0,1.322,1.322,0,0,1,.457,1.037,1.322,1.322,0,0,1-.457,1.037,1.943,1.943,0,0,1-2.373,0A1.322,1.322,0,0,1,145.321,5.038Zm8.991,9.853a1.317,1.317,0,0,0,.967-.338,1.241,1.241,0,0,0,.334-.945h2.777a3.288,3.288,0,0,1-1.121,2.566,4.168,4.168,0,0,1-2.887,1,4.22,4.22,0,0,1-3.27-1.3,5.125,5.125,0,0,1-1.2-3.6v-.123A5.792,5.792,0,0,1,150.45,9.6a3.872,3.872,0,0,1,1.534-1.7,4.573,4.573,0,0,1,2.373-.593A4.116,4.116,0,0,1,157.3,8.343a3.647,3.647,0,0,1,1.09,2.786h-2.777a1.626,1.626,0,0,0-.36-1.134,1.244,1.244,0,0,0-.967-.4q-1.151,0-1.345,1.468a10.357,10.357,0,0,0-.062,1.283,4.068,4.068,0,0,0,.343,1.986A1.187,1.187,0,0,0,154.313,14.891Zm11,1.081a3.054,3.054,0,0,1-2.54,1.2,3,3,0,0,1-2.369-.91,3.826,3.826,0,0,1-.8-2.615V7.49h2.962v6.179a1.065,1.065,0,0,0,1.187,1.222,1.548,1.548,0,0,0,1.45-.729V7.49h2.979V17H165.4ZM172.919,17h-2.971V3.5h2.971Zm7.181,0a3.344,3.344,0,0,1-.281-.853,2.754,2.754,0,0,1-2.285,1.028,3.374,3.374,0,0,1-2.285-.813,2.588,2.588,0,0,1-.94-2.043,2.66,2.66,0,0,1,1.143-2.338,5.821,5.821,0,0,1,3.322-.791h.914v-.5q0-1.316-1.134-1.316a.927.927,0,0,0-1.055,1.042h-2.962a2.655,2.655,0,0,1,1.173-2.239,4.931,4.931,0,0,1,2.993-.86,4.323,4.323,0,0,1,2.874.888,3.086,3.086,0,0,1,1.081,2.435v4.21a4.311,4.311,0,0,0,.4,2V17Zm-1.854-1.934a1.652,1.652,0,0,0,.918-.237,1.487,1.487,0,0,0,.523-.536V12.772h-.861q-1.547,0-1.547,1.389a.848.848,0,0,0,.272.655A.986.986,0,0,0,178.245,15.066Zm10.072-.176a1.317,1.317,0,0,0,.967-.338,1.241,1.241,0,0,0,.334-.945H192.4a3.288,3.288,0,0,1-1.121,2.566,4.168,4.168,0,0,1-2.887,1,4.22,4.22,0,0,1-3.27-1.3,5.125,5.125,0,0,1-1.2-3.6v-.123a5.792,5.792,0,0,1,.532-2.544,3.872,3.872,0,0,1,1.534-1.7,4.573,4.573,0,0,1,2.373-.593,4.116,4.116,0,0,1,2.944,1.028,3.647,3.647,0,0,1,1.09,2.786h-2.777a1.626,1.626,0,0,0-.36-1.134,1.244,1.244,0,0,0-.967-.4q-1.151,0-1.345,1.468a10.357,10.357,0,0,0-.062,1.283,4.068,4.068,0,0,0,.343,1.986A1.187,1.187,0,0,0,188.317,14.891ZM196.772,17H193.8V7.49h2.971ZM193.626,5.038A1.322,1.322,0,0,1,194.083,4a1.943,1.943,0,0,1,2.373,0,1.322,1.322,0,0,1,.457,1.037,1.322,1.322,0,0,1-.457,1.037,1.943,1.943,0,0,1-2.373,0A1.322,1.322,0,0,1,193.626,5.038Zm4.6,7.119a5.613,5.613,0,0,1,.554-2.536,3.96,3.96,0,0,1,1.591-1.709,4.791,4.791,0,0,1,2.435-.6,4.373,4.373,0,0,1,3.366,1.323,5.076,5.076,0,0,1,1.23,3.6v.105a4.925,4.925,0,0,1-1.235,3.529,4.384,4.384,0,0,1-3.344,1.305,4.434,4.434,0,0,1-3.261-1.217,4.761,4.761,0,0,1-1.327-3.3Zm2.962.185a3.538,3.538,0,0,0,.413,1.934,1.376,1.376,0,0,0,1.222.615q1.582,0,1.617-2.435v-.3q0-2.558-1.635-2.558-1.485,0-1.608,2.206ZM203.206,3.5h3.129l-2.443,2.76-2.417,0Zm8.218,3.99.1,1.116a3.225,3.225,0,0,1,2.716-1.292,2.713,2.713,0,0,1,2.219.888,4.226,4.226,0,0,1,.76,2.672V17h-2.971V11a1.6,1.6,0,0,0-.29-1.059A1.342,1.342,0,0,0,212.9,9.6a1.413,1.413,0,0,0-1.292.686V17h-2.962V7.49Zm11.54,4.685a5.809,5.809,0,0,1,.976-3.56,3.211,3.211,0,0,1,2.725-1.3,2.731,2.731,0,0,1,2.145,1V3.5h2.971V17h-2.663l-.149-1.02a2.8,2.8,0,0,1-2.32,1.2,3.205,3.205,0,0,1-2.689-1.3A5.993,5.993,0,0,1,222.964,12.175Zm2.962.185q0,2.531,1.477,2.531a1.458,1.458,0,0,0,1.406-.826V10.443A1.419,1.419,0,0,0,227.42,9.6q-1.371,0-1.485,2.215Zm12.138,4.816a4.889,4.889,0,0,1-3.542-1.305,4.507,4.507,0,0,1-1.354-3.4v-.246a5.84,5.84,0,0,1,.541-2.575,3.955,3.955,0,0,1,1.578-1.727,4.763,4.763,0,0,1,2.461-.611,4.117,4.117,0,0,1,3.164,1.244,4.887,4.887,0,0,1,1.16,3.467v1.151h-5.889a2.135,2.135,0,0,0,.694,1.257,2.066,2.066,0,0,0,1.389.457,2.662,2.662,0,0,0,2.2-.984l1.354,1.6a3.784,3.784,0,0,1-1.569,1.217A5.3,5.3,0,0,1,238.063,17.176ZM237.729,9.6q-1.3,0-1.547,1.723h2.988v-.229a1.467,1.467,0,0,0-.36-1.1A1.434,1.434,0,0,0,237.729,9.6Zm14.616,7.576a4.889,4.889,0,0,1-3.542-1.305,4.507,4.507,0,0,1-1.354-3.4v-.246a5.84,5.84,0,0,1,.541-2.575,3.955,3.955,0,0,1,1.578-1.727,4.763,4.763,0,0,1,2.461-.611,4.117,4.117,0,0,1,3.164,1.244,4.887,4.887,0,0,1,1.16,3.467v1.151h-5.889a2.135,2.135,0,0,0,.694,1.257,2.066,2.066,0,0,0,1.389.457,2.662,2.662,0,0,0,2.2-.984l1.354,1.6a3.784,3.784,0,0,1-1.569,1.217A5.3,5.3,0,0,1,252.346,17.176ZM252.012,9.6q-1.3,0-1.547,1.723h2.988v-.229a1.467,1.467,0,0,0-.36-1.1A1.434,1.434,0,0,0,252.012,9.6Zm8.253-2.109.1,1.116a3.225,3.225,0,0,1,2.716-1.292A2.713,2.713,0,0,1,265.3,8.2a4.226,4.226,0,0,1,.76,2.672V17h-2.971V11a1.6,1.6,0,0,0-.29-1.059,1.342,1.342,0,0,0-1.055-.338,1.413,1.413,0,0,0-1.292.686V17h-2.962V7.49Zm10.881-2.364V7.49h1.564V9.547h-1.564V13.9a1.111,1.111,0,0,0,.193.747,1.037,1.037,0,0,0,.765.211,4.345,4.345,0,0,0,.738-.053v2.118a5.466,5.466,0,0,1-1.67.255,3.1,3.1,0,0,1-2.259-.721,2.954,2.954,0,0,1-.729-2.188V9.547h-1.213V7.49h1.213V5.126Zm2.092,7.031a5.613,5.613,0,0,1,.554-2.536,3.96,3.96,0,0,1,1.591-1.709,4.791,4.791,0,0,1,2.435-.6,4.373,4.373,0,0,1,3.366,1.323,5.076,5.076,0,0,1,1.23,3.6v.105a4.925,4.925,0,0,1-1.235,3.529,4.384,4.384,0,0,1-3.344,1.305,4.434,4.434,0,0,1-3.261-1.217,4.761,4.761,0,0,1-1.327-3.3Zm2.962.185a3.538,3.538,0,0,0,.413,1.934,1.376,1.376,0,0,0,1.222.615q1.582,0,1.617-2.435v-.3q0-2.558-1.635-2.558-1.485,0-1.608,2.206Zm13.271-2.171-.976-.07a1.752,1.752,0,0,0-1.793.879V17H283.74V7.49h2.777l.1,1.222a2.294,2.294,0,0,1,2.083-1.4,2.888,2.888,0,0,1,.826.105Zm3.788-2.681.1,1.116a3.225,3.225,0,0,1,2.716-1.292,2.713,2.713,0,0,1,2.219.888,4.226,4.226,0,0,1,.76,2.672V17H296.08V11a1.6,1.6,0,0,0-.29-1.059,1.342,1.342,0,0,0-1.055-.338,1.413,1.413,0,0,0-1.292.686V17h-2.962V7.49Zm7.058,4.667a5.613,5.613,0,0,1,.554-2.536,3.96,3.96,0,0,1,1.591-1.709,4.791,4.791,0,0,1,2.435-.6,4.373,4.373,0,0,1,3.366,1.323,5.076,5.076,0,0,1,1.23,3.6v.105a4.925,4.925,0,0,1-1.235,3.529,4.384,4.384,0,0,1-3.344,1.305,4.434,4.434,0,0,1-3.261-1.217,4.761,4.761,0,0,1-1.327-3.3Zm2.962.185a3.538,3.538,0,0,0,.413,1.934,1.376,1.376,0,0,0,1.222.615q1.582,0,1.617-2.435v-.3q0-2.558-1.635-2.558-1.485,0-1.608,2.206Zm12.5,1.986a.684.684,0,0,0-.4-.606,6.016,6.016,0,0,0-1.5-.475,6.853,6.853,0,0,1-1.828-.646,3.062,3.062,0,0,1-1.1-.971,2.319,2.319,0,0,1-.378-1.31,2.628,2.628,0,0,1,1.081-2.158,4.453,4.453,0,0,1,2.83-.848,4.934,4.934,0,0,1,3.023.853,2.666,2.666,0,0,1,1.143,2.241H315.68q0-1.143-1.2-1.143a1.194,1.194,0,0,0-.782.259.8.8,0,0,0-.316.646.737.737,0,0,0,.387.642,3.654,3.654,0,0,0,1.235.4,10.671,10.671,0,0,1,1.49.378,2.706,2.706,0,0,1,2.145,2.646,2.491,2.491,0,0,1-1.156,2.118,5.068,5.068,0,0,1-2.993.817,5.172,5.172,0,0,1-2.18-.439,3.645,3.645,0,0,1-1.494-1.2,2.707,2.707,0,0,1-.536-1.591h2.769a1.145,1.145,0,0,0,.439.962,1.808,1.808,0,0,0,1.081.3,1.422,1.422,0,0,0,.91-.246A.787.787,0,0,0,315.776,14.328Z" transform="translate(581 3508.778)" fill="#fff"/>
    <path id="Trazado_812584" data-name="Trazado 812584" d="M15.012,11.211A4.025,4.025,0,0,1,13.656,14.1a4.76,4.76,0,0,1-3.223,1.055,4.28,4.28,0,0,1-3.441-1.473A6.038,6.038,0,0,1,5.738,9.641v-.7a6.819,6.819,0,0,1,.578-2.891A4.332,4.332,0,0,1,7.969,4.137a4.629,4.629,0,0,1,2.5-.668,4.637,4.637,0,0,1,3.172,1.055,4.326,4.326,0,0,1,1.391,2.961H12.684a2.376,2.376,0,0,0-.613-1.6,2.271,2.271,0,0,0-1.605-.5,1.991,1.991,0,0,0-1.754.84,4.707,4.707,0,0,0-.6,2.605V9.7a5.038,5.038,0,0,0,.559,2.7,1.954,1.954,0,0,0,1.762.852,2.314,2.314,0,0,0,1.621-.5,2.241,2.241,0,0,0,.613-1.535ZM21.3,15a2.507,2.507,0,0,1-.227-.758,2.732,2.732,0,0,1-2.133.914,3,3,0,0,1-2.059-.719,2.312,2.312,0,0,1-.816-1.812,2.389,2.389,0,0,1,1-2.062,4.915,4.915,0,0,1,2.879-.727H20.98V9.352a1.393,1.393,0,0,0-.3-.937,1.183,1.183,0,0,0-.949-.352,1.345,1.345,0,0,0-.895.273.929.929,0,0,0-.324.75H16.254a2.268,2.268,0,0,1,.453-1.359,3,3,0,0,1,1.281-.98,4.669,4.669,0,0,1,1.859-.355,3.689,3.689,0,0,1,2.48.785,2.747,2.747,0,0,1,.918,2.207v3.664a4.041,4.041,0,0,0,.336,1.82V15Zm-1.867-1.57a1.945,1.945,0,0,0,.922-.223,1.462,1.462,0,0,0,.625-.6V11.156h-.844q-1.7,0-1.8,1.172l-.008.133a.9.9,0,0,0,.3.7A1.153,1.153,0,0,0,19.434,13.43Zm10.3-4.766a6.134,6.134,0,0,0-.812-.062,1.654,1.654,0,0,0-1.68.867V15H24.98V6.547h2.133l.063,1.008a2.092,2.092,0,0,1,1.883-1.164,2.366,2.366,0,0,1,.7.1ZM35.48,15a2.507,2.507,0,0,1-.227-.758,2.732,2.732,0,0,1-2.133.914,3,3,0,0,1-2.059-.719,2.312,2.312,0,0,1-.816-1.812,2.389,2.389,0,0,1,1-2.062,4.915,4.915,0,0,1,2.879-.727H35.16V9.352a1.393,1.393,0,0,0-.3-.937,1.183,1.183,0,0,0-.949-.352,1.345,1.345,0,0,0-.895.273.929.929,0,0,0-.324.75H30.434a2.268,2.268,0,0,1,.453-1.359,3,3,0,0,1,1.281-.98,4.669,4.669,0,0,1,1.859-.355,3.689,3.689,0,0,1,2.48.785,2.747,2.747,0,0,1,.918,2.207v3.664a4.041,4.041,0,0,0,.336,1.82V15Zm-1.867-1.57a1.945,1.945,0,0,0,.922-.223,1.462,1.462,0,0,0,.625-.6V11.156h-.844q-1.7,0-1.8,1.172l-.008.133a.9.9,0,0,0,.3.7A1.153,1.153,0,0,0,33.613,13.43Zm9.063-.094a1.481,1.481,0,0,0,1.016-.344,1.2,1.2,0,0,0,.406-.914h2.117a2.9,2.9,0,0,1-.469,1.574,3.093,3.093,0,0,1-1.262,1.109,3.949,3.949,0,0,1-1.77.395A3.67,3.67,0,0,1,39.855,14a4.56,4.56,0,0,1-1.047-3.184v-.148a4.508,4.508,0,0,1,1.039-3.117A3.627,3.627,0,0,1,42.7,6.391a3.555,3.555,0,0,1,2.543.9,3.2,3.2,0,0,1,.973,2.4H44.1a1.551,1.551,0,0,0-.406-1.072,1.51,1.51,0,0,0-2.223.163,3.333,3.333,0,0,0-.4,1.866v.235a3.375,3.375,0,0,0,.4,1.878A1.377,1.377,0,0,0,42.676,13.336Zm7.531-8.867V6.547h1.445V8.2H50.207v4.219a1.007,1.007,0,0,0,.18.672.9.9,0,0,0,.688.2,3.6,3.6,0,0,0,.664-.055v1.711a4.648,4.648,0,0,1-1.367.2,2.156,2.156,0,0,1-2.422-2.4V8.2H46.715V6.547h1.234V4.469ZM56.8,15.156a4.15,4.15,0,0,1-3.027-1.141,4.054,4.054,0,0,1-1.168-3.039v-.219A5.106,5.106,0,0,1,53.1,8.48a3.612,3.612,0,0,1,1.395-1.547,3.914,3.914,0,0,1,2.059-.543,3.508,3.508,0,0,1,2.73,1.094,4.444,4.444,0,0,1,1,3.1v.922H54.895a2.1,2.1,0,0,0,.66,1.328,2,2,0,0,0,1.395.5,2.437,2.437,0,0,0,2.039-.945L60.1,13.633a3.389,3.389,0,0,1-1.375,1.121A4.511,4.511,0,0,1,56.8,15.156Zm-.258-6.945a1.411,1.411,0,0,0-1.09.455,2.357,2.357,0,0,0-.535,1.3h3.141V9.788a1.681,1.681,0,0,0-.406-1.165A1.456,1.456,0,0,0,56.543,8.211Zm9.766.453A6.134,6.134,0,0,0,65.5,8.6a1.654,1.654,0,0,0-1.68.867V15H61.559V6.547h2.133l.063,1.008a2.092,2.092,0,0,1,1.883-1.164,2.366,2.366,0,0,1,.7.1ZM69.832,15H67.574V6.547h2.258ZM69.168,3.117h2.461L69.465,5.539H67.629Zm7.188,9.547a.727.727,0,0,0-.41-.652,4.659,4.659,0,0,0-1.316-.426q-3.016-.633-3.016-2.562a2.323,2.323,0,0,1,.934-1.879,3.766,3.766,0,0,1,2.441-.754,4.053,4.053,0,0,1,2.574.758,2.388,2.388,0,0,1,.965,1.969H76.27a1.092,1.092,0,0,0-.312-.8A1.322,1.322,0,0,0,74.98,8a1.351,1.351,0,0,0-.883.258.814.814,0,0,0-.312.656.7.7,0,0,0,.355.605,3.657,3.657,0,0,0,1.2.4,9.8,9.8,0,0,1,1.422.379,2.336,2.336,0,0,1,1.789,2.273,2.2,2.2,0,0,1-.992,1.871A4.28,4.28,0,0,1,75,15.156a4.47,4.47,0,0,1-1.887-.379,3.166,3.166,0,0,1-1.293-1.039,2.414,2.414,0,0,1-.469-1.426h2.141a1.179,1.179,0,0,0,.445.922,1.766,1.766,0,0,0,1.109.32,1.635,1.635,0,0,0,.98-.246A.766.766,0,0,0,76.355,12.664Zm6.352-8.2V6.547h1.445V8.2H82.707v4.219a1.007,1.007,0,0,0,.18.672.9.9,0,0,0,.688.2,3.6,3.6,0,0,0,.664-.055v1.711a4.648,4.648,0,0,1-1.367.2,2.156,2.156,0,0,1-2.422-2.4V8.2H79.215V6.547h1.234V4.469ZM87.793,15H85.527V6.547h2.266Zm-2.4-10.641a1.112,1.112,0,0,1,.34-.836,1.465,1.465,0,0,1,1.848,0,1.105,1.105,0,0,1,.344.836,1.108,1.108,0,0,1-.348.844,1.448,1.448,0,0,1-1.836,0A1.108,1.108,0,0,1,85.395,4.359Zm7.773,8.977a1.481,1.481,0,0,0,1.016-.344,1.2,1.2,0,0,0,.406-.914h2.117a2.9,2.9,0,0,1-.469,1.574,3.093,3.093,0,0,1-1.262,1.109,3.949,3.949,0,0,1-1.77.395A3.67,3.67,0,0,1,90.348,14,4.56,4.56,0,0,1,89.3,10.82v-.148A4.508,4.508,0,0,1,90.34,7.555a3.627,3.627,0,0,1,2.852-1.164,3.555,3.555,0,0,1,2.543.9,3.2,3.2,0,0,1,.973,2.4H94.59a1.551,1.551,0,0,0-.406-1.072,1.51,1.51,0,0,0-2.223.163,3.333,3.333,0,0,0-.4,1.866v.235a3.375,3.375,0,0,0,.4,1.878A1.377,1.377,0,0,0,93.168,13.336ZM102.895,15a2.507,2.507,0,0,1-.227-.758,2.732,2.732,0,0,1-2.133.914,3,3,0,0,1-2.059-.719,2.312,2.312,0,0,1-.816-1.812,2.389,2.389,0,0,1,1-2.062,4.915,4.915,0,0,1,2.879-.727h1.039V9.352a1.393,1.393,0,0,0-.3-.937,1.183,1.183,0,0,0-.949-.352,1.345,1.345,0,0,0-.895.273.929.929,0,0,0-.324.75H97.848A2.268,2.268,0,0,1,98.3,7.727a3,3,0,0,1,1.281-.98,4.669,4.669,0,0,1,1.859-.355,3.689,3.689,0,0,1,2.48.785,2.747,2.747,0,0,1,.918,2.207v3.664a4.041,4.041,0,0,0,.336,1.82V15Zm-1.867-1.57a1.945,1.945,0,0,0,.922-.223,1.462,1.462,0,0,0,.625-.6V11.156h-.844q-1.7,0-1.8,1.172l-.008.133a.9.9,0,0,0,.3.7A1.153,1.153,0,0,0,101.027,13.43Zm10.125-.766a.727.727,0,0,0-.41-.652,4.659,4.659,0,0,0-1.316-.426q-3.016-.633-3.016-2.562a2.323,2.323,0,0,1,.934-1.879,3.766,3.766,0,0,1,2.441-.754,4.053,4.053,0,0,1,2.574.758,2.388,2.388,0,0,1,.965,1.969h-2.258a1.092,1.092,0,0,0-.312-.8A1.322,1.322,0,0,0,109.777,8a1.351,1.351,0,0,0-.883.258.814.814,0,0,0-.312.656.7.7,0,0,0,.355.605,3.657,3.657,0,0,0,1.2.4,9.8,9.8,0,0,1,1.422.379,2.336,2.336,0,0,1,1.789,2.273,2.2,2.2,0,0,1-.992,1.871,4.28,4.28,0,0,1-2.562.715,4.47,4.47,0,0,1-1.887-.379,3.166,3.166,0,0,1-1.293-1.039,2.414,2.414,0,0,1-.469-1.426h2.141a1.179,1.179,0,0,0,.445.922,1.766,1.766,0,0,0,1.109.32,1.635,1.635,0,0,0,.98-.246A.766.766,0,0,0,111.152,12.664Z" transform="translate(198.146 3984.442) rotate(-90)" fill="#12263f"/>
    <path id="Trazado_812585" data-name="Trazado 812585" d="M15.012,11.211A4.025,4.025,0,0,1,13.656,14.1a4.76,4.76,0,0,1-3.223,1.055,4.28,4.28,0,0,1-3.441-1.473A6.038,6.038,0,0,1,5.738,9.641v-.7a6.819,6.819,0,0,1,.578-2.891A4.332,4.332,0,0,1,7.969,4.137a4.629,4.629,0,0,1,2.5-.668,4.637,4.637,0,0,1,3.172,1.055,4.326,4.326,0,0,1,1.391,2.961H12.684a2.376,2.376,0,0,0-.613-1.6,2.271,2.271,0,0,0-1.605-.5,1.991,1.991,0,0,0-1.754.84,4.707,4.707,0,0,0-.6,2.605V9.7a5.038,5.038,0,0,0,.559,2.7,1.954,1.954,0,0,0,1.762.852,2.314,2.314,0,0,0,1.621-.5,2.241,2.241,0,0,0,.613-1.535ZM21.3,15a2.507,2.507,0,0,1-.227-.758,2.732,2.732,0,0,1-2.133.914,3,3,0,0,1-2.059-.719,2.312,2.312,0,0,1-.816-1.812,2.389,2.389,0,0,1,1-2.062,4.915,4.915,0,0,1,2.879-.727H20.98V9.352a1.393,1.393,0,0,0-.3-.937,1.183,1.183,0,0,0-.949-.352,1.345,1.345,0,0,0-.895.273.929.929,0,0,0-.324.75H16.254a2.268,2.268,0,0,1,.453-1.359,3,3,0,0,1,1.281-.98,4.669,4.669,0,0,1,1.859-.355,3.689,3.689,0,0,1,2.48.785,2.747,2.747,0,0,1,.918,2.207v3.664a4.041,4.041,0,0,0,.336,1.82V15Zm-1.867-1.57a1.945,1.945,0,0,0,.922-.223,1.462,1.462,0,0,0,.625-.6V11.156h-.844q-1.7,0-1.8,1.172l-.008.133a.9.9,0,0,0,.3.7A1.153,1.153,0,0,0,19.434,13.43Zm10.3-4.766a6.134,6.134,0,0,0-.812-.062,1.654,1.654,0,0,0-1.68.867V15H24.98V6.547h2.133l.063,1.008a2.092,2.092,0,0,1,1.883-1.164,2.366,2.366,0,0,1,.7.1ZM35.48,15a2.507,2.507,0,0,1-.227-.758,2.732,2.732,0,0,1-2.133.914,3,3,0,0,1-2.059-.719,2.312,2.312,0,0,1-.816-1.812,2.389,2.389,0,0,1,1-2.062,4.915,4.915,0,0,1,2.879-.727H35.16V9.352a1.393,1.393,0,0,0-.3-.937,1.183,1.183,0,0,0-.949-.352,1.345,1.345,0,0,0-.895.273.929.929,0,0,0-.324.75H30.434a2.268,2.268,0,0,1,.453-1.359,3,3,0,0,1,1.281-.98,4.669,4.669,0,0,1,1.859-.355,3.689,3.689,0,0,1,2.48.785,2.747,2.747,0,0,1,.918,2.207v3.664a4.041,4.041,0,0,0,.336,1.82V15Zm-1.867-1.57a1.945,1.945,0,0,0,.922-.223,1.462,1.462,0,0,0,.625-.6V11.156h-.844q-1.7,0-1.8,1.172l-.008.133a.9.9,0,0,0,.3.7A1.153,1.153,0,0,0,33.613,13.43Zm9.063-.094a1.481,1.481,0,0,0,1.016-.344,1.2,1.2,0,0,0,.406-.914h2.117a2.9,2.9,0,0,1-.469,1.574,3.093,3.093,0,0,1-1.262,1.109,3.949,3.949,0,0,1-1.77.395A3.67,3.67,0,0,1,39.855,14a4.56,4.56,0,0,1-1.047-3.184v-.148a4.508,4.508,0,0,1,1.039-3.117A3.627,3.627,0,0,1,42.7,6.391a3.555,3.555,0,0,1,2.543.9,3.2,3.2,0,0,1,.973,2.4H44.1a1.551,1.551,0,0,0-.406-1.072,1.51,1.51,0,0,0-2.223.163,3.333,3.333,0,0,0-.4,1.866v.235a3.375,3.375,0,0,0,.4,1.878A1.377,1.377,0,0,0,42.676,13.336Zm7.531-8.867V6.547h1.445V8.2H50.207v4.219a1.007,1.007,0,0,0,.18.672.9.9,0,0,0,.688.2,3.6,3.6,0,0,0,.664-.055v1.711a4.648,4.648,0,0,1-1.367.2,2.156,2.156,0,0,1-2.422-2.4V8.2H46.715V6.547h1.234V4.469ZM56.8,15.156a4.15,4.15,0,0,1-3.027-1.141,4.054,4.054,0,0,1-1.168-3.039v-.219A5.106,5.106,0,0,1,53.1,8.48a3.612,3.612,0,0,1,1.395-1.547,3.914,3.914,0,0,1,2.059-.543,3.508,3.508,0,0,1,2.73,1.094,4.444,4.444,0,0,1,1,3.1v.922H54.895a2.1,2.1,0,0,0,.66,1.328,2,2,0,0,0,1.395.5,2.437,2.437,0,0,0,2.039-.945L60.1,13.633a3.389,3.389,0,0,1-1.375,1.121A4.511,4.511,0,0,1,56.8,15.156Zm-.258-6.945a1.411,1.411,0,0,0-1.09.455,2.357,2.357,0,0,0-.535,1.3h3.141V9.788a1.681,1.681,0,0,0-.406-1.165A1.456,1.456,0,0,0,56.543,8.211Zm9.766.453A6.134,6.134,0,0,0,65.5,8.6a1.654,1.654,0,0,0-1.68.867V15H61.559V6.547h2.133l.063,1.008a2.092,2.092,0,0,1,1.883-1.164,2.366,2.366,0,0,1,.7.1ZM69.832,15H67.574V6.547h2.258ZM69.168,3.117h2.461L69.465,5.539H67.629Zm7.188,9.547a.727.727,0,0,0-.41-.652,4.659,4.659,0,0,0-1.316-.426q-3.016-.633-3.016-2.562a2.323,2.323,0,0,1,.934-1.879,3.766,3.766,0,0,1,2.441-.754,4.053,4.053,0,0,1,2.574.758,2.388,2.388,0,0,1,.965,1.969H76.27a1.092,1.092,0,0,0-.312-.8A1.322,1.322,0,0,0,74.98,8a1.351,1.351,0,0,0-.883.258.814.814,0,0,0-.312.656.7.7,0,0,0,.355.605,3.657,3.657,0,0,0,1.2.4,9.8,9.8,0,0,1,1.422.379,2.336,2.336,0,0,1,1.789,2.273,2.2,2.2,0,0,1-.992,1.871A4.28,4.28,0,0,1,75,15.156a4.47,4.47,0,0,1-1.887-.379,3.166,3.166,0,0,1-1.293-1.039,2.414,2.414,0,0,1-.469-1.426h2.141a1.179,1.179,0,0,0,.445.922,1.766,1.766,0,0,0,1.109.32,1.635,1.635,0,0,0,.98-.246A.766.766,0,0,0,76.355,12.664Zm6.352-8.2V6.547h1.445V8.2H82.707v4.219a1.007,1.007,0,0,0,.18.672.9.9,0,0,0,.688.2,3.6,3.6,0,0,0,.664-.055v1.711a4.648,4.648,0,0,1-1.367.2,2.156,2.156,0,0,1-2.422-2.4V8.2H79.215V6.547h1.234V4.469ZM87.793,15H85.527V6.547h2.266Zm-2.4-10.641a1.112,1.112,0,0,1,.34-.836,1.465,1.465,0,0,1,1.848,0,1.105,1.105,0,0,1,.344.836,1.108,1.108,0,0,1-.348.844,1.448,1.448,0,0,1-1.836,0A1.108,1.108,0,0,1,85.395,4.359Zm7.773,8.977a1.481,1.481,0,0,0,1.016-.344,1.2,1.2,0,0,0,.406-.914h2.117a2.9,2.9,0,0,1-.469,1.574,3.093,3.093,0,0,1-1.262,1.109,3.949,3.949,0,0,1-1.77.395A3.67,3.67,0,0,1,90.348,14,4.56,4.56,0,0,1,89.3,10.82v-.148A4.508,4.508,0,0,1,90.34,7.555a3.627,3.627,0,0,1,2.852-1.164,3.555,3.555,0,0,1,2.543.9,3.2,3.2,0,0,1,.973,2.4H94.59a1.551,1.551,0,0,0-.406-1.072,1.51,1.51,0,0,0-2.223.163,3.333,3.333,0,0,0-.4,1.866v.235a3.375,3.375,0,0,0,.4,1.878A1.377,1.377,0,0,0,93.168,13.336ZM102.895,15a2.507,2.507,0,0,1-.227-.758,2.732,2.732,0,0,1-2.133.914,3,3,0,0,1-2.059-.719,2.312,2.312,0,0,1-.816-1.812,2.389,2.389,0,0,1,1-2.062,4.915,4.915,0,0,1,2.879-.727h1.039V9.352a1.393,1.393,0,0,0-.3-.937,1.183,1.183,0,0,0-.949-.352,1.345,1.345,0,0,0-.895.273.929.929,0,0,0-.324.75H97.848A2.268,2.268,0,0,1,98.3,7.727a3,3,0,0,1,1.281-.98,4.669,4.669,0,0,1,1.859-.355,3.689,3.689,0,0,1,2.48.785,2.747,2.747,0,0,1,.918,2.207v3.664a4.041,4.041,0,0,0,.336,1.82V15Zm-1.867-1.57a1.945,1.945,0,0,0,.922-.223,1.462,1.462,0,0,0,.625-.6V11.156h-.844q-1.7,0-1.8,1.172l-.008.133a.9.9,0,0,0,.3.7A1.153,1.153,0,0,0,101.027,13.43Zm10.125-.766a.727.727,0,0,0-.41-.652,4.659,4.659,0,0,0-1.316-.426q-3.016-.633-3.016-2.562a2.323,2.323,0,0,1,.934-1.879,3.766,3.766,0,0,1,2.441-.754,4.053,4.053,0,0,1,2.574.758,2.388,2.388,0,0,1,.965,1.969h-2.258a1.092,1.092,0,0,0-.312-.8A1.322,1.322,0,0,0,109.777,8a1.351,1.351,0,0,0-.883.258.814.814,0,0,0-.312.656.7.7,0,0,0,.355.605,3.657,3.657,0,0,0,1.2.4,9.8,9.8,0,0,1,1.422.379,2.336,2.336,0,0,1,1.789,2.273,2.2,2.2,0,0,1-.992,1.871,4.28,4.28,0,0,1-2.562.715,4.47,4.47,0,0,1-1.887-.379,3.166,3.166,0,0,1-1.293-1.039,2.414,2.414,0,0,1-.469-1.426h2.141a1.179,1.179,0,0,0,.445.922,1.766,1.766,0,0,0,1.109.32,1.635,1.635,0,0,0,.98-.246A.766.766,0,0,0,111.152,12.664Z" transform="translate(598.146 3984.442) rotate(-90)" fill="#12263f"/>
    <path id="Trazado_812586" data-name="Trazado 812586" d="M15.012,11.211A4.025,4.025,0,0,1,13.656,14.1a4.76,4.76,0,0,1-3.223,1.055,4.28,4.28,0,0,1-3.441-1.473A6.038,6.038,0,0,1,5.738,9.641v-.7a6.819,6.819,0,0,1,.578-2.891A4.332,4.332,0,0,1,7.969,4.137a4.629,4.629,0,0,1,2.5-.668,4.637,4.637,0,0,1,3.172,1.055,4.326,4.326,0,0,1,1.391,2.961H12.684a2.376,2.376,0,0,0-.613-1.6,2.271,2.271,0,0,0-1.605-.5,1.991,1.991,0,0,0-1.754.84,4.707,4.707,0,0,0-.6,2.605V9.7a5.038,5.038,0,0,0,.559,2.7,1.954,1.954,0,0,0,1.762.852,2.314,2.314,0,0,0,1.621-.5,2.241,2.241,0,0,0,.613-1.535ZM21.3,15a2.507,2.507,0,0,1-.227-.758,2.732,2.732,0,0,1-2.133.914,3,3,0,0,1-2.059-.719,2.312,2.312,0,0,1-.816-1.812,2.389,2.389,0,0,1,1-2.062,4.915,4.915,0,0,1,2.879-.727H20.98V9.352a1.393,1.393,0,0,0-.3-.937,1.183,1.183,0,0,0-.949-.352,1.345,1.345,0,0,0-.895.273.929.929,0,0,0-.324.75H16.254a2.268,2.268,0,0,1,.453-1.359,3,3,0,0,1,1.281-.98,4.669,4.669,0,0,1,1.859-.355,3.689,3.689,0,0,1,2.48.785,2.747,2.747,0,0,1,.918,2.207v3.664a4.041,4.041,0,0,0,.336,1.82V15Zm-1.867-1.57a1.945,1.945,0,0,0,.922-.223,1.462,1.462,0,0,0,.625-.6V11.156h-.844q-1.7,0-1.8,1.172l-.008.133a.9.9,0,0,0,.3.7A1.153,1.153,0,0,0,19.434,13.43Zm10.3-4.766a6.134,6.134,0,0,0-.812-.062,1.654,1.654,0,0,0-1.68.867V15H24.98V6.547h2.133l.063,1.008a2.092,2.092,0,0,1,1.883-1.164,2.366,2.366,0,0,1,.7.1ZM35.48,15a2.507,2.507,0,0,1-.227-.758,2.732,2.732,0,0,1-2.133.914,3,3,0,0,1-2.059-.719,2.312,2.312,0,0,1-.816-1.812,2.389,2.389,0,0,1,1-2.062,4.915,4.915,0,0,1,2.879-.727H35.16V9.352a1.393,1.393,0,0,0-.3-.937,1.183,1.183,0,0,0-.949-.352,1.345,1.345,0,0,0-.895.273.929.929,0,0,0-.324.75H30.434a2.268,2.268,0,0,1,.453-1.359,3,3,0,0,1,1.281-.98,4.669,4.669,0,0,1,1.859-.355,3.689,3.689,0,0,1,2.48.785,2.747,2.747,0,0,1,.918,2.207v3.664a4.041,4.041,0,0,0,.336,1.82V15Zm-1.867-1.57a1.945,1.945,0,0,0,.922-.223,1.462,1.462,0,0,0,.625-.6V11.156h-.844q-1.7,0-1.8,1.172l-.008.133a.9.9,0,0,0,.3.7A1.153,1.153,0,0,0,33.613,13.43Zm9.063-.094a1.481,1.481,0,0,0,1.016-.344,1.2,1.2,0,0,0,.406-.914h2.117a2.9,2.9,0,0,1-.469,1.574,3.093,3.093,0,0,1-1.262,1.109,3.949,3.949,0,0,1-1.77.395A3.67,3.67,0,0,1,39.855,14a4.56,4.56,0,0,1-1.047-3.184v-.148a4.508,4.508,0,0,1,1.039-3.117A3.627,3.627,0,0,1,42.7,6.391a3.555,3.555,0,0,1,2.543.9,3.2,3.2,0,0,1,.973,2.4H44.1a1.551,1.551,0,0,0-.406-1.072,1.51,1.51,0,0,0-2.223.163,3.333,3.333,0,0,0-.4,1.866v.235a3.375,3.375,0,0,0,.4,1.878A1.377,1.377,0,0,0,42.676,13.336Zm7.531-8.867V6.547h1.445V8.2H50.207v4.219a1.007,1.007,0,0,0,.18.672.9.9,0,0,0,.688.2,3.6,3.6,0,0,0,.664-.055v1.711a4.648,4.648,0,0,1-1.367.2,2.156,2.156,0,0,1-2.422-2.4V8.2H46.715V6.547h1.234V4.469ZM56.8,15.156a4.15,4.15,0,0,1-3.027-1.141,4.054,4.054,0,0,1-1.168-3.039v-.219A5.106,5.106,0,0,1,53.1,8.48a3.612,3.612,0,0,1,1.395-1.547,3.914,3.914,0,0,1,2.059-.543,3.508,3.508,0,0,1,2.73,1.094,4.444,4.444,0,0,1,1,3.1v.922H54.895a2.1,2.1,0,0,0,.66,1.328,2,2,0,0,0,1.395.5,2.437,2.437,0,0,0,2.039-.945L60.1,13.633a3.389,3.389,0,0,1-1.375,1.121A4.511,4.511,0,0,1,56.8,15.156Zm-.258-6.945a1.411,1.411,0,0,0-1.09.455,2.357,2.357,0,0,0-.535,1.3h3.141V9.788a1.681,1.681,0,0,0-.406-1.165A1.456,1.456,0,0,0,56.543,8.211Zm9.766.453A6.134,6.134,0,0,0,65.5,8.6a1.654,1.654,0,0,0-1.68.867V15H61.559V6.547h2.133l.063,1.008a2.092,2.092,0,0,1,1.883-1.164,2.366,2.366,0,0,1,.7.1ZM69.832,15H67.574V6.547h2.258ZM69.168,3.117h2.461L69.465,5.539H67.629Zm7.188,9.547a.727.727,0,0,0-.41-.652,4.659,4.659,0,0,0-1.316-.426q-3.016-.633-3.016-2.562a2.323,2.323,0,0,1,.934-1.879,3.766,3.766,0,0,1,2.441-.754,4.053,4.053,0,0,1,2.574.758,2.388,2.388,0,0,1,.965,1.969H76.27a1.092,1.092,0,0,0-.312-.8A1.322,1.322,0,0,0,74.98,8a1.351,1.351,0,0,0-.883.258.814.814,0,0,0-.312.656.7.7,0,0,0,.355.605,3.657,3.657,0,0,0,1.2.4,9.8,9.8,0,0,1,1.422.379,2.336,2.336,0,0,1,1.789,2.273,2.2,2.2,0,0,1-.992,1.871A4.28,4.28,0,0,1,75,15.156a4.47,4.47,0,0,1-1.887-.379,3.166,3.166,0,0,1-1.293-1.039,2.414,2.414,0,0,1-.469-1.426h2.141a1.179,1.179,0,0,0,.445.922,1.766,1.766,0,0,0,1.109.32,1.635,1.635,0,0,0,.98-.246A.766.766,0,0,0,76.355,12.664Zm6.352-8.2V6.547h1.445V8.2H82.707v4.219a1.007,1.007,0,0,0,.18.672.9.9,0,0,0,.688.2,3.6,3.6,0,0,0,.664-.055v1.711a4.648,4.648,0,0,1-1.367.2,2.156,2.156,0,0,1-2.422-2.4V8.2H79.215V6.547h1.234V4.469ZM87.793,15H85.527V6.547h2.266Zm-2.4-10.641a1.112,1.112,0,0,1,.34-.836,1.465,1.465,0,0,1,1.848,0,1.105,1.105,0,0,1,.344.836,1.108,1.108,0,0,1-.348.844,1.448,1.448,0,0,1-1.836,0A1.108,1.108,0,0,1,85.395,4.359Zm7.773,8.977a1.481,1.481,0,0,0,1.016-.344,1.2,1.2,0,0,0,.406-.914h2.117a2.9,2.9,0,0,1-.469,1.574,3.093,3.093,0,0,1-1.262,1.109,3.949,3.949,0,0,1-1.77.395A3.67,3.67,0,0,1,90.348,14,4.56,4.56,0,0,1,89.3,10.82v-.148A4.508,4.508,0,0,1,90.34,7.555a3.627,3.627,0,0,1,2.852-1.164,3.555,3.555,0,0,1,2.543.9,3.2,3.2,0,0,1,.973,2.4H94.59a1.551,1.551,0,0,0-.406-1.072,1.51,1.51,0,0,0-2.223.163,3.333,3.333,0,0,0-.4,1.866v.235a3.375,3.375,0,0,0,.4,1.878A1.377,1.377,0,0,0,93.168,13.336ZM102.895,15a2.507,2.507,0,0,1-.227-.758,2.732,2.732,0,0,1-2.133.914,3,3,0,0,1-2.059-.719,2.312,2.312,0,0,1-.816-1.812,2.389,2.389,0,0,1,1-2.062,4.915,4.915,0,0,1,2.879-.727h1.039V9.352a1.393,1.393,0,0,0-.3-.937,1.183,1.183,0,0,0-.949-.352,1.345,1.345,0,0,0-.895.273.929.929,0,0,0-.324.75H97.848A2.268,2.268,0,0,1,98.3,7.727a3,3,0,0,1,1.281-.98,4.669,4.669,0,0,1,1.859-.355,3.689,3.689,0,0,1,2.48.785,2.747,2.747,0,0,1,.918,2.207v3.664a4.041,4.041,0,0,0,.336,1.82V15Zm-1.867-1.57a1.945,1.945,0,0,0,.922-.223,1.462,1.462,0,0,0,.625-.6V11.156h-.844q-1.7,0-1.8,1.172l-.008.133a.9.9,0,0,0,.3.7A1.153,1.153,0,0,0,101.027,13.43Zm10.125-.766a.727.727,0,0,0-.41-.652,4.659,4.659,0,0,0-1.316-.426q-3.016-.633-3.016-2.562a2.323,2.323,0,0,1,.934-1.879,3.766,3.766,0,0,1,2.441-.754,4.053,4.053,0,0,1,2.574.758,2.388,2.388,0,0,1,.965,1.969h-2.258a1.092,1.092,0,0,0-.312-.8A1.322,1.322,0,0,0,109.777,8a1.351,1.351,0,0,0-.883.258.814.814,0,0,0-.312.656.7.7,0,0,0,.355.605,3.657,3.657,0,0,0,1.2.4,9.8,9.8,0,0,1,1.422.379,2.336,2.336,0,0,1,1.789,2.273,2.2,2.2,0,0,1-.992,1.871,4.28,4.28,0,0,1-2.562.715,4.47,4.47,0,0,1-1.887-.379,3.166,3.166,0,0,1-1.293-1.039,2.414,2.414,0,0,1-.469-1.426h2.141a1.179,1.179,0,0,0,.445.922,1.766,1.766,0,0,0,1.109.32,1.635,1.635,0,0,0,.98-.246A.766.766,0,0,0,111.152,12.664Z" transform="translate(1051.854 3984.442) rotate(-90)" fill="#12263f"/>
    <path id="Trazado_812596" data-name="Trazado 812596" d="M15.012,11.211A4.025,4.025,0,0,1,13.656,14.1a4.76,4.76,0,0,1-3.223,1.055,4.28,4.28,0,0,1-3.441-1.473A6.038,6.038,0,0,1,5.738,9.641v-.7a6.819,6.819,0,0,1,.578-2.891A4.332,4.332,0,0,1,7.969,4.137a4.629,4.629,0,0,1,2.5-.668,4.637,4.637,0,0,1,3.172,1.055,4.326,4.326,0,0,1,1.391,2.961H12.684a2.376,2.376,0,0,0-.613-1.6,2.271,2.271,0,0,0-1.605-.5,1.991,1.991,0,0,0-1.754.84,4.707,4.707,0,0,0-.6,2.605V9.7a5.038,5.038,0,0,0,.559,2.7,1.954,1.954,0,0,0,1.762.852,2.314,2.314,0,0,0,1.621-.5,2.241,2.241,0,0,0,.613-1.535ZM21.3,15a2.507,2.507,0,0,1-.227-.758,2.732,2.732,0,0,1-2.133.914,3,3,0,0,1-2.059-.719,2.312,2.312,0,0,1-.816-1.812,2.389,2.389,0,0,1,1-2.062,4.915,4.915,0,0,1,2.879-.727H20.98V9.352a1.393,1.393,0,0,0-.3-.937,1.183,1.183,0,0,0-.949-.352,1.345,1.345,0,0,0-.895.273.929.929,0,0,0-.324.75H16.254a2.268,2.268,0,0,1,.453-1.359,3,3,0,0,1,1.281-.98,4.669,4.669,0,0,1,1.859-.355,3.689,3.689,0,0,1,2.48.785,2.747,2.747,0,0,1,.918,2.207v3.664a4.041,4.041,0,0,0,.336,1.82V15Zm-1.867-1.57a1.945,1.945,0,0,0,.922-.223,1.462,1.462,0,0,0,.625-.6V11.156h-.844q-1.7,0-1.8,1.172l-.008.133a.9.9,0,0,0,.3.7A1.153,1.153,0,0,0,19.434,13.43Zm10.3-4.766a6.134,6.134,0,0,0-.812-.062,1.654,1.654,0,0,0-1.68.867V15H24.98V6.547h2.133l.063,1.008a2.092,2.092,0,0,1,1.883-1.164,2.366,2.366,0,0,1,.7.1ZM35.48,15a2.507,2.507,0,0,1-.227-.758,2.732,2.732,0,0,1-2.133.914,3,3,0,0,1-2.059-.719,2.312,2.312,0,0,1-.816-1.812,2.389,2.389,0,0,1,1-2.062,4.915,4.915,0,0,1,2.879-.727H35.16V9.352a1.393,1.393,0,0,0-.3-.937,1.183,1.183,0,0,0-.949-.352,1.345,1.345,0,0,0-.895.273.929.929,0,0,0-.324.75H30.434a2.268,2.268,0,0,1,.453-1.359,3,3,0,0,1,1.281-.98,4.669,4.669,0,0,1,1.859-.355,3.689,3.689,0,0,1,2.48.785,2.747,2.747,0,0,1,.918,2.207v3.664a4.041,4.041,0,0,0,.336,1.82V15Zm-1.867-1.57a1.945,1.945,0,0,0,.922-.223,1.462,1.462,0,0,0,.625-.6V11.156h-.844q-1.7,0-1.8,1.172l-.008.133a.9.9,0,0,0,.3.7A1.153,1.153,0,0,0,33.613,13.43Zm9.063-.094a1.481,1.481,0,0,0,1.016-.344,1.2,1.2,0,0,0,.406-.914h2.117a2.9,2.9,0,0,1-.469,1.574,3.093,3.093,0,0,1-1.262,1.109,3.949,3.949,0,0,1-1.77.395A3.67,3.67,0,0,1,39.855,14a4.56,4.56,0,0,1-1.047-3.184v-.148a4.508,4.508,0,0,1,1.039-3.117A3.627,3.627,0,0,1,42.7,6.391a3.555,3.555,0,0,1,2.543.9,3.2,3.2,0,0,1,.973,2.4H44.1a1.551,1.551,0,0,0-.406-1.072,1.51,1.51,0,0,0-2.223.163,3.333,3.333,0,0,0-.4,1.866v.235a3.375,3.375,0,0,0,.4,1.878A1.377,1.377,0,0,0,42.676,13.336Zm7.531-8.867V6.547h1.445V8.2H50.207v4.219a1.007,1.007,0,0,0,.18.672.9.9,0,0,0,.688.2,3.6,3.6,0,0,0,.664-.055v1.711a4.648,4.648,0,0,1-1.367.2,2.156,2.156,0,0,1-2.422-2.4V8.2H46.715V6.547h1.234V4.469ZM56.8,15.156a4.15,4.15,0,0,1-3.027-1.141,4.054,4.054,0,0,1-1.168-3.039v-.219A5.106,5.106,0,0,1,53.1,8.48a3.612,3.612,0,0,1,1.395-1.547,3.914,3.914,0,0,1,2.059-.543,3.508,3.508,0,0,1,2.73,1.094,4.444,4.444,0,0,1,1,3.1v.922H54.895a2.1,2.1,0,0,0,.66,1.328,2,2,0,0,0,1.395.5,2.437,2.437,0,0,0,2.039-.945L60.1,13.633a3.389,3.389,0,0,1-1.375,1.121A4.511,4.511,0,0,1,56.8,15.156Zm-.258-6.945a1.411,1.411,0,0,0-1.09.455,2.357,2.357,0,0,0-.535,1.3h3.141V9.788a1.681,1.681,0,0,0-.406-1.165A1.456,1.456,0,0,0,56.543,8.211Zm9.766.453A6.134,6.134,0,0,0,65.5,8.6a1.654,1.654,0,0,0-1.68.867V15H61.559V6.547h2.133l.063,1.008a2.092,2.092,0,0,1,1.883-1.164,2.366,2.366,0,0,1,.7.1ZM69.832,15H67.574V6.547h2.258ZM69.168,3.117h2.461L69.465,5.539H67.629Zm7.188,9.547a.727.727,0,0,0-.41-.652,4.659,4.659,0,0,0-1.316-.426q-3.016-.633-3.016-2.562a2.323,2.323,0,0,1,.934-1.879,3.766,3.766,0,0,1,2.441-.754,4.053,4.053,0,0,1,2.574.758,2.388,2.388,0,0,1,.965,1.969H76.27a1.092,1.092,0,0,0-.312-.8A1.322,1.322,0,0,0,74.98,8a1.351,1.351,0,0,0-.883.258.814.814,0,0,0-.312.656.7.7,0,0,0,.355.605,3.657,3.657,0,0,0,1.2.4,9.8,9.8,0,0,1,1.422.379,2.336,2.336,0,0,1,1.789,2.273,2.2,2.2,0,0,1-.992,1.871A4.28,4.28,0,0,1,75,15.156a4.47,4.47,0,0,1-1.887-.379,3.166,3.166,0,0,1-1.293-1.039,2.414,2.414,0,0,1-.469-1.426h2.141a1.179,1.179,0,0,0,.445.922,1.766,1.766,0,0,0,1.109.32,1.635,1.635,0,0,0,.98-.246A.766.766,0,0,0,76.355,12.664Zm6.352-8.2V6.547h1.445V8.2H82.707v4.219a1.007,1.007,0,0,0,.18.672.9.9,0,0,0,.688.2,3.6,3.6,0,0,0,.664-.055v1.711a4.648,4.648,0,0,1-1.367.2,2.156,2.156,0,0,1-2.422-2.4V8.2H79.215V6.547h1.234V4.469ZM87.793,15H85.527V6.547h2.266Zm-2.4-10.641a1.112,1.112,0,0,1,.34-.836,1.465,1.465,0,0,1,1.848,0,1.105,1.105,0,0,1,.344.836,1.108,1.108,0,0,1-.348.844,1.448,1.448,0,0,1-1.836,0A1.108,1.108,0,0,1,85.395,4.359Zm7.773,8.977a1.481,1.481,0,0,0,1.016-.344,1.2,1.2,0,0,0,.406-.914h2.117a2.9,2.9,0,0,1-.469,1.574,3.093,3.093,0,0,1-1.262,1.109,3.949,3.949,0,0,1-1.77.395A3.67,3.67,0,0,1,90.348,14,4.56,4.56,0,0,1,89.3,10.82v-.148A4.508,4.508,0,0,1,90.34,7.555a3.627,3.627,0,0,1,2.852-1.164,3.555,3.555,0,0,1,2.543.9,3.2,3.2,0,0,1,.973,2.4H94.59a1.551,1.551,0,0,0-.406-1.072,1.51,1.51,0,0,0-2.223.163,3.333,3.333,0,0,0-.4,1.866v.235a3.375,3.375,0,0,0,.4,1.878A1.377,1.377,0,0,0,93.168,13.336ZM102.895,15a2.507,2.507,0,0,1-.227-.758,2.732,2.732,0,0,1-2.133.914,3,3,0,0,1-2.059-.719,2.312,2.312,0,0,1-.816-1.812,2.389,2.389,0,0,1,1-2.062,4.915,4.915,0,0,1,2.879-.727h1.039V9.352a1.393,1.393,0,0,0-.3-.937,1.183,1.183,0,0,0-.949-.352,1.345,1.345,0,0,0-.895.273.929.929,0,0,0-.324.75H97.848A2.268,2.268,0,0,1,98.3,7.727a3,3,0,0,1,1.281-.98,4.669,4.669,0,0,1,1.859-.355,3.689,3.689,0,0,1,2.48.785,2.747,2.747,0,0,1,.918,2.207v3.664a4.041,4.041,0,0,0,.336,1.82V15Zm-1.867-1.57a1.945,1.945,0,0,0,.922-.223,1.462,1.462,0,0,0,.625-.6V11.156h-.844q-1.7,0-1.8,1.172l-.008.133a.9.9,0,0,0,.3.7A1.153,1.153,0,0,0,101.027,13.43Zm10.125-.766a.727.727,0,0,0-.41-.652,4.659,4.659,0,0,0-1.316-.426q-3.016-.633-3.016-2.562a2.323,2.323,0,0,1,.934-1.879,3.766,3.766,0,0,1,2.441-.754,4.053,4.053,0,0,1,2.574.758,2.388,2.388,0,0,1,.965,1.969h-2.258a1.092,1.092,0,0,0-.312-.8A1.322,1.322,0,0,0,109.777,8a1.351,1.351,0,0,0-.883.258.814.814,0,0,0-.312.656.7.7,0,0,0,.355.605,3.657,3.657,0,0,0,1.2.4,9.8,9.8,0,0,1,1.422.379,2.336,2.336,0,0,1,1.789,2.273,2.2,2.2,0,0,1-.992,1.871,4.28,4.28,0,0,1-2.562.715,4.47,4.47,0,0,1-1.887-.379,3.166,3.166,0,0,1-1.293-1.039,2.414,2.414,0,0,1-.469-1.426h2.141a1.179,1.179,0,0,0,.445.922,1.766,1.766,0,0,0,1.109.32,1.635,1.635,0,0,0,.98-.246A.766.766,0,0,0,111.152,12.664Z" transform="translate(372.854 4581.271) rotate(-90)" fill="#12263f"/>
    <path id="Trazado_812595" data-name="Trazado 812595" d="M15.012,11.211A4.025,4.025,0,0,1,13.656,14.1a4.76,4.76,0,0,1-3.223,1.055,4.28,4.28,0,0,1-3.441-1.473A6.038,6.038,0,0,1,5.738,9.641v-.7a6.819,6.819,0,0,1,.578-2.891A4.332,4.332,0,0,1,7.969,4.137a4.629,4.629,0,0,1,2.5-.668,4.637,4.637,0,0,1,3.172,1.055,4.326,4.326,0,0,1,1.391,2.961H12.684a2.376,2.376,0,0,0-.613-1.6,2.271,2.271,0,0,0-1.605-.5,1.991,1.991,0,0,0-1.754.84,4.707,4.707,0,0,0-.6,2.605V9.7a5.038,5.038,0,0,0,.559,2.7,1.954,1.954,0,0,0,1.762.852,2.314,2.314,0,0,0,1.621-.5,2.241,2.241,0,0,0,.613-1.535ZM21.3,15a2.507,2.507,0,0,1-.227-.758,2.732,2.732,0,0,1-2.133.914,3,3,0,0,1-2.059-.719,2.312,2.312,0,0,1-.816-1.812,2.389,2.389,0,0,1,1-2.062,4.915,4.915,0,0,1,2.879-.727H20.98V9.352a1.393,1.393,0,0,0-.3-.937,1.183,1.183,0,0,0-.949-.352,1.345,1.345,0,0,0-.895.273.929.929,0,0,0-.324.75H16.254a2.268,2.268,0,0,1,.453-1.359,3,3,0,0,1,1.281-.98,4.669,4.669,0,0,1,1.859-.355,3.689,3.689,0,0,1,2.48.785,2.747,2.747,0,0,1,.918,2.207v3.664a4.041,4.041,0,0,0,.336,1.82V15Zm-1.867-1.57a1.945,1.945,0,0,0,.922-.223,1.462,1.462,0,0,0,.625-.6V11.156h-.844q-1.7,0-1.8,1.172l-.008.133a.9.9,0,0,0,.3.7A1.153,1.153,0,0,0,19.434,13.43Zm10.3-4.766a6.134,6.134,0,0,0-.812-.062,1.654,1.654,0,0,0-1.68.867V15H24.98V6.547h2.133l.063,1.008a2.092,2.092,0,0,1,1.883-1.164,2.366,2.366,0,0,1,.7.1ZM35.48,15a2.507,2.507,0,0,1-.227-.758,2.732,2.732,0,0,1-2.133.914,3,3,0,0,1-2.059-.719,2.312,2.312,0,0,1-.816-1.812,2.389,2.389,0,0,1,1-2.062,4.915,4.915,0,0,1,2.879-.727H35.16V9.352a1.393,1.393,0,0,0-.3-.937,1.183,1.183,0,0,0-.949-.352,1.345,1.345,0,0,0-.895.273.929.929,0,0,0-.324.75H30.434a2.268,2.268,0,0,1,.453-1.359,3,3,0,0,1,1.281-.98,4.669,4.669,0,0,1,1.859-.355,3.689,3.689,0,0,1,2.48.785,2.747,2.747,0,0,1,.918,2.207v3.664a4.041,4.041,0,0,0,.336,1.82V15Zm-1.867-1.57a1.945,1.945,0,0,0,.922-.223,1.462,1.462,0,0,0,.625-.6V11.156h-.844q-1.7,0-1.8,1.172l-.008.133a.9.9,0,0,0,.3.7A1.153,1.153,0,0,0,33.613,13.43Zm9.063-.094a1.481,1.481,0,0,0,1.016-.344,1.2,1.2,0,0,0,.406-.914h2.117a2.9,2.9,0,0,1-.469,1.574,3.093,3.093,0,0,1-1.262,1.109,3.949,3.949,0,0,1-1.77.395A3.67,3.67,0,0,1,39.855,14a4.56,4.56,0,0,1-1.047-3.184v-.148a4.508,4.508,0,0,1,1.039-3.117A3.627,3.627,0,0,1,42.7,6.391a3.555,3.555,0,0,1,2.543.9,3.2,3.2,0,0,1,.973,2.4H44.1a1.551,1.551,0,0,0-.406-1.072,1.51,1.51,0,0,0-2.223.163,3.333,3.333,0,0,0-.4,1.866v.235a3.375,3.375,0,0,0,.4,1.878A1.377,1.377,0,0,0,42.676,13.336Zm7.531-8.867V6.547h1.445V8.2H50.207v4.219a1.007,1.007,0,0,0,.18.672.9.9,0,0,0,.688.2,3.6,3.6,0,0,0,.664-.055v1.711a4.648,4.648,0,0,1-1.367.2,2.156,2.156,0,0,1-2.422-2.4V8.2H46.715V6.547h1.234V4.469ZM56.8,15.156a4.15,4.15,0,0,1-3.027-1.141,4.054,4.054,0,0,1-1.168-3.039v-.219A5.106,5.106,0,0,1,53.1,8.48a3.612,3.612,0,0,1,1.395-1.547,3.914,3.914,0,0,1,2.059-.543,3.508,3.508,0,0,1,2.73,1.094,4.444,4.444,0,0,1,1,3.1v.922H54.895a2.1,2.1,0,0,0,.66,1.328,2,2,0,0,0,1.395.5,2.437,2.437,0,0,0,2.039-.945L60.1,13.633a3.389,3.389,0,0,1-1.375,1.121A4.511,4.511,0,0,1,56.8,15.156Zm-.258-6.945a1.411,1.411,0,0,0-1.09.455,2.357,2.357,0,0,0-.535,1.3h3.141V9.788a1.681,1.681,0,0,0-.406-1.165A1.456,1.456,0,0,0,56.543,8.211Zm9.766.453A6.134,6.134,0,0,0,65.5,8.6a1.654,1.654,0,0,0-1.68.867V15H61.559V6.547h2.133l.063,1.008a2.092,2.092,0,0,1,1.883-1.164,2.366,2.366,0,0,1,.7.1ZM69.832,15H67.574V6.547h2.258ZM69.168,3.117h2.461L69.465,5.539H67.629Zm7.188,9.547a.727.727,0,0,0-.41-.652,4.659,4.659,0,0,0-1.316-.426q-3.016-.633-3.016-2.562a2.323,2.323,0,0,1,.934-1.879,3.766,3.766,0,0,1,2.441-.754,4.053,4.053,0,0,1,2.574.758,2.388,2.388,0,0,1,.965,1.969H76.27a1.092,1.092,0,0,0-.312-.8A1.322,1.322,0,0,0,74.98,8a1.351,1.351,0,0,0-.883.258.814.814,0,0,0-.312.656.7.7,0,0,0,.355.605,3.657,3.657,0,0,0,1.2.4,9.8,9.8,0,0,1,1.422.379,2.336,2.336,0,0,1,1.789,2.273,2.2,2.2,0,0,1-.992,1.871A4.28,4.28,0,0,1,75,15.156a4.47,4.47,0,0,1-1.887-.379,3.166,3.166,0,0,1-1.293-1.039,2.414,2.414,0,0,1-.469-1.426h2.141a1.179,1.179,0,0,0,.445.922,1.766,1.766,0,0,0,1.109.32,1.635,1.635,0,0,0,.98-.246A.766.766,0,0,0,76.355,12.664Zm6.352-8.2V6.547h1.445V8.2H82.707v4.219a1.007,1.007,0,0,0,.18.672.9.9,0,0,0,.688.2,3.6,3.6,0,0,0,.664-.055v1.711a4.648,4.648,0,0,1-1.367.2,2.156,2.156,0,0,1-2.422-2.4V8.2H79.215V6.547h1.234V4.469ZM87.793,15H85.527V6.547h2.266Zm-2.4-10.641a1.112,1.112,0,0,1,.34-.836,1.465,1.465,0,0,1,1.848,0,1.105,1.105,0,0,1,.344.836,1.108,1.108,0,0,1-.348.844,1.448,1.448,0,0,1-1.836,0A1.108,1.108,0,0,1,85.395,4.359Zm7.773,8.977a1.481,1.481,0,0,0,1.016-.344,1.2,1.2,0,0,0,.406-.914h2.117a2.9,2.9,0,0,1-.469,1.574,3.093,3.093,0,0,1-1.262,1.109,3.949,3.949,0,0,1-1.77.395A3.67,3.67,0,0,1,90.348,14,4.56,4.56,0,0,1,89.3,10.82v-.148A4.508,4.508,0,0,1,90.34,7.555a3.627,3.627,0,0,1,2.852-1.164,3.555,3.555,0,0,1,2.543.9,3.2,3.2,0,0,1,.973,2.4H94.59a1.551,1.551,0,0,0-.406-1.072,1.51,1.51,0,0,0-2.223.163,3.333,3.333,0,0,0-.4,1.866v.235a3.375,3.375,0,0,0,.4,1.878A1.377,1.377,0,0,0,93.168,13.336ZM102.895,15a2.507,2.507,0,0,1-.227-.758,2.732,2.732,0,0,1-2.133.914,3,3,0,0,1-2.059-.719,2.312,2.312,0,0,1-.816-1.812,2.389,2.389,0,0,1,1-2.062,4.915,4.915,0,0,1,2.879-.727h1.039V9.352a1.393,1.393,0,0,0-.3-.937,1.183,1.183,0,0,0-.949-.352,1.345,1.345,0,0,0-.895.273.929.929,0,0,0-.324.75H97.848A2.268,2.268,0,0,1,98.3,7.727a3,3,0,0,1,1.281-.98,4.669,4.669,0,0,1,1.859-.355,3.689,3.689,0,0,1,2.48.785,2.747,2.747,0,0,1,.918,2.207v3.664a4.041,4.041,0,0,0,.336,1.82V15Zm-1.867-1.57a1.945,1.945,0,0,0,.922-.223,1.462,1.462,0,0,0,.625-.6V11.156h-.844q-1.7,0-1.8,1.172l-.008.133a.9.9,0,0,0,.3.7A1.153,1.153,0,0,0,101.027,13.43Zm10.125-.766a.727.727,0,0,0-.41-.652,4.659,4.659,0,0,0-1.316-.426q-3.016-.633-3.016-2.562a2.323,2.323,0,0,1,.934-1.879,3.766,3.766,0,0,1,2.441-.754,4.053,4.053,0,0,1,2.574.758,2.388,2.388,0,0,1,.965,1.969h-2.258a1.092,1.092,0,0,0-.312-.8A1.322,1.322,0,0,0,109.777,8a1.351,1.351,0,0,0-.883.258.814.814,0,0,0-.312.656.7.7,0,0,0,.355.605,3.657,3.657,0,0,0,1.2.4,9.8,9.8,0,0,1,1.422.379,2.336,2.336,0,0,1,1.789,2.273,2.2,2.2,0,0,1-.992,1.871,4.28,4.28,0,0,1-2.562.715,4.47,4.47,0,0,1-1.887-.379,3.166,3.166,0,0,1-1.293-1.039,2.414,2.414,0,0,1-.469-1.426h2.141a1.179,1.179,0,0,0,.445.922,1.766,1.766,0,0,0,1.109.32,1.635,1.635,0,0,0,.98-.246A.766.766,0,0,0,111.152,12.664Z" transform="translate(796.146 4563.271) rotate(-90)" fill="#12263f"/>
    <path id="Trazado_812568" data-name="Trazado 812568" d="M0,0V89.217" transform="translate(800.832 3548.778)" fill="none" stroke="#59bee2" stroke-width="1.5"/>
    <path id="Trazado_812569" data-name="Trazado 812569" d="M0,0V50" transform="translate(381 3587.995)" fill="none" stroke="#59bee2" stroke-width="1"/>
    <path id="Trazado_812577" data-name="Trazado 812577" d="M0,0V50" transform="translate(1263 3587.778)" fill="none" stroke="#59bee2" stroke-width="1"/>
    <path id="Trazado_812570" data-name="Trazado 812570" d="M883,0H0" transform="translate(380.5 3587.778)" fill="none" stroke="#59bee2" stroke-width="1.5"/>
    <path id="Trazado_812578" data-name="Trazado 812578" d="M268.947,0H0" transform="translate(206.553 3657.778)" fill="none" stroke="#59bee2" stroke-width="1.5"/>
    <path id="Trazado_812579" data-name="Trazado 812579" d="M268.947,0H0" transform="translate(606.553 3657.778)" fill="none" stroke="#59bee2" stroke-width="1.5"/>
    <path id="Trazado_812580" data-name="Trazado 812580" d="M268.947,0H0" transform="translate(1060.26 3657.778)" fill="none" stroke="#59bee2" stroke-width="1.5"/>
    <path id="Trazado_812591" data-name="Trazado 812591" d="M260,0H0" transform="translate(381.5 4264.106)" fill="none" stroke="#59bee2" stroke-width="1.5"/>
    <path id="Trazado_812592" data-name="Trazado 812592" d="M245,0H0" transform="translate(804.553 4264.106)" fill="none" stroke="#59bee2" stroke-width="1.5"/>
    <g id="Grupo_1067502" data-name="Grupo 1067502" transform="translate(274.793 3752.545)">
      <g id="Grupo_1065522" data-name="Grupo 1065522" transform="translate(0)">
        <text id="Promueven_el_desarrollo_de_los_procesos_vitales_de_la_familia._Desarrollan_capacidades_en_los_individuos_y_las_familias_que_propicien_estilos_de_vida_saludables._Desarrollan_capacidades_para_minimizar_los_factores_de_riesgo_existentes_en_las_viviendas_y_" data-name="Promueven el desarrollo de los procesos vitales de la familia.

Desarrollan capacidades en los individuos y las familias que propicien estilos de vida saludables.

Desarrollan capacidades para minimizar los factores de riesgo existentes en las viviendas y " transform="translate(32)" fill="#12263f" font-size="16" font-family="Roboto-Regular, Roboto"><tspan x="0" y="15">Promueven el desarrollo de los </tspan><tspan x="0" y="35">procesos vitales de la familia.</tspan><tspan x="0" y="55"></tspan><tspan x="0" y="75">Desarrollan capacidades en los </tspan><tspan x="0" y="95">individuos y las familias que </tspan><tspan x="0" y="115">propicien estilos de vida </tspan><tspan x="0" y="135">saludables.</tspan><tspan x="0" y="155"></tspan><tspan x="0" y="175">Desarrollan capacidades para </tspan><tspan x="0" y="195">minimizar los factores de </tspan><tspan x="0" y="215">riesgo existentes en las </tspan><tspan x="0" y="235">viviendas y el entorno.</tspan><tspan x="0" y="255"></tspan><tspan x="0" y="275">Fomentan la construcción de </tspan><tspan x="0" y="295">una cultura basada en la </tspan><tspan x="0" y="315" xml:space="preserve">solidaridad,  respeto, desarrollo </tspan><tspan x="0" y="335">de valores y principios.</tspan><tspan x="0" y="355"></tspan></text>
        <path id="Icon_awesome-check" data-name="Icon awesome-check" d="M5.434,16.274l-5.2-5.2a.8.8,0,0,1,0-1.131L1.366,8.812a.8.8,0,0,1,1.131,0l3.5,3.5,7.5-7.5a.8.8,0,0,1,1.131,0l1.131,1.131a.8.8,0,0,1,0,1.131l-9.2,9.2A.8.8,0,0,1,5.434,16.274Z" transform="translate(0 -0.68)" fill="#59bee2"/>
        <path id="Icon_awesome-check-2" data-name="Icon awesome-check" d="M5.434,16.274l-5.2-5.2a.8.8,0,0,1,0-1.131L1.366,8.812a.8.8,0,0,1,1.131,0l3.5,3.5,7.5-7.5a.8.8,0,0,1,1.131,0l1.131,1.131a.8.8,0,0,1,0,1.131l-9.2,9.2A.8.8,0,0,1,5.434,16.274Z" transform="translate(0 59.651)" fill="#59bee2"/>
        <path id="Icon_awesome-check-3" data-name="Icon awesome-check" d="M5.434,16.274l-5.2-5.2a.8.8,0,0,1,0-1.131L1.366,8.812a.8.8,0,0,1,1.131,0l3.5,3.5,7.5-7.5a.8.8,0,0,1,1.131,0l1.131,1.131a.8.8,0,0,1,0,1.131l-9.2,9.2A.8.8,0,0,1,5.434,16.274Z" transform="translate(0 159.026)" fill="#59bee2"/>
        <path id="Icon_awesome-check-4" data-name="Icon awesome-check" d="M5.434,16.274l-5.2-5.2a.8.8,0,0,1,0-1.131L1.366,8.812a.8.8,0,0,1,1.131,0l3.5,3.5,7.5-7.5a.8.8,0,0,1,1.131,0l1.131,1.131a.8.8,0,0,1,0,1.131l-9.2,9.2A.8.8,0,0,1,5.434,16.274Z" transform="translate(0 258.401)" fill="#59bee2"/>
      </g>
      <path id="Trazado_801841" data-name="Trazado 801841" d="M714.5,0" transform="translate(-455.707 177.948)" fill="none" stroke="#afafaf" stroke-width="1"/>
    </g>
    <g id="Grupo_1067502-2" data-name="Grupo 1067502" transform="translate(676 3746.544)">
      <g id="Grupo_1065522-2" data-name="Grupo 1065522" transform="translate(0)">
        <text id="Promueven_el_ejercicio_de_la_ciudadanía_actuando_frente_al_reconocimiento_y_exigibilidad_de_los_derechos_y_la_participación_social_activa._Gestionan_la_coordinación_intersectorial_en_el_marco_de_políticas_públicas_e_institucionales_de_los_entornos_e" data-name="Promueven el ejercicio de la ciudadanía, actuando frente  al reconocimiento y   exigibilidad de los derechos y  la participación social activa.

Gestionan la coordinación intersectorial en el marco de  políticas públicas e institucionales de los entornos e" transform="translate(32)" fill="#12263f" font-size="16" font-family="Roboto-Regular, Roboto"><tspan x="0" y="15">Promueven el ejercicio de la </tspan><tspan x="0" y="35" xml:space="preserve">ciudadanía, actuando frente  al </tspan><tspan x="0" y="55" xml:space="preserve">reconocimiento y   exigibilidad de </tspan><tspan x="0" y="75" xml:space="preserve">los derechos y  la participación </tspan><tspan x="0" y="95">social activa.</tspan><tspan x="0" y="115"></tspan><tspan x="0" y="135">Gestionan la coordinación </tspan><tspan x="0" y="155" xml:space="preserve">intersectorial en el marco de  </tspan><tspan x="0" y="175">políticas públicas e institucionales </tspan><tspan x="0" y="195">de los entornos educativos.</tspan><tspan x="0" y="215"></tspan><tspan x="0" y="235">Facilitan respuestas por medio de </tspan><tspan x="0" y="255" xml:space="preserve">la articulación de la  oferta de los </tspan><tspan x="0" y="275">servicios sociales.</tspan><tspan x="0" y="295"></tspan><tspan x="0" y="315" xml:space="preserve">Contribuyen al                </tspan><tspan x="0" y="335">fortalecimiento de habilidades, </tspan><tspan x="0" y="355">valores, aptitudes y actitudes. </tspan><tspan x="0" y="375"></tspan></text>
        <path id="Icon_awesome-check-5" data-name="Icon awesome-check" d="M5.434,16.274l-5.2-5.2a.8.8,0,0,1,0-1.131L1.366,8.812a.8.8,0,0,1,1.131,0l3.5,3.5,7.5-7.5a.8.8,0,0,1,1.131,0l1.131,1.131a.8.8,0,0,1,0,1.131l-9.2,9.2A.8.8,0,0,1,5.434,16.274Z" transform="translate(0 -0.68)" fill="#59bee2"/>
        <path id="Icon_awesome-check-6" data-name="Icon awesome-check" d="M5.434,16.274l-5.2-5.2a.8.8,0,0,1,0-1.131L1.366,8.812a.8.8,0,0,1,1.131,0l3.5,3.5,7.5-7.5a.8.8,0,0,1,1.131,0l1.131,1.131a.8.8,0,0,1,0,1.131l-9.2,9.2A.8.8,0,0,1,5.434,16.274Z" transform="translate(0 119.651)" fill="#59bee2"/>
        <path id="Icon_awesome-check-7" data-name="Icon awesome-check" d="M5.434,16.274l-5.2-5.2a.8.8,0,0,1,0-1.131L1.366,8.812a.8.8,0,0,1,1.131,0l3.5,3.5,7.5-7.5a.8.8,0,0,1,1.131,0l1.131,1.131a.8.8,0,0,1,0,1.131l-9.2,9.2A.8.8,0,0,1,5.434,16.274Z" transform="translate(0 219.982)" fill="#59bee2"/>
        <path id="Icon_awesome-check-8" data-name="Icon awesome-check" d="M5.434,16.274l-5.2-5.2a.8.8,0,0,1,0-1.131L1.366,8.812a.8.8,0,0,1,1.131,0l3.5,3.5,7.5-7.5a.8.8,0,0,1,1.131,0l1.131,1.131a.8.8,0,0,1,0,1.131l-9.2,9.2A.8.8,0,0,1,5.434,16.274Z" transform="translate(0 300.678)" fill="#59bee2"/>
      </g>
      <path id="Trazado_801841-2" data-name="Trazado 801841" d="M714.5,0" transform="translate(-454.795 177.948)" fill="none" stroke="#afafaf" stroke-width="1"/>
    </g>
    <g id="Grupo_1067502-3" data-name="Grupo 1067502" transform="translate(1133 3735.495)">
      <g id="Grupo_1065522-3" data-name="Grupo 1065522" transform="translate(0)">
        <text id="Contribuyen_al_mejoramiento_de_las_condiciones_de_los_trabajadores_en_su_entorno_laboral._Promueven_condiciones_de_trabajo_saludables_para_protege_la_salud_y_el_bienestar_de_la_población_trabajadora_sus_familias_y_comunidades._Promueven_la_participació" data-name="Contribuyen al mejoramiento de las condiciones de los trabajadores en su entorno laboral.

Promueven condiciones de trabajo saludables para protege  la salud y el bienestar de la población trabajadora, sus familias y comunidades.

Promueven la participació" transform="translate(32)" fill="#12263f" font-size="16" font-family="Roboto-Regular, Roboto"><tspan x="0" y="15">Contribuyen al mejoramiento de </tspan><tspan x="0" y="35">las condiciones de los </tspan><tspan x="0" y="55">trabajadores en su entorno laboral.</tspan><tspan x="0" y="75"></tspan><tspan x="0" y="95">Promueven condiciones de trabajo </tspan><tspan x="0" y="115" xml:space="preserve">saludables para protege  la salud y </tspan><tspan x="0" y="135">el bienestar de la población </tspan><tspan x="0" y="155">trabajadora, sus familias y </tspan><tspan x="0" y="175">comunidades.</tspan><tspan x="0" y="195"></tspan><tspan x="0" y="215" xml:space="preserve">Promueven la participación de los  </tspan><tspan x="0" y="235">trabajadores en los escenarios.</tspan><tspan x="0" y="255"></tspan><tspan x="0" y="275" xml:space="preserve">Implementan y evaluación de   </tspan><tspan x="0" y="295">planes y programas para el logro </tspan><tspan x="0" y="315">del bienestar colectivo en relación </tspan><tspan x="0" y="335">con la salud en el trabajo.</tspan><tspan x="0" y="355"></tspan><tspan x="0" y="375" xml:space="preserve">Cuentan con información  y  </tspan><tspan x="0" y="395" xml:space="preserve">evidencia acerca situaciones de  </tspan><tspan x="0" y="415">riesgo, relacionadas con las </tspan><tspan x="0" y="435">prácticas que se desarrollan para </tspan><tspan x="0" y="455">la toma decisiones.</tspan></text>
        <path id="Icon_awesome-check-9" data-name="Icon awesome-check" d="M5.434,16.274l-5.2-5.2a.8.8,0,0,1,0-1.131L1.366,8.812a.8.8,0,0,1,1.131,0l3.5,3.5,7.5-7.5a.8.8,0,0,1,1.131,0l1.131,1.131a.8.8,0,0,1,0,1.131l-9.2,9.2A.8.8,0,0,1,5.434,16.274Z" transform="translate(0 -0.68)" fill="#59bee2"/>
        <path id="Icon_awesome-check-10" data-name="Icon awesome-check" d="M5.434,16.274l-5.2-5.2a.8.8,0,0,1,0-1.131L1.366,8.812a.8.8,0,0,1,1.131,0l3.5,3.5,7.5-7.5a.8.8,0,0,1,1.131,0l1.131,1.131a.8.8,0,0,1,0,1.131l-9.2,9.2A.8.8,0,0,1,5.434,16.274Z" transform="translate(0 78.967)" fill="#59bee2"/>
        <path id="Icon_awesome-check-11" data-name="Icon awesome-check" d="M5.434,16.274l-5.2-5.2a.8.8,0,0,1,0-1.131L1.366,8.812a.8.8,0,0,1,1.131,0l3.5,3.5,7.5-7.5a.8.8,0,0,1,1.131,0l1.131,1.131a.8.8,0,0,1,0,1.131l-9.2,9.2A.8.8,0,0,1,5.434,16.274Z" transform="translate(0 199.753)" fill="#59bee2"/>
        <path id="Icon_awesome-check-12" data-name="Icon awesome-check" d="M5.434,16.274l-5.2-5.2a.8.8,0,0,1,0-1.131L1.366,8.812a.8.8,0,0,1,1.131,0l3.5,3.5,7.5-7.5a.8.8,0,0,1,1.131,0l1.131,1.131a.8.8,0,0,1,0,1.131l-9.2,9.2A.8.8,0,0,1,5.434,16.274Z" transform="translate(0 259.875)" fill="#59bee2"/>
        <path id="Icon_awesome-check-13" data-name="Icon awesome-check" d="M5.434,16.274l-5.2-5.2a.8.8,0,0,1,0-1.131L1.366,8.812a.8.8,0,0,1,1.131,0l3.5,3.5,7.5-7.5a.8.8,0,0,1,1.131,0l1.131,1.131a.8.8,0,0,1,0,1.131l-9.2,9.2A.8.8,0,0,1,5.434,16.274Z" transform="translate(0 359.875)" fill="#59bee2"/>
      </g>
      <path id="Trazado_801841-3" data-name="Trazado 801841" d="M714.5,0" transform="translate(-454.5 260.282)" fill="none" stroke="#afafaf" stroke-width="1"/>
    </g>
    <g id="Grupo_1067502-4" data-name="Grupo 1067502" transform="translate(456 4333.323)">
      <g id="Grupo_1065522-4" data-name="Grupo 1065522" transform="translate(0)">
        <text id="Promueven_acceso_a_bienes_y_servicios_para_que_aporten_e_incidan_en_el_mejoramiento_de_la_calidad_de_vida_de_las_comunidades._Promueven_la_participación_de_los_individuos_y_comunidades_organizadas_en_los_espacios_de_toma_de_decisiones_para_i" data-name="Promueven acceso a bienes y servicios para que aporten e incidan en el mejoramiento de la calidad de vida de las comunidades.

Promueven la participación  de los individuos y comunidades              organizadas en los espacios de toma de decisiones para i" transform="translate(32)" fill="#12263f" font-size="16" font-family="Roboto-Regular, Roboto"><tspan x="0" y="15">Promueven acceso a bienes y </tspan><tspan x="0" y="35">servicios para que aporten e </tspan><tspan x="0" y="55">incidan en el mejoramiento de </tspan><tspan x="0" y="75">la calidad de vida de las </tspan><tspan x="0" y="95">comunidades.</tspan><tspan x="0" y="115"></tspan><tspan x="0" y="135" xml:space="preserve">Promueven la participación  </tspan><tspan x="0" y="155">de los individuos y </tspan><tspan x="0" y="175" xml:space="preserve">comunidades              </tspan><tspan x="0" y="195">organizadas en los espacios </tspan><tspan x="0" y="215">de toma de decisiones para </tspan><tspan x="0" y="235">incidir en las decisiones de la </tspan><tspan x="0" y="255">gestión pública.</tspan><tspan x="0" y="275"></tspan><tspan x="0" y="295">Promueven en grupos o </tspan><tspan x="0" y="315">colectivos, prácticas de </tspan><tspan x="0" y="335">protección y recuperación de </tspan><tspan x="0" y="355">entornos y ecosistemas </tspan><tspan x="0" y="375">estratégico.</tspan></text>
        <path id="Icon_awesome-check-14" data-name="Icon awesome-check" d="M5.434,16.274l-5.2-5.2a.8.8,0,0,1,0-1.131L1.366,8.812a.8.8,0,0,1,1.131,0l3.5,3.5,7.5-7.5a.8.8,0,0,1,1.131,0l1.131,1.131a.8.8,0,0,1,0,1.131l-9.2,9.2A.8.8,0,0,1,5.434,16.274Z" transform="translate(0 -0.68)" fill="#59bee2"/>
        <path id="Icon_awesome-check-15" data-name="Icon awesome-check" d="M5.434,16.274l-5.2-5.2a.8.8,0,0,1,0-1.131L1.366,8.812a.8.8,0,0,1,1.131,0l3.5,3.5,7.5-7.5a.8.8,0,0,1,1.131,0l1.131,1.131a.8.8,0,0,1,0,1.131l-9.2,9.2A.8.8,0,0,1,5.434,16.274Z" transform="translate(0 119.651)" fill="#59bee2"/>
        <path id="Icon_awesome-check-16" data-name="Icon awesome-check" d="M5.434,16.274l-5.2-5.2a.8.8,0,0,1,0-1.131L1.366,8.812a.8.8,0,0,1,1.131,0l3.5,3.5,7.5-7.5a.8.8,0,0,1,1.131,0l1.131,1.131a.8.8,0,0,1,0,1.131l-9.2,9.2A.8.8,0,0,1,5.434,16.274Z" transform="translate(0 281.678)" fill="#59bee2"/>
      </g>
      <path id="Trazado_801841-4" data-name="Trazado 801841" d="M714.5,0" transform="translate(-485.5 177.948)" fill="none" stroke="#afafaf" stroke-width="1"/>
    </g>
    <g id="Grupo_1067502-5" data-name="Grupo 1067502" transform="translate(884.793 4333.324)">
      <g id="Grupo_1065522-5" data-name="Grupo 1065522" transform="translate(0)">
        <text id="Favorecen_la_inclusión_el_respeto_y_reconocimiento_de_la_diversidad_situaciones_sociales_como_desplazamiento_víctimas_del_conflicto_habitante_de_calle_entre_otros._Promueven_y_articulan_estrategias_como_hospitales_seguros_hospitales_ver" data-name="Favorecen la inclusión, el respeto y reconocimiento de la diversidad, situaciones sociales como desplazamiento, víctimas del conflicto, habitante de calle, entre otros.

Promueven y articulan              estrategias como hospitales seguros, hospitales ver" transform="translate(32)" fill="#12263f" font-size="16" font-family="Roboto-Regular, Roboto"><tspan x="0" y="15">Favorecen la inclusión, el </tspan><tspan x="0" y="35">respeto y reconocimiento de la </tspan><tspan x="0" y="55">diversidad, situaciones sociales </tspan><tspan x="0" y="75">como desplazamiento, víctimas </tspan><tspan x="0" y="95">del conflicto, habitante de calle, </tspan><tspan x="0" y="115">entre otros.</tspan><tspan x="0" y="135"></tspan><tspan x="0" y="155" xml:space="preserve">Promueven y articulan              </tspan><tspan x="0" y="175">estrategias como hospitales </tspan><tspan x="0" y="195">seguros, hospitales verdes y </tspan><tspan x="0" y="215">saludables, entre otras.</tspan><tspan x="0" y="235"></tspan><tspan x="0" y="255">Desarrollan capacidades a </tspan><tspan x="0" y="275">redes sociales y comunitarias, </tspan><tspan x="0" y="295" xml:space="preserve">para el abordaje de situaciones         </tspan><tspan x="0" y="315" xml:space="preserve">relacionadas con el bienestar   </tspan><tspan x="0" y="335">y la calidad de vida de sus </tspan><tspan x="0" y="355">comunidades.</tspan><tspan x="0" y="375"></tspan></text>
        <path id="Icon_awesome-check-17" data-name="Icon awesome-check" d="M5.434,16.274l-5.2-5.2a.8.8,0,0,1,0-1.131L1.366,8.812a.8.8,0,0,1,1.131,0l3.5,3.5,7.5-7.5a.8.8,0,0,1,1.131,0l1.131,1.131a.8.8,0,0,1,0,1.131l-9.2,9.2A.8.8,0,0,1,5.434,16.274Z" transform="translate(0 -0.68)" fill="#59bee2"/>
        <path id="Icon_awesome-check-18" data-name="Icon awesome-check" d="M5.434,16.274l-5.2-5.2a.8.8,0,0,1,0-1.131L1.366,8.812a.8.8,0,0,1,1.131,0l3.5,3.5,7.5-7.5a.8.8,0,0,1,1.131,0l1.131,1.131a.8.8,0,0,1,0,1.131l-9.2,9.2A.8.8,0,0,1,5.434,16.274Z" transform="translate(0 138.651)" fill="#59bee2"/>
        <path id="Icon_awesome-check-19" data-name="Icon awesome-check" d="M5.434,16.274l-5.2-5.2a.8.8,0,0,1,0-1.131L1.366,8.812a.8.8,0,0,1,1.131,0l3.5,3.5,7.5-7.5a.8.8,0,0,1,1.131,0l1.131,1.131a.8.8,0,0,1,0,1.131l-9.2,9.2A.8.8,0,0,1,5.434,16.274Z" transform="translate(0 239.982)" fill="#59bee2"/>
      </g>
      <path id="Trazado_801841-5" data-name="Trazado 801841" d="M714.5,0" transform="translate(-497.959 177.948)" fill="none" stroke="#afafaf" stroke-width="1"/>
    </g>
    <path id="Trazado_812571" data-name="Trazado 812571" d="M5,0H185a5,5,0,0,1,5,5V50a5,5,0,0,1-5,5H5a5,5,0,0,1-5-5V5A5,5,0,0,1,5,0Z" transform="translate(285 3630.278)" fill="#d2e1f1"/>
    <path id="Trazado_812572" data-name="Trazado 812572" d="M5,0H185a5,5,0,0,1,5,5V50a5,5,0,0,1-5,5H5a5,5,0,0,1-5-5V5A5,5,0,0,1,5,0Z" transform="translate(705 3630.278)" fill="#d2e1f1"/>
    <path id="Trazado_812573" data-name="Trazado 812573" d="M5,0H185a5,5,0,0,1,5,5V50a5,5,0,0,1-5,5H5a5,5,0,0,1-5-5V5A5,5,0,0,1,5,0Z" transform="translate(1167 3630.278)" fill="#d2e1f1"/>
    <path id="Trazado_812587" data-name="Trazado 812587" d="M5,0H185a5,5,0,0,1,5,5V50a5,5,0,0,1-5,5H5a5,5,0,0,1-5-5V5A5,5,0,0,1,5,0Z" transform="translate(453.793 4236.606)" fill="#d2e1f1"/>
    <path id="Trazado_812588" data-name="Trazado 812588" d="M5,0H185a5,5,0,0,1,5,5V50a5,5,0,0,1-5,5H5a5,5,0,0,1-5-5V5A5,5,0,0,1,5,0Z" transform="translate(903.793 4236.606)" fill="#d2e1f1"/>
    <path id="Trazado_812574" data-name="Trazado 812574" d="M64.074,15H61.73V10.125H57.16V15H54.816V3.625H57.16V8.234h4.57V3.625h2.344Zm1.547-4.3a5.013,5.013,0,0,1,.484-2.242A3.546,3.546,0,0,1,67.5,6.93a4.069,4.069,0,0,1,2.113-.539,3.849,3.849,0,0,1,2.793,1.047,4.2,4.2,0,0,1,1.207,2.844l.016.578a4.418,4.418,0,0,1-1.086,3.121,4.209,4.209,0,0,1-5.832,0,4.5,4.5,0,0,1-1.09-3.187Zm2.258.16a3.16,3.16,0,0,0,.453,1.843,1.628,1.628,0,0,0,2.578.008,3.457,3.457,0,0,0,.461-2.015A3.128,3.128,0,0,0,70.91,8.86a1.5,1.5,0,0,0-1.3-.649,1.474,1.474,0,0,0-1.281.646A3.516,3.516,0,0,0,67.879,10.856Zm6.813-.145a4.954,4.954,0,0,1,.926-3.133,3,3,0,0,1,2.5-1.187,2.631,2.631,0,0,1,2.164.953l.094-.8h2.047v8.172a3.613,3.613,0,0,1-.5,1.93A3.236,3.236,0,0,1,80.5,17.9a4.985,4.985,0,0,1-2.141.43,4.635,4.635,0,0,1-1.812-.371A3.217,3.217,0,0,1,75.207,17l1-1.375a2.645,2.645,0,0,0,2.047.945,1.936,1.936,0,0,0,1.4-.48,1.8,1.8,0,0,0,.5-1.363v-.453a2.612,2.612,0,0,1-2.055.883,2.992,2.992,0,0,1-2.465-1.191,4.953,4.953,0,0,1-.941-3.16Zm2.258.168a3.085,3.085,0,0,0,.461,1.8,1.466,1.466,0,0,0,1.266.653,1.568,1.568,0,0,0,1.477-.775V9a1.564,1.564,0,0,0-1.461-.775,1.476,1.476,0,0,0-1.277.665A3.477,3.477,0,0,0,76.949,10.879ZM89.051,15a2.507,2.507,0,0,1-.227-.758,2.732,2.732,0,0,1-2.133.914,3,3,0,0,1-2.059-.719,2.312,2.312,0,0,1-.816-1.812,2.389,2.389,0,0,1,1-2.062,4.915,4.915,0,0,1,2.879-.727H88.73V9.352a1.393,1.393,0,0,0-.3-.937,1.183,1.183,0,0,0-.949-.352,1.345,1.345,0,0,0-.895.273.929.929,0,0,0-.324.75H84a2.268,2.268,0,0,1,.453-1.359,3,3,0,0,1,1.281-.98A4.669,4.669,0,0,1,87.6,6.391a3.689,3.689,0,0,1,2.48.785A2.747,2.747,0,0,1,91,9.383v3.664a4.041,4.041,0,0,0,.336,1.82V15Zm-1.867-1.57a1.945,1.945,0,0,0,.922-.223,1.462,1.462,0,0,0,.625-.6V11.156h-.844q-1.7,0-1.8,1.172l-.008.133a.9.9,0,0,0,.3.7A1.153,1.153,0,0,0,87.184,13.43Zm10.3-4.766a6.134,6.134,0,0,0-.812-.062,1.654,1.654,0,0,0-1.68.867V15H92.73V6.547h2.133l.063,1.008a2.092,2.092,0,0,1,1.883-1.164,2.366,2.366,0,0,1,.7.1Z" transform="translate(305 3648.278)" fill="#12263f"/>
    <path id="Trazado_812575" data-name="Trazado 812575" d="M48.406,10.07h-4.5v3.047h5.281V15H41.563V3.625h7.609v1.9H43.906V8.234h4.5Zm1.508.641A5.094,5.094,0,0,1,50.8,7.563a2.877,2.877,0,0,1,2.426-1.172,2.589,2.589,0,0,1,2.039.922V3h2.266V15H55.492l-.109-.9a2.657,2.657,0,0,1-2.172,1.055,2.869,2.869,0,0,1-2.395-1.176A5.258,5.258,0,0,1,49.914,10.711Zm2.258.168a3.337,3.337,0,0,0,.414,1.823,1.349,1.349,0,0,0,1.2.634,1.511,1.511,0,0,0,1.477-.884V9.111A1.489,1.489,0,0,0,53.8,8.227Q52.172,8.227,52.172,10.879Zm12.172,3.262a2.831,2.831,0,0,1-2.312,1.016,2.67,2.67,0,0,1-2.074-.781,3.335,3.335,0,0,1-.73-2.289V6.547h2.258v5.467q0,1.322,1.2,1.322a1.63,1.63,0,0,0,1.578-.8V6.547h2.266V15H64.406Zm7.406-.8a1.481,1.481,0,0,0,1.016-.344,1.2,1.2,0,0,0,.406-.914h2.117a2.9,2.9,0,0,1-.469,1.574,3.093,3.093,0,0,1-1.262,1.109,3.949,3.949,0,0,1-1.77.395A3.67,3.67,0,0,1,68.93,14a4.56,4.56,0,0,1-1.047-3.184v-.148a4.508,4.508,0,0,1,1.039-3.117,3.627,3.627,0,0,1,2.852-1.164,3.555,3.555,0,0,1,2.543.9,3.2,3.2,0,0,1,.973,2.4H73.172a1.551,1.551,0,0,0-.406-1.072,1.51,1.51,0,0,0-2.223.163,3.333,3.333,0,0,0-.4,1.866v.235a3.375,3.375,0,0,0,.4,1.878A1.377,1.377,0,0,0,71.75,13.336ZM81.477,15a2.507,2.507,0,0,1-.227-.758,2.732,2.732,0,0,1-2.133.914,3,3,0,0,1-2.059-.719,2.312,2.312,0,0,1-.816-1.812,2.389,2.389,0,0,1,1-2.062,4.915,4.915,0,0,1,2.879-.727h1.039V9.352a1.393,1.393,0,0,0-.3-.937,1.183,1.183,0,0,0-.949-.352,1.345,1.345,0,0,0-.895.273.929.929,0,0,0-.324.75H76.43a2.268,2.268,0,0,1,.453-1.359,3,3,0,0,1,1.281-.98,4.669,4.669,0,0,1,1.859-.355,3.689,3.689,0,0,1,2.48.785,2.747,2.747,0,0,1,.918,2.207v3.664a4.041,4.041,0,0,0,.336,1.82V15Zm-1.867-1.57a1.945,1.945,0,0,0,.922-.223,1.462,1.462,0,0,0,.625-.6V11.156h-.844q-1.7,0-1.8,1.172l-.008.133a.9.9,0,0,0,.3.7A1.153,1.153,0,0,0,79.609,13.43Zm8.25-8.961V6.547H89.3V8.2H87.859v4.219a1.007,1.007,0,0,0,.18.672.9.9,0,0,0,.688.2,3.6,3.6,0,0,0,.664-.055v1.711a4.648,4.648,0,0,1-1.367.2,2.156,2.156,0,0,1-2.422-2.4V8.2H84.367V6.547H85.6V4.469ZM92.945,15H90.68V6.547h2.266Zm-2.4-10.641a1.112,1.112,0,0,1,.34-.836,1.465,1.465,0,0,1,1.848,0,1.105,1.105,0,0,1,.344.836,1.108,1.108,0,0,1-.348.844,1.448,1.448,0,0,1-1.836,0A1.108,1.108,0,0,1,90.547,4.359Zm7.422,7.883,1.57-5.7H101.9L99.047,15H96.891L94.039,6.547H96.4Zm4.453-1.547a5.013,5.013,0,0,1,.484-2.242A3.546,3.546,0,0,1,104.3,6.93a4.069,4.069,0,0,1,2.113-.539,3.849,3.849,0,0,1,2.793,1.047,4.2,4.2,0,0,1,1.207,2.844l.016.578a4.418,4.418,0,0,1-1.086,3.121,4.209,4.209,0,0,1-5.832,0,4.5,4.5,0,0,1-1.09-3.187Zm2.258.16a3.16,3.16,0,0,0,.453,1.843,1.628,1.628,0,0,0,2.578.008,3.457,3.457,0,0,0,.461-2.015,3.128,3.128,0,0,0-.461-1.831,1.5,1.5,0,0,0-1.3-.649,1.474,1.474,0,0,0-1.281.646A3.516,3.516,0,0,0,104.68,10.856Z" transform="translate(725 3648.278)" fill="#12263f"/>
    <path id="Trazado_812576" data-name="Trazado 812576" d="M52.25,13.117h4.977V15h-7.32V3.625H52.25ZM63.32,15a2.507,2.507,0,0,1-.227-.758,2.732,2.732,0,0,1-2.133.914,3,3,0,0,1-2.059-.719,2.312,2.312,0,0,1-.816-1.812,2.389,2.389,0,0,1,1-2.062,4.915,4.915,0,0,1,2.879-.727H63V9.352a1.393,1.393,0,0,0-.3-.937,1.183,1.183,0,0,0-.949-.352,1.345,1.345,0,0,0-.895.273.929.929,0,0,0-.324.75H58.273a2.268,2.268,0,0,1,.453-1.359,3,3,0,0,1,1.281-.98,4.669,4.669,0,0,1,1.859-.355,3.689,3.689,0,0,1,2.48.785,2.747,2.747,0,0,1,.918,2.207v3.664a4.041,4.041,0,0,0,.336,1.82V15Zm-1.867-1.57a1.945,1.945,0,0,0,.922-.223,1.462,1.462,0,0,0,.625-.6V11.156h-.844q-1.7,0-1.8,1.172l-.008.133a.9.9,0,0,0,.3.7A1.153,1.153,0,0,0,61.453,13.43Zm13.164-2.578a5.119,5.119,0,0,1-.867,3.168,2.872,2.872,0,0,1-2.422,1.137,2.639,2.639,0,0,1-2.2-1.055l-.1.9H67V3h2.258V7.3a2.571,2.571,0,0,1,2.055-.914,2.9,2.9,0,0,1,2.426,1.137,5.126,5.126,0,0,1,.879,3.2Zm-2.258-.164a3.363,3.363,0,0,0-.406-1.871,1.374,1.374,0,0,0-1.211-.59,1.489,1.489,0,0,0-1.484.883v3.336a1.509,1.509,0,0,0,1.5.891A1.394,1.394,0,0,0,72.2,12.258,5.562,5.562,0,0,0,72.359,10.688Zm3.3.008a5.013,5.013,0,0,1,.484-2.242A3.546,3.546,0,0,1,77.535,6.93a4.069,4.069,0,0,1,2.113-.539,3.849,3.849,0,0,1,2.793,1.047,4.2,4.2,0,0,1,1.207,2.844l.016.578a4.418,4.418,0,0,1-1.086,3.121,4.209,4.209,0,0,1-5.832,0,4.5,4.5,0,0,1-1.09-3.187Zm2.258.16a3.16,3.16,0,0,0,.453,1.843,1.628,1.628,0,0,0,2.578.008,3.457,3.457,0,0,0,.461-2.015,3.128,3.128,0,0,0-.461-1.831,1.5,1.5,0,0,0-1.3-.649,1.474,1.474,0,0,0-1.281.646A3.516,3.516,0,0,0,77.914,10.856ZM89.8,8.664a6.134,6.134,0,0,0-.812-.062,1.654,1.654,0,0,0-1.68.867V15H85.055V6.547h2.133l.063,1.008a2.092,2.092,0,0,1,1.883-1.164,2.366,2.366,0,0,1,.7.1ZM95.555,15a2.507,2.507,0,0,1-.227-.758,2.732,2.732,0,0,1-2.133.914,3,3,0,0,1-2.059-.719,2.312,2.312,0,0,1-.816-1.812,2.389,2.389,0,0,1,1-2.062A4.915,4.915,0,0,1,94.2,9.836h1.039V9.352a1.393,1.393,0,0,0-.3-.937,1.183,1.183,0,0,0-.949-.352,1.345,1.345,0,0,0-.895.273.929.929,0,0,0-.324.75H90.508a2.268,2.268,0,0,1,.453-1.359,3,3,0,0,1,1.281-.98A4.669,4.669,0,0,1,94.1,6.391a3.689,3.689,0,0,1,2.48.785A2.747,2.747,0,0,1,97.5,9.383v3.664a4.041,4.041,0,0,0,.336,1.82V15Zm-1.867-1.57a1.945,1.945,0,0,0,.922-.223,1.462,1.462,0,0,0,.625-.6V11.156h-.844q-1.7,0-1.8,1.172l-.008.133a.9.9,0,0,0,.3.7A1.153,1.153,0,0,0,93.688,13.43Zm7.93,1.57H99.352V3h2.266Z" transform="translate(1187 3648.278)" fill="#12263f"/>
    <path id="Trazado_812589" data-name="Trazado 812589" d="M34.621,15H32.277V3.625h2.344Zm4.1-8.453.07.977a2.951,2.951,0,0,1,2.43-1.133,2.453,2.453,0,0,1,2,.789,3.682,3.682,0,0,1,.672,2.359V15H41.637V9.594a1.465,1.465,0,0,0-.312-1.043,1.4,1.4,0,0,0-1.039-.324,1.553,1.553,0,0,0-1.43.813V15H36.6V6.547Zm11.461,6.117a.727.727,0,0,0-.41-.652,4.659,4.659,0,0,0-1.316-.426q-3.016-.633-3.016-2.562a2.323,2.323,0,0,1,.934-1.879,3.766,3.766,0,0,1,2.441-.754,4.053,4.053,0,0,1,2.574.758,2.388,2.388,0,0,1,.965,1.969H50.1a1.092,1.092,0,0,0-.312-.8A1.322,1.322,0,0,0,48.809,8a1.351,1.351,0,0,0-.883.258.814.814,0,0,0-.312.656.7.7,0,0,0,.355.605,3.657,3.657,0,0,0,1.2.4,9.8,9.8,0,0,1,1.422.379,2.336,2.336,0,0,1,1.789,2.273,2.2,2.2,0,0,1-.992,1.871,4.28,4.28,0,0,1-2.562.715,4.47,4.47,0,0,1-1.887-.379,3.166,3.166,0,0,1-1.293-1.039,2.414,2.414,0,0,1-.469-1.426h2.141a1.179,1.179,0,0,0,.445.922,1.766,1.766,0,0,0,1.109.32,1.635,1.635,0,0,0,.98-.246A.766.766,0,0,0,50.184,12.664Zm6.352-8.2V6.547H57.98V8.2H56.535v4.219a1.007,1.007,0,0,0,.18.672.9.9,0,0,0,.688.2,3.6,3.6,0,0,0,.664-.055v1.711a4.648,4.648,0,0,1-1.367.2,2.156,2.156,0,0,1-2.422-2.4V8.2H53.043V6.547h1.234V4.469ZM61.621,15H59.355V6.547h2.266Zm-2.4-10.641a1.112,1.112,0,0,1,.34-.836,1.465,1.465,0,0,1,1.848,0,1.105,1.105,0,0,1,.344.836,1.108,1.108,0,0,1-.348.844,1.448,1.448,0,0,1-1.836,0A1.108,1.108,0,0,1,59.223,4.359Zm6.961.109V6.547h1.445V8.2H66.184v4.219a1.007,1.007,0,0,0,.18.672.9.9,0,0,0,.688.2,3.6,3.6,0,0,0,.664-.055v1.711a4.648,4.648,0,0,1-1.367.2,2.156,2.156,0,0,1-2.422-2.4V8.2H62.691V6.547h1.234V4.469Zm7.766,9.672a2.831,2.831,0,0,1-2.312,1.016,2.67,2.67,0,0,1-2.074-.781,3.335,3.335,0,0,1-.73-2.289V6.547H71.09v5.467q0,1.322,1.2,1.322a1.63,1.63,0,0,0,1.578-.8V6.547h2.266V15H74.012Zm7.406-.8a1.481,1.481,0,0,0,1.016-.344,1.2,1.2,0,0,0,.406-.914h2.117a2.9,2.9,0,0,1-.469,1.574,3.093,3.093,0,0,1-1.262,1.109,3.949,3.949,0,0,1-1.77.395A3.67,3.67,0,0,1,78.535,14a4.56,4.56,0,0,1-1.047-3.184v-.148a4.508,4.508,0,0,1,1.039-3.117,3.627,3.627,0,0,1,2.852-1.164,3.555,3.555,0,0,1,2.543.9,3.2,3.2,0,0,1,.973,2.4H82.777a1.551,1.551,0,0,0-.406-1.072,1.51,1.51,0,0,0-2.223.163,3.333,3.333,0,0,0-.4,1.866v.235a3.375,3.375,0,0,0,.4,1.878A1.377,1.377,0,0,0,81.355,13.336ZM88.566,15H86.3V6.547h2.266Zm-2.4-10.641a1.112,1.112,0,0,1,.34-.836,1.465,1.465,0,0,1,1.848,0,1.105,1.105,0,0,1,.344.836,1.108,1.108,0,0,1-.348.844,1.448,1.448,0,0,1-1.836,0A1.108,1.108,0,0,1,86.168,4.359ZM90.074,10.7a5.013,5.013,0,0,1,.484-2.242A3.546,3.546,0,0,1,91.953,6.93a4.069,4.069,0,0,1,2.113-.539,3.849,3.849,0,0,1,2.793,1.047,4.2,4.2,0,0,1,1.207,2.844l.016.578A4.418,4.418,0,0,1,97,13.98a4.209,4.209,0,0,1-5.832,0,4.5,4.5,0,0,1-1.09-3.187Zm2.258.16a3.16,3.16,0,0,0,.453,1.843,1.628,1.628,0,0,0,2.578.008,3.457,3.457,0,0,0,.461-2.015,3.128,3.128,0,0,0-.461-1.831,1.5,1.5,0,0,0-1.3-.649,1.474,1.474,0,0,0-1.281.646A3.516,3.516,0,0,0,92.332,10.856Zm9.219-4.309.07.977a2.951,2.951,0,0,1,2.43-1.133,2.453,2.453,0,0,1,2,.789,3.682,3.682,0,0,1,.672,2.359V15h-2.258V9.594a1.465,1.465,0,0,0-.312-1.043,1.4,1.4,0,0,0-1.039-.324,1.553,1.553,0,0,0-1.43.813V15H99.426V6.547ZM113.332,15a2.507,2.507,0,0,1-.227-.758,2.732,2.732,0,0,1-2.133.914,3,3,0,0,1-2.059-.719,2.312,2.312,0,0,1-.816-1.812,2.389,2.389,0,0,1,1-2.062,4.915,4.915,0,0,1,2.879-.727h1.039V9.352a1.393,1.393,0,0,0-.3-.937,1.183,1.183,0,0,0-.949-.352,1.345,1.345,0,0,0-.895.273.929.929,0,0,0-.324.75h-2.258a2.268,2.268,0,0,1,.453-1.359,3,3,0,0,1,1.281-.98,4.669,4.669,0,0,1,1.859-.355,3.689,3.689,0,0,1,2.48.785,2.747,2.747,0,0,1,.918,2.207v3.664a4.041,4.041,0,0,0,.336,1.82V15Zm-1.867-1.57a1.945,1.945,0,0,0,.922-.223,1.462,1.462,0,0,0,.625-.6V11.156h-.844q-1.7,0-1.8,1.172l-.008.133a.9.9,0,0,0,.3.7A1.153,1.153,0,0,0,111.465,13.43Zm7.93,1.57h-2.266V3h2.266Z" transform="translate(473.793 4254.606)" fill="#12263f"/>
    <path id="Trazado_812590" data-name="Trazado 812590" d="M41.379,11.211A4.025,4.025,0,0,1,40.023,14.1,4.76,4.76,0,0,1,36.8,15.156a4.281,4.281,0,0,1-3.441-1.473,6.038,6.038,0,0,1-1.254-4.043v-.7a6.819,6.819,0,0,1,.578-2.891,4.332,4.332,0,0,1,1.652-1.918A5.164,5.164,0,0,1,40,4.523a4.326,4.326,0,0,1,1.391,2.961H39.051a2.376,2.376,0,0,0-.613-1.6,2.271,2.271,0,0,0-1.605-.5,1.991,1.991,0,0,0-1.754.84,4.707,4.707,0,0,0-.6,2.605V9.7a5.038,5.038,0,0,0,.559,2.7,1.954,1.954,0,0,0,1.762.852,2.314,2.314,0,0,0,1.621-.5,2.241,2.241,0,0,0,.613-1.535Zm1.039-.516A5.013,5.013,0,0,1,42.9,8.453,3.546,3.546,0,0,1,44.3,6.93a4.069,4.069,0,0,1,2.113-.539A3.849,3.849,0,0,1,49.2,7.438a4.2,4.2,0,0,1,1.207,2.844l.016.578A4.418,4.418,0,0,1,49.34,13.98a4.209,4.209,0,0,1-5.832,0,4.5,4.5,0,0,1-1.09-3.187Zm2.258.16a3.16,3.16,0,0,0,.453,1.843,1.628,1.628,0,0,0,2.578.008,3.457,3.457,0,0,0,.461-2.015,3.128,3.128,0,0,0-.461-1.831,1.5,1.5,0,0,0-1.3-.649,1.474,1.474,0,0,0-1.281.646A3.516,3.516,0,0,0,44.676,10.856Zm9.258-4.309.07.945a2.971,2.971,0,0,1,2.43-1.1A2.255,2.255,0,0,1,58.676,7.68a2.9,2.9,0,0,1,2.539-1.289,2.521,2.521,0,0,1,2.047.8,3.681,3.681,0,0,1,.672,2.41V15H61.668V9.609a1.61,1.61,0,0,0-.281-1.051,1.246,1.246,0,0,0-.992-.332,1.409,1.409,0,0,0-1.406.969L59,15H56.738V9.617a1.59,1.59,0,0,0-.289-1.062,1.259,1.259,0,0,0-.984-.328,1.463,1.463,0,0,0-1.391.8V15H51.816V6.547Zm16.8,7.594a2.831,2.831,0,0,1-2.312,1.016,2.67,2.67,0,0,1-2.074-.781,3.335,3.335,0,0,1-.73-2.289V6.547h2.258v5.467q0,1.322,1.2,1.322a1.63,1.63,0,0,0,1.578-.8V6.547h2.266V15H70.793ZM76.7,6.547l.07.977A2.951,2.951,0,0,1,79.2,6.391a2.453,2.453,0,0,1,2,.789,3.682,3.682,0,0,1,.672,2.359V15H79.613V9.594A1.465,1.465,0,0,0,79.3,8.551a1.4,1.4,0,0,0-1.039-.324,1.553,1.553,0,0,0-1.43.813V15H74.574V6.547ZM85.965,15H83.7V6.547h2.266Zm-2.4-10.641a1.112,1.112,0,0,1,.34-.836,1.465,1.465,0,0,1,1.848,0,1.105,1.105,0,0,1,.344.836,1.108,1.108,0,0,1-.348.844,1.448,1.448,0,0,1-1.836,0A1.108,1.108,0,0,1,83.566,4.359Zm6.961.109V6.547h1.445V8.2H90.527v4.219a1.007,1.007,0,0,0,.18.672.9.9,0,0,0,.688.2,3.6,3.6,0,0,0,.664-.055v1.711a4.648,4.648,0,0,1-1.367.2,2.156,2.156,0,0,1-2.422-2.4V8.2H87.035V6.547H88.27V4.469ZM98.129,15a2.507,2.507,0,0,1-.227-.758,2.732,2.732,0,0,1-2.133.914,3,3,0,0,1-2.059-.719,2.312,2.312,0,0,1-.816-1.812,2.389,2.389,0,0,1,1-2.062,4.915,4.915,0,0,1,2.879-.727h1.039V9.352a1.393,1.393,0,0,0-.3-.937,1.183,1.183,0,0,0-.949-.352,1.345,1.345,0,0,0-.895.273.929.929,0,0,0-.324.75H93.082a2.268,2.268,0,0,1,.453-1.359,3,3,0,0,1,1.281-.98,4.669,4.669,0,0,1,1.859-.355,3.689,3.689,0,0,1,2.48.785,2.747,2.747,0,0,1,.918,2.207v3.664a4.041,4.041,0,0,0,.336,1.82V15Zm-1.867-1.57a1.945,1.945,0,0,0,.922-.223,1.462,1.462,0,0,0,.625-.6V11.156h-.844q-1.7,0-1.8,1.172l-.008.133a.9.9,0,0,0,.3.7A1.153,1.153,0,0,0,96.262,13.43Zm10.3-4.766a6.134,6.134,0,0,0-.812-.062,1.654,1.654,0,0,0-1.68.867V15h-2.258V6.547h2.133L104,7.555a2.092,2.092,0,0,1,1.883-1.164,2.366,2.366,0,0,1,.7.1ZM110.027,15h-2.266V6.547h2.266Zm-2.4-10.641a1.112,1.112,0,0,1,.34-.836,1.465,1.465,0,0,1,1.848,0,1.105,1.105,0,0,1,.344.836,1.108,1.108,0,0,1-.348.844,1.448,1.448,0,0,1-1.836,0A1.108,1.108,0,0,1,107.629,4.359Zm3.906,6.336a5.013,5.013,0,0,1,.484-2.242,3.546,3.546,0,0,1,1.395-1.523,4.069,4.069,0,0,1,2.113-.539,3.849,3.849,0,0,1,2.793,1.047,4.2,4.2,0,0,1,1.207,2.844l.016.578a4.418,4.418,0,0,1-1.086,3.121,4.209,4.209,0,0,1-5.832,0,4.5,4.5,0,0,1-1.09-3.187Zm2.258.16a3.16,3.16,0,0,0,.453,1.843,1.628,1.628,0,0,0,2.578.008,3.457,3.457,0,0,0,.461-2.015,3.128,3.128,0,0,0-.461-1.831,1.5,1.5,0,0,0-1.3-.649,1.474,1.474,0,0,0-1.281.646A3.516,3.516,0,0,0,113.793,10.856Z" transform="translate(923.793 4254.606)" fill="#12263f"/>
    <g id="Grupo_1034624" data-name="Grupo 1034624" transform="translate(245 3718.203)" clip-path="url(#clip-path)">
      <path id="Trazado_739441" data-name="Trazado 739441" d="M20.793.5H19.545c-5.112,0-9.255,17.166-9.255,38.341V151.863c0,12.88,1.15,35.047-3.907,40.153l-5.349,5.79,5.349,7.661c3.313,4.608,3.907,19.255,3.907,34.359V351.6c0,21.175,4.144,38.341,9.255,38.341" transform="translate(-0.793 10.237)" fill="none" stroke="#59bee2" stroke-miterlimit="10" stroke-width="2"/>
    </g>
    <g id="Grupo_1034624-2" data-name="Grupo 1034624" transform="translate(646.793 3718.203)" clip-path="url(#clip-path)">
      <path id="Trazado_739441-2" data-name="Trazado 739441" d="M20.793.5H19.545c-5.112,0-9.255,17.166-9.255,38.341V151.863c0,12.88,1.15,35.047-3.907,40.153l-5.349,5.79,5.349,7.661c3.313,4.608,3.907,19.255,3.907,34.359V351.6c0,21.175,4.144,38.341,9.255,38.341" transform="translate(-0.793 10.237)" fill="none" stroke="#59bee2" stroke-miterlimit="10" stroke-width="2"/>
    </g>
    <g id="Grupo_1034624-3" data-name="Grupo 1034624" transform="translate(1100 3718.203)" clip-path="url(#clip-path-3)">
      <path id="Trazado_739441-3" data-name="Trazado 739441" d="M20.793.5H19.545c-5.112,0-9.255,17.166-9.255,38.341V151.863c0,12.88,1.15,35.047-3.907,40.153l-5.349,5.79,5.349,7.661c3.313,4.608,3.907,19.255,3.907,34.359L11.33,432.8c0,21.175,4.144,38.341,9.255,38.341" transform="translate(-0.793 10.237)" fill="none" stroke="#59bee2" stroke-miterlimit="10" stroke-width="2"/>
    </g>
    <g id="Grupo_1034624-4" data-name="Grupo 1034624" transform="translate(421.5 4315.031)" clip-path="url(#clip-path)">
      <path id="Trazado_739441-4" data-name="Trazado 739441" d="M20.793.5H19.545c-5.112,0-9.255,17.166-9.255,38.341V151.863c0,12.88,1.15,35.047-3.907,40.153l-5.349,5.79,5.349,7.661c3.313,4.608,3.907,19.255,3.907,34.359V351.6c0,21.175,4.144,38.341,9.255,38.341" transform="translate(-0.793 10.237)" fill="none" stroke="#59bee2" stroke-miterlimit="10" stroke-width="2"/>
    </g>
    <g id="Grupo_1034624-5" data-name="Grupo 1034624" transform="translate(844.793 4315.031)" clip-path="url(#clip-path)">
      <path id="Trazado_739441-5" data-name="Trazado 739441" d="M20.793.5H19.545c-5.112,0-9.255,17.166-9.255,38.341V151.863c0,12.88,1.15,35.047-3.907,40.153l-5.349,5.79,5.349,7.661c3.313,4.608,3.907,19.255,3.907,34.359V351.6c0,21.175,4.144,38.341,9.255,38.341" transform="translate(-0.793 10.237)" fill="none" stroke="#59bee2" stroke-miterlimit="10" stroke-width="2"/>
    </g>
  </g>
</svg>
