<svg xmlns="http://www.w3.org/2000/svg" width="85" height="85" viewBox="0 0 85 85">
  <g id="Grupo_1070134" data-name="Grupo 1070134" transform="translate(-180 -429)">
    <g id="Grupo_1070116" data-name="Grupo 1070116">
      <g id="Grupo_1063897" data-name="Grupo 1063897" transform="translate(0 -17)">
        <rect id="Rectángulo_373435" data-name="Rectángulo 373435" width="85" height="85" rx="5" transform="translate(180 446)" fill="#92df98"/>
      </g>
      <g id="Page-1" transform="translate(187.765 439.175)">
        <g id="_039---Positive-Interactions" data-name="039---Positive-Interactions" transform="translate(-0.008 -0.175)">
          <g id="Icons_copy" data-name="Icons copy" transform="translate(1.158 1.172)">
            <path id="Shape" d="M162.741,145.37a17.966,17.966,0,0,1-.359,3.555,17.619,17.619,0,0,1-2.328,5.721,16.841,16.841,0,0,1-2.606,3.185v.012a17.357,17.357,0,0,1-8.523,4.54,17.966,17.966,0,0,1-3.555.359A17.376,17.376,0,0,1,128,145.37a17.966,17.966,0,0,1,.359-3.555,17.476,17.476,0,0,1,13.456-13.456A17.966,17.966,0,0,1,145.37,128a17.376,17.376,0,0,1,17.37,17.37Z" transform="translate(-111.787 -111.778)" fill="#288640"/>
            <circle id="Oval" cx="6.948" cy="6.948" r="6.948" transform="translate(8.107 4.642)" fill="#ffe0b2"/>
            <path id="Shape-2" data-name="Shape" d="M108.4,42.667a6.931,6.931,0,0,0-1.737.232,6.939,6.939,0,0,1,0,13.44A6.948,6.948,0,1,0,108.4,42.667Z" transform="translate(-93.349 -38.025)" fill="#dfc49c"/>
            <path id="Shape-3" data-name="Shape" d="M38.635,23.527a13.174,13.174,0,0,1-.081,1.517,17.265,17.265,0,0,0-7.84,3.914A6.851,6.851,0,0,0,25.9,27H23.581a6.948,6.948,0,1,0-6.948-6.948A6.948,6.948,0,0,0,23.581,27H21.265a6.948,6.948,0,0,0-6.948,6.948v1.436A15.054,15.054,0,1,1,38.635,23.527Z" transform="translate(-8.526 -8.463)" fill="#59bee2"/>
            <path id="Shape-4" data-name="Shape" d="M67.6,147.024a17.286,17.286,0,0,0-5.616,9.542,13.171,13.171,0,0,1-1.517.081,14.938,14.938,0,0,1-9.264-3.2v-1.436a6.948,6.948,0,0,1,6.948-6.948H62.78A6.851,6.851,0,0,1,67.6,147.024Z" transform="translate(-45.409 -126.529)" fill="#92df98"/>
            <path id="Shape-5" data-name="Shape" d="M296.654,357.435h-2.316a6.948,6.948,0,0,0-6.948,6.948v1.436a15.012,15.012,0,0,1-5.79-11.858,13.175,13.175,0,0,1,.081-1.517,17.356,17.356,0,0,0,8.523-4.54,6.833,6.833,0,0,0-.5,2.582,6.948,6.948,0,0,0,6.948,6.948Z" transform="translate(-244.541 -301.84)" fill="#59bee2"/>
            <path id="Shape-6" data-name="Shape" d="M355.229,322.681a6.948,6.948,0,1,1-13.9,0,6.835,6.835,0,0,1,.5-2.582v-.012a16.842,16.842,0,0,0,2.606-3.185,6.849,6.849,0,0,1,3.845-1.17,6.948,6.948,0,0,1,6.948,6.948Z" transform="translate(-296.169 -274.034)" fill="#ffe0b2"/>
            <path id="Shape-7" data-name="Shape" d="M381.47,315.732a6.846,6.846,0,0,0-1.72.232,6.939,6.939,0,0,1-.017,13.433,6.948,6.948,0,1,0,1.737-13.665Z" transform="translate(-329.358 -274.034)" fill="#dfc49c"/>
            <path id="Shape-8" data-name="Shape" d="M383.1,296.654a15.012,15.012,0,0,1-5.79,11.858v-1.436a6.948,6.948,0,0,0-6.948-6.948h-2.316a6.948,6.948,0,1,0,0-13.9,6.849,6.849,0,0,0-3.845,1.17,17.619,17.619,0,0,0,2.328-5.721,13.175,13.175,0,0,1,1.517-.081A15.054,15.054,0,0,1,383.1,296.654Z" transform="translate(-315.935 -244.533)" fill="#00bcd4"/>
            <path id="Shape-9" data-name="Shape" d="M342.8,425.081v1.436a15.024,15.024,0,0,1-18.528,0v-1.436a6.948,6.948,0,0,1,6.948-6.948h4.632a6.948,6.948,0,0,1,6.948,6.948Z" transform="translate(-281.419 -362.538)" fill="#92df98"/>
          </g>
          <g id="Icons" transform="translate(0 0)">
            <path id="Shape-10" data-name="Shape" d="M216.81,213.764l-8.446,8.445-1.5-1.5a1.158,1.158,0,0,0-1.637,1.637l2.316,2.316a1.158,1.158,0,0,0,1.637,0l9.264-9.264a1.158,1.158,0,0,0-1.637-1.637Z" transform="translate(-177.097 -184.45)" fill="#fff"/>
            <path id="Shape-11" data-name="Shape" d="M53.262,36.906H53.1A18.413,18.413,0,0,0,32.418,16.222v-.161A16.212,16.212,0,1,0,6.117,28.73c.019.02.045.03.065.049A16.189,16.189,0,0,0,11.1,31.442c.023.01.047.017.072.027a16.139,16.139,0,0,0,5.036.8h.161A18.413,18.413,0,0,0,37.05,52.957v.161a16.183,16.183,0,0,0,6.124,12.669c.018.02.045.03.065.049A16.187,16.187,0,0,0,48.155,68.5c.023.01.047.017.072.027a16.051,16.051,0,0,0,10.075,0c.024-.009.049-.016.072-.027a16.165,16.165,0,0,0,4.915-2.663c.021-.018.048-.029.066-.049A16.2,16.2,0,0,0,53.262,36.906Zm0,18.528a5.761,5.761,0,0,1-5.443-7.745,18.583,18.583,0,0,0,2.392-2.951,5.7,5.7,0,0,1,3.05-.885,5.79,5.79,0,1,1,0,11.58ZM2.309,16.061a13.9,13.9,0,1,1,27.793,0c0,.216-.007.417-.015.614A18.444,18.444,0,0,0,23.36,20a7.919,7.919,0,0,0-2.051-1.118,8.106,8.106,0,1,0-10.2,0,8.119,8.119,0,0,0-5.23,6.444A13.826,13.826,0,0,1,2.309,16.061Zm8.106-3.474a5.79,5.79,0,1,1,5.79,5.79A5.79,5.79,0,0,1,10.416,12.587Zm5.79,17.37a13.809,13.809,0,0,1-3.474-.457V26.484a1.158,1.158,0,1,0-2.316,0v2.2A13.9,13.9,0,0,1,8.1,27.331v-.848a5.8,5.8,0,0,1,5.79-5.79h4.632a5.7,5.7,0,0,1,3.047.879,18.512,18.512,0,0,0-4.748,8.37c-.2.008-.4.015-.615.015Zm2.316,4.632A16.212,16.212,0,1,1,34.734,50.8,16.212,16.212,0,0,1,18.522,34.59ZM39.366,53.118c0-.216.007-.417.015-.614a18.4,18.4,0,0,0,5.79-2.617,8.093,8.093,0,0,0,3,6.05,8.119,8.119,0,0,0-5.234,6.446A13.827,13.827,0,0,1,39.366,53.118ZM49.788,66.551V63.54a1.158,1.158,0,1,0-2.316,0v2.2a13.9,13.9,0,0,1-2.316-1.353V63.54a5.8,5.8,0,0,1,5.79-5.79h4.632a5.8,5.8,0,0,1,5.79,5.79v.842a13.9,13.9,0,0,1-2.316,1.358v-2.2a1.158,1.158,0,0,0-2.316,0v3.011a13.422,13.422,0,0,1-6.948,0Zm13.8-4.169a8.119,8.119,0,0,0-5.234-6.446,8.106,8.106,0,0,0-5.1-14.4,7.987,7.987,0,0,0-1.414.138,18.477,18.477,0,0,0,.8-2.439c.2-.008.4-.015.614-.015a13.873,13.873,0,0,1,10.33,23.161Z" transform="translate(0.008 0.175)"/>
            <path id="Shape-12" data-name="Shape" d="M269.986,8.874a1.158,1.158,0,0,0-1.637,0l-3.474,3.474a1.158,1.158,0,0,0,0,1.637l3.474,3.474a1.158,1.158,0,0,0,1.637-1.637l-1.441-1.441a27.825,27.825,0,0,1,26.1,27.736,1.158,1.158,0,0,0,2.316,0,30.146,30.146,0,0,0-28.514-30.066l1.54-1.54A1.158,1.158,0,0,0,269.986,8.874Z" transform="translate(-228.635 -7.353)"/>
            <path id="Shape-13" data-name="Shape" d="M10.849,248.625a1.158,1.158,0,0,0-2.316,0,30.146,30.146,0,0,0,28.514,30.066l-1.54,1.54a1.158,1.158,0,1,0,1.637,1.637l3.474-3.474a1.158,1.158,0,0,0,0-1.637l-3.474-3.474a1.158,1.158,0,0,0-1.637,1.637l1.441,1.441a27.825,27.825,0,0,1-26.1-27.736Z" transform="translate(-7.374 -213.86)"/>
          </g>
        </g>
      </g>
    </g>
  </g>
</svg>
