<svg id="Grupo_1067764" data-name="Grupo 1067764" xmlns="http://www.w3.org/2000/svg" xmlns:xlink="http://www.w3.org/1999/xlink" width="610" height="480.662" viewBox="0 0 610 480.662">
  <defs>
    <clipPath id="clip-path">
      <rect id="Rectángulo_375665" data-name="Rectángulo 375665" width="610" height="480.662" fill="none"/>
    </clipPath>
    <clipPath id="clip-path-5">
      <rect id="Rectángulo_375637" data-name="Rectángulo 375637" width="123.842" height="124.42" fill="none"/>
    </clipPath>
    <clipPath id="clip-path-6">
      <rect id="Rectángulo_375638" data-name="Rectángulo 375638" width="48.234" height="42.526" fill="none"/>
    </clipPath>
    <clipPath id="clip-path-8">
      <rect id="Rectángulo_375640" data-name="Rectángulo 375640" width="23.005" height="0.787" fill="none"/>
    </clipPath>
    <clipPath id="clip-path-9">
      <rect id="Rectángulo_375641" data-name="Rectángulo 375641" width="24.8" height="0.794" fill="none"/>
    </clipPath>
    <clipPath id="clip-path-11">
      <rect id="Rectángulo_375643" data-name="Rectángulo 375643" width="24.8" height="0.795" fill="none"/>
    </clipPath>
    <clipPath id="clip-path-12">
      <rect id="Rectángulo_375644" data-name="Rectángulo 375644" width="34.003" height="24.619" fill="none"/>
    </clipPath>
    <clipPath id="clip-path-13">
      <rect id="Rectángulo_375645" data-name="Rectángulo 375645" width="9.987" height="10.285" fill="none"/>
    </clipPath>
    <clipPath id="clip-path-15">
      <rect id="Rectángulo_375647" data-name="Rectángulo 375647" width="131.597" height="153.944" fill="none"/>
    </clipPath>
    <clipPath id="clip-path-16">
      <rect id="Rectángulo_375651" data-name="Rectángulo 375651" width="16.292" height="37.757" fill="none"/>
    </clipPath>
    <clipPath id="clip-path-17">
      <rect id="Rectángulo_375652" data-name="Rectángulo 375652" width="34.66" height="8.765" fill="none"/>
    </clipPath>
    <clipPath id="clip-path-18">
      <rect id="Rectángulo_375653" data-name="Rectángulo 375653" width="48.505" height="36.328" fill="none"/>
    </clipPath>
    <clipPath id="clip-path-19">
      <rect id="Rectángulo_375654" data-name="Rectángulo 375654" width="41.708" height="14.203" fill="none"/>
    </clipPath>
    <clipPath id="clip-path-20">
      <rect id="Rectángulo_375655" data-name="Rectángulo 375655" width="17.569" height="11.658" fill="none"/>
    </clipPath>
    <clipPath id="clip-path-21">
      <rect id="Rectángulo_375656" data-name="Rectángulo 375656" width="14.172" height="38.035" fill="none"/>
    </clipPath>
    <clipPath id="clip-path-22">
      <rect id="Rectángulo_375657" data-name="Rectángulo 375657" width="41.129" height="23.438" fill="none"/>
    </clipPath>
    <clipPath id="clip-path-24">
      <rect id="Rectángulo_375660" data-name="Rectángulo 375660" width="2.864" height="2.807" fill="none"/>
    </clipPath>
    <clipPath id="clip-path-25">
      <rect id="Rectángulo_375661" data-name="Rectángulo 375661" width="10.748" height="14.006" fill="none"/>
    </clipPath>
    <clipPath id="clip-path-26">
      <rect id="Rectángulo_375663" data-name="Rectángulo 375663" width="6.681" height="29.265" fill="none"/>
    </clipPath>
  </defs>
  <g id="Grupo_1067763" data-name="Grupo 1067763" clip-path="url(#clip-path)">
    <g id="Grupo_1067695" data-name="Grupo 1067695">
      <g id="Grupo_1067694" data-name="Grupo 1067694" clip-path="url(#clip-path)">
        <path id="Trazado_809916" data-name="Trazado 809916" d="M296.733,231.611a28.392,28.392,0,0,1,7.382-1.78l2.609-6.571,11.5,1.828.465,7.057a28.549,28.549,0,0,1,6.477,3.982l6.465-2.791,6.849,9.465-4.637,5.317a28.739,28.739,0,0,1,1.772,7.419l6.539,2.621-1.82,11.558-7.024.467a28.684,28.684,0,0,1-3.964,6.506l2.778,6.5-9.42,6.881-5.293-4.659a28.419,28.419,0,0,1-7.385,1.78l-2.609,6.57-11.5-1.828-.465-7.057a28.568,28.568,0,0,1-6.476-3.982l-6.465,2.792-6.849-9.466L280.3,268.9a28.805,28.805,0,0,1-1.772-7.419l-6.538-2.621,1.818-11.558,7.025-.467a28.707,28.707,0,0,1,3.963-6.506l-2.778-6.5,9.421-6.881Zm3.422,16.432a12.59,12.59,0,0,0-2.759,17.535,12.456,12.456,0,0,0,17.453,2.772,12.591,12.591,0,0,0,2.759-17.535,12.458,12.458,0,0,0-17.453-2.772" transform="translate(20.499 17.946)" fill="#f5f5f5"/>
        <path id="Trazado_809917" data-name="Trazado 809917" d="M466.878,221.49a43.576,43.576,0,0,1,11.316-2.729l4-10.069,17.633,2.8.711,10.816a43.681,43.681,0,0,1,9.927,6.1l9.911-4.278,10.5,14.507-7.107,8.149a44.086,44.086,0,0,1,2.716,11.371l10.021,4.016-2.787,17.715-10.766.715a43.956,43.956,0,0,1-6.075,9.972l4.257,9.957L506.69,311.084l-8.113-7.14a43.571,43.571,0,0,1-11.317,2.728l-4,10.069-17.632-2.8-.712-10.817a43.733,43.733,0,0,1-9.926-6.1l-9.911,4.278-10.5-14.507,7.107-8.149a44.081,44.081,0,0,1-2.717-11.371l-10.021-4.016,2.787-17.715,10.768-.715a43.973,43.973,0,0,1,6.075-9.972l-4.258-9.957,14.439-10.546Zm5.246,25.185a19.3,19.3,0,0,0-4.229,26.876,19.092,19.092,0,0,0,26.751,4.248,19.3,19.3,0,0,0,4.228-26.876,19.093,19.093,0,0,0-26.75-4.248" transform="translate(32.328 16.775)" fill="#ebebeb"/>
        <path id="Trazado_809918" data-name="Trazado 809918" d="M388.807,254.437a24.4,24.4,0,0,1,6.349-1.531l2.243-5.65,9.893,1.572.4,6.069a24.547,24.547,0,0,1,5.57,3.425l5.56-2.4,5.89,8.14-3.987,4.573a24.706,24.706,0,0,1,1.524,6.38l5.623,2.253-1.565,9.94-6.04.4a24.634,24.634,0,0,1-3.409,5.594l2.389,5.587-8.1,5.917-4.551-4.006a24.41,24.41,0,0,1-6.35,1.531L398,307.879l-9.893-1.571-.4-6.07a24.5,24.5,0,0,1-5.569-3.425l-5.56,2.4-5.89-8.14,3.987-4.572a24.71,24.71,0,0,1-1.525-6.38l-5.623-2.254,1.565-9.94,6.041-.4a24.676,24.676,0,0,1,3.408-5.6l-2.388-5.587,8.1-5.916Zm2.943,14.13a10.827,10.827,0,0,0-2.373,15.079,10.712,10.712,0,0,0,15.009,2.383,10.827,10.827,0,0,0,2.373-15.079,10.712,10.712,0,0,0-15.009-2.383" transform="translate(27.699 19.875)" fill="#e0e0e0"/>
        <path id="Trazado_809919" data-name="Trazado 809919" d="M125.785,230.226a19.263,19.263,0,0,1,5-1.207l1.769-4.451,7.794,1.238.315,4.782a19.3,19.3,0,0,1,4.387,2.7l4.382-1.891,4.639,6.413-3.141,3.6a19.416,19.416,0,0,1,1.2,5.027l4.431,1.775-1.232,7.832-4.759.315a19.4,19.4,0,0,1-2.686,4.409l1.882,4.4-6.382,4.662-3.587-3.156a19.261,19.261,0,0,1-5,1.206l-1.769,4.451-7.794-1.238-.315-4.782a19.258,19.258,0,0,1-4.386-2.7l-4.383,1.892-4.64-6.413,3.143-3.6a19.509,19.509,0,0,1-1.2-5.027l-4.429-1.775,1.231-7.832,4.761-.317a19.38,19.38,0,0,1,2.686-4.408l-1.883-4.4,6.382-4.662Zm2.32,11.133a8.531,8.531,0,0,0-1.871,11.881,8.44,8.44,0,0,0,11.826,1.878,8.531,8.531,0,0,0,1.87-11.881,8.44,8.44,0,0,0-11.825-1.878" transform="translate(8.216 18.051)" fill="#f5f5f5"/>
        <path id="Trazado_809920" data-name="Trazado 809920" d="M197.77,231.965a48.875,48.875,0,0,1,12.7-3.062l4.486-11.3,19.787,3.143.8,12.138a48.965,48.965,0,0,1,11.14,6.849l11.12-4.8,11.778,16.28-7.974,9.144a49.517,49.517,0,0,1,3.048,12.759l11.245,4.507L272.768,297.5l-12.082.8a49.348,49.348,0,0,1-6.816,11.191l4.777,11.172-16.2,11.835-9.1-8.012a48.846,48.846,0,0,1-12.7,3.061l-4.488,11.3-19.786-3.143-.8-12.139a49.02,49.02,0,0,1-11.139-6.849l-11.12,4.8-11.778-16.279,7.974-9.145a49.457,49.457,0,0,1-3.048-12.758l-11.246-4.507,3.128-19.878,12.082-.8a49.41,49.41,0,0,1,6.817-11.19l-4.778-11.172,16.2-11.835Zm5.885,28.261a21.655,21.655,0,0,0-4.746,30.158,21.425,21.425,0,0,0,30.018,4.768,21.656,21.656,0,0,0,4.746-30.158,21.425,21.425,0,0,0-30.018-4.768" transform="translate(11.698 17.492)" fill="#e0e0e0"/>
      </g>
    </g>
    <g id="Grupo_1067697" data-name="Grupo 1067697">
      <g id="Grupo_1067696" data-name="Grupo 1067696" clip-path="url(#clip-path)">
        <path id="Trazado_809921" data-name="Trazado 809921" d="M607.794,432.153c0,.156-129.518.281-289.251.281-159.787,0-289.279-.125-289.279-.281s129.491-.281,289.279-.281c159.733,0,289.251.125,289.251.281" transform="translate(2.206 34.715)" fill="#263238"/>
      </g>
    </g>
    <path id="Trazado_809922" data-name="Trazado 809922" d="M438.229,377.475,423.57,437.213h11.448l15.128-55.291-10.221-2.939" transform="translate(31.923 30.342)" fill="#455a64"/>
    <path id="Trazado_809923" data-name="Trazado 809923" d="M506.078,377.475l14.659,59.738H509.289l-15.128-55.291,10.221-2.939" transform="translate(37.243 30.342)" fill="#455a64"/>
    <g id="Grupo_1067705" data-name="Grupo 1067705">
      <g id="Grupo_1067704" data-name="Grupo 1067704" clip-path="url(#clip-path)">
        <path id="Trazado_809924" data-name="Trazado 809924" d="M539.007,352.99a61.921,61.921,0,1,1-60.355-63.744,62.049,62.049,0,0,1,60.355,63.744" transform="translate(31.291 23.249)" fill="#1969d5"/>
        <g id="Grupo_1067700" data-name="Grupo 1067700" transform="translate(446.475 312.475)" opacity="0.3">
          <g id="Grupo_1067699" data-name="Grupo 1067699">
            <g id="Grupo_1067698" data-name="Grupo 1067698" clip-path="url(#clip-path-5)">
              <path id="Trazado_809925" data-name="Trazado 809925" d="M539.007,352.99a61.921,61.921,0,1,1-60.355-63.744,62.049,62.049,0,0,1,60.355,63.744" transform="translate(-415.184 -289.227)"/>
            </g>
          </g>
        </g>
        <path id="Trazado_809926" data-name="Trazado 809926" d="M537.464,345.7a61.921,61.921,0,1,1-60.356-63.744A62.048,62.048,0,0,1,537.464,345.7" transform="translate(31.174 22.663)" fill="#1969d5"/>
        <path id="Trazado_809927" data-name="Trazado 809927" d="M515.591,343.657a41.476,41.476,0,1,1-40.427-42.7,41.56,41.56,0,0,1,40.427,42.7" transform="translate(32.607 24.191)" fill="#fff"/>
        <path id="Trazado_809928" data-name="Trazado 809928" d="M492.935,341.542a20.3,20.3,0,1,1-19.783-20.895,20.338,20.338,0,0,1,19.783,20.895" transform="translate(34.091 25.774)" fill="#1969d5"/>
        <path id="Trazado_809929" data-name="Trazado 809929" d="M512.49,300.417l-1.352-13.31,13.8-14.117.611,14.343Z" transform="translate(38.522 21.944)" fill="#455a64"/>
        <path id="Trazado_809930" data-name="Trazado 809930" d="M541.406,289.383l-13.61-1.457-14,12.868,13.637,1.812Z" transform="translate(38.723 23.144)" fill="#455a64"/>
        <g id="Grupo_1067703" data-name="Grupo 1067703" transform="translate(509.454 324.05)" opacity="0.3">
          <g id="Grupo_1067702" data-name="Grupo 1067702">
            <g id="Grupo_1067701" data-name="Grupo 1067701" clip-path="url(#clip-path-6)">
              <path id="Trazado_809931" data-name="Trazado 809931" d="M473.75,342.466l48.234-35.116a57.769,57.769,0,0,0-5.744-7.41l-42.41,39.292Z" transform="translate(-473.75 -299.94)"/>
            </g>
          </g>
        </g>
        <path id="Trazado_809932" data-name="Trazado 809932" d="M529.241,284.475,509.49,303.357l-31.335,29.953q-3.6,3.444-7.2,6.886c-2.283,2.181,1.109,5.722,3.394,3.538q9.875-9.441,19.751-18.881L525.432,294.9l7.2-6.885c2.283-2.182-1.109-5.722-3.394-3.538" transform="translate(35.436 22.812)" fill="#263238"/>
      </g>
    </g>
    <g id="Grupo_1067725" data-name="Grupo 1067725">
      <g id="Grupo_1067724" data-name="Grupo 1067724" clip-path="url(#clip-path)">
        <path id="Trazado_809933" data-name="Trazado 809933" d="M108.034,367.939c.424-20.731-15.737-37.455-36.1-37.351S34.729,347.582,34.3,368.314A36.451,36.451,0,0,0,54.766,402.17c-.091,4.448-.194,9.471-.194,9.471l32.309-.164s.3-5.317.473-10.062a38.787,38.787,0,0,0,20.679-33.476" transform="translate(6.214 26.574)" fill="#ffcf92"/>
        <path id="Trazado_809934" data-name="Trazado 809934" d="M65.6,409.228c.061-12.177.924-24.362.764-36.536-.032-2.459-.1-4.922-.337-7.366-.295-3.065-.927-6.473-3.7-8.167a4.644,4.644,0,0,0-4.092-.48,6.02,6.02,0,0,0-2.97,2.944,15.6,15.6,0,0,0-1.384,9,16.163,16.163,0,0,0,10.258,13.383A16.72,16.72,0,0,0,81.1,378.579c4.461-4.2,6.954-11.474,4.935-17.357-.872-2.54-2.993-5.377-5.978-5.03-2.9.336-4.35,3.264-5.022,5.832a56.654,56.654,0,0,0-1.25,9.18c-.325,3.546-.548,7.1-.738,10.651-.388,7.316-.6,14.636-.995,21.952q-.129,2.424-.295,4.847c-.038.546.8.508.833-.036.9-12.945.871-25.93,2.161-38.859a38.486,38.486,0,0,1,1.407-8.61,6.686,6.686,0,0,1,2.374-3.535,3.6,3.6,0,0,1,4.041.071c2.552,1.719,3.313,5.23,3.272,8.187a17.267,17.267,0,0,1-2.573,8.715,15.8,15.8,0,0,1-15.235,7.457,14.944,14.944,0,0,1-12.607-10.3,16.537,16.537,0,0,1-.526-8.558c.6-2.841,2.436-6.849,5.944-5.768,3.361,1.035,4.062,4.971,4.352,8.075.2,2.153.274,4.322.312,6.487.2,11.277-.494,22.575-.709,33.857q-.032,1.713-.043,3.425c0,.546.83.511.833-.036" transform="translate(7.68 28.629)" fill="#fff"/>
        <path id="Trazado_809935" data-name="Trazado 809935" d="M61.166,423.236a9.731,9.731,0,0,1,2.071,1.894,2.092,2.092,0,0,0,1.7.822l6.5-.038a2.245,2.245,0,0,0,1.84-.989,4.225,4.225,0,0,1,2.257-1.774Z" transform="translate(8.239 34.014)" fill="#455a64"/>
        <path id="Trazado_809936" data-name="Trazado 809936" d="M54.958,406.215c0,.133,1.3,10.466,1.8,14.417a4.7,4.7,0,0,0,2.614,3.732,4.3,4.3,0,0,0,1.842.4l14.222-.083s3.716-.022,4.618-3.029c.95-3.165,2.873-15.6,2.873-15.6Z" transform="translate(7.771 32.64)" fill="#263238"/>
        <path id="Trazado_809937" data-name="Trazado 809937" d="M80.949,419.318l-24.776.234a.69.69,0,0,1-.694-.711v-.079a.734.734,0,0,1,.716-.724l24.777-.234a.691.691,0,0,1,.694.711l0,.079a.733.733,0,0,1-.716.724" transform="translate(7.811 33.584)" fill="#e0e0e0"/>
        <path id="Trazado_809938" data-name="Trazado 809938" d="M80.957,419.321a.81.81,0,0,0,.482-.23.756.756,0,0,0,.2-.605.651.651,0,0,0-.507-.614c-1.344-.01-3.344.049-5.789.075l-19.138.217a.6.6,0,0,0-.495.273.62.62,0,0,0-.1.275.906.906,0,0,0,.017.3.573.573,0,0,0,.383.392,3.343,3.343,0,0,0,.646.021l2.687-.024,5.082-.041,8.6-.055,5.8-.015,1.576.008.41.009a.54.54,0,0,1,.14.011.6.6,0,0,1-.14.014l-.411.015-1.578.038-5.8.094-8.605.108-5.081.055-2.688.027-.342,0a1.181,1.181,0,0,1-.374-.032.807.807,0,0,1-.539-.553,1.13,1.13,0,0,1-.026-.4.876.876,0,0,1,.138-.39.853.853,0,0,1,.7-.386l19.138-.145c2.453,0,4.422-.039,5.809,0a.731.731,0,0,1,.554.7.8.8,0,0,1-.236.643.623.623,0,0,1-.516.2" transform="translate(7.802 33.581)" fill="#263238"/>
        <path id="Trazado_809939" data-name="Trazado 809939" d="M81.571,416.3l-25.827.244a.689.689,0,0,1-.693-.711v-.079a.734.734,0,0,1,.716-.724l25.827-.244a.69.69,0,0,1,.694.711l0,.079a.733.733,0,0,1-.716.724" transform="translate(7.778 33.342)" fill="#e0e0e0"/>
        <path id="Trazado_809940" data-name="Trazado 809940" d="M81.579,416.3a.794.794,0,0,0,.5-.245.779.779,0,0,0,.182-.634.651.651,0,0,0-.58-.582l-6.021.091-19.88.224a.6.6,0,0,0-.506.294.589.589,0,0,0-.088.29.71.71,0,0,0,.034.312.566.566,0,0,0,.432.365c.192.018.462,0,.689,0l2.792-.025,5.279-.043,8.936-.058,6.025-.018,1.638.008.426.009a.644.644,0,0,1,.145.011.668.668,0,0,1-.145.014l-.427.016-1.638.038-6.026.1-8.938.111-5.279.057-2.792.028c-.245,0-.453.018-.732-.008a.8.8,0,0,1-.61-.514.967.967,0,0,1-.049-.407.861.861,0,0,1,.838-.823l19.88-.152c2.546-.011,4.6-.025,6.031-.013a.73.73,0,0,1,.638.668.837.837,0,0,1-.218.677.628.628,0,0,1-.531.212" transform="translate(7.77 33.338)" fill="#263238"/>
        <path id="Trazado_809941" data-name="Trazado 809941" d="M81.988,413.281l-26.5.251a.689.689,0,0,1-.693-.711v-.079a.734.734,0,0,1,.716-.724l26.5-.251a.689.689,0,0,1,.693.711v.079a.733.733,0,0,1-.716.724" transform="translate(7.76 33.099)" fill="#e0e0e0"/>
        <path id="Trazado_809942" data-name="Trazado 809942" d="M82,413.284a.754.754,0,0,0,.675-.909.648.648,0,0,0-.625-.556l-6.168.1-20.355.228a.6.6,0,0,0-.513.306.624.624,0,0,0-.083.3.686.686,0,0,0,.046.315.568.568,0,0,0,.465.345c.217.007.479,0,.715,0l2.858-.026,5.4-.043,9.149-.061,6.168-.019,1.678.006.436.009a.075.075,0,1,1,0,.025l-.437.016-1.678.039-6.169.1-9.151.112-5.4.058-2.859.029c-.247,0-.472.01-.741,0a.8.8,0,0,1-.655-.485.938.938,0,0,1-.066-.416.885.885,0,0,1,.115-.421.854.854,0,0,1,.725-.431l20.353-.157,6.17-.018a.725.725,0,0,1,.689.64.844.844,0,0,1-.2.7.629.629,0,0,1-.541.223" transform="translate(7.751 33.096)" fill="#263238"/>
        <path id="Trazado_809943" data-name="Trazado 809943" d="M82.624,410.262l-27.57.26a.689.689,0,0,1-.694-.711v-.078a.735.735,0,0,1,.716-.725l27.57-.26a.69.69,0,0,1,.694.711l0,.078a.733.733,0,0,1-.715.725" transform="translate(7.726 32.856)" fill="#e0e0e0"/>
        <path id="Trazado_809944" data-name="Trazado 809944" d="M82.632,410.265a.777.777,0,0,0,.518-.271.805.805,0,0,0,.147-.683.653.653,0,0,0-.7-.512l-6.4.1-21.113.236a.61.61,0,0,0-.526.326.755.755,0,0,0,0,.637.569.569,0,0,0,.514.306l.756-.007,2.965-.026,5.606-.046,9.49-.064,6.4-.022,1.739.006.453.009a.747.747,0,0,1,.155.011.768.768,0,0,1-.156.014l-.453.016-1.74.039-6.4.1-9.492.116-5.606.061-2.965.029-.757.008a.8.8,0,0,1-.722-.43.854.854,0,0,1-.094-.433.908.908,0,0,1,.1-.434.857.857,0,0,1,.742-.46l21.112-.164,6.4-.022a.732.732,0,0,1,.768.59.862.862,0,0,1-.18.731.727.727,0,0,1-.4.233.466.466,0,0,1-.155.007" transform="translate(7.718 32.853)" fill="#263238"/>
        <path id="Trazado_809945" data-name="Trazado 809945" d="M51.789,397.973c-.005.268.456,6.6.695,9.849a3.807,3.807,0,0,0,1.683,2.91l1.432.946,27.5-.161,1.449-.951a4.056,4.056,0,0,0,1.8-2.971l1.011-9.83Z" transform="translate(7.533 31.973)" fill="#e0e0e0"/>
        <g id="Grupo_1067708" data-name="Grupo 1067708" transform="translate(64.905 452.886)" opacity="0.3">
          <g id="Grupo_1067707" data-name="Grupo 1067707">
            <g id="Grupo_1067706" data-name="Grupo 1067706" clip-path="url(#clip-path-8)">
              <path id="Trazado_809946" data-name="Trazado 809946" d="M56.981,419.37a35.032,35.032,0,0,0,8.184.6c2.348-.025,4.648.028,7.2-.041,1.867-.05,3.587-.156,5.451-.249a5.134,5.134,0,0,0,2.173-.49Z" transform="translate(-56.981 -419.191)"/>
            </g>
          </g>
        </g>
        <g id="Grupo_1067711" data-name="Grupo 1067711" transform="translate(63.989 449.612)" opacity="0.3">
          <g id="Grupo_1067710" data-name="Grupo 1067710">
            <g id="Grupo_1067709" data-name="Grupo 1067709" clip-path="url(#clip-path-9)">
              <path id="Trazado_809947" data-name="Trazado 809947" d="M56.129,416.35a40.6,40.6,0,0,0,8.822.6c2.531-.025,5.011.026,7.76-.043,2.013-.052,3.867-.158,5.876-.252a5.874,5.874,0,0,0,2.342-.492Z" transform="translate(-56.129 -416.16)"/>
            </g>
          </g>
        </g>
        <g id="Grupo_1067714" data-name="Grupo 1067714" transform="translate(64.053 446.379)" opacity="0.3">
          <g id="Grupo_1067713" data-name="Grupo 1067713">
            <g id="Grupo_1067712" data-name="Grupo 1067712" clip-path="url(#clip-path-9)">
              <path id="Trazado_809948" data-name="Trazado 809948" d="M56.189,413.357a40.6,40.6,0,0,0,8.823.6c2.53-.025,5.01.026,7.759-.043,2.013-.052,3.867-.158,5.876-.252a5.893,5.893,0,0,0,2.342-.491Z" transform="translate(-56.189 -413.167)"/>
            </g>
          </g>
        </g>
        <g id="Grupo_1067717" data-name="Grupo 1067717" transform="translate(64.117 443.145)" opacity="0.3">
          <g id="Grupo_1067716" data-name="Grupo 1067716">
            <g id="Grupo_1067715" data-name="Grupo 1067715" clip-path="url(#clip-path-11)">
              <path id="Trazado_809949" data-name="Trazado 809949" d="M56.248,410.364a40.59,40.59,0,0,0,8.822.6c2.531-.025,5.011.026,7.76-.043,2.013-.052,3.867-.159,5.876-.252a5.871,5.871,0,0,0,2.342-.492Z" transform="translate(-56.248 -410.175)"/>
            </g>
          </g>
        </g>
        <path id="Trazado_809950" data-name="Trazado 809950" d="M85.578,408.119c0,.067-7.358.165-16.428.219s-16.426.041-16.425-.026,7.357-.165,16.431-.219,16.424-.041,16.423.026" transform="translate(7.603 32.801)" fill="#263238"/>
        <path id="Trazado_809951" data-name="Trazado 809951" d="M87.189,397.6c0,.075-7.988.214-17.84.311s-17.846.116-17.847.041,7.986-.214,17.842-.311,17.844-.116,17.845-.041" transform="translate(7.511 31.956)" fill="#263238"/>
        <g id="Grupo_1067720" data-name="Grupo 1067720" transform="translate(66.9 361.024)" opacity="0.2">
          <g id="Grupo_1067719" data-name="Grupo 1067719">
            <g id="Grupo_1067718" data-name="Grupo 1067718" clip-path="url(#clip-path-12)">
              <path id="Trazado_809952" data-name="Trazado 809952" d="M62.211,341.353a6.461,6.461,0,0,1,2.567-4.571,10.937,10.937,0,0,1,7.85-2.6c8.308.495,14,3.076,19.634,9.7,1.909,2.245,4.132,6.381,3.941,9.528a5.9,5.9,0,0,1-1.956,4.149c-3.134,2.686-7.45.492-9.97-2.339-2.346-2.639-4.2-5.984-7.426-7.4-2.654-1.166-5.725-.779-8.6-1.207s-6.007-2.3-6.039-5.266" transform="translate(-62.211 -334.163)" fill="#fff"/>
            </g>
          </g>
        </g>
        <g id="Grupo_1067723" data-name="Grupo 1067723" transform="translate(96.39 388.631)" opacity="0.2">
          <g id="Grupo_1067722" data-name="Grupo 1067722">
            <g id="Grupo_1067721" data-name="Grupo 1067721" clip-path="url(#clip-path-13)">
              <path id="Trazado_809953" data-name="Trazado 809953" d="M89.8,363.384c.846-2.459,3.815-4.037,5.793-3.593a5.435,5.435,0,0,1,3.681,3.188A5.37,5.37,0,0,1,98,368.707a4.821,4.821,0,0,1-5.673.653c-1.717-1.071-3.2-4-2.523-5.976" transform="translate(-89.635 -359.716)" fill="#fff"/>
            </g>
          </g>
        </g>
        <path id="Trazado_809954" data-name="Trazado 809954" d="M29.651,343.786c-.084.131-6.79-4.074-14.977-9.39S-.084,324.663,0,324.532s6.789,4.073,14.979,9.392,14.756,9.731,14.672,9.862" transform="translate(0 26.087)" fill="#263238"/>
        <path id="Trazado_809955" data-name="Trazado 809955" d="M35.742,330.541a94.96,94.96,0,0,1-6.278-8.215,95.808,95.808,0,0,1-5.826-8.546A95.485,95.485,0,0,1,29.916,322a95.652,95.652,0,0,1,5.825,8.545" transform="translate(1.781 25.222)" fill="#263238"/>
        <path id="Trazado_809956" data-name="Trazado 809956" d="M24.289,356.393a26.407,26.407,0,0,1-3.121-.279c-1.953-.223-4.647-.56-7.618-.967s-5.657-.81-7.6-1.14c-.969-.165-1.753-.312-2.291-.432-.27-.059-.479-.112-.618-.159a.654.654,0,0,1-.168-.076c.06-.1.067-.015.071-.031a3.058,3.058,0,0,1,.748.05l2.313.254c1.952.229,4.646.568,7.617.977,5.918.814,10.8,1.6,10.663,1.8" transform="translate(0.217 28.398)" fill="#263238"/>
      </g>
    </g>
    <g id="Grupo_1067751" data-name="Grupo 1067751">
      <g id="Grupo_1067750" data-name="Grupo 1067750" clip-path="url(#clip-path)">
        <path id="Trazado_809957" data-name="Trazado 809957" d="M288.514,227.1a105.9,105.9,0,0,1-39.106-82.419C249.408,86.187,296.778,38.6,355,38.6S460.6,86.187,460.6,144.683a106.675,106.675,0,0,1-12.689,50.457l-28.968-15.76a73.345,73.345,0,0,0,8.716-34.7c0-40.247-32.592-72.991-72.652-72.991s-72.653,32.743-72.653,72.991a72.876,72.876,0,0,0,26.92,56.718Z" transform="translate(18.797 3.102)" fill="#288640"/>
        <g id="Grupo_1067728" data-name="Grupo 1067728" transform="translate(314.778 51.518)" opacity="0.3">
          <g id="Grupo_1067727" data-name="Grupo 1067727">
            <g id="Grupo_1067726" data-name="Grupo 1067726" clip-path="url(#clip-path-15)">
              <path id="Trazado_809958" data-name="Trazado 809958" d="M411.976,90.976l2.7,3.087,9.637-8.51c-.336-.72-.714-1.413-1.111-2.1.025-.053.037-.1.02-.113s-.048-.013-.091,0a27.151,27.151,0,0,0-1.881-2.8v0h0a31.516,31.516,0,0,0-5.213-5.258v-.014s-.015,0-.022,0c-.666-.536-1.35-1.062-2.07-1.565l-9.636,8.51,2.636,3.014-3.109,2.745a65.277,65.277,0,0,0-37.095-17.79l.24-5.8,4.838.2.62-14.977c.16-.1.246-.169.227-.2s-.085-.04-.218-.023l0-.051a35.313,35.313,0,0,0-18.582-.777l-.005.129c-.049,0-.086,0-.095.023s.024.061.089.117l-.62,14.978,4.723.2-.233,5.632A65.2,65.2,0,0,0,317.643,83.9l-2.9-3.691,3.209-2.548-7.954-10.115c-.731.3-1.442.643-2.141,1.006-.052-.028-.092-.042-.112-.027s-.015.048-.006.091a27.22,27.22,0,0,0-2.88,1.741h0v0a31.539,31.539,0,0,0-5.5,4.955h-.015s0,.015-.005.021c-.568.641-1.125,1.3-1.664,1.994l7.954,10.116,3.133-2.487L311.932,89a65.711,65.711,0,1,0,97.1,4.575Z" transform="translate(-292.717 -47.685)"/>
            </g>
          </g>
        </g>
        <path id="Trazado_810130" data-name="Trazado 810130" d="M.027.017,7.668,0,7.641,11.938,0,11.955Z" transform="matrix(0.785, -0.62, 0.62, 0.785, 324.254, 88.859)" fill="#263238"/>
        <path id="Trazado_809959" data-name="Trazado 809959" d="M313.582,78.84l-12.328,9.786L293.3,78.51a29.994,29.994,0,0,1,12.328-9.785Z" transform="translate(22.105 5.524)" fill="#1969d5"/>
        <path id="Trazado_809960" data-name="Trazado 809960" d="M303.2,86.409c-.2.158-2.225-2.064-4.53-4.96s-4.014-5.375-3.818-5.533,2.224,2.064,4.529,4.961,4.015,5.374,3.819,5.532" transform="translate(22.221 6.102)" fill="#263238"/>
        <path id="Trazado_809961" data-name="Trazado 809961" d="M305.384,84.715c-.2.151-2.194-2.2-4.469-5.225s-3.975-5.58-3.841-5.7c.245-.215,2.3,2.116,4.569,5.146s3.942,5.627,3.741,5.777" transform="translate(22.389 5.93)" fill="#263238"/>
        <path id="Trazado_809962" data-name="Trazado 809962" d="M308.293,82.43c-.2.15-2.208-2.229-4.49-5.3s-3.98-5.67-3.822-5.8c.231-.19,2.271,2.179,4.552,5.254s3.962,5.7,3.759,5.848" transform="translate(22.607 5.733)" fill="#263238"/>
        <path id="Trazado_809963" data-name="Trazado 809963" d="M310.945,80.237c-.2.156-2.211-2.092-4.5-5.021s-3.977-5.429-3.779-5.586,2.211,2.092,4.5,5.022,3.977,5.429,3.779,5.585" transform="translate(22.81 5.596)" fill="#263238"/>
        <path id="Trazado_810131" data-name="Trazado 810131" d="M.018.028,11.945,0l-.018,7.647L0,7.675Z" transform="matrix(0.751, -0.66, 0.66, 0.751, 418.379, 97.448)" fill="#263238"/>
        <path id="Trazado_809964" data-name="Trazado 809964" d="M402.836,94.782,392.463,82.926l9.637-8.51a30.07,30.07,0,0,1,10.373,11.856Z" transform="translate(29.578 5.982)" fill="#1969d5"/>
        <path id="Trazado_809965" data-name="Trazado 809965" d="M394.079,84.795c-.167-.188,1.935-2.339,4.693-4.8s5.132-4.31,5.3-4.121-1.933,2.339-4.694,4.8-5.132,4.311-5.3,4.121" transform="translate(29.699 6.098)" fill="#263238"/>
        <path id="Trazado_809966" data-name="Trazado 809966" d="M395.917,86.885c-.161-.2,2.068-2.316,4.96-4.757s5.338-4.28,5.462-4.153c.227.234-1.983,2.415-4.876,4.853s-5.385,4.251-5.546,4.057" transform="translate(29.838 6.267)" fill="#263238"/>
        <path id="Trazado_809967" data-name="Trazado 809967" d="M398.365,89.67c-.16-.2,2.1-2.33,5.035-4.782s5.428-4.29,5.566-4.139c.2.223-2.048,2.392-4.983,4.843s-5.459,4.272-5.618,4.077" transform="translate(30.022 6.49)" fill="#263238"/>
        <path id="Trazado_809968" data-name="Trazado 809968" d="M400.658,92.2c-.166-.19,1.964-2.328,4.754-4.773s5.189-4.275,5.354-4.084-1.964,2.327-4.755,4.773-5.188,4.274-5.353,4.084" transform="translate(30.195 6.699)" fill="#263238"/>
        <rect id="Rectángulo_375650" data-name="Rectángulo 375650" width="14.156" height="9.026" transform="matrix(0.042, -0.999, 0.999, 0.042, 375.282, 80.617)" fill="#263238"/>
        <path id="Trazado_809969" data-name="Trazado 809969" d="M363.552,67.235l-18.582-.777.631-15.247a35.313,35.313,0,0,1,18.582.778Z" transform="translate(25.999 4.046)" fill="#1969d5"/>
        <path id="Trazado_809970" data-name="Trazado 809970" d="M364.364,51.988c.13.179-4,2.243-9.535,2.01-5.537-.176-9.506-2.54-9.363-2.709.1-.271,4.093,1.634,9.4,1.795,5.3.231,9.419-1.373,9.5-1.1" transform="translate(26.036 4.121)" fill="#263238"/>
        <path id="Trazado_809971" data-name="Trazado 809971" d="M350.7,66.43c-.252-.011-.334-2.946-.185-6.556s.475-6.529.727-6.519.333,2.945.183,6.557-.474,6.529-.725,6.518" transform="translate(26.411 4.289)" fill="#263238"/>
        <path id="Trazado_809972" data-name="Trazado 809972" d="M353.983,66.653c-.251-.011-.333-2.959-.183-6.585s.475-6.559.727-6.548.333,2.958.184,6.586-.476,6.558-.728,6.547" transform="translate(26.659 4.302)" fill="#263238"/>
        <path id="Trazado_809973" data-name="Trazado 809973" d="M357.273,66.735c-.252-.01-.333-2.959-.183-6.585s.475-6.559.727-6.548.333,2.959.183,6.586-.476,6.558-.727,6.547" transform="translate(26.907 4.309)" fill="#263238"/>
        <path id="Trazado_809974" data-name="Trazado 809974" d="M360.01,66.927c-.252-.01-.324-3.2-.161-7.115s.5-7.089.75-7.079.324,3.2.161,7.116-.5,7.089-.75,7.078" transform="translate(27.114 4.239)" fill="#263238"/>
        <path id="Trazado_809975" data-name="Trazado 809975" d="M347.591,66.327c-.252-.011-.324-3.2-.161-7.116s.5-7.089.75-7.079.324,3.2.161,7.116-.5,7.089-.75,7.079" transform="translate(26.178 4.191)" fill="#263238"/>
        <path id="Trazado_809976" data-name="Trazado 809976" d="M420.027,139.4a65.694,65.694,0,1,1-62.9-68.687,65.816,65.816,0,0,1,62.9,68.687" transform="translate(21.758 5.679)" fill="#59bee2"/>
        <path id="Trazado_809977" data-name="Trazado 809977" d="M408.8,137.684A55.174,55.174,0,1,1,355.97,80,55.274,55.274,0,0,1,408.8,137.684" transform="translate(22.497 6.426)" fill="#fff"/>
        <path id="Trazado_809978" data-name="Trazado 809978" d="M408.829,137.709s-.034-.306-.055-.9c-.016-.631-.039-1.507-.068-2.635q-.018-.874-.04-1.939c-.046-.712-.167-1.487-.257-2.326a40.394,40.394,0,0,0-.918-5.757,53.025,53.025,0,0,0-5.507-14.928,54.992,54.992,0,0,0-13.31-16.2A54.37,54.37,0,0,0,366.047,81.8a50.416,50.416,0,0,0-6.888-1.091c-1.179-.09-2.364-.255-3.563-.286l-3.629.038c-.609.017-1.223-.012-1.833.043l-1.836.206c-1.226.152-2.471.244-3.706.448a57.779,57.779,0,0,0-7.384,1.849,56.82,56.82,0,0,0-7.263,2.852c-1.181.582-2.318,1.268-3.491,1.9a27.918,27.918,0,0,0-3.394,2.148,61.509,61.509,0,0,0-6.422,5.039,62.133,62.133,0,0,0-5.622,6.144,53.294,53.294,0,0,0-8.442,14.806,59.021,59.021,0,0,0-3.54,17.212,59.052,59.052,0,0,0,2.1,17.454,53.367,53.367,0,0,0,7.188,15.465A50.251,50.251,0,0,0,319.4,178.182a27.986,27.986,0,0,0,3.206,2.423c1.115.73,2.193,1.51,3.322,2.188a57.008,57.008,0,0,0,7,3.451,57.679,57.679,0,0,0,7.206,2.458c1.214.307,2.446.5,3.656.756l1.813.359c.6.106,1.218.129,1.824.2l3.614.341c1.2.069,2.392,0,3.573.012a50.648,50.648,0,0,0,6.955-.512,54.338,54.338,0,0,0,23.478-9.3,54.951,54.951,0,0,0,14.6-15.031,53,53,0,0,0,6.721-14.414,40.492,40.492,0,0,0,1.39-5.66c.16-.83.344-1.591.449-2.3q.11-1.06.2-1.93c.123-1.121.218-1.992.286-2.619.07-.591.129-.892.129-.892s0,.3-.035.9c-.047.63-.113,1.5-.2,2.633q-.071.875-.156,1.943c-.091.71-.262,1.477-.409,2.313a39.6,39.6,0,0,1-1.317,5.712A52.606,52.606,0,0,1,400.08,165.8a55.464,55.464,0,0,1-38.4,24.8,51.486,51.486,0,0,1-7.051.543c-1.2,0-2.409.065-3.624,0l-3.667-.334c-.614-.067-1.238-.089-1.851-.194l-1.841-.359c-1.228-.254-2.48-.451-3.712-.758a60.517,60.517,0,0,1-14.442-5.967c-1.147-.687-2.243-1.476-3.378-2.216a28.744,28.744,0,0,1-3.261-2.456,51.1,51.1,0,0,1-11.272-12.334,54.2,54.2,0,0,1-7.319-15.715,59.837,59.837,0,0,1-2.138-17.742,59.791,59.791,0,0,1,3.6-17.5,54.112,54.112,0,0,1,8.593-15.043,50.941,50.941,0,0,1,12.252-11.346,28.385,28.385,0,0,1,3.451-2.175c1.192-.643,2.349-1.338,3.55-1.925a57.556,57.556,0,0,1,7.382-2.884,58.275,58.275,0,0,1,7.5-1.857c1.254-.2,2.518-.295,3.763-.446l1.864-.2c.62-.054,1.243-.024,1.86-.039l3.681-.027c1.217.035,2.417.205,3.612.3a51.416,51.416,0,0,1,6.981,1.13,55.523,55.523,0,0,1,36.216,27.92,52.7,52.7,0,0,1,5.406,15.1,39.421,39.421,0,0,1,.84,5.8c.077.846.184,1.625.216,2.34q0,1.07-.005,1.948c-.009,1.131-.016,2.01-.021,2.642-.011.594-.039.9-.039.9" transform="translate(22.467 6.401)" fill="#263238"/>
        <path id="Trazado_809979" data-name="Trazado 809979" d="M394.254,132.407c-5.032-.131-9.11-.542-9.108-.919s4.083-.752,9.116-.839,9.108.325,9.106.919-4.085.97-9.114.839" transform="translate(29.027 10.501)" fill="#263238"/>
        <path id="Trazado_809980" data-name="Trazado 809980" d="M380.648,163.314c-3.484-3.65-6.1-6.825-5.832-7.089s3.428,2.352,7.067,5.846,6.249,6.667,5.83,7.088-3.583-2.2-7.065-5.845" transform="translate(28.247 12.556)" fill="#263238"/>
        <path id="Trazado_809981" data-name="Trazado 809981" d="M349.271,175.752c.076-5.056.442-9.156.816-9.156s.793,4.087.933,9.144-.225,9.166-.816,9.164-1.01-4.1-.933-9.152" transform="translate(26.322 13.391)" fill="#263238"/>
        <path id="Trazado_809982" data-name="Trazado 809982" d="M319.02,162.473c3.594-3.54,6.725-6.2,6.992-5.937s-2.3,3.47-5.741,7.164-6.566,6.351-6.99,5.935,2.146-3.624,5.739-7.162" transform="translate(23.607 12.581)" fill="#263238"/>
        <path id="Trazado_809983" data-name="Trazado 809983" d="M306.626,131.2c5.035.022,9.113.345,9.12.721s-4.061.841-9.09,1.037-9.116-.127-9.13-.721,4.07-1.059,9.1-1.037" transform="translate(22.423 10.546)" fill="#263238"/>
        <path id="Trazado_809984" data-name="Trazado 809984" d="M319.2,100.829c3.563,3.572,6.243,6.689,5.986,6.96s-3.479-2.276-7.193-5.689-6.392-6.528-5.983-6.959,3.63,2.119,7.191,5.688" transform="translate(23.511 7.644)" fill="#263238"/>
        <path id="Trazado_809985" data-name="Trazado 809985" d="M349.509,88.116c.032,5.055-.244,9.162-.619,9.175s-.881-4.075-1.129-9.125.027-9.158.618-9.176,1.1,4.071,1.13,9.126" transform="translate(26.202 6.349)" fill="#263238"/>
        <path id="Trazado_809986" data-name="Trazado 809986" d="M380.8,100.345c-3.517,3.618-6.589,6.344-6.862,6.088s2.228-3.519,5.584-7.287,6.427-6.493,6.86-6.087-2.068,3.67-5.582,7.286" transform="translate(28.18 7.477)" fill="#263238"/>
        <path id="Trazado_809987" data-name="Trazado 809987" d="M366.48,104.606a190.337,190.337,0,0,1-1.742,24.313,30.442,30.442,0,0,1-2.09,8.537,11.4,11.4,0,0,1-6.008,6.126,7.077,7.077,0,0,1-7.977-1.912Z" transform="translate(26.277 8.409)" fill="#e0e0e0"/>
        <path id="Trazado_809988" data-name="Trazado 809988" d="M348.863,129.624,370.3,96.568l-13.678,37.757-6.253,1.6Z" transform="translate(26.292 7.762)" fill="#59bee2"/>
        <g id="Grupo_1067731" data-name="Grupo 1067731" transform="translate(380.301 104.33)" opacity="0.4">
          <g id="Grupo_1067730" data-name="Grupo 1067730">
            <g id="Grupo_1067729" data-name="Grupo 1067729" clip-path="url(#clip-path-16)">
              <path id="Trazado_809989" data-name="Trazado 809989" d="M369.94,96.568l-16.292,34.009,2.614,3.748Z" transform="translate(-353.648 -96.568)"/>
            </g>
          </g>
        </g>
        <path id="Trazado_809990" data-name="Trazado 809990" d="M357.163,133.748A6.454,6.454,0,1,1,350.984,127a6.465,6.465,0,0,1,6.179,6.748" transform="translate(25.946 10.208)" fill="#fafafa"/>
        <path id="Trazado_809991" data-name="Trazado 809991" d="M357.2,133.778c-.083,0-.063-.58-.31-1.554a6.481,6.481,0,0,0-2.229-3.453,6.084,6.084,0,1,0-.405,9.784,6.48,6.48,0,0,0,2.508-3.255c.325-.95.354-1.529.437-1.522a3.212,3.212,0,0,1-.1,1.624,6.455,6.455,0,0,1-2.479,3.684,6.722,6.722,0,0,1-6.48.8,6.888,6.888,0,0,1,.538-12.96,6.723,6.723,0,0,1,6.391,1.343,6.465,6.465,0,0,1,2.165,3.879,3.2,3.2,0,0,1-.038,1.626" transform="translate(25.913 10.179)" fill="#263238"/>
        <path id="Trazado_809992" data-name="Trazado 809992" d="M355.4,133.556a4.8,4.8,0,1,1-4.6-5.023,4.813,4.813,0,0,1,4.6,5.023" transform="translate(26.061 10.332)" fill="#455a64"/>
        <path id="Trazado_809993" data-name="Trazado 809993" d="M385.9,148.708l-4.09,70.945a3.978,3.978,0,0,0,4.841,4.123l72-16.363a4,4,0,0,0,1.606-7.007l-67.913-54.583a3.97,3.97,0,0,0-6.447,2.886" transform="translate(28.775 11.651)" fill="#288640"/>
        <path id="Trazado_809994" data-name="Trazado 809994" d="M35.28,273.823l40.492,52.524a3.074,3.074,0,0,0,4.771.126l42.37-49.329a3.1,3.1,0,0,0-2.215-5.119l-82.863-3.194a3.1,3.1,0,0,0-2.555,4.991" transform="translate(2.61 21.609)" fill="#74c67b"/>
        <path id="Trazado_809995" data-name="Trazado 809995" d="M308.653,353.639A119.8,119.8,0,0,1,210.3,405.2H105.5v33.1H210.3a152.608,152.608,0,0,0,122.888-62.274Z" transform="translate(7.951 28.426)" fill="#74c67b"/>
        <path id="Trazado_809996" data-name="Trazado 809996" d="M327.673,198.847a152.309,152.309,0,0,0-114-51.332c-84.343,0-152.961,68.938-152.961,153.675H93.654c0-66.488,53.839-120.578,120.018-120.578a119.5,119.5,0,0,1,89.084,39.864Z" transform="translate(4.576 11.858)" fill="#74c67b"/>
        <path id="Trazado_809997" data-name="Trazado 809997" d="M319.99,206.466l-25.778,20.652a120.82,120.82,0,0,1,7.908,125.747L327.791,374.5a153.938,153.938,0,0,0-7.8-168.03" transform="translate(22.173 16.596)" fill="#74c67b"/>
        <g id="Grupo_1067734" data-name="Grupo 1067734" transform="translate(66.791 283.909)" opacity="0.3">
          <g id="Grupo_1067733" data-name="Grupo 1067733">
            <g id="Grupo_1067732" data-name="Grupo 1067732" clip-path="url(#clip-path-17)">
              <path id="Trazado_809998" data-name="Trazado 809998" d="M62.11,270.333l33.15,1.219,1.51-7.445-33.256-1.321Z" transform="translate(-62.11 -262.786)"/>
            </g>
          </g>
        </g>
        <g id="Grupo_1067737" data-name="Grupo 1067737" transform="translate(190.592 159.374)" opacity="0.3">
          <g id="Grupo_1067736" data-name="Grupo 1067736">
            <g id="Grupo_1067735" data-name="Grupo 1067735" clip-path="url(#clip-path-18)">
              <path id="Trazado_809999" data-name="Trazado 809999" d="M177.235,183.844l5.353-1.142,10.445-28.343,32.707-1.847-30.625-5-7.924,1.022Z" transform="translate(-177.235 -147.516)"/>
            </g>
          </g>
        </g>
        <path id="Trazado_810000" data-name="Trazado 810000" d="M184.108,87.026s-1.143.5-1.322-1.034,3-4.727,4.02-5.741,2.472-.8,3.763-.507,6.574.823,8.325,1.953,4.436,6.8,5,7.07S220.929,89.9,220.929,89.9l-.709,13.571s-16.175-3.1-19.378-5.109-2.783-2.815-3.693-4.692-1.888-3.872-1.888-3.872l-1.514-.252-2.428,1.346s-.286,3.444-2.688,3.357l-1.178-.623s-.786.913-1.681-.5-.725-1.674-.725-1.674-.942,1.17-1.959-.281,1.021-4.145,1.021-4.145" transform="translate(13.775 6.391)" fill="#ae7461"/>
        <path id="Trazado_810001" data-name="Trazado 810001" d="M201.445,92.535c0,.011-.059.03-.178.057a2.48,2.48,0,0,1-.538.053,3.861,3.861,0,0,1-1.939-.554,5.182,5.182,0,0,1-2.054-2.288,9.972,9.972,0,0,1-.852-3.8l.261.16a9.731,9.731,0,0,1-6.412.588,2.38,2.38,0,0,1-1.242-.58.627.627,0,0,1-.042-.8,1.326,1.326,0,0,1,.582-.376c1.483-.6,2.848-1.074,4-1.428s2.106-.6,2.765-.745a5.033,5.033,0,0,1,1.035-.185,5.794,5.794,0,0,1-1,.33c-.645.2-1.58.474-2.719.861s-2.486.879-3.952,1.5a1.024,1.024,0,0,0-.428.266.253.253,0,0,0,.032.34,2.125,2.125,0,0,0,1.054.452,9.546,9.546,0,0,0,6.167-.557l.249-.113.012.273a9.939,9.939,0,0,0,.769,3.684,5.044,5.044,0,0,0,1.888,2.225,4.006,4.006,0,0,0,1.824.629c.455.032.707-.014.711.015" transform="translate(14.193 6.642)" fill="#6f4439"/>
        <path id="Trazado_810002" data-name="Trazado 810002" d="M193.435,83.194a2.331,2.331,0,0,1-1.556.3c-.49-.005-1.068-.089-1.68-.048a2.308,2.308,0,0,0-1.687.851,8.972,8.972,0,0,1-3.1,2.245,3.824,3.824,0,0,1-1.528.42c-.017-.061.56-.232,1.412-.669a10.227,10.227,0,0,0,2.939-2.266,2.972,2.972,0,0,1,.9-.7,2.675,2.675,0,0,1,1.042-.239,12.908,12.908,0,0,1,1.717.131,7.573,7.573,0,0,0,1.539-.03" transform="translate(13.859 6.679)" fill="#6f4439"/>
        <path id="Trazado_810003" data-name="Trazado 810003" d="M189.976,86.532a7.915,7.915,0,0,1-5.233,4.512,28.361,28.361,0,0,0,2.88-1.947,28.279,28.279,0,0,0,2.353-2.565" transform="translate(13.923 6.956)" fill="#6f4439"/>
        <path id="Trazado_810004" data-name="Trazado 810004" d="M190.39,88.459a5.977,5.977,0,0,1-3.28,4.5c-.066-.1.984-.821,1.884-2.071s1.284-2.463,1.4-2.43" transform="translate(14.101 7.111)" fill="#6f4439"/>
        <path id="Trazado_810005" data-name="Trazado 810005" d="M239.2,61.987,224.455,88.722l-22.888-.4-1.721,13.809,23.619,5.818,9.726-10.728Z" transform="translate(15.062 4.983)" fill="#e0e0e0"/>
        <path id="Trazado_810006" data-name="Trazado 810006" d="M224.572,91.269c-.114.011-.257-1.089-.768-2.329s-1.161-2.135-1.073-2.206a5.714,5.714,0,0,1,1.841,4.535" transform="translate(16.786 6.972)" fill="#263238"/>
        <path id="Trazado_810007" data-name="Trazado 810007" d="M241.963,19.651a3.98,3.98,0,0,1-4.243-2.935,4,4,0,0,1,2.481-4.538,4.139,4.139,0,0,1-.774-4.634,4.1,4.1,0,0,1,4.135-2.2A4.782,4.782,0,0,1,250.7,1.277a5.358,5.358,0,0,1,6.618-.255,3.93,3.93,0,0,1,4.124,1.93,3.967,3.967,0,0,1-.63,4.527" transform="translate(17.909 0)" fill="#263238"/>
        <path id="Trazado_810008" data-name="Trazado 810008" d="M258,4.457l-.844.016a16.333,16.333,0,0,0-15.953,15.372c-.483,7.921-.914,16.68-.781,20.923.277,8.785,9.051,9.981,9.051,9.981l-.537,10.57,1.038,8.057,20.175-9.131,1.14-38.321C271.9,12.786,267.112,4.814,258,4.457" transform="translate(18.118 0.358)" fill="#ae7461"/>
        <path id="Trazado_810009" data-name="Trazado 810009" d="M248.778,47.56a21.144,21.144,0,0,0,11.395-3.592s-2.711,6.8-11.453,6.182Z" transform="translate(18.745 3.534)" fill="#6f4439"/>
        <path id="Trazado_810010" data-name="Trazado 810010" d="M244.1,27.126a1.252,1.252,0,0,0,1.229,1.242,1.2,1.2,0,0,0,1.265-1.156,1.252,1.252,0,0,0-1.227-1.244,1.2,1.2,0,0,0-1.267,1.157" transform="translate(18.397 2.087)" fill="#263238"/>
        <path id="Trazado_810011" data-name="Trazado 810011" d="M242.976,22.746c.158.161,1.09-.562,2.435-.583,1.342-.042,2.342.633,2.484.465.07-.075-.092-.366-.528-.672a3.413,3.413,0,0,0-1.994-.575,3.277,3.277,0,0,0-1.933.669c-.408.326-.541.626-.463.7" transform="translate(18.31 1.719)" fill="#263238"/>
        <path id="Trazado_810012" data-name="Trazado 810012" d="M255.472,27.126a1.252,1.252,0,0,0,1.229,1.242,1.2,1.2,0,0,0,1.265-1.157,1.252,1.252,0,0,0-1.227-1.242,1.2,1.2,0,0,0-1.267,1.157" transform="translate(19.254 2.087)" fill="#263238"/>
        <path id="Trazado_810013" data-name="Trazado 810013" d="M255.265,22.741c.158.161,1.093-.561,2.435-.583,1.342-.042,2.342.633,2.485.466.07-.075-.092-.367-.529-.673a3.42,3.42,0,0,0-1.993-.575,3.281,3.281,0,0,0-1.935.669c-.405.326-.541.626-.464.7" transform="translate(19.237 1.718)" fill="#263238"/>
        <path id="Trazado_810014" data-name="Trazado 810014" d="M251.149,32.834a8.824,8.824,0,0,0-2.191-.353c-.344-.029-.67-.091-.732-.325a1.764,1.764,0,0,1,.21-1.026q.46-1.261.964-2.646a45.365,45.365,0,0,0,2.147-6.911,45.373,45.373,0,0,0-2.7,6.722q-.482,1.392-.921,2.66a2,2,0,0,0-.153,1.357.864.864,0,0,0,.574.493,2.274,2.274,0,0,0,.585.07,8.747,8.747,0,0,0,2.212-.04" transform="translate(18.668 1.734)" fill="#263238"/>
        <path id="Trazado_810015" data-name="Trazado 810015" d="M254.088,17.964c.184.339,1.328-.055,2.745-.129,1.415-.106,2.615.139,2.739-.218.052-.171-.205-.473-.722-.738a4.24,4.24,0,0,0-2.137-.407,4.083,4.083,0,0,0-2.041.672c-.465.326-.667.658-.585.82" transform="translate(19.148 1.323)" fill="#263238"/>
        <path id="Trazado_810016" data-name="Trazado 810016" d="M242.818,17.6c.289.3,1.392-.039,2.726-.08,1.331-.08,2.467.159,2.721-.167.111-.158-.073-.461-.572-.742a4.323,4.323,0,0,0-2.226-.459,4.258,4.258,0,0,0-2.163.658c-.465.325-.614.644-.486.791" transform="translate(18.297 1.298)" fill="#263238"/>
        <path id="Trazado_810017" data-name="Trazado 810017" d="M241.862,15.877s2.2-5.548,4.817-6.883c3.167-1.616,4.611,1.882,7.642.968s6.054-2.467,9.214-.161c3.457,2.524,1.9,4.372,2.182,8.266,1.158,15.79,4.118,20.2,4.791,12.743.074-.818,2.314-1.51,2.582-4.963.347-4.477.413-9.906-.641-13.058-.888-2.657-2.44-4.474-5.2-6.457-4.356-3.13-10.256-3.084-14.253-2.6s-11.631,5.264-11.133,12.147" transform="translate(18.226 0.28)" fill="#263238"/>
        <path id="Trazado_810018" data-name="Trazado 810018" d="M267.983,28.74a2.378,2.378,0,0,1,2.518-2.348c1.635.123,3.467,1.019,3.425,4.407-.075,6.01-6.066,4.7-6.075,4.522-.005-.117.077-4.067.131-6.582" transform="translate(20.187 2.121)" fill="#ae7461"/>
        <path id="Trazado_810019" data-name="Trazado 810019" d="M269.09,32.932c.027-.018.1.075.278.158a1.038,1.038,0,0,0,.779.026,2.6,2.6,0,0,0,1.224-2.309,3.517,3.517,0,0,0-.273-1.5,1.208,1.208,0,0,0-.774-.814.53.53,0,0,0-.619.279c-.081.167-.045.287-.076.3s-.128-.1-.077-.35a.672.672,0,0,1,.241-.373.782.782,0,0,1,.579-.146,1.465,1.465,0,0,1,1.076.945,3.559,3.559,0,0,1,.34,1.68,2.721,2.721,0,0,1-1.551,2.577,1.113,1.113,0,0,1-.953-.172c-.183-.15-.213-.285-.191-.3" transform="translate(20.28 2.266)" fill="#6f4439"/>
        <path id="Trazado_810020" data-name="Trazado 810020" d="M269.329,19.1a5.661,5.661,0,0,1-2.51,1.224,1.949,1.949,0,0,1-2.189-1.336c-.08-.417.013-.9-.267-1.221-.334-.379-.934-.247-1.435-.184-1.735.218-3.8-1.67-4.278-3.361a1.557,1.557,0,0,1-2.078.474,5.6,5.6,0,0,1-1.465-1.259,2.462,2.462,0,0,0-2.072-.992,5.885,5.885,0,0,1-1.3.314c-.786-.055-1.187-.971-1.322-1.752s-.243-1.692-.916-2.1a3.116,3.116,0,0,0-2.139-.018c-.722.121-1.657-.031-1.856-.738a1.433,1.433,0,0,1,.246-1.094A3.862,3.862,0,0,1,250.3,5.487a5.241,5.241,0,0,1,9.623-1.21,5.315,5.315,0,0,1,8.552,1.785,3.95,3.95,0,0,1,4.061,1.3,3.993,3.993,0,0,1,.4,4.262,3.683,3.683,0,0,1,2.074,2.893,2.1,2.1,0,0,1-2.337,2.2,2.233,2.233,0,0,1-.788,2.838,2.21,2.21,0,0,1-2.868-.624" transform="translate(18.5 0.13)" fill="#263238"/>
        <path id="Trazado_810021" data-name="Trazado 810021" d="M249.577,6.842c-.005,0,0,.038,0,.11s.016.18.044.32a3.8,3.8,0,0,0,.457,1.148,4.293,4.293,0,0,0,1.353,1.395,3.974,3.974,0,0,0,2.463.655l-.1-.132a2.184,2.184,0,0,0,.152,1.656A6.221,6.221,0,0,0,255,13.452a4.416,4.416,0,0,0,.683.676,2.087,2.087,0,0,0,.954.335,2.177,2.177,0,0,0,1.911-.73l-.225-.061a4.51,4.51,0,0,0,1.963,3.081,3.263,3.263,0,0,0,1.975.608,5.906,5.906,0,0,0,1.927-.465l-.161-.068a4.732,4.732,0,0,0,1.451,1.827,2.5,2.5,0,0,0,2.095.529,3.3,3.3,0,0,0,2.485-2.639l-.133.066a3.066,3.066,0,0,0,2.06.264,3.333,3.333,0,0,0,1.419-.67,2.887,2.887,0,0,0,.654-.747,1.454,1.454,0,0,0,.146-.314,3.594,3.594,0,0,1-.861.981,3.308,3.308,0,0,1-1.386.607,2.945,2.945,0,0,1-1.945-.282l-.113-.062-.022.127a3.114,3.114,0,0,1-2.354,2.446,2.268,2.268,0,0,1-1.9-.5,4.508,4.508,0,0,1-1.364-1.733l-.049-.11-.112.042a5.663,5.663,0,0,1-1.843.442,3,3,0,0,1-1.825-.566,4.264,4.264,0,0,1-1.855-2.9l-.043-.284-.182.224a1.937,1.937,0,0,1-1.688.645,1.847,1.847,0,0,1-.845-.291,4.334,4.334,0,0,1-.643-.633,6.03,6.03,0,0,1-1.028-1.395,1.975,1.975,0,0,1-.159-1.5l.046-.144-.151.013a3.84,3.84,0,0,1-2.359-.59,4.259,4.259,0,0,1-1.343-1.319,4.659,4.659,0,0,1-.6-1.519" transform="translate(18.809 0.55)" fill="#455a64"/>
        <path id="Trazado_810022" data-name="Trazado 810022" d="M251.264,36.54c.029-.225,1.506.055,2.795-1.013s1.427-2.678,1.636-2.65c.1,0,.219.407.111,1.078a3.768,3.768,0,0,1-1.281,2.229,3.258,3.258,0,0,1-2.326.754c-.628-.062-.962-.3-.934-.4" transform="translate(18.937 2.643)" fill="#263238"/>
        <path id="Trazado_810023" data-name="Trazado 810023" d="M216.478,116.3l6.178-8.741,9.523-28.914c1.95-5.028,3.621-11.414,5.986-16.174a11.178,11.178,0,0,1,5.473-5.213l4.042-1.8,2.418-3.877c-1.394,8.769,10.84,9.849,23.841-1.038,0,0,4.3,2.919,10.348,7.963,2.65,2.208,5.054,4.621,6.055,8.267,1.818,6.617-6,26.2-14.508,44.627-2.546,5.511-11.463,26.151-11.463,26.151l-2.972.552s-35.7-7.427-41.249-12.176a11.352,11.352,0,0,1-3.672-9.623" transform="translate(16.31 4.062)" fill="#e0e0e0"/>
        <path id="Trazado_810024" data-name="Trazado 810024" d="M217.5,111.493a2.382,2.382,0,0,1,.323-.378l.981-1.036,3.672-3.776-.032.053,2.513-7.77c.981-2.935,1.975-6.195,2.98-9.64,1.945-6.757,3.786-12.867,5.485-17.161.825-2.155,1.6-3.855,2.142-5.024.274-.549.495-.99.663-1.329a2.609,2.609,0,0,1,.255-.452,2.675,2.675,0,0,1-.185.485c-.152.347-.351.8-.6,1.358-.5,1.185-1.233,2.9-2.024,5.058-1.63,4.306-3.424,10.412-5.37,17.173-1,3.444-2.014,6.717-3.013,9.642l-2.6,7.743-.01.031-.023.022c-1.567,1.538-2.841,2.79-3.757,3.691l-1.031.985a2.377,2.377,0,0,1-.376.324" transform="translate(16.392 5.223)" fill="#263238"/>
        <path id="Trazado_810025" data-name="Trazado 810025" d="M252.355,63.549,239.01,118.516l-13.861,6.926V112l23.987-49.641Z" transform="translate(16.968 5.012)" fill="#1969d5"/>
        <g id="Grupo_1067740" data-name="Grupo 1067740" transform="translate(243.799 118.58)" opacity="0.3">
          <g id="Grupo_1067739" data-name="Grupo 1067739">
            <g id="Grupo_1067738" data-name="Grupo 1067738" clip-path="url(#clip-path-19)">
              <path id="Trazado_810026" data-name="Trazado 810026" d="M226.713,109.757a50.993,50.993,0,0,1,10.533,5.979,64.6,64.6,0,0,0,10.391,6.248,19.842,19.842,0,0,0,11.822,1.661c3.96-.82,7.659-3.537,8.962-7.381Z" transform="translate(-226.713 -109.757)"/>
            </g>
          </g>
        </g>
        <path id="Trazado_810027" data-name="Trazado 810027" d="M245.489,55.662l3.411-5.247,1.339,7.19,3.4-3.865,16.866-7.927,2.928,6.3L254.8,63.185l-5.169-.388L245.86,58.3Z" transform="translate(18.501 3.683)" fill="#e0e0e0"/>
        <path id="Trazado_810028" data-name="Trazado 810028" d="M245.491,54.985a4.809,4.809,0,0,1,.255,1.084c.17.821.361,1.747.572,2.771l-.337-.051c.289-.532.6-1.1.918-1.689l1.421-2.527.183-.324.12.346c.3.856.458,1.58.593,2.081a3.169,3.169,0,0,1,.171.8,2.138,2.138,0,0,1-.358-.743c-.189-.486-.4-1.206-.718-2.019l.3.021-1.376,2.552-.937,1.678-.242.433-.1-.484a15.954,15.954,0,0,1-.471-3.93" transform="translate(18.499 4.361)" fill="#263238"/>
        <path id="Trazado_810029" data-name="Trazado 810029" d="M251.1,57.4l-2.147-.263c-.582.656-2,2.01-2.585,2.665l0,.061q.381,2.159.762,4.316a13.955,13.955,0,0,1,3.583.29l1.973-3.479Z" transform="translate(18.568 4.593)" fill="#1969d5"/>
        <path id="Trazado_810030" data-name="Trazado 810030" d="M250.924,57.881l2.384-1.18.808,4.193-1.985.177Z" transform="translate(18.911 4.558)" fill="#1969d5"/>
        <g id="Grupo_1067743" data-name="Grupo 1067743" transform="translate(271.893 57.406)" opacity="0.3">
          <g id="Grupo_1067742" data-name="Grupo 1067742">
            <g id="Grupo_1067741" data-name="Grupo 1067741" clip-path="url(#clip-path-20)">
              <path id="Trazado_810031" data-name="Trazado 810031" d="M252.838,55.3v9.494l17.569-11.66L254.057,62.7Z" transform="translate(-252.838 -53.135)"/>
            </g>
          </g>
        </g>
        <path id="Trazado_810032" data-name="Trazado 810032" d="M273.052,51.644a8.125,8.125,0,0,1-1.022.775c-.679.469-1.672,1.131-2.934,1.893-2.51,1.55-6.112,3.449-10,5.689-1.641.956-3.188,1.918-4.582,2.866l-.231.157-.051-.273c-.532-2.9-.995-5.414-1.343-7.308l.2.062-1.854,1.737a4.818,4.818,0,0,1-.691.588,4.818,4.818,0,0,1,.6-.678q.682-.7,1.779-1.815l.153-.158.045.219c.38,1.887.885,4.4,1.468,7.284l-.281-.116c1.395-.967,2.948-1.94,4.594-2.9,3.9-2.249,7.513-4.105,10.05-5.59,1.276-.73,2.288-1.355,2.991-1.784a8.237,8.237,0,0,1,1.1-.648" transform="translate(18.883 4.151)" fill="#263238"/>
        <path id="Trazado_810033" data-name="Trazado 810033" d="M248.978,58.063l-.985-2.423-1.626,3,.7,1.088Z" transform="translate(18.568 4.472)" fill="#1969d5"/>
        <path id="Trazado_810034" data-name="Trazado 810034" d="M251.623,57.558c.083.078-1.094,1.443-2.357,3.262s-2.149,3.391-2.249,3.338A12.886,12.886,0,0,1,248.95,60.6a12.824,12.824,0,0,1,2.673-3.039" transform="translate(18.616 4.626)" fill="#263238"/>
        <path id="Trazado_810035" data-name="Trazado 810035" d="M250.443,64.044a13.438,13.438,0,0,1-3.6-.608,6.445,6.445,0,0,1,3.6.608" transform="translate(18.604 5.093)" fill="#263238"/>
        <path id="Trazado_810036" data-name="Trazado 810036" d="M171.337,108.864h0L160.219,77.292a1.216,1.216,0,0,1,.9-1.55L186.8,69a1.277,1.277,0,0,1,1.49.852l11.686,35.565,36.242,23.916-1.742,1.786-9.271-2.27Z" transform="translate(12.071 5.544)" fill="#455a64"/>
        <path id="Trazado_810037" data-name="Trazado 810037" d="M232.659,131.082a.882.882,0,0,1-.187-.1l-.529-.335-2.011-1.322-7.357-4.921-24.188-16.357-1.92-1.3-.054-.037-.02-.063c-3.414-10.347-6.472-19.615-8.687-26.329-1.08-3.331-1.954-6.025-2.567-7.917l-.679-2.151c-.068-.229-.123-.414-.167-.561a.883.883,0,0,1-.045-.2.816.816,0,0,1,.082.183c.053.145.119.325.2.55.179.512.428,1.224.744,2.128l2.681,7.879c2.244,6.7,5.341,15.959,8.8,26.291l-.074-.1,1.92,1.3,24.125,16.451,7.288,5.023,1.971,1.383c.208.15.375.271.507.367a.913.913,0,0,1,.166.136" transform="translate(13.886 5.585)" fill="#263238"/>
        <path id="Trazado_810038" data-name="Trazado 810038" d="M174.676,105.355c-.005-.107,5.045-.433,11.279-.729s11.294-.449,11.3-.342-5.047.433-11.282.729-11.293.449-11.3.342" transform="translate(13.165 8.38)" fill="#263238"/>
        <path id="Trazado_810039" data-name="Trazado 810039" d="M178.691,88.755c.447,1.432.2,2.786-.561,3.025s-1.736-.727-2.183-2.16-.2-2.786.562-3.025,1.735.728,2.182,2.16" transform="translate(13.244 6.958)" fill="#e0e0e0"/>
        <path id="Trazado_810040" data-name="Trazado 810040" d="M204.3,89.171s-.959.48-1.109-1.058c-.132-1.363,3.125-3.383,4.344-4.14s3.79-.237,5.1-.065c1.771.231,5.9,2.087,7.211,3.669,1.333,1.608,2.248,5.716,2.733,6.105s16.9,6.876,16.9,6.876l-3.736,13.061s-15.064-6.68-17.733-9.367-2.08-3.373-2.545-5.408-.971-4.2-.971-4.2l-1.418-.589-2.667.763a5.9,5.9,0,0,1-1.014,1.813,2.084,2.084,0,0,1-3.134-.038,1.616,1.616,0,0,1-2.014-1.062,3.241,3.241,0,0,1-.075-1.587s-1.213.24-1.223-1.278a7.24,7.24,0,0,1,1.354-3.5" transform="translate(15.295 6.718)" fill="#ae7461"/>
        <path id="Trazado_810041" data-name="Trazado 810041" d="M212.614,90.361c0,.064-.551.043-1.395.23a6.484,6.484,0,0,0-4.8,4.252c-.289.818-.339,1.368-.4,1.361a2.958,2.958,0,0,1,.142-1.443,6.1,6.1,0,0,1,5.014-4.44,2.916,2.916,0,0,1,1.443.04" transform="translate(15.524 7.256)" fill="#6f4439"/>
        <path id="Trazado_810042" data-name="Trazado 810042" d="M211.544,87.773c-.006.069-.6-.03-1.5.18a6.714,6.714,0,0,0-3.092,1.777,15.334,15.334,0,0,0-2.2,2.925,6.794,6.794,0,0,1-.855,1.285,5.64,5.64,0,0,1,.618-1.421,12.168,12.168,0,0,1,2.164-3.066,6.273,6.273,0,0,1,3.309-1.769,2.684,2.684,0,0,1,1.553.089" transform="translate(15.367 7.044)" fill="#6f4439"/>
        <path id="Trazado_810043" data-name="Trazado 810043" d="M211.3,84.937c-.008.065-.516-.005-1.305.142a7.021,7.021,0,0,0-2.828,1.274,16.713,16.713,0,0,0-2.311,2.17c-.555.605-.909.976-.952.94a4.392,4.392,0,0,1,.744-1.117,12.032,12.032,0,0,1,2.291-2.306,6.272,6.272,0,0,1,3.017-1.233,2.391,2.391,0,0,1,1.344.13" transform="translate(15.367 6.815)" fill="#6f4439"/>
        <path id="Trazado_810044" data-name="Trazado 810044" d="M279.949,57.472c4.613.906,7.617,4.978,8.556,10.071,1.331,7.223-15.151,41.362-18.223,48.816a15.1,15.1,0,0,1-14.563,9.471c-4.168-.1-33.378-13.861-33.378-13.861l4.282-14.892,25.955,7.741,10.286-29.073" transform="translate(16.757 4.62)" fill="#e0e0e0"/>
        <path id="Trazado_810045" data-name="Trazado 810045" d="M262.88,75.745s-.048.178-.162.519-.29.856-.513,1.511c-.463,1.338-1.14,3.287-2.011,5.8l-7.467,21.3-.044.126-.128-.038-25.965-7.707.219-.12c-1.366,4.761-2.795,9.743-4.272,14.9l-.1-.223c6.818,3.181,14.115,6.518,21.721,9.734,3.088,1.287,6.15,2.569,9.243,3.559l1.164.336c.387.1.771.134,1.156.207a16.064,16.064,0,0,0,6.907-1.423,14.226,14.226,0,0,0,6.629-6.143c.726-1.313,1.258-2.736,1.874-4.1s1.212-2.709,1.808-4.038c4.8-10.618,9.046-20.216,12.1-28.481a63.065,63.065,0,0,0,3.328-11.375,9.248,9.248,0,0,0,.063-2.492,17.424,17.424,0,0,0-.569-2.26,14.1,14.1,0,0,0-1.774-3.654,10.1,10.1,0,0,0-4.253-3.578,8.911,8.911,0,0,0-1.382-.483c-.319-.084-.482-.138-.482-.138s.168.027.491.1a8.031,8.031,0,0,1,1.4.451,10.039,10.039,0,0,1,4.346,3.563,14.163,14.163,0,0,1,1.826,3.682,17.539,17.539,0,0,1,.591,2.283,9.382,9.382,0,0,1-.047,2.557,62.523,62.523,0,0,1-3.286,11.44c-3.021,8.291-7.249,17.907-12.027,28.534q-.89,1.995-1.8,4.038c-.612,1.355-1.137,2.773-1.885,4.13a14.587,14.587,0,0,1-6.793,6.308,16.387,16.387,0,0,1-7.074,1.461c-.411-.072-.839-.113-1.237-.218l-1.185-.34c-3.125-1-6.182-2.281-9.279-3.571-7.615-3.22-14.911-6.561-21.731-9.75l-.144-.068.044-.155c1.485-5.15,2.921-10.129,4.293-14.889l.049-.172.17.051,25.944,7.777-.172.088c3.2-8.966,5.791-16.225,7.586-21.254.9-2.5,1.6-4.438,2.081-5.77q.36-.974.551-1.5c.127-.337.2-.506.2-.506" transform="translate(16.741 4.62)" fill="#263238"/>
        <path id="Trazado_810046" data-name="Trazado 810046" d="M254.6,112.22c-.119.022-.517-2.594-1.674-5.614-1.137-3.028-2.572-5.245-2.468-5.31a6.232,6.232,0,0,1,1.007,1.409,23.69,23.69,0,0,1,2.954,7.791,6.269,6.269,0,0,1,.182,1.724" transform="translate(18.876 8.142)" fill="#263238"/>
        <path id="Trazado_810047" data-name="Trazado 810047" d="M275.128,57.531c.023.068-.955.385-2.423,1.13a21.116,21.116,0,0,0-2.474,1.482,20.965,20.965,0,0,0-5.021,4.93,21.432,21.432,0,0,0-1.533,2.451c-.774,1.456-1.112,2.431-1.179,2.407a2.646,2.646,0,0,1,.185-.7,14.015,14.015,0,0,1,.752-1.83,18.6,18.6,0,0,1,1.486-2.534,19.457,19.457,0,0,1,5.11-5.017,18.376,18.376,0,0,1,2.556-1.434,13.462,13.462,0,0,1,1.838-.713,2.646,2.646,0,0,1,.7-.171" transform="translate(19.783 4.624)" fill="#263238"/>
        <path id="Trazado_810048" data-name="Trazado 810048" d="M140.318,191.436l-18.294-13.077s39.937-58.13,44-62.627c3.073-3.405,9.788-8.682,17.666-8.312s22.444,5.333,27.707,6.789,51.213,14.581,57.121,19.318c0,0-4.118,17.877-8.949,22.059-3.783,3.276-17.206,3.845-25.818,1.463s-50.513-21.722-50.513-21.722Z" transform="translate(9.196 8.633)" fill="#263238"/>
        <path id="Trazado_810049" data-name="Trazado 810049" d="M148.946,208.675,170.9,216.61l18.789-67.462,40.01,6.075-35.147-33.155s-19.14,5.724-22.256,6.247c-4,.671-9.325,8.835-11.058,17.436-1.507,7.475-12.293,62.924-12.293,62.924" transform="translate(11.225 9.812)" fill="#263238"/>
        <path id="Trazado_810050" data-name="Trazado 810050" d="M215.351,153.4c-.054.093-10.375-5.816-23.052-13.194s-22.914-13.438-22.86-13.531,10.373,5.815,23.054,13.2S215.4,153.308,215.351,153.4" transform="translate(12.77 10.183)" fill="#455a64"/>
        <g id="Grupo_1067746" data-name="Grupo 1067746" transform="translate(161.554 146.292)" opacity="0.3">
          <g id="Grupo_1067745" data-name="Grupo 1067745">
            <g id="Grupo_1067744" data-name="Grupo 1067744" clip-path="url(#clip-path-21)">
              <path id="Trazado_810051" data-name="Trazado 810051" d="M150.232,173.443s7.336-33.959,14.171-38.036c0,0-6.564,17.619-7.221,28.949Z" transform="translate(-150.232 -135.408)"/>
            </g>
          </g>
        </g>
        <path id="Trazado_810052" data-name="Trazado 810052" d="M174.894,129.026a12.837,12.837,0,0,0-2.172.194,10.935,10.935,0,0,0-5.177,2.755,18.637,18.637,0,0,0-4.609,7.442,93.924,93.924,0,0,0-3.056,10.453c-1.708,7.55-2.7,14.506-3.656,19.5-.455,2.5-.879,4.512-1.181,5.9l-.376,1.592a3.222,3.222,0,0,1-.157.55,3.177,3.177,0,0,1,.081-.566c.077-.4.179-.938.305-1.607.257-1.4.64-3.414,1.06-5.918.883-5,1.836-11.96,3.549-19.537a89.974,89.974,0,0,1,3.1-10.492,18.649,18.649,0,0,1,4.76-7.518,10.825,10.825,0,0,1,5.331-2.7,6.217,6.217,0,0,1,2.2-.045" transform="translate(11.644 10.366)" fill="#455a64"/>
        <path id="Trazado_810053" data-name="Trazado 810053" d="M156.466,189.988l-4.741,21.341s-23.005,3.728-24.029,7.657l41.433,8.225,6.75-33.424Z" transform="translate(9.624 15.272)" fill="#263238"/>
        <path id="Trazado_810054" data-name="Trazado 810054" d="M162.446,210.439c1.852.914.557,3.835-1.347,2.976-2.063-1.018-.4-4.088,1.492-2.893" transform="translate(12.07 16.901)" fill="#e0e0e0"/>
        <path id="Trazado_810055" data-name="Trazado 810055" d="M169.129,225.186l.55-3.4-39.932-6.616s-2,.441-2.051,1.787Z" transform="translate(9.624 17.296)" fill="#455a64"/>
        <path id="Trazado_810056" data-name="Trazado 810056" d="M149.455,209.433c-.033.2.96.5,1.827,1.348.889.829,1.229,1.812,1.431,1.768.836-.905-2.406-4-3.258-3.116" transform="translate(11.264 16.822)" fill="#fff"/>
        <path id="Trazado_810057" data-name="Trazado 810057" d="M145.084,210.3c-.085.188.724.708,1.242,1.7.546.981.537,1.945.741,1.975,1.091-.569-.916-4.287-1.983-3.679" transform="translate(10.934 16.899)" fill="#fff"/>
        <path id="Trazado_810058" data-name="Trazado 810058" d="M141.9,214.962c1.011-.152.041-4.127-.923-3.791.081.107.943,3.662.923,3.791" transform="translate(10.625 16.973)" fill="#fff"/>
        <path id="Trazado_810059" data-name="Trazado 810059" d="M150.692,204.977c.126-.042,4.165,1.011,4.249,1.1.32-.992-4.055-2.124-4.249-1.1" transform="translate(11.357 16.444)" fill="#fff"/>
        <path id="Trazado_810060" data-name="Trazado 810060" d="M135.84,163.09,122.17,180.1S99.9,173.2,97.253,176.26l33.5,25.833,19.9-27.639Z" transform="translate(7.33 13.11)" fill="#263238"/>
        <path id="Trazado_810061" data-name="Trazado 810061" d="M131.3,184.929c1.256,1.644-1.2,3.685-2.522,2.067-1.4-1.83,1.444-3.842,2.614-1.928" transform="translate(9.677 14.814)" fill="#e0e0e0"/>
        <path id="Trazado_810062" data-name="Trazado 810062" d="M130.757,201.172l1.992-2.8L99.88,174.652s-1.991-.5-2.627.688Z" transform="translate(7.33 14.031)" fill="#455a64"/>
        <path id="Trazado_810063" data-name="Trazado 810063" d="M120.041,178.294c-.12.169.641.875,1.042,2.022.431,1.14.3,2.172.5,2.222,1.148-.44-.389-4.656-1.544-4.245" transform="translate(9.046 14.33)" fill="#fff"/>
        <path id="Trazado_810064" data-name="Trazado 810064" d="M115.737,177.136c-.159.131.336.956.36,2.08.058,1.123-.376,1.982-.208,2.1,1.23-.025,1.072-4.25-.153-4.181" transform="translate(8.72 14.239)" fill="#fff"/>
        <path id="Trazado_810065" data-name="Trazado 810065" d="M110.877,179.906c.973.314,1.858-3.681.846-3.808.025.131-.771,3.7-.846,3.808" transform="translate(8.356 14.155)" fill="#fff"/>
        <g id="Grupo_1067749" data-name="Grupo 1067749" transform="translate(183.522 138.127)" opacity="0.3">
          <g id="Grupo_1067748" data-name="Grupo 1067748">
            <g id="Grupo_1067747" data-name="Grupo 1067747" clip-path="url(#clip-path-22)">
              <path id="Trazado_810066" data-name="Trazado 810066" d="M211.789,151.288s-24.271-9.545-30.694-14.063a59.583,59.583,0,0,1-10.434-9.373Z" transform="translate(-170.66 -127.85)"/>
            </g>
          </g>
        </g>
      </g>
    </g>
    <path id="Trazado_810129" data-name="Trazado 810129" d="M0,0H269.255V33.1H0Z" transform="translate(109.407 433.627)" fill="#288640"/>
    <g id="Grupo_1067762" data-name="Grupo 1067762">
      <g id="Grupo_1067761" data-name="Grupo 1067761" clip-path="url(#clip-path)">
        <path id="Trazado_810067" data-name="Trazado 810067" d="M350.067,449.207l36.457-31.887a2.271,2.271,0,0,0-.108-3.5l-37.607-29a2.253,2.253,0,0,0-3.625,1.839l1.15,60.887a2.252,2.252,0,0,0,3.733,1.665" transform="translate(26.015 30.895)" fill="#288640"/>
        <path id="Trazado_810068" data-name="Trazado 810068" d="M189.151,261.162l-5.069-1.523c-6.13-2.149-11.207-.494-14.524,3.669s-4.606,9.69-4.418,15.018c.12,3.439.783,7.052-.6,10.2a18.322,18.322,0,0,1-3.37,4.612,13.546,13.546,0,0,0-3.1,4.775,5.061,5.061,0,0,0,1.166,5.3,11.7,11.7,0,0,1,1.886,1.493,5.723,5.723,0,0,1,.682,3.234,11.712,11.712,0,0,0,22.483,3.939c1.481-3.483,1.21-7.425,1.061-11.209a147.086,147.086,0,0,1,3.8-39.505" transform="translate(11.893 20.795)" fill="#263238"/>
        <path id="Trazado_810069" data-name="Trazado 810069" d="M198.918,255.273c-4.383-1.3-8.523-.045-12.6,2.034a23.366,23.366,0,0,0-12.028,23.646,17.957,17.957,0,0,0,7.433,11.97c5.466,3.67,13.033,3.531,18.712.2A22.732,22.732,0,0,0,210.9,277.093a21.911,21.911,0,0,0-1.877-13.293,16.56,16.56,0,0,0-10.109-8.526" transform="translate(13.116 20.477)" fill="#263238"/>
        <path id="Trazado_810070" data-name="Trazado 810070" d="M183.7,268.986c.859-1.641.834-3.591,1.311-5.382,1.05-3.946,4.652-6.776,8.561-7.893,3.637-1.038,7.829-.212,11.839,1.645a16.064,16.064,0,0,1,6.876,5.78,12.747,12.747,0,0,1,.956,11.6l-20.082-5.452a22.913,22.913,0,0,1-6.682,3.349,4.239,4.239,0,0,1-2.174.085,1.924,1.924,0,0,1-1.432-1.509,4.094,4.094,0,0,1,.829-2.222" transform="translate(13.782 20.518)" fill="#263238"/>
        <path id="Trazado_810071" data-name="Trazado 810071" d="M205.456,262.5l-18.3,1.65a3.36,3.36,0,0,0-3.5,2.9l-4.414,38.825a12.183,12.183,0,0,0,1.643,7.619l1.439,2.41a8.848,8.848,0,0,0,14.836.67,4.3,4.3,0,0,0,.531-.967,7.886,7.886,0,0,0,.273-.856l.79-3.741c.586-3.433,1.029-6.94,1.026-6.908,0,0,7.414-.049,10.412-9.276,1.492-4.589,2.481-12.347,3.086-18.72.545-5.737-2.095-13.3-7.823-13.609" transform="translate(13.503 21.1)" fill="#ffc09d"/>
        <path id="Trazado_810072" data-name="Trazado 810072" d="M207.844,282.3a1.224,1.224,0,0,1-1.359,1.038,1.175,1.175,0,0,1-1.073-1.294,1.225,1.225,0,0,1,1.359-1.038,1.174,1.174,0,0,1,1.073,1.294" transform="translate(15.48 22.588)" fill="#263238"/>
        <path id="Trazado_810073" data-name="Trazado 810073" d="M209.079,278.688c-.175.134-.983-.693-2.284-.9-1.3-.224-2.357.3-2.473.113-.058-.082.141-.344.6-.581a3.35,3.35,0,0,1,2.011-.286,3.223,3.223,0,0,1,1.786.912c.351.373.441.681.356.74" transform="translate(15.398 22.265)" fill="#263238"/>
        <path id="Trazado_810074" data-name="Trazado 810074" d="M197.06,281a1.224,1.224,0,0,1-1.359,1.038,1.174,1.174,0,0,1-1.072-1.294,1.226,1.226,0,0,1,1.358-1.039,1.175,1.175,0,0,1,1.073,1.3" transform="translate(14.668 22.483)" fill="#263238"/>
        <path id="Trazado_810075" data-name="Trazado 810075" d="M197.577,277.009c-.175.135-.984-.691-2.284-.9-1.3-.224-2.357.3-2.473.113-.058-.082.139-.344.6-.58a3.341,3.341,0,0,1,2.011-.287,3.224,3.224,0,0,1,1.786.913c.349.372.441.68.356.738" transform="translate(14.531 22.13)" fill="#263238"/>
        <path id="Trazado_810076" data-name="Trazado 810076" d="M199.781,287.378a8.619,8.619,0,0,1,2.172-.044c.338.018.664,0,.755-.216a1.724,1.724,0,0,0-.065-1.024q-.276-1.287-.58-2.7a44.47,44.47,0,0,1-1.151-7,44.467,44.467,0,0,1,1.709,6.889q.281,1.416.536,2.706a1.961,1.961,0,0,1-.035,1.337.841.841,0,0,1-.624.4,2.223,2.223,0,0,1-.576-.012,8.546,8.546,0,0,1-2.141-.339" transform="translate(15.057 22.218)" fill="#263238"/>
        <path id="Trazado_810077" data-name="Trazado 810077" d="M199.182,301.407A24.208,24.208,0,0,1,187.1,296s2.134,7.061,11.705,7.686Z" transform="translate(14.101 23.794)" fill="#ff9b6c"/>
        <path id="Trazado_810078" data-name="Trazado 810078" d="M199.087,289.484a2.372,2.372,0,0,0-1.963-1.211,2.164,2.164,0,0,0-1.6.56,1.383,1.383,0,0,0-.349,1.541,1.587,1.587,0,0,0,1.636.707,4.973,4.973,0,0,0,1.821-.73,1.447,1.447,0,0,0,.432-.327.441.441,0,0,0,.075-.486" transform="translate(14.701 23.172)" fill="#ff9b6c"/>
        <path id="Trazado_810079" data-name="Trazado 810079" d="M196.114,286.83c.213.022-.009,1.44,1.04,2.64s2.576,1.285,2.555,1.484c.005.092-.379.221-1.016.137a3.55,3.55,0,0,1-2.146-1.159,3.123,3.123,0,0,1-.781-2.2c.04-.6.253-.928.348-.9" transform="translate(14.753 23.056)" fill="#263238"/>
        <path id="Trazado_810080" data-name="Trazado 810080" d="M198.645,272.721c-.185.335-1.457-.041-3.011-.1-1.555-.091-2.856.161-3.008-.19-.067-.166.2-.467.754-.73a5.212,5.212,0,0,1,4.585.221c.524.317.761.641.68.8" transform="translate(14.517 21.806)" fill="#263238"/>
        <path id="Trazado_810081" data-name="Trazado 810081" d="M210.1,273.4c-.275.259-1.123-.191-2.2-.378-1.068-.226-2.021-.12-2.182-.463-.068-.165.123-.44.566-.657a3.216,3.216,0,0,1,3.529.678c.332.365.409.691.285.82" transform="translate(15.503 21.835)" fill="#263238"/>
        <path id="Trazado_810082" data-name="Trazado 810082" d="M181.079,265.829c2.5-5.237,11.467-11.7,17.121-10.5l8.355,6.78a8.9,8.9,0,0,1-6.915,5.924c-1.681.267-3.642.13-4.8,1.387-1.178,1.286-.895,3.437-2.01,4.775-1.547,1.856-4.986,1.274-6.24,3.342-.548.9-.492,2.08-1.056,2.973-.752,1.19-4.178,2.35-5.442,1.742s-.953-2.873-1.221-4.121a6.365,6.365,0,0,1,.4-4.238c.951-2.6.614-5.567,1.808-8.066" transform="translate(13.467 20.512)" fill="#263238"/>
        <path id="Trazado_810083" data-name="Trazado 810083" d="M183.987,281.99c.11-.706.252-1.711-.383-2.032-1.9-.956-5.894-1.656-6.675,3.061-1.066,6.449,5.6,6.194,5.639,6.011.033-.144,1.038-4.6,1.418-7.04" transform="translate(13.326 22.448)" fill="#ffc09d"/>
        <path id="Trazado_810084" data-name="Trazado 810084" d="M180.895,286.135c-.025-.025-.125.059-.328.116a1.13,1.13,0,0,1-.839-.122,2.825,2.825,0,0,1-.868-2.707,3.771,3.771,0,0,1,.58-1.557,1.308,1.308,0,0,1,.983-.722.58.58,0,0,1,.61.418c.056.2-.006.317.026.334.015.018.156-.085.148-.36a.736.736,0,0,0-.186-.446.854.854,0,0,0-.591-.268,1.593,1.593,0,0,0-1.333.8,3.89,3.89,0,0,0-.685,1.733,2.962,2.962,0,0,0,1.171,3.056,1.209,1.209,0,0,0,1.051,0c.225-.125.283-.265.262-.28" transform="translate(13.443 22.573)" fill="#ff9b6c"/>
        <path id="Trazado_810085" data-name="Trazado 810085" d="M203.075,259.572c.28,2.712,3.869,6.577,5.377,8.843,2.877,4.324,3.381,5.706,2.3,14.467,1.94-2.837,3.5-5.658,3.79-9.088a14.3,14.3,0,0,0-2.628-9.746,11.029,11.029,0,0,0-8.841-4.476" transform="translate(15.305 20.865)" fill="#263238"/>
        <path id="Trazado_810086" data-name="Trazado 810086" d="M178.844,264.162c3.671-5.312,8.319-8.141,12.517-9" transform="translate(13.479 20.511)" fill="#263238"/>
        <path id="Trazado_810087" data-name="Trazado 810087" d="M177.768,289.08a1.539,1.539,0,0,1-.271-.3,9.677,9.677,0,0,1-.681-.944,14.266,14.266,0,0,1-1.7-3.93,26.167,26.167,0,0,1-.8-6.3,18.969,18.969,0,0,1,1.359-7.648,26.951,26.951,0,0,1,3.742-6.815,24.662,24.662,0,0,1,4.441-4.526,18.182,18.182,0,0,1,3.668-2.187c.462-.2.826-.342,1.079-.423a1.569,1.569,0,0,1,.389-.111c.013.032-.505.233-1.4.674a20.073,20.073,0,0,0-3.562,2.269,25.427,25.427,0,0,0-4.325,4.527,27.388,27.388,0,0,0-3.661,6.732,18.938,18.938,0,0,0-1.366,7.5,27.072,27.072,0,0,0,.709,6.238,15.287,15.287,0,0,0,1.559,3.922c.5.866.854,1.3.82,1.327" transform="translate(13.136 20.569)" fill="#455a64"/>
        <path id="Trazado_810088" data-name="Trazado 810088" d="M208.6,363.68s36.909-4.2,42.94-5.23c11.538-1.964,23.081-.088,27.981,9.874,2.229,4.534-.6,13.283-7.361,19.782-5.047,4.848-30.1,30.307-30.1,30.307L220.59,400.4l26.579-20.762-51.52,7.269Z" transform="translate(14.745 28.757)" fill="#263238"/>
        <path id="Trazado_810089" data-name="Trazado 810089" d="M245.778,403.377l-13.815,14.651s10.44,19.25,8.154,22.212l-29.746-26.329,20.576-23.731Z" transform="translate(15.855 31.364)" fill="#263238"/>
        <path id="Trazado_810090" data-name="Trazado 810090" d="M223.083,407.248a1.509,1.509,0,1,0-1.4,2.671,1.671,1.671,0,0,0,2.157-.674,1.632,1.632,0,0,0-.9-2.057" transform="translate(16.647 32.724)" fill="#e0e0e0"/>
        <path id="Trazado_810091" data-name="Trazado 810091" d="M210.372,412.324l2.078-2.4,27.914,26.3a3.3,3.3,0,0,1-.227,2.441Z" transform="translate(15.855 32.951)" fill="#e0e0e0"/>
        <path id="Trazado_810092" data-name="Trazado 810092" d="M231.311,416.312c-.13.139-.914-.439-2.034-.61-1.116-.2-2.029.1-2.113-.081-.11-.146.859-.812,2.211-.58s2.083,1.168,1.936,1.272" transform="translate(17.12 33.358)" fill="#fff"/>
        <path id="Trazado_810093" data-name="Trazado 810093" d="M233.155,420c-.088.169-.932-.145-1.957.025-1.031.14-1.731.686-1.87.552-.156-.1.48-1.029,1.759-1.214s2.185.5,2.068.637" transform="translate(17.282 33.707)" fill="#fff"/>
        <path id="Trazado_810094" data-name="Trazado 810094" d="M231.529,424.944c-.159-.086.268-.982,1.329-1.438s2.015-.167,1.972.008c-.021.19-.831.222-1.7.609-.874.366-1.446.935-1.6.821" transform="translate(17.447 34.023)" fill="#fff"/>
        <path id="Trazado_810095" data-name="Trazado 810095" d="M233.826,412.989c-.175.077-.669-.711-1.539-1.383-.856-.69-1.735-.983-1.7-1.174.006-.177,1.1-.157,2.11.649s1.3,1.858,1.131,1.908" transform="translate(17.378 32.984)" fill="#fff"/>
        <path id="Trazado_810096" data-name="Trazado 810096" d="M255.1,400.26a1.841,1.841,0,0,1-.267.322l-.817.876c-.755.787-1.8,1.87-3.079,3.2l-10.486,10.716-.126.129-.138-.116-2.678-2.244-13.256-11.2-3.987-3.427-1.071-.947a2.437,2.437,0,0,1-.357-.351,2.417,2.417,0,0,1,.408.29l1.118.89,4.068,3.332,13.33,11.106,2.674,2.246-.262.013,10.578-10.623,3.164-3.12.865-.829a1.872,1.872,0,0,1,.318-.27" transform="translate(16.493 31.93)" fill="#455a64"/>
        <path id="Trazado_810097" data-name="Trazado 810097" d="M282.477,398.939,300.6,415.006l17.984,8.556a2.5,2.5,0,0,1,1.1,3.465,2.462,2.462,0,0,1-1.891,1.258c-5.082.545-23.789,2.454-25.05,1.2-1.46-1.448-20.241-15.673-20.241-15.673Z" transform="translate(20.538 32.068)" fill="#263238"/>
        <path id="Trazado_810098" data-name="Trazado 810098" d="M318.356,424.937l-28.187,1.406,1.247,1.056a2.488,2.488,0,0,0,1.954.493c2.368-.012,8.907-.188,23.049-1.639a2.473,2.473,0,0,0,1.937-1.315" transform="translate(21.869 34.158)" fill="#e0e0e0"/>
        <g id="Grupo_1067754" data-name="Grupo 1067754" transform="translate(310.983 453.524)" opacity="0.6">
          <g id="Grupo_1067753" data-name="Grupo 1067753">
            <g id="Grupo_1067752" data-name="Grupo 1067752" clip-path="url(#clip-path-24)">
              <path id="Trazado_810099" data-name="Trazado 810099" d="M290.232,419.826a1.5,1.5,0,0,1,1.761.952,1.45,1.45,0,0,1-.924,1.762,1.582,1.582,0,0,1-1.86-1.018,1.5,1.5,0,0,1,1.164-1.726" transform="translate(-289.188 -419.781)" fill="#fff"/>
            </g>
          </g>
        </g>
        <path id="Trazado_810100" data-name="Trazado 810100" d="M305.609,422.935a5.39,5.39,0,0,1,1.313-5.328c-.031-.054-.372.059-.8.442a3.984,3.984,0,0,0-1.016,4.122c.2.538.447.8.5.765" transform="translate(22.979 33.567)" fill="#fff"/>
        <path id="Trazado_810101" data-name="Trazado 810101" d="M308.909,423.576a20.44,20.44,0,0,1,.585-2.317c.505-1.2,1.378-1.884,1.288-2.012-.049-.133-1.191.429-1.775,1.8a2.772,2.772,0,0,0-.1,2.53" transform="translate(23.264 33.699)" fill="#fff"/>
        <path id="Trazado_810102" data-name="Trazado 810102" d="M300.706,422.849a12.818,12.818,0,0,1,2.332-6.935,6.824,6.824,0,0,0-2.332,6.935" transform="translate(22.645 33.432)" fill="#fff"/>
        <path id="Trazado_810103" data-name="Trazado 810103" d="M295.189,418.614c.153.044.586-1.343,1.658-2.718,1.053-1.392,2.278-2.164,2.2-2.3a6.168,6.168,0,0,0-3.855,5.02" transform="translate(22.244 33.245)" fill="#fff"/>
        <path id="Trazado_810104" data-name="Trazado 810104" d="M291.431,415.962a7.9,7.9,0,0,1,4.332-4.818c-.013-.063-.415-.056-1.021.163a5.419,5.419,0,0,0-3.253,3.618c-.156.628-.121,1.031-.058,1.037" transform="translate(21.96 33.046)" fill="#fff"/>
        <path id="Trazado_810105" data-name="Trazado 810105" d="M152.933,379.74c.368.928-1.265,30.738,26.887,30.919,25.275.162,59.268-23.108,63.144-21.615,2.534.976,46.163,39.053,46.163,39.053l15.741-18.57s-40.367-38.706-44.334-41.492c-8.5-5.969-14.477-5.924-28.461-3.382-12.51,2.275-43.162,12.5-43.162,12.5l-2.949-2.514Z" transform="translate(11.526 29.181)" fill="#263238"/>
        <path id="Trazado_810106" data-name="Trazado 810106" d="M218.085,367.669s.158-.072.474-.2.785-.309,1.409-.53c1.244-.453,3.092-1.09,5.517-1.775a68.037,68.037,0,0,1,8.979-1.9,36.552,36.552,0,0,1,5.731-.4,29.5,29.5,0,0,1,6.4.817,30.862,30.862,0,0,1,13.055,6.778c3.9,3.646,7.954,7.63,12.288,11.782L300.094,409.4l.134.129-.12.142-2.172,2.56c-2.334,2.759-4.753,5.562-7.149,8.143-2.354,2.586-4.563,5.183-6.763,7.752l.067.133-24.723-21.478-10.589-9.211-4.761-4.144-2.235-1.947c-.366-.315-.722-.641-1.087-.915a6.173,6.173,0,0,0-1.185-.678,6.051,6.051,0,0,0-4.979.084l-4.17,2.054-6.645,3.272-4.176,2.041-1.084.52c-.244.116-.373.166-.373.166s.118-.072.358-.2.605-.313,1.069-.551l4.146-2.1,6.618-3.327,4.162-2.082a6.284,6.284,0,0,1,5.173-.111,6.557,6.557,0,0,1,1.239.7c.388.291.74.61,1.107.925q1.1.948,2.243,1.937l4.776,4.127c3.307,2.861,6.857,5.932,10.615,9.182l24.754,21.44.067.133c2.185-2.6,4.441-5.273,6.62-8.034,2.137-2.767,4.318-5.391,6.641-8.124l2.138-2.525.014.271L271.684,382.5c-4.322-4.155-8.385-8.161-12.253-11.8a30.613,30.613,0,0,0-12.907-6.755,29.4,29.4,0,0,0-6.336-.837,36.5,36.5,0,0,0-5.7.369,69.336,69.336,0,0,0-8.969,1.832c-2.426.661-4.28,1.275-5.531,1.7l-1.422.494c-.319.111-.487.159-.487.159" transform="translate(16.436 29.168)" fill="#455a64"/>
        <path id="Trazado_810107" data-name="Trazado 810107" d="M204.364,306.079s9.341,3.724,10.447,11.654c.923,6.612-1.127,24.221-1.1,25.414a4.172,4.172,0,0,0,.986,2.847,6.642,6.642,0,0,1,1.765,4.531,7.241,7.241,0,0,1-.572,3.3c-1.071,1.806-11.4,13.832-11.4,13.832l-9.186-19.175s6.023-17.971,6.067-18.435,2.986-23.965,2.986-23.965" transform="translate(14.72 24.603)" fill="#59bee2"/>
        <path id="Trazado_810108" data-name="Trazado 810108" d="M214.128,349.547c.4.054,13.864,9.671,13.864,9.671s3.292-6.383,4.765-6.572,6.01,1.563,6.412,2.041a3.393,3.393,0,0,0,2.178.648c.888.084,2.468,2.322,2.468,2.322l3.031,2.267s-.952,1.775-1.2,2.081-2.3-.55-2.268-.876.258,2-1.316,2.07a8.764,8.764,0,0,1-3.6-1l-.53-2.686-3.9-2.552-.468,2.573s3.953.817,3.829,2.123a2,2,0,0,1-1.28,1.689l-3.27-.073L225.652,365s-18.861-4.19-19.553-6.342,2.5-9.862,8.03-9.114" transform="translate(15.526 28.093)" fill="#ffc09d"/>
        <path id="Trazado_810109" data-name="Trazado 810109" d="M214.376,345.393a13.172,13.172,0,0,1,3.727,5.2c.832,1.92,9.826,8.529,9.826,8.529l-7.287,5.931s-15.21.631-15.926-1.637,1.666-12.408,1.666-12.408Z" transform="translate(15.418 27.764)" fill="#59bee2"/>
        <path id="Trazado_810110" data-name="Trazado 810110" d="M204.876,370.089h0a1.291,1.291,0,0,0,1.524.929l26.457-5.812,22.729-4.158.191-2.027-21.725,3.132-28.211,6.33a1.3,1.3,0,0,0-.966,1.607" transform="translate(15.437 28.859)" fill="#e0e0e0"/>
        <path id="Trazado_810111" data-name="Trazado 810111" d="M244.166,333.349,231.94,364.8a1.732,1.732,0,0,0,1.89,2.346l26.995-5a1.731,1.731,0,0,0,1.327-1.088l12.268-31.206a.928.928,0,0,0-.937-1.259l-27.848,3.664a1.726,1.726,0,0,0-1.469,1.093" transform="translate(17.471 26.413)" fill="#e0e0e0"/>
        <path id="Trazado_810112" data-name="Trazado 810112" d="M246.814,331.983c.1.039-2.828,7.871-6.543,17.489s-6.809,17.388-6.91,17.348,2.827-7.869,6.544-17.491,6.808-17.385,6.909-17.346" transform="translate(17.587 26.686)" fill="#263238"/>
        <path id="Trazado_810113" data-name="Trazado 810113" d="M252.2,345.9c-.761,1.517-.713,3.083.107,3.5s2.1-.476,2.865-1.993.714-3.083-.108-3.5-2.1.476-2.865,1.993" transform="translate(18.966 27.636)" fill="#fff"/>
        <path id="Trazado_810114" data-name="Trazado 810114" d="M209.482,369.778s-2.2-9.319-1.761-11.029c1.269-4.914,7.811-17.324,7.268-24.754s-7.177-27.588-7.177-27.588L201.49,304.2c-2.556,5.6-12.475,4.345-20.573-2.212l-10.153,2.06-15.9,49.674-2.669,18.1c-6.439,8.442.982,12.889.982,12.889s12.242,3.875,21.929,2.14c7.235-1.3,17.793-6.427,20.159-8.291,5.663-4.461,14.645-4.153,14.645-4.153Z" transform="translate(11.272 24.275)" fill="#59bee2"/>
        <path id="Trazado_810115" data-name="Trazado 810115" d="M189.054,365.239l6.621,2.714s3.681-2.2,4.222-2.4a78.374,78.374,0,0,1,9.312-1.153,18.44,18.44,0,0,0,3.069-.2l-8.755,5.413-5.544,7.419a16.644,16.644,0,0,1-4.719.825c-2.432.023-8.178-1.395-8.178-1.395Z" transform="translate(13.949 29.275)" fill="#ffc09d"/>
        <path id="Trazado_810116" data-name="Trazado 810116" d="M172.227,303.756s-11.625.693-15.713,10.014c-2.728,6.221-8.35,33.6-9.18,38.61s.016,11.107,3.993,14.264,37.108,17.333,37.108,17.333l6.9-13.363-27.93-17.43-.912-.011,3.344-20.111" transform="translate(11.082 24.417)" fill="#59bee2"/>
        <path id="Trazado_810117" data-name="Trazado 810117" d="M169.849,333.061s-.009.119-.041.348-.087.581-.153,1.021c-.144.913-.354,2.239-.625,3.953-.562,3.463-1.379,8.49-2.4,14.81l-.119-.144.911.009h.035l.029.018,27.959,17.383.141.088-.076.149c-2.194,4.255-4.5,8.732-6.891,13.368l-.082.158-.162-.069c-6.721-2.885-13.885-6.02-21.223-9.358q-4.354-1.979-8.557-4c-1.395-.684-2.779-1.366-4.134-2.081a18.1,18.1,0,0,1-3.866-2.47,10.891,10.891,0,0,1-2.513-3.761,15.723,15.723,0,0,1-1.08-4.3,20.975,20.975,0,0,1-.025-4.338c.137-1.43.431-2.806.682-4.169,1.059-5.444,2.163-10.6,3.238-15.408s2.141-9.282,3.233-13.333c.542-2.026,1.107-3.943,1.716-5.736a16.509,16.509,0,0,1,2.535-4.7,16.955,16.955,0,0,1,3.412-3.15,19.714,19.714,0,0,1,3.426-1.859,23.357,23.357,0,0,1,5.16-1.517c.608-.1,1.073-.158,1.387-.187s.476-.024.476-.024-.159.025-.471.065-.775.112-1.379.224a24.28,24.28,0,0,0-5.112,1.581,19.663,19.663,0,0,0-3.38,1.873,16.849,16.849,0,0,0-3.348,3.132,16.327,16.327,0,0,0-2.47,4.649c-.6,1.785-1.152,3.7-1.684,5.726-1.072,4.048-2.117,8.52-3.183,13.331s-2.152,9.965-3.2,15.406c-.248,1.362-.539,2.737-.67,4.136a20.739,20.739,0,0,0,.03,4.259,12.722,12.722,0,0,0,3.485,7.824,17.864,17.864,0,0,0,3.781,2.406c1.35.711,2.731,1.389,4.124,2.071q4.194,2.016,8.549,4c7.334,3.337,14.495,6.476,21.209,9.367l-.244.087,6.912-13.358.065.237-27.9-17.476.065.019-.911-.014-.144,0,.025-.142c1.073-6.312,1.928-11.332,2.516-14.79.3-1.71.529-3.033.688-3.942.08-.438.142-.775.186-1.016s.074-.342.074-.342" transform="translate(11.069 24.417)" fill="#263238"/>
        <path id="Trazado_810118" data-name="Trazado 810118" d="M209.887,316.863c.042.01-.155.7-.294,1.978a17.584,17.584,0,0,0-.071,2.336c.035.912.144,1.946.3,3.088a65.242,65.242,0,0,1,.823,8.081,25.2,25.2,0,0,1-1.553,9.814c-1.279,3.307-2.949,6.237-3.987,9.082a19.063,19.063,0,0,0-.827,7.935c.143,2.3.36,4.155.49,5.439.062.61.112,1.1.151,1.479a2.522,2.522,0,0,1,.026.52,2.685,2.685,0,0,1-.1-.509c-.057-.376-.132-.864-.224-1.47-.177-1.279-.437-3.131-.616-5.439a18.986,18.986,0,0,1,.762-8.076c1.039-2.9,2.7-5.835,3.961-9.1a25.226,25.226,0,0,0,1.559-9.667,69.991,69.991,0,0,0-.737-8.052,30.728,30.728,0,0,1-.242-3.118,16.235,16.235,0,0,1,.138-2.36,11.871,11.871,0,0,1,.291-1.464,2.643,2.643,0,0,1,.155-.5" transform="translate(15.366 25.47)" fill="#263238"/>
        <path id="Trazado_810119" data-name="Trazado 810119" d="M171.678,323.151c-.076-.023.286-1.054.48-2.782a16.455,16.455,0,0,0,.046-3.042,18.261,18.261,0,0,0-.715-3.65,17.516,17.516,0,0,0-3.224-5.9c-1.118-1.329-1.971-2-1.92-2.065a2.806,2.806,0,0,1,.622.443,12.31,12.31,0,0,1,1.508,1.438,16.294,16.294,0,0,1,3.391,5.97,17.265,17.265,0,0,1,.7,3.741,14.963,14.963,0,0,1-.132,3.1,9.846,9.846,0,0,1-.227,1.171,5.973,5.973,0,0,1-.244.864,2.822,2.822,0,0,1-.285.711" transform="translate(12.537 24.574)" fill="#263238"/>
        <path id="Trazado_810120" data-name="Trazado 810120" d="M186.286,348.927a16.7,16.7,0,0,0,3.147-1.229,14.286,14.286,0,0,0,1.43-.925,16.378,16.378,0,0,0,1.469-1.3,17.354,17.354,0,0,0,2.758-3.539,24,24,0,0,0,2.943-7.618c.4-2.069.427-3.385.508-3.381a4.028,4.028,0,0,1,.016.924,18.957,18.957,0,0,1-.251,2.508,22.311,22.311,0,0,1-2.88,7.773,16.841,16.841,0,0,1-2.842,3.594,15.869,15.869,0,0,1-1.527,1.3,13.393,13.393,0,0,1-1.493.908,8.019,8.019,0,0,1-1.324.567,5.771,5.771,0,0,1-1.042.3,4.041,4.041,0,0,1-.913.12" transform="translate(14.04 26.602)" fill="#263238"/>
        <path id="Trazado_810121" data-name="Trazado 810121" d="M158.294,353.153a11.13,11.13,0,0,1,8.317-3.692,28.015,28.015,0,0,0-4.392,1.318,27.847,27.847,0,0,0-3.925,2.374" transform="translate(11.93 28.087)" fill="#263238"/>
        <path id="Trazado_810122" data-name="Trazado 810122" d="M213.39,366.521a1.2,1.2,0,0,1-.9.981,1.352,1.352,0,0,1-.3.03c-.717-.01-1.064-1.365-1.064-1.365l-3.283.449s-4.689,5.972-6.345,7.669c-6.515,6.675-8.207,1.857-8.207,1.857L195.3,368.3l4.163-7s-.259.42-.16-.681,2.021-1.287,2.021-1.287c.134-.57,1.262-1.107,1.262-1.107l5.227-.969a3.606,3.606,0,0,1,3.016.819L214,360.817s1.872,2.1,1.865,2.723a1.059,1.059,0,0,1-.973,1.029s.241,1.683-.161,1.869a3.613,3.613,0,0,1-1.342.083" transform="translate(14.567 28.713)" fill="#ffc09d"/>
        <path id="Trazado_810123" data-name="Trazado 810123" d="M200.625,364.535c.022.052.674-.217,1.767-.5a15.936,15.936,0,0,1,4.356-.493,15.293,15.293,0,0,1,2.4.258,3.45,3.45,0,0,1,1.77.632.648.648,0,0,1,.129.621.9.9,0,0,1-.283.441c-.232.192-.427.17-.423.2-.011.011.2.091.5-.1a1,1,0,0,0,.384-.488.854.854,0,0,0-.123-.831,1.694,1.694,0,0,0-.846-.52c-.33-.1-.674-.192-1.048-.267a13.583,13.583,0,0,0-2.454-.292,13.725,13.725,0,0,0-4.431.6,6.086,6.086,0,0,0-1.7.732" transform="translate(15.12 29.195)" fill="#ff9b6c"/>
        <path id="Trazado_810124" data-name="Trazado 810124" d="M201.213,367.7c.036.094,2.064-.624,4.633-1.252s4.7-.943,4.685-1.044a5.244,5.244,0,0,0-1.412.084,29.8,29.8,0,0,0-3.353.631,30.286,30.286,0,0,0-3.263,1,5.293,5.293,0,0,0-1.29.582" transform="translate(15.165 29.371)" fill="#ff9b6c"/>
        <path id="Trazado_810125" data-name="Trazado 810125" d="M212.716,366.15a2.369,2.369,0,0,0-.1-.56,12.673,12.673,0,0,0-.449-1.487,6.632,6.632,0,0,0-.455-.985,3.273,3.273,0,0,0-.833-.953,7.2,7.2,0,0,0-2.485-1.365,9.891,9.891,0,0,0-2.788-.483,9.067,9.067,0,0,0-2.283.337c-.631.171-1.129.338-1.473.458a1.884,1.884,0,0,0-.523.221,16.91,16.91,0,0,0,2.052-.447,9.878,9.878,0,0,1,2.225-.258,10.27,10.27,0,0,1,2.689.495,7.218,7.218,0,0,1,2.394,1.286,4.031,4.031,0,0,1,1.26,1.784c.495,1.191.7,1.979.771,1.957" transform="translate(15.173 28.963)" fill="#ff9b6c"/>
        <path id="Trazado_810126" data-name="Trazado 810126" d="M202.527,359.346c.014.049.776-.164,2.025-.4,1.216-.179,3.1-.665,4.651.618a17.975,17.975,0,0,1,3.762,3.195,10.674,10.674,0,0,1,1.056,1.752,1.436,1.436,0,0,0-.134-.548,5.309,5.309,0,0,0-.732-1.349,15.716,15.716,0,0,0-3.761-3.33,5.781,5.781,0,0,0-1.286-.695,3.707,3.707,0,0,0-1.358-.2,11.29,11.29,0,0,0-2.244.318,7.989,7.989,0,0,0-1.978.63" transform="translate(15.264 28.809)" fill="#ff9b6c"/>
        <path id="Trazado_810127" data-name="Trazado 810127" d="M204.281,371.287a1.906,1.906,0,0,0,.23-.322c.162-.242.374-.554.637-.943a37.14,37.14,0,0,1,2.62-3.317l-.068.036,3.286-.427-.147-.1a3.62,3.62,0,0,0,.292.75,1.493,1.493,0,0,0,.585.646.813.813,0,0,0,.473.064,1.159,1.159,0,0,0,.447-.109,1.348,1.348,0,0,0,.646-.672,1.392,1.392,0,0,0,.078-.228l.014-.058.005-.03,0-.015v0l-.163.124h.012l.111.011c.148.012.3.018.447.018a3.529,3.529,0,0,0,.461-.024,1.647,1.647,0,0,0,.24-.046.546.546,0,0,0,.272-.145.979.979,0,0,0,.181-.51,3.8,3.8,0,0,0,.024-.48,8.124,8.124,0,0,0-.071-.951l-.144.183a1.242,1.242,0,0,0,1.044-.757,1.02,1.02,0,0,0,.021-.7,2.962,2.962,0,0,0-.3-.574,17.717,17.717,0,0,0-1.551-1.994l-.006-.006-.01-.009-1.69-1.461-1.072-.926a6.438,6.438,0,0,0-1.13-.869,3.519,3.519,0,0,0-1.365-.407,4.52,4.52,0,0,0-1.369.128l-4.924.927-.02,0-.016.009a4.586,4.586,0,0,0-.768.478,1.5,1.5,0,0,0-.57.732l.159-.109a1.82,1.82,0,0,0-1.595.59,2.155,2.155,0,0,0-.411,1.532l.018-.079-2.874,4.806q-.479.822-.767,1.318a2.884,2.884,0,0,0-.247.472,3.008,3.008,0,0,0,.309-.434q.31-.485.824-1.284c.723-1.154,1.731-2.768,2.969-4.746l.019-.032,0-.045a1.906,1.906,0,0,1,.368-1.333,1.555,1.555,0,0,1,1.35-.481l.125.013.033-.121a1.258,1.258,0,0,1,.471-.566,4.44,4.44,0,0,1,.717-.439l-.037.012,4.928-.9a4.226,4.226,0,0,1,1.282-.119,3.166,3.166,0,0,1,1.233.372,6.161,6.161,0,0,1,1.071.829l1.071.926,1.692,1.46-.015-.014a17.475,17.475,0,0,1,1.522,1.946,2.72,2.72,0,0,1,.266.5.7.7,0,0,1-.018.476.923.923,0,0,1-.767.551l-.166.023.021.161a7.659,7.659,0,0,1,.071.908,1.6,1.6,0,0,1-.119.779.3.3,0,0,1-.124.054,1.518,1.518,0,0,1-.2.039,3.372,3.372,0,0,1-.422.024c-.141,0-.284,0-.424-.015l-.105-.009h-.009l-.165.124v0l0,.011,0,.024-.011.046a1.087,1.087,0,0,1-.559.709.86.86,0,0,1-.35.086.537.537,0,0,1-.323-.032,2.06,2.06,0,0,1-.742-1.207l-.035-.116-.112.016-3.281.471-.042.007-.026.029a31.794,31.794,0,0,0-2.554,3.4c-.268.419-.465.75-.59.978a1.971,1.971,0,0,0-.176.354" transform="translate(14.72 28.699)" fill="#ff9b6c"/>
        <g id="Grupo_1067757" data-name="Grupo 1067757" transform="translate(202.064 361.095)" opacity="0.3">
          <g id="Grupo_1067756" data-name="Grupo 1067756">
            <g id="Grupo_1067755" data-name="Grupo 1067755" clip-path="url(#clip-path-25)">
              <path id="Trazado_810128" data-name="Trazado 810128" d="M198.148,334.229a24.018,24.018,0,0,1-3.156,7.931c-1.8,2.782-4.068,4.246-6.878,5.991l-.211.083a10.692,10.692,0,0,0,10.245-14" transform="translate(-187.903 -334.229)"/>
            </g>
          </g>
        </g>
        <g id="Grupo_1067760" data-name="Grupo 1067760" transform="translate(364.518 435.19)" opacity="0.3">
          <g id="Grupo_1067759" data-name="Grupo 1067759">
            <g id="Grupo_1067758" data-name="Grupo 1067758" clip-path="url(#clip-path-26)">
              <rect id="Rectángulo_375662" data-name="Rectángulo 375662" width="6.681" height="29.265" transform="translate(0 0)"/>
            </g>
          </g>
        </g>
      </g>
    </g>
  </g>
</svg>
