<svg xmlns="http://www.w3.org/2000/svg" xmlns:xlink="http://www.w3.org/1999/xlink" width="505" height="284.6" viewBox="0 0 505 284.6">
  <defs>
    <clipPath id="clip-path">
      <rect id="Rectángulo_375354" data-name="Rectángulo 375354" width="346.202" height="247.145" fill="none"/>
    </clipPath>
    <clipPath id="clip-path-7">
      <rect id="Rectángulo_375339" data-name="Rectángulo 375339" width="60.299" height="4.747" fill="none"/>
    </clipPath>
    <clipPath id="clip-path-9">
      <rect id="Rectángulo_375342" data-name="Rectángulo 375342" width="1.648" height="1.701" fill="none"/>
    </clipPath>
    <clipPath id="clip-path-10">
      <rect id="Rectángulo_375343" data-name="Rectángulo 375343" width="61.48" height="5.734" fill="none"/>
    </clipPath>
    <clipPath id="clip-path-13">
      <rect id="Rectángulo_375350" data-name="Rectángulo 375350" width="23.852" height="7.863" fill="none"/>
    </clipPath>
    <clipPath id="clip-path-14">
      <rect id="Rectángulo_375351" data-name="Rectángulo 375351" width="24.535" height="2.178" fill="none"/>
    </clipPath>
    <clipPath id="clip-path-15">
      <rect id="Rectángulo_375352" data-name="Rectángulo 375352" width="41.749" height="20.782" fill="none"/>
    </clipPath>
  </defs>
  <g id="Grupo_1070084" data-name="Grupo 1070084" transform="translate(-180 -1288.84)">
    <path id="Unión_30" data-name="Unión 30" d="M41,284.6a41,41,0,0,1-41-41V75.885a41,41,0,0,1,41-41H464a41.465,41.465,0,0,1,4.6.255L505,0V243.6a41,41,0,0,1-41,41Z" transform="translate(684.999 1573.439) rotate(180)" fill="#f3f9ff"/>
    <g id="Grupo_1067307" data-name="Grupo 1067307" transform="translate(265 1293.455)">
      <g id="Grupo_1067304" data-name="Grupo 1067304" clip-path="url(#clip-path)">
        <g id="Grupo_1067271" data-name="Grupo 1067271">
          <g id="Grupo_1067270" data-name="Grupo 1067270" clip-path="url(#clip-path)">
            <path id="Trazado_807848" data-name="Trazado 807848" d="M126.827,241.89c-5.18,2.683-9.152,7.3-12.008,12.39s-4.7,10.669-6.52,16.21l-1.6,28.58c6.027-10.254,10.865-22.308,12.172-34.13l-4.011-.357a9.6,9.6,0,0,0,6.383-4.669,28.442,28.442,0,0,0,2.9-7.6l-4.894.727a18.135,18.135,0,0,0,7.577-11.152" transform="translate(-47.239 -107.089)" fill="#e0e0e0"/>
            <path id="Trazado_807849" data-name="Trazado 807849" d="M94.807,303.886s-13.083-15.659-12.932-30.607h5.286s-5.741-3.775-5.286-5.889.6-10.117.6-10.117l4.832,1.208s-3.623-1.812-4.077-4.681,1.057-16.157,1.057-16.157,5.889,6.191,7.7,12.533,6.568,13.74,5.172,33.068-2.356,20.642-2.356,20.642" transform="translate(-36.236 -105.209)" fill="#ebebeb"/>
            <path id="Trazado_807850" data-name="Trazado 807850" d="M117,318.909s14.174-9.442,17.323-21.493l-4.249-1.156s5.441-1.779,5.538-3.578,1.727-8.266,1.727-8.266l-4.149-.086s3.31-.664,4.3-2.871,2.685-13.22,2.685-13.22-6.089,3.689-8.933,8.391-8.287,9.61-11.392,25.454S117,318.909,117,318.909" transform="translate(-51.795 -118.753)" fill="#ebebeb"/>
            <path id="Trazado_807851" data-name="Trazado 807851" d="M92.644,262.143a.722.722,0,0,1,.05.162c.03.124.068.283.116.482l.419,1.857c.183.806.4,1.8.625,2.947s.507,2.461.773,3.915c.562,2.9,1.155,6.374,1.765,10.235.591,3.865,1.181,8.123,1.7,12.6s.911,8.766,1.217,12.664c.287,3.9.5,7.415.617,10.369.072,1.477.106,2.814.141,3.988s.057,2.185.064,3.012c.006.811.012,1.448.016,1.9,0,.2,0,.367,0,.495a.759.759,0,0,1-.011.169.75.75,0,0,1-.019-.168c-.006-.128-.014-.29-.026-.495-.017-.455-.04-1.092-.07-1.9-.023-.826-.059-1.836-.113-3.009s-.1-2.508-.184-3.983c-.141-2.952-.377-6.463-.679-10.358-.32-3.894-.726-8.171-1.238-12.651s-1.1-8.733-1.68-12.6c-.6-3.861-1.166-7.334-1.7-10.239-.253-1.456-.512-2.767-.73-3.92s-.411-2.146-.576-2.956l-.366-1.869-.088-.488a.745.745,0,0,1-.02-.168" transform="translate(-41.014 -116.055)" fill="#e0e0e0"/>
            <path id="Trazado_807852" data-name="Trazado 807852" d="M80.53,344.691s-11.972-13.584-15.69-21.8l2.806-1.2a7.273,7.273,0,0,1-5.7-1.866,21.556,21.556,0,0,1-3.871-4.794l3.7-.625a13.745,13.745,0,0,1-8.077-6.257,22.988,22.988,0,0,1,11.561,6.108,57.576,57.576,0,0,1,7.006,8.118,27.64,27.64,0,0,1,2.721,4.473C77,331.013,80.537,339.7,80.53,344.691" transform="translate(-23.774 -136.425)" fill="#ebebeb"/>
            <path id="Trazado_807853" data-name="Trazado 807853" d="M131.99,282.425a.56.56,0,0,1-.053.139l-.182.4-.725,1.509c-.639,1.305-1.546,3.2-2.645,5.558-2.2,4.708-5.1,11.279-7.96,18.674s-5.134,14.212-6.674,19.175c-.772,2.482-1.378,4.5-1.782,5.892l-.479,1.6-.132.415a.075.075,0,1,1-.029-.008c.028-.112.062-.251.1-.423.1-.392.245-.933.426-1.619.372-1.406.947-3.43,1.695-5.921,1.491-4.982,3.739-11.813,6.6-19.22s5.8-13.968,8.045-18.657c1.123-2.346,2.059-4.231,2.73-5.521l.774-1.485.208-.383a.591.591,0,0,1,.08-.126" transform="translate(-49.275 -125.034)" fill="#e0e0e0"/>
            <path id="Trazado_807854" data-name="Trazado 807854" d="M96.7,365.714a6.409,6.409,0,0,1-.183-.97c-.094-.626-.252-1.53-.473-2.64a53.518,53.518,0,0,0-6.218-16.469c-.567-.979-1.045-1.762-1.389-2.294a6.392,6.392,0,0,1-.5-.849,6.454,6.454,0,0,1,.6.786c.373.514.88,1.282,1.472,2.253a48.19,48.19,0,0,1,6.243,16.535c.2,1.12.324,2.031.383,2.663a6.325,6.325,0,0,1,.071.985" transform="translate(-38.93 -151.627)" fill="#e0e0e0"/>
            <rect id="Rectángulo_375317" data-name="Rectángulo 375317" width="26.203" height="5.345" transform="translate(47.367 210.892)" fill="#ebebeb"/>
            <path id="Trazado_807855" data-name="Trazado 807855" d="M89.477,388.02,92.311,406h15.834l2.642-17.979Z" transform="translate(-39.613 -171.783)" fill="#ebebeb"/>
            <path id="Trazado_807856" data-name="Trazado 807856" d="M111.542,387.9c0,.08-4.957.145-11.07.145S89.4,387.985,89.4,387.9s4.955-.145,11.071-.145,11.07.065,11.07.145" transform="translate(-39.579 -171.668)" fill="#e0e0e0"/>
            <path id="Trazado_807857" data-name="Trazado 807857" d="M161.018,399.194A4.073,4.073,0,0,1,159.9,394.2a4.454,4.454,0,0,1,2.36-1.663,9.591,9.591,0,0,0,2.588-1.34c1.4-1.194,1.79-3.177,2.722-4.77a5.962,5.962,0,0,1,5.173-3.1c2.415.11,4.428,2.082,5.341,4.331a19.351,19.351,0,0,1,.964,7.173c.01,1.343-.049,2.857-1.035,3.763a4.849,4.849,0,0,1-3.508.809l-13.2-.406" transform="translate(-70.582 -169.702)" fill="#f5f5f5"/>
            <path id="Trazado_807858" data-name="Trazado 807858" d="M180,346.7H145.3l6.251,37.273a4.163,4.163,0,0,0,2.963,3.319c.04.012.081.022.121.033.1.027.2.062.309.08a4.319,4.319,0,0,0,.706.081c0,.012,0,.024.006.036l.169-.027H171.29a4.357,4.357,0,0,0,.85-.085,4.178,4.178,0,0,0,3.511-3.643l3.013-25.682.136-1.021h-.016l1.193-10.171Zm-6.546,23.775h-3.561l.359-10.817h4.126Zm1.27-10.817h3.409l-1.27,10.817H173.8Zm-10.174,22.809-.217-9.4h5.129l-.313,9.4Zm-5.544-9.4h4.983l.216,9.4h-4.469Zm.385,9.4h-4.178c-.4-2.537-.913-5.835-1.473-9.4h4.92ZM158.8,370.47l-.84-10.817h5.716l.249,10.817Zm5.47,0-.249-10.817h5.883l-.359,10.817Zm-.309-13.412-.231-10.018h6.592l-.333,10.018Zm-.345,0h-5.858l-.779-10.018h6.406Zm-6.2,0h-6.2c-.22-1.384-.428-2.693-.616-3.871-.646-4.05-.889-5.573-1.024-6.147h7.06Zm.2,2.594.841,10.817h-5.126c-.172-1.1-.347-2.208-.522-3.319-.4-2.553-.8-5.106-1.182-7.5Zm-4.634,10.817h-3.349l-1.815-10.817h3.459c.528,3.343,1.115,7.064,1.7,10.817m.407,2.594c.51,3.252,1.013,6.458,1.473,9.4h-3.218l-1.576-9.4Zm16.1,9.4.312-9.4h3.426l-.8,9.4Zm.844-25.4.333-10.018h4.784l-.856,10.018ZM149.249,347.04c.138.724.771,4.667,1.619,10.018h-3.483L145.7,347.04Zm26.207,35.421h-2.682l.8-9.4h2.981Zm2.98-25.4h-3.492l.856-10.018h3.811Z" transform="translate(-64.326 -153.488)" fill="#e0e0e0"/>
          </g>
        </g>
        <g id="Grupo_1067273" data-name="Grupo 1067273">
          <g id="Grupo_1067272" data-name="Grupo 1067272" clip-path="url(#clip-path)">
            <path id="Trazado_807859" data-name="Trazado 807859" d="M339.319,419.686c0,.08-75.914.145-169.536.145-93.655,0-169.553-.065-169.553-.145s75.9-.145,169.553-.145c93.622,0,169.536.065,169.536.145" transform="translate(-0.102 -185.738)" fill="#263238"/>
          </g>
        </g>
        <rect id="Rectángulo_375320" data-name="Rectángulo 375320" width="145.306" height="124.09" transform="translate(49.725 1.319)" fill="#fff"/>
        <g id="Grupo_1067275" data-name="Grupo 1067275">
          <g id="Grupo_1067274" data-name="Grupo 1067274" clip-path="url(#clip-path)">
            <path id="Trazado_807860" data-name="Trazado 807860" d="M234.418,2.265,89.112,2.393l.129-.129c.005,36.645.011,79.073.017,124.077v.013l-.145-.145,145.306.023-.122.122c.074-74.733.121-123.065.122-124.09,0,1.024.048,49.356.122,124.09v.122h-.122L89.112,126.5h-.145v-.158c.006-45,.012-87.432.016-124.077V2.136h.129l145.306.129" transform="translate(-39.387 -0.946)" fill="#263238"/>
            <path id="Trazado_807861" data-name="Trazado 807861" d="M237.734,97.149H127.3V44.971H237.734ZM127.548,96.9H237.483V45.221H127.548Z" transform="translate(-56.357 -19.909)" fill="#ebebeb"/>
            <rect id="Rectángulo_375321" data-name="Rectángulo 375321" width="110.185" height="0.25" transform="translate(71.066 68.335)" fill="#ebebeb"/>
            <rect id="Rectángulo_375322" data-name="Rectángulo 375322" width="110.185" height="0.25" transform="translate(71.066 59.681)" fill="#ebebeb"/>
            <rect id="Rectángulo_375323" data-name="Rectángulo 375323" width="110.185" height="0.25" transform="translate(71.066 51.026)" fill="#ebebeb"/>
            <rect id="Rectángulo_375324" data-name="Rectángulo 375324" width="110.185" height="0.25" transform="translate(71.066 42.371)" fill="#ebebeb"/>
            <rect id="Rectángulo_375325" data-name="Rectángulo 375325" width="110.185" height="0.25" transform="translate(71.066 33.717)" fill="#ebebeb"/>
            <rect id="Rectángulo_375326" data-name="Rectángulo 375326" width="3.631" height="35.098" transform="translate(81.509 42.291)" fill="#74c67b"/>
            <rect id="Rectángulo_375327" data-name="Rectángulo 375327" width="4.486" height="43.586" transform="translate(87.253 33.803)" fill="#455a64"/>
            <rect id="Rectángulo_375328" data-name="Rectángulo 375328" width="3.631" height="9.959" transform="translate(106.915 67.429)" fill="#74c67b"/>
            <rect id="Rectángulo_375329" data-name="Rectángulo 375329" width="3.631" height="30.468" transform="translate(112.66 46.92)" fill="#455a64"/>
            <rect id="Rectángulo_375330" data-name="Rectángulo 375330" width="3.631" height="50.096" transform="translate(130.612 27.292)" fill="#74c67b"/>
            <rect id="Rectángulo_375331" data-name="Rectángulo 375331" width="3.631" height="11.944" transform="translate(137.211 65.445)" fill="#455a64"/>
            <rect id="Rectángulo_375332" data-name="Rectángulo 375332" width="3.631" height="45.023" transform="translate(154.309 32.365)" fill="#74c67b"/>
            <rect id="Rectángulo_375333" data-name="Rectángulo 375333" width="3.631" height="25.882" transform="translate(160.053 51.506)" fill="#455a64"/>
            <path id="Trazado_807862" data-name="Trazado 807862" d="M113.207,51.092a2.677,2.677,0,1,1-2.677-2.677,2.677,2.677,0,0,1,2.677,2.677" transform="translate(-47.748 -21.434)" fill="#e0e0e0"/>
            <path id="Trazado_807863" data-name="Trazado 807863" d="M113.207,70.376A2.677,2.677,0,1,1,110.53,67.7a2.677,2.677,0,0,1,2.677,2.677" transform="translate(-47.748 -29.971)" fill="#e0e0e0"/>
            <path id="Trazado_807864" data-name="Trazado 807864" d="M113.207,89.659a2.677,2.677,0,1,1-2.677-2.677,2.677,2.677,0,0,1,2.677,2.677" transform="translate(-47.748 -38.508)" fill="#e0e0e0"/>
            <path id="Trazado_807865" data-name="Trazado 807865" d="M113.207,108.942a2.677,2.677,0,1,1-2.677-2.677,2.677,2.677,0,0,1,2.677,2.677" transform="translate(-47.748 -47.045)" fill="#e0e0e0"/>
            <path id="Trazado_807866" data-name="Trazado 807866" d="M113.207,128.225a2.677,2.677,0,1,1-2.677-2.677,2.677,2.677,0,0,1,2.677,2.677" transform="translate(-47.748 -55.582)" fill="#e0e0e0"/>
            <path id="Trazado_807867" data-name="Trazado 807867" d="M153.09,149.9h-8.807a.745.745,0,0,1-.745-.745v-1.677a.745.745,0,0,1,.745-.745h8.807a.745.745,0,0,1,.745.745v1.677a.745.745,0,0,1-.745.745" transform="translate(-63.547 -64.963)" fill="#e0e0e0"/>
            <path id="Trazado_807868" data-name="Trazado 807868" d="M196.49,149.9h-8.807a.745.745,0,0,1-.745-.745v-1.677a.745.745,0,0,1,.745-.745h8.807a.745.745,0,0,1,.745.745v1.677a.745.745,0,0,1-.745.745" transform="translate(-82.761 -64.963)" fill="#e0e0e0"/>
            <path id="Trazado_807869" data-name="Trazado 807869" d="M242.868,149.9h-8.807a.745.745,0,0,1-.745-.745v-1.677a.745.745,0,0,1,.745-.745h8.807a.745.745,0,0,1,.745.745v1.677a.745.745,0,0,1-.745.745" transform="translate(-103.293 -64.963)" fill="#e0e0e0"/>
            <path id="Trazado_807870" data-name="Trazado 807870" d="M287.515,149.9h-8.807a.745.745,0,0,1-.745-.745v-1.677a.745.745,0,0,1,.745-.745h8.807a.745.745,0,0,1,.745.745v1.677a.745.745,0,0,1-.745.745" transform="translate(-123.059 -64.963)" fill="#e0e0e0"/>
            <path id="Trazado_807871" data-name="Trazado 807871" d="M131.549,19.791H107.386a1.24,1.24,0,0,1-1.24-1.24v-.458a1.24,1.24,0,0,1,1.24-1.24h24.163a1.24,1.24,0,0,1,1.24,1.24v.458a1.24,1.24,0,0,1-1.24,1.24" transform="translate(-46.993 -7.461)" fill="#288640"/>
            <path id="Trazado_807872" data-name="Trazado 807872" d="M248.47,20.393c0,.08-17.75.145-39.64.145s-39.644-.065-39.644-.145,17.746-.145,39.644-.145,39.64.065,39.64.145" transform="translate(-74.901 -8.964)" fill="#263238"/>
            <path id="Trazado_807873" data-name="Trazado 807873" d="M211.666,172.991c0,.08-23.623.145-52.757.145s-52.762-.065-52.762-.145,23.618-.145,52.762-.145,52.757.065,52.757.145" transform="translate(-46.993 -76.522)" fill="#263238"/>
            <path id="Trazado_807874" data-name="Trazado 807874" d="M211.666,184.26c0,.08-23.623.145-52.757.145s-52.762-.065-52.762-.145,23.618-.145,52.762-.145,52.757.065,52.757.145" transform="translate(-46.993 -81.511)" fill="#263238"/>
            <path id="Trazado_807875" data-name="Trazado 807875" d="M211.666,196.285c0,.08-23.623.145-52.757.145s-52.762-.065-52.762-.145,23.618-.145,52.762-.145,52.757.065,52.757.145" transform="translate(-46.993 -86.834)" fill="#263238"/>
            <path id="Trazado_807876" data-name="Trazado 807876" d="M233.556,3.422H84.534a1.711,1.711,0,1,1,0-3.422H233.556a1.711,1.711,0,1,1,0,3.422" transform="translate(-36.667)" fill="#263238"/>
          </g>
        </g>
        <g id="Grupo_1067277" data-name="Grupo 1067277">
          <g id="Grupo_1067276" data-name="Grupo 1067276" clip-path="url(#clip-path)">
            <path id="Trazado_807877" data-name="Trazado 807877" d="M453.374,109.149l-1.349-3.993a13.416,13.416,0,1,0-3.143,3.637l0,.006Z" transform="translate(-189.077 -37.617)" fill="#fff"/>
            <path id="Trazado_807878" data-name="Trazado 807878" d="M453.274,109.051s-.09,0-.279-.012l-.852-.054-3.37-.226a.059.059,0,0,1-.055-.062.064.064,0,0,1,.012-.031l0-.006.084.08a13.41,13.41,0,0,1-6.02,2.791,13.184,13.184,0,0,1-4.313.084,13.419,13.419,0,0,1-8.711-4.992,13.463,13.463,0,0,1,.274-17.071,13.342,13.342,0,0,1,5.26-3.815,13.719,13.719,0,0,1,6.134-.951,13.463,13.463,0,0,1,10.532,20.3l.005-.047.977,3,.244.76c.053.169.075.25.075.25s-.037-.093-.1-.267l-.273-.767-1.03-2.941a.058.058,0,0,1,.005-.047A13.331,13.331,0,0,0,446.9,86.723a13.211,13.211,0,0,0-5.483-1.68,13.5,13.5,0,0,0-6.015.941,13.1,13.1,0,0,0-5.154,3.742,13.268,13.268,0,0,0,8.26,21.687,13.052,13.052,0,0,0,4.253-.057,13.406,13.406,0,0,0,5.979-2.707.058.058,0,0,1,.082.008.059.059,0,0,1,0,.072l0,.006-.042-.093,3.324.3.867.08c.2.019.3.033.3.033" transform="translate(-188.978 -37.52)" fill="#263238"/>
            <path id="Trazado_807879" data-name="Trazado 807879" d="M444.289,99.572h2.037a1.731,1.731,0,0,1,1.778-1.741,1.649,1.649,0,0,1,1.6,1.052,1.827,1.827,0,0,1-.145,1.651,2.209,2.209,0,0,1-2.475.845v4.594h2.014v-2.692a3.933,3.933,0,0,0,2.825-3.844,3.661,3.661,0,0,0-3.815-3.671,3.5,3.5,0,0,0-3.815,3.805" transform="translate(-196.694 -42.398)" fill="#1969d5"/>
            <rect id="Rectángulo_375335" data-name="Rectángulo 375335" width="2.045" height="1.909" transform="translate(250.38 64.522)" fill="#1969d5"/>
          </g>
        </g>
        <rect id="Rectángulo_375337" data-name="Rectángulo 375337" width="6.148" height="32.887" transform="translate(278.846 183.326)" fill="#e0e0e0"/>
        <g id="Grupo_1067282" data-name="Grupo 1067282">
          <g id="Grupo_1067281" data-name="Grupo 1067281" clip-path="url(#clip-path)">
            <path id="Trazado_807880" data-name="Trazado 807880" d="M466.413,319.46c.1,0,18.922,5.907,18.922,5.907h6.148l21.578-5.907Z" transform="translate(-206.489 -141.43)" fill="#e0e0e0"/>
            <path id="Trazado_807881" data-name="Trazado 807881" d="M459.2,399.349s2.844-8.686,6.767-10.787c6.3-3.376,20.828-4.992,20.828-4.992l1.593,4.111s-19.373.762-22.421,4.671a80.983,80.983,0,0,0-4.864,7Z" transform="translate(-203.294 -169.813)" fill="#e0e0e0"/>
            <path id="Trazado_807882" data-name="Trazado 807882" d="M464.492,409.485a4.114,4.114,0,1,1-4.114-4.114,4.114,4.114,0,0,1,4.114,4.114" transform="translate(-201.996 -179.464)" fill="#263238"/>
            <path id="Trazado_807883" data-name="Trazado 807883" d="M530.232,399.046s-2.844-8.686-6.767-10.787c-6.3-3.376-20.828-4.992-20.828-4.992l-1.592,4.111s19.372.762,22.42,4.671a81.071,81.071,0,0,1,4.864,7Z" transform="translate(-221.821 -169.679)" fill="#e0e0e0"/>
            <path id="Trazado_807884" data-name="Trazado 807884" d="M543.438,409.485a4.114,4.114,0,1,0,4.114-4.114,4.114,4.114,0,0,0-4.114,4.114" transform="translate(-240.589 -179.464)" fill="#263238"/>
            <path id="Trazado_807885" data-name="Trazado 807885" d="M502.252,387.528l.9,11.175,2.541.5V387.528" transform="translate(-222.355 -171.565)" fill="#e0e0e0"/>
            <path id="Trazado_807886" data-name="Trazado 807886" d="M498.673,409.485a4.114,4.114,0,1,0,4.114-4.114,4.114,4.114,0,0,0-4.114,4.114" transform="translate(-220.771 -179.464)" fill="#263238"/>
            <path id="Trazado_807887" data-name="Trazado 807887" d="M506.486,330.189a33.126,33.126,0,0,1-5.86,0,33.126,33.126,0,0,1,5.86,0" transform="translate(-221.636 -146.123)" fill="#263238"/>
            <path id="Trazado_807888" data-name="Trazado 807888" d="M506.646,381.846a6.314,6.314,0,0,1-5.922.154,9.414,9.414,0,0,0,5.922-.154" transform="translate(-221.679 -169.047)" fill="#263238"/>
            <path id="Trazado_807889" data-name="Trazado 807889" d="M476.225,161.451H506.3a12.3,12.3,0,0,1,12.3,12.3v63.616a7.161,7.161,0,0,1-7.162,7.161H471.088a7.161,7.161,0,0,1-7.162-7.161V173.749a12.3,12.3,0,0,1,12.3-12.3" transform="translate(-205.388 -71.477)" fill="#455a64"/>
            <path id="Trazado_807890" data-name="Trazado 807890" d="M448.411,316.372h58.466a3.365,3.365,0,0,0,3.365-3.364v-1.146a3.364,3.364,0,0,0-3.365-3.364H448.411a3.364,3.364,0,0,0-3.364,3.364v1.146a3.364,3.364,0,0,0,3.364,3.364" transform="translate(-197.03 -136.577)" fill="#455a64"/>
            <path id="Trazado_807891" data-name="Trazado 807891" d="M472.236,308.528c0-.08,10.69-.145,23.874-.145s23.876.065,23.876.145-10.688.145-23.876.145-23.874-.065-23.874-.145" transform="translate(-209.067 -136.526)" fill="#263238"/>
            <path id="Trazado_807892" data-name="Trazado 807892" d="M418.226,141.443s-3.534-8.812-4.136-10.073c-.675-1.414-4.272-6.983-4.882-6.848s-.814,1.152-.746,1.424,2.915,4.882,2.78,5.492-4.475-6.645-5.153-6.509a1.269,1.269,0,0,0-.678,1.695c.271.543,3.118,5.289,3.118,5.289s-4.271-3.458-4.678-2.915a1.41,1.41,0,0,0,0,2.034c.746.678,4.474,4.272,4.474,4.272s-4.271-2.675-4.542-2.321-.339.626.068,1.371,4.474,3.255,4.542,3.525,1.966,3.526,2.848,4.95a6.082,6.082,0,0,0,2.78,2.1l.2.61s4.678-2.529,4-4.1" transform="translate(-178.597 -55.127)" fill="#ffc09d"/>
            <path id="Trazado_807893" data-name="Trazado 807893" d="M418.107,148.765c-.008.007-.048-.033-.121-.116a1.911,1.911,0,0,1-.264-.4,3.842,3.842,0,0,1-.332-1.729,8.109,8.109,0,0,1,.109-1.212c.033-.216.078-.437.127-.665l.08-.344.043-.174.012-.145c-.02-.4-.437-.761-.843-1.058s-.893-.578-1.363-.9a3.771,3.771,0,0,1-.67-.546,1.641,1.641,0,0,1-.362-.8,1.369,1.369,0,0,1,.093-.847.911.911,0,0,1,.667-.51,1.616,1.616,0,0,1,.76.083,4.791,4.791,0,0,1,.639.249,11.968,11.968,0,0,1,1.072.566c.638.374,1.13.712,1.465.951a2.419,2.419,0,0,1,.5.4,3.139,3.139,0,0,1-.561-.309c-.353-.209-.86-.519-1.5-.867-.32-.175-.678-.356-1.069-.525a2.552,2.552,0,0,0-1.251-.29.812.812,0,0,0-.53,1.043,1.388,1.388,0,0,0,.3.654,3.612,3.612,0,0,0,.619.5c.458.31.935.585,1.368.907a4.1,4.1,0,0,1,.606.532,1.229,1.229,0,0,1,.337.752l-.024.215-.046.172-.085.337c-.052.222-.1.438-.138.648a8.61,8.61,0,0,0-.142,1.176,4.072,4.072,0,0,0,.231,1.678c.153.372.305.547.281.565" transform="translate(-183.504 -61.674)" fill="#ff9b6c"/>
            <path id="Trazado_807894" data-name="Trazado 807894" d="M481.457,165.957l3.473-13.564c2.063-10.651,3.279-23.734,5.248-26.968,3.638-5.975,12.588-5.158,12.588-5.158,11.889,1.04,12.543,10.408,12.412,18.826-.022,1.428.173,4,.469,6.99.784,6.249,1.99,12.728,5.688,17.481a10.832,10.832,0,0,1,2.2,6.469c.019,2.3-1.6,4.806-3.9,4.822A5.27,5.27,0,0,1,517.5,182.9c-2.073.88-4.449.357-6.617-.252s-4.394-1.348-5.9-3-2.051-3.965-2.387-6.181a51.469,51.469,0,0,1-.575-8.071Z" transform="translate(-213.149 -53.228)" fill="#263238"/>
            <path id="Trazado_807895" data-name="Trazado 807895" d="M506.405,125.35l.848-.583,7.435,4.474a2.247,2.247,0,0,1,1.75,2.483l-5.414,26.414c-.271,1.758.333,2.69-.951,3.92l-8.787,8.164c-3.082,2.952-1.663-4.407-3.086-8.431-.1-.281.664-1.147.651-1.339a5.218,5.218,0,0,1-.026-.6c.1-2.121.372-3.929.372-3.929.225-2.31.328-3.256.324-3.234,0,0-4.778-1.339-5.094-7.8-.157-3.212.651-7.467,1.508-11.645,1.187-5.782,5.788-8.653,10.468-7.9" transform="translate(-218.883 -55.236)" fill="#ffc09d"/>
            <path id="Trazado_807896" data-name="Trazado 807896" d="M512.671,150.2a.819.819,0,0,0,.7.907.783.783,0,0,0,.919-.643.82.82,0,0,0-.695-.908.784.784,0,0,0-.92.643" transform="translate(-226.964 -66.206)" fill="#263238"/>
            <path id="Trazado_807897" data-name="Trazado 807897" d="M498.642,148.28a.819.819,0,0,0,.7.907.783.783,0,0,0,.919-.643.82.82,0,0,0-.694-.908.784.784,0,0,0-.921.643" transform="translate(-220.754 -65.356)" fill="#263238"/>
            <path id="Trazado_807898" data-name="Trazado 807898" d="M498.157,142.657c.089.117.756-.272,1.632-.174s1.471.606,1.577.509c.052-.042-.03-.245-.288-.48a2.25,2.25,0,0,0-1.248-.539,2.162,2.162,0,0,0-1.314.271c-.291.177-.4.359-.359.412" transform="translate(-220.538 -62.849)" fill="#263238"/>
            <path id="Trazado_807899" data-name="Trazado 807899" d="M513.957,145.228c.1.108.725-.348,1.606-.34s1.524.451,1.621.344c.047-.048-.054-.241-.336-.448a2.244,2.244,0,0,0-1.3-.408,2.159,2.159,0,0,0-1.279.405c-.271.206-.365.4-.315.447" transform="translate(-227.532 -63.918)" fill="#263238"/>
            <path id="Trazado_807900" data-name="Trazado 807900" d="M504.979,150.622a5.841,5.841,0,0,0-1.395-.412c-.221-.047-.428-.115-.449-.272a1.145,1.145,0,0,1,.222-.647l.847-1.631a29.53,29.53,0,0,0,1.972-4.294,29.492,29.492,0,0,0-2.313,4.125c-.286.574-.56,1.121-.82,1.645a1.3,1.3,0,0,0-.212.865.563.563,0,0,0,.332.367,1.5,1.5,0,0,0,.374.094,5.713,5.713,0,0,0,1.442.159" transform="translate(-222.603 -63.47)" fill="#263238"/>
            <path id="Trazado_807901" data-name="Trazado 807901" d="M503.462,173.808a16.247,16.247,0,0,0,8.75-1.341s-2.617,4.162-8.906,2.875Z" transform="translate(-222.822 -76.354)" fill="#ff9b6c"/>
            <path id="Trazado_807902" data-name="Trazado 807902" d="M506.866,159.875a1.588,1.588,0,0,1,1.479-.432,1.45,1.45,0,0,1,.937.643.918.918,0,0,1-.045,1.052,1.064,1.064,0,0,1-1.18.165,3.331,3.331,0,0,1-1.047-.79.974.974,0,0,1-.222-.286.3.3,0,0,1,.037-.326" transform="translate(-224.35 -70.572)" fill="#ff9b6c"/>
            <path id="Trazado_807903" data-name="Trazado 807903" d="M508.789,157.979c-.142-.024-.247.927-1.135,1.513s-1.889.371-1.91.5c-.02.059.206.21.632.268a2.38,2.38,0,0,0,1.589-.367,2.073,2.073,0,0,0,.891-1.276c.08-.393,0-.64-.066-.642" transform="translate(-223.901 -69.94)" fill="#263238"/>
            <path id="Trazado_807904" data-name="Trazado 807904" d="M513.443,139.07c.085.24.966.133,2,.264,1.036.11,1.868.419,2.006.2.062-.1-.081-.329-.417-.563a3.508,3.508,0,0,0-3.052-.357c-.381.15-.573.337-.536.451" transform="translate(-227.308 -61.281)" fill="#263238"/>
            <path id="Trazado_807905" data-name="Trazado 807905" d="M499.45,135.946c.132.216.758.075,1.485.144.729.044,1.326.28,1.49.087.073-.095,0-.3-.25-.522a2.161,2.161,0,0,0-2.4-.187c-.279.177-.386.372-.328.477" transform="translate(-221.108 -59.851)" fill="#263238"/>
            <path id="Trazado_807906" data-name="Trazado 807906" d="M523.577,142.409s-4.673.673-5.434-10.718c-.26-3.894-3.256-7.494-3.256-7.494l1.481-.2s8.383,3.878,8.513,4.012,1.488,4.9,1.488,4.9Z" transform="translate(-227.949 -54.896)" fill="#263238"/>
            <path id="Trazado_807907" data-name="Trazado 807907" d="M528.373,154.75c.053-.473.721-1.528,1.2-1.55,1.268-.058,3.5.287,3.18,3.456-.444,4.332-4.7,2.993-4.7,2.868,0-.1.139-3.141.32-4.774" transform="translate(-233.778 -67.822)" fill="#ffc09d"/>
            <path id="Trazado_807908" data-name="Trazado 807908" d="M530.726,159.192c.021-.012.07.06.192.132a.757.757,0,0,0,.563.069,1.876,1.876,0,0,0,1.035-1.587,2.506,2.506,0,0,0-.1-1.1.874.874,0,0,0-.508-.637.386.386,0,0,0-.466.161c-.071.115-.052.2-.076.21s-.086-.082-.032-.257a.485.485,0,0,1,.2-.255.576.576,0,0,1,.429-.067,1.067,1.067,0,0,1,.719.752,2.578,2.578,0,0,1,.138,1.234,1.968,1.968,0,0,1-1.292,1.758.812.812,0,0,1-.678-.185c-.123-.12-.136-.22-.12-.226" transform="translate(-234.959 -68.995)" fill="#ff9b6c"/>
            <path id="Trazado_807909" data-name="Trazado 807909" d="M521.032,140.343a6.271,6.271,0,0,1-.623-.233,3.929,3.929,0,0,1-1.386-1.132,5.39,5.39,0,0,1-.648-1.061,7.313,7.313,0,0,1-.448-1.359,27.27,27.27,0,0,1-.425-3.27,33.079,33.079,0,0,0-.488-3.275,18.085,18.085,0,0,0-.731-2.6,12.968,12.968,0,0,0-.742-1.666c-.1-.191-.19-.332-.246-.43a.929.929,0,0,0-.095-.145,1,1,0,0,0,.074.157c.05.1.134.246.227.439a14.831,14.831,0,0,1,.7,1.673,19.079,19.079,0,0,1,.7,2.6c.2.994.356,2.1.478,3.266a26.156,26.156,0,0,0,.436,3.282,7.247,7.247,0,0,0,.464,1.374,5.373,5.373,0,0,0,.672,1.072,3.848,3.848,0,0,0,1.432,1.122,2.4,2.4,0,0,0,.641.192" transform="translate(-228.088 -55.414)" fill="#263238"/>
            <path id="Trazado_807910" data-name="Trazado 807910" d="M483.834,182.278s-8.028,10.7-8.576,13.807.993,23.168,1.787,26.637l-5.137,11.551,8.781,2.056,29.182-.5-1.23-19.206,2.955-12.764.3-16.791-10.68-2.656c-5.344,3.429-11.986,1.487-12.7-2.068Z" transform="translate(-208.922 -80.698)" fill="#59bee2"/>
            <path id="Trazado_807911" data-name="Trazado 807911" d="M424.534,153.22c.367.542,9.649,17.216,9.649,17.216l18.5-1.021a81.384,81.384,0,0,1,11.437.129l-8.525,14.3s-23.131-.577-26.923-1.389-12.4-24.3-12.4-24.3Z" transform="translate(-184.288 -67.833)" fill="#59bee2"/>
            <path id="Trazado_807912" data-name="Trazado 807912" d="M537.674,190.876a11.233,11.233,0,0,1,5.625,5.407c1.652,3.32,8.091,14.16,9.931,17.495s3.138,4.881,3.921,8.034c.247,1,.208,7.26-4.967,7.26s-21.443.221-21.443.221l-.612-6.521,14.817-2.893-9.423-10.487Z" transform="translate(-234.697 -84.504)" fill="#59bee2"/>
            <path id="Trazado_807913" data-name="Trazado 807913" d="M477.891,216.536a4.642,4.642,0,0,1-.141-.83c-.074-.536-.161-1.314-.251-2.278-.183-1.926-.357-4.6-.4-7.55s.052-5.629.178-7.56c.062-.966.126-1.746.184-2.284a4.627,4.627,0,0,1,.116-.834,4.775,4.775,0,0,1,0,.841c-.024.593-.055,1.361-.091,2.286-.074,1.93-.136,4.6-.093,7.545s.186,5.61.316,7.538c.065.923.118,1.691.159,2.283a4.638,4.638,0,0,1,.028.841" transform="translate(-211.214 -86.419)" fill="#263238"/>
            <path id="Trazado_807914" data-name="Trazado 807914" d="M542.211,212.953c.078.02-.853,3.866-2.078,8.59s-2.282,8.538-2.36,8.518.853-3.865,2.079-8.591,2.282-8.537,2.359-8.517" transform="translate(-238.079 -94.278)" fill="#263238"/>
            <path id="Trazado_807915" data-name="Trazado 807915" d="M493.185,182.01l8.237,20.25,16.349-16.192-8.223-2.274-11.2-1.72Z" transform="translate(-218.341 -80.579)" fill="#ffc09d"/>
            <path id="Trazado_807916" data-name="Trazado 807916" d="M512.44,189.293a3.047,3.047,0,0,1-.326.356l-.975.98-3.6,3.588c-3.033,3.034-7.2,7.25-11.669,12.032-4.45,4.8-8.344,9.274-10.912,12.707-.623.872-1.225,1.634-1.687,2.347s-.887,1.314-1.189,1.83l-.683,1.2a3.155,3.155,0,0,1-.256.41,2.971,2.971,0,0,1,.2-.436l.638-1.229c.288-.528.7-1.137,1.151-1.862s1.044-1.5,1.657-2.38a154.081,154.081,0,0,1,10.864-12.782c4.473-4.786,8.665-8.982,11.737-11.98,1.537-1.5,2.791-2.7,3.665-3.523l1.012-.941a2.982,2.982,0,0,1,.367-.314" transform="translate(-213.01 -83.803)" fill="#263238"/>
            <path id="Trazado_807917" data-name="Trazado 807917" d="M444.307,187.953a6.642,6.642,0,0,1,2.441-3.976c.061.061-.667.822-1.334,1.919s-1.024,2.084-1.107,2.057" transform="translate(-196.697 -81.448)" fill="#263238"/>
            <rect id="Rectángulo_375338" data-name="Rectángulo 375338" width="34.343" height="4.35" transform="translate(257.565 140.185)" fill="#e0e0e0"/>
            <path id="Trazado_807918" data-name="Trazado 807918" d="M484.658,253.614c0,.08-4.993.145-11.15.145s-11.151-.065-11.151-.145,4.992-.145,11.151-.145,11.15.065,11.15.145" transform="translate(-204.693 -112.215)" fill="#263238"/>
            <path id="Trazado_807919" data-name="Trazado 807919" d="M490.658,255.338c0,.08-4.993.145-11.15.145s-11.151-.065-11.151-.145,4.992-.145,11.151-.145,11.15.065,11.15.145" transform="translate(-207.349 -112.978)" fill="#263238"/>
            <path id="Trazado_807920" data-name="Trazado 807920" d="M501.912,247.005l1.253-.591-.468.571a1.623,1.623,0,0,0-.42,1.354c.187.711,1.49.863,1.49.863a2.029,2.029,0,0,0,.374,1.4c.456.607,2.2.163,2.2.163l-.24.519c-.295.554.415,1.242.744,1.326a4.646,4.646,0,0,0,2.18-.654,7.17,7.17,0,0,1,2.691-.208s2.649.845,3.776.441a2.435,2.435,0,0,0,1.453-1.223s-.188-4.958-1.812-5.746c-.827-.4-5.643-2.248-7.076-2.86a2.031,2.031,0,0,0-1.52-.033,33.545,33.545,0,0,0-5.092,2.305s-1.236.777-.989,1.518a1.19,1.19,0,0,0,1.459.854" transform="translate(-221.544 -107.224)" fill="#ffc09d"/>
            <path id="Trazado_807921" data-name="Trazado 807921" d="M507.591,246.769a20.9,20.9,0,0,1-2.579,1.858,10.664,10.664,0,0,1,1.254-.977,10.549,10.549,0,0,1,1.324-.881" transform="translate(-223.577 -109.248)" fill="#ff9b6c"/>
            <path id="Trazado_807922" data-name="Trazado 807922" d="M509.494,251.681c.015.034-.708.351-1.549.832s-1.5.919-1.52.888a2.111,2.111,0,0,1,.407-.321c.261-.184.629-.429,1.053-.671a10.878,10.878,0,0,1,1.119-.557,2.017,2.017,0,0,1,.489-.171" transform="translate(-224.203 -111.423)" fill="#ff9b6c"/>
            <path id="Trazado_807923" data-name="Trazado 807923" d="M513.2,255.263a16.319,16.319,0,0,1-2.443,1.361,16.311,16.311,0,0,1,2.443-1.361" transform="translate(-226.119 -113.008)" fill="#ff9b6c"/>
            <path id="Trazado_807924" data-name="Trazado 807924" d="M455.168,381.14,461.63,391s-7.516,9.863-6.493,11.8l18.926-11.814L464.6,375.213Z" transform="translate(-201.454 -166.113)" fill="#455a64"/>
            <path id="Trazado_807925" data-name="Trazado 807925" d="M475.956,395.432a.922.922,0,0,1,1.087.578.887.887,0,0,1-.533,1.1.973.973,0,0,1-1.148-.618.913.913,0,0,1,.679-1.077" transform="translate(-210.443 -175.051)" fill="#e0e0e0"/>
            <path id="Trazado_807926" data-name="Trazado 807926" d="M474,402.274l-1.014-1.552-17.767,11.908s-.612.905-.145,1.458Z" transform="translate(-201.391 -177.406)" fill="#263238"/>
            <path id="Trazado_807927" data-name="Trazado 807927" d="M466.2,403.286c.061.094.549-.152,1.19-.128.641.006,1.127.274,1.189.182.074-.071-.41-.556-1.186-.571s-1.266.441-1.193.517" transform="translate(-206.391 -178.312)" fill="#fff"/>
            <path id="Trazado_807928" data-name="Trazado 807928" d="M463.564,407.253c.035.106.534.018,1.093.226.564.191.908.579,1,.517.1-.039-.179-.638-.879-.883s-1.266.048-1.212.14" transform="translate(-205.226 -180.192)" fill="#fff"/>
            <path id="Trazado_807929" data-name="Trazado 807929" d="M462.847,412.116c.1-.032-.065-.59-.619-.964s-1.113-.314-1.1-.21.446.217.9.532.728.69.826.642" transform="translate(-204.147 -181.895)" fill="#fff"/>
            <path id="Trazado_807930" data-name="Trazado 807930" d="M463.981,398.416c.091.063.436-.334.98-.623s1.055-.373,1.053-.485-.6-.208-1.236.142-.888.92-.8.966" transform="translate(-205.404 -175.851)" fill="#fff"/>
            <path id="Trazado_807931" data-name="Trazado 807931" d="M459.019,278.375s-31.089,10.365-36.2,14.492c-4.116,3.324-3.572,12.859-1.184,16.664.972,1.549,22.445,37.571,22.445,37.571l10.661-5.828L440.381,306.1s35.073-6.811,41.562-9.732c8.034-3.618,5.461-11.959,5.461-11.959L486,278.375Z" transform="translate(-185.845 -123.241)" fill="#263238"/>
            <path id="Trazado_807932" data-name="Trazado 807932" d="M469.391,363.595l6.462,9.856s-7.515,9.863-6.493,11.8l18.926-11.814-9.459-15.768Z" transform="translate(-207.751 -158.346)" fill="#455a64"/>
            <path id="Trazado_807933" data-name="Trazado 807933" d="M490.18,377.887a.923.923,0,0,1,1.087.578.887.887,0,0,1-.533,1.1.973.973,0,0,1-1.148-.618.913.913,0,0,1,.679-1.077" transform="translate(-216.741 -167.283)" fill="#e0e0e0"/>
            <path id="Trazado_807934" data-name="Trazado 807934" d="M488.223,384.729l-1.014-1.552-17.766,11.908s-.613.905-.145,1.458Z" transform="translate(-207.688 -169.639)" fill="#263238"/>
            <path id="Trazado_807935" data-name="Trazado 807935" d="M480.422,385.742c.061.094.549-.152,1.19-.128.641.006,1.127.274,1.189.182.074-.071-.41-.557-1.186-.571s-1.266.441-1.193.517" transform="translate(-212.688 -170.545)" fill="#fff"/>
            <path id="Trazado_807936" data-name="Trazado 807936" d="M477.787,389.709c.035.106.533.018,1.093.226.565.191.908.579,1,.517.1-.039-.179-.639-.879-.884s-1.266.048-1.212.14" transform="translate(-211.523 -172.425)" fill="#fff"/>
            <path id="Trazado_807937" data-name="Trazado 807937" d="M477.071,394.571c.1-.032-.065-.59-.619-.964s-1.113-.314-1.1-.21.446.217.9.532.728.69.826.642" transform="translate(-210.444 -174.128)" fill="#fff"/>
            <path id="Trazado_807938" data-name="Trazado 807938" d="M478.2,380.871c.091.063.436-.334.98-.623s1.055-.373,1.054-.485-.6-.208-1.237.142-.888.919-.8.966" transform="translate(-211.701 -168.083)" fill="#fff"/>
            <path id="Trazado_807939" data-name="Trazado 807939" d="M427.821,276.061c-1.786,1.648-4.518,7.046-1.609,13.385,1.845,4.02,27.283,43.35,27.283,43.35l10.321-6.8s-8.843-18.54-11.793-27.222c-2.244-6.6-7.231-16.782-7.554-17.449L460.5,275.44s-17.135-5.441-23.372-4.108a18.283,18.283,0,0,0-9.307,4.729" transform="translate(-188.127 -120.03)" fill="#263238"/>
            <path id="Trazado_807940" data-name="Trazado 807940" d="M427.778,276.01a4.962,4.962,0,0,1,.431-.442,13.994,13.994,0,0,1,1.407-1.137,19.736,19.736,0,0,1,6.246-2.917l1.122-.278c.39-.072.8-.115,1.209-.176a18.849,18.849,0,0,1,2.612-.014,45.523,45.523,0,0,1,5.847.753,127.636,127.636,0,0,1,13.84,3.481l.324.1-.319.117L444.471,281.4l.073-.181q1.858,3.812,3.7,7.92c1.218,2.739,2.433,5.568,3.509,8.527,1.019,2.975,2.19,5.955,3.462,8.961s2.606,6.044,3.99,9.109c1.563,3.457,3.133,6.852,4.7,10.149l.053.114-.1.069-10.323,6.793-.118.077-.077-.119c-5.13-7.95-9.89-15.382-14.134-22.065s-7.979-12.612-10.985-17.6c-.745-1.252-1.461-2.434-2.056-3.605a14.944,14.944,0,0,1-1.126-3.505,13.8,13.8,0,0,1-.166-3.182,13.091,13.091,0,0,1,.485-2.62,10.886,10.886,0,0,1,1.586-3.285,5.215,5.215,0,0,1,.839-.944s-.07.083-.215.237a6.283,6.283,0,0,0-.585.735,11.129,11.129,0,0,0-1.534,3.283,13.13,13.13,0,0,0-.459,2.6,13.763,13.763,0,0,0,.185,3.149,14.871,14.871,0,0,0,1.133,3.463c.593,1.152,1.316,2.334,2.065,3.581,3.024,4.976,6.781,10.892,11.036,17.567s9.029,14.1,14.166,22.042l-.195-.041,10.319-6.8-.051.182c-1.566-3.3-3.136-6.695-4.7-10.154-1.384-3.067-2.725-6.106-3.991-9.117s-2.447-6-3.462-8.977c-1.069-2.949-2.281-5.775-3.494-8.511s-2.454-5.376-3.689-7.917l-.064-.131.137-.05,16.038-5.872.005.216a129.1,129.1,0,0,0-13.8-3.519,45.742,45.742,0,0,0-5.822-.776,18.584,18.584,0,0,0-2.59,0c-.407.058-.808.1-1.193.166l-1.117.269a20.018,20.018,0,0,0-6.242,2.848,15.487,15.487,0,0,0-1.422,1.108l-.454.417" transform="translate(-188.083 -119.979)" fill="#455a64"/>
            <path id="Trazado_807941" data-name="Trazado 807941" d="M453.241,282.6a10.123,10.123,0,0,1,3.819,4c-.072.048-.787-.967-1.841-2.066s-2.029-1.865-1.978-1.935" transform="translate(-200.657 -125.11)" fill="#455a64"/>
            <g id="Grupo_1067280" data-name="Grupo 1067280" transform="translate(240.682 153.938)" opacity="0.3">
              <g id="Grupo_1067279" data-name="Grupo 1067279">
                <g id="Grupo_1067278" data-name="Grupo 1067278" clip-path="url(#clip-path-7)">
                  <path id="Trazado_807942" data-name="Trazado 807942" d="M431.884,277.425l23.614,1.1,36.684,2.451-.828-3.551h.8l-.077-1.2H433.57Z" transform="translate(-431.884 -276.229)"/>
                </g>
              </g>
            </g>
            <path id="Trazado_807943" data-name="Trazado 807943" d="M550.452,244.35a2.2,2.2,0,0,1-.488-.071L548.61,244l-4.741-1.058h.055l-4.759.92c-3.141.6-5.988,1.125-8.051,1.491l-2.446.419a5.52,5.52,0,0,1-.9.115,5.4,5.4,0,0,1,.883-.226l2.429-.51c2.053-.418,4.893-.976,8.035-1.574l4.764-.894.028-.005.027.006,4.717,1.161,1.336.352a2.244,2.244,0,0,1,.469.153" transform="translate(-233.649 -107.438)" fill="#263238"/>
          </g>
        </g>
        <rect id="Rectángulo_375341" data-name="Rectángulo 375341" width="6.225" height="33.299" transform="translate(190.6 183.796)" fill="#e0e0e0"/>
        <g id="Grupo_1067290" data-name="Grupo 1067290">
          <g id="Grupo_1067289" data-name="Grupo 1067289" clip-path="url(#clip-path)">
            <path id="Trazado_807944" data-name="Trazado 807944" d="M307.636,320.185c.1,0,19.159,5.981,19.159,5.981h6.225l21.848-5.981Z" transform="translate(-136.196 -141.751)" fill="#e0e0e0"/>
            <path id="Trazado_807945" data-name="Trazado 807945" d="M300.156,398.068s2.88-8.8,6.852-10.922c6.382-3.418,21.089-5.055,21.089-5.055l1.612,4.163s-19.615.771-22.7,4.729a81.993,81.993,0,0,0-4.925,7.085Z" transform="translate(-132.884 -169.158)" fill="#e0e0e0"/>
            <path id="Trazado_807946" data-name="Trazado 807946" d="M305.384,409.258a4.165,4.165,0,1,1-4.166-4.166,4.166,4.166,0,0,1,4.166,4.166" transform="translate(-131.51 -179.341)" fill="#263238"/>
            <path id="Trazado_807947" data-name="Trazado 807947" d="M372.082,397.761s-2.88-8.8-6.852-10.922c-6.382-3.418-21.089-5.055-21.089-5.055l-1.612,4.163s19.615.771,22.7,4.729a82.016,82.016,0,0,1,4.925,7.085Z" transform="translate(-151.643 -169.022)" fill="#e0e0e0"/>
            <path id="Trazado_807948" data-name="Trazado 807948" d="M385.453,409.139a4.165,4.165,0,1,0,4.166-4.166,4.166,4.166,0,0,0-4.166,4.166" transform="translate(-170.646 -179.288)" fill="#263238"/>
            <path id="Trazado_807949" data-name="Trazado 807949" d="M343.751,386.1l.913,11.315,2.572.508V386.1" transform="translate(-152.184 -170.932)" fill="#e0e0e0"/>
            <path id="Trazado_807950" data-name="Trazado 807950" d="M340.127,409.258a4.165,4.165,0,1,0,4.166-4.166,4.166,4.166,0,0,0-4.166,4.166" transform="translate(-150.58 -179.341)" fill="#263238"/>
            <path id="Trazado_807951" data-name="Trazado 807951" d="M348.212,331.048a33.529,33.529,0,0,1-5.934,0,33.537,33.537,0,0,1,5.934,0" transform="translate(-151.532 -146.502)" fill="#263238"/>
            <path id="Trazado_807952" data-name="Trazado 807952" d="M348.374,383.354a6.4,6.4,0,0,1-6,.157,9.532,9.532,0,0,0,6-.157" transform="translate(-151.576 -169.714)" fill="#263238"/>
            <path id="Trazado_807953" data-name="Trazado 807953" d="M327.486,157.559h29.7a12.83,12.83,0,0,1,12.83,12.83v64.873a6.414,6.414,0,0,1-6.414,6.414H321.07a6.414,6.414,0,0,1-6.414-6.414V170.389a12.83,12.83,0,0,1,12.83-12.83" transform="translate(-139.304 -69.754)" fill="#455a64"/>
            <path id="Trazado_807954" data-name="Trazado 807954" d="M298.9,313.851h59.283a3.364,3.364,0,0,0,3.364-3.364v-1.244a3.364,3.364,0,0,0-3.364-3.365H298.9a3.365,3.365,0,0,0-3.364,3.365v1.244a3.364,3.364,0,0,0,3.364,3.364" transform="translate(-130.84 -135.417)" fill="#455a64"/>
            <path id="Trazado_807955" data-name="Trazado 807955" d="M312.544,305.686c0-.08,12.181-.145,27.2-.145s27.206.065,27.206.145-12.178.145-27.206.145-27.2-.065-27.2-.145" transform="translate(-138.368 -135.268)" fill="#263238"/>
            <path id="Trazado_807956" data-name="Trazado 807956" d="M280.178,379.5l3.115,11.518s-10.338,7.125-9.964,9.312l21.932-5.41-4.138-18.152Z" transform="translate(-121.003 -166.801)" fill="#455a64"/>
            <path id="Trazado_807957" data-name="Trazado 807957" d="M302.255,397.576a.934.934,0,0,1,.864.9.9.9,0,0,1-.858.889.987.987,0,0,1-.911-.957c.046-.463.555-.941.993-.823" transform="translate(-133.412 -176.009)" fill="#e0e0e0"/>
            <path id="Trazado_807958" data-name="Trazado 807958" d="M295.227,407.9l-.487-1.813-20.847,5.865s-.874.678-.6,1.358Z" transform="translate(-120.968 -179.781)" fill="#263238"/>
            <path id="Trazado_807959" data-name="Trazado 807959" d="M290.528,402.108c.03.109.576.027,1.186.251.615.208,1,.618,1.087.55.094-.046-.22-.665-.962-.923s-1.357.026-1.31.121" transform="translate(-128.62 -177.918)" fill="#fff"/>
            <path id="Trazado_807960" data-name="Trazado 807960" d="M286.811,404.992c0,.113.508.186.98.562s.692.843.8.812c.1-.007.028-.671-.568-1.127s-1.233-.352-1.21-.247" transform="translate(-126.976 -179.256)" fill="#fff"/>
            <path id="Trazado_807961" data-name="Trazado 807961" d="M284.626,409.368c.1,0,.123-.587-.292-1.123s-.972-.652-1-.549c-.04.105.361.349.7.794s.484.894.593.878" transform="translate(-125.437 -180.479)" fill="#fff"/>
            <path id="Trazado_807962" data-name="Trazado 807962" d="M289.758,396.868c.069.089.524-.184,1.14-.291s1.133-.027,1.166-.135-.512-.389-1.234-.252-1.145.605-1.072.679" transform="translate(-128.277 -175.384)" fill="#fff"/>
            <path id="Trazado_807963" data-name="Trazado 807963" d="M314.345,394.771l-2.315,14.268-4.994,10.742a1.5,1.5,0,0,0,.768,2.017,1.4,1.4,0,0,0,1.313-.132c2.493-1.666,11.454-7.993,11.642-8.743.3-1.189,3.52-15.038,3.52-15.038Z" transform="translate(-135.867 -174.772)" fill="#455a64"/>
            <path id="Trazado_807964" data-name="Trazado 807964" d="M308.526,435.331l13.24-9.989-.111.6a2.351,2.351,0,0,1-.769,1.322c-1.074.888-4.09,3.275-11.005,7.942a1.405,1.405,0,0,1-1.355.123" transform="translate(-136.59 -188.306)" fill="#263238"/>
            <g id="Grupo_1067285" data-name="Grupo 1067285" transform="translate(182.69 231.824)" opacity="0.6">
              <g id="Grupo_1067284" data-name="Grupo 1067284">
                <g id="Grupo_1067283" data-name="Grupo 1067283" clip-path="url(#clip-path-9)">
                  <path id="Trazado_807965" data-name="Trazado 807965" d="M328.322,416.063a.906.906,0,0,0-.447,1.1.83.83,0,0,0,1.06.465.956.956,0,0,0,.468-1.172.858.858,0,0,0-1.156-.358" transform="translate(-327.823 -415.99)" fill="#fff"/>
                </g>
              </g>
            </g>
            <path id="Trazado_807966" data-name="Trazado 807966" d="M314.238,431.6a4.507,4.507,0,0,0-1.007-1.343,4.324,4.324,0,0,0-1.533-.625c-.006-.037.19-.113.522-.1a2.214,2.214,0,0,1,1.2.468,2.307,2.307,0,0,1,.767,1.053c.107.324.09.538.054.543" transform="translate(-137.994 -190.16)" fill="#fff"/>
            <path id="Trazado_807967" data-name="Trazado 807967" d="M311.93,435.194c-.077.048-.435-.5-1.111-.85a11.708,11.708,0,0,0-1.316-.444,1.56,1.56,0,0,1,1.458.161c.768.4,1.048,1.109.969,1.133" transform="translate(-137.022 -192.049)" fill="#fff"/>
            <path id="Trazado_807968" data-name="Trazado 807968" d="M317.5,427.63a14.473,14.473,0,0,0-1.628-1.432,14.123,14.123,0,0,0-1.958-.893,3.123,3.123,0,0,1,2.123.624,3.267,3.267,0,0,1,1.463,1.7" transform="translate(-138.977 -188.274)" fill="#fff"/>
            <path id="Trazado_807969" data-name="Trazado 807969" d="M319.408,420.993c-.052.078-.755-.4-1.742-.631s-1.819-.14-1.832-.234a2.712,2.712,0,0,1,1.9-.075,2.775,2.775,0,0,1,1.671.94" transform="translate(-139.825 -185.914)" fill="#fff"/>
            <path id="Trazado_807970" data-name="Trazado 807970" d="M320.7,413.506a4.471,4.471,0,0,0-3.715-.592c-.017-.034.167-.183.521-.309a3.006,3.006,0,0,1,1.446-.119,3.038,3.038,0,0,1,1.344.563c.3.231.431.43.405.457" transform="translate(-140.334 -182.598)" fill="#fff"/>
            <path id="Trazado_807971" data-name="Trazado 807971" d="M319.246,409.568a1.278,1.278,0,0,1,.081-.541A3.829,3.829,0,0,1,320,407.7a1.646,1.646,0,0,1,.837-.655.572.572,0,0,1,.617.256,1,1,0,0,1,.1.684,2.043,2.043,0,0,1-2.106,1.56,2.379,2.379,0,0,1-2.049-1.695.865.865,0,0,1,.09-.7.558.558,0,0,1,.64-.19,2.035,2.035,0,0,1,.82.665,4.281,4.281,0,0,1,.738,1.289,1.316,1.316,0,0,1,.121.532,6.776,6.776,0,0,0-1.022-1.671,1.9,1.9,0,0,0-.729-.562.3.3,0,0,0-.349.1.593.593,0,0,0-.033.461,2.122,2.122,0,0,0,1.793,1.449,1.773,1.773,0,0,0,1.806-1.3.722.722,0,0,0-.05-.481.31.31,0,0,0-.338-.146,1.48,1.48,0,0,0-.718.542,5.657,5.657,0,0,0-.924,1.723" transform="translate(-140.504 -180.156)" fill="#fff"/>
            <path id="Trazado_807972" data-name="Trazado 807972" d="M288.038,271.949h0c-4.178,2.24-20.463,11.629-24.833,14.476-3.2,2.085-5.168,7.732-4.149,11.257C263.288,312.309,275.313,342,275.313,342l13.859-1.745-9.683-41.444,19.572-9.2,19.109-18.972Z" transform="translate(-114.569 -119.816)" fill="#263238"/>
            <path id="Trazado_807973" data-name="Trazado 807973" d="M334.149,272.067s-17.4,20.353-17.765,24.546c-.489,5.648-5.108,55.6-5.108,55.6l14.508,2.186,11.143-51.57,13.627-15.879,1.735-8.793-1.909-9.249Z" transform="translate(-137.807 -119.051)" fill="#263238"/>
            <path id="Trazado_807974" data-name="Trazado 807974" d="M329.428,285.507a1.044,1.044,0,0,1-.114.168l-.358.476-1.395,1.814c-1.212,1.574-2.975,3.846-5.117,6.68-1.071,1.417-2.239,2.973-3.455,4.669-.6.851-1.235,1.729-1.806,2.673a4.1,4.1,0,0,0-.5,1.556c-.108.557-.181,1.132-.26,1.712-.561,4.657-.913,9.814-1.364,15.215-.23,2.7-.455,5.34-.672,7.888-.245,2.545-.482,5-.707,7.338l-1.214,12.425c-.354,3.523-.643,6.379-.843,8.373-.1.975-.186,1.738-.244,2.275-.03.247-.053.443-.071.591a1,1,0,0,1-.034.2,1.051,1.051,0,0,1,0-.2c.011-.149.024-.345.042-.594.045-.538.108-1.3.19-2.28.179-2,.435-4.856.752-8.382.328-3.543.718-7.755,1.152-12.429.22-2.34.451-4.794.69-7.339.215-2.548.437-5.185.665-7.887.451-5.4.811-10.555,1.388-15.227.081-.583.156-1.16.268-1.726.045-.284.116-.564.187-.843a2.639,2.639,0,0,1,.351-.8c.585-.959,1.222-1.832,1.829-2.683,1.227-1.694,2.406-3.243,3.487-4.653,2.164-2.819,3.952-5.072,5.191-6.626l1.438-1.781.381-.458a1.013,1.013,0,0,1,.138-.149" transform="translate(-137.805 -126.399)" fill="#455a64"/>
            <path id="Trazado_807975" data-name="Trazado 807975" d="M286.9,313.029a47.876,47.876,0,0,1,5.421,5.108,47.877,47.877,0,0,1-5.421-5.108" transform="translate(-127.014 -138.582)" fill="#455a64"/>
            <path id="Trazado_807976" data-name="Trazado 807976" d="M313.006,227.795l18.264-51.967,2.475-3.054L347.467,171l2.339,6.572-7.632,50.636Z" transform="translate(-138.573 -75.704)" fill="#fafafa"/>
            <path id="Trazado_807977" data-name="Trazado 807977" d="M342.759,226.17a1.391,1.391,0,0,1-.01-.33c.007-.247.017-.56.028-.945.01-.41.044-.911.089-1.492s.094-1.243.176-1.972c.289-2.921.912-6.931,1.808-11.317s1.866-8.322,2.6-11.161c.366-1.42.674-2.566.894-3.355.106-.369.192-.67.261-.907a1.411,1.411,0,0,1,.11-.312,1.433,1.433,0,0,1-.053.326c-.054.241-.123.546-.208.921-.2.835-.471,1.979-.8,3.377-.682,2.851-1.616,6.79-2.514,11.17s-1.548,8.373-1.889,11.282c-.094.726-.164,1.384-.218,1.963s-.111,1.077-.138,1.486c-.033.382-.061.694-.082.94a1.435,1.435,0,0,1-.048.327" transform="translate(-151.74 -86.055)" fill="#263238"/>
            <path id="Trazado_807978" data-name="Trazado 807978" d="M312.306,221.018c0-.538,5.683-42.224,5.683-42.224l1.756-2.676a2.727,2.727,0,0,1,2.281-1.232h8.631l2.7-2.091.115,1.259-2.814,9.16L319.088,221.1Z" transform="translate(-138.263 -76.499)" fill="#263238"/>
            <path id="Trazado_807979" data-name="Trazado 807979" d="M361.463,218.867c0-1.076-1.008-9.042-.33-15.378.5-4.675,1.841-12.678,2.839-18.365a49.167,49.167,0,0,1,3.972-12.5l1.145-2.422,2.386,3.8,10.316,4.082L377.9,218.867Z" transform="translate(-159.776 -75.35)" fill="#263238"/>
            <path id="Trazado_807980" data-name="Trazado 807980" d="M363.843,256.3,365.726,285l23.039-6.33-5.671-20.482" transform="translate(-161.079 -113.466)" fill="#263238"/>
            <path id="Trazado_807981" data-name="Trazado 807981" d="M383.091,258.19a.357.357,0,0,1,.037.094l.089.283.328,1.107,1.2,4.189c1.015,3.618,2.449,8.728,4.146,14.775l.036.127-.128.035-15.137,4.173-7.9,2.166-.168.046-.011-.173c-.519-8.215-.972-15.387-1.3-20.525-.149-2.548-.269-4.59-.352-6.015-.035-.69-.062-1.229-.082-1.615-.006-.172-.011-.31-.015-.418a.584.584,0,0,1,0-.143.6.6,0,0,1,.022.141c.01.108.023.245.04.416.031.385.075.923.13,1.612.1,1.424.251,3.465.436,6.01.349,5.137.837,12.305,1.4,20.519l-.178-.127,7.9-2.173,15.145-4.146-.091.162-4.044-14.8-1.126-4.208-.289-1.117-.069-.289a.373.373,0,0,1-.017-.1" transform="translate(-161.076 -113.466)" fill="#455a64"/>
            <path id="Trazado_807982" data-name="Trazado 807982" d="M355.332,216.522l18.086-1.383.528-19.674,4.105-11.522a10.778,10.778,0,0,1,6.521,10.028c.15,7.709.358,24.095-1,28.935a9.019,9.019,0,0,1-5.73,6.1l-24.1-3.239Z" transform="translate(-156.606 -81.435)" fill="#263238"/>
            <path id="Trazado_807983" data-name="Trazado 807983" d="M310.507,178.02a110.714,110.714,0,0,0-6.55,11.335c-3.016,6.1-13.421,22.68-13.12,25.861s4.072,9.1,4.072,9.1l9.048-.9-1.272-10.109,12.853-25.383Z" transform="translate(-128.756 -78.812)" fill="#263238"/>
            <path id="Trazado_807984" data-name="Trazado 807984" d="M375.459,206.489a1.816,1.816,0,0,1,.014.374c0,.275-.011.631-.018,1.072-.028.966-.069,2.3-.118,3.941-.129,3.358-.3,7.938-.5,13,0,.086-.007.173-.011.252l-.006.129-.128.01-12.8.995-3.873.268-1.053.059a1.754,1.754,0,0,1-.368,0,1.721,1.721,0,0,1,.364-.059l1.049-.113,3.866-.359,12.8-1.081-.133.139c0-.08.007-.165.01-.252.227-5.059.433-9.638.584-12.995.087-1.636.158-2.973.21-3.937.03-.441.053-.8.072-1.07a1.814,1.814,0,0,1,.045-.372" transform="translate(-157.871 -91.416)" fill="#455a64"/>
            <path id="Trazado_807985" data-name="Trazado 807985" d="M318.611,191.237a1.985,1.985,0,0,1-.061.387l-.23,1.1c-.207.951-.5,2.329-.845,4.035-.7,3.41-1.576,8.139-2.421,13.383s-1.51,10.01-1.973,13.461c-.228,1.7-.414,3.088-.547,4.087-.065.459-.117.828-.157,1.111a2.052,2.052,0,0,1-.074.385,1.94,1.94,0,0,1,.016-.391c.026-.285.06-.655.1-1.117.095-.969.248-2.37.455-4.1.411-3.459,1.046-8.23,1.89-13.481s1.756-9.976,2.507-13.379c.371-1.7.7-3.075.936-4.019.117-.449.211-.809.283-1.086a1.993,1.993,0,0,1,.118-.374" transform="translate(-138.26 -84.664)" fill="#455a64"/>
            <path id="Trazado_807986" data-name="Trazado 807986" d="M394.439,186.167A14.385,14.385,0,0,0,390.793,194a4.021,4.021,0,0,1,.054-1.3,10.93,10.93,0,0,1,2.631-5.648,4.025,4.025,0,0,1,.961-.879" transform="translate(-172.998 -82.419)" fill="#455a64"/>
            <path id="Trazado_807987" data-name="Trazado 807987" d="M372.724,178.194a1.405,1.405,0,0,1-.008.319c-.017.207-.037.514-.082.909-.082.789-.233,1.931-.486,3.339a54.126,54.126,0,0,1-3.163,10.829l-.044.108-.115-.02-1.431-.26-.686-.124.137-.236a5.757,5.757,0,0,1,1.618,2.995,3.469,3.469,0,0,1-.287,1.623c-.2.495-.429.949-.636,1.4l-2.248,4.782-1.532,3.2-.429.862a1.48,1.48,0,0,1-.167.292,1.53,1.53,0,0,1,.115-.316c.1-.23.225-.523.38-.884l1.449-3.24,2.191-4.808a6.138,6.138,0,0,0,.882-2.889,5.541,5.541,0,0,0-1.559-2.833l-.26-.309.4.072.685.124,1.431.26-.159.087a58.218,58.218,0,0,0,3.237-10.755c.278-1.4.458-2.533.573-3.317.055-.367.1-.665.134-.9a1.38,1.38,0,0,1,.064-.313" transform="translate(-160.778 -78.889)" fill="#455a64"/>
            <path id="Trazado_807988" data-name="Trazado 807988" d="M331.932,204.894a1.163,1.163,0,0,1-.023-.3c-.005-.2-.012-.485-.009-.858.012-.745.052-1.823.18-3.15a78.312,78.312,0,0,1,1.844-10.235c.469-1.976.9-3.86,1.378-5.559a29.964,29.964,0,0,1,1.561-4.416,16.835,16.835,0,0,1,1.552-2.752c.209-.309.395-.532.518-.684a1.167,1.167,0,0,1,.2-.222c.022.017-.23.343-.626.97a19.261,19.261,0,0,0-1.458,2.773,32.1,32.1,0,0,0-1.491,4.4c-.459,1.692-.884,3.579-1.353,5.554a90.828,90.828,0,0,0-1.923,10.192c-.153,1.318-.224,2.391-.271,3.132-.018.344-.033.627-.046.855a1.168,1.168,0,0,1-.035.3" transform="translate(-146.937 -78.235)" fill="#455a64"/>
            <path id="Trazado_807989" data-name="Trazado 807989" d="M393.481,244.014a8.2,8.2,0,0,0-5.053-4.143,2.4,2.4,0,0,1,1,.163,6.413,6.413,0,0,1,3.7,3.036,2.394,2.394,0,0,1,.355.945" transform="translate(-171.963 -106.189)" fill="#455a64"/>
            <path id="Trazado_807990" data-name="Trazado 807990" d="M285.518,217.764c.069.207,14.008,26.567,14.008,26.567h21.6l-9.8-24.841a83.765,83.765,0,0,1-15.118.448,50.374,50.374,0,0,1-10.689-2.173" transform="translate(-126.404 -96.408)" fill="#fafafa"/>
            <path id="Trazado_807991" data-name="Trazado 807991" d="M285.518,217.763a.7.7,0,0,1,.118.028l.344.1,1.344.374c1.181.311,2.922.745,5.17,1.118,4.487.812,11.061.874,18.814-.02l.1-.011.036.09,9.6,24.3c.071.18.142.36.212.537l.079.2h-.213l-21.6-.014h-.08l-.036-.07-10.082-19.2-2.835-5.464-.738-1.454c-.168-.334-.24-.522-.237-.509l.275.489.774,1.436,2.9,5.429,10.175,19.151-.116-.07,21.6-.014-.135.2-.212-.537-9.569-24.311.133.079c-7.781.872-14.371.772-18.872-.085a50.462,50.462,0,0,1-5.166-1.189c-.588-.168-1.035-.311-1.335-.41l-.338-.118a.861.861,0,0,1-.112-.047" transform="translate(-126.403 -96.407)" fill="#263238"/>
            <path id="Trazado_807992" data-name="Trazado 807992" d="M342.836,238.911l-1.593.1s-5.264-4.9-6.023-4.9a19.7,19.7,0,0,0-3.042.65l.642,1.627a39.955,39.955,0,0,0-5.053,0c-1.173.207-2.553.828-2.07,2.277,0,0-.966,1.587,1.035,2.346,0,0-.475.845.7,1.612a4,4,0,0,0,.611.32c1.932.828,1.794.993,1.794.993a2.731,2.731,0,0,0,.759,1.56c.69.69,4.582,2.172,6.707,2.259a13.165,13.165,0,0,0,4.057-.534Z" transform="translate(-144.089 -103.644)" fill="#ffc09d"/>
            <path id="Trazado_807993" data-name="Trazado 807993" d="M343.039,238.053a18.126,18.126,0,0,1-4.575-.009,18.128,18.128,0,0,1,4.575.009" transform="translate(-149.844 -105.324)" fill="#ff9b6c"/>
            <path id="Trazado_807994" data-name="Trazado 807994" d="M336.546,243.034a8.671,8.671,0,0,1-1.538-.059l-3.694-.249-3.7-.191a8.731,8.731,0,0,1-1.534-.123,7.542,7.542,0,0,1,1.538-.082c.95-.007,2.263.021,3.711.106s2.755.215,3.7.334a7.571,7.571,0,0,1,1.517.264" transform="translate(-144.362 -107.283)" fill="#ff9b6c"/>
            <path id="Trazado_807995" data-name="Trazado 807995" d="M334.9,247.708a50.159,50.159,0,0,1-7.544-1.067,50.131,50.131,0,0,1,7.544,1.067" transform="translate(-144.924 -109.184)" fill="#ff9b6c"/>
            <path id="Trazado_807996" data-name="Trazado 807996" d="M337.012,252.158a8.155,8.155,0,0,1-3.949-.678,50.074,50.074,0,0,1,3.949.678" transform="translate(-147.452 -111.327)" fill="#ff9b6c"/>
            <path id="Trazado_807997" data-name="Trazado 807997" d="M300.25,254.257s-.138-2.342,1.311-2.553c1.465-.213,6.287-.6,5.131,2.546,0,0,3.63-.464,3.975.778s-.347,1.528-.347,1.528,1.128.945,0,1.768a5.742,5.742,0,0,1-2.383.97s1,.938.11,1.449c-.729.421-5.175,2.346-6.486-2.07Z" transform="translate(-132.924 -111.372)" fill="#ffc09d"/>
            <path id="Trazado_807998" data-name="Trazado 807998" d="M313.7,260.348a40.429,40.429,0,0,1-6.725,1.242,40.3,40.3,0,0,1,6.725-1.242" transform="translate(-135.902 -115.253)" fill="#ff9b6c"/>
            <path id="Trazado_807999" data-name="Trazado 807999" d="M304.668,256.532a16.644,16.644,0,0,1,4.379-.284,16.652,16.652,0,0,1-4.379.284" transform="translate(-134.882 -113.418)" fill="#ff9b6c"/>
            <path id="Trazado_808000" data-name="Trazado 808000" d="M308.788,266.268a25.211,25.211,0,0,1,3.669-1.248,8.809,8.809,0,0,1-3.669,1.248" transform="translate(-136.705 -117.324)" fill="#ff9b6c"/>
            <g id="Grupo_1067288" data-name="Grupo 1067288" transform="translate(164.673 153.938)" opacity="0.3">
              <g id="Grupo_1067287" data-name="Grupo 1067287">
                <g id="Grupo_1067286" data-name="Grupo 1067286" clip-path="url(#clip-path-10)">
                  <path id="Trazado_808001" data-name="Trazado 808001" d="M301.1,276.235l-5.6,3.214,61.481,2.514-1.588-5.734Z" transform="translate(-295.493 -276.229)"/>
                </g>
              </g>
            </g>
            <path id="Trazado_808002" data-name="Trazado 808002" d="M350.477,190.626a3.488,3.488,0,0,0-.25-1.4,1.641,1.641,0,0,0-.39-.557c-.171-.144-.388-.064-.584.144a7.209,7.209,0,0,0-1.092,1.557,7.315,7.315,0,0,0-.478,1.142l-.09.279-.16-.242a6.556,6.556,0,0,1-1-2.522,2.779,2.779,0,0,1-.042-1.073c.04,0,.065.4.218,1.037a7.28,7.28,0,0,0,1.056,2.4l-.251.037a6.989,6.989,0,0,1,.488-1.193,6.852,6.852,0,0,1,1.161-1.613.969.969,0,0,1,.427-.262.559.559,0,0,1,.493.119,1.746,1.746,0,0,1,.43.665,2.358,2.358,0,0,1,.162,1.089c-.026.26-.084.393-.1.39" transform="translate(-153.341 -83.212)" fill="#263238"/>
            <path id="Trazado_808003" data-name="Trazado 808003" d="M362.762,188.755a9.125,9.125,0,0,1-1.037,1.268c-.668.758-1.606,1.792-2.654,2.921l-.794.852-.189.2-.054-.271a22.719,22.719,0,0,0-.832-3.02,9.3,9.3,0,0,1-.4-1.2,4.729,4.729,0,0,1,.576,1.13,16.908,16.908,0,0,1,.939,3.029l-.243-.068.79-.855c1.048-1.13,2.009-2.141,2.716-2.863a9.164,9.164,0,0,1,1.187-1.129" transform="translate(-157.959 -83.564)" fill="#263238"/>
            <path id="Trazado_808004" data-name="Trazado 808004" d="M334.12,111.46c2.212-.745,4.594,1.186,6.871.673,1.383-.312,2.4-1.453,3.619-2.178a7.142,7.142,0,0,1,6.348-.421c1.916.906,3.163,1.9,3.48,3.992,1.691-1.036,4.622,1.048,5.658,3.109s.852,4.227.361,6.481a30.427,30.427,0,0,1-4.729,10.853c-.2.289-.524.611-.847.471a.767.767,0,0,1-.348-.607,25.466,25.466,0,0,1-.067-6.2,15.405,15.405,0,0,0-.563-6.151,6.018,6.018,0,0,0-4.343-4.045,6.573,6.573,0,0,0-4.371,1.066c-1.314.787-2.459,1.823-3.706,2.713a8.455,8.455,0,0,1-4.182,1.758,4.011,4.011,0,0,1-3.88-1.932,2.67,2.67,0,0,1,1.473-3.717,3.011,3.011,0,0,1-.771-5.858" transform="translate(-147.014 -48.246)" fill="#263238"/>
            <path id="Trazado_808005" data-name="Trazado 808005" d="M339.489,138.229c-.016-2.837.427-8.68.889-13.966a10.947,10.947,0,0,1,10.98-9.994l.567,0c6.109.4,8.471,6.04,7.9,12.136l-.636,19.474-11.173,10.681-2.327-6.4-.474-5.148s-5.7-.918-5.728-6.793" transform="translate(-150.297 -50.589)" fill="#ffc09d"/>
            <path id="Trazado_808006" data-name="Trazado 808006" d="M349.768,167.79a13.889,13.889,0,0,0,7.84-2.094s-1.849,4.109-7.707,3.54Z" transform="translate(-154.848 -73.356)" fill="#ff9b6c"/>
            <path id="Trazado_808007" data-name="Trazado 808007" d="M345.616,141.7a.839.839,0,0,0,.8.852.8.8,0,0,0,.87-.751.84.84,0,0,0-.8-.853.8.8,0,0,0-.87.751" transform="translate(-153.01 -62.401)" fill="#263238"/>
            <path id="Trazado_808008" data-name="Trazado 808008" d="M343.306,136.679c.1.11.742-.356,1.645-.348s1.562.465,1.66.355c.049-.049-.056-.247-.343-.459a2.3,2.3,0,0,0-1.328-.419,2.213,2.213,0,0,0-1.31.414c-.279.211-.374.408-.323.458" transform="translate(-151.981 -60.124)" fill="#263238"/>
            <path id="Trazado_808009" data-name="Trazado 808009" d="M361.319,141.7a.839.839,0,0,0,.8.852.8.8,0,0,0,.87-.751.84.84,0,0,0-.8-.853.8.8,0,0,0-.87.751" transform="translate(-159.962 -62.401)" fill="#263238"/>
            <path id="Trazado_808010" data-name="Trazado 808010" d="M359.227,137.088c.1.11.742-.356,1.645-.347s1.561.464,1.66.354c.048-.048-.055-.247-.343-.459a2.3,2.3,0,0,0-1.328-.42,2.208,2.208,0,0,0-1.31.414c-.279.211-.375.408-.324.458" transform="translate(-159.03 -60.306)" fill="#263238"/>
            <path id="Trazado_808011" data-name="Trazado 808011" d="M351.453,143.781a5.973,5.973,0,0,0-1.464-.275c-.231-.025-.449-.072-.486-.23a1.175,1.175,0,0,1,.159-.682l.693-1.75a30.154,30.154,0,0,0,1.562-4.581,30.2,30.2,0,0,0-1.927,4.444q-.348.922-.665,1.761a1.337,1.337,0,0,0-.125.9.578.578,0,0,0,.377.34,1.536,1.536,0,0,0,.391.057,5.862,5.862,0,0,0,1.486.012" transform="translate(-154.578 -60.325)" fill="#263238"/>
            <path id="Trazado_808012" data-name="Trazado 808012" d="M359.128,128.951c.087.246.99.136,2.047.271,1.061.113,1.913.429,2.055.21.064-.105-.084-.337-.428-.577a3.588,3.588,0,0,0-3.125-.366c-.39.154-.587.346-.549.462" transform="translate(-158.99 -56.794)" fill="#263238"/>
            <path id="Trazado_808013" data-name="Trazado 808013" d="M343.925,131.951c.158.206.781,0,1.529-.008.748-.031,1.38.147,1.527-.066.065-.1-.033-.309-.309-.505a2.213,2.213,0,0,0-2.463.06c-.265.209-.353.42-.284.52" transform="translate(-152.251 -58.008)" fill="#263238"/>
            <path id="Trazado_808014" data-name="Trazado 808014" d="M375.518,143.242c.1-.042,4.509-1.131,4.353,2.885s-4.155,3.031-4.157,2.916-.2-5.8-.2-5.8" transform="translate(-166.248 -63.342)" fill="#ffc09d"/>
            <path id="Trazado_808015" data-name="Trazado 808015" d="M378.174,148.636c.018-.012.068.052.184.11a.7.7,0,0,0,.522.031,1.732,1.732,0,0,0,.861-1.522,2.314,2.314,0,0,0-.157-1.009.809.809,0,0,0-.505-.557.356.356,0,0,0-.42.176c-.058.11-.036.191-.057.2s-.084-.071-.045-.235a.445.445,0,0,1,.168-.246.528.528,0,0,1,.391-.087.983.983,0,0,1,.707.651,2.369,2.369,0,0,1,.2,1.128,1.816,1.816,0,0,1-1.087,1.694.749.749,0,0,1-.636-.131c-.12-.1-.138-.195-.124-.2" transform="translate(-167.422 -64.41)" fill="#ff9b6c"/>
            <path id="Trazado_808016" data-name="Trazado 808016" d="M340.071,118.006a7.665,7.665,0,0,1,2.485-2.824,13.086,13.086,0,0,1,7.607-2.663,10.657,10.657,0,0,1,7.455,2.875,11.254,11.254,0,0,1,3.053,5.7,19.937,19.937,0,0,1,.265,7.156c-.176.943-.71,1.281-1.378,1.971a1.275,1.275,0,0,1-1.6.342,1.6,1.6,0,0,1-.461-.93c-.752-3.1-1.492-6.442-.337-9.42a9.215,9.215,0,0,0-2.749-2.561,4.771,4.771,0,0,0-3.645-.524c-1.794.539-2.909,2.273-4.346,3.475a8.485,8.485,0,0,1-7.548,1.647Z" transform="translate(-150.023 -49.814)" fill="#263238"/>
            <path id="Trazado_808017" data-name="Trazado 808017" d="M378.327,129.348c-.006-.044-.431.005-1.11-.045a7.215,7.215,0,0,1-4.68-2.22c-.468-.494-.7-.854-.737-.831a2.927,2.927,0,0,0,.6.951,6.494,6.494,0,0,0,4.806,2.28,2.938,2.938,0,0,0,1.117-.135" transform="translate(-164.602 -55.893)" fill="#e0e0e0"/>
            <path id="Trazado_808018" data-name="Trazado 808018" d="M378.108,131.934c0-.044-.459-.085-1.176-.268a8.9,8.9,0,0,1-4.758-3.075c-.461-.579-.688-.984-.727-.962a3.514,3.514,0,0,0,.583,1.071,7.916,7.916,0,0,0,4.862,3.142,3.52,3.52,0,0,0,1.216.091" transform="translate(-164.445 -56.503)" fill="#e0e0e0"/>
            <path id="Trazado_808019" data-name="Trazado 808019" d="M335.374,126.32a1.272,1.272,0,0,0,.223.674,3.236,3.236,0,0,0,2.849,1.683,1.275,1.275,0,0,0,.7-.13,4.35,4.35,0,0,0-.689-.05,3.613,3.613,0,0,1-2.7-1.6c-.237-.347-.339-.594-.377-.58" transform="translate(-148.472 -55.924)" fill="#e0e0e0"/>
            <path id="Trazado_808020" data-name="Trazado 808020" d="M334.526,127.8a1.3,1.3,0,0,0,.223.644,3.753,3.753,0,0,0,2.625,1.86,1.291,1.291,0,0,0,.682,0,4.9,4.9,0,0,1-3.531-2.5" transform="translate(-148.097 -56.581)" fill="#e0e0e0"/>
            <path id="Trazado_808021" data-name="Trazado 808021" d="M355.251,151.709a15.476,15.476,0,0,0-2.48,1.2l-.84.482c.377.456.8,1.228,1.306,1.423a1.79,1.79,0,0,0,1.74-.28,2.051,2.051,0,0,0,.457-1.336,6.815,6.815,0,0,0-.182-1.486" transform="translate(-155.805 -67.164)" fill="#ff9b6c"/>
            <path id="Trazado_808022" data-name="Trazado 808022" d="M352.253,153.755c.023-.013.088.113.249.293a1.5,1.5,0,0,0,.852.49,1.887,1.887,0,0,0,1.4-.307,1.829,1.829,0,0,0,.493-1.633,4.547,4.547,0,0,0-.273-1.072l.187.072c-.969.492-1.817.911-2.428,1.2a4.867,4.867,0,0,1-1,.418,4.884,4.884,0,0,1,.917-.571c.589-.33,1.422-.78,2.383-1.285l.132-.069.055.141a4.589,4.589,0,0,1,.3,1.137,1.76,1.76,0,0,1-2.206,2.161,1.51,1.51,0,0,1-.895-.614.76.76,0,0,1-.164-.359" transform="translate(-155.719 -66.979)" fill="#263238"/>
          </g>
        </g>
        <rect id="Rectángulo_375345" data-name="Rectángulo 375345" width="6.798" height="83.6" transform="translate(324.611 150.348)" fill="#e0e0e0"/>
        <rect id="Rectángulo_375346" data-name="Rectángulo 375346" width="6.798" height="89.69" transform="translate(135.634 144.258)" fill="#e0e0e0"/>
        <rect id="Rectángulo_375347" data-name="Rectángulo 375347" width="222.878" height="10.809" transform="translate(123.325 143.129)" fill="#6f4439"/>
        <rect id="Rectángulo_375348" data-name="Rectángulo 375348" width="34.773" height="3.528" transform="translate(220.402 139.635)" fill="#e0e0e0"/>
        <g id="Grupo_1067292" data-name="Grupo 1067292">
          <g id="Grupo_1067291" data-name="Grupo 1067291" clip-path="url(#clip-path)">
            <path id="Trazado_808023" data-name="Trazado 808023" d="M418.252,252.655c0,.08-5.055.145-11.289.145s-11.291-.065-11.291-.145,5.054-.145,11.291-.145,11.289.065,11.289.145" transform="translate(-175.171 -111.79)" fill="#263238"/>
            <path id="Trazado_808024" data-name="Trazado 808024" d="M424.327,254.4c0,.08-5.055.145-11.289.145s-11.291-.065-11.291-.145,5.054-.145,11.291-.145,11.289.065,11.289.145" transform="translate(-177.86 -112.563)" fill="#263238"/>
          </g>
        </g>
        <g id="Grupo_1067303" data-name="Grupo 1067303">
          <g id="Grupo_1067302" data-name="Grupo 1067302" clip-path="url(#clip-path)">
            <path id="Trazado_808025" data-name="Trazado 808025" d="M24.658,63.583l0-.007a13.983,13.983,0,1,1,2.633-4.281l1.451,4.074Z" transform="translate(-0.102 -17.805)" fill="#fff"/>
            <path id="Trazado_808026" data-name="Trazado 808026" d="M24.557,63.482s.081,0,.254,0l.777-.028,3.059-.121.08,0-.027-.077-1.428-4.083v.059a14,14,0,0,0,.845-7.037c-.08-.67-.274-1.336-.427-2.027a15.677,15.677,0,0,0-.777-2.03,13.932,13.932,0,0,0-2.6-3.811,14.137,14.137,0,0,0-19.492-.826,14.024,14.024,0,0,0-2.973,3.629A14.633,14.633,0,0,0,.264,51.395a14.243,14.243,0,0,0,.959,8.459,14.194,14.194,0,0,0,4.944,5.931,14.472,14.472,0,0,0,6.322,2.353,14.343,14.343,0,0,0,5.557-.481,13.736,13.736,0,0,0,3.821-1.786,13.389,13.389,0,0,0,2.063-1.7c.217-.216.374-.39.476-.51a1.571,1.571,0,0,0,.154-.187h0l0,.007,0-.007h0a1.589,1.589,0,0,0-.176.167c-.109.113-.273.28-.5.488A14.265,14.265,0,0,1,21.8,65.776,13.85,13.85,0,0,1,18,67.5a14.274,14.274,0,0,1-5.488.434A14.316,14.316,0,0,1,6.3,65.587a13.975,13.975,0,0,1-4.836-5.841,14,14,0,0,1-.925-8.3A14.387,14.387,0,0,1,2.1,47.265a13.905,13.905,0,0,1,13.121-6.949A13.994,13.994,0,0,1,24.127,44.5,13.732,13.732,0,0,1,26.7,48.232a15.6,15.6,0,0,1,.774,1.992c.154.679.349,1.334.431,1.993a13.9,13.9,0,0,1-.785,6.947l-.011.03.011.029c.572,1.58,1.069,2.952,1.473,4.066l.053-.08-3.01.2-.794.055c-.181.013-.28.023-.28.023" transform="translate(0 -17.704)" fill="#263238"/>
            <path id="Trazado_808027" data-name="Trazado 808027" d="M21.9,61.7a4.554,4.554,0,1,1,4.16-.031,4.519,4.519,0,0,1-4.16.031M20.159,55.72a4.25,4.25,0,1,0,1.823-1.847,4.217,4.217,0,0,0-1.823,1.847" transform="translate(-8.587 -23.501)" fill="#263238"/>
            <path id="Trazado_808028" data-name="Trazado 808028" d="M17.673,73.406h0a.566.566,0,0,0,.771-.212l2.8-4.926a.1.1,0,0,0-.036-.132l-.648-.369a.1.1,0,0,0-.131.034l-2.959,4.818a.566.566,0,0,0,.2.787" transform="translate(-7.698 -29.996)" fill="#263238"/>
            <path id="Trazado_808029" data-name="Trazado 808029" d="M21.686,61.291a4.554,4.554,0,1,1,4.16-.031,4.519,4.519,0,0,1-4.16.031m-1.738-5.976a4.25,4.25,0,1,0,1.823-1.847,4.219,4.219,0,0,0-1.823,1.847" transform="translate(-8.493 -23.322)" fill="#1969d5"/>
            <path id="Trazado_808030" data-name="Trazado 808030" d="M17.531,73.143h0a.469.469,0,0,0,.639-.176l2.965-5.214-.815-.463L17.355,72.5a.468.468,0,0,0,.176.639" transform="translate(-7.656 -29.79)" fill="#1969d5"/>
            <path id="Trazado_808031" data-name="Trazado 808031" d="M166.574,109.827c-2.037-.241-5.221-1.229-7.489.273s-8.806,15.339-8.806,15.339l7.852,5.882,5.347-15.275a40.021,40.021,0,0,0,7.53-1.378,10.337,10.337,0,0,0,5.6-4.514s2-3.613.273-4.036c-.81-.2-1.388.9-1.917,1.749a9.241,9.241,0,0,1-1.286,1.639l-1.746,1.389s1.378-1.539.655-2.21-1.142-.45-2.149-.134-3.863,1.276-3.863,1.276" transform="translate(-66.531 -46.97)" fill="#ffc09d"/>
            <path id="Trazado_808032" data-name="Trazado 808032" d="M171.268,113.744a6.885,6.885,0,0,1,1.53,0c.938.111,2.169.675,3.655.878a9.461,9.461,0,0,0,3.788-.1,4.581,4.581,0,0,0,1.075-.428c.235-.14.352-.237.341-.253a13.863,13.863,0,0,1-1.467.467,10.686,10.686,0,0,1-3.691.005c-1.433-.192-2.681-.725-3.675-.789a3.484,3.484,0,0,0-1.159.063.9.9,0,0,0-.4.152" transform="translate(-75.823 -50.253)" fill="#ff9b6c"/>
            <path id="Trazado_808033" data-name="Trazado 808033" d="M181.069,114.742a1.282,1.282,0,0,0,.441.127,5.865,5.865,0,0,0,1.247.069,6.852,6.852,0,0,0,3.83-1.435,9.182,9.182,0,0,0,1.543-1.656,1.782,1.782,0,0,1,1.447-.776.857.857,0,0,1,.763.7,1.218,1.218,0,0,1-.043.425c0,.013.17-.111.164-.437a.963.963,0,0,0-.2-.529.985.985,0,0,0-.656-.38,1.974,1.974,0,0,0-1.691.806,9.843,9.843,0,0,1-1.519,1.6,7.191,7.191,0,0,1-3.655,1.461c-1.024.1-1.663-.032-1.671.024" transform="translate(-80.162 -49.069)" fill="#ff9b6c"/>
            <path id="Trazado_808034" data-name="Trazado 808034" d="M91.342,61.25a2.524,2.524,0,0,0,.818-4.955,2.626,2.626,0,0,0-2.511-4.306,3.143,3.143,0,0,0-4.863-2.331,3.533,3.533,0,0,0-4.349.134,2.513,2.513,0,0,0-2,4.37" transform="translate(-34.357 -21.682)" fill="#263238"/>
            <path id="Trazado_808035" data-name="Trazado 808035" d="M75.535,54.922l.554-.027A10.709,10.709,0,0,1,87.24,64.2c.673,5.147,1.351,10.843,1.455,13.617.214,5.744-5.483,6.922-5.483,6.922l.828,6.872L69.828,88.988,67.612,66.92c-.81-5.935,1.968-11.353,7.923-12" transform="translate(-29.872 -24.297)" fill="#ffc09d"/>
            <path id="Trazado_808036" data-name="Trazado 808036" d="M89.69,107a13.881,13.881,0,0,1-7.584-1.838s2.064,4.148,7.766,3.347Z" transform="translate(-36.35 -46.556)" fill="#ff9b6c"/>
            <path id="Trazado_808037" data-name="Trazado 808037" d="M99.307,81.763a.821.821,0,0,1-.75.867.785.785,0,0,1-.882-.7.821.821,0,0,1,.748-.867.786.786,0,0,1,.883.7" transform="translate(-43.241 -35.887)" fill="#263238"/>
            <path id="Trazado_808038" data-name="Trazado 808038" d="M98.4,76.13c-.1.112-.74-.317-1.622-.271s-1.506.52-1.607.416c-.05-.046.044-.244.316-.463a2.249,2.249,0,0,1,1.281-.466,2.17,2.17,0,0,1,1.3.349c.281.2.383.384.335.434" transform="translate(-42.129 -33.357)" fill="#263238"/>
            <path id="Trazado_808039" data-name="Trazado 808039" d="M85.619,82.36a.82.82,0,0,1-.75.866.785.785,0,0,1-.882-.7.821.821,0,0,1,.748-.867.786.786,0,0,1,.883.7" transform="translate(-37.182 -36.151)" fill="#263238"/>
            <path id="Trazado_808040" data-name="Trazado 808040" d="M82.858,77.2c-.1.112-.741-.317-1.623-.27s-1.506.519-1.607.416c-.05-.045.043-.244.317-.463a2.251,2.251,0,0,1,1.28-.465,2.161,2.161,0,0,1,1.3.349c.281.194.383.383.335.434" transform="translate(-35.247 -33.83)" fill="#263238"/>
            <path id="Trazado_808041" data-name="Trazado 808041" d="M91.145,83.453a5.825,5.825,0,0,1,1.42-.33c.224-.034.435-.09.465-.245a1.153,1.153,0,0,0-.183-.66L92.1,80.535a29.434,29.434,0,0,1-1.719-4.412,29.547,29.547,0,0,1,2.07,4.264q.38.886.724,1.694a1.306,1.306,0,0,1,.161.878.565.565,0,0,1-.354.348,1.539,1.539,0,0,1-.38.072,5.772,5.772,0,0,1-1.452.074" transform="translate(-40.008 -33.701)" fill="#263238"/>
            <path id="Trazado_808042" data-name="Trazado 808042" d="M83.63,70.985c-.105.229-.873.025-1.806.041-.932-.005-1.708.21-1.805-.019-.042-.109.113-.318.44-.514a2.8,2.8,0,0,1,1.382-.363,2.694,2.694,0,0,1,1.369.347c.319.192.467.4.42.508" transform="translate(-35.423 -31.048)" fill="#263238"/>
            <path id="Trazado_808043" data-name="Trazado 808043" d="M97.865,69.567c-.176.21-.914.038-1.791.071-.877.008-1.61.215-1.791.014-.08-.1.027-.3.342-.51a2.854,2.854,0,0,1,1.438-.4,2.808,2.808,0,0,1,1.448.332c.319.191.431.392.354.494" transform="translate(-41.73 -30.433)" fill="#263238"/>
            <path id="Trazado_808044" data-name="Trazado 808044" d="M85.439,61.01s-1.693-3.52-3.468-4.273c-2.149-.911-2.938,1.437-4.965.977s-4.08-1.335-6.047.313c-2.153,1.8-1.046,2.938-1.058,5.492-.047,10.354-1.788,13.369-2.566,8.531-.085-.53-1.585-.88-1.916-3.121-.429-2.905-.718-6.445-.169-8.549a8.18,8.18,0,0,1,3.117-4.449c2.714-2.24,6.583-2.477,9.226-2.343s7.861,2.907,7.845,7.421" transform="translate(-28.754 -23.712)" fill="#263238"/>
            <path id="Trazado_808045" data-name="Trazado 808045" d="M66.838,85.29a1.559,1.559,0,0,0-1.757-1.418c-1.066.155-2.226.822-2.046,3.031.32,3.918,4.188,2.789,4.186,2.676,0-.076-.234-2.65-.383-4.288" transform="translate(-27.898 -37.125)" fill="#ffc09d"/>
            <path id="Trazado_808046" data-name="Trazado 808046" d="M67.324,89.188c-.018-.011-.065.053-.176.116a.682.682,0,0,1-.509.052,1.694,1.694,0,0,1-.906-1.451,2.26,2.26,0,0,1,.111-.993.791.791,0,0,1,.47-.566.35.35,0,0,1,.419.154c.061.105.043.186.064.191s.079-.072.034-.232a.438.438,0,0,0-.174-.233.517.517,0,0,0-.386-.069.962.962,0,0,0-.663.665,2.323,2.323,0,0,0-.147,1.112A1.777,1.777,0,0,0,66.6,89.544a.734.734,0,0,0,.616-.154c.113-.107.127-.2.113-.2" transform="translate(-28.975 -38.138)" fill="#ff9b6c"/>
            <path id="Trazado_808047" data-name="Trazado 808047" d="M66.212,63.205a3.73,3.73,0,0,0,1.7.685,1.281,1.281,0,0,0,1.375-.971c.033-.276-.05-.589.12-.809.2-.262.6-.2.932-.185,1.147.065,2.418-1.262,2.653-2.386a1.026,1.026,0,0,0,1.383.215,3.665,3.665,0,0,0,.9-.887,1.617,1.617,0,0,1,1.314-.741,3.9,3.9,0,0,0,.863.146c.513-.072.735-.688.787-1.2s.084-1.115.507-1.415a2.057,2.057,0,0,1,1.4-.109c.478.047,1.085-.1,1.184-.565a.935.935,0,0,0-.211-.7,2.545,2.545,0,0,0-3.048-.813,3.449,3.449,0,0,0-6.363-.353,3.5,3.5,0,0,0-5.526,1.553,2.537,2.537,0,0,0-2.674,3.828,2.409,2.409,0,0,0-1.229,1.982A1.38,1.38,0,0,0,63.914,61.8a1.405,1.405,0,0,0,2.5,1.279" transform="translate(-27.573 -22.648)" fill="#263238"/>
            <path id="Trazado_808048" data-name="Trazado 808048" d="M78.72,57.342a.214.214,0,0,1,0,.072c0,.047,0,.119-.015.211a2.483,2.483,0,0,1-.247.771,2.815,2.815,0,0,1-.824.971,2.615,2.615,0,0,1-1.585.538l.062-.09a1.425,1.425,0,0,1-.025,1.087,4.079,4.079,0,0,1-.624,1,2.96,2.96,0,0,1-.417.472,1.378,1.378,0,0,1-.611.261,1.435,1.435,0,0,1-1.286-.39l.145-.05a2.951,2.951,0,0,1-1.147,2.1,2.152,2.152,0,0,1-1.268.486,3.873,3.873,0,0,1-1.284-.216l.1-.051a3.091,3.091,0,0,1-.869,1.257,1.65,1.65,0,0,1-1.349.441A2.165,2.165,0,0,1,65.735,64.6l.091.037a2.019,2.019,0,0,1-1.339.265,2.19,2.19,0,0,1-.961-.372,1.886,1.886,0,0,1-.462-.458.923.923,0,0,1-.11-.2,2.372,2.372,0,0,0,.609.6,2.185,2.185,0,0,0,.936.333,1.939,1.939,0,0,0,1.262-.273l.072-.045.02.082a2.042,2.042,0,0,0,1.653,1.489,1.5,1.5,0,0,0,1.224-.413,2.953,2.953,0,0,0,.815-1.193l.027-.074.075.023a3.762,3.762,0,0,0,1.228.205,1.987,1.987,0,0,0,1.171-.453,2.789,2.789,0,0,0,1.085-1.978l.016-.187.129.138a1.276,1.276,0,0,0,1.135.344,1.217,1.217,0,0,0,.541-.227,2.841,2.841,0,0,0,.393-.442,3.97,3.97,0,0,0,.611-.956,1.289,1.289,0,0,0,.037-.985l-.037-.092.1,0a2.529,2.529,0,0,0,1.52-.492,2.8,2.8,0,0,0,.821-.921,3.031,3.031,0,0,0,.324-1.019" transform="translate(-27.87 -25.386)" fill="#455a64"/>
            <path id="Trazado_808049" data-name="Trazado 808049" d="M89.185,92.97c-.03-.145-.985.1-1.878-.534s-1.056-1.683-1.191-1.655c-.064,0-.125.275-.024.708a2.458,2.458,0,0,0,.94,1.4,2.143,2.143,0,0,0,1.559.387c.409-.069.617-.237.595-.3" transform="translate(-38.09 -40.19)" fill="#263238"/>
            <path id="Trazado_808050" data-name="Trazado 808050" d="M79,379.514,75.5,391.659s11.167,7.642,10.738,9.95l-23.792-5.952,4.686-19.147Z" transform="translate(-27.645 -166.687)" fill="#455a64"/>
            <path id="Trazado_808051" data-name="Trazado 808051" d="M72.377,398.533a1,1,0,0,0-.949.941.962.962,0,0,0,.924.949,1.056,1.056,0,0,0,1-1,1,1,0,0,0-1.071-.881" transform="translate(-31.622 -176.433)" fill="#e0e0e0"/>
            <g id="Grupo_1067295" data-name="Grupo 1067295" transform="translate(34.799 227.058)" opacity="0.6">
              <g id="Grupo_1067294" data-name="Grupo 1067294">
                <g id="Grupo_1067293" data-name="Grupo 1067293" clip-path="url(#clip-path-13)">
                  <path id="Trazado_808052" data-name="Trazado 808052" d="M62.445,409.348l.548-1.911L85.6,413.858s.944.726.638,1.442Z" transform="translate(-62.445 -407.437)" fill="#fff"/>
                </g>
              </g>
            </g>
            <path id="Trazado_808053" data-name="Trazado 808053" d="M84.632,403.45c-.033.115-.627.023-1.292.253-.672.213-1.092.643-1.187.57-.1-.05.245-.7,1.056-.965s1.475.042,1.423.142" transform="translate(-36.363 -178.503)" fill="#263238"/>
            <path id="Trazado_808054" data-name="Trazado 808054" d="M89.049,406.541c0,.119-.554.191-1.072.583-.529.377-.761.884-.876.85-.114-.009-.024-.709.629-1.185s1.344-.359,1.319-.248" transform="translate(-38.543 -179.938)" fill="#263238"/>
            <path id="Trazado_808055" data-name="Trazado 808055" d="M91.779,411.194c-.112,0-.128-.622.329-1.184s1.064-.679,1.089-.57c.042.112-.4.365-.765.832s-.536.939-.654.922" transform="translate(-40.603 -181.25)" fill="#263238"/>
            <path id="Trazado_808056" data-name="Trazado 808056" d="M85.508,397.912c-.075.094-.568-.2-1.236-.319s-1.232-.041-1.267-.155.56-.406,1.345-.254,1.238.652,1.158.729" transform="translate(-36.747 -175.821)" fill="#263238"/>
            <path id="Trazado_808057" data-name="Trazado 808057" d="M67.422,386.93l-.552,12.629s12.651,4.8,12.776,7.145l-24.524-.191.053-19.712Z" transform="translate(-24.403 -171.243)" fill="#455a64"/>
            <path id="Trazado_808058" data-name="Trazado 808058" d="M62.038,407.648a1,1,0,0,0-.7,1.137.964.964,0,0,0,1.122.706,1.057,1.057,0,0,0,.736-1.209,1,1,0,0,0-1.248-.6" transform="translate(-27.146 -180.455)" fill="#e0e0e0"/>
            <g id="Grupo_1067298" data-name="Grupo 1067298" transform="translate(30.719 233.283)" opacity="0.6">
              <g id="Grupo_1067297" data-name="Grupo 1067297">
                <g id="Grupo_1067296" data-name="Grupo 1067296" clip-path="url(#clip-path-14)">
                  <path id="Trazado_808059" data-name="Trazado 808059" d="M55.122,420.595l.083-1.987,23.482.926s1.088.483.959,1.252Z" transform="translate(-55.122 -418.608)" fill="#fff"/>
                </g>
              </g>
            </g>
            <path id="Trazado_808060" data-name="Trazado 808060" d="M75.134,409.384c-.005.12-.6.169-1.2.55-.6.365-.91.881-1.02.833-.11-.025.074-.739.8-1.187s1.444-.306,1.417-.2" transform="translate(-32.269 -181.191)" fill="#263238"/>
            <path id="Trazado_808061" data-name="Trazado 808061" d="M80.218,411.38c.026.116-.494.316-.9.819s-.532,1.038-.651,1.032c-.113.018-.19-.684.333-1.3s1.222-.665,1.223-.551" transform="translate(-34.788 -182.103)" fill="#263238"/>
            <path id="Trazado_808062" data-name="Trazado 808062" d="M83.987,415.328c-.109.025-.271-.575.042-1.228s.874-.91.924-.81c.067.1-.3.448-.547.989s-.3,1.039-.419,1.05" transform="translate(-37.12 -182.961)" fill="#263238"/>
            <path id="Trazado_808063" data-name="Trazado 808063" d="M74.545,403.936c-.051.109-.6-.061-1.276-.02s-1.207.25-1.268.147c-.069-.088.449-.527,1.247-.563s1.357.343,1.3.436" transform="translate(-31.873 -178.634)" fill="#263238"/>
            <path id="Trazado_808064" data-name="Trazado 808064" d="M49.731,221.213V231.2l2.682,38.9s-1.669,18.871-2.694,29.523c-.89,9.251.565,25.363.565,25.363h15.61l5.585-53.73,3.467-33.509,6.031-15.251Z" transform="translate(-21.884 -97.935)" fill="#263238"/>
            <path id="Trazado_808065" data-name="Trazado 808065" d="M97.333,223.325l.474,51.126a17.259,17.259,0,0,1-1.17,6.407L82.046,318.4l-.726,2.447-9.326-2.255,6.936-96.158Z" transform="translate(-31.873 -98.476)" fill="#263238"/>
            <path id="Trazado_808066" data-name="Trazado 808066" d="M87.981,251.6a1.443,1.443,0,0,1,.005.226c0,.163-.008.382-.013.662-.018.6-.044,1.452-.079,2.544-.062,2.21-.221,5.4-.445,9.35-.471,7.891-1.35,18.779-2.72,30.761-1.349,11.989-2.837,22.809-3.927,30.636-.552,3.9-1,7.063-1.312,9.266-.16,1.081-.284,1.927-.371,2.518-.045.276-.079.493-.1.654a1.45,1.45,0,0,1-.045.221,1.32,1.32,0,0,1,.016-.226c.018-.162.043-.379.074-.658.075-.593.181-1.441.317-2.524.291-2.207.707-5.373,1.222-9.279,1.036-7.834,2.493-18.656,3.84-30.641,1.37-11.978,2.281-22.858,2.8-30.742.251-3.943.44-7.135.538-9.342.057-1.091.1-1.944.133-2.541.017-.279.031-.5.041-.661a1.31,1.31,0,0,1,.025-.225" transform="translate(-34.961 -111.387)" fill="#455a64"/>
            <path id="Trazado_808067" data-name="Trazado 808067" d="M95.638,226.6a.8.8,0,1,1-.8-.8.8.8,0,0,1,.8.8" transform="translate(-41.63 -99.963)" fill="#455a64"/>
            <path id="Trazado_808068" data-name="Trazado 808068" d="M118.267,233.593a5.07,5.07,0,0,1-1.1-1.032,12.377,12.377,0,0,1-2.947-6.582,5.092,5.092,0,0,1-.037-1.508c.048,0,.081.572.24,1.478a14.422,14.422,0,0,0,2.9,6.48c.57.722.976,1.128.942,1.164" transform="translate(-50.535 -99.377)" fill="#455a64"/>
            <path id="Trazado_808069" data-name="Trazado 808069" d="M99.478,116.786l13.729,5.541,4.414,4.325,7.845,11.636-19.738-1.641-.462,5.043Z" transform="translate(-44.041 -51.703)" fill="#e0e0e0"/>
            <path id="Trazado_808070" data-name="Trazado 808070" d="M57.319,109.119l-3.933,3.516s-11.688,5.622-11.641,6.31a291,291,0,0,1,3.42,39.011s-3.394,15.5-3.54,18.694c-.382,8.37-1.465,48.119-1.465,48.119l46.786,1.282-2.453-58.628.808-37.908L74.727,113.937l-2.477-2.37-5,4.33Z" transform="translate(-17.78 -48.309)" fill="#e0e0e0"/>
            <path id="Trazado_808071" data-name="Trazado 808071" d="M128.275,132.383l4.764-10.513,10.989,4.376s-3.228,9.175-3.859,10.98c-1.6,4.582-3.441,9.48-6.544,10.193-4.866,1.118-26.079-8.522-26.079-8.522l-3.961-16.24Z" transform="translate(-45.859 -53.954)" fill="#e0e0e0"/>
            <g id="Grupo_1067301" data-name="Grupo 1067301" transform="translate(25.172 97.628)" opacity="0.3">
              <g id="Grupo_1067300" data-name="Grupo 1067300">
                <g id="Grupo_1067299" data-name="Grupo 1067299" clip-path="url(#clip-path-15)">
                  <path id="Trazado_808072" data-name="Trazado 808072" d="M46.477,190.633a11.494,11.494,0,0,1,2.682-1.467c5.5-2.485,10.327-6.209,15.554-9.216s11.176-5.348,17.164-4.634l5.041,6.306s-1.259,2.21-2.958,2.37a20.655,20.655,0,0,1-4.371.035,7.589,7.589,0,0,0-4.935.9c-1.49,1.005-2.264,2.776-3.557,4.025-1.554,1.5-3.725,2.134-5.8,2.717l-13.256,3.714a9.424,9.424,0,0,1-4.059.517,2.861,2.861,0,0,1-1.5-5.265" transform="translate(-45.17 -175.186)"/>
                </g>
              </g>
            </g>
            <path id="Trazado_808073" data-name="Trazado 808073" d="M48.389,135.87l-2.771,19.108,12.09-4.812,4.7,12.966s-15.267,6.708-23.14,7.881c-3.808.567-9.132-4.085-8.751-8.8.988-12.23,4.472-33.586,4.472-33.586s2.478-5.081,6.7-4.5a6.4,6.4,0,0,1,3.767,2.094c3.333,3.479,2.935,9.652,2.935,9.652" transform="translate(-13.502 -54.932)" fill="#e0e0e0"/>
            <path id="Trazado_808074" data-name="Trazado 808074" d="M51.992,184.763a15.146,15.146,0,0,1,1.235-2.871,15.188,15.188,0,0,1,2.037-2.37,6.557,6.557,0,0,0-3.272,5.241" transform="translate(-23.009 -79.476)" fill="#263238"/>
            <path id="Trazado_808075" data-name="Trazado 808075" d="M34.893,132.239s-.027.1-.064.3-.089.5-.157.883l-.562,3.4c-.475,2.956-1.139,7.237-1.884,12.539-.368,2.652-.76,5.557-1.135,8.684-.183,1.563-.368,3.181-.536,4.85-.09.834-.156,1.683-.237,2.542a10.894,10.894,0,0,0-.036,1.321,7.489,7.489,0,0,0,.239,1.321,8.4,8.4,0,0,0,.458,1.277,10.2,10.2,0,0,0,.68,1.19,11.1,11.1,0,0,0,.835,1.1,11.859,11.859,0,0,0,1,.981,9.362,9.362,0,0,0,2.376,1.551,6.43,6.43,0,0,0,2.833.621,35.611,35.611,0,0,0,5.765-1.254c1.914-.554,3.831-1.194,5.76-1.87,4.233-1.506,8.293-3.134,12.145-4.8l.126-.055-.047-.13-4.712-12.961-.047-.13-.128.051-12.081,4.833.15.119c.833-5.891,1.509-10.667,1.978-13.984.225-1.643.4-2.925.522-3.808.055-.427.1-.757.128-.993s.033-.339.033-.339-.027.113-.065.335-.091.563-.159.988l-.581,3.8c-.492,3.314-1.2,8.085-2.076,13.97l-.028.189.179-.071,12.1-4.79-.176-.079,4.688,12.97.079-.184c-3.844,1.656-7.9,3.281-12.127,4.784-1.924.674-3.836,1.314-5.742,1.866a35.666,35.666,0,0,1-5.693,1.247,6.139,6.139,0,0,1-2.7-.592,9.075,9.075,0,0,1-2.308-1.5,11.633,11.633,0,0,1-.973-.953,10.833,10.833,0,0,1-.813-1.073,9.883,9.883,0,0,1-.662-1.152,8.13,8.13,0,0,1-.444-1.231,7.241,7.241,0,0,1-.232-1.268,10.564,10.564,0,0,1,.033-1.279c.079-.858.143-1.7.23-2.538.162-1.667.342-3.285.52-4.847.364-3.125.744-6.031,1.1-8.684.717-5.3,1.349-9.589,1.788-12.55l.507-3.41c.054-.381.1-.676.127-.888s.033-.3.033-.3" transform="translate(-13.406 -58.544)" fill="#263238"/>
            <path id="Trazado_808076" data-name="Trazado 808076" d="M49.329,124.655c0,.056.711.066,1.791.4a7.991,7.991,0,0,1,5.573,6.209c.213,1.11.147,1.822.2,1.823a1.44,1.44,0,0,0,.074-.5,6.669,6.669,0,0,0-.067-1.364,7.732,7.732,0,0,0-5.724-6.377,6.653,6.653,0,0,0-1.349-.214,1.439,1.439,0,0,0-.5.02" transform="translate(-21.839 -55.176)" fill="#263238"/>
            <path id="Trazado_808077" data-name="Trazado 808077" d="M149.734,145.7a16.251,16.251,0,0,1-1.273-2.784,16.245,16.245,0,0,1-.431-3.031,6.576,6.576,0,0,0,1.7,5.815" transform="translate(-65.47 -61.927)" fill="#263238"/>
            <path id="Trazado_808078" data-name="Trazado 808078" d="M99.817,152a1.822,1.822,0,0,0,.167-.344c.1-.23.247-.568.423-1.011.359-.883.858-2.174,1.427-3.8s1.206-3.577,1.832-5.786c.313-1.1.629-2.271.928-3.492l.444-1.869c.129-.643.36-1.249.538-1.89l.038-.138-.123-.055-1.741-.765-2.021-.887-.07-.031-.087.05a.161.161,0,0,0-.059.15.14.14,0,0,0,.042.084.173.173,0,0,0,.089.046l.026,0h.028l.039,0,.069-.006.132-.014.257-.032.509-.069,1-.143,1.926-.289.173-.026-.052-.165-3.219-10.134-.957-2.924-.268-.777a1.2,1.2,0,0,0-.109-.263,1.2,1.2,0,0,0,.06.279l.222.791.874,2.95c.78,2.546,1.861,6.076,3.113,10.167l.12-.192-1.925.281-1,.14-.505.067-.254.031-.125.013-.06.005h-.026c0,.009-.007-.022-.006.022,0,.072-.022.144-.012.137l-.069.134,2.02.888,1.741.765-.084-.192c-.181.65-.417,1.287-.543,1.921q-.222.949-.435,1.865c-.294,1.218-.6,2.384-.906,3.488-.607,2.209-1.225,4.164-1.763,5.793s-1.009,2.929-1.335,3.824l-.371,1.03a1.875,1.875,0,0,0-.112.366" transform="translate(-44.19 -51.986)" fill="#263238"/>
            <path id="Trazado_808079" data-name="Trazado 808079" d="M63.764,116.8a1.54,1.54,0,0,0,.058.338c.058.247.132.564.223.957.2.831.513,2.035.93,3.529.833,2.986,2.113,7.128,3.828,11.739l.045.12.127-.023,2.949-.531-.169-.217-.115.253-2.012,4.457-.041.09.065.074a110.165,110.165,0,0,0,7.891,8c1.034.944,1.877,1.677,2.464,2.171l.679.56a1.37,1.37,0,0,0,.247.179,1.318,1.318,0,0,0-.212-.22l-.645-.6-2.4-2.235c-2.029-1.922-4.812-4.688-7.8-8.064l.025.163,2.021-4.453.114-.253.123-.271-.292.053-2.949.534.172.1c-1.723-4.6-3.037-8.719-3.92-11.688-.425-1.461-.77-2.645-1.019-3.5l-.275-.943a1.607,1.607,0,0,0-.113-.323" transform="translate(-28.228 -51.709)" fill="#263238"/>
            <path id="Trazado_808080" data-name="Trazado 808080" d="M100.285,256.123a1.085,1.085,0,0,0,.015-.217c0-.159.008-.37.013-.637.006-.579.013-1.4.022-2.449.018-2.127.006-5.2-.021-9.007-.064-7.605-.275-18.111-.636-29.709-.744-23.01-1.3-40.3-1.358-42.005a1.1,1.1,0,0,0-.012.217c0,.159,0,.37,0,.637,0,.578.008,1.4.014,2.449.021,2.127.073,5.2.164,9.005.174,7.6.529,18.105.885,29.707s.607,22.1.727,29.7c.051,3.788.092,6.86.12,9.005.016,1.049.028,1.87.037,2.449.007.267.013.478.017.637a1.086,1.086,0,0,0,.017.217" transform="translate(-43.52 -76.191)" fill="#263238"/>
            <path id="Trazado_808081" data-name="Trazado 808081" d="M85.02,110.3l-4.612,3.555-9.841-4.737-.48,2.234,15.6,34.036,1.417-31.038Z" transform="translate(-31.029 -48.309)" fill="#fff"/>
            <path id="Trazado_808082" data-name="Trazado 808082" d="M87.065,120.387l1.212-.154,1.439,2.247-1.058,2.289-1.718.066-.681-2.626Z" transform="translate(-38.189 -53.229)" fill="#1969d5"/>
            <path id="Trazado_808083" data-name="Trazado 808083" d="M88.312,128.249s4.817,12.674,4.813,12.719-.605,12.981-.605,12.981l-6.966-15.324,1.04-10.309Z" transform="translate(-37.876 -56.778)" fill="#1969d5"/>
            <path id="Trazado_808084" data-name="Trazado 808084" d="M123.05,135.4a1.124,1.124,0,0,0-.084.29c-.048.227-.107.5-.179.842-.15.732-.347,1.794-.571,3.111-.45,2.633-.982,6.287-1.4,10.343s-.64,7.743-.736,10.413c-.049,1.335-.073,2.415-.075,3.162,0,.344,0,.628,0,.86a1.1,1.1,0,0,0,.022.3,1.108,1.108,0,0,0,.04-.3c.015-.232.033-.514.055-.857.043-.793.1-1.86.173-3.156.152-2.664.41-6.341.826-10.391s.915-7.7,1.309-10.339c.194-1.285.354-2.34.473-3.125l.121-.852a1.116,1.116,0,0,0,.021-.3" transform="translate(-53.128 -59.946)" fill="#263238"/>
            <path id="Trazado_808085" data-name="Trazado 808085" d="M74.515,119.5a2,2,0,0,0,.375.3l1.1.767,3.959,2.657.142.1.062-.162c.608-1.592,1.528-3.361,2.309-5.341l.076-.2-.286.012a20.6,20.6,0,0,0,3.566,5.268l.1.11.094-.115a27.887,27.887,0,0,0,2.449-3.487c.261-.442.451-.8.576-1.041a1.651,1.651,0,0,0,.17-.386,1.663,1.663,0,0,0-.24.346l-.636,1a33.708,33.708,0,0,1-2.522,3.4l.2-.005a21.341,21.341,0,0,1-3.48-5.224l-.154-.326-.132.338-.075.193c-.772,1.957-1.683,3.738-2.276,5.356l.2-.066-4.021-2.562-1.145-.7a2.018,2.018,0,0,0-.422-.225" transform="translate(-32.989 -51.87)" fill="#263238"/>
            <path id="Trazado_808086" data-name="Trazado 808086" d="M127,154.355l-3.706,15.432c-.205.855-.969,1.46-2.2,1.8l-21.035.072a2.5,2.5,0,0,1-1.534-2.6l2.757-14.762a1.909,1.909,0,0,1,1.832-1.558l22.17-.512A1.721,1.721,0,0,1,127,154.355" transform="translate(-43.605 -67.396)" fill="#263238"/>
            <path id="Trazado_808087" data-name="Trazado 808087" d="M96.978,161.558a54.344,54.344,0,0,0-5.439-.008c-.781.179-10.811,6.669-10.811,6.669l3.012,8.594L85.8,174.1a17.158,17.158,0,0,0,4.1-.972c1.462-.675,3.173-1.4,3.173-1.4l3.075.434,3.339.067s1.144-.573.207-1.323a6.884,6.884,0,0,0-3.188-.8l-3.434-.808s3.946-.3,4.335-.362,3.061.607,3.417.347a1.04,1.04,0,0,0,.212-1.355c-.3-.489-2.83-1.265-2.83-1.265l-4.389-.407,4.342-.1,2.357-.135s.641-.468-.2-1.167-4.235-1.169-4.235-1.169l-3.5-.316,3.54-.371,2.334.43a.627.627,0,0,0,.512-1.1,4.41,4.41,0,0,0-2-.751" transform="translate(-35.74 -71.487)" fill="#ffc09d"/>
          </g>
        </g>
      </g>
    </g>
  </g>
</svg>
