<svg xmlns="http://www.w3.org/2000/svg" xmlns:xlink="http://www.w3.org/1999/xlink" width="130" height="130" viewBox="0 0 130 130">
  <defs>
    <clipPath id="clip-path">
      <circle id="Elipse_8349" data-name="Elipse 8349" cx="60" cy="60" r="60" transform="translate(0 0.4)" fill="#12263f"/>
    </clipPath>
    <clipPath id="clip-path-2">
      <circle id="Elipse_8348" data-name="Elipse 8348" cx="60" cy="60" r="60" transform="translate(0 0.4)" fill="#fff"/>
    </clipPath>
  </defs>
  <g id="Grupo_1070136" data-name="Grupo 1070136" transform="translate(-326 -4984)">
    <g id="Grupo_1070098" data-name="Grupo 1070098" transform="translate(0 -127)">
      <circle id="Elipse_8299" data-name="Elipse 8299" cx="60" cy="60" r="60" transform="translate(331 5116)" fill="#fff"/>
      <g id="Enmascarar_grupo_1064411" data-name="Enmascarar grupo 1064411" transform="translate(331 5115.6)" clip-path="url(#clip-path)">
        <g id="Location_Outline_Create_Outline" data-name="Location_Outline Create Outline" transform="translate(17.447 17.447)">
          <g id="_04_Location" data-name="04_Location">
            <path id="Trazado_810678" data-name="Trazado 810678" d="M37.207,23.285H16.33a1.33,1.33,0,0,1,0-2.66H37.207a1.33,1.33,0,0,1,0,2.66Z" transform="translate(-4.362 -5.997)" fill="#12263f"/>
            <path id="Trazado_810679" data-name="Trazado 810679" d="M92.825,23.285H73.605a1.33,1.33,0,0,1,0-2.66H92.825a1.33,1.33,0,0,1,0,2.66Z" transform="translate(-21.017 -5.997)" fill="#12263f"/>
            <path id="Trazado_810680" data-name="Trazado 810680" d="M100.678,83.124H59.455a1.33,1.33,0,0,1,0-2.66H99.348V23.285H95.359a1.33,1.33,0,0,1,0-2.66h5.319a1.33,1.33,0,0,1,1.33,1.33v59.84A1.33,1.33,0,0,1,100.678,83.124Z" transform="translate(-16.902 -5.997)" fill="#12263f"/>
            <path id="Trazado_810681" data-name="Trazado 810681" d="M19.872,83.124H6.649a6.649,6.649,0,0,1,0-13.3h3.989V21.955a1.33,1.33,0,0,1,2.66,0v49.2a1.33,1.33,0,0,1-1.33,1.33H6.649a3.989,3.989,0,0,0,0,7.979H19.872a1.33,1.33,0,1,1,0,2.66Z" transform="translate(0 -5.997)" fill="#12263f"/>
            <path id="Trazado_810682" data-name="Trazado 810682" d="M1.33,74.534A1.33,1.33,0,0,1,0,73.2V18.683A9.319,9.319,0,0,1,9.308,9.375h2.66A1.33,1.33,0,0,1,13.3,10.7v7.979a1.33,1.33,0,0,1-2.66,0V12.035H9.308A6.657,6.657,0,0,0,2.66,18.683V73.2a1.33,1.33,0,0,1-1.33,1.33Z" transform="translate(0 -2.726)" fill="#12263f"/>
            <path id="Trazado_810683" data-name="Trazado 810683" d="M1.33,74.534A1.33,1.33,0,0,1,0,73.2V18.683A9.319,9.319,0,0,1,9.308,9.375h2.66A1.33,1.33,0,0,1,13.3,10.7v57.18a1.33,1.33,0,0,1-1.33,1.33H6.649A3.989,3.989,0,0,0,2.66,73.2a1.33,1.33,0,0,1-1.33,1.33Zm7.979-62.5A6.657,6.657,0,0,0,2.66,18.683v49.2a6.622,6.622,0,0,1,3.989-1.33h3.989V12.035Z" transform="translate(0 -2.726)" fill="#12263f"/>
            <path id="Trazado_810684" data-name="Trazado 810684" d="M1.33,74.534A1.33,1.33,0,0,1,0,73.2V18.683A9.319,9.319,0,0,1,9.308,9.375h2.66A1.33,1.33,0,0,1,13.3,10.7v57.18a1.33,1.33,0,0,1-1.33,1.33H6.649A3.989,3.989,0,0,0,2.66,73.2a1.33,1.33,0,0,1-1.33,1.33Zm7.979-62.5A6.657,6.657,0,0,0,2.66,18.683v49.2a6.622,6.622,0,0,1,3.989-1.33h3.989V12.035Z" transform="translate(0 -2.726)" fill="#12263f"/>
            <path id="Trazado_810685" data-name="Trazado 810685" d="M55.093,34.574A1.33,1.33,0,0,1,54,34c-1.113-1.612-10.874-15.915-10.874-22.032a11.968,11.968,0,1,1,23.936,0c0,6.117-9.761,20.42-10.874,22.032A1.33,1.33,0,0,1,55.093,34.574Zm0-31.915a9.319,9.319,0,0,0-9.308,9.308c0,3.989,5.961,13.836,9.308,18.9C58.44,25.8,64.4,15.957,64.4,11.968A9.319,9.319,0,0,0,55.093,2.66Z" transform="translate(-12.54)" fill="#12263f"/>
            <path id="Trazado_810686" data-name="Trazado 810686" d="M57.819,18.138a5.319,5.319,0,1,1,5.319-5.319A5.319,5.319,0,0,1,57.819,18.138Zm0-7.979a2.66,2.66,0,1,0,2.66,2.66A2.66,2.66,0,0,0,57.819,10.16Z" transform="translate(-15.266 -2.181)" fill="#12263f"/>
            <path id="Trazado_810687" data-name="Trazado 810687" d="M80.425,83.124h-13.3a1.33,1.33,0,0,1-.931-.384L36.974,53.869H16.33A1.33,1.33,0,0,1,15,52.54V44.561a1.33,1.33,0,0,1,1.33-1.33h6.649V21.955a1.33,1.33,0,0,1,1.33-1.33h7.979a1.33,1.33,0,0,1,1.33,1.33V43.231h26.6V21.955a1.33,1.33,0,0,1,1.33-1.33h7.979a1.33,1.33,0,0,1,1.33,1.33V43.231H88.138a1.33,1.33,0,0,1,1.33,1.33V52.54a1.33,1.33,0,0,1-1.33,1.33H54.057l27.3,26.98a1.33,1.33,0,0,1-.931,2.275Zm-12.751-2.66h9.515l-27.3-26.98a1.33,1.33,0,0,1,.931-2.275H86.808V45.891H69.521a1.33,1.33,0,0,1-1.33-1.33V23.285H62.872V44.561a1.33,1.33,0,0,1-1.33,1.33H32.287a1.33,1.33,0,0,1-1.33-1.33V23.285H25.638V44.561a1.33,1.33,0,0,1-1.33,1.33H17.66V51.21H37.522a1.33,1.33,0,0,1,.931.384Z" transform="translate(-4.362 -5.997)" fill="#12263f"/>
            <path id="Trazado_810688" data-name="Trazado 810688" d="M40.638,108.005a1.33,1.33,0,0,1-1.056-.521C38.6,106.2,30,94.823,30,89.388a10.638,10.638,0,0,1,21.276,0c0,5.435-8.6,16.816-9.582,18.1A1.33,1.33,0,0,1,40.638,108.005Zm0-26.6a7.987,7.987,0,0,0-7.979,7.979c0,3.384,5.053,11.037,7.979,15.061,2.925-4.024,7.979-11.677,7.979-15.061a7.987,7.987,0,0,0-7.979-7.979Z" transform="translate(-8.724 -22.9)" fill="#12263f"/>
            <path id="Trazado_810689" data-name="Trazado 810689" d="M42.819,96.888a5.319,5.319,0,1,1,5.319-5.319A5.319,5.319,0,0,1,42.819,96.888Zm0-7.979a2.66,2.66,0,1,0,2.66,2.66A2.66,2.66,0,0,0,42.819,88.91Z" transform="translate(-10.905 -25.08)" fill="#12263f"/>
            <path id="Trazado_810690" data-name="Trazado 810690" d="M100.4,86.662a1.33,1.33,0,0,1-1.021-.477c-.94-1.126-5.628-6.906-5.628-10.161a6.649,6.649,0,0,1,13.3,0c0,3.255-4.687,9.034-5.628,10.161A1.33,1.33,0,0,1,100.4,86.662Zm0-14.628a3.989,3.989,0,0,0-3.989,3.989c0,1.427,2.086,4.693,3.989,7.181,1.9-2.484,3.989-5.75,3.989-7.181A3.989,3.989,0,0,0,100.4,72.035Z" transform="translate(-27.261 -20.173)" fill="#12263f"/>
            <path id="Trazado_810691" data-name="Trazado 810691" d="M102.58,79.532a1.277,1.277,0,0,1-1.223-.824,1.254,1.254,0,0,1,0-1.011,1.373,1.373,0,0,1,.279-.439,1.335,1.335,0,0,1,1.888,1.888,1.374,1.374,0,0,1-.944.386Z" transform="translate(-29.442 -22.352)" fill="#12263f"/>
          </g>
        </g>
      </g>
      <g id="Elipse_8306" data-name="Elipse 8306" transform="translate(331 5116)" fill="none" stroke="#67bb75" stroke-width="5">
        <circle cx="60" cy="60" r="60" stroke="none"/>
        <circle cx="60" cy="60" r="62.5" fill="none"/>
      </g>
    </g>
  </g>
</svg>
