<svg xmlns="http://www.w3.org/2000/svg" xmlns:xlink="http://www.w3.org/1999/xlink" width="139.242" height="139.242" viewBox="0 0 139.242 139.242">
  <defs>
    <clipPath id="clip-path">
      <circle id="Elipse_8347" data-name="Elipse 8347" cx="64.621" cy="64.621" r="64.621" transform="translate(345.758 6249.508)" fill="#12263f"/>
    </clipPath>
    <clipPath id="clip-path-2">
      <circle id="Elipse_8335" data-name="Elipse 8335" cx="64.621" cy="64.621" r="64.621" fill="#fff"/>
    </clipPath>
  </defs>
  <g id="Grupo_1070134" data-name="Grupo 1070134" transform="translate(-414.379 -6057.246)">
    <circle id="Elipse_8299" data-name="Elipse 8299" cx="64.621" cy="64.621" r="64.621" transform="translate(419.379 6062.246)" fill="#fff"/>
    <g id="Enmascarar_grupo_1064400" data-name="Enmascarar grupo 1064400" transform="translate(75 -188.262)" clip-path="url(#clip-path)">
      <path id="evaluacion_1_" data-name="evaluacion (1)" d="M36.759,9.087a1.784,1.784,0,1,1,1.784,1.784A1.787,1.787,0,0,1,36.759,9.087ZM92.513,31.108,74.527,62.26V88.068a5.448,5.448,0,0,1-5.441,5.441H8a5.448,5.448,0,0,1-5.441-5.441V15.08A5.448,5.448,0,0,1,8,9.639H21.8V8.716a1.475,1.475,0,0,1,1.475-1.475h7.642a8.223,8.223,0,0,1,15.26,0h7.642a1.475,1.475,0,0,1,1.475,1.475v.923h13.8a5.448,5.448,0,0,1,5.441,5.441V34.7l6.053-10.484a6,6,0,0,1,8.178-2.191l1.563.9a6,6,0,0,1,2.191,8.178ZM55.289,12.588v2.569H67.535a1.475,1.475,0,0,1,1.475,1.475V44.261l2.569-4.45V15.08a2.5,2.5,0,0,0-2.492-2.492h-13.8Zm5.12,60.347,4.955-2.861-4.955-2.861ZM66.06,49.369V18.106H55.289v.923A1.475,1.475,0,0,1,53.814,20.5H23.271A1.475,1.475,0,0,1,21.8,19.029v-.923H11.025V85.042H66.06V73.078l-6.388,3.688a1.46,1.46,0,0,1-1.379.047H36.37a1.475,1.475,0,1,1,0-2.949H57.46V69.98H36.37a1.475,1.475,0,1,1,0-2.949H57.46V64.66a1.49,1.49,0,0,1,.2-.737ZM24.745,17.555H52.34V10.19H45.1a1.475,1.475,0,0,1-1.433-1.129,5.27,5.27,0,0,0-10.243,0,1.475,1.475,0,0,1-1.433,1.129H24.745ZM71.578,67.369,69.59,70.812a1.676,1.676,0,0,1-.581.564V86.517a1.475,1.475,0,0,1-1.475,1.475H9.55a1.475,1.475,0,0,1-1.475-1.475V16.632A1.475,1.475,0,0,1,9.55,15.157H21.8V12.588H8A2.5,2.5,0,0,0,5.507,15.08V88.068A2.5,2.5,0,0,0,8,90.56H69.086a2.5,2.5,0,0,0,2.492-2.492ZM88.847,25.484l-1.563-.9a3.046,3.046,0,0,0-4.149,1.112L60.949,64.12l6.825,3.94L89.959,29.634a3.041,3.041,0,0,0-1.112-4.15Zm-68.639,13.9a1.475,1.475,0,0,0,2.034.049L29.77,32.6a1.475,1.475,0,1,0-1.982-2.184L21.3,36.306,19.193,34.2a1.474,1.474,0,1,0-2.085,2.085ZM58.935,36.7H36.37a1.475,1.475,0,1,0,0,2.949H58.935a1.475,1.475,0,1,0,0-2.949ZM36.37,32.82H58.935a1.475,1.475,0,1,0,0-2.949H36.37a1.475,1.475,0,0,0,0,2.949ZM58.935,55.284H36.37a1.475,1.475,0,0,0,0,2.949H58.935a1.475,1.475,0,1,0,0-2.949Zm0-6.833H36.37a1.475,1.475,0,0,0,0,2.949H58.935a1.475,1.475,0,1,0,0-2.949Zm-31.146.383L21.3,54.722l-2.107-2.107A1.474,1.474,0,0,0,17.108,54.7l3.1,3.1a1.475,1.475,0,0,0,2.034.049l7.529-6.833a1.475,1.475,0,1,0-1.982-2.184Zm0,18.58L21.3,73.3,19.193,71.2a1.475,1.475,0,0,0-2.085,2.085l3.1,3.1a1.475,1.475,0,0,0,2.034.049L29.77,69.6a1.475,1.475,0,1,0-1.982-2.184Z" transform="translate(367.443 6266.332)" fill="#12263f"/>
    </g>
    <g id="Elipse_8306" data-name="Elipse 8306" transform="translate(419.379 6062.246)" fill="none" stroke="#67bb75" stroke-width="5">
      <circle cx="64.621" cy="64.621" r="64.621" stroke="none"/>
      <circle cx="64.621" cy="64.621" r="67.121" fill="none"/>
    </g>
  </g>
</svg>
