<svg xmlns="http://www.w3.org/2000/svg" xmlns:xlink="http://www.w3.org/1999/xlink" width="399.753" height="264" viewBox="0 0 399.753 264">
  <defs>
    <clipPath id="clip-path">
      <rect id="Rectángulo_375917" data-name="Rectángulo 375917" width="366.686" height="235.251" fill="none"/>
    </clipPath>
    <clipPath id="clip-path-5">
      <rect id="Rectángulo_375899" data-name="Rectángulo 375899" width="26.912" height="21.429" fill="none"/>
    </clipPath>
    <clipPath id="clip-path-6">
      <rect id="Rectángulo_375900" data-name="Rectángulo 375900" width="38.781" height="10.332" fill="none"/>
    </clipPath>
    <clipPath id="clip-path-7">
      <rect id="Rectángulo_375901" data-name="Rectángulo 375901" width="12.368" height="9.738" fill="none"/>
    </clipPath>
    <clipPath id="clip-path-11">
      <rect id="Rectángulo_375906" data-name="Rectángulo 375906" width="25.466" height="8.277" fill="none"/>
    </clipPath>
    <clipPath id="clip-path-12">
      <rect id="Rectángulo_375907" data-name="Rectángulo 375907" width="26.167" height="2.208" fill="none"/>
    </clipPath>
    <clipPath id="clip-path-13">
      <rect id="Rectángulo_375908" data-name="Rectángulo 375908" width="42.75" height="17.758" fill="none"/>
    </clipPath>
    <clipPath id="clip-path-16">
      <rect id="Rectángulo_375912" data-name="Rectángulo 375912" width="16.652" height="26.201" fill="none"/>
    </clipPath>
    <clipPath id="clip-path-17">
      <rect id="Rectángulo_375913" data-name="Rectángulo 375913" width="12.733" height="5.353" fill="none"/>
    </clipPath>
    <clipPath id="clip-path-18">
      <rect id="Rectángulo_375914" data-name="Rectángulo 375914" width="15.581" height="3.789" fill="none"/>
    </clipPath>
    <clipPath id="clip-path-19">
      <rect id="Rectángulo_375915" data-name="Rectángulo 375915" width="1.602" height="1.563" fill="none"/>
    </clipPath>
  </defs>
  <g id="Grupo_1070117" data-name="Grupo 1070117" transform="translate(-9592.248 3706)">
    <path id="Trazado_811546" data-name="Trazado 811546" d="M917.9,1178.129c-5.2-37.759,26.231-113.7-48.166-172.7-23.026-18.261-35.387-3.081-60.1-31.32-18.778-21.462-32.981-35.175-57.018-37.4-28.951-2.677-70.946.969-82.487,36.634-5.274,16.3-7.83,30.361-7.983,47.319-.39,43.336-27.622,47.1-34.48,76.108-11.022,46.63,13.372,83.227,28.467,84.078C670.24,1181.641,900.857,1181.977,917.9,1178.129Z" transform="translate(9071.811 -4623.354)" fill="#f3f9ff"/>
    <g id="Grupo_1068187" data-name="Grupo 1068187" transform="translate(9592.248 -3706)">
      <g id="Grupo_1068186" data-name="Grupo 1068186" clip-path="url(#clip-path)">
        <g id="Grupo_1068141" data-name="Grupo 1068141">
          <g id="Grupo_1068140" data-name="Grupo 1068140" clip-path="url(#clip-path)">
            <path id="Trazado_811548" data-name="Trazado 811548" d="M179.122,195.448s-4.564-.329-4.144,9.911a118.537,118.537,0,0,0,1.465,15.693s-.134,2.27-1.893,1.824-5.066-2.655-6.7-1c-1.694,1.713-1.092,4.34,1.156,7.435s6.922,10.055,7.342,10.686.579,1.781-.668,1.669-9.66-2.963-10.774,1.11,6.564,11.665,7.387,12.511.868,1.38.534,1.892-3.071-.713-5.5-1.426-5.364-1.115-5.81,1.289,2.936,9.438,15.6,16.832l6.092,3.042,5.766-3.678c11.86-8.623,14.521-15.961,13.837-18.308s-3.567-1.653-5.91-.7-4.944,2.445-5.327,1.969-.393-1.012.342-1.937,7.614-9.246,6.1-13.187-9.6-.262-10.83-.027-1.18-.937-.831-1.594,4.31-8.063,6.237-11.367,2.263-5.978.406-7.513c-1.791-1.48-4.861,1.049-6.566,1.669s-2.066-1.626-2.066-1.626a118.656,118.656,0,0,0-.112-15.76c-.606-10.23-5.224-9.4-5.224-9.4" transform="translate(-70.761 -85.638)" fill="#ebebeb"/>
            <path id="Trazado_811549" data-name="Trazado 811549" d="M193.522,211.783s.012.072.025.213.028.36.048.629c.038.563.093,1.376.164,2.418.14,2.1.32,5.14.527,8.9.417,7.515.906,17.9,1.407,29.371s.963,21.862,1.339,29.378c.19,3.75.345,6.788.452,8.9.052,1.043.093,1.856.12,2.42.011.269.02.478.026.63s0,.215,0,.215-.012-.072-.025-.213-.028-.36-.048-.628c-.038-.563-.093-1.376-.164-2.417-.14-2.1-.32-5.14-.527-8.9-.417-7.514-.906-17.9-1.407-29.376s-.963-21.856-1.338-29.373c-.191-3.75-.346-6.788-.453-8.9-.052-1.043-.093-1.856-.12-2.42-.011-.269-.02-.478-.026-.63s0-.215,0-.215" transform="translate(-84.8 -92.803)" fill="#e0e0e0"/>
            <path id="Trazado_811550" data-name="Trazado 811550" d="M180.832,248.327a2.02,2.02,0,0,1,.379.315c.234.213.563.531.966.929.8.8,1.885,1.926,3.055,3.194l2.98,3.26.907.984a2.041,2.041,0,0,1,.317.376,2,2,0,0,1-.381-.312c-.234-.214-.563-.532-.962-.934-.8-.805-1.862-1.948-3.031-3.216l-3-3.237-.912-.98a2.006,2.006,0,0,1-.315-.379" transform="translate(-79.24 -108.816)" fill="#e0e0e0"/>
            <path id="Trazado_811551" data-name="Trazado 811551" d="M197.222,256.092c-.046-.046,2.182-2.379,4.975-5.211s5.1-5.092,5.142-5.047-2.181,2.378-4.976,5.211-5.1,5.092-5.142,5.047" transform="translate(-86.422 -107.724)" fill="#e0e0e0"/>
            <path id="Trazado_811552" data-name="Trazado 811552" d="M197.178,290.321a2.07,2.07,0,0,1,.425-.27l1.192-.669c1.006-.565,2.391-1.35,3.889-2.271s2.83-1.794,3.789-2.436l1.137-.758a2.144,2.144,0,0,1,.433-.256,2.1,2.1,0,0,1-.38.33c-.254.2-.627.483-1.1.82-.936.678-2.256,1.579-3.761,2.5s-2.906,1.688-3.933,2.217c-.515.263-.934.47-1.228.6a2.116,2.116,0,0,1-.466.189" transform="translate(-86.403 -124.299)" fill="#e0e0e0"/>
            <path id="Trazado_811553" data-name="Trazado 811553" d="M179.214,284.519a1.78,1.78,0,0,1,.421.2c.263.14.641.35,1.1.613.928.527,2.2,1.269,3.6,2.1s2.659,1.6,3.565,2.16c.453.282.817.513,1.066.678a1.8,1.8,0,0,1,.375.276,1.78,1.78,0,0,1-.421-.2c-.263-.14-.641-.35-1.1-.614-.928-.527-2.2-1.269-3.6-2.1s-2.658-1.6-3.564-2.159c-.453-.282-.817-.513-1.067-.678a1.788,1.788,0,0,1-.375-.276" transform="translate(-78.531 -124.675)" fill="#e0e0e0"/>
            <path id="Trazado_811554" data-name="Trazado 811554" d="M175.651,312.255a2.919,2.919,0,0,1,.536.26l1.418.782c1.192.669,2.83,1.607,4.633,2.656s3.429,2.01,4.6,2.716l1.38.846a2.888,2.888,0,0,1,.49.338,2.96,2.96,0,0,1-.535-.26l-1.418-.782c-1.192-.669-2.831-1.608-4.634-2.657s-3.428-2.01-4.6-2.716l-1.38-.846a2.861,2.861,0,0,1-.49-.338" transform="translate(-76.97 -136.829)" fill="#e0e0e0"/>
            <path id="Trazado_811555" data-name="Trazado 811555" d="M198.428,318.416a3.348,3.348,0,0,1,.53-.354l1.481-.9c1.249-.762,2.972-1.819,4.842-3.039s3.538-2.363,4.738-3.2l1.424-.989a3.315,3.315,0,0,1,.539-.341,3.353,3.353,0,0,1-.485.414c-.321.254-.792.615-1.381,1.05-1.178.872-2.831,2.041-4.707,3.261s-3.612,2.259-4.885,2.985c-.638.361-1.156.648-1.52.838a3.318,3.318,0,0,1-.575.276" transform="translate(-86.951 -135.663)" fill="#e0e0e0"/>
            <path id="Trazado_811556" data-name="Trazado 811556" d="M201.58,344.014H184.727l5.5,41.64h5.852Z" transform="translate(-80.947 -150.746)" fill="#e0e0e0"/>
            <path id="Trazado_811557" data-name="Trazado 811557" d="M186.282,351.785c-.007,0,.019.059.09.148a1.076,1.076,0,0,0,.407.291,2.04,2.04,0,0,0,1.78-.219,13.565,13.565,0,0,1,2.185-1.439,4.783,4.783,0,0,1,3.1.061,13.3,13.3,0,0,1,2.886,1.4,19.953,19.953,0,0,0,2.347,1.26,6.468,6.468,0,0,0,1.731.5,3.094,3.094,0,0,0,.489.033c.112,0,.171,0,.171-.014a8.8,8.8,0,0,1-2.312-.7,23.088,23.088,0,0,1-2.3-1.3,12.814,12.814,0,0,0-2.935-1.444,4.946,4.946,0,0,0-3.271-.035,4.311,4.311,0,0,0-1.231.761,9.583,9.583,0,0,1-.965.748,1.984,1.984,0,0,1-1.642.285,1.685,1.685,0,0,1-.534-.339" transform="translate(-81.628 -153.4)" fill="#f5f5f5"/>
            <path id="Trazado_811558" data-name="Trazado 811558" d="M187.377,364.391c.022.014.134-.171.4-.447a3.74,3.74,0,0,1,1.346-.854,6.009,6.009,0,0,1,2.343-.353,24.6,24.6,0,0,1,2.933.4,10.106,10.106,0,0,0,3,.125,8.266,8.266,0,0,0,2.362-.675,7.471,7.471,0,0,0,1.421-.845,1.986,1.986,0,0,0,.45-.405,14.973,14.973,0,0,1-1.948,1.071,8.628,8.628,0,0,1-2.315.6,10.363,10.363,0,0,1-2.929-.144,22.078,22.078,0,0,0-2.969-.381,5.939,5.939,0,0,0-2.424.426,3.529,3.529,0,0,0-1.352.962,2.4,2.4,0,0,0-.255.374c-.049.09-.071.14-.063.145" transform="translate(-82.108 -158.336)" fill="#f5f5f5"/>
            <path id="Trazado_811559" data-name="Trazado 811559" d="M201.576,373.177a1.425,1.425,0,0,0-.465-.241,4.958,4.958,0,0,0-1.4-.3,8.869,8.869,0,0,0-2.112.121c-.786.127-1.628.344-2.513.532a10.586,10.586,0,0,1-2.51.283,5.467,5.467,0,0,1-1.992-.431,4.6,4.6,0,0,1-1.512-1.125,1.3,1.3,0,0,0,.285.44,3.561,3.561,0,0,0,1.144.861,5.365,5.365,0,0,0,2.063.508,10.129,10.129,0,0,0,2.578-.267c.895-.19,1.731-.413,2.5-.552a9.659,9.659,0,0,1,2.058-.176,7.741,7.741,0,0,1,1.872.347" transform="translate(-82.853 -163.016)" fill="#f5f5f5"/>
            <path id="Trazado_811560" data-name="Trazado 811560" d="M190.029,383.6a2.735,2.735,0,0,1,1.637-.165,7.95,7.95,0,0,1,1.712.638,6.5,6.5,0,0,0,2.222.612,6.664,6.664,0,0,0,4.032-.934,5.758,5.758,0,0,0,1-.771c.205-.218.31-.344.3-.357a14.584,14.584,0,0,1-1.4.961,6.908,6.908,0,0,1-3.91.829c-1.6-.091-2.82-1.043-3.926-1.169a2.505,2.505,0,0,0-1.271.11c-.285.111-.406.237-.4.247" transform="translate(-83.27 -167.663)" fill="#f5f5f5"/>
            <path id="Trazado_811561" data-name="Trazado 811561" d="M191.7,396.773a3.237,3.237,0,0,0,1.405-.279c.847-.283,1.9-.933,3.121-1.419a5.08,5.08,0,0,1,1.79-.375,3.3,3.3,0,0,1,1.44.329,3.192,3.192,0,0,1,1.042.9.776.776,0,0,0-.16-.355,2.3,2.3,0,0,0-.79-.715,3.3,3.3,0,0,0-1.528-.411,5.024,5.024,0,0,0-1.893.372c-1.269.506-2.284,1.174-3.093,1.495-.8.345-1.34.416-1.334.46" transform="translate(-84.003 -172.845)" fill="#f5f5f5"/>
            <path id="Trazado_811562" data-name="Trazado 811562" d="M193.171,405.2a3.947,3.947,0,0,0,1.067.347,19.6,19.6,0,0,0,5.371.528,3.91,3.91,0,0,0,1.114-.132c0-.083-1.708-.01-3.792-.22s-3.741-.6-3.761-.522" transform="translate(-84.647 -177.553)" fill="#f5f5f5"/>
          </g>
        </g>
        <g id="Grupo_1068143" data-name="Grupo 1068143">
          <g id="Grupo_1068142" data-name="Grupo 1068142" clip-path="url(#clip-path)">
            <path id="Trazado_811563" data-name="Trazado 811563" d="M605.692,280.02c.291-1.417.092-2.887.412-5.561s1.593-3.735,2.3-5.629,1.661-6.315,1.661-6.315h-.772s-2.518,8.224-3.243,10.086a16.734,16.734,0,0,0-.828,5.244,37.867,37.867,0,0,1-.8,4.515s-.93-9.533-1.312-12.881a97.436,97.436,0,0,1-.21-9.858l-.884-.378v4.936s.366,4.711.657,7.413a164.6,164.6,0,0,1,.814,17.905,41.39,41.39,0,0,0,1.561,11.965c.029.21.266,6.564.139,9.718s-.2,15.615-.068,16.173l2.807.67s-1.63-10.993-1.328-18.941-.365-7.512-1.408-11.312-.717-14.106-.717-14.106a25.9,25.9,0,0,0,1.225-3.645" transform="translate(-263.801 -113.601)" fill="#263238"/>
            <path id="Trazado_811564" data-name="Trazado 811564" d="M612.678,257.39a14.536,14.536,0,0,0,6.567-4.411c2.548-3.234,4.215-5.881,6.861-7.155-5.1-2.255-8.233,2.254-10.781,3.626s-5.1,2.352-4.7,5,2.058,2.94,2.058,2.94" transform="translate(-267.555 -107.448)" fill="#288640"/>
            <path id="Trazado_811565" data-name="Trazado 811565" d="M631.308,191.1a25.122,25.122,0,0,1-.908,2.87,32.325,32.325,0,0,1-1.576,3.511,21.607,21.607,0,0,1-2.084,3.293,8.515,8.515,0,0,1-2.508,2.3,4.11,4.11,0,0,1-.6.262,38.265,38.265,0,0,0-6.469,2.743,11.707,11.707,0,0,1-1.385-7.11,10.561,10.561,0,0,1,.685-2.461,15.026,15.026,0,0,1,1.106-2.135c.215-.353.414-.667.576-.938.174-.288.35-.58.538-.873a20.124,20.124,0,0,1,3.637-4.361q.477-.428,1.017-.844a6.579,6.579,0,0,1,1.4-.8,15.274,15.274,0,0,1,5.761-.961,7.522,7.522,0,0,1,1.076,3.041c.009.05.018.1.024.156a7.406,7.406,0,0,1-.288,2.313" transform="translate(-269.789 -81.323)" fill="#288640"/>
            <path id="Trazado_811566" data-name="Trazado 811566" d="M623.884,230.425a26.5,26.5,0,0,1,15.975-3.92c-4.8-4.705-8.723-4.509-12.055-2.843s-5.39,2.94-3.92,6.763" transform="translate(-273.174 -97.537)" fill="#288640"/>
            <path id="Trazado_811567" data-name="Trazado 811567" d="M595.559,215.044s-3.43-4.411-8.135-5.587a42.033,42.033,0,0,0-10.1-.98,9.742,9.742,0,0,1,8.429-3.529c5.783.294,7.547,1.765,8.527,3.725s2.058,4.116,1.274,6.371" transform="translate(-252.985 -89.801)" fill="#288640"/>
            <path id="Trazado_811568" data-name="Trazado 811568" d="M597.552,239.234c-.015.6-.038,1.176-.076,1.72-.209,2.908-.876,4.91-3.355,5.24a7.709,7.709,0,0,1-4.9-4.314c-1.37-3.428-.588-4.016-2.646-6.271s-3.134-7.842-3.134-7.842.011,0,.02,0a11.728,11.728,0,0,1,7.23.691c.053.024.109.05.162.079,3.563,1.74,6.8,6.933,6.7,10.7" transform="translate(-255.662 -99.683)" fill="#288640"/>
            <path id="Trazado_811569" data-name="Trazado 811569" d="M576.923,263.085s-.588.785-4.214,1.079-4.511,3.234-8.627,3.919-4.7.588-6.469-.488c.8-2.476,2.79-3.22,4.6-4.643a8.455,8.455,0,0,0,1.591-1.588q.093-.115.176-.238a6.258,6.258,0,0,1,3.372-2.22h0a11.514,11.514,0,0,1,3.231-.48,8.95,8.95,0,0,1,3.684.641,3.887,3.887,0,0,1,2.647,4.017" transform="translate(-244.345 -113.242)" fill="#288640"/>
            <path id="Trazado_811570" data-name="Trazado 811570" d="M612,385.2a42.443,42.443,0,0,1-3.348,13.72,3.1,3.1,0,0,1-2.843,1.862H600.2a3.1,3.1,0,0,1-2.843-1.862,42.458,42.458,0,0,1-3.348-13.72,56.942,56.942,0,0,1-.176-5.708h18.348A57.1,57.1,0,0,1,612,385.2" transform="translate(-260.211 -166.291)" fill="#e0e0e0"/>
            <path id="Trazado_811571" data-name="Trazado 811571" d="M612.194,389.649a43.49,43.49,0,0,1-3.429,14.052,3.18,3.18,0,0,1-2.912,1.907H600.1a3.18,3.18,0,0,1-2.911-1.907,43.462,43.462,0,0,1-3.429-14.052Z" transform="translate(-260.186 -170.744)" fill="#455a64"/>
            <path id="Trazado_811572" data-name="Trazado 811572" d="M622.972,337.487a10.388,10.388,0,0,0-7.788-3.287l-.078.075a8.765,8.765,0,0,0,3.048,8.082,13.157,13.157,0,0,0,8.374,2.926,13.8,13.8,0,0,0-3.555-7.8" transform="translate(-269.478 -146.443)" fill="#288640"/>
            <path id="Trazado_811573" data-name="Trazado 811573" d="M589.689,345.454a6.981,6.981,0,0,0-3.536.433,19.314,19.314,0,0,0-7.225,4.406,17.445,17.445,0,0,0,7.521,1.33c2.552-.284,5.126-1.894,5.765-4.381-.233-1.178-1.346-1.558-2.525-1.789" transform="translate(-253.686 -151.341)" fill="#288640"/>
            <path id="Trazado_811574" data-name="Trazado 811574" d="M567.592,316.352a5.2,5.2,0,0,0,2.507,1.981c.991.437,2.043.743,2.986,1.276,1.694.956,2.917,2.568,4.5,3.7a9.624,9.624,0,0,0,7.869,1.483,9.227,9.227,0,0,0-2.365-7.6,10.708,10.708,0,0,0-7.317-3.323,12.79,12.79,0,0,0-7.765,2.3" transform="translate(-248.718 -137.531)" fill="#288640"/>
            <path id="Trazado_811575" data-name="Trazado 811575" d="M611.843,314.949a7.21,7.21,0,0,1,1.9-7.448,12.692,12.692,0,0,1,4.492-2.391q2.012-.734,4.039-1.424a1.342,1.342,0,0,1,.983-.072c.457.214.517.831.49,1.334A12.929,12.929,0,0,1,622.1,310.8a8.776,8.776,0,0,1-4.582,3.9c-1.935.667-3.988,1.41-5.674.248" transform="translate(-267.938 -133.013)" fill="#288640"/>
            <path id="Trazado_811576" data-name="Trazado 811576" d="M587.676,304.639a4.024,4.024,0,0,0-2-2.9,7.928,7.928,0,0,0-3.482-.981,15.778,15.778,0,0,0-8.357,1.633,28.139,28.139,0,0,0,7.533,3.629,8.5,8.5,0,0,0,3.429.489,3.6,3.6,0,0,0,2.843-1.77" transform="translate(-251.454 -131.769)" fill="#288640"/>
            <path id="Trazado_811577" data-name="Trazado 811577" d="M593.136,283.285a17.392,17.392,0,0,0-6.827-2.059c.319,2.51.851,5.17,2.629,6.97a6.386,6.386,0,0,0,4.031,1.862,7.113,7.113,0,0,0,4.54-1.186v-.126a9.191,9.191,0,0,0-4.373-5.461" transform="translate(-256.92 -123.233)" fill="#288640"/>
            <path id="Trazado_811578" data-name="Trazado 811578" d="M620.384,274.621c-1.293.855-1.4,2.823-.648,4.179a9.411,9.411,0,0,0,3.423,3.074,38.309,38.309,0,0,0,5.284,2.98c2.384,1.029,5.007,1.592,7.12,3.1a16.748,16.748,0,0,0-1.292-8.343,11.243,11.243,0,0,0-5.937-5.84,8.5,8.5,0,0,0-8.111.969" transform="translate(-271.362 -119.701)" fill="#288640"/>
            <path id="Trazado_811579" data-name="Trazado 811579" d="M615.7,276.746c.02.043-.634.32-1.584.941a13.2,13.2,0,0,0-1.574,1.215,13.2,13.2,0,0,0-2.945,3.842,13.324,13.324,0,0,0-.763,1.835c-.353,1.079-.451,1.781-.5,1.774a1.977,1.977,0,0,1,.043-.5,4.711,4.711,0,0,1,.1-.576c.052-.222.1-.479.189-.752a11.816,11.816,0,0,1,.728-1.884,12.4,12.4,0,0,1,3-3.909,11.713,11.713,0,0,1,1.63-1.192c.24-.159.476-.271.677-.379a4.794,4.794,0,0,1,.529-.249,1.994,1.994,0,0,1,.469-.17" transform="translate(-266.569 -121.269)" fill="#263238"/>
            <path id="Trazado_811580" data-name="Trazado 811580" d="M632.92,284.386a3.5,3.5,0,0,1-.4-.5c-.25-.328-.612-.8-1.089-1.364a23.951,23.951,0,0,0-4.21-3.9,14.937,14.937,0,0,0-2.7-1.614,6.3,6.3,0,0,0-2.476-.567,4.677,4.677,0,0,0-1.691.287c-.382.147-.577.269-.588.251s.04-.043.131-.105a3.061,3.061,0,0,1,.421-.232,4.384,4.384,0,0,1,1.726-.37,6.254,6.254,0,0,1,2.563.533,14.337,14.337,0,0,1,2.758,1.624,21.664,21.664,0,0,1,4.2,3.982c.464.58.807,1.072,1.035,1.419a3.18,3.18,0,0,1,.324.557" transform="translate(-271.579 -121.061)" fill="#263238"/>
            <path id="Trazado_811581" data-name="Trazado 811581" d="M623.32,248.51c.022.037-.661.444-1.688,1.209a23.753,23.753,0,0,0-6.544,7.452c-.626,1.116-.942,1.846-.981,1.829a2.444,2.444,0,0,1,.186-.528,15.255,15.255,0,0,1,.646-1.383,21.175,21.175,0,0,1,6.594-7.508c.529-.368.971-.646,1.287-.819a2.539,2.539,0,0,1,.5-.253" transform="translate(-269.1 -108.896)" fill="#263238"/>
            <path id="Trazado_811582" data-name="Trazado 811582" d="M591.788,232.239c0-.007.061.024.166.088s.258.157.445.295a12.97,12.97,0,0,1,1.513,1.258,14.448,14.448,0,0,1,4.372,11.81,12.962,12.962,0,0,1-.329,1.94c-.052.226-.111.4-.146.514a.555.555,0,0,1-.068.174,4.92,4.92,0,0,1,.124-.708,16.551,16.551,0,0,0,.251-1.934A14.944,14.944,0,0,0,593.792,234a16.381,16.381,0,0,0-1.449-1.3,4.905,4.905,0,0,1-.555-.457" transform="translate(-259.321 -101.767)" fill="#263238"/>
            <path id="Trazado_811583" data-name="Trazado 811583" d="M572.1,262.5a1.728,1.728,0,0,1,.337-.379,5.979,5.979,0,0,1,1.108-.828,6.722,6.722,0,0,1,8.415,1.235,6.057,6.057,0,0,1,.824,1.112,1.724,1.724,0,0,1,.214.459,12.541,12.541,0,0,0-1.16-1.453,6.807,6.807,0,0,0-8.21-1.206A12.621,12.621,0,0,0,572.1,262.5" transform="translate(-250.693 -114.08)" fill="#263238"/>
            <path id="Trazado_811584" data-name="Trazado 811584" d="M600.181,291.334a71.067,71.067,0,0,1-7.352-3.728,70.92,70.92,0,0,1,7.352,3.728" transform="translate(-259.777 -126.027)" fill="#263238"/>
            <path id="Trazado_811585" data-name="Trazado 811585" d="M580.737,302.708a1.388,1.388,0,0,1,.415-.043c.267-.015.655-.011,1.133.013a17.091,17.091,0,0,1,7.148,2.024c.42.229.751.43.971.582s.339.24.33.254c-.021.033-.528-.268-1.38-.685a20.4,20.4,0,0,0-7.083-2.005c-.944-.091-1.534-.1-1.534-.139" transform="translate(-254.478 -132.624)" fill="#263238"/>
            <path id="Trazado_811586" data-name="Trazado 811586" d="M622.388,305.527a2.729,2.729,0,0,1-.481.33c-.318.2-.772.489-1.324.865a29.5,29.5,0,0,0-7.417,7.24c-.389.542-.694.989-.9,1.3a2.735,2.735,0,0,1-.341.472,2.692,2.692,0,0,1,.261-.521c.179-.33.464-.793.837-1.351a25.8,25.8,0,0,1,7.464-7.285c.566-.36,1.036-.633,1.37-.8a2.719,2.719,0,0,1,.527-.249" transform="translate(-268.146 -133.881)" fill="#263238"/>
            <path id="Trazado_811587" data-name="Trazado 811587" d="M573.56,317.987a3.911,3.911,0,0,1,.706-.028c.453,0,1.111.006,1.922.052a18.632,18.632,0,0,1,2.837.365,10.493,10.493,0,0,1,3.272,1.267,11.644,11.644,0,0,1,2.658,2.29,20.873,20.873,0,0,1,1.717,2.287c.446.68.783,1.243,1.011,1.636a3.877,3.877,0,0,1,.331.623,4.064,4.064,0,0,1-.411-.574c-.252-.377-.611-.926-1.073-1.59a23.349,23.349,0,0,0-1.742-2.235,11.863,11.863,0,0,0-2.618-2.232,10.628,10.628,0,0,0-3.2-1.256,20.545,20.545,0,0,0-2.8-.411c-.806-.067-1.461-.1-1.913-.128a4.049,4.049,0,0,1-.7-.066" transform="translate(-251.333 -139.33)" fill="#263238"/>
            <path id="Trazado_811588" data-name="Trazado 811588" d="M595.46,348.376a13.745,13.745,0,0,1-1.4.1,19.615,19.615,0,0,0-6.5,1.592,13.574,13.574,0,0,1-1.283.557c-.008-.014.1-.092.308-.22s.514-.3.9-.492a15.988,15.988,0,0,1,6.558-1.607c.434-.01.786,0,1.029.018a1.169,1.169,0,0,1,.375.052" transform="translate(-256.91 -152.625)" fill="#263238"/>
            <path id="Trazado_811589" data-name="Trazado 811589" d="M624.459,344.243c-.047.047-2.234-2.057-4.885-4.7s-4.763-4.821-4.717-4.869,2.234,2.056,4.886,4.7,4.763,4.821,4.716,4.868" transform="translate(-269.429 -146.655)" fill="#263238"/>
            <path id="Trazado_811590" data-name="Trazado 811590" d="M613.092,334.611a6.494,6.494,0,0,0-3.7,1.117,3.763,3.763,0,0,1,3.7-1.117" transform="translate(-267.034 -146.569)" fill="#263238"/>
            <path id="Trazado_811591" data-name="Trazado 811591" d="M605.057,339.529c-.037.018-.261-.429-.718-1.086a14.528,14.528,0,0,0-2.067-2.336c-.9-.83-1.78-1.51-2.413-2.008a7.635,7.635,0,0,1-1-.837,6.649,6.649,0,0,1,1.106.7,23.754,23.754,0,0,1,2.475,1.969,11.942,11.942,0,0,1,2.047,2.419,6.544,6.544,0,0,1,.456.846c.092.208.135.326.12.333" transform="translate(-262.417 -146.034)" fill="#263238"/>
            <path id="Trazado_811592" data-name="Trazado 811592" d="M605.649,348.1a4.172,4.172,0,0,1-3.358-.134c.022-.068.752.148,1.675.18s1.666-.116,1.683-.046" transform="translate(-263.923 -152.47)" fill="#263238"/>
            <path id="Trazado_811593" data-name="Trazado 811593" d="M612.081,320.417c.032.022-.277.479-.706,1.252a17.595,17.595,0,0,0-2.112,6.525c-.105.878-.122,1.428-.161,1.428a1.243,1.243,0,0,1-.037-.388,9.992,9.992,0,0,1,.029-1.057,14.792,14.792,0,0,1,2.135-6.593,9.854,9.854,0,0,1,.6-.874c.153-.2.243-.3.257-.292" transform="translate(-266.89 -140.406)" fill="#263238"/>
            <path id="Trazado_811594" data-name="Trazado 811594" d="M602.2,312.16c-.038.011-.14-.346-.426-.858a6.971,6.971,0,0,0-1.443-1.765,16.889,16.889,0,0,0-1.844-1.388,4.131,4.131,0,0,1-.778-.574,3.666,3.666,0,0,1,.868.43,11.388,11.388,0,0,1,1.915,1.353,5.971,5.971,0,0,1,1.433,1.866,2.155,2.155,0,0,1,.275.935" transform="translate(-261.917 -134.778)" fill="#263238"/>
            <path id="Trazado_811595" data-name="Trazado 811595" d="M598.439,273.582c-.035.018-.329-.536-.876-1.384a20.842,20.842,0,0,0-5.4-5.674c-.819-.589-1.358-.91-1.339-.945a1.6,1.6,0,0,1,.4.185c.253.13.607.341,1.033.62a17.776,17.776,0,0,1,5.443,5.724c.257.439.45.8.568,1.062a1.593,1.593,0,0,1,.164.411" transform="translate(-258.9 -116.376)" fill="#263238"/>
            <path id="Trazado_811596" data-name="Trazado 811596" d="M620.975,231.356a1.41,1.41,0,0,1-.275.135l-.806.346c-.7.3-1.717.72-2.931,1.328a17.836,17.836,0,0,0-3.955,2.613,20.056,20.056,0,0,0-3.628,4.524,56.335,56.335,0,0,0-2.694,5.181l-2.047,4.32-1.4,2.905-.391.784a1.416,1.416,0,0,1-.152.266,1.528,1.528,0,0,1,.107-.287l.351-.8,1.33-2.937c.574-1.244,1.251-2.714,2-4.343a52.925,52.925,0,0,1,2.689-5.212,19.8,19.8,0,0,1,3.687-4.564,17.442,17.442,0,0,1,4.026-2.6c1.231-.592,2.261-.988,2.971-1.262l.823-.3a1.563,1.563,0,0,1,.293-.09" transform="translate(-264.101 -101.38)" fill="#263238"/>
            <path id="Trazado_811597" data-name="Trazado 811597" d="M606.351,215.414a3.912,3.912,0,0,1,.358.609c.22.4.513.987.853,1.725a40.08,40.08,0,0,1,3.378,12.2c.088.808.139,1.464.156,1.918a4,4,0,0,1,.006.706,4.039,4.039,0,0,1-.1-.7c-.045-.451-.122-1.1-.231-1.9a46.341,46.341,0,0,0-3.365-12.15c-.319-.744-.588-1.342-.781-1.752a3.967,3.967,0,0,1-.274-.651" transform="translate(-265.702 -94.394)" fill="#263238"/>
            <path id="Trazado_811598" data-name="Trazado 811598" d="M625.123,193.5a1.317,1.317,0,0,1-.134.255l-.422.706c-.371.61-.921,1.484-1.565,2.585-1.306,2.19-3.053,5.255-4.713,8.773-.82,1.764-1.541,3.471-2.126,5.051s-1.023,3.033-1.349,4.265-.519,2.245-.649,2.946c-.057.331-.1.6-.139.81a1.3,1.3,0,0,1-.063.281,1.317,1.317,0,0,1,.015-.287c.02-.187.043-.464.094-.818.1-.707.272-1.73.578-2.973s.738-2.705,1.306-4.3,1.294-3.307,2.117-5.076a89.084,89.084,0,0,1,4.785-8.759c.664-1.092,1.237-1.952,1.632-2.547l.46-.681a1.289,1.289,0,0,1,.174-.229" transform="translate(-269.036 -84.791)" fill="#263238"/>
          </g>
        </g>
        <g id="Grupo_1068154" data-name="Grupo 1068154">
          <g id="Grupo_1068153" data-name="Grupo 1068153" clip-path="url(#clip-path)">
            <path id="Trazado_811599" data-name="Trazado 811599" d="M506.822,116.882a11.588,11.588,0,0,1,12.211-9.893l.6.039c6.433.792,9.353,6.7,8.384,13.106L525.188,145.9l-15.146,4.81.815-11.539s-6.146-1.365-5.823-7.576c.156-3,.979-9.151,1.789-14.709" transform="translate(-221.3 -46.872)" fill="#ffbe9d"/>
            <path id="Trazado_811600" data-name="Trazado 811600" d="M515.261,162.814a15.085,15.085,0,0,0,8.285-1.857s-2.2,4.344-8.357,3.387Z" transform="translate(-225.756 -70.531)" fill="#eb996e"/>
            <path id="Trazado_811601" data-name="Trazado 811601" d="M510.833,131.777a.888.888,0,0,0,.8.949.849.849,0,0,0,.965-.74.889.889,0,0,0-.8-.95.85.85,0,0,0-.966.741" transform="translate(-223.845 -57.417)" fill="#263238"/>
            <path id="Trazado_811602" data-name="Trazado 811602" d="M510.245,129.055c.1.122.806-.331,1.76-.267s1.621.586,1.733.476c.054-.049-.044-.265-.335-.506a2.442,2.442,0,0,0-1.378-.524,2.339,2.339,0,0,0-1.41.357c-.308.206-.421.408-.37.464" transform="translate(-223.584 -56.19)" fill="#263238"/>
            <path id="Trazado_811603" data-name="Trazado 811603" d="M526.273,133.293a.888.888,0,0,0,.8.949.849.849,0,0,0,.965-.74.889.889,0,0,0-.8-.949.85.85,0,0,0-.966.741" transform="translate(-230.61 -58.081)" fill="#263238"/>
            <path id="Trazado_811604" data-name="Trazado 811604" d="M526.912,130.193c.1.122.807-.331,1.76-.267s1.621.585,1.733.475c.054-.048-.043-.264-.335-.506a2.43,2.43,0,0,0-1.378-.524,2.345,2.345,0,0,0-1.41.357c-.307.206-.42.409-.37.464" transform="translate(-230.887 -56.689)" fill="#263238"/>
            <path id="Trazado_811605" data-name="Trazado 811605" d="M518.088,137.582a6.331,6.331,0,0,0-1.531-.379c-.242-.04-.47-.1-.5-.273a1.245,1.245,0,0,1,.209-.711l.839-1.808a31.919,31.919,0,0,0,1.93-4.747,31.966,31.966,0,0,0-2.307,4.58c-.283.636-.553,1.242-.81,1.821a1.41,1.41,0,0,0-.188.948.614.614,0,0,0,.378.382,1.651,1.651,0,0,0,.41.084,6.207,6.207,0,0,0,1.57.1" transform="translate(-225.98 -56.818)" fill="#263238"/>
            <path id="Trazado_811606" data-name="Trazado 811606" d="M522.373,145.255c-.154-.019-.223,1.016-1.156,1.694s-2.028.493-2.045.638c-.019.064.233.217.7.26a2.585,2.585,0,0,0,1.7-.474,2.249,2.249,0,0,0,.9-1.425c.067-.43-.031-.694-.1-.693" transform="translate(-227.5 -63.65)" fill="#263238"/>
            <path id="Trazado_811607" data-name="Trazado 811607" d="M526.907,124.412c.078.265,1.038.2,2.148.411,1.115.184,2,.57,2.159.347.074-.107-.068-.361-.417-.636a3.8,3.8,0,0,0-3.281-.577c-.422.139-.642.329-.609.455" transform="translate(-230.889 -54.252)" fill="#727997"/>
            <path id="Trazado_811608" data-name="Trazado 811608" d="M511.179,124.612c.154.228.825.045,1.616.085.792.013,1.45.24,1.619.023.075-.106-.017-.33-.3-.553a2.343,2.343,0,0,0-2.606-.087c-.293.2-.4.422-.332.532" transform="translate(-223.989 -54.216)" fill="#727997"/>
            <path id="Trazado_811609" data-name="Trazado 811609" d="M504.752,108.291a1.188,1.188,0,0,1,1.281-.908,2.5,2.5,0,0,1-.84-.47.856.856,0,0,1-.261-.878c.178-.474.8-.549,1.289-.669a3.2,3.2,0,0,0,1.663-1.02,27.724,27.724,0,0,0,1.425-2.468,4.131,4.131,0,0,1,6.431-.46,4.3,4.3,0,0,1,6.87,1.32,5.017,5.017,0,0,1,6.655,5.751l-3.961,2.222a2.091,2.091,0,0,0-2.479-1.911c-1.181.293-1.98,1.616-3.2,1.662-.947.035-1.722-.728-2.627-1.007a4.51,4.51,0,0,0-3.31.584,13.026,13.026,0,0,1-3.125,1.429,6.414,6.414,0,0,1-3.925-.621,4.111,4.111,0,0,1-1.425-.959,1.823,1.823,0,0,1-.466-1.6" transform="translate(-221.163 -43.862)" fill="#727997"/>
            <path id="Trazado_811610" data-name="Trazado 811610" d="M526.475,111.033l-17.718-.784a8.113,8.113,0,0,1,2.8-2.834,13.853,13.853,0,0,1,8.2-2.352c2.888.141,8.529,4.045,10.487,6.173a4.539,4.539,0,0,1,1.465,3.08c.113,2.311-1.344,4.834-2,7.052-.34,1.144-1.081,4.624-1.081,4.624h0c-.975-.068-1.285-.868-1.074-1.821l.433-3.769a5.723,5.723,0,0,1-1.3-6.784c.275-.326.917-1.866-.208-2.585" transform="translate(-222.937 -46.033)" fill="#727997"/>
            <path id="Trazado_811611" data-name="Trazado 811611" d="M543.175,124.466c1.023-3.1,1.98-6.434,1.142-9.593h.527l.213.169a2.481,2.481,0,0,1,2.639,3.929,2.144,2.144,0,0,1,2.081,1.958,3.982,3.982,0,0,1-.65,2.048,4.822,4.822,0,0,0-.752,2.022,1.547,1.547,0,0,0,1.118,1.644,1.772,1.772,0,0,1-2.045.9,3.511,3.511,0,0,0,1.158,1.582,4.08,4.08,0,0,1-3.991-.248,3.392,3.392,0,0,1-1.716-1.719,4.251,4.251,0,0,1,.277-2.69" transform="translate(-237.841 -50.337)" fill="#727997"/>
            <path id="Trazado_811612" data-name="Trazado 811612" d="M543.262,138.387c.109-.039,4.346-.987,3.937,3.247s-4.575,2.951-4.571,2.829.634-6.076.634-6.076" transform="translate(-237.779 -60.59)" fill="#ffbe9d"/>
            <path id="Trazado_811613" data-name="Trazado 811613" d="M544.537,144.06c.02-.012.069.059.188.128a.738.738,0,0,0,.55.064,1.832,1.832,0,0,0,1-1.556,2.452,2.452,0,0,0-.105-1.076.855.855,0,0,0-.5-.619.377.377,0,0,0-.455.16c-.068.113-.049.2-.072.205s-.084-.08-.033-.252a.473.473,0,0,1,.192-.249.56.56,0,0,1,.419-.069,1.041,1.041,0,0,1,.707.731,2.518,2.518,0,0,1,.142,1.2,1.922,1.922,0,0,1-1.252,1.725.791.791,0,0,1-.664-.177c-.121-.117-.134-.214-.119-.22" transform="translate(-238.613 -61.691)" fill="#eb996e"/>
            <path id="Trazado_811614" data-name="Trazado 811614" d="M547.848,125.343c.012.009.125-.155.1-.49a1.6,1.6,0,0,0-.751-1.137,4.9,4.9,0,0,0-1.926-.545,2.389,2.389,0,0,1-1.9-1.058,3.526,3.526,0,0,1-.247-2.24c.129-.708.343-1.349.457-1.9a3.157,3.157,0,0,0,.042-1.822,8.2,8.2,0,0,1-.269,1.766c-.141.537-.376,1.158-.53,1.9a3.712,3.712,0,0,0,.258,2.457,2.1,2.1,0,0,0,.978.895,4.241,4.241,0,0,0,1.163.3,5.054,5.054,0,0,1,1.852.443,1.537,1.537,0,0,1,.744.957,3.7,3.7,0,0,1,.03.47" transform="translate(-237.823 -50.896)" fill="#fafafa"/>
            <path id="Trazado_811615" data-name="Trazado 811615" d="M550.476,123.2c.016.007.1-.117.146-.378a1.844,1.844,0,0,0-.17-1.1,1.925,1.925,0,0,0-.481-.625,2.185,2.185,0,0,0-.8-.411,2.348,2.348,0,0,1-.793-.362.977.977,0,0,1-.29-.79c0-.324.062-.662.067-1a4.954,4.954,0,0,0-.071-.968,4.639,4.639,0,0,0-.55-1.54,1.173,1.173,0,0,0-.917-.634c-.281-.008-.4.114-.392.125.011.027.144-.042.377,0a1.079,1.079,0,0,1,.729.622,4.91,4.91,0,0,1,.452,1.472,5.011,5.011,0,0,1,.048.91c-.007.312-.073.643-.074,1.013a1.29,1.29,0,0,0,.409,1.035,2.5,2.5,0,0,0,.912.407,1.756,1.756,0,0,1,1.166.854,2.384,2.384,0,0,1,.231,1.37" transform="translate(-239.355 -50.561)" fill="#fafafa"/>
            <path id="Trazado_811616" data-name="Trazado 811616" d="M510.352,106.052c-.027.005.312.244.878,0a2.506,2.506,0,0,0,.828-.652,3.448,3.448,0,0,1,1.019-.836,2.949,2.949,0,0,1,3.192.335c.511.4.955.95,1.548,1.419a2.745,2.745,0,0,0,1.043.531,2.3,2.3,0,0,0,1.212-.067c.776-.246,1.4-.691,2.067-.905a5.356,5.356,0,0,1,2.007-.282,5.272,5.272,0,0,1,3.172,1.229,5.8,5.8,0,0,1,1.449,1.837c.245.5.329.806.357.8a.628.628,0,0,0-.034-.228,4.583,4.583,0,0,0-.206-.625,5.5,5.5,0,0,0-1.413-1.96,5.416,5.416,0,0,0-3.308-1.357,5.581,5.581,0,0,0-2.127.279c-.722.231-1.356.678-2.059.9a1.979,1.979,0,0,1-1.043.063,2.437,2.437,0,0,1-.919-.467c-.555-.43-1.01-.98-1.557-1.4a3.086,3.086,0,0,0-1.831-.685,3.278,3.278,0,0,0-1.659.383,3.54,3.54,0,0,0-1.048.919,2.5,2.5,0,0,1-.744.659,1.2,1.2,0,0,1-.823.113" transform="translate(-223.635 -45.562)" fill="#fafafa"/>
            <rect id="Rectángulo_375898" data-name="Rectángulo 375898" width="58.492" height="6.06" transform="translate(261.076 177.168)" fill="#455a64"/>
            <path id="Trazado_811617" data-name="Trazado 811617" d="M499.607,203.322l37.058.458-.093,62.89-41.355.358Z" transform="translate(-217.003 -89.096)" fill="#455a64"/>
            <path id="Trazado_811618" data-name="Trazado 811618" d="M570.819,373.795l-3.047.022L561.3,317.533l2.856-.328Z" transform="translate(-245.963 -138.999)" fill="#455a64"/>
            <path id="Trazado_811619" data-name="Trazado 811619" d="M540.358,373.816l-2.9-.044-6.4-56.24,2.855-.328Z" transform="translate(-232.708 -138.999)" fill="#455a64"/>
            <path id="Trazado_811620" data-name="Trazado 811620" d="M456.435,374.406l2.9-.044,6.4-55.724-2.855-.328Z" transform="translate(-200.009 -139.483)" fill="#455a64"/>
            <path id="Trazado_811621" data-name="Trazado 811621" d="M489.7,374.406l2.9-.044,6.4-55.724-2.855-.328Z" transform="translate(-214.586 -139.483)" fill="#455a64"/>
            <path id="Trazado_811622" data-name="Trazado 811622" d="M518.867,266.779s.1.121.281.368l.813,1.112,3.177,4.39.063.087h-.108l-58.492.224h-.139v-.14c0-1.946,0-4.058,0-6.2v-.143h.142l22.473.061,31.792.1-.138.138c.021-18.291.04-33.949.053-45.042.017-5.538.03-9.935.039-12.957.01-1.5.017-2.66.022-3.451.005-.387.008-.682.011-.889s.012-.3.012-.3.008.1.012.3.007.5.012.889c.005.792.012,1.95.022,3.451.009,3.022.022,7.419.039,12.957.013,11.094.031,26.752.053,45.042v.138h-.138l-31.792-.084-22.473-.07.142-.142c0,2.142,0,4.255,0,6.2l-.139-.139,58.492-.056-.045.088-3.134-4.421-.79-1.128c-.175-.253-.258-.385-.258-.385" transform="translate(-203.526 -89.453)" fill="#263238"/>
            <path id="Trazado_811623" data-name="Trazado 811623" d="M395.27,379.907l.22,13.6s-13.75,4.792-13.955,7.309l26.386.52.527-21.205Z" transform="translate(-167.189 -166.475)" fill="#727997"/>
            <g id="Grupo_1068146" data-name="Grupo 1068146" transform="translate(213.908 213.432)" opacity="0.3">
              <g id="Grupo_1068145" data-name="Grupo 1068145">
                <g id="Grupo_1068144" data-name="Grupo 1068144" clip-path="url(#clip-path-5)">
                  <path id="Trazado_811624" data-name="Trazado 811624" d="M395.27,379.907l.22,13.6s-13.75,4.792-13.955,7.309l26.386.52.527-21.205Z" transform="translate(-381.537 -379.907)"/>
                </g>
              </g>
            </g>
            <path id="Trazado_811625" data-name="Trazado 811625" d="M419.919,402.328a1.078,1.078,0,0,1,.721,1.244,1.036,1.036,0,0,1-1.227.725,1.137,1.137,0,0,1-.757-1.322,1.075,1.075,0,0,1,1.36-.613" transform="translate(-183.435 -176.278)" fill="#e0e0e0"/>
            <path id="Trazado_811626" data-name="Trazado 811626" d="M407.916,416.381,408,414.24l-25.4.3s-1.185.488-1.069,1.318Z" transform="translate(-167.183 -181.52)" fill="#263238"/>
            <path id="Trazado_811627" data-name="Trazado 811627" d="M405.618,403.774c0,.129.645.2,1.271.627.637.41.953.975,1.072.926.12-.023-.057-.8-.824-1.3s-1.544-.371-1.519-.253" transform="translate(-177.741 -176.885)" fill="#263238"/>
            <path id="Trazado_811628" data-name="Trazado 811628" d="M400.651,405.762c-.032.124.522.354.948.908.443.541.542,1.133.671,1.129.12.023.225-.73-.319-1.408s-1.295-.752-1.3-.629" transform="translate(-175.564 -177.783)" fill="#263238"/>
            <path id="Trazado_811629" data-name="Trazado 811629" d="M396.967,409.893c.116.03.308-.611-.008-1.322s-.914-1.005-.97-.9c-.075.1.308.491.56,1.08s.292,1.126.419,1.142" transform="translate(-173.518 -178.632)" fill="#263238"/>
            <path id="Trazado_811630" data-name="Trazado 811630" d="M406.139,397.992c.052.119.646-.048,1.374.016.729.049,1.29.3,1.36.2.076-.092-.467-.58-1.325-.643s-1.469.329-1.408.431" transform="translate(-177.968 -174.207)" fill="#263238"/>
            <path id="Trazado_811631" data-name="Trazado 811631" d="M442.748,265.53s-7.814,1.176-15.862,2.671c-9.65,1.793-19.923,4.033-21.3,5.115-2.525,1.985-3.067,7.4-4.149,14.071s-1.518,47.853-1.518,47.853l17.821.562,3.838-43.66s26.169,0,31.553-.042c4.344-.031,16.132.643,20.461-1.883s7.9-14.047,7.855-14.065L447.681,262.2Z" transform="translate(-175.244 -114.897)" fill="#263238"/>
            <path id="Trazado_811632" data-name="Trazado 811632" d="M393.944,316.755l-2.581,13.725s-14.818,1.985-15.542,4.475l26.432,5.962,4.9-21.22Z" transform="translate(-164.684 -138.802)" fill="#727997"/>
            <path id="Trazado_811633" data-name="Trazado 811633" d="M417.308,342.335a1.106,1.106,0,0,1,.469,1.4,1.063,1.063,0,0,1-1.384.476,1.166,1.166,0,0,1-.488-1.485,1.1,1.1,0,0,1,1.494-.337" transform="translate(-182.199 -149.959)" fill="#e0e0e0"/>
            <path id="Trazado_811634" data-name="Trazado 811634" d="M402.146,354.81l.477-2.056-25.456-5.572s-1.292.247-1.346,1.106Z" transform="translate(-164.684 -152.135)" fill="#e0e0e0"/>
            <path id="Trazado_811635" data-name="Trazado 811635" d="M402.775,340.727c-.025.13.607.334,1.149.892s.757,1.178.888,1.153c.124,0,.106-.813-.561-1.478s-1.476-.692-1.475-.567" transform="translate(-176.495 -149.28)" fill="#263238"/>
            <path id="Trazado_811636" data-name="Trazado 811636" d="M397.378,341.677c-.058.119.452.464.767,1.108.334.635.312,1.251.442,1.274.117.048.376-.688-.031-1.482s-1.147-1.023-1.177-.9" transform="translate(-174.128 -149.709)" fill="#263238"/>
            <path id="Trazado_811637" data-name="Trazado 811637" d="M392.82,345.065c.111.054.436-.551.264-1.332s-.712-1.2-.791-1.1c-.1.09.21.557.341,1.2.147.64.061,1.193.186,1.234" transform="translate(-171.895 -150.134)" fill="#263238"/>
            <path id="Trazado_811638" data-name="Trazado 811638" d="M404.44,335.132c.028.13.66.085,1.378.3s1.235.572,1.328.477c.1-.076-.351-.679-1.2-.92s-1.546.028-1.505.143" transform="translate(-177.224 -146.748)" fill="#263238"/>
            <path id="Trazado_811639" data-name="Trazado 811639" d="M417.355,241.789a8.218,8.218,0,0,0-7.938,3.608c-3.066,4.51-7.5,44.555-7.5,44.555l15.946,3.611,9.843-34.448,15.99-2.562,5.238-3.534s-3.816-1.669-9.217-4.194-22.359-7.035-22.359-7.035" transform="translate(-176.118 -105.919)" fill="#263238"/>
            <path id="Trazado_811640" data-name="Trazado 811640" d="M518.865,304.982c.015.011-.2.137-.6.038a.878.878,0,0,1-.617-.413,2.476,2.476,0,0,1-.184-.981c-.086-1.5-.2-3.579-.344-6.04l.176.114a32.925,32.925,0,0,1-13.164,2.357,4.774,4.774,0,0,0-1.326.082,1.65,1.65,0,0,0-.966.669,3.6,3.6,0,0,0-.439,2.161c.1,1.423.008,2.572.009,3.363-.008.4-.008.7,0,.911a1.856,1.856,0,0,1,0,.319,1.018,1.018,0,0,1-.06-.315c-.023-.208-.04-.517-.05-.914-.036-.793.029-1.944-.1-3.349a3.771,3.771,0,0,1,.445-2.311,1.9,1.9,0,0,1,1.1-.782,4.968,4.968,0,0,1,1.4-.1A34.045,34.045,0,0,0,517.2,297.46l.17-.067.007.181c.1,2.464.179,4.539.239,6.045a2.433,2.433,0,0,0,.138.936.8.8,0,0,0,.533.387,1.12,1.12,0,0,0,.583.04" transform="translate(-219.614 -130.317)" fill="#455a64"/>
            <path id="Trazado_811641" data-name="Trazado 811641" d="M443.715,269.163a13.6,13.6,0,0,0-2.174-2.649,13.955,13.955,0,0,0-2.926-1.785,6.082,6.082,0,0,1,3.118,1.565,7.465,7.465,0,0,1,1.585,1.919,2.584,2.584,0,0,1,.4.95" transform="translate(-192.201 -116)" fill="#455a64"/>
            <path id="Trazado_811642" data-name="Trazado 811642" d="M440.607,257.18c.012-.016.133.065.341.224a7.232,7.232,0,0,1,.82.747,10.549,10.549,0,0,1,2.88,6.6,7.353,7.353,0,0,1-.01,1.109c-.025.261-.048.4-.069.4-.05,0-.028-.579-.128-1.494a11.891,11.891,0,0,0-2.828-6.479c-.6-.7-1.04-1.071-1.007-1.11" transform="translate(-193.073 -112.695)" fill="#455a64"/>
            <path id="Trazado_811643" data-name="Trazado 811643" d="M404.879,274.713a.509.509,0,0,1-.005.117c-.008.088-.02.2-.034.342q-.054.474-.153,1.332c-.144,1.18-.353,2.883-.617,5.042-.551,4.35-1.333,10.529-2.267,17.908l-.1-.14,15.95,3.594-.17.1,2.285-7.424c3.1-10,5.884-19.306,7.58-27.007l.018-.081.082-.012,9.276-1.342,6.719-1.162-.022.009,2.97-1.967.767-.5c.173-.111.266-.16.266-.16s-.08.067-.248.187l-.749.525-2.937,2.017-.011.007-.012,0-6.714,1.226-9.271,1.393.1-.093c-1.667,7.722-4.434,17.039-7.535,27.043-.783,2.542-1.553,5.037-2.288,7.422l-.04.129-.13-.03-15.942-3.628-.113-.026.015-.115c.977-7.373,1.8-13.548,2.371-17.894.294-2.155.526-3.855.688-5.033q.123-.855.191-1.327c.022-.142.04-.252.054-.34a.521.521,0,0,1,.025-.114" transform="translate(-175.952 -115.405)" fill="#455a64"/>
            <path id="Trazado_811644" data-name="Trazado 811644" d="M454,237.6l-13.091,3.17s5.848,1.641,6.258,1.751,8.055,1.772,9.312,1.207a16.493,16.493,0,0,0,2.112-1.131l1.119-4.7-1.253-.3a9.491,9.491,0,0,0-4.458,0" transform="translate(-193.207 -104.001)" fill="#ffbe9d"/>
            <path id="Trazado_811645" data-name="Trazado 811645" d="M529.548,169.356l-10.641-9.294-1.493-3.085-14.334,9.615-1,3.512-.961-4.76-1.676,4.258-2.152,1.636a10.377,10.377,0,0,0-1.8,2.2,37.165,37.165,0,0,0-2.624,5.156c-.607,1.475-2.61,7.729-5.089,14.005-3.912,9.905-7.089,20.356-4.9,22.046,2.267,1.749,28.083,15.669,34.77,16.4,3.651.4,4.68-2.43,5.314-5.724,1.174-6.111,6.585-55.965,6.585-55.965" transform="translate(-211.283 -68.787)" fill="#74c67b"/>
            <path id="Trazado_811646" data-name="Trazado 811646" d="M499.65,211.945a1.37,1.37,0,0,1,.065-.323c.063-.239.144-.539.243-.908.219-.787.548-1.922.976-3.319s.955-3.055,1.585-4.881c.613-1.837,1.452-3.789,2.165-5.893,1.454-4.208,2.669-8.056,3.57-10.832.441-1.36.8-2.474,1.067-3.289.122-.362.222-.657.3-.89a1.423,1.423,0,0,1,.124-.305,1.38,1.38,0,0,1-.067.322l-.249.907-.978,3.317c-.851,2.793-2.033,6.651-3.49,10.867-.717,2.116-1.563,4.065-2.187,5.886-.643,1.818-1.188,3.467-1.642,4.855l-1.064,3.289c-.12.363-.217.658-.3.893a1.4,1.4,0,0,1-.121.306" transform="translate(-218.945 -79.447)" fill="#263238"/>
            <g id="Grupo_1068149" data-name="Grupo 1068149" transform="translate(274.569 141.717)" opacity="0.3">
              <g id="Grupo_1068148" data-name="Grupo 1068148">
                <g id="Grupo_1068147" data-name="Grupo 1068147" clip-path="url(#clip-path-6)">
                  <path id="Trazado_811647" data-name="Trazado 811647" d="M527.46,252.254c-2.587,3.639-7.224,5.366-11.685,5.535s-8.852-1-13.179-2.106-8.762-2.165-13.21-1.769l-.656-.1c5.979,2.583,11.866,5.339,18.1,7.21a30.676,30.676,0,0,0,8.74,1.561,13.6,13.6,0,0,0,8.36-2.575,8.82,8.82,0,0,0,3.527-7.756" transform="translate(-488.73 -252.254)"/>
                </g>
              </g>
            </g>
            <path id="Trazado_811648" data-name="Trazado 811648" d="M512.883,180.195a7.211,7.211,0,0,1,12.2-1.334,10.465,10.465,0,0,1,1.3,4.574c-.084,3.606-2.369,28.854-7.725,36.881-3.03,4.54-8.444,4.823-9.858,4.84-3.387.046-17.554-2.787-23.145-3.681s-16.12-3.573-16.12-3.573l1.829-7.682,32.24-1.337,6-21.922Z" transform="translate(-205.749 -77.156)" fill="#74c67b"/>
            <path id="Trazado_811649" data-name="Trazado 811649" d="M535.653,240.733a7.9,7.9,0,0,1-.418-1.229,9.559,9.559,0,0,0-1.364-2.752,7.649,7.649,0,0,0-2.34-1.965,9.56,9.56,0,0,1-1.137-.621,4.14,4.14,0,0,1,1.233.438,6.869,6.869,0,0,1,2.477,1.97,8.263,8.263,0,0,1,1.329,2.871,4.565,4.565,0,0,1,.22,1.288" transform="translate(-232.418 -102.609)" fill="#263238"/>
            <path id="Trazado_811650" data-name="Trazado 811650" d="M530.474,239.126a.431.431,0,0,1-.019.128l-.082.368c-.074.324-.2.8-.372,1.4a31.954,31.954,0,0,1-1.887,4.989,15.075,15.075,0,0,1-1.958,3.134A9.38,9.38,0,0,1,522.7,251.6a18.636,18.636,0,0,1-9.561,1.178c-1.715-.175-3.37-.473-4.96-.78l-4.578-.9-7.747-1.544-5.218-1.066-1.416-.3-.367-.086a.45.45,0,0,1-.123-.039.421.421,0,0,1,.129.01l.372.058,1.426.251,5.236.975,7.759,1.482,4.58.884c1.588.3,3.235.6,4.935.77a18.533,18.533,0,0,0,9.423-1.134,9.182,9.182,0,0,0,3.38-2.369,15.094,15.094,0,0,0,1.958-3.069,34.9,34.9,0,0,0,1.963-4.931c.191-.6.332-1.065.424-1.383l.111-.36a.42.42,0,0,1,.047-.12" transform="translate(-214.161 -104.785)" fill="#263238"/>
            <path id="Trazado_811651" data-name="Trazado 811651" d="M511.033,195.452a2.854,2.854,0,0,1-.09.434q-.114.457-.309,1.238l-1.2,4.588-4.147,15.53-.027.1-.1.006-4.925.266c-7.579.366-14.442.587-19.407.791l-5.88.243-1.6.062-.416.008a.513.513,0,0,1-.142-.007.5.5,0,0,1,.14-.023l.415-.038,1.6-.117c1.387-.092,3.394-.211,5.877-.336l19.4-.877,4.923-.26-.13.106c1.688-6.17,3.173-11.594,4.243-15.5l1.279-4.565.357-1.225a2.858,2.858,0,0,1,.141-.42" transform="translate(-207.177 -85.647)" fill="#263238"/>
            <path id="Trazado_811652" data-name="Trazado 811652" d="M555.367,178.806a15.608,15.608,0,0,0-2.089-.721,8.18,8.18,0,0,0-9.055,3.934,15.62,15.62,0,0,0-.9,2.019,2,2,0,0,1,.107-.593,7.243,7.243,0,0,1,.611-1.527,8.067,8.067,0,0,1,9.285-4.033,7.207,7.207,0,0,1,1.533.6,2.022,2.022,0,0,1,.506.326" transform="translate(-238.083 -77.826)" fill="#263238"/>
            <g id="Grupo_1068152" data-name="Grupo 1068152" transform="translate(291.794 94.207)" opacity="0.3">
              <g id="Grupo_1068151" data-name="Grupo 1068151">
                <g id="Grupo_1068150" data-name="Grupo 1068150" clip-path="url(#clip-path-7)">
                  <path id="Trazado_811653" data-name="Trazado 811653" d="M519.394,171.285a12.212,12.212,0,0,0,.87,4.334c.08.225.428,1.756.662,1.8a.91.91,0,0,0,.685-.283,96.413,96.413,0,0,0,10.147-9.447l-10.252,7.5Z" transform="translate(-519.391 -167.688)"/>
                </g>
              </g>
            </g>
            <path id="Trazado_811654" data-name="Trazado 811654" d="M512.923,172.147a.888.888,0,0,1,.074.224c.046.176.1.394.17.661l-.09,0c.254-.936.721-2.575,1.342-4.714l.112-.386.1.392c.314,1.267.671,2.717,1.061,4.3l-.256-.005.989-3.515.095-.338.168.31,1.83,3.375.286.529-.214-.049,9.748-7.229,2.957-2.152.811-.573a1.57,1.57,0,0,1,.294-.184,1.561,1.561,0,0,1-.259.23l-.779.615-2.9,2.226-9.7,7.3-.134.1-.081-.149-.286-.529-1.824-3.379.263-.029c-.354,1.233-.694,2.416-1.008,3.51l-.141.488-.116-.493c-.373-1.583-.715-3.037-1.014-4.307l.209.005c-.652,2.129-1.16,3.756-1.46,4.678l-.057.174-.033-.178c-.051-.271-.092-.492-.126-.671a.9.9,0,0,1-.028-.235" transform="translate(-224.761 -71.332)" fill="#263238"/>
          </g>
        </g>
        <rect id="Rectángulo_375903" data-name="Rectángulo 375903" width="58.492" height="6.06" transform="translate(13.65 177.168)" fill="#455a64"/>
        <path id="Trazado_811655" data-name="Trazado 811655" d="M61.19,203.322l-37.058.458.093,62.89,41.356.358Z" transform="translate(-10.574 -89.096)" fill="#455a64"/>
        <path id="Trazado_811656" data-name="Trazado 811656" d="M15.265,373.817l2.9-.044,6.4-56.24-2.856-.328Z" transform="translate(-6.689 -138.999)" fill="#455a64"/>
        <path id="Trazado_811657" data-name="Trazado 811657" d="M45.513,373.817l2.9-.044,6.4-56.24-2.855-.328Z" transform="translate(-19.944 -138.999)" fill="#455a64"/>
        <path id="Trazado_811658" data-name="Trazado 811658" d="M120.134,318.639l6.4,55.724,2.9.044-6.447-56.1Z" transform="translate(-52.643 -139.483)" fill="#455a64"/>
        <path id="Trazado_811659" data-name="Trazado 811659" d="M86.869,318.639l6.4,55.724,2.9.044-6.447-56.1Z" transform="translate(-38.066 -139.483)" fill="#455a64"/>
        <g id="Grupo_1068156" data-name="Grupo 1068156">
          <g id="Grupo_1068155" data-name="Grupo 1068155" clip-path="url(#clip-path)">
            <path id="Trazado_811660" data-name="Trazado 811660" d="M28.44,266.779s-.083.132-.258.385l-.79,1.128-3.134,4.421-.045-.088,58.492.056-.139.139c0-1.946,0-4.058,0-6.2l.142.142-22.473.07-31.792.084H28.3v-.138c.021-18.291.04-33.949.053-45.042.017-5.538.03-9.935.039-12.957.01-1.5.017-2.66.022-3.451,0-.387.008-.682.011-.889s.012-.3.012-.3.008.1.012.3.007.5.012.889c.005.792.012,1.95.022,3.451.009,3.022.022,7.419.039,12.957.013,11.094.031,26.752.053,45.042l-.138-.138,31.792-.1,22.473-.061h.142v.143c0,2.142,0,4.255,0,6.2v.14h-.139l-58.492-.224H24.1l.063-.087,3.177-4.39.813-1.112c.183-.247.281-.368.281-.368" transform="translate(-10.563 -89.453)" fill="#263238"/>
          </g>
        </g>
        <g id="Grupo_1068158" data-name="Grupo 1068158">
          <g id="Grupo_1068157" data-name="Grupo 1068157" clip-path="url(#clip-path)">
            <path id="Trazado_811661" data-name="Trazado 811661" d="M207.073,29.122a1.455,1.455,0,1,1-1.454-1.455,1.455,1.455,0,0,1,1.454,1.455" transform="translate(-89.464 -12.124)" fill="#1969d5"/>
            <path id="Trazado_811662" data-name="Trazado 811662" d="M217.435,29.122a1.455,1.455,0,1,1-1.454-1.455,1.455,1.455,0,0,1,1.454,1.455" transform="translate(-94.005 -12.124)" fill="#1969d5"/>
            <path id="Trazado_811663" data-name="Trazado 811663" d="M227.922,28.394a1.455,1.455,0,1,1-1.987-.533,1.454,1.454,0,0,1,1.987.533" transform="translate(-98.686 -12.123)" fill="#1969d5"/>
            <path id="Trazado_811664" data-name="Trazado 811664" d="M203.9.007A1.618,1.618,0,0,1,204.193,0l.865.025c.19.009.4.008.637.028l.762.107.89.128.994.246a16.108,16.108,0,0,1,4.819,2.1,17,17,0,0,1,7.811,12.782,17.631,17.631,0,0,1,.047,2.33c-.028.394-.02.795-.077,1.192s-.12.8-.181,1.2a17.1,17.1,0,0,1-1.619,4.742,18.283,18.283,0,0,1-3.1,4.262,17.885,17.885,0,0,1-4.462,3.205,16.21,16.21,0,0,1-5.439,1.67,10.842,10.842,0,0,1-1.451.124,13.151,13.151,0,0,1-1.466.026,17.457,17.457,0,0,1-2.938-.371,17.175,17.175,0,0,1-5.847-2.461l.178.018-5.957,2.39-.353.142.1-.366q.9-3.279,1.751-6.368l.03.157a17.088,17.088,0,0,1-3.179-7.276,15.463,15.463,0,0,1-.231-3.728,11.964,11.964,0,0,1,.169-1.79q.068-.439.135-.871c.053-.287.14-.564.208-.844a17.039,17.039,0,0,1,6.646-9.688,16.3,16.3,0,0,1,3.955-2.086l.89-.319.846-.215L200.4.3c.248-.047.488-.073.712-.107.451-.057.846-.135,1.193-.152l.875-.029L203.718,0a.807.807,0,0,1,.181.006.84.84,0,0,1-.181.025l-.532.042-.87.058c-.344.027-.736.114-1.181.18a16.942,16.942,0,0,0-13.544,12.564c-.065.275-.15.547-.2.829l-.129.856a11.7,11.7,0,0,0-.157,1.758,15.183,15.183,0,0,0,.241,3.655,16.789,16.789,0,0,0,3.135,7.118l.054.071-.024.087q-.842,3.086-1.738,6.371l-.252-.225,5.953-2.4.093-.038.085.056a16.806,16.806,0,0,0,5.717,2.4,17,17,0,0,0,2.871.363,12.583,12.583,0,0,0,1.434-.026,10.45,10.45,0,0,0,1.418-.12,15.846,15.846,0,0,0,5.319-1.626,17.56,17.56,0,0,0,4.371-3.128,17.967,17.967,0,0,0,3.042-4.164,16.805,16.805,0,0,0,1.6-4.64q.092-.592.182-1.176c.058-.389.051-.783.08-1.169a17.287,17.287,0,0,0-.036-2.287,16.826,16.826,0,0,0-7.609-12.629A16.2,16.2,0,0,0,208.3.681L207.32.42l-.88-.144-.756-.125c-.231-.025-.443-.031-.632-.047l-.86-.062A1.652,1.652,0,0,1,203.9.007" transform="translate(-81.834 0)" fill="#263238"/>
          </g>
        </g>
        <g id="Grupo_1068169" data-name="Grupo 1068169">
          <g id="Grupo_1068168" data-name="Grupo 1068168" clip-path="url(#clip-path)">
            <path id="Trazado_811665" data-name="Trazado 811665" d="M128.017,372.532,124.335,385.5s11.946,8.1,11.5,10.561l-25.4-6.237,4.908-20.442Z" transform="translate(-48.391 -161.864)" fill="#727997"/>
            <path id="Trazado_811666" data-name="Trazado 811666" d="M120.894,392.672a1.068,1.068,0,0,0-1.008,1.008,1.027,1.027,0,0,0,.99,1.008,1.127,1.127,0,0,0,1.062-1.073,1.066,1.066,0,0,0-1.146-.934" transform="translate(-52.534 -172.064)" fill="#e0e0e0"/>
            <g id="Grupo_1068161" data-name="Grupo 1068161" transform="translate(62.041 225.922)" opacity="0.6">
              <g id="Grupo_1068160" data-name="Grupo 1068160">
                <g id="Grupo_1068159" data-name="Grupo 1068159" clip-path="url(#clip-path-11)">
                  <path id="Trazado_811667" data-name="Trazado 811667" d="M110.432,404.179l.575-2.041,24.141,6.742s1.01.77.687,1.535Z" transform="translate(-110.432 -402.138)" fill="#fff"/>
                </g>
              </g>
            </g>
            <path id="Trazado_811668" data-name="Trazado 811668" d="M133.9,397.816c-.034.123-.669.027-1.377.276-.715.231-1.161.691-1.263.613-.109-.052.258-.748,1.121-1.034s1.574.038,1.519.145" transform="translate(-57.508 -174.207)" fill="#263238"/>
            <path id="Trazado_811669" data-name="Trazado 811669" d="M138.581,401.065c0,.127-.59.206-1.14.628-.563.405-.808.946-.93.91-.122-.009-.029-.756.665-1.267s1.431-.39,1.405-.271" transform="translate(-59.799 -175.7)" fill="#263238"/>
            <path id="Trazado_811670" data-name="Trazado 811670" d="M141.475,405.99c-.119,0-.14-.663.346-1.265s1.132-.729,1.159-.613c.045.119-.421.392-.812.891s-.566,1-.693.987" transform="translate(-61.963 -177.065)" fill="#263238"/>
            <path id="Trazado_811671" data-name="Trazado 811671" d="M134.794,391.961c-.08.1-.607-.211-1.32-.335-.71-.139-1.314-.038-1.352-.16-.049-.107.6-.435,1.433-.277s1.324.689,1.239.772" transform="translate(-57.895 -171.4)" fill="#263238"/>
            <path id="Trazado_811672" data-name="Trazado 811672" d="M115.726,380.911l-.53,13.471s13.515,5.062,13.66,7.561l-26.156-.089-.037-21.023Z" transform="translate(-44.987 -166.88)" fill="#727997"/>
            <path id="Trazado_811673" data-name="Trazado 811673" d="M109.986,402.851a1.068,1.068,0,0,0-.743,1.216,1.027,1.027,0,0,0,1.2.747,1.127,1.127,0,0,0,.78-1.293,1.065,1.065,0,0,0-1.334-.638" transform="translate(-47.861 -176.51)" fill="#e0e0e0"/>
            <g id="Grupo_1068164" data-name="Grupo 1068164" transform="translate(57.713 232.856)" opacity="0.6">
              <g id="Grupo_1068163" data-name="Grupo 1068163">
                <g id="Grupo_1068162" data-name="Grupo 1068162" clip-path="url(#clip-path-12)">
                  <path id="Trazado_811674" data-name="Trazado 811674" d="M102.728,416.6l.079-2.119,25.049.877s1.163.511,1.029,1.331Z" transform="translate(-102.728 -414.481)" fill="#fff"/>
                </g>
              </g>
            </g>
            <path id="Trazado_811675" data-name="Trazado 811675" d="M123.865,404.624c0,.128-.643.184-1.273.592-.641.392-.967.944-1.084.893-.118-.025.075-.788.847-1.27s1.538-.333,1.51-.216" transform="translate(-53.231 -177.253)" fill="#263238"/>
            <path id="Trazado_811676" data-name="Trazado 811676" d="M129.247,406.712c.029.124-.525.339-.961.878-.452.526-.563,1.11-.69,1.1-.12.02-.206-.729.348-1.388s1.3-.715,1.3-.593" transform="translate(-55.874 -178.198)" fill="#263238"/>
            <path id="Trazado_811677" data-name="Trazado 811677" d="M133.24,410.89c-.116.027-.292-.612.039-1.31s.929-.975.982-.869c.072.106-.317.48-.58,1.057s-.314,1.11-.441,1.121" transform="translate(-58.319 -179.087)" fill="#263238"/>
            <path id="Trazado_811678" data-name="Trazado 811678" d="M123.215,398.866c-.054.116-.639-.062-1.361-.015-.723.031-1.286.272-1.352.162-.074-.093.476-.563,1.328-.607s1.448.36,1.385.46" transform="translate(-52.801 -174.58)" fill="#263238"/>
            <path id="Trazado_811679" data-name="Trazado 811679" d="M124.873,398.089a5.578,5.578,0,0,0-.073,1.053c-.022.672-.04,1.636-.054,2.8v.086l.083.033c1.344.533,2.987,1.188,4.738,1.944,2.276.978,4.29,1.964,5.724,2.722l1.689.919a3.167,3.167,0,0,0,.632.319,3.152,3.152,0,0,0-.57-.421c-.379-.252-.939-.6-1.645-1.008a57.581,57.581,0,0,0-5.707-2.814c-1.757-.758-3.41-1.4-4.771-1.9l.082.118c-.013-1.166-.032-2.13-.054-2.8a5.679,5.679,0,0,0-.072-1.053" transform="translate(-54.663 -174.442)" fill="#263238"/>
            <path id="Trazado_811680" data-name="Trazado 811680" d="M96.365,204.109l.038,8.712L99.446,254.3s-1.691,20.134-2.734,31.5c-.906,9.871.722,27.047.722,27.047l16.648-.074,5.7-57.331,3.539-35.755,6.361-16.294Z" transform="translate(-42.227 -89.126)" fill="#263238"/>
            <path id="Trazado_811681" data-name="Trazado 811681" d="M150.3,202.718l-2.467,58.558L131.18,304.689l-.762,2.613-9.957-2.361,6.946-102.588Z" transform="translate(-52.786 -88.671)" fill="#263238"/>
            <path id="Trazado_811682" data-name="Trazado 811682" d="M137.1,233.156a1.374,1.374,0,0,1,.007.24c0,.174-.006.408-.011.706-.017.638-.041,1.548-.072,2.714-.057,2.357-.21,5.765-.431,9.975-.465,8.417-1.351,20.035-2.756,32.822-1.382,12.793-2.92,24.339-4.044,32.692-.571,4.163-1.034,7.538-1.357,9.889-.165,1.154-.293,2.056-.383,2.687l-.107.7a1.381,1.381,0,0,1-.047.236,1.333,1.333,0,0,1,.016-.24c.019-.172.044-.405.077-.7.076-.633.185-1.537.325-2.694.3-2.354.729-5.733,1.259-9.9,1.069-8.361,2.571-19.909,3.953-32.7,1.4-12.782,2.324-24.389,2.846-32.8.248-4.206.435-7.611.529-9.966.056-1.164.1-2.074.13-2.711.017-.3.031-.531.042-.705a1.359,1.359,0,0,1,.025-.24" transform="translate(-56.044 -102.169)" fill="#455a64"/>
            <path id="Trazado_811683" data-name="Trazado 811683" d="M142.529,218.29c-.007,0-.015.057.057.12a.347.347,0,0,0,.381.017.7.7,0,0,0,.275-.528c.033-.228.068-.47.105-.726.149-1.076.333-2.564.519-4.21s.335-3.139.428-4.221a9.991,9.991,0,0,0,.088-1.758,9.921,9.921,0,0,0-.3,1.734c-.149,1.075-.334,2.564-.519,4.21s-.335,3.138-.428,4.22c-.066.529-.014,1.024-.226,1.177a.291.291,0,0,1-.283.033c-.063-.03-.08-.074-.092-.068" transform="translate(-62.454 -90.7)" fill="#455a64"/>
            <path id="Trazado_811684" data-name="Trazado 811684" d="M138.517,208.322c0-.017-.089-.048-.253-.021a1.02,1.02,0,0,0-.6.363,1.038,1.038,0,0,0-.189,1.035,1.2,1.2,0,0,0,1.044.755,1.135,1.135,0,0,0,1.072-.713,1.046,1.046,0,0,0-.094-1.046.863.863,0,0,0-.6-.364c-.171-.013-.255.04-.251.057a.961.961,0,0,1,.671.429.838.838,0,0,1,.016.807.87.87,0,0,1-.8.522.944.944,0,0,1-.794-.552.832.832,0,0,1,.1-.8c.3-.428.689-.425.675-.474" transform="translate(-60.214 -91.273)" fill="#455a64"/>
            <path id="Trazado_811685" data-name="Trazado 811685" d="M165.819,206.548a2.333,2.333,0,0,0-.189,1.126,4.928,4.928,0,0,0,2.853,4.466,2.347,2.347,0,0,0,1.1.3c.013-.049-.406-.163-1-.5a5.271,5.271,0,0,1-2.734-4.28c-.052-.681.021-1.11-.029-1.118" transform="translate(-72.579 -90.509)" fill="#455a64"/>
            <path id="Trazado_811686" data-name="Trazado 811686" d="M157.537,208.2c.079.026.321-.5.433-1.207a2.18,2.18,0,0,0-.033-1.283,10.958,10.958,0,0,0-.4,2.49" transform="translate(-69.02 -90.143)" fill="#455a64"/>
            <path id="Trazado_811687" data-name="Trazado 811687" d="M154.261,208.107a5.843,5.843,0,0,0,.507-2.619,5.851,5.851,0,0,0-.507,2.619" transform="translate(-67.579 -90.044)" fill="#455a64"/>
            <path id="Trazado_811688" data-name="Trazado 811688" d="M121.394,208.757c.083.019.239-.367.348-.86s.129-.908.046-.926-.239.367-.347.86-.129.908-.046.926" transform="translate(-53.172 -90.694)" fill="#455a64"/>
            <path id="Trazado_811689" data-name="Trazado 811689" d="M118.192,208.639a5.546,5.546,0,0,0,.491-3.381,37.316,37.316,0,0,0-.491,3.381" transform="translate(-51.781 -89.944)" fill="#455a64"/>
            <path id="Trazado_811690" data-name="Trazado 811690" d="M95.94,216.1a1.472,1.472,0,0,0,.5.2,4.6,4.6,0,0,0,1.462.147,6.6,6.6,0,0,0,4.31-2.056,10.027,10.027,0,0,0,2.285-4.225,12.394,12.394,0,0,0,.313-1.424,1.723,1.723,0,0,0,.044-.534c-.051-.01-.191.738-.566,1.894a10.709,10.709,0,0,1-2.3,4.076,6.713,6.713,0,0,1-4.1,2.052,8.159,8.159,0,0,1-1.947-.126" transform="translate(-42.041 -91.236)" fill="#455a64"/>
            <path id="Trazado_811691" data-name="Trazado 811691" d="M123.774,35.657a47.871,47.871,0,0,1-3.243-7.6,16.726,16.726,0,0,1-.56-8.169c.086-.409.925-3.193,1.343-3.214.3-.015-.1,2.524.092,2.757a14.184,14.184,0,0,1,2.8,7.944,37.357,37.357,0,0,1-.434,8.282" transform="translate(-52.448 -7.306)" fill="#263238"/>
            <path id="Trazado_811692" data-name="Trazado 811692" d="M142.88,43.994c-.268-1.929-.474-3.453-.459-3.456s6.51-1.657,5.963-8.271c-.265-3.2-1.346-9.732-2.392-15.634a12.365,12.365,0,0,0-13.35-10.149l-.638.061C125.17,7.6,122.248,14,123.493,20.8l3.6,23.937,18.256,16.147Z" transform="translate(-53.992 -2.817)" fill="#7f544e"/>
            <path id="Trazado_811693" data-name="Trazado 811693" d="M150.5,65.8a16.03,16.03,0,0,1-8.844-1.724s2.555,4.606,9.091,3.383Z" transform="translate(-62.075 -28.078)" fill="#633a34"/>
            <path id="Trazado_811694" data-name="Trazado 811694" d="M160.278,33.95a.948.948,0,0,1-.819,1.039.907.907,0,0,1-1.053-.758.948.948,0,0,1,.818-1.039.907.907,0,0,1,1.054.758" transform="translate(-69.41 -14.54)" fill="#263238"/>
            <path id="Trazado_811695" data-name="Trazado 811695" d="M158.8,29.067c-.105.134-.87-.327-1.885-.228s-1.711.678-1.833.564c-.06-.049.038-.283.34-.55a2.6,2.6,0,0,1,1.453-.6,2.5,2.5,0,0,1,1.515.334c.335.21.462.422.41.483" transform="translate(-67.949 -12.374)" fill="#263238"/>
            <path id="Trazado_811696" data-name="Trazado 811696" d="M143.486,35.934a.948.948,0,0,1-.819,1.039.906.906,0,0,1-1.053-.758.948.948,0,0,1,.818-1.039.907.907,0,0,1,1.055.758" transform="translate(-62.051 -15.409)" fill="#263238"/>
            <path id="Trazado_811697" data-name="Trazado 811697" d="M141.166,31.485c-.106.134-.872-.326-1.887-.227s-1.711.678-1.832.564c-.06-.05.038-.283.34-.551a2.6,2.6,0,0,1,1.453-.6,2.5,2.5,0,0,1,1.516.335c.333.21.461.422.41.483" transform="translate(-60.222 -13.434)" fill="#263238"/>
            <path id="Trazado_811698" data-name="Trazado 811698" d="M150.887,38.835a6.753,6.753,0,0,1,1.621-.454c.257-.052.5-.126.524-.307a1.327,1.327,0,0,0-.247-.752l-.955-1.9a34.083,34.083,0,0,1-2.214-5,34.152,34.152,0,0,1,2.611,4.81q.483,1,.924,1.916a1.513,1.513,0,0,1,.231,1.005.655.655,0,0,1-.39.42,1.792,1.792,0,0,1-.434.1,6.631,6.631,0,0,1-1.671.161" transform="translate(-65.558 -13.33)" fill="#263238"/>
            <path id="Trazado_811699" data-name="Trazado 811699" d="M139.7,24.343c-.074.285-1.1.251-2.278.508-1.183.233-2.11.674-2.292.441-.082-.112.061-.388.424-.692a4.058,4.058,0,0,1,3.481-.724c.454.135.695.331.664.466" transform="translate(-59.204 -10.407)" fill="#263238"/>
            <path id="Trazado_811700" data-name="Trazado 811700" d="M157.681,23.079c-.157.248-.879.075-1.722.144-.844.039-1.538.3-1.725.077-.083-.11.007-.352.3-.6a2.5,2.5,0,0,1,2.777-.178c.32.208.44.437.372.557" transform="translate(-67.572 -9.721)" fill="#263238"/>
            <path id="Trazado_811701" data-name="Trazado 811701" d="M122.269,40.556c-.117-.038-4.668-.91-4.093,3.593s4.977,3,4.969,2.867-.875-6.46-.875-6.46" transform="translate(-51.763 -17.731)" fill="#7f544e"/>
            <path id="Trazado_811702" data-name="Trazado 811702" d="M122.47,46.7c-.021-.012-.071.065-.2.143a.79.79,0,0,1-.585.087,1.957,1.957,0,0,1-1.12-1.627,2.617,2.617,0,0,1,.076-1.151.915.915,0,0,1,.513-.678.4.4,0,0,1,.49.156c.076.118.059.212.084.216s.087-.088.027-.269a.507.507,0,0,0-.213-.26.6.6,0,0,0-.448-.059,1.109,1.109,0,0,0-.73.8,2.675,2.675,0,0,0-.112,1.29,2.053,2.053,0,0,0,1.392,1.8.847.847,0,0,0,.7-.211c.125-.129.137-.233.12-.239" transform="translate(-52.682 -18.949)" fill="#633a34"/>
            <path id="Trazado_811703" data-name="Trazado 811703" d="M140.717,9.038c.673-.5-1.833-2.56-3.733-3.128-2.871-.857-7.1-1.049-9.5,0C124.6,7.17,122.309,9,121.175,11.941a17.856,17.856,0,0,0-.752,9.3,5.419,5.419,0,0,0,1.009,2.661c.764.909,2.055,1.37,2.189,2.749a1.9,1.9,0,0,0,.654,1.31c.943.763,1.837-.2,2.188-1.085a13.146,13.146,0,0,0,.382-6.046,13.272,13.272,0,0,0-.869-4.239c-.322-.72-.772-1.38-1.055-2.116a2.729,2.729,0,0,1,.012-2.289,2.872,2.872,0,0,1,.315-.42,4.735,4.735,0,0,1,4.533-1.521c2.655.551,7.164,1.3,8.176.284a6.983,6.983,0,0,0,1.735-2.318Z" transform="translate(-52.644 -2.276)" fill="#263238"/>
            <path id="Trazado_811704" data-name="Trazado 811704" d="M153.788,50.427a1.916,1.916,0,0,0-.369-1.125,1.609,1.609,0,0,0-1.9.4,1.447,1.447,0,0,0,.111,1.9,1.316,1.316,0,0,0,1.858-.123,1.627,1.627,0,0,0,.3-1.054" transform="translate(-66.264 -21.538)" fill="#633a34"/>
            <path id="Trazado_811705" data-name="Trazado 811705" d="M153.253,51.537c.027.015-.238.324-.835.366a1.439,1.439,0,0,1-.989-.285,1.4,1.4,0,0,1-.471-1.178,1.479,1.479,0,0,1,.6-1.114,1.683,1.683,0,0,1,.96-.348,1.131,1.131,0,0,1,.865.3,4.915,4.915,0,0,0-.853-.092,1.427,1.427,0,0,0-1.276,1.274,1.175,1.175,0,0,0,.351.951,1.305,1.305,0,0,0,.814.286,3.027,3.027,0,0,0,.839-.16" transform="translate(-66.148 -21.463)" fill="#263238"/>
            <path id="Trazado_811706" data-name="Trazado 811706" d="M175.225,132.225s2.028,30.862.894,34.9-6.948,12.571-6.948,12.571a5.959,5.959,0,0,1-3-2.763c-.967-1.985-.6-1.825-.6-1.825s4.694-3.326,3.637-8.293-.9-34.158-.9-34.158Z" transform="translate(-72.525 -57.941)" fill="#7f544e"/>
            <path id="Trazado_811707" data-name="Trazado 811707" d="M174.143,89.55a13.773,13.773,0,0,1,4.1,9.092c.449,5.473,1.081,15.972,1.081,15.972l-6.508-.14Z" transform="translate(-75.726 -39.241)" fill="#59bee2"/>
            <path id="Trazado_811708" data-name="Trazado 811708" d="M140.951,82.308c-.54-2.162-10.27-8.574-10.27-8.574s.676,6.952-2.838,7.493S114.18,69.662,114.18,69.662l-12.852,3.707a19.566,19.566,0,0,0-4.161,5.29c-1.481,2.976-2.46,42.3-2.46,42.3l1.649,17.3a7.737,7.737,0,0,1-1.081,3.379c-.946,1.351-1.215,6.063,3.413,5.864,4.381-.189,22.15,2.819,30.933,2.279s10.071-1.149,10.129-6.173c.057-4.883-1.638-8.051-2.179-16.97s3.919-42.162,3.379-44.324" transform="translate(-41.501 -30.526)" fill="#59bee2"/>
            <path id="Trazado_811709" data-name="Trazado 811709" d="M173.178,102.195a6.5,6.5,0,0,1,.024,1c0,.642-.021,1.57-.054,2.717-.064,2.293-.2,5.46-.371,8.955-.177,3.474-.337,6.616-.456,8.951-.06,1.109-.11,2.024-.147,2.712a6.5,6.5,0,0,1-.09.993,6.434,6.434,0,0,1-.024-1c0-.642.022-1.57.054-2.717.064-2.293.2-5.461.37-8.957.177-3.472.337-6.614.456-8.949.06-1.109.11-2.024.147-2.712a6.509,6.509,0,0,1,.09-.994" transform="translate(-75.396 -44.782)" fill="#263238"/>
            <path id="Trazado_811710" data-name="Trazado 811710" d="M172.686,88.005a6.76,6.76,0,0,1,.767,5.037c-.088-.01.038-1.16-.18-2.549s-.669-2.452-.587-2.488" transform="translate(-75.666 -38.563)" fill="#263238"/>
            <path id="Trazado_811711" data-name="Trazado 811711" d="M133.9,197.714a6.368,6.368,0,0,1-.969.193c-.626.11-1.539.229-2.672.337a48.389,48.389,0,0,1-17.611-1.628c-1.093-.313-1.969-.6-2.565-.82a6.377,6.377,0,0,1-.917-.367,6.387,6.387,0,0,1,.953.258c.6.19,1.487.442,2.583.729a53.8,53.8,0,0,0,17.541,1.621c1.129-.081,2.043-.167,2.673-.243a6.34,6.34,0,0,1,.984-.08" transform="translate(-47.839 -85.636)" fill="#263238"/>
            <path id="Trazado_811712" data-name="Trazado 811712" d="M149.389,188.572a2.305,2.305,0,0,1-.478.349c-.317.211-.789.494-1.384.825a32.9,32.9,0,0,1-9.982,3.555c-.67.12-1.215.2-1.594.235a2.3,2.3,0,0,1-.592.031c-.006-.046.822-.18,2.144-.469a40.789,40.789,0,0,0,9.926-3.534c1.207-.612,1.934-1.032,1.958-.992" transform="translate(-59.315 -82.631)" fill="#263238"/>
            <path id="Trazado_811713" data-name="Trazado 811713" d="M140.4,142.064a1.983,1.983,0,0,1,.26-.2l.776-.557,2.932-2.126c2.507-1.85,6.033-4.558,10.04-8.036l.053.222-15.388-3.876-1.389-.351-.292-.074.238-.184a59.358,59.358,0,0,1,15.281-8.488l-.006.224-9.769-4.345-2.711-1.226-.708-.331a1.374,1.374,0,0,1-.238-.125,1.49,1.49,0,0,1,.252.091l.723.3,2.738,1.166,9.81,4.251.272.118-.279.106a60.16,60.16,0,0,0-15.188,8.493l-.053-.258,1.389.352,15.38,3.91.24.061-.188.161c-4.03,3.466-7.584,6.148-10.119,7.965-1.268.908-2.28,1.6-2.976,2.069l-.8.526a2,2,0,0,1-.283.169" transform="translate(-60.205 -49.335)" fill="#fff"/>
            <g id="Grupo_1068167" data-name="Grupo 1068167" transform="translate(53.525 79.238)" opacity="0.3">
              <g id="Grupo_1068166" data-name="Grupo 1068166">
                <g id="Grupo_1068165" data-name="Grupo 1068165" clip-path="url(#clip-path-13)">
                  <path id="Trazado_811714" data-name="Trazado 811714" d="M137.253,141.584a4.239,4.239,0,0,0-2.589-.536c-7.08.183-13.76,3.17-20.088,6.35s-12.337,6.68-19.3,7.97c-.031,1.668,1.348,2.548,2.956,2.994a15.433,15.433,0,0,0,9.366-.716,45.95,45.95,0,0,0,8.4-4.5l13.255-8.332c1.405-.883,3.021-1.8,4.629-1.395.661.169,1.248.552,1.9.766a1.868,1.868,0,0,0,1.921-.273,1.635,1.635,0,0,0-.446-2.328" transform="translate(-95.275 -141.043)"/>
                </g>
              </g>
            </g>
            <path id="Trazado_811715" data-name="Trazado 811715" d="M90.993,121.084s-.3,17.591,0,20.7,2.866,4.325,6.785,3.919,25.066-10.556,29.333-13.147l-1.842-7.08s-15.444,3.8-19.274,5.053c0,0,1.916-2.834,1.511-9.443-.493-8.074-16.515,0-16.515,0" transform="translate(-39.815 -51.486)" fill="#7f544e"/>
            <path id="Trazado_811716" data-name="Trazado 811716" d="M155.916,125.5a10.175,10.175,0,0,0-3.433,1.846,22.447,22.447,0,0,1-4.328,2.636l2.7,6.461a18.484,18.484,0,0,1,4.977-1.475c1.995-.121,7.421,1.475,8.937,1.475s11.006-4.931,11.006-4.931a3.986,3.986,0,0,0-1.669-.735,5.89,5.89,0,0,0-2.235.24h-7.457l-4.563-1.824a.573.573,0,0,1-.124-1,2.5,2.5,0,0,1,1.4-.435c1.365,0,3.763-.3,3.879-1.334s-.7-1.224-2.776-1.224-4.724-.337-6.32.3" transform="translate(-64.921 -54.825)" fill="#7f544e"/>
            <path id="Trazado_811717" data-name="Trazado 811717" d="M111.733,140.577c0,.049-.558-.013-1.438.062a7.517,7.517,0,0,0-3.238,1.027,7.647,7.647,0,0,0-2.359,2.444c-.474.748-.7,1.255-.743,1.236A4.315,4.315,0,0,1,104.52,144a7.051,7.051,0,0,1,2.385-2.589,6.961,6.961,0,0,1,3.378-.983,3.913,3.913,0,0,1,1.45.145" transform="translate(-45.551 -61.536)" fill="#633a34"/>
            <path id="Trazado_811718" data-name="Trazado 811718" d="M181.137,138.722c0,.042-.674.149-1.76.392a19.334,19.334,0,0,1-4.331.614,13.021,13.021,0,0,1-4.3-.837,8.226,8.226,0,0,1-1.2-.58,1.426,1.426,0,0,1-.4-.284c.025-.044.62.311,1.665.67a14.732,14.732,0,0,0,4.233.739,23.96,23.96,0,0,0,4.283-.525,7.5,7.5,0,0,1,1.8-.188" transform="translate(-74.124 -60.481)" fill="#633a34"/>
            <path id="Trazado_811719" data-name="Trazado 811719" d="M181.06,136.247a1.432,1.432,0,0,0,.765-.41.861.861,0,0,0-.784-1.458h-.011l-4.522-.008-2.966-.033h-.026l-.023-.009c-1.335-.546-2.469-1.019-3.266-1.363a8.256,8.256,0,0,1-1.246-.587,8.435,8.435,0,0,1,1.307.434c.815.3,1.962.739,3.306,1.265l-.049-.01,2.966.012,4.521.061h-.011a1.126,1.126,0,0,1,1.2.74,1.053,1.053,0,0,1-.3,1.051.943.943,0,0,1-.864.316" transform="translate(-74.047 -58.007)" fill="#633a34"/>
            <path id="Trazado_811720" data-name="Trazado 811720" d="M110.649,70.281s-9.814,2.454-11.776,3.36-8.178,5.687-8.782,13.387-.988,13.367-.988,13.367l19.114.064Z" transform="translate(-39.045 -30.797)" fill="#59bee2"/>
            <path id="Trazado_811721" data-name="Trazado 811721" d="M107.971,123.883c0,.081-4.349.146-9.714.146s-9.714-.065-9.714-.146,4.348-.146,9.714-.146,9.714.065,9.714.146" transform="translate(-38.799 -54.221)" fill="#263238"/>
            <path id="Trazado_811722" data-name="Trazado 811722" d="M123.372,100.09c.081,0,.067,2.964-.031,6.614s-.243,6.608-.324,6.606-.067-2.963.031-6.614.243-6.608.324-6.606" transform="translate(-53.883 -43.859)" fill="#263238"/>
            <path id="Trazado_811723" data-name="Trazado 811723" d="M182.448,136.508a4.127,4.127,0,0,1-.689.407c-.453.244-1.112.59-1.931,1.007-1.641.83-3.907,1.976-6.475,3.12-.323.14-.643.276-.967.4a2.406,2.406,0,0,1-.515.147,2.931,2.931,0,0,1-.531,0c-.671-.056-1.3-.167-1.9-.267-1.2-.212-2.272-.437-3.171-.633s-1.622-.368-2.121-.494a4.072,4.072,0,0,1-.768-.226,4.286,4.286,0,0,1,.792.115l2.139.4c.9.17,1.978.372,3.174.57.6.092,1.229.2,1.876.247a2.825,2.825,0,0,0,.467,0,2.128,2.128,0,0,0,.458-.134c.315-.12.631-.256.952-.394,2.556-1.139,4.838-2.257,6.5-3.038l1.971-.923a4.26,4.26,0,0,1,.74-.306" transform="translate(-71.592 -59.817)" fill="#633a34"/>
            <path id="Trazado_811724" data-name="Trazado 811724" d="M115.541,83.045c-.051.015-.208-.671-.722-1.66a8.755,8.755,0,0,0-6.848-4.718c-1.107-.127-1.8-.03-1.808-.083a1.452,1.452,0,0,1,.484-.1,7.182,7.182,0,0,1,1.344-.023A8.382,8.382,0,0,1,115,81.293a7.162,7.162,0,0,1,.457,1.265,1.459,1.459,0,0,1,.079.487" transform="translate(-46.521 -33.496)" fill="#263238"/>
          </g>
        </g>
        <g id="Grupo_1068171" data-name="Grupo 1068171">
          <g id="Grupo_1068170" data-name="Grupo 1068170" clip-path="url(#clip-path)">
            <path id="Trazado_811725" data-name="Trazado 811725" d="M364.9,417.82c0,.081-81.693.146-182.444.146C81.676,417.966,0,417.9,0,417.82s81.676-.146,182.461-.146c100.751,0,182.444.065,182.444.146" transform="translate(0 -183.024)" fill="#263238"/>
          </g>
        </g>
        <g id="Grupo_1068185" data-name="Grupo 1068185">
          <g id="Grupo_1068184" data-name="Grupo 1068184" clip-path="url(#clip-path)">
            <path id="Trazado_811726" data-name="Trazado 811726" d="M316.668,138.962a21.067,21.067,0,0,0-4.162-10.556,13.035,13.035,0,0,0-9.842-5.069l4.6,48.84a10.433,10.433,0,0,0,3.294.809,3.56,3.56,0,0,0,3.006-1.316,5.283,5.283,0,0,0,.73-2.257q1.52-9.432,2.319-18.961a54.108,54.108,0,0,0,.056-11.49" transform="translate(-132.627 -54.047)" fill="#263238"/>
            <path id="Trazado_811727" data-name="Trazado 811727" d="M278.112,125.387c-1.44,1.348-1.8,4.178-2.6,5.987a55.919,55.919,0,0,0-3.32,8.888,55.935,55.935,0,0,0-1.245,10.351q-.331,5.761-.663,11.521a16.024,16.024,0,0,0,.253,5.1,5.361,5.361,0,0,0,3.143,3.778,4.96,4.96,0,0,0,4.421-.827,9.541,9.541,0,0,0,2.85-3.67l4.617-42.4c-2.416-.738-5.608-.463-7.461,1.271" transform="translate(-118.404 -54.219)" fill="#263238"/>
            <rect id="Rectángulo_375911" data-name="Rectángulo 375911" width="58.492" height="6.06" transform="translate(135.284 176.955)" fill="#455a64"/>
            <path id="Trazado_811728" data-name="Trazado 811728" d="M261.8,202.942l37.058.458-.093,62.89-41.355.358Z" transform="translate(-112.798 -88.929)" fill="#455a64"/>
            <path id="Trazado_811729" data-name="Trazado 811729" d="M346.7,373.564l-2.9-.044-6.4-56.367,2.855-.328Z" transform="translate(-147.846 -138.832)" fill="#455a64"/>
            <path id="Trazado_811730" data-name="Trazado 811730" d="M316.519,373.542h-2.893l-6.48-56.389,2.855-.328Z" transform="translate(-134.591 -138.832)" fill="#455a64"/>
            <path id="Trazado_811731" data-name="Trazado 811731" d="M232.525,374.026l2.9-.044,6.4-55.724-2.855-.328Z" transform="translate(-101.892 -139.316)" fill="#455a64"/>
            <path id="Trazado_811732" data-name="Trazado 811732" d="M265.79,374.026l2.9-.044,6.4-55.724-2.855-.328Z" transform="translate(-116.469 -139.316)" fill="#455a64"/>
            <path id="Trazado_811733" data-name="Trazado 811733" d="M299.182,314.864s.011.133.016.393.008.656.016,1.159c.007,1.034.016,2.546.029,4.508v.061h-.062l-58.492.225h-.147V321c0-2.1,0-4.179,0-6.133v-.146h.146l41.572.047,12.4.045,3.352.026.869.014c.2,0,.3.014.3.014s-.1.01-.3.014l-.869.013-3.352.026-12.4.045-41.572.047.146-.146c0,1.954,0,4.032,0,6.133v.067l-.146-.147,58.492-.055-.061.061c.013-1.962.022-3.475.029-4.508.007-.5.012-.888.016-1.159s.016-.393.016-.393" transform="translate(-105.406 -137.909)" fill="#263238"/>
            <path id="Trazado_811734" data-name="Trazado 811734" d="M249.044,200.084s-1.188.981-2.161,4.977a92.165,92.165,0,0,0-2.162,14.055,26.763,26.763,0,0,0,1.159,10l9.081,4.994.444-23.1Z" transform="translate(-107.201 -87.677)" fill="#ffbe9d"/>
            <path id="Trazado_811735" data-name="Trazado 811735" d="M250.128,194.543l7.047,10.213-.411,17.3s-.175,12.108,3.536,13.223,24.61,1.171,29.787,1.729,8.106,1.047,8.106.754S294.831,223,293.768,219.8c0,0,.939-6.978,1.522-10.757l.307-2.321,9.139-10.067s-4.395-4.492-8.5-6.543a21.35,21.35,0,0,0-8.106-2.148l-17.722-1.533-12.6,2.878a23.307,23.307,0,0,0-3.963,2.09Z" transform="translate(-109.606 -81.692)" fill="#1969d5"/>
            <path id="Trazado_811736" data-name="Trazado 811736" d="M262.152,206.053a4.616,4.616,0,0,1,.078.858c.026.553.048,1.355.062,2.344.029,1.979.032,4.713.015,7.732-.028,2.993-.052,5.7-.071,7.731-.012.948-.023,1.736-.031,2.342a5.067,5.067,0,0,1-.036.86,4.662,4.662,0,0,1-.078-.858c-.026-.553-.048-1.354-.063-2.344-.029-1.979-.031-4.713-.015-7.733.028-2.993.052-5.7.071-7.73.012-.948.022-1.736.03-2.342a5.061,5.061,0,0,1,.036-.86" transform="translate(-114.81 -90.292)" fill="#263238"/>
            <path id="Trazado_811737" data-name="Trazado 811737" d="M291.439,197.518a2.343,2.343,0,0,1-.651.127,7.119,7.119,0,0,1-1.81-.043,7.825,7.825,0,0,1-6.737-8.573,7.091,7.091,0,0,1,.387-1.768,2.335,2.335,0,0,1,.277-.6,12.546,12.546,0,0,0-.457,2.386,7.846,7.846,0,0,0,6.564,8.353,12.532,12.532,0,0,0,2.427.12" transform="translate(-123.662 -81.794)" fill="#263238"/>
            <g id="Grupo_1068174" data-name="Grupo 1068174" transform="translate(163.085 106.056)" opacity="0.3">
              <g id="Grupo_1068173" data-name="Grupo 1068173">
                <g id="Grupo_1068172" data-name="Grupo 1068172" clip-path="url(#clip-path-16)">
                  <path id="Trazado_811738" data-name="Trazado 811738" d="M306.451,189.04l-6.647-.261-9.515,19.362a2.764,2.764,0,0,0,2.558,2.579,3.022,3.022,0,0,0,1.041,3.679,3.714,3.714,0,0,0,3.942.029,4.851,4.851,0,0,0,2.17-3.4,2.707,2.707,0,0,0,2.255-.075,5.766,5.766,0,0,0,1.809-1.443c2.679-2.97,2.589-7.184,2.757-11.18a35.821,35.821,0,0,0-.371-9.286" transform="translate(-290.289 -188.778)"/>
                </g>
              </g>
            </g>
            <path id="Trazado_811739" data-name="Trazado 811739" d="M330.885,204.809c.08.011-.617,5.464-1.556,12.177s-1.766,12.15-1.846,12.138.617-5.462,1.557-12.178,1.766-12.148,1.846-12.137" transform="translate(-143.5 -89.747)" fill="#263238"/>
            <g id="Grupo_1068177" data-name="Grupo 1068177" transform="translate(162.641 134.052)" opacity="0.3">
              <g id="Grupo_1068176" data-name="Grupo 1068176">
                <g id="Grupo_1068175" data-name="Grupo 1068175" clip-path="url(#clip-path-17)">
                  <path id="Trazado_811740" data-name="Trazado 811740" d="M289.5,243.11a4.98,4.98,0,0,0,3.408.83,13.447,13.447,0,0,0,3.457-.915,16.533,16.533,0,0,0,3.424-1.6,6.255,6.255,0,0,0,2.443-2.816,41.148,41.148,0,0,1-12.733,4.5" transform="translate(-289.499 -238.612)"/>
                </g>
              </g>
            </g>
            <path id="Trazado_811741" data-name="Trazado 811741" d="M301.932,237.131a3.194,3.194,0,0,1-.558.421c-.368.258-.92.6-1.617,1.006a31.505,31.505,0,0,1-11.873,3.908c-.8.092-1.449.141-1.9.151a3.18,3.18,0,0,1-.7-.007,3.238,3.238,0,0,1,.69-.106c.446-.045,1.089-.126,1.879-.243a36.157,36.157,0,0,0,11.8-3.885c.706-.375,1.271-.693,1.656-.921a3.23,3.23,0,0,1,.619-.325" transform="translate(-125.012 -103.91)" fill="#263238"/>
            <path id="Trazado_811742" data-name="Trazado 811742" d="M299.448,234.732a1.865,1.865,0,0,1-.374.07l-1.077.144c-.937.122-2.294.269-3.975.424-3.361.312-8.02.608-13.172.66s-9.818-.159-13.184-.407c-1.683-.123-3.044-.244-3.982-.348l-1.08-.124a1.837,1.837,0,0,1-.375-.063,1.88,1.88,0,0,1,.38,0l1.084.069c.941.069,2.3.158,3.986.254,3.366.195,8.023.368,13.168.321s9.8-.313,13.158-.573c1.681-.129,3.04-.244,3.98-.331l1.083-.089a1.87,1.87,0,0,1,.38-.011" transform="translate(-114.908 -102.857)" fill="#fff"/>
            <path id="Trazado_811743" data-name="Trazado 811743" d="M300.692,231.01a1.85,1.85,0,0,1-.376.053l-1.081.1c-.939.078-2.3.172-3.983.271-3.365.2-8.02.392-13.164.456s-9.8-.02-13.174-.137c-1.685-.058-3.047-.119-3.988-.175l-1.084-.069a1.838,1.838,0,0,1-.377-.044,1.878,1.878,0,0,1,.38-.015l1.085.015,3.99.081c3.369.064,8.023.112,13.165.052s9.791-.225,13.157-.37l3.987-.178,1.084-.041a1.84,1.84,0,0,1,.38.006" transform="translate(-115.45 -101.224)" fill="#fff"/>
            <path id="Trazado_811744" data-name="Trazado 811744" d="M270.131,160.746c.089-.021.064-.483-.043-1.3s-.3-1.983-.483-3.424a30.4,30.4,0,0,1-.277-5.038,16.281,16.281,0,0,1,1.294-5.9,54.722,54.722,0,0,1,2.911-5.5,29.488,29.488,0,0,0,2.26-4.721,12.346,12.346,0,0,0,.744-3.481c.034-.844-.062-1.3-.144-1.305-.208-.01-.271,1.822-1.462,4.442a38.356,38.356,0,0,1-2.438,4.447,43.055,43.055,0,0,0-3.08,5.607c-.228.531-.42,1.074-.592,1.616-.08.272-.163.543-.223.817s-.139.542-.18.813a16.645,16.645,0,0,0-.3,3.138,24.8,24.8,0,0,0,.571,5.221,31.3,31.3,0,0,0,.9,3.384c.261.783.454,1.2.541,1.18" transform="translate(-117.489 -57.001)" fill="#263238"/>
            <path id="Trazado_811745" data-name="Trazado 811745" d="M291.175,126.18a10.971,10.971,0,0,0-12,8.933c-.921,4.907-2.147,9.575-2.185,11.383-.116,5.454,1.727,6.814,3.87,8.569a12.884,12.884,0,0,0,2.107,1.447l-1.211,5.294c-.7,4.082,1.949,6.481,6.071,7.208s7.038-.985,7.812-5.068l4.79-25.565a10.629,10.629,0,0,0-9.255-12.2" transform="translate(-121.375 -55.256)" fill="#ffbe9d"/>
            <path id="Trazado_811746" data-name="Trazado 811746" d="M282.891,147.138a.866.866,0,0,0,.675,1.008.842.842,0,0,0,1.031-.613.867.867,0,0,0-.675-1.008.842.842,0,0,0-1.031.613" transform="translate(-123.954 -64.197)" fill="#263238"/>
            <path id="Trazado_811747" data-name="Trazado 811747" d="M283.054,144.352c.087.13.828-.233,1.757-.066s1.526.746,1.647.651c.059-.041-.013-.261-.271-.527a2.407,2.407,0,0,0-1.294-.659,2.334,2.334,0,0,0-1.424.192c-.325.166-.459.351-.415.41" transform="translate(-124.03 -62.976)" fill="#263238"/>
            <path id="Trazado_811748" data-name="Trazado 811748" d="M298.53,150.788a.866.866,0,0,0,.675,1.008.842.842,0,0,0,1.031-.612.866.866,0,0,0-.675-1.008.842.842,0,0,0-1.031.613" transform="translate(-130.807 -65.796)" fill="#263238"/>
            <path id="Trazado_811749" data-name="Trazado 811749" d="M299.255,147.527c.087.13.829-.233,1.757-.066s1.526.746,1.647.651c.058-.041-.013-.261-.272-.527a2.407,2.407,0,0,0-1.293-.659,2.34,2.34,0,0,0-1.424.192c-.324.166-.458.351-.415.41" transform="translate(-131.13 -64.367)" fill="#263238"/>
            <path id="Trazado_811750" data-name="Trazado 811750" d="M289.285,153.177a6.278,6.278,0,0,0-1.46-.535c-.233-.066-.449-.152-.46-.32a1.2,1.2,0,0,1,.285-.667l1.027-1.662a31.044,31.044,0,0,0,2.428-4.393,31.344,31.344,0,0,0-2.78,4.19l-1,1.678a1.371,1.371,0,0,0-.291.9.6.6,0,0,0,.328.412,1.662,1.662,0,0,0,.393.127,6.2,6.2,0,0,0,1.53.272" transform="translate(-125.774 -63.801)" fill="#263238"/>
            <path id="Trazado_811751" data-name="Trazado 811751" d="M287.331,179.495a15.214,15.214,0,0,0,8.508-.95s-2.271,4.438-8.9,2.626Z" transform="translate(-125.738 -78.238)" fill="#eb996e"/>
            <path id="Trazado_811752" data-name="Trazado 811752" d="M290.924,162.826a1.719,1.719,0,0,1,1.613-.35,1.549,1.549,0,0,1,.954.746.965.965,0,0,1-.126,1.108,1.153,1.153,0,0,1-1.274.089,3.542,3.542,0,0,1-1.06-.91,1.033,1.033,0,0,1-.216-.319.31.31,0,0,1,.064-.342" transform="translate(-127.425 -71.167)" fill="#eb996e"/>
            <path id="Trazado_811753" data-name="Trazado 811753" d="M293.051,161.077c-.149-.035-.333.961-1.326,1.516s-2.046.256-2.079.394c-.025.06.2.236.656.328a2.581,2.581,0,0,0,1.725-.272,2.2,2.2,0,0,0,1.047-1.283c.115-.41.047-.676-.023-.683" transform="translate(-126.922 -70.584)" fill="#263238"/>
            <path id="Trazado_811754" data-name="Trazado 811754" d="M299.039,144.693c.046.266,1,.311,2.062.634,1.073.3,1.894.771,2.08.573.084-.1-.026-.357-.338-.662a3.592,3.592,0,0,0-1.47-.82,3.63,3.63,0,0,0-1.685-.1c-.43.088-.667.249-.649.375" transform="translate(-131.038 -63.215)" fill="#263238"/>
            <path id="Trazado_811755" data-name="Trazado 811755" d="M284.268,141.067c.125.238.805.134,1.576.26.776.1,1.4.391,1.586.2.085-.095.02-.322-.228-.57a2.336,2.336,0,0,0-2.548-.37c-.311.166-.439.365-.386.48" transform="translate(-124.561 -61.507)" fill="#263238"/>
            <path id="Trazado_811756" data-name="Trazado 811756" d="M294.752,189.588a22.457,22.457,0,0,1-5.088,8.342,13.055,13.055,0,0,0-2.228,2.617,3.2,3.2,0,0,0-.075,3.275,1.868,1.868,0,0,0,2.924.221,6,6,0,0,0-.407,2.107,2.035,2.035,0,0,0,1.04,1.771,2.748,2.748,0,0,0,2.625-.629,13.2,13.2,0,0,0,3.78-4.194c-.62.7.156,1.919,1.09,1.984a2.914,2.914,0,0,0,2.328-1.358,14.49,14.49,0,0,0,2.314-6.55,114.327,114.327,0,0,0,1.592-18.692" transform="translate(-125.738 -78.211)" fill="#263238"/>
            <path id="Trazado_811757" data-name="Trazado 811757" d="M302.409,132.194c1.225,4.614.4,9.524-.8,14.152s-2.761,9.217-3.017,13.989a17.806,17.806,0,0,1-.69,5.571c-.4,1.029-1.054,1.942-1.5,2.95a3.919,3.919,0,0,0-.216,3.2,3.087,3.087,0,0,0,2.706,1.628A5.383,5.383,0,0,0,302,172.655a11.754,11.754,0,0,0,4.226-5.792,35.18,35.18,0,0,0,1.549-7.117q1.371-9.389,2.743-18.778a24.136,24.136,0,0,0,.257-8.158,13.909,13.909,0,0,0-4.183-7.288c-2.475-2.334-6-3.886-9.279-2.984-1.094.3-2.256,1.084-2.263,2.225a3.266,3.266,0,0,0,1.375,2.221l6.571,5.964" transform="translate(-129.289 -53.582)" fill="#263238"/>
            <path id="Trazado_811758" data-name="Trazado 811758" d="M300.4,173.3c.09-.024.039-.537-.1-1.446s-.351-2.215-.515-3.828a24.51,24.51,0,0,1,.039-5.628,26.392,26.392,0,0,1,1.981-6.593,67.1,67.1,0,0,0,2.58-6.652,17.39,17.39,0,0,0,.754-5.884,9.712,9.712,0,0,0-1.008-3.878q-.176-.31-.318-.542a4.249,4.249,0,0,0-.278-.367c-.159-.191-.26-.277-.3-.252s-.012.158.069.387l.158.412c.054.166.12.356.2.565a11.593,11.593,0,0,1,.551,3.705,18.573,18.573,0,0,1-.982,5.5c-.651,2.017-1.666,4.168-2.636,6.505a24.841,24.841,0,0,0-1.97,6.954,21.839,21.839,0,0,0,.242,5.9,27.737,27.737,0,0,0,.938,3.821c.291.88.509,1.348.594,1.325" transform="translate(-130.813 -60.572)" fill="#263238"/>
            <path id="Trazado_811759" data-name="Trazado 811759" d="M314.908,138.109a1.284,1.284,0,0,0-.181-.117l-.532-.313c-.233-.133-.516-.3-.839-.5s-.7-.417-1.1-.68c-.811-.509-1.756-1.147-2.783-1.887s-2.122-1.6-3.238-2.543-2.13-1.9-3.032-2.79-1.678-1.728-2.311-2.448c-.324-.353-.6-.688-.849-.976s-.458-.541-.628-.749l-.394-.475a1.373,1.373,0,0,0-.145-.161,1.329,1.329,0,0,0,.124.177l.375.492c.163.213.366.472.611.765s.515.633.835.991c.626.729,1.4,1.569,2.3,2.472s1.918,1.852,3.032,2.8,2.224,1.8,3.252,2.541,1.986,1.367,2.8,1.867c.4.258.782.471,1.11.664s.615.353.851.479l.544.291a1.259,1.259,0,0,0,.194.094" transform="translate(-130.968 -54.543)" fill="#455a64"/>
            <path id="Trazado_811760" data-name="Trazado 811760" d="M314.251,140.07a1.315,1.315,0,0,0-.2-.087l-.588-.225-.425-.16-.5-.209c-.356-.153-.768-.313-1.205-.53l-.692-.328c-.24-.115-.482-.251-.737-.382-.513-.257-1.038-.574-1.6-.9a31.417,31.417,0,0,1-6.531-5.239c-.438-.475-.861-.92-1.225-1.365-.184-.221-.37-.428-.534-.638l-.471-.606c-.307-.38-.553-.749-.781-1.064l-.314-.442-.249-.381-.348-.526a1.418,1.418,0,0,0-.129-.179,1.33,1.33,0,0,0,.107.193l.328.54.24.389c.091.14.2.288.306.449.223.32.464.693.767,1.078l.466.613c.163.212.348.422.53.645.361.45.783.9,1.22,1.378a30.434,30.434,0,0,0,6.556,5.26c.561.322,1.09.637,1.607.89.257.13.5.263.743.376l.7.32c.441.212.857.366,1.216.513.181.072.347.142.5.2l.43.149.6.2a1.29,1.29,0,0,0,.211.062" transform="translate(-130.464 -55.57)" fill="#fff"/>
            <path id="Trazado_811761" data-name="Trazado 811761" d="M307.958,180.546a.427.427,0,0,0,.037-.08c.024-.061.054-.14.094-.241.081-.212.2-.525.338-.936a33.059,33.059,0,0,0,.973-3.529c.338-1.509.641-3.327.893-5.355s.47-4.263.715-6.606c.475-4.687.9-8.929,1.217-12.01l.354-3.64c.038-.424.068-.756.089-.99l.02-.258a.472.472,0,0,0,0-.088.423.423,0,0,0-.016.087c-.008.065-.019.149-.033.257l-.114.988c-.094.867-.229,2.107-.395,3.637-.322,3.079-.766,7.32-1.255,12.005-.245,2.344-.457,4.579-.7,6.6s-.538,3.842-.864,5.35a36.221,36.221,0,0,1-.93,3.532c-.127.413-.242.728-.315.943l-.082.246a.46.46,0,0,0-.024.085" transform="translate(-134.947 -64.333)" fill="#455a64"/>
            <path id="Trazado_811762" data-name="Trazado 811762" d="M307.622,165.011a1.293,1.293,0,0,0,.068-.2q.062-.219.169-.589c.145-.512.345-1.256.584-2.178.476-1.844,1.089-4.4,1.675-7.25s1.033-5.441,1.322-7.324c.145-.941.255-1.7.324-2.231q.048-.382.077-.608a1.284,1.284,0,0,0,.018-.213,1.319,1.319,0,0,0-.044.21q-.037.225-.1.605l-.365,2.224c-.313,1.878-.775,4.466-1.359,7.312s-1.184,5.405-1.637,7.253c-.226.915-.411,1.659-.543,2.188q-.091.374-.146.6a1.269,1.269,0,0,0-.042.21" transform="translate(-134.799 -63.282)" fill="#455a64"/>
            <path id="Trazado_811763" data-name="Trazado 811763" d="M283.074,186.721c0-.081.027-.146.061-.146s.061.065.061.146-.028.146-.061.146-.061-.065-.061-.146" transform="translate(-124.043 -81.757)" fill="#263238"/>
            <path id="Trazado_811764" data-name="Trazado 811764" d="M296.281,384.373,294.7,395.658s10.938,5.4,10.848,7.513l-21.989-2.284L285.3,383.2Z" transform="translate(-124.254 -167.919)" fill="#727997"/>
            <path id="Trazado_811765" data-name="Trazado 811765" d="M290.889,402.4a.9.9,0,0,0-.728.96.868.868,0,0,0,.946.729.952.952,0,0,0,.765-1.021.9.9,0,0,0-1.067-.649" transform="translate(-127.146 -176.323)" fill="#e0e0e0"/>
            <path id="Trazado_811766" data-name="Trazado 811766" d="M283.443,414.164l.167-1.714,21.133,2.331s.935.528.753,1.206Z" transform="translate(-124.204 -180.735)" fill="#e0e0e0"/>
            <path id="Trazado_811767" data-name="Trazado 811767" d="M302.382,405.128c-.015.107-.557.1-1.121.39s-.893.712-.987.66c-.1-.031.13-.656.82-1s1.322-.15,1.288-.054" transform="translate(-131.571 -177.464)" fill="#263238"/>
            <path id="Trazado_811768" data-name="Trazado 811768" d="M306.715,407.317c.014.107-.47.241-.882.657s-.567.885-.674.87c-.1.006-.112-.63.41-1.138s1.154-.492,1.146-.389" transform="translate(-133.696 -178.46)" fill="#263238"/>
            <path id="Trazado_811769" data-name="Trazado 811769" d="M309.721,411.139c-.1.013-.194-.539.143-1.1s.863-.741.9-.647-.307.376-.577.839-.358.907-.466.906" transform="translate(-135.679 -179.385)" fill="#263238"/>
            <path id="Trazado_811770" data-name="Trazado 811770" d="M302.384,400.2c-.055.093-.533-.106-1.143-.128s-1.1.121-1.151.023.449-.434,1.168-.4,1.188.425,1.126.5" transform="translate(-131.497 -175.144)" fill="#263238"/>
            <path id="Trazado_811771" data-name="Trazado 811771" d="M281.893,291.569l-.954,44.647,14.752,1.87s4.763-19.26,6.1-29.866.562-15.762.562-15.762h9.688s4.073-5.764,4.079-11.5c.009-8.017-7.07-17.115-7.07-17.115l-19.582,8.125s-8.985,7.865-7.579,19.6" transform="translate(-123.107 -115.616)" fill="#263238"/>
            <path id="Trazado_811772" data-name="Trazado 811772" d="M308.2,287.017c.194.066,10.4,5.378,10.4,5.378l5.394-7.13-9.816-7.3Z" transform="translate(-135.051 -121.804)" fill="#ffbe9d"/>
            <path id="Trazado_811773" data-name="Trazado 811773" d="M243.031,242.609a9.061,9.061,0,0,0-7.971,4c-2.82,4.438-2.5,7.922-.388,15.339,2.2,7.732,2.593,19.33,11.078,21.2a30.375,30.375,0,0,0,16.2-1.258s-1.128-5.462.94-8.846,3.761-3.948,3.761-3.948l10.715,4.137,6.486-8.856s-9.894-10.824-20.962-16.52c-10.907-5.614-19.676-5.214-19.855-5.245" transform="translate(-102.107 -106.306)" fill="#263238"/>
            <path id="Trazado_811774" data-name="Trazado 811774" d="M282.471,269.059a.4.4,0,0,1,.088.07l.243.225.928.89,3.455,3.378.055.053-.046.063-6.451,8.881-.059.081-.094-.036-6.171-2.37c-1.09-.4-2.188-.88-3.333-1.235s-2.361-.556-3.592-.817a97.573,97.573,0,0,1-11.767-3.369,49.048,49.048,0,0,1-4.96-2,29.191,29.191,0,0,1-4.028-2.347,22.126,22.126,0,0,1-4.9-4.618,14.292,14.292,0,0,1-1.356-2.065.681.681,0,0,1,.1.129l.266.394c.113.176.257.39.442.634s.383.534.639.838a22.825,22.825,0,0,0,4.924,4.518,29.449,29.449,0,0,0,4.015,2.3,49.788,49.788,0,0,0,4.945,1.962,100.293,100.293,0,0,0,11.738,3.337,36.98,36.98,0,0,1,3.616.826c1.172.365,2.261.841,3.351,1.247l6.163,2.391-.153.045,6.52-8.832.009.116-3.4-3.436-.895-.922-.226-.242a.392.392,0,0,1-.071-.088" transform="translate(-105.38 -115.616)" fill="#455a64"/>
            <path id="Trazado_811775" data-name="Trazado 811775" d="M282.122,318.618a1.22,1.22,0,0,1-.02-.307c0-.234,0-.524,0-.878,0-.805,0-1.9,0-3.23.01-2.766.024-6.515.038-10.658.017-2.082.038-4.065.079-5.87.015-.905.066-1.757.068-2.559a10.6,10.6,0,0,1,.247-2.236,7.339,7.339,0,0,1,1.388-2.927,5.828,5.828,0,0,1,.588-.658,1.206,1.206,0,0,1,.229-.205,1.227,1.227,0,0,1-.186.246,8.07,8.07,0,0,0-.54.686,7.6,7.6,0,0,0-1.277,2.9,30.107,30.107,0,0,0-.247,4.756c-.017,1.807-.036,3.787-.056,5.866-.031,4.162-.067,7.93-.124,10.658-.028,1.364-.06,2.468-.1,3.23-.015.381-.036.678-.051.878a1.216,1.216,0,0,1-.039.305" transform="translate(-123.615 -126.679)" fill="#455a64"/>
            <path id="Trazado_811776" data-name="Trazado 811776" d="M317.055,301.373a4.032,4.032,0,0,1,.491,1.121,14.689,14.689,0,0,1,.714,5.834,4.028,4.028,0,0,1-.206,1.206c-.093-.008.139-1.861-.147-4.123-.268-2.263-.94-4.007-.852-4.037" transform="translate(-138.93 -132.061)" fill="#455a64"/>
            <path id="Trazado_811777" data-name="Trazado 811777" d="M319.972,302.3a4.105,4.105,0,0,1,.177,1.189,12.636,12.636,0,0,1-.142,2.9,17.1,17.1,0,0,1-.751,2.8,4.543,4.543,0,0,1-.472,1.1,5.294,5.294,0,0,1,.275-1.166,27.993,27.993,0,0,0,.66-2.787,36.887,36.887,0,0,0,.254-4.04" transform="translate(-139.688 -132.469)" fill="#455a64"/>
            <path id="Trazado_811778" data-name="Trazado 811778" d="M326.315,286.189l10.437,6.71,10.742,3.213a1.4,1.4,0,0,1-.039,2.685c-2.785.734-13.043,3.385-13.851,2.8-.936-.679-12.6-6.967-12.6-6.967Z" transform="translate(-140.663 -125.408)" fill="#727997"/>
            <g id="Grupo_1068180" data-name="Grupo 1068180" transform="translate(192.157 172.531)" opacity="0.6">
              <g id="Grupo_1068179" data-name="Grupo 1068179">
                <g id="Grupo_1068178" data-name="Grupo 1068178" clip-path="url(#clip-path-18)">
                  <path id="Trazado_811779" data-name="Trazado 811779" d="M357.618,307.1l-15.582,3.178.493.3a2.1,2.1,0,0,0,1.421.285c1.318-.208,4.946-.862,12.7-2.87a1.4,1.4,0,0,0,.968-.894" transform="translate(-342.037 -307.104)" fill="#fff"/>
                </g>
              </g>
            </g>
            <g id="Grupo_1068183" data-name="Grupo 1068183" transform="translate(189.398 170.968)" opacity="0.6">
              <g id="Grupo_1068182" data-name="Grupo 1068182">
                <g id="Grupo_1068181" data-name="Grupo 1068181" clip-path="url(#clip-path-19)">
                  <path id="Trazado_811780" data-name="Trazado 811780" d="M337.593,304.386a.844.844,0,0,1,1.061.378.811.811,0,0,1-.365,1.055.89.89,0,0,1-1.122-.406.843.843,0,0,1,.5-1.056" transform="translate(-337.127 -304.322)" fill="#fff"/>
                </g>
              </g>
            </g>
            <path id="Trazado_811781" data-name="Trazado 811781" d="M357.384,303.914a3.009,3.009,0,0,1,.28-3.065c-.022-.028-.2.063-.407.313a2.226,2.226,0,0,0-.217,2.371c.156.281.317.4.344.381" transform="translate(-156.348 -131.83)" fill="#263238"/>
            <path id="Trazado_811782" data-name="Trazado 811782" d="M361.33,304.527a4.159,4.159,0,0,1,.676-2.559c-.039-.07-.627.339-.837,1.148a1.549,1.549,0,0,0,.16,1.411" transform="translate(-158.231 -132.319)" fill="#263238"/>
            <path id="Trazado_811783" data-name="Trazado 811783" d="M352.381,303.727a7.166,7.166,0,0,1,.712-4.043,3.816,3.816,0,0,0-.712,4.043" transform="translate(-154.281 -131.32)" fill="#263238"/>
            <path id="Trazado_811784" data-name="Trazado 811784" d="M346.055,300.984c.089.012.213-.794.693-1.648s1.085-1.393,1.029-1.462a3.464,3.464,0,0,0-1.722,3.111" transform="translate(-151.624 -130.525)" fill="#263238"/>
            <path id="Trazado_811785" data-name="Trazado 811785" d="M339.948,297.338a4.436,4.436,0,0,1,2-3.04c-.013-.034-.236,0-.555.177a3.038,3.038,0,0,0-1.506,2.283c-.034.361.019.581.056.58" transform="translate(-148.936 -128.956)" fill="#263238"/>
            <path id="Trazado_811786" data-name="Trazado 811786" d="M337.654,293.784a1.168,1.168,0,0,0-.43-.284,3.573,3.573,0,0,0-1.365-.355,1.591,1.591,0,0,0-1,.185.562.562,0,0,0-.224.605.915.915,0,0,0,.413.5,1.973,1.973,0,0,0,2.458-.524,2.288,2.288,0,0,0,.151-2.542.8.8,0,0,0-.544-.376.552.552,0,0,0-.549.34,1.954,1.954,0,0,0-.07,1.008,3.966,3.966,0,0,0,.419,1.345,1.208,1.208,0,0,0,.292.424,6.356,6.356,0,0,1-.5-1.791,1.827,1.827,0,0,1,.083-.878.293.293,0,0,1,.3-.187.545.545,0,0,1,.343.269,2.042,2.042,0,0,1-.156,2.2,1.712,1.712,0,0,1-2.08.475.661.661,0,0,1-.3-.34.3.3,0,0,1,.118-.335,1.432,1.432,0,0,1,.845-.173,5.282,5.282,0,0,1,1.8.428" transform="translate(-146.627 -127.514)" fill="#263238"/>
            <path id="Trazado_811787" data-name="Trazado 811787" d="M249.868,275.3a5.131,5.131,0,0,1-1.34-.344,18.438,18.438,0,0,1-3.05-1.362,18.037,18.037,0,0,1-2.753-1.892,5.091,5.091,0,0,1-.989-.969,8.888,8.888,0,0,1,1.117.806,26.162,26.162,0,0,0,2.768,1.8c2.251,1.269,4.277,1.872,4.247,1.961" transform="translate(-105.928 -118.632)" fill="#455a64"/>
            <path id="Trazado_811788" data-name="Trazado 811788" d="M329.418,206.15a46.256,46.256,0,0,1,3.259,13.605c.384,4.25,1.807,17.969.173,20.466s-17.932,6.247-17.932,6.247L308.2,240.33l13.15-9.893-1.218-9,.972-6.294Z" transform="translate(-135.051 -90.335)" fill="#ffbe9d"/>
            <path id="Trazado_811789" data-name="Trazado 811789" d="M336.058,250.787a5.78,5.78,0,0,0-5.045-1.491,1.63,1.63,0,0,1,.784-.271,4.53,4.53,0,0,1,3.751,1.108c.378.353.537.633.511.653" transform="translate(-145.049 -109.097)" fill="#eb996e"/>
          </g>
        </g>
      </g>
    </g>
  </g>
</svg>
