<svg xmlns="http://www.w3.org/2000/svg" xmlns:xlink="http://www.w3.org/1999/xlink" width="143.242" height="139.242" viewBox="0 0 143.242 139.242">
  <defs>
    <clipPath id="clip-path">
      <circle id="Elipse_8346" data-name="Elipse 8346" cx="64.621" cy="64.621" r="64.621" transform="translate(1080.758 6249.508)" fill="#12263f"/>
    </clipPath>
    <clipPath id="clip-path-2">
      <circle id="Elipse_8343" data-name="Elipse 8343" cx="64.621" cy="64.621" r="64.621" fill="#fff"/>
    </clipPath>
  </defs>
  <g id="Grupo_1070135" data-name="Grupo 1070135" transform="translate(-1045.379 -6057.246)">
    <circle id="Elipse_8345" data-name="Elipse 8345" cx="64.621" cy="64.621" r="64.621" transform="translate(1054.379 6062.246)" fill="#fff"/>
    <g id="Enmascarar_grupo_1064399" data-name="Enmascarar grupo 1064399" transform="translate(-26.379 -187.262)" clip-path="url(#clip-path)">
      <g id="outline" transform="translate(1095.552 6258.634)">
        <path id="Trazado_809000" data-name="Trazado 809000" d="M90.792,74.118A6.016,6.016,0,0,0,86.8,75.955l-7.054,4.232H74.1A1.517,1.517,0,0,0,72.585,81.7v3.035H69.318L68.012,76.9a1.517,1.517,0,1,0-2.993.5l1.223,7.337h-4.48l-1.106-7.745a4.552,4.552,0,0,0-2.471-3.427l-4.647-2.323a1.517,1.517,0,0,0-.679-.16H46.791a1.517,1.517,0,0,0-.679.16l-4.646,2.323A4.552,4.552,0,0,0,39,76.994l-1.107,7.744H33.41L34.633,77.4a1.517,1.517,0,1,0-2.993-.5l-1.306,7.836H27.067V81.7a1.517,1.517,0,0,0-1.517-1.517H19.9l-7.054-4.232A6.016,6.016,0,0,0,8.86,74.118,4.557,4.557,0,0,0,4.308,78.67V96.877a1.517,1.517,0,0,0,1.037,1.44l.48.16v10.539H4.308v3.035H95.344v-3.035H93.827V95.492l.6-.256a1.517,1.517,0,0,0,.919-1.394V78.67a4.557,4.557,0,0,0-4.552-4.552ZM77.137,102.732l3.49,6.283h-3.49Zm0-14.959h4.552a1.517,1.517,0,0,0,.679-.16l3.873-1.936v2.773l-9.1,5.69ZM42,77.425a1.52,1.52,0,0,1,.825-1.144l4.326-2.163H52.5l4.327,2.163a1.521,1.521,0,0,1,.824,1.143L58.7,84.739h-2.8V78.67a1.517,1.517,0,0,0-1.517-1.517h-9.1a1.517,1.517,0,0,0-1.517,1.517v6.069h-2.8ZM52.86,84.739H46.791V80.187H52.86ZM74.1,87.773v3.035H25.55V87.773ZM58.93,94.1v-.26h9.1v15.173H54.579l1.24-9.916L57.6,97.321A4.522,4.522,0,0,0,58.93,94.1ZM42.056,97.321,43.833,99.1l1.24,9.916H31.619V93.842h9.1v.26a4.522,4.522,0,0,0,1.333,3.219Zm-19.541,2.873-1.581-5.271a1.518,1.518,0,0,0-.673-.865l-6.85-4.11V85.676l3.873,1.937a1.517,1.517,0,0,0,.679.16h4.552ZM8.86,99.487l4.83,1.61,2.263,7.917H8.86Zm10.248,9.527-2.72-9.521a1.517,1.517,0,0,0-.979-1.022L7.343,95.783V78.67A1.519,1.519,0,0,1,8.86,77.152a3.211,3.211,0,0,1,1.9,1.012,1.5,1.5,0,0,0,.35.289L18.7,83a1.52,1.52,0,0,0,.781.216h4.552v1.517H18.321l-5.748-2.874a1.517,1.517,0,0,0-2.2,1.357v7.586a1.517,1.517,0,0,0,.736,1.3l7.083,4.25,3.8,12.657Zm6.442,0V93.842h3.035v15.173Zm22.581,0L46.779,98.206a1.513,1.513,0,0,0-.433-.885L44.2,95.176a1.508,1.508,0,0,1-.445-1.073v-.26H55.895v.26a1.508,1.508,0,0,1-.445,1.073l-2.145,2.146a1.515,1.515,0,0,0-.433.885l-1.351,10.809Zm22.937,0V93.842H74.1v15.173Zm13.031,0L77.646,97.4l10.916-6.823a1.518,1.518,0,0,0,.714-1.287V83.221a1.517,1.517,0,0,0-2.2-1.357l-5.748,2.874H75.619V83.221h4.552A1.52,1.52,0,0,0,80.952,83l7.586-4.552a1.5,1.5,0,0,0,.35-.289,3.193,3.193,0,0,1,1.9-1.012,1.519,1.519,0,0,1,1.517,1.517V92.842L82.608,97a1.517,1.517,0,0,0-.874,1.762L84.3,109.015Zm6.694,0H87.425l-2.434-9.736,5.8-2.486Z" transform="translate(0 -17.83)" fill="#12263f"/>
        <path id="Trazado_809001" data-name="Trazado 809001" d="M74.118,28.717v4.812a1.517,1.517,0,0,0,2.359,1.262l5.3-3.536a4.549,4.549,0,0,0,4.476,3.791h5.61l8.721,5.814a1.517,1.517,0,0,0,2.359-1.262V34.786a4.56,4.56,0,0,0,3.035-4.292v-9.1a4.557,4.557,0,0,0-4.552-4.552H95.359V15.322a4.557,4.557,0,0,0-4.552-4.552H75.635a4.557,4.557,0,0,0-4.552,4.552v9.1A4.559,4.559,0,0,0,74.118,28.717Zm27.311-8.844a1.519,1.519,0,0,1,1.517,1.517v9.1a1.519,1.519,0,0,1-1.517,1.517,1.517,1.517,0,0,0-1.517,1.517v3.234l-6.745-4.5a1.518,1.518,0,0,0-.842-.255H86.256a1.519,1.519,0,0,1-1.517-1.517V29.284l.459-.306h5.61a4.557,4.557,0,0,0,4.552-4.552V19.874Zm-16.69,6.069V21.391a1.519,1.519,0,0,1,1.517-1.517h6.069v4.552a1.519,1.519,0,0,1-1.517,1.517ZM74.118,15.322A1.519,1.519,0,0,1,75.635,13.8H90.808a1.519,1.519,0,0,1,1.517,1.517v1.517H86.256A4.557,4.557,0,0,0,81.7,21.391V27.66l-4.552,3.035V27.46a1.517,1.517,0,0,0-1.517-1.517,1.519,1.519,0,0,1-1.517-1.517Z" transform="translate(-19.74 0)" fill="#12263f"/>
        <path id="Trazado_809002" data-name="Trazado 809002" d="M13.168,35.439v4.552a1.517,1.517,0,0,0,2.359,1.262l8.721-5.814h7.127a4.557,4.557,0,0,0,4.552-4.552v-9.1a4.557,4.557,0,0,0-4.552-4.552H13.168a4.557,4.557,0,0,0-4.552,4.552v9.1a4.557,4.557,0,0,0,4.552,4.552ZM11.651,21.784a1.519,1.519,0,0,1,1.517-1.517H31.375a1.519,1.519,0,0,1,1.517,1.517v9.1A1.519,1.519,0,0,1,31.375,32.4H23.789a1.519,1.519,0,0,0-.842.255l-6.745,4.5V33.922A1.517,1.517,0,0,0,14.685,32.4H13.168a1.519,1.519,0,0,1-1.517-1.517Z" transform="translate(-1.274 -1.91)" fill="#12263f"/>
        <rect id="Rectángulo_375479" data-name="Rectángulo 375479" width="3.035" height="3.035" transform="translate(13.412 22.908)" fill="#12263f"/>
        <rect id="Rectángulo_375480" data-name="Rectángulo 375480" width="3.035" height="3.035" transform="translate(19.481 22.908)" fill="#12263f"/>
        <rect id="Rectángulo_375481" data-name="Rectángulo 375481" width="3.035" height="3.035" transform="translate(25.55 22.908)" fill="#12263f"/>
        <path id="Trazado_809003" data-name="Trazado 809003" d="M66.382,63.835a6.069,6.069,0,1,0-6.069-6.069A6.069,6.069,0,0,0,66.382,63.835Zm0-9.1a3.035,3.035,0,1,1-3.035,3.035A3.035,3.035,0,0,1,66.382,54.731Z" transform="translate(-16.556 -12.099)" fill="#12263f"/>
        <path id="Trazado_809004" data-name="Trazado 809004" d="M116.318,62.074A6.069,6.069,0,1,0,122.387,56,6.069,6.069,0,0,0,116.318,62.074Zm6.069-3.035a3.035,3.035,0,1,1-3.035,3.035A3.035,3.035,0,0,1,122.387,59.039Z" transform="translate(-33.112 -13.372)" fill="#12263f"/>
        <path id="Trazado_809005" data-name="Trazado 809005" d="M10.377,68.143a6.069,6.069,0,1,0-6.069-6.069A6.069,6.069,0,0,0,10.377,68.143Zm0-9.1a3.035,3.035,0,1,1-3.035,3.035A3.035,3.035,0,0,1,10.377,59.039Z" transform="translate(0 -13.372)" fill="#12263f"/>
      </g>
    </g>
    <g id="Elipse_8344" data-name="Elipse 8344" transform="translate(1054.379 6062.246)" fill="none" stroke="#67bb75" stroke-width="5">
      <circle cx="64.621" cy="64.621" r="64.621" stroke="none"/>
      <circle cx="64.621" cy="64.621" r="67.121" fill="none"/>
    </g>
  </g>
</svg>
